<svg version="1.1" xmlns="http://www.w3.org/2000/svg" xmlns:xlink="http://www.w3.org/1999/xlink" width="739" height="820"><defs/><g><text fill="#eeeeee" stroke="none" font-family="Arial" font-size="24px" font-style="normal" font-weight="normal" text-decoration="none" x="0" y="0">UNREGISTERED</text><text fill="#eeeeee" stroke="none" font-family="Arial" font-size="24px" font-style="normal" font-weight="normal" text-decoration="none" x="0" y="30">UNREGISTERED</text><text fill="#eeeeee" stroke="none" font-family="Arial" font-size="24px" font-style="normal" font-weight="normal" text-decoration="none" x="0" y="60">UNREGISTERED</text><text fill="#eeeeee" stroke="none" font-family="Arial" font-size="24px" font-style="normal" font-weight="normal" text-decoration="none" x="0" y="90">UNREGISTERED</text><text fill="#eeeeee" stroke="none" font-family="Arial" font-size="24px" font-style="normal" font-weight="normal" text-decoration="none" x="0" y="120">UNREGISTERED</text><text fill="#eeeeee" stroke="none" font-family="Arial" font-size="24px" font-style="normal" font-weight="normal" text-decoration="none" x="0" y="150">UNREGISTERED</text><text fill="#eeeeee" stroke="none" font-family="Arial" font-size="24px" font-style="normal" font-weight="normal" text-decoration="none" x="0" y="180">UNREGISTERED</text><text fill="#eeeeee" stroke="none" font-family="Arial" font-size="24px" font-style="normal" font-weight="normal" text-decoration="none" x="0" y="210">UNREGISTERED</text><text fill="#eeeeee" stroke="none" font-family="Arial" font-size="24px" font-style="normal" font-weight="normal" text-decoration="none" x="0" y="240">UNREGISTERED</text><text fill="#eeeeee" stroke="none" font-family="Arial" font-size="24px" font-style="normal" font-weight="normal" text-decoration="none" x="0" y="270">UNREGISTERED</text><text fill="#eeeeee" stroke="none" font-family="Arial" font-size="24px" font-style="normal" font-weight="normal" text-decoration="none" x="0" y="300">UNREGISTERED</text><text fill="#eeeeee" stroke="none" font-family="Arial" font-size="24px" font-style="normal" font-weight="normal" text-decoration="none" x="0" y="330">UNREGISTERED</text><text fill="#eeeeee" stroke="none" font-family="Arial" font-size="24px" font-style="normal" font-weight="normal" text-decoration="none" x="0" y="360">UNREGISTERED</text><text fill="#eeeeee" stroke="none" font-family="Arial" font-size="24px" font-style="normal" font-weight="normal" text-decoration="none" x="0" y="390">UNREGISTERED</text><text fill="#eeeeee" stroke="none" font-family="Arial" font-size="24px" font-style="normal" font-weight="normal" text-decoration="none" x="0" y="420">UNREGISTERED</text><text fill="#eeeeee" stroke="none" font-family="Arial" font-size="24px" font-style="normal" font-weight="normal" text-decoration="none" x="0" y="450">UNREGISTERED</text><text fill="#eeeeee" stroke="none" font-family="Arial" font-size="24px" font-style="normal" font-weight="normal" text-decoration="none" x="0" y="480">UNREGISTERED</text><text fill="#eeeeee" stroke="none" font-family="Arial" font-size="24px" font-style="normal" font-weight="normal" text-decoration="none" x="0" y="510">UNREGISTERED</text><text fill="#eeeeee" stroke="none" font-family="Arial" font-size="24px" font-style="normal" font-weight="normal" text-decoration="none" x="0" y="540">UNREGISTERED</text><text fill="#eeeeee" stroke="none" font-family="Arial" font-size="24px" font-style="normal" font-weight="normal" text-decoration="none" x="0" y="570">UNREGISTERED</text><text fill="#eeeeee" stroke="none" font-family="Arial" font-size="24px" font-style="normal" font-weight="normal" text-decoration="none" x="0" y="600">UNREGISTERED</text><text fill="#eeeeee" stroke="none" font-family="Arial" font-size="24px" font-style="normal" font-weight="normal" text-decoration="none" x="0" y="630">UNREGISTERED</text><text fill="#eeeeee" stroke="none" font-family="Arial" font-size="24px" font-style="normal" font-weight="normal" text-decoration="none" x="0" y="660">UNREGISTERED</text><text fill="#eeeeee" stroke="none" font-family="Arial" font-size="24px" font-style="normal" font-weight="normal" text-decoration="none" x="0" y="690">UNREGISTERED</text><text fill="#eeeeee" stroke="none" font-family="Arial" font-size="24px" font-style="normal" font-weight="normal" text-decoration="none" x="0" y="720">UNREGISTERED</text><text fill="#eeeeee" stroke="none" font-family="Arial" font-size="24px" font-style="normal" font-weight="normal" text-decoration="none" x="0" y="750">UNREGISTERED</text><text fill="#eeeeee" stroke="none" font-family="Arial" font-size="24px" font-style="normal" font-weight="normal" text-decoration="none" x="0" y="780">UNREGISTERED</text><text fill="#eeeeee" stroke="none" font-family="Arial" font-size="24px" font-style="normal" font-weight="normal" text-decoration="none" x="0" y="810">UNREGISTERED</text><text fill="#eeeeee" stroke="none" font-family="Arial" font-size="24px" font-style="normal" font-weight="normal" text-decoration="none" x="200" y="0">UNREGISTERED</text><text fill="#eeeeee" stroke="none" font-family="Arial" font-size="24px" font-style="normal" font-weight="normal" text-decoration="none" x="200" y="30">UNREGISTERED</text><text fill="#eeeeee" stroke="none" font-family="Arial" font-size="24px" font-style="normal" font-weight="normal" text-decoration="none" x="200" y="60">UNREGISTERED</text><text fill="#eeeeee" stroke="none" font-family="Arial" font-size="24px" font-style="normal" font-weight="normal" text-decoration="none" x="200" y="90">UNREGISTERED</text><text fill="#eeeeee" stroke="none" font-family="Arial" font-size="24px" font-style="normal" font-weight="normal" text-decoration="none" x="200" y="120">UNREGISTERED</text><text fill="#eeeeee" stroke="none" font-family="Arial" font-size="24px" font-style="normal" font-weight="normal" text-decoration="none" x="200" y="150">UNREGISTERED</text><text fill="#eeeeee" stroke="none" font-family="Arial" font-size="24px" font-style="normal" font-weight="normal" text-decoration="none" x="200" y="180">UNREGISTERED</text><text fill="#eeeeee" stroke="none" font-family="Arial" font-size="24px" font-style="normal" font-weight="normal" text-decoration="none" x="200" y="210">UNREGISTERED</text><text fill="#eeeeee" stroke="none" font-family="Arial" font-size="24px" font-style="normal" font-weight="normal" text-decoration="none" x="200" y="240">UNREGISTERED</text><text fill="#eeeeee" stroke="none" font-family="Arial" font-size="24px" font-style="normal" font-weight="normal" text-decoration="none" x="200" y="270">UNREGISTERED</text><text fill="#eeeeee" stroke="none" font-family="Arial" font-size="24px" font-style="normal" font-weight="normal" text-decoration="none" x="200" y="300">UNREGISTERED</text><text fill="#eeeeee" stroke="none" font-family="Arial" font-size="24px" font-style="normal" font-weight="normal" text-decoration="none" x="200" y="330">UNREGISTERED</text><text fill="#eeeeee" stroke="none" font-family="Arial" font-size="24px" font-style="normal" font-weight="normal" text-decoration="none" x="200" y="360">UNREGISTERED</text><text fill="#eeeeee" stroke="none" font-family="Arial" font-size="24px" font-style="normal" font-weight="normal" text-decoration="none" x="200" y="390">UNREGISTERED</text><text fill="#eeeeee" stroke="none" font-family="Arial" font-size="24px" font-style="normal" font-weight="normal" text-decoration="none" x="200" y="420">UNREGISTERED</text><text fill="#eeeeee" stroke="none" font-family="Arial" font-size="24px" font-style="normal" font-weight="normal" text-decoration="none" x="200" y="450">UNREGISTERED</text><text fill="#eeeeee" stroke="none" font-family="Arial" font-size="24px" font-style="normal" font-weight="normal" text-decoration="none" x="200" y="480">UNREGISTERED</text><text fill="#eeeeee" stroke="none" font-family="Arial" font-size="24px" font-style="normal" font-weight="normal" text-decoration="none" x="200" y="510">UNREGISTERED</text><text fill="#eeeeee" stroke="none" font-family="Arial" font-size="24px" font-style="normal" font-weight="normal" text-decoration="none" x="200" y="540">UNREGISTERED</text><text fill="#eeeeee" stroke="none" font-family="Arial" font-size="24px" font-style="normal" font-weight="normal" text-decoration="none" x="200" y="570">UNREGISTERED</text><text fill="#eeeeee" stroke="none" font-family="Arial" font-size="24px" font-style="normal" font-weight="normal" text-decoration="none" x="200" y="600">UNREGISTERED</text><text fill="#eeeeee" stroke="none" font-family="Arial" font-size="24px" font-style="normal" font-weight="normal" text-decoration="none" x="200" y="630">UNREGISTERED</text><text fill="#eeeeee" stroke="none" font-family="Arial" font-size="24px" font-style="normal" font-weight="normal" text-decoration="none" x="200" y="660">UNREGISTERED</text><text fill="#eeeeee" stroke="none" font-family="Arial" font-size="24px" font-style="normal" font-weight="normal" text-decoration="none" x="200" y="690">UNREGISTERED</text><text fill="#eeeeee" stroke="none" font-family="Arial" font-size="24px" font-style="normal" font-weight="normal" text-decoration="none" x="200" y="720">UNREGISTERED</text><text fill="#eeeeee" stroke="none" font-family="Arial" font-size="24px" font-style="normal" font-weight="normal" text-decoration="none" x="200" y="750">UNREGISTERED</text><text fill="#eeeeee" stroke="none" font-family="Arial" font-size="24px" font-style="normal" font-weight="normal" text-decoration="none" x="200" y="780">UNREGISTERED</text><text fill="#eeeeee" stroke="none" font-family="Arial" font-size="24px" font-style="normal" font-weight="normal" text-decoration="none" x="200" y="810">UNREGISTERED</text><text fill="#eeeeee" stroke="none" font-family="Arial" font-size="24px" font-style="normal" font-weight="normal" text-decoration="none" x="400" y="0">UNREGISTERED</text><text fill="#eeeeee" stroke="none" font-family="Arial" font-size="24px" font-style="normal" font-weight="normal" text-decoration="none" x="400" y="30">UNREGISTERED</text><text fill="#eeeeee" stroke="none" font-family="Arial" font-size="24px" font-style="normal" font-weight="normal" text-decoration="none" x="400" y="60">UNREGISTERED</text><text fill="#eeeeee" stroke="none" font-family="Arial" font-size="24px" font-style="normal" font-weight="normal" text-decoration="none" x="400" y="90">UNREGISTERED</text><text fill="#eeeeee" stroke="none" font-family="Arial" font-size="24px" font-style="normal" font-weight="normal" text-decoration="none" x="400" y="120">UNREGISTERED</text><text fill="#eeeeee" stroke="none" font-family="Arial" font-size="24px" font-style="normal" font-weight="normal" text-decoration="none" x="400" y="150">UNREGISTERED</text><text fill="#eeeeee" stroke="none" font-family="Arial" font-size="24px" font-style="normal" font-weight="normal" text-decoration="none" x="400" y="180">UNREGISTERED</text><text fill="#eeeeee" stroke="none" font-family="Arial" font-size="24px" font-style="normal" font-weight="normal" text-decoration="none" x="400" y="210">UNREGISTERED</text><text fill="#eeeeee" stroke="none" font-family="Arial" font-size="24px" font-style="normal" font-weight="normal" text-decoration="none" x="400" y="240">UNREGISTERED</text><text fill="#eeeeee" stroke="none" font-family="Arial" font-size="24px" font-style="normal" font-weight="normal" text-decoration="none" x="400" y="270">UNREGISTERED</text><text fill="#eeeeee" stroke="none" font-family="Arial" font-size="24px" font-style="normal" font-weight="normal" text-decoration="none" x="400" y="300">UNREGISTERED</text><text fill="#eeeeee" stroke="none" font-family="Arial" font-size="24px" font-style="normal" font-weight="normal" text-decoration="none" x="400" y="330">UNREGISTERED</text><text fill="#eeeeee" stroke="none" font-family="Arial" font-size="24px" font-style="normal" font-weight="normal" text-decoration="none" x="400" y="360">UNREGISTERED</text><text fill="#eeeeee" stroke="none" font-family="Arial" font-size="24px" font-style="normal" font-weight="normal" text-decoration="none" x="400" y="390">UNREGISTERED</text><text fill="#eeeeee" stroke="none" font-family="Arial" font-size="24px" font-style="normal" font-weight="normal" text-decoration="none" x="400" y="420">UNREGISTERED</text><text fill="#eeeeee" stroke="none" font-family="Arial" font-size="24px" font-style="normal" font-weight="normal" text-decoration="none" x="400" y="450">UNREGISTERED</text><text fill="#eeeeee" stroke="none" font-family="Arial" font-size="24px" font-style="normal" font-weight="normal" text-decoration="none" x="400" y="480">UNREGISTERED</text><text fill="#eeeeee" stroke="none" font-family="Arial" font-size="24px" font-style="normal" font-weight="normal" text-decoration="none" x="400" y="510">UNREGISTERED</text><text fill="#eeeeee" stroke="none" font-family="Arial" font-size="24px" font-style="normal" font-weight="normal" text-decoration="none" x="400" y="540">UNREGISTERED</text><text fill="#eeeeee" stroke="none" font-family="Arial" font-size="24px" font-style="normal" font-weight="normal" text-decoration="none" x="400" y="570">UNREGISTERED</text><text fill="#eeeeee" stroke="none" font-family="Arial" font-size="24px" font-style="normal" font-weight="normal" text-decoration="none" x="400" y="600">UNREGISTERED</text><text fill="#eeeeee" stroke="none" font-family="Arial" font-size="24px" font-style="normal" font-weight="normal" text-decoration="none" x="400" y="630">UNREGISTERED</text><text fill="#eeeeee" stroke="none" font-family="Arial" font-size="24px" font-style="normal" font-weight="normal" text-decoration="none" x="400" y="660">UNREGISTERED</text><text fill="#eeeeee" stroke="none" font-family="Arial" font-size="24px" font-style="normal" font-weight="normal" text-decoration="none" x="400" y="690">UNREGISTERED</text><text fill="#eeeeee" stroke="none" font-family="Arial" font-size="24px" font-style="normal" font-weight="normal" text-decoration="none" x="400" y="720">UNREGISTERED</text><text fill="#eeeeee" stroke="none" font-family="Arial" font-size="24px" font-style="normal" font-weight="normal" text-decoration="none" x="400" y="750">UNREGISTERED</text><text fill="#eeeeee" stroke="none" font-family="Arial" font-size="24px" font-style="normal" font-weight="normal" text-decoration="none" x="400" y="780">UNREGISTERED</text><text fill="#eeeeee" stroke="none" font-family="Arial" font-size="24px" font-style="normal" font-weight="normal" text-decoration="none" x="400" y="810">UNREGISTERED</text><text fill="#eeeeee" stroke="none" font-family="Arial" font-size="24px" font-style="normal" font-weight="normal" text-decoration="none" x="600" y="0">UNREGISTERED</text><text fill="#eeeeee" stroke="none" font-family="Arial" font-size="24px" font-style="normal" font-weight="normal" text-decoration="none" x="600" y="30">UNREGISTERED</text><text fill="#eeeeee" stroke="none" font-family="Arial" font-size="24px" font-style="normal" font-weight="normal" text-decoration="none" x="600" y="60">UNREGISTERED</text><text fill="#eeeeee" stroke="none" font-family="Arial" font-size="24px" font-style="normal" font-weight="normal" text-decoration="none" x="600" y="90">UNREGISTERED</text><text fill="#eeeeee" stroke="none" font-family="Arial" font-size="24px" font-style="normal" font-weight="normal" text-decoration="none" x="600" y="120">UNREGISTERED</text><text fill="#eeeeee" stroke="none" font-family="Arial" font-size="24px" font-style="normal" font-weight="normal" text-decoration="none" x="600" y="150">UNREGISTERED</text><text fill="#eeeeee" stroke="none" font-family="Arial" font-size="24px" font-style="normal" font-weight="normal" text-decoration="none" x="600" y="180">UNREGISTERED</text><text fill="#eeeeee" stroke="none" font-family="Arial" font-size="24px" font-style="normal" font-weight="normal" text-decoration="none" x="600" y="210">UNREGISTERED</text><text fill="#eeeeee" stroke="none" font-family="Arial" font-size="24px" font-style="normal" font-weight="normal" text-decoration="none" x="600" y="240">UNREGISTERED</text><text fill="#eeeeee" stroke="none" font-family="Arial" font-size="24px" font-style="normal" font-weight="normal" text-decoration="none" x="600" y="270">UNREGISTERED</text><text fill="#eeeeee" stroke="none" font-family="Arial" font-size="24px" font-style="normal" font-weight="normal" text-decoration="none" x="600" y="300">UNREGISTERED</text><text fill="#eeeeee" stroke="none" font-family="Arial" font-size="24px" font-style="normal" font-weight="normal" text-decoration="none" x="600" y="330">UNREGISTERED</text><text fill="#eeeeee" stroke="none" font-family="Arial" font-size="24px" font-style="normal" font-weight="normal" text-decoration="none" x="600" y="360">UNREGISTERED</text><text fill="#eeeeee" stroke="none" font-family="Arial" font-size="24px" font-style="normal" font-weight="normal" text-decoration="none" x="600" y="390">UNREGISTERED</text><text fill="#eeeeee" stroke="none" font-family="Arial" font-size="24px" font-style="normal" font-weight="normal" text-decoration="none" x="600" y="420">UNREGISTERED</text><text fill="#eeeeee" stroke="none" font-family="Arial" font-size="24px" font-style="normal" font-weight="normal" text-decoration="none" x="600" y="450">UNREGISTERED</text><text fill="#eeeeee" stroke="none" font-family="Arial" font-size="24px" font-style="normal" font-weight="normal" text-decoration="none" x="600" y="480">UNREGISTERED</text><text fill="#eeeeee" stroke="none" font-family="Arial" font-size="24px" font-style="normal" font-weight="normal" text-decoration="none" x="600" y="510">UNREGISTERED</text><text fill="#eeeeee" stroke="none" font-family="Arial" font-size="24px" font-style="normal" font-weight="normal" text-decoration="none" x="600" y="540">UNREGISTERED</text><text fill="#eeeeee" stroke="none" font-family="Arial" font-size="24px" font-style="normal" font-weight="normal" text-decoration="none" x="600" y="570">UNREGISTERED</text><text fill="#eeeeee" stroke="none" font-family="Arial" font-size="24px" font-style="normal" font-weight="normal" text-decoration="none" x="600" y="600">UNREGISTERED</text><text fill="#eeeeee" stroke="none" font-family="Arial" font-size="24px" font-style="normal" font-weight="normal" text-decoration="none" x="600" y="630">UNREGISTERED</text><text fill="#eeeeee" stroke="none" font-family="Arial" font-size="24px" font-style="normal" font-weight="normal" text-decoration="none" x="600" y="660">UNREGISTERED</text><text fill="#eeeeee" stroke="none" font-family="Arial" font-size="24px" font-style="normal" font-weight="normal" text-decoration="none" x="600" y="690">UNREGISTERED</text><text fill="#eeeeee" stroke="none" font-family="Arial" font-size="24px" font-style="normal" font-weight="normal" text-decoration="none" x="600" y="720">UNREGISTERED</text><text fill="#eeeeee" stroke="none" font-family="Arial" font-size="24px" font-style="normal" font-weight="normal" text-decoration="none" x="600" y="750">UNREGISTERED</text><text fill="#eeeeee" stroke="none" font-family="Arial" font-size="24px" font-style="normal" font-weight="normal" text-decoration="none" x="600" y="780">UNREGISTERED</text><text fill="#eeeeee" stroke="none" font-family="Arial" font-size="24px" font-style="normal" font-weight="normal" text-decoration="none" x="600" y="810">UNREGISTERED</text><g transform="translate(-46,-14) scale(1,1)"><rect fill="#ffffff" stroke="none" x="56" y="24" width="320" height="21"/></g><g transform="translate(-46,-14) scale(1,1)"><path fill="none" stroke="#000000" d="M 56 24 L 376 24 L 376 45 L 56 45 L 56 24 Z Z" stroke-miterlimit="10" stroke-width="2"/></g><g transform="translate(-46,-14) scale(1,1)"><path fill="none" stroke="#000000" d="M 56 736 L 56 24 L 376 24 L 376 736" stroke-miterlimit="10" stroke-width="2"/></g><g transform="translate(-46,-14) scale(1,1)"><g><path fill="none" stroke="none"/><text fill="#000000" stroke="none" font-family="Arial" font-size="13px" font-style="normal" font-weight="normal" text-decoration="none" x="202.2763671875" y="41">User</text></g></g><g transform="translate(-46,-14) scale(1,1)"><rect fill="#ffffff" stroke="none" x="376" y="24" width="183" height="21"/></g><g transform="translate(-46,-14) scale(1,1)"><path fill="none" stroke="#000000" d="M 376 24 L 559 24 L 559 45 L 376 45 L 376 24 Z Z" stroke-miterlimit="10" stroke-width="2"/></g><g transform="translate(-46,-14) scale(1,1)"><path fill="none" stroke="#000000" d="M 376 728 L 376 24 L 559 24 L 559 728" stroke-miterlimit="10" stroke-width="2"/></g><g transform="translate(-46,-14) scale(1,1)"><g><path fill="none" stroke="none"/><text fill="#000000" stroke="none" font-family="Arial" font-size="13px" font-style="normal" font-weight="normal" text-decoration="none" x="443.2900390625" y="41">Approve</text></g></g><g transform="translate(-46,-14) scale(1,1)"><rect fill="#ffffff" stroke="none" x="560" y="24" width="215" height="21"/></g><g transform="translate(-46,-14) scale(1,1)"><path fill="none" stroke="#000000" d="M 560 24 L 775 24 L 775 45 L 560 45 L 560 24 Z Z" stroke-miterlimit="10" stroke-width="2"/></g><g transform="translate(-46,-14) scale(1,1)"><path fill="none" stroke="#000000" d="M 560 824 L 560 24 L 775 24 L 775 824" stroke-miterlimit="10" stroke-width="2"/></g><g transform="translate(-46,-14) scale(1,1)"><g><path fill="none" stroke="none"/><text fill="#000000" stroke="none" font-family="Arial" font-size="13px" font-style="normal" font-weight="normal" text-decoration="none" x="622.339599609375" y="41">Reset Passwod</text></g></g><g transform="translate(-46,-14) scale(1,1)"><path fill="#C0C0C0" stroke="none" d="M 238 88.5 C 238 83.2532944 242.2532944 79 247.5 79 C 252.7467056 79 257 83.2532944 257 88.5 C 257 93.7467056 252.7467056 98 247.5 98 C 242.2532944 98 238 93.7467056 238 88.5 Z" opacity="0.2"/></g><g transform="translate(-46,-14) scale(1,1)"><path fill="#000000" stroke="none" d="M 231 81.5 C 231 76.2532944 235.2532944 72 240.5 72 C 245.7467056 72 250 76.2532944 250 81.5 C 250 86.7467056 245.7467056 91 240.5 91 C 235.2532944 91 231 86.7467056 231 81.5 Z"/></g><g transform="translate(-46,-14) scale(1,1)"><path fill="#C0C0C0" stroke="none" d="M 163 161 L 331.1181640625 161 Q 341.1181640625 161 341.1181640625 171 L 341.1181640625 191 Q 341.1181640625 201 331.1181640625 201 L 163 201 Q 153 201 153 191 L 153 171 Q 153 161 163 161 Z" opacity="0.2"/></g><g transform="translate(-46,-14) scale(1,1)"><path fill="#ffffff" stroke="none" d="M 156 154 L 324.1181640625 154 Q 334.1181640625 154 334.1181640625 164 L 334.1181640625 184 Q 334.1181640625 194 324.1181640625 194 L 156 194 Q 146 194 146 184 L 146 164 Q 146 154 156 154 Z"/></g><g transform="translate(-46,-14) scale(1,1)"><path fill="none" stroke="#000000" d="M 156 154 L 324.1181640625 154 Q 334.1181640625 154 334.1181640625 164 L 334.1181640625 184 Q 334.1181640625 194 324.1181640625 194 L 156 194 Q 146 194 146 184 L 146 164 Q 146 154 156 154 Z" stroke-miterlimit="10"/></g><g transform="translate(-46,-14) scale(1,1)"><g><path fill="none" stroke="none"/><text fill="#000000" stroke="none" font-family="Arial" font-size="13px" font-style="normal" font-weight="bold" text-decoration="none" x="156.952392578125" y="173.5">Input email or phone number</text></g></g><g transform="translate(-46,-14) scale(1,1)"><path fill="none" stroke="#000000" d="M 240 92 L 240 153" stroke-miterlimit="10"/></g><g transform="translate(-46,-14) scale(1,1)"><path fill="none" stroke="#000000" d="M 235.790482243984 142.83732514237585 L 240 153 L 244.209517756016 142.83732514237585" stroke-miterlimit="10"/></g><g transform="translate(-46,-14) scale(1,1)"><path fill="none" stroke="#000000" d="M 240 195 L 240 254" stroke-miterlimit="10"/></g><g transform="translate(-46,-14) scale(1,1)"><path fill="none" stroke="#000000" d="M 235.790482243984 243.83732514237585 L 240 254 L 244.209517756016 243.83732514237585" stroke-miterlimit="10"/></g><g transform="translate(-46,-14) scale(1,1)"><path fill="none" stroke="#000000" d="M 228 264 L 192 264" stroke-miterlimit="10"/></g><g transform="translate(-46,-14) scale(1,1)"><path fill="none" stroke="#000000" d="M 202.16267485762415 259.790482243984 L 192 264 L 202.16267485762415 268.209517756016" stroke-miterlimit="10"/></g><g transform="translate(-46,-14) scale(1,1)"><path fill="none" stroke="#000000" d="M 240 274 L 240 337" stroke-miterlimit="10"/></g><g transform="translate(-46,-14) scale(1,1)"><path fill="none" stroke="#000000" d="M 235.790482243984 326.83732514237585 L 240 337 L 244.209517756016 326.83732514237585" stroke-miterlimit="10"/></g><g transform="translate(-46,-14) scale(1,1)"><path fill="#C0C0C0" stroke="none" d="M 218 345 L 277.80810546875 345 Q 287.80810546875 345 287.80810546875 355 L 287.80810546875 375 Q 287.80810546875 385 277.80810546875 385 L 218 385 Q 208 385 208 375 L 208 355 Q 208 345 218 345 Z" opacity="0.2"/></g><g transform="translate(-46,-14) scale(1,1)"><path fill="#ffffff" stroke="none" d="M 211 338 L 270.80810546875 338 Q 280.80810546875 338 280.80810546875 348 L 280.80810546875 368 Q 280.80810546875 378 270.80810546875 378 L 211 378 Q 201 378 201 368 L 201 348 Q 201 338 211 338 Z"/></g><g transform="translate(-46,-14) scale(1,1)"><path fill="none" stroke="#000000" d="M 211 338 L 270.80810546875 338 Q 280.80810546875 338 280.80810546875 348 L 280.80810546875 368 Q 280.80810546875 378 270.80810546875 378 L 211 378 Q 201 378 201 368 L 201 348 Q 201 338 211 338 Z" stroke-miterlimit="10"/></g><g transform="translate(-46,-14) scale(1,1)"><g><path fill="none" stroke="none"/><text fill="#000000" stroke="none" font-family="Arial" font-size="13px" font-style="normal" font-weight="bold" text-decoration="none" x="207.674072265625" y="357.5">User match</text></g></g><g transform="translate(-46,-14) scale(1,1)"><path fill="#C0C0C0" stroke="none" d="M 112 251 L 187.66455078125 251 Q 197.66455078125 251 197.66455078125 261 L 197.66455078125 281 Q 197.66455078125 291 187.66455078125 291 L 112 291 Q 102 291 102 281 L 102 261 Q 102 251 112 251 Z" opacity="0.2"/></g><g transform="translate(-46,-14) scale(1,1)"><path fill="#ffffff" stroke="none" d="M 105 244 L 180.66455078125 244 Q 190.66455078125 244 190.66455078125 254 L 190.66455078125 274 Q 190.66455078125 284 180.66455078125 284 L 105 284 Q 95 284 95 274 L 95 254 Q 95 244 105 244 Z"/></g><g transform="translate(-46,-14) scale(1,1)"><path fill="none" stroke="#000000" d="M 105 244 L 180.66455078125 244 Q 190.66455078125 244 190.66455078125 254 L 190.66455078125 274 Q 190.66455078125 284 180.66455078125 284 L 105 284 Q 95 284 95 274 L 95 254 Q 95 244 105 244 Z" stroke-miterlimit="10"/></g><g transform="translate(-46,-14) scale(1,1)"><g><path fill="none" stroke="none"/><text fill="#000000" stroke="none" font-family="Arial" font-size="13px" font-style="normal" font-weight="bold" text-decoration="none" x="101.99462890625" y="263.5">Not found 404</text></g></g><g transform="translate(-46,-14) scale(1,1)"><path fill="#C0C0C0" stroke="none" d="M 236 271.5 L 247.5 262 L 258 271.5 L 247.5 280 L 236 271.5" opacity="0.2"/></g><g transform="translate(-46,-14) scale(1,1)"><path fill="#ffffff" stroke="none" d="M 229 264 L 240 255 L 251 264 L 240 273 L 229 264"/></g><g transform="translate(-46,-14) scale(1,1)"><path fill="none" stroke="#000000" d="M 229 264 L 240 255 L 251 264 L 240 273 L 229 264 L 229 264" stroke-miterlimit="10"/></g><g transform="translate(-46,-14) scale(1,1)"><path fill="#C0C0C0" stroke="none" d="M 137 339.5 C 137 332.59644 142.59644 327 149.5 327 C 156.40356 327 162 332.59644 162 339.5 C 162 346.40356 156.40356 352 149.5 352 C 142.59644 352 137 346.40356 137 339.5 Z" opacity="0.2"/></g><g transform="translate(-46,-14) scale(1,1)"><path fill="none" stroke="#000000" d="M 130 332.5 C 130 325.59644 135.59644 320 142.5 320 C 149.40356 320 155 325.59644 155 332.5 C 155 339.40356 149.40356 345 142.5 345 C 135.59644 345 130 339.40356 130 332.5 Z" stroke-miterlimit="10"/></g><g transform="translate(-46,-14) scale(1,1)"><path fill="#000000" stroke="none" d="M 135 332.5 C 135 328.357864 138.357864 325 142.5 325 C 146.642136 325 150 328.357864 150 332.5 C 150 336.642136 146.642136 340 142.5 340 C 138.357864 340 135 336.642136 135 332.5 Z"/></g><g transform="translate(-46,-14) scale(1,1)"><path fill="none" stroke="#000000" d="M 142 285 L 142 319" stroke-miterlimit="10"/></g><g transform="translate(-46,-14) scale(1,1)"><path fill="none" stroke="#000000" d="M 137.790482243984 308.83732514237585 L 142 319 L 146.209517756016 308.83732514237585" stroke-miterlimit="10"/></g><g transform="translate(-46,-14) scale(1,1)"><path fill="none" stroke="#000000" d="M 240 379 L 240 435" stroke-miterlimit="10"/></g><g transform="translate(-46,-14) scale(1,1)"><path fill="none" stroke="#000000" d="M 235.790482243984 424.83732514237585 L 240 435 L 244.209517756016 424.83732514237585" stroke-miterlimit="10"/></g><g transform="translate(-46,-14) scale(1,1)"><path fill="#C0C0C0" stroke="none" d="M 180 443 L 314.208984375 443 Q 324.208984375 443 324.208984375 453 L 324.208984375 473 Q 324.208984375 483 314.208984375 483 L 180 483 Q 170 483 170 473 L 170 453 Q 170 443 180 443 Z" opacity="0.2"/></g><g transform="translate(-46,-14) scale(1,1)"><path fill="#ffffff" stroke="none" d="M 173 436 L 307.208984375 436 Q 317.208984375 436 317.208984375 446 L 317.208984375 466 Q 317.208984375 476 307.208984375 476 L 173 476 Q 163 476 163 466 L 163 446 Q 163 436 173 436 Z"/></g><g transform="translate(-46,-14) scale(1,1)"><path fill="none" stroke="#000000" d="M 173 436 L 307.208984375 436 Q 317.208984375 436 317.208984375 446 L 317.208984375 466 Q 317.208984375 476 307.208984375 476 L 173 476 Q 163 476 163 466 L 163 446 Q 163 436 173 436 Z" stroke-miterlimit="10"/></g><g transform="translate(-46,-14) scale(1,1)"><g><path fill="none" stroke="none"/><text fill="#000000" stroke="none" font-family="Arial" font-size="13px" font-style="normal" font-weight="bold" text-decoration="none" x="171.819580078125" y="455.5">Request new Password</text></g></g><g transform="translate(-46,-14) scale(1,1)"><path fill="none" stroke="#000000" d="M 318 456 L 447 456" stroke-miterlimit="10"/></g><g transform="translate(-46,-14) scale(1,1)"><path fill="none" stroke="#000000" d="M 436.83732514237585 460.209517756016 L 447 456 L 436.83732514237585 451.790482243984" stroke-miterlimit="10"/></g><g transform="translate(-46,-14) scale(1,1)"><path fill="#C0C0C0" stroke="none" d="M 465 443 L 506.72998046875 443 Q 516.72998046875 443 516.72998046875 453 L 516.72998046875 473 Q 516.72998046875 483 506.72998046875 483 L 465 483 Q 455 483 455 473 L 455 453 Q 455 443 465 443 Z" opacity="0.2"/></g><g transform="translate(-46,-14) scale(1,1)"><path fill="#ffffff" stroke="none" d="M 458 436 L 499.72998046875 436 Q 509.72998046875 436 509.72998046875 446 L 509.72998046875 466 Q 509.72998046875 476 499.72998046875 476 L 458 476 Q 448 476 448 466 L 448 446 Q 448 436 458 436 Z"/></g><g transform="translate(-46,-14) scale(1,1)"><path fill="none" stroke="#000000" d="M 458 436 L 499.72998046875 436 Q 509.72998046875 436 509.72998046875 446 L 509.72998046875 466 Q 509.72998046875 476 499.72998046875 476 L 458 476 Q 448 476 448 466 L 448 446 Q 448 436 458 436 Z" stroke-miterlimit="10"/></g><g transform="translate(-46,-14) scale(1,1)"><g><path fill="none" stroke="none"/><text fill="#000000" stroke="none" font-family="Arial" font-size="13px" font-style="normal" font-weight="bold" text-decoration="none" x="454.655029296875" y="455.5">Approve</text></g></g><g transform="translate(-46,-14) scale(1,1)"><path fill="#C0C0C0" stroke="none" d="M 474 550.5 L 485.5 541 L 496 550.5 L 485.5 559 L 474 550.5" opacity="0.2"/></g><g transform="translate(-46,-14) scale(1,1)"><path fill="#ffffff" stroke="none" d="M 467 543 L 478 534 L 489 543 L 478 552 L 467 543"/></g><g transform="translate(-46,-14) scale(1,1)"><path fill="none" stroke="#000000" d="M 467 543 L 478 534 L 489 543 L 478 552 L 467 543 L 467 543" stroke-miterlimit="10"/></g><g transform="translate(-46,-14) scale(1,1)"><path fill="none" stroke="#000000" d="M 478 477 L 478 533" stroke-miterlimit="10"/></g><g transform="translate(-46,-14) scale(1,1)"><path fill="none" stroke="#000000" d="M 473.790482243984 522.8373251423759 L 478 533 L 482.209517756016 522.8373251423759" stroke-miterlimit="10"/></g><g transform="translate(-46,-14) scale(1,1)"><path fill="none" stroke="#000000" d="M 466 543 L 293 543" stroke-miterlimit="10"/></g><g transform="translate(-46,-14) scale(1,1)"><path fill="none" stroke="#000000" d="M 303.16267485762415 538.790482243984 L 293 543 L 303.16267485762415 547.209517756016" stroke-miterlimit="10"/></g><g transform="translate(-46,-14) scale(1,1)"><path fill="none" stroke="#000000" d="M 490 543 L 628 543" stroke-miterlimit="10"/></g><g transform="translate(-46,-14) scale(1,1)"><path fill="none" stroke="#000000" d="M 617.8373251423759 547.209517756016 L 628 543 L 617.8373251423758 538.790482243984" stroke-miterlimit="10"/></g><g transform="translate(-46,-14) scale(1,1)"><path fill="#C0C0C0" stroke="none" d="M 206 530 L 288.919921875 530 Q 298.919921875 530 298.919921875 540 L 298.919921875 560 Q 298.919921875 570 288.919921875 570 L 206 570 Q 196 570 196 560 L 196 540 Q 196 530 206 530 Z" opacity="0.2"/></g><g transform="translate(-46,-14) scale(1,1)"><path fill="#ffffff" stroke="none" d="M 199 523 L 281.919921875 523 Q 291.919921875 523 291.919921875 533 L 291.919921875 553 Q 291.919921875 563 281.919921875 563 L 199 563 Q 189 563 189 553 L 189 533 Q 189 523 199 523 Z"/></g><g transform="translate(-46,-14) scale(1,1)"><path fill="none" stroke="#000000" d="M 199 523 L 281.919921875 523 Q 291.919921875 523 291.919921875 533 L 291.919921875 553 Q 291.919921875 563 281.919921875 563 L 199 563 Q 189 563 189 553 L 189 533 Q 189 523 199 523 Z" stroke-miterlimit="10"/></g><g transform="translate(-46,-14) scale(1,1)"><g><path fill="none" stroke="none"/><text fill="#000000" stroke="none" font-family="Arial" font-size="13px" font-style="normal" font-weight="bold" text-decoration="none" x="196.02001953125" y="542.5">Reject Request</text></g></g><g transform="translate(-46,-14) scale(1,1)"><path fill="#C0C0C0" stroke="none" d="M 646 530 L 725.30810546875 530 Q 735.30810546875 530 735.30810546875 540 L 735.30810546875 560 Q 735.30810546875 570 725.30810546875 570 L 646 570 Q 636 570 636 560 L 636 540 Q 636 530 646 530 Z" opacity="0.2"/></g><g transform="translate(-46,-14) scale(1,1)"><path fill="#ffffff" stroke="none" d="M 639 523 L 718.30810546875 523 Q 728.30810546875 523 728.30810546875 533 L 728.30810546875 553 Q 728.30810546875 563 718.30810546875 563 L 639 563 Q 629 563 629 553 L 629 533 Q 629 523 639 523 Z"/></g><g transform="translate(-46,-14) scale(1,1)"><path fill="none" stroke="#000000" d="M 639 523 L 718.30810546875 523 Q 728.30810546875 523 728.30810546875 533 L 728.30810546875 553 Q 728.30810546875 563 718.30810546875 563 L 639 563 Q 629 563 629 553 L 629 533 Q 629 523 639 523 Z" stroke-miterlimit="10"/></g><g transform="translate(-46,-14) scale(1,1)"><g><path fill="none" stroke="none"/><text fill="#000000" stroke="none" font-family="Arial" font-size="13px" font-style="normal" font-weight="bold" text-decoration="none" x="636.385009765625" y="542.5">new Password</text></g></g><g transform="translate(-46,-14) scale(1,1)"><path fill="#C0C0C0" stroke="none" d="M 637 607 L 733.63720703125 607 Q 743.63720703125 607 743.63720703125 617 L 743.63720703125 637 Q 743.63720703125 647 733.63720703125 647 L 637 647 Q 627 647 627 637 L 627 617 Q 627 607 637 607 Z" opacity="0.2"/></g><g transform="translate(-46,-14) scale(1,1)"><path fill="#ffffff" stroke="none" d="M 630 600 L 726.63720703125 600 Q 736.63720703125 600 736.63720703125 610 L 736.63720703125 630 Q 736.63720703125 640 726.63720703125 640 L 630 640 Q 620 640 620 630 L 620 610 Q 620 600 630 600 Z"/></g><g transform="translate(-46,-14) scale(1,1)"><path fill="none" stroke="#000000" d="M 630 600 L 726.63720703125 600 Q 736.63720703125 600 736.63720703125 610 L 736.63720703125 630 Q 736.63720703125 640 726.63720703125 640 L 630 640 Q 620 640 620 630 L 620 610 Q 620 600 630 600 Z" stroke-miterlimit="10"/></g><g transform="translate(-46,-14) scale(1,1)"><g><path fill="none" stroke="none"/><text fill="#000000" stroke="none" font-family="Arial" font-size="13px" font-style="normal" font-weight="bold" text-decoration="none" x="628.457763671875" y="619.5">default Password</text></g></g><g transform="translate(-46,-14) scale(1,1)"><path fill="none" stroke="#000000" d="M 678 564 L 678 599" stroke-miterlimit="10"/></g><g transform="translate(-46,-14) scale(1,1)"><path fill="none" stroke="#000000" d="M 673.790482243984 588.8373251423759 L 678 599 L 682.209517756016 588.8373251423759" stroke-miterlimit="10"/></g><g transform="translate(-46,-14) scale(1,1)"><path fill="#C0C0C0" stroke="none" d="M 235 603.5 C 235 596.59644 240.59644 591 247.5 591 C 254.40356 591 260 596.59644 260 603.5 C 260 610.40356 254.40356 616 247.5 616 C 240.59644 616 235 610.40356 235 603.5 Z" opacity="0.2"/></g><g transform="translate(-46,-14) scale(1,1)"><path fill="none" stroke="#000000" d="M 228 596.5 C 228 589.59644 233.59644 584 240.5 584 C 247.40356 584 253 589.59644 253 596.5 C 253 603.40356 247.40356 609 240.5 609 C 233.59644 609 228 603.40356 228 596.5 Z" stroke-miterlimit="10"/></g><g transform="translate(-46,-14) scale(1,1)"><path fill="#000000" stroke="none" d="M 233 596.5 C 233 592.357864 236.357864 589 240.5 589 C 244.642136 589 248 592.357864 248 596.5 C 248 600.642136 244.642136 604 240.5 604 C 236.357864 604 233 600.642136 233 596.5 Z"/></g><g transform="translate(-46,-14) scale(1,1)"><path fill="none" stroke="#000000" d="M 240 564 L 240 583" stroke-miterlimit="10"/></g><g transform="translate(-46,-14) scale(1,1)"><path fill="none" stroke="#000000" d="M 235.790482243984 572.8373251423759 L 240 583 L 244.209517756016 572.8373251423759" stroke-miterlimit="10"/></g><g transform="translate(-46,-14) scale(1,1)"><path fill="#C0C0C0" stroke="none" d="M 674 690.5 L 685.5 681 L 696 690.5 L 685.5 699 L 674 690.5" opacity="0.2"/></g><g transform="translate(-46,-14) scale(1,1)"><path fill="#ffffff" stroke="none" d="M 667 683 L 678 674 L 689 683 L 678 692 L 667 683"/></g><g transform="translate(-46,-14) scale(1,1)"><path fill="none" stroke="#000000" d="M 667 683 L 678 674 L 689 683 L 678 692 L 667 683 L 667 683" stroke-miterlimit="10"/></g><g transform="translate(-46,-14) scale(1,1)"><path fill="none" stroke="#000000" d="M 678 641 L 678 673" stroke-miterlimit="10"/></g><g transform="translate(-46,-14) scale(1,1)"><path fill="none" stroke="#000000" d="M 673.790482243984 662.8373251423759 L 678 673 L 682.209517756016 662.8373251423759" stroke-miterlimit="10"/></g><g transform="translate(-46,-14) scale(1,1)"><path fill="none" stroke="#000000" d="M 666 683 L 635 684" stroke-miterlimit="10"/></g><g transform="translate(-46,-14) scale(1,1)"><path fill="none" stroke="#000000" d="M 645.0216711290793 679.4650129238797 L 635 684 L 645.2931117283115 687.8796715000755" stroke-miterlimit="10"/></g><g transform="translate(-46,-14) scale(1,1)"><path fill="#C0C0C0" stroke="none" d="M 664 745 L 707.91357421875 745 Q 717.91357421875 745 717.91357421875 755 L 717.91357421875 775 Q 717.91357421875 785 707.91357421875 785 L 664 785 Q 654 785 654 775 L 654 755 Q 654 745 664 745 Z" opacity="0.2"/></g><g transform="translate(-46,-14) scale(1,1)"><path fill="#ffffff" stroke="none" d="M 657 738 L 700.91357421875 738 Q 710.91357421875 738 710.91357421875 748 L 710.91357421875 768 Q 710.91357421875 778 700.91357421875 778 L 657 778 Q 647 778 647 768 L 647 748 Q 647 738 657 738 Z"/></g><g transform="translate(-46,-14) scale(1,1)"><path fill="none" stroke="#000000" d="M 657 738 L 700.91357421875 738 Q 710.91357421875 738 710.91357421875 748 L 710.91357421875 768 Q 710.91357421875 778 700.91357421875 778 L 657 778 Q 647 778 647 768 L 647 748 Q 647 738 657 738 Z" stroke-miterlimit="10"/></g><g transform="translate(-46,-14) scale(1,1)"><g><path fill="none" stroke="none"/><text fill="#000000" stroke="none" font-family="Arial" font-size="13px" font-style="normal" font-weight="bold" text-decoration="none" x="651.5" y="757.5">MSG 201</text></g></g><g transform="translate(-46,-14) scale(1,1)"><path fill="none" stroke="#000000" d="M 678 693 L 678 737" stroke-miterlimit="10"/></g><g transform="translate(-46,-14) scale(1,1)"><path fill="none" stroke="#000000" d="M 673.790482243984 726.8373251423759 L 678 737 L 682.209517756016 726.8373251423759" stroke-miterlimit="10"/></g><g transform="translate(-46,-14) scale(1,1)"><path fill="#C0C0C0" stroke="none" d="M 673 811.5 C 673 804.59644 678.59644 799 685.5 799 C 692.40356 799 698 804.59644 698 811.5 C 698 818.40356 692.40356 824 685.5 824 C 678.59644 824 673 818.40356 673 811.5 Z" opacity="0.2"/></g><g transform="translate(-46,-14) scale(1,1)"><path fill="none" stroke="#000000" d="M 666 804.5 C 666 797.59644 671.59644 792 678.5 792 C 685.40356 792 691 797.59644 691 804.5 C 691 811.40356 685.40356 817 678.5 817 C 671.59644 817 666 811.40356 666 804.5 Z" stroke-miterlimit="10"/></g><g transform="translate(-46,-14) scale(1,1)"><path fill="#000000" stroke="none" d="M 671 804.5 C 671 800.357864 674.357864 797 678.5 797 C 682.642136 797 686 800.357864 686 804.5 C 686 808.642136 682.642136 812 678.5 812 C 674.357864 812 671 808.642136 671 804.5 Z"/></g><g transform="translate(-46,-14) scale(1,1)"><path fill="none" stroke="#000000" d="M 678 779 L 678 791" stroke-miterlimit="10"/></g><g transform="translate(-46,-14) scale(1,1)"><path fill="none" stroke="#000000" d="M 673.790482243984 780.8373251423759 L 678 791 L 682.209517756016 780.8373251423759" stroke-miterlimit="10"/></g><g transform="translate(-46,-14) scale(1,1)"><path fill="#C0C0C0" stroke="none" d="M 585 671 L 631.0908203125 671 Q 641.0908203125 671 641.0908203125 681 L 641.0908203125 701 Q 641.0908203125 711 631.0908203125 711 L 585 711 Q 575 711 575 701 L 575 681 Q 575 671 585 671 Z" opacity="0.2"/></g><g transform="translate(-46,-14) scale(1,1)"><path fill="#ffffff" stroke="none" d="M 578 664 L 624.0908203125 664 Q 634.0908203125 664 634.0908203125 674 L 634.0908203125 694 Q 634.0908203125 704 624.0908203125 704 L 578 704 Q 568 704 568 694 L 568 674 Q 568 664 578 664 Z"/></g><g transform="translate(-46,-14) scale(1,1)"><path fill="none" stroke="#000000" d="M 578 664 L 624.0908203125 664 Q 634.0908203125 664 634.0908203125 674 L 634.0908203125 694 Q 634.0908203125 704 624.0908203125 704 L 578 704 Q 568 704 568 694 L 568 674 Q 568 664 578 664 Z" stroke-miterlimit="10"/></g><g transform="translate(-46,-14) scale(1,1)"><g><path fill="none" stroke="none"/><text fill="#000000" stroke="none" font-family="Arial" font-size="13px" font-style="normal" font-weight="bold" text-decoration="none" x="573.950439453125" y="683.5">Error 500</text></g></g><g transform="translate(-46,-14) scale(1,1)"><path fill="none" stroke="#000000" d="M 584 664 L 584 560 M 584 560 A 8 8 0 0 1 592 552 L 629 552" stroke-miterlimit="10"/></g><g transform="translate(-46,-14) scale(1,1)"><path fill="none" stroke="#000000" d="M 618.8373251423759 556.209517756016 L 629 552 L 618.8373251423758 547.790482243984" stroke-miterlimit="10"/></g><g transform="translate(-46,-14) scale(1,1)"><g><path fill="none" stroke="none"/><text fill="#000000" stroke="none" font-family="Arial" font-size="13px" font-style="normal" font-weight="normal" text-decoration="none" x="583.5" y="603.5">MSG</text></g></g></g></svg>