<svg version="1.1" xmlns="http://www.w3.org/2000/svg" xmlns:xlink="http://www.w3.org/1999/xlink" width="1164" height="428"><defs/><g><text fill="#eeeeee" stroke="none" font-family="Arial" font-size="24px" font-style="normal" font-weight="normal" text-decoration="none" x="0" y="0">UNREGISTERED</text><text fill="#eeeeee" stroke="none" font-family="Arial" font-size="24px" font-style="normal" font-weight="normal" text-decoration="none" x="0" y="30">UNREGISTERED</text><text fill="#eeeeee" stroke="none" font-family="Arial" font-size="24px" font-style="normal" font-weight="normal" text-decoration="none" x="0" y="60">UNREGISTERED</text><text fill="#eeeeee" stroke="none" font-family="Arial" font-size="24px" font-style="normal" font-weight="normal" text-decoration="none" x="0" y="90">UNREGISTERED</text><text fill="#eeeeee" stroke="none" font-family="Arial" font-size="24px" font-style="normal" font-weight="normal" text-decoration="none" x="0" y="120">UNREGISTERED</text><text fill="#eeeeee" stroke="none" font-family="Arial" font-size="24px" font-style="normal" font-weight="normal" text-decoration="none" x="0" y="150">UNREGISTERED</text><text fill="#eeeeee" stroke="none" font-family="Arial" font-size="24px" font-style="normal" font-weight="normal" text-decoration="none" x="0" y="180">UNREGISTERED</text><text fill="#eeeeee" stroke="none" font-family="Arial" font-size="24px" font-style="normal" font-weight="normal" text-decoration="none" x="0" y="210">UNREGISTERED</text><text fill="#eeeeee" stroke="none" font-family="Arial" font-size="24px" font-style="normal" font-weight="normal" text-decoration="none" x="0" y="240">UNREGISTERED</text><text fill="#eeeeee" stroke="none" font-family="Arial" font-size="24px" font-style="normal" font-weight="normal" text-decoration="none" x="0" y="270">UNREGISTERED</text><text fill="#eeeeee" stroke="none" font-family="Arial" font-size="24px" font-style="normal" font-weight="normal" text-decoration="none" x="0" y="300">UNREGISTERED</text><text fill="#eeeeee" stroke="none" font-family="Arial" font-size="24px" font-style="normal" font-weight="normal" text-decoration="none" x="0" y="330">UNREGISTERED</text><text fill="#eeeeee" stroke="none" font-family="Arial" font-size="24px" font-style="normal" font-weight="normal" text-decoration="none" x="0" y="360">UNREGISTERED</text><text fill="#eeeeee" stroke="none" font-family="Arial" font-size="24px" font-style="normal" font-weight="normal" text-decoration="none" x="0" y="390">UNREGISTERED</text><text fill="#eeeeee" stroke="none" font-family="Arial" font-size="24px" font-style="normal" font-weight="normal" text-decoration="none" x="0" y="420">UNREGISTERED</text><text fill="#eeeeee" stroke="none" font-family="Arial" font-size="24px" font-style="normal" font-weight="normal" text-decoration="none" x="200" y="0">UNREGISTERED</text><text fill="#eeeeee" stroke="none" font-family="Arial" font-size="24px" font-style="normal" font-weight="normal" text-decoration="none" x="200" y="30">UNREGISTERED</text><text fill="#eeeeee" stroke="none" font-family="Arial" font-size="24px" font-style="normal" font-weight="normal" text-decoration="none" x="200" y="60">UNREGISTERED</text><text fill="#eeeeee" stroke="none" font-family="Arial" font-size="24px" font-style="normal" font-weight="normal" text-decoration="none" x="200" y="90">UNREGISTERED</text><text fill="#eeeeee" stroke="none" font-family="Arial" font-size="24px" font-style="normal" font-weight="normal" text-decoration="none" x="200" y="120">UNREGISTERED</text><text fill="#eeeeee" stroke="none" font-family="Arial" font-size="24px" font-style="normal" font-weight="normal" text-decoration="none" x="200" y="150">UNREGISTERED</text><text fill="#eeeeee" stroke="none" font-family="Arial" font-size="24px" font-style="normal" font-weight="normal" text-decoration="none" x="200" y="180">UNREGISTERED</text><text fill="#eeeeee" stroke="none" font-family="Arial" font-size="24px" font-style="normal" font-weight="normal" text-decoration="none" x="200" y="210">UNREGISTERED</text><text fill="#eeeeee" stroke="none" font-family="Arial" font-size="24px" font-style="normal" font-weight="normal" text-decoration="none" x="200" y="240">UNREGISTERED</text><text fill="#eeeeee" stroke="none" font-family="Arial" font-size="24px" font-style="normal" font-weight="normal" text-decoration="none" x="200" y="270">UNREGISTERED</text><text fill="#eeeeee" stroke="none" font-family="Arial" font-size="24px" font-style="normal" font-weight="normal" text-decoration="none" x="200" y="300">UNREGISTERED</text><text fill="#eeeeee" stroke="none" font-family="Arial" font-size="24px" font-style="normal" font-weight="normal" text-decoration="none" x="200" y="330">UNREGISTERED</text><text fill="#eeeeee" stroke="none" font-family="Arial" font-size="24px" font-style="normal" font-weight="normal" text-decoration="none" x="200" y="360">UNREGISTERED</text><text fill="#eeeeee" stroke="none" font-family="Arial" font-size="24px" font-style="normal" font-weight="normal" text-decoration="none" x="200" y="390">UNREGISTERED</text><text fill="#eeeeee" stroke="none" font-family="Arial" font-size="24px" font-style="normal" font-weight="normal" text-decoration="none" x="200" y="420">UNREGISTERED</text><text fill="#eeeeee" stroke="none" font-family="Arial" font-size="24px" font-style="normal" font-weight="normal" text-decoration="none" x="400" y="0">UNREGISTERED</text><text fill="#eeeeee" stroke="none" font-family="Arial" font-size="24px" font-style="normal" font-weight="normal" text-decoration="none" x="400" y="30">UNREGISTERED</text><text fill="#eeeeee" stroke="none" font-family="Arial" font-size="24px" font-style="normal" font-weight="normal" text-decoration="none" x="400" y="60">UNREGISTERED</text><text fill="#eeeeee" stroke="none" font-family="Arial" font-size="24px" font-style="normal" font-weight="normal" text-decoration="none" x="400" y="90">UNREGISTERED</text><text fill="#eeeeee" stroke="none" font-family="Arial" font-size="24px" font-style="normal" font-weight="normal" text-decoration="none" x="400" y="120">UNREGISTERED</text><text fill="#eeeeee" stroke="none" font-family="Arial" font-size="24px" font-style="normal" font-weight="normal" text-decoration="none" x="400" y="150">UNREGISTERED</text><text fill="#eeeeee" stroke="none" font-family="Arial" font-size="24px" font-style="normal" font-weight="normal" text-decoration="none" x="400" y="180">UNREGISTERED</text><text fill="#eeeeee" stroke="none" font-family="Arial" font-size="24px" font-style="normal" font-weight="normal" text-decoration="none" x="400" y="210">UNREGISTERED</text><text fill="#eeeeee" stroke="none" font-family="Arial" font-size="24px" font-style="normal" font-weight="normal" text-decoration="none" x="400" y="240">UNREGISTERED</text><text fill="#eeeeee" stroke="none" font-family="Arial" font-size="24px" font-style="normal" font-weight="normal" text-decoration="none" x="400" y="270">UNREGISTERED</text><text fill="#eeeeee" stroke="none" font-family="Arial" font-size="24px" font-style="normal" font-weight="normal" text-decoration="none" x="400" y="300">UNREGISTERED</text><text fill="#eeeeee" stroke="none" font-family="Arial" font-size="24px" font-style="normal" font-weight="normal" text-decoration="none" x="400" y="330">UNREGISTERED</text><text fill="#eeeeee" stroke="none" font-family="Arial" font-size="24px" font-style="normal" font-weight="normal" text-decoration="none" x="400" y="360">UNREGISTERED</text><text fill="#eeeeee" stroke="none" font-family="Arial" font-size="24px" font-style="normal" font-weight="normal" text-decoration="none" x="400" y="390">UNREGISTERED</text><text fill="#eeeeee" stroke="none" font-family="Arial" font-size="24px" font-style="normal" font-weight="normal" text-decoration="none" x="400" y="420">UNREGISTERED</text><text fill="#eeeeee" stroke="none" font-family="Arial" font-size="24px" font-style="normal" font-weight="normal" text-decoration="none" x="600" y="0">UNREGISTERED</text><text fill="#eeeeee" stroke="none" font-family="Arial" font-size="24px" font-style="normal" font-weight="normal" text-decoration="none" x="600" y="30">UNREGISTERED</text><text fill="#eeeeee" stroke="none" font-family="Arial" font-size="24px" font-style="normal" font-weight="normal" text-decoration="none" x="600" y="60">UNREGISTERED</text><text fill="#eeeeee" stroke="none" font-family="Arial" font-size="24px" font-style="normal" font-weight="normal" text-decoration="none" x="600" y="90">UNREGISTERED</text><text fill="#eeeeee" stroke="none" font-family="Arial" font-size="24px" font-style="normal" font-weight="normal" text-decoration="none" x="600" y="120">UNREGISTERED</text><text fill="#eeeeee" stroke="none" font-family="Arial" font-size="24px" font-style="normal" font-weight="normal" text-decoration="none" x="600" y="150">UNREGISTERED</text><text fill="#eeeeee" stroke="none" font-family="Arial" font-size="24px" font-style="normal" font-weight="normal" text-decoration="none" x="600" y="180">UNREGISTERED</text><text fill="#eeeeee" stroke="none" font-family="Arial" font-size="24px" font-style="normal" font-weight="normal" text-decoration="none" x="600" y="210">UNREGISTERED</text><text fill="#eeeeee" stroke="none" font-family="Arial" font-size="24px" font-style="normal" font-weight="normal" text-decoration="none" x="600" y="240">UNREGISTERED</text><text fill="#eeeeee" stroke="none" font-family="Arial" font-size="24px" font-style="normal" font-weight="normal" text-decoration="none" x="600" y="270">UNREGISTERED</text><text fill="#eeeeee" stroke="none" font-family="Arial" font-size="24px" font-style="normal" font-weight="normal" text-decoration="none" x="600" y="300">UNREGISTERED</text><text fill="#eeeeee" stroke="none" font-family="Arial" font-size="24px" font-style="normal" font-weight="normal" text-decoration="none" x="600" y="330">UNREGISTERED</text><text fill="#eeeeee" stroke="none" font-family="Arial" font-size="24px" font-style="normal" font-weight="normal" text-decoration="none" x="600" y="360">UNREGISTERED</text><text fill="#eeeeee" stroke="none" font-family="Arial" font-size="24px" font-style="normal" font-weight="normal" text-decoration="none" x="600" y="390">UNREGISTERED</text><text fill="#eeeeee" stroke="none" font-family="Arial" font-size="24px" font-style="normal" font-weight="normal" text-decoration="none" x="600" y="420">UNREGISTERED</text><text fill="#eeeeee" stroke="none" font-family="Arial" font-size="24px" font-style="normal" font-weight="normal" text-decoration="none" x="800" y="0">UNREGISTERED</text><text fill="#eeeeee" stroke="none" font-family="Arial" font-size="24px" font-style="normal" font-weight="normal" text-decoration="none" x="800" y="30">UNREGISTERED</text><text fill="#eeeeee" stroke="none" font-family="Arial" font-size="24px" font-style="normal" font-weight="normal" text-decoration="none" x="800" y="60">UNREGISTERED</text><text fill="#eeeeee" stroke="none" font-family="Arial" font-size="24px" font-style="normal" font-weight="normal" text-decoration="none" x="800" y="90">UNREGISTERED</text><text fill="#eeeeee" stroke="none" font-family="Arial" font-size="24px" font-style="normal" font-weight="normal" text-decoration="none" x="800" y="120">UNREGISTERED</text><text fill="#eeeeee" stroke="none" font-family="Arial" font-size="24px" font-style="normal" font-weight="normal" text-decoration="none" x="800" y="150">UNREGISTERED</text><text fill="#eeeeee" stroke="none" font-family="Arial" font-size="24px" font-style="normal" font-weight="normal" text-decoration="none" x="800" y="180">UNREGISTERED</text><text fill="#eeeeee" stroke="none" font-family="Arial" font-size="24px" font-style="normal" font-weight="normal" text-decoration="none" x="800" y="210">UNREGISTERED</text><text fill="#eeeeee" stroke="none" font-family="Arial" font-size="24px" font-style="normal" font-weight="normal" text-decoration="none" x="800" y="240">UNREGISTERED</text><text fill="#eeeeee" stroke="none" font-family="Arial" font-size="24px" font-style="normal" font-weight="normal" text-decoration="none" x="800" y="270">UNREGISTERED</text><text fill="#eeeeee" stroke="none" font-family="Arial" font-size="24px" font-style="normal" font-weight="normal" text-decoration="none" x="800" y="300">UNREGISTERED</text><text fill="#eeeeee" stroke="none" font-family="Arial" font-size="24px" font-style="normal" font-weight="normal" text-decoration="none" x="800" y="330">UNREGISTERED</text><text fill="#eeeeee" stroke="none" font-family="Arial" font-size="24px" font-style="normal" font-weight="normal" text-decoration="none" x="800" y="360">UNREGISTERED</text><text fill="#eeeeee" stroke="none" font-family="Arial" font-size="24px" font-style="normal" font-weight="normal" text-decoration="none" x="800" y="390">UNREGISTERED</text><text fill="#eeeeee" stroke="none" font-family="Arial" font-size="24px" font-style="normal" font-weight="normal" text-decoration="none" x="800" y="420">UNREGISTERED</text><text fill="#eeeeee" stroke="none" font-family="Arial" font-size="24px" font-style="normal" font-weight="normal" text-decoration="none" x="1000" y="0">UNREGISTERED</text><text fill="#eeeeee" stroke="none" font-family="Arial" font-size="24px" font-style="normal" font-weight="normal" text-decoration="none" x="1000" y="30">UNREGISTERED</text><text fill="#eeeeee" stroke="none" font-family="Arial" font-size="24px" font-style="normal" font-weight="normal" text-decoration="none" x="1000" y="60">UNREGISTERED</text><text fill="#eeeeee" stroke="none" font-family="Arial" font-size="24px" font-style="normal" font-weight="normal" text-decoration="none" x="1000" y="90">UNREGISTERED</text><text fill="#eeeeee" stroke="none" font-family="Arial" font-size="24px" font-style="normal" font-weight="normal" text-decoration="none" x="1000" y="120">UNREGISTERED</text><text fill="#eeeeee" stroke="none" font-family="Arial" font-size="24px" font-style="normal" font-weight="normal" text-decoration="none" x="1000" y="150">UNREGISTERED</text><text fill="#eeeeee" stroke="none" font-family="Arial" font-size="24px" font-style="normal" font-weight="normal" text-decoration="none" x="1000" y="180">UNREGISTERED</text><text fill="#eeeeee" stroke="none" font-family="Arial" font-size="24px" font-style="normal" font-weight="normal" text-decoration="none" x="1000" y="210">UNREGISTERED</text><text fill="#eeeeee" stroke="none" font-family="Arial" font-size="24px" font-style="normal" font-weight="normal" text-decoration="none" x="1000" y="240">UNREGISTERED</text><text fill="#eeeeee" stroke="none" font-family="Arial" font-size="24px" font-style="normal" font-weight="normal" text-decoration="none" x="1000" y="270">UNREGISTERED</text><text fill="#eeeeee" stroke="none" font-family="Arial" font-size="24px" font-style="normal" font-weight="normal" text-decoration="none" x="1000" y="300">UNREGISTERED</text><text fill="#eeeeee" stroke="none" font-family="Arial" font-size="24px" font-style="normal" font-weight="normal" text-decoration="none" x="1000" y="330">UNREGISTERED</text><text fill="#eeeeee" stroke="none" font-family="Arial" font-size="24px" font-style="normal" font-weight="normal" text-decoration="none" x="1000" y="360">UNREGISTERED</text><text fill="#eeeeee" stroke="none" font-family="Arial" font-size="24px" font-style="normal" font-weight="normal" text-decoration="none" x="1000" y="390">UNREGISTERED</text><text fill="#eeeeee" stroke="none" font-family="Arial" font-size="24px" font-style="normal" font-weight="normal" text-decoration="none" x="1000" y="420">UNREGISTERED</text><g transform="translate(-110,10) scale(1,1)"><path fill="none" stroke="#000000" d="M 120 0 L 1264 0 L 1264 408 L 120 408 L 120 0" stroke-miterlimit="10"/></g><g transform="translate(-110,10) scale(1,1)"><path fill="#ffffff" stroke="none" d="M 120 0 L 120 22 L 208.28076171875 22 L 219.28076171875 11 L 219.28076171875 0 L 120 0"/></g><g transform="translate(-110,10) scale(1,1)"><path fill="none" stroke="#000000" d="M 120 0 L 120 22 L 208.28076171875 22 L 219.28076171875 11 L 219.28076171875 0 L 120 0 L 120 0" stroke-miterlimit="10"/></g><g transform="translate(-110,10) scale(1,1)"><g><path fill="none" stroke="none"/><text fill="#000000" stroke="none" font-family="Arial" font-size="13px" font-style="normal" font-weight="normal" text-decoration="none" x="144.72998046875" y="17.5">Sequence</text></g></g><g transform="translate(-110,10) scale(1,1)"><g><path fill="none" stroke="none"/><text fill="#000000" stroke="none" font-family="Arial" font-size="13px" font-style="normal" font-weight="bold" text-decoration="none" x="125" y="17.5">sd</text></g></g><g transform="translate(-110,10) scale(1,1)"><rect fill="#C0C0C0" stroke="none" x="295" y="47" width="71.736328125" height="39" opacity="0.2"/></g><g transform="translate(-110,10) scale(1,1)"><rect fill="#ffffff" stroke="none" x="288" y="40" width="71.736328125" height="39"/></g><g transform="translate(-110,10) scale(1,1)"><path fill="none" stroke="#000000" d="M 288 40 L 359.736328125 40 L 359.736328125 79 L 288 79 L 288 40 Z Z" stroke-miterlimit="10"/></g><g transform="translate(-110,10) scale(1,1)"><g><path fill="none" stroke="none"/><text fill="#000000" stroke="none" font-family="Arial" font-size="13px" font-style="normal" font-weight="bold" text-decoration="none" x="311.944091796875" y="59.5">web</text></g></g><g transform="translate(-110,10) scale(1,1)"><path fill="none" stroke="#000000" d="M 324.5 80 L 324.5 392" stroke-miterlimit="10" stroke-dasharray="3"/></g><g transform="translate(-110,10) scale(1,1)"><rect fill="#C0C0C0" stroke="none" x="679" y="47" width="71.736328125" height="39" opacity="0.2"/></g><g transform="translate(-110,10) scale(1,1)"><rect fill="#ffffff" stroke="none" x="672" y="40" width="71.736328125" height="39"/></g><g transform="translate(-110,10) scale(1,1)"><path fill="none" stroke="#000000" d="M 672 40 L 743.736328125 40 L 743.736328125 79 L 672 79 L 672 40 Z Z" stroke-miterlimit="10"/></g><g transform="translate(-110,10) scale(1,1)"><g><path fill="none" stroke="none"/><text fill="#000000" stroke="none" font-family="Arial" font-size="13px" font-style="normal" font-weight="bold" text-decoration="none" x="694.14453125" y="59.5">User</text></g></g><g transform="translate(-110,10) scale(1,1)"><path fill="none" stroke="#000000" d="M 708.5 80 L 708.5 392" stroke-miterlimit="10" stroke-dasharray="3"/></g><g transform="translate(-110,10) scale(1,1)"><rect fill="#C0C0C0" stroke="none" x="495" y="47" width="71.736328125" height="39" opacity="0.2"/></g><g transform="translate(-110,10) scale(1,1)"><rect fill="#ffffff" stroke="none" x="488" y="40" width="71.736328125" height="39"/></g><g transform="translate(-110,10) scale(1,1)"><path fill="none" stroke="#000000" d="M 488 40 L 559.736328125 40 L 559.736328125 79 L 488 79 L 488 40 Z Z" stroke-miterlimit="10"/></g><g transform="translate(-110,10) scale(1,1)"><g><path fill="none" stroke="none"/><text fill="#000000" stroke="none" font-family="Arial" font-size="13px" font-style="normal" font-weight="bold" text-decoration="none" x="513.391357421875" y="59.5">API</text></g></g><g transform="translate(-110,10) scale(1,1)"><path fill="none" stroke="#000000" d="M 524.5 80 L 524.5 384" stroke-miterlimit="10" stroke-dasharray="3"/></g><g transform="translate(-110,10) scale(1,1)"><rect fill="#C0C0C0" stroke="none" x="847" y="47" width="71.736328125" height="39" opacity="0.2"/></g><g transform="translate(-110,10) scale(1,1)"><rect fill="#ffffff" stroke="none" x="840" y="40" width="71.736328125" height="39"/></g><g transform="translate(-110,10) scale(1,1)"><path fill="none" stroke="#000000" d="M 840 40 L 911.736328125 40 L 911.736328125 79 L 840 79 L 840 40 Z Z" stroke-miterlimit="10"/></g><g transform="translate(-110,10) scale(1,1)"><g><path fill="none" stroke="none"/><text fill="#000000" stroke="none" font-family="Arial" font-size="13px" font-style="normal" font-weight="bold" text-decoration="none" x="851.658203125" y="59.5">Approve</text></g></g><g transform="translate(-110,10) scale(1,1)"><path fill="none" stroke="#000000" d="M 876.5 80 L 876.5 376" stroke-miterlimit="10" stroke-dasharray="3"/></g><g transform="translate(-110,10) scale(1,1)"><rect fill="#C0C0C0" stroke="none" x="1031" y="47" width="119.4326171875" height="39" opacity="0.2"/></g><g transform="translate(-110,10) scale(1,1)"><rect fill="#ffffff" stroke="none" x="1024" y="40" width="119.4326171875" height="39"/></g><g transform="translate(-110,10) scale(1,1)"><path fill="none" stroke="#000000" d="M 1024 40 L 1143.4326171875 40 L 1143.4326171875 79 L 1024 79 L 1024 40 Z Z" stroke-miterlimit="10"/></g><g transform="translate(-110,10) scale(1,1)"><g><path fill="none" stroke="none"/><text fill="#000000" stroke="none" font-family="Arial" font-size="13px" font-style="normal" font-weight="bold" text-decoration="none" x="1036.391357421875" y="59.5">Reset Passowrd</text></g></g><g transform="translate(-110,10) scale(1,1)"><path fill="none" stroke="#000000" d="M 1084.5 80 L 1084.5 376" stroke-miterlimit="10" stroke-dasharray="3"/></g><g transform="translate(-110,10) scale(1,1)"><path fill="none" stroke="#000000" d="M 324 107 L 517 107" stroke-miterlimit="10"/></g><g transform="translate(-110,10) scale(1,1)"><path fill="none" stroke="#000000" d="M 506.83732514237585 111.20951775601598 L 517 107 L 506.83732514237585 102.79048224398402" stroke-miterlimit="10"/></g><g transform="translate(-110,10) scale(1,1)"><g><path fill="none" stroke="none"/><text fill="#000000" stroke="none" font-family="Arial" font-size="13px" font-style="normal" font-weight="normal" text-decoration="none" x="345.5" y="103.5">1 : request new password</text></g></g><g transform="translate(-110,10) scale(1,1)"><rect fill="#ffffff" stroke="none" x="517" y="107" width="13" height="245"/></g><g transform="translate(-110,10) scale(1,1)"><path fill="none" stroke="#000000" d="M 517 107 L 530 107 L 530 352 L 517 352 L 517 107 Z Z" stroke-miterlimit="10"/></g><g transform="translate(-110,10) scale(1,1)"><path fill="none" stroke="#000000" d="M 530 123 L 701 123" stroke-miterlimit="10"/></g><g transform="translate(-110,10) scale(1,1)"><path fill="none" stroke="#000000" d="M 690.8373251423759 127.20951775601598 L 701 123 L 690.8373251423758 118.79048224398402" stroke-miterlimit="10"/></g><g transform="translate(-110,10) scale(1,1)"><g><path fill="none" stroke="none"/><text fill="#000000" stroke="none" font-family="Arial" font-size="13px" font-style="normal" font-weight="normal" text-decoration="none" x="574.80908203125" y="107.5">2 : request</text></g></g><g transform="translate(-110,10) scale(1,1)"><rect fill="#ffffff" stroke="none" x="701" y="123" width="13" height="221"/></g><g transform="translate(-110,10) scale(1,1)"><path fill="none" stroke="#000000" d="M 701 123 L 714 123 L 714 344 L 701 344 L 701 123 Z Z" stroke-miterlimit="10"/></g><g transform="translate(-110,10) scale(1,1)"><path fill="none" stroke="#000000" d="M 714 136 L 744 136 L 744 156 L 721 156" stroke-miterlimit="10"/></g><g transform="translate(-110,10) scale(1,1)"><path fill="#000000" stroke="none" d="M 731.1626748576241 151.790482243984 L 721 156 L 731.1626748576241 160.209517756016"/></g><g transform="translate(-110,10) scale(1,1)"><path fill="none" stroke="#000000" d="M 731.1626748576241 151.790482243984 L 721 156 L 731.1626748576241 160.209517756016 L 731.1626748576241 151.790482243984" stroke-miterlimit="10"/></g><g transform="translate(-110,10) scale(1,1)"><g><path fill="none" stroke="none"/><text fill="#000000" stroke="none" font-family="Arial" font-size="13px" font-style="normal" font-weight="normal" text-decoration="none" x="719.5" y="132.5">3 : Check User</text></g></g><g transform="translate(-110,10) scale(1,1)"><rect fill="#ffffff" stroke="none" x="708" y="156" width="13" height="28"/></g><g transform="translate(-110,10) scale(1,1)"><path fill="none" stroke="#000000" d="M 708 156 L 721 156 L 721 184 L 708 184 L 708 156 Z Z" stroke-miterlimit="10"/></g><g transform="translate(-110,10) scale(1,1)"><path fill="none" stroke="#000000" d="M 714 184 L 869 184" stroke-miterlimit="10"/></g><g transform="translate(-110,10) scale(1,1)"><path fill="none" stroke="#000000" d="M 858.8373251423759 188.209517756016 L 869 184 L 858.8373251423758 179.790482243984" stroke-miterlimit="10"/></g><g transform="translate(-110,10) scale(1,1)"><g><path fill="none" stroke="none"/><text fill="#000000" stroke="none" font-family="Arial" font-size="13px" font-style="normal" font-weight="normal" text-decoration="none" x="757.279541015625" y="180.5">4 : Approve</text></g></g><g transform="translate(-110,10) scale(1,1)"><rect fill="#ffffff" stroke="none" x="869" y="184" width="13" height="67"/></g><g transform="translate(-110,10) scale(1,1)"><path fill="none" stroke="#000000" d="M 869 184 L 882 184 L 882 251 L 869 251 L 869 184 Z Z" stroke-miterlimit="10"/></g><g transform="translate(-110,10) scale(1,1)"><path fill="none" stroke="#000000" d="M 882 200 L 912 200 L 912 220 L 889 220" stroke-miterlimit="10"/></g><g transform="translate(-110,10) scale(1,1)"><path fill="#000000" stroke="none" d="M 899.1626748576241 215.790482243984 L 889 220 L 899.1626748576241 224.209517756016"/></g><g transform="translate(-110,10) scale(1,1)"><path fill="none" stroke="#000000" d="M 899.1626748576241 215.790482243984 L 889 220 L 899.1626748576241 224.209517756016 L 899.1626748576241 215.790482243984" stroke-miterlimit="10"/></g><g transform="translate(-110,10) scale(1,1)"><g><path fill="none" stroke="none"/><text fill="#000000" stroke="none" font-family="Arial" font-size="13px" font-style="normal" font-weight="normal" text-decoration="none" x="895.5" y="196.5">5 : reject or approve</text></g></g><g transform="translate(-110,10) scale(1,1)"><rect fill="#ffffff" stroke="none" x="876" y="220" width="13" height="28"/></g><g transform="translate(-110,10) scale(1,1)"><path fill="none" stroke="#000000" d="M 876 220 L 889 220 L 889 248 L 876 248 L 876 220 Z Z" stroke-miterlimit="10"/></g><g transform="translate(-110,10) scale(1,1)"><path fill="none" stroke="#000000" d="M 869 248 L 714 248" stroke-miterlimit="10" stroke-dasharray="3"/></g><g transform="translate(-110,10) scale(1,1)"><path fill="none" stroke="#000000" d="M 724.1626748576241 243.790482243984 L 714 248 L 724.1626748576241 252.209517756016" stroke-miterlimit="10"/></g><g transform="translate(-110,10) scale(1,1)"><g><path fill="none" stroke="none"/><text fill="#000000" stroke="none" font-family="Arial" font-size="13px" font-style="normal" font-weight="normal" text-decoration="none" x="746.5" y="264.5">6 : return value</text></g></g><g transform="translate(-110,10) scale(1,1)"><path fill="none" stroke="#000000" d="M 714 272 L 1077 272" stroke-miterlimit="10"/></g><g transform="translate(-110,10) scale(1,1)"><path fill="none" stroke="#000000" d="M 1066.837325142376 276.209517756016 L 1077 272 L 1066.837325142376 267.790482243984" stroke-miterlimit="10"/></g><g transform="translate(-110,10) scale(1,1)"><g><path fill="none" stroke="none"/><text fill="#000000" stroke="none" font-family="Arial" font-size="13px" font-style="normal" font-weight="normal" text-decoration="none" x="935.5" y="268.5">7 : new password</text></g></g><g transform="translate(-110,10) scale(1,1)"><rect fill="#ffffff" stroke="none" x="1077" y="272" width="13" height="64"/></g><g transform="translate(-110,10) scale(1,1)"><path fill="none" stroke="#000000" d="M 1077 272 L 1090 272 L 1090 336 L 1077 336 L 1077 272 Z Z" stroke-miterlimit="10"/></g><g transform="translate(-110,10) scale(1,1)"><path fill="none" stroke="#000000" d="M 1090 280 L 1120 280 L 1120 300 L 1097 300" stroke-miterlimit="10"/></g><g transform="translate(-110,10) scale(1,1)"><path fill="#000000" stroke="none" d="M 1107.162674857624 295.790482243984 L 1097 300 L 1107.162674857624 304.209517756016"/></g><g transform="translate(-110,10) scale(1,1)"><path fill="none" stroke="#000000" d="M 1107.162674857624 295.790482243984 L 1097 300 L 1107.162674857624 304.209517756016 L 1107.162674857624 295.790482243984" stroke-miterlimit="10"/></g><g transform="translate(-110,10) scale(1,1)"><g><path fill="none" stroke="none"/><text fill="#000000" stroke="none" font-family="Arial" font-size="13px" font-style="normal" font-weight="normal" text-decoration="none" x="1102.5" y="276.5">8 : default password</text></g></g><g transform="translate(-110,10) scale(1,1)"><rect fill="#ffffff" stroke="none" x="1084" y="300" width="13" height="28"/></g><g transform="translate(-110,10) scale(1,1)"><path fill="none" stroke="#000000" d="M 1084 300 L 1097 300 L 1097 328 L 1084 328 L 1084 300 Z Z" stroke-miterlimit="10"/></g><g transform="translate(-110,10) scale(1,1)"><path fill="none" stroke="#000000" d="M 701 336 L 530 336" stroke-miterlimit="10" stroke-dasharray="3"/></g><g transform="translate(-110,10) scale(1,1)"><path fill="none" stroke="#000000" d="M 540.1626748576241 331.790482243984 L 530 336 L 540.1626748576241 340.209517756016" stroke-miterlimit="10"/></g><g transform="translate(-110,10) scale(1,1)"><g><path fill="none" stroke="none"/><text fill="#000000" stroke="none" font-family="Arial" font-size="13px" font-style="normal" font-weight="normal" text-decoration="none" x="563.114990234375" y="352.5">9 : return value</text></g></g><g transform="translate(-110,10) scale(1,1)"><path fill="none" stroke="#000000" d="M 1084 336 L 714 336" stroke-miterlimit="10" stroke-dasharray="3"/></g><g transform="translate(-110,10) scale(1,1)"><path fill="none" stroke="#000000" d="M 724.1626748576241 331.790482243984 L 714 336 L 724.1626748576241 340.209517756016" stroke-miterlimit="10"/></g><g transform="translate(-110,10) scale(1,1)"><g><path fill="none" stroke="none"/><text fill="#000000" stroke="none" font-family="Arial" font-size="13px" font-style="normal" font-weight="normal" text-decoration="none" x="943.5" y="351.5">10 : return value</text></g></g><g transform="translate(-110,10) scale(1,1)"><path fill="none" stroke="#000000" d="M 524 352 L 324 352" stroke-miterlimit="10" stroke-dasharray="3"/></g><g transform="translate(-110,10) scale(1,1)"><path fill="none" stroke="#000000" d="M 334.16267485762415 347.790482243984 L 324 352 L 334.16267485762415 356.209517756016" stroke-miterlimit="10"/></g><g transform="translate(-110,10) scale(1,1)"><g><path fill="none" stroke="none"/><text fill="#000000" stroke="none" font-family="Arial" font-size="13px" font-style="normal" font-weight="normal" text-decoration="none" x="379.5" y="368.5">11 : return msg</text></g></g></g></svg>