<svg version="1.1" xmlns="http://www.w3.org/2000/svg" xmlns:xlink="http://www.w3.org/1999/xlink" width="836" height="676"><defs/><g><text fill="#eeeeee" stroke="none" font-family="Arial" font-size="24px" font-style="normal" font-weight="normal" text-decoration="none" x="0" y="0">UNREGISTERED</text><text fill="#eeeeee" stroke="none" font-family="Arial" font-size="24px" font-style="normal" font-weight="normal" text-decoration="none" x="0" y="30">UNREGISTERED</text><text fill="#eeeeee" stroke="none" font-family="Arial" font-size="24px" font-style="normal" font-weight="normal" text-decoration="none" x="0" y="60">UNREGISTERED</text><text fill="#eeeeee" stroke="none" font-family="Arial" font-size="24px" font-style="normal" font-weight="normal" text-decoration="none" x="0" y="90">UNREGISTERED</text><text fill="#eeeeee" stroke="none" font-family="Arial" font-size="24px" font-style="normal" font-weight="normal" text-decoration="none" x="0" y="120">UNREGISTERED</text><text fill="#eeeeee" stroke="none" font-family="Arial" font-size="24px" font-style="normal" font-weight="normal" text-decoration="none" x="0" y="150">UNREGISTERED</text><text fill="#eeeeee" stroke="none" font-family="Arial" font-size="24px" font-style="normal" font-weight="normal" text-decoration="none" x="0" y="180">UNREGISTERED</text><text fill="#eeeeee" stroke="none" font-family="Arial" font-size="24px" font-style="normal" font-weight="normal" text-decoration="none" x="0" y="210">UNREGISTERED</text><text fill="#eeeeee" stroke="none" font-family="Arial" font-size="24px" font-style="normal" font-weight="normal" text-decoration="none" x="0" y="240">UNREGISTERED</text><text fill="#eeeeee" stroke="none" font-family="Arial" font-size="24px" font-style="normal" font-weight="normal" text-decoration="none" x="0" y="270">UNREGISTERED</text><text fill="#eeeeee" stroke="none" font-family="Arial" font-size="24px" font-style="normal" font-weight="normal" text-decoration="none" x="0" y="300">UNREGISTERED</text><text fill="#eeeeee" stroke="none" font-family="Arial" font-size="24px" font-style="normal" font-weight="normal" text-decoration="none" x="0" y="330">UNREGISTERED</text><text fill="#eeeeee" stroke="none" font-family="Arial" font-size="24px" font-style="normal" font-weight="normal" text-decoration="none" x="0" y="360">UNREGISTERED</text><text fill="#eeeeee" stroke="none" font-family="Arial" font-size="24px" font-style="normal" font-weight="normal" text-decoration="none" x="0" y="390">UNREGISTERED</text><text fill="#eeeeee" stroke="none" font-family="Arial" font-size="24px" font-style="normal" font-weight="normal" text-decoration="none" x="0" y="420">UNREGISTERED</text><text fill="#eeeeee" stroke="none" font-family="Arial" font-size="24px" font-style="normal" font-weight="normal" text-decoration="none" x="0" y="450">UNREGISTERED</text><text fill="#eeeeee" stroke="none" font-family="Arial" font-size="24px" font-style="normal" font-weight="normal" text-decoration="none" x="0" y="480">UNREGISTERED</text><text fill="#eeeeee" stroke="none" font-family="Arial" font-size="24px" font-style="normal" font-weight="normal" text-decoration="none" x="0" y="510">UNREGISTERED</text><text fill="#eeeeee" stroke="none" font-family="Arial" font-size="24px" font-style="normal" font-weight="normal" text-decoration="none" x="0" y="540">UNREGISTERED</text><text fill="#eeeeee" stroke="none" font-family="Arial" font-size="24px" font-style="normal" font-weight="normal" text-decoration="none" x="0" y="570">UNREGISTERED</text><text fill="#eeeeee" stroke="none" font-family="Arial" font-size="24px" font-style="normal" font-weight="normal" text-decoration="none" x="0" y="600">UNREGISTERED</text><text fill="#eeeeee" stroke="none" font-family="Arial" font-size="24px" font-style="normal" font-weight="normal" text-decoration="none" x="0" y="630">UNREGISTERED</text><text fill="#eeeeee" stroke="none" font-family="Arial" font-size="24px" font-style="normal" font-weight="normal" text-decoration="none" x="0" y="660">UNREGISTERED</text><text fill="#eeeeee" stroke="none" font-family="Arial" font-size="24px" font-style="normal" font-weight="normal" text-decoration="none" x="200" y="0">UNREGISTERED</text><text fill="#eeeeee" stroke="none" font-family="Arial" font-size="24px" font-style="normal" font-weight="normal" text-decoration="none" x="200" y="30">UNREGISTERED</text><text fill="#eeeeee" stroke="none" font-family="Arial" font-size="24px" font-style="normal" font-weight="normal" text-decoration="none" x="200" y="60">UNREGISTERED</text><text fill="#eeeeee" stroke="none" font-family="Arial" font-size="24px" font-style="normal" font-weight="normal" text-decoration="none" x="200" y="90">UNREGISTERED</text><text fill="#eeeeee" stroke="none" font-family="Arial" font-size="24px" font-style="normal" font-weight="normal" text-decoration="none" x="200" y="120">UNREGISTERED</text><text fill="#eeeeee" stroke="none" font-family="Arial" font-size="24px" font-style="normal" font-weight="normal" text-decoration="none" x="200" y="150">UNREGISTERED</text><text fill="#eeeeee" stroke="none" font-family="Arial" font-size="24px" font-style="normal" font-weight="normal" text-decoration="none" x="200" y="180">UNREGISTERED</text><text fill="#eeeeee" stroke="none" font-family="Arial" font-size="24px" font-style="normal" font-weight="normal" text-decoration="none" x="200" y="210">UNREGISTERED</text><text fill="#eeeeee" stroke="none" font-family="Arial" font-size="24px" font-style="normal" font-weight="normal" text-decoration="none" x="200" y="240">UNREGISTERED</text><text fill="#eeeeee" stroke="none" font-family="Arial" font-size="24px" font-style="normal" font-weight="normal" text-decoration="none" x="200" y="270">UNREGISTERED</text><text fill="#eeeeee" stroke="none" font-family="Arial" font-size="24px" font-style="normal" font-weight="normal" text-decoration="none" x="200" y="300">UNREGISTERED</text><text fill="#eeeeee" stroke="none" font-family="Arial" font-size="24px" font-style="normal" font-weight="normal" text-decoration="none" x="200" y="330">UNREGISTERED</text><text fill="#eeeeee" stroke="none" font-family="Arial" font-size="24px" font-style="normal" font-weight="normal" text-decoration="none" x="200" y="360">UNREGISTERED</text><text fill="#eeeeee" stroke="none" font-family="Arial" font-size="24px" font-style="normal" font-weight="normal" text-decoration="none" x="200" y="390">UNREGISTERED</text><text fill="#eeeeee" stroke="none" font-family="Arial" font-size="24px" font-style="normal" font-weight="normal" text-decoration="none" x="200" y="420">UNREGISTERED</text><text fill="#eeeeee" stroke="none" font-family="Arial" font-size="24px" font-style="normal" font-weight="normal" text-decoration="none" x="200" y="450">UNREGISTERED</text><text fill="#eeeeee" stroke="none" font-family="Arial" font-size="24px" font-style="normal" font-weight="normal" text-decoration="none" x="200" y="480">UNREGISTERED</text><text fill="#eeeeee" stroke="none" font-family="Arial" font-size="24px" font-style="normal" font-weight="normal" text-decoration="none" x="200" y="510">UNREGISTERED</text><text fill="#eeeeee" stroke="none" font-family="Arial" font-size="24px" font-style="normal" font-weight="normal" text-decoration="none" x="200" y="540">UNREGISTERED</text><text fill="#eeeeee" stroke="none" font-family="Arial" font-size="24px" font-style="normal" font-weight="normal" text-decoration="none" x="200" y="570">UNREGISTERED</text><text fill="#eeeeee" stroke="none" font-family="Arial" font-size="24px" font-style="normal" font-weight="normal" text-decoration="none" x="200" y="600">UNREGISTERED</text><text fill="#eeeeee" stroke="none" font-family="Arial" font-size="24px" font-style="normal" font-weight="normal" text-decoration="none" x="200" y="630">UNREGISTERED</text><text fill="#eeeeee" stroke="none" font-family="Arial" font-size="24px" font-style="normal" font-weight="normal" text-decoration="none" x="200" y="660">UNREGISTERED</text><text fill="#eeeeee" stroke="none" font-family="Arial" font-size="24px" font-style="normal" font-weight="normal" text-decoration="none" x="400" y="0">UNREGISTERED</text><text fill="#eeeeee" stroke="none" font-family="Arial" font-size="24px" font-style="normal" font-weight="normal" text-decoration="none" x="400" y="30">UNREGISTERED</text><text fill="#eeeeee" stroke="none" font-family="Arial" font-size="24px" font-style="normal" font-weight="normal" text-decoration="none" x="400" y="60">UNREGISTERED</text><text fill="#eeeeee" stroke="none" font-family="Arial" font-size="24px" font-style="normal" font-weight="normal" text-decoration="none" x="400" y="90">UNREGISTERED</text><text fill="#eeeeee" stroke="none" font-family="Arial" font-size="24px" font-style="normal" font-weight="normal" text-decoration="none" x="400" y="120">UNREGISTERED</text><text fill="#eeeeee" stroke="none" font-family="Arial" font-size="24px" font-style="normal" font-weight="normal" text-decoration="none" x="400" y="150">UNREGISTERED</text><text fill="#eeeeee" stroke="none" font-family="Arial" font-size="24px" font-style="normal" font-weight="normal" text-decoration="none" x="400" y="180">UNREGISTERED</text><text fill="#eeeeee" stroke="none" font-family="Arial" font-size="24px" font-style="normal" font-weight="normal" text-decoration="none" x="400" y="210">UNREGISTERED</text><text fill="#eeeeee" stroke="none" font-family="Arial" font-size="24px" font-style="normal" font-weight="normal" text-decoration="none" x="400" y="240">UNREGISTERED</text><text fill="#eeeeee" stroke="none" font-family="Arial" font-size="24px" font-style="normal" font-weight="normal" text-decoration="none" x="400" y="270">UNREGISTERED</text><text fill="#eeeeee" stroke="none" font-family="Arial" font-size="24px" font-style="normal" font-weight="normal" text-decoration="none" x="400" y="300">UNREGISTERED</text><text fill="#eeeeee" stroke="none" font-family="Arial" font-size="24px" font-style="normal" font-weight="normal" text-decoration="none" x="400" y="330">UNREGISTERED</text><text fill="#eeeeee" stroke="none" font-family="Arial" font-size="24px" font-style="normal" font-weight="normal" text-decoration="none" x="400" y="360">UNREGISTERED</text><text fill="#eeeeee" stroke="none" font-family="Arial" font-size="24px" font-style="normal" font-weight="normal" text-decoration="none" x="400" y="390">UNREGISTERED</text><text fill="#eeeeee" stroke="none" font-family="Arial" font-size="24px" font-style="normal" font-weight="normal" text-decoration="none" x="400" y="420">UNREGISTERED</text><text fill="#eeeeee" stroke="none" font-family="Arial" font-size="24px" font-style="normal" font-weight="normal" text-decoration="none" x="400" y="450">UNREGISTERED</text><text fill="#eeeeee" stroke="none" font-family="Arial" font-size="24px" font-style="normal" font-weight="normal" text-decoration="none" x="400" y="480">UNREGISTERED</text><text fill="#eeeeee" stroke="none" font-family="Arial" font-size="24px" font-style="normal" font-weight="normal" text-decoration="none" x="400" y="510">UNREGISTERED</text><text fill="#eeeeee" stroke="none" font-family="Arial" font-size="24px" font-style="normal" font-weight="normal" text-decoration="none" x="400" y="540">UNREGISTERED</text><text fill="#eeeeee" stroke="none" font-family="Arial" font-size="24px" font-style="normal" font-weight="normal" text-decoration="none" x="400" y="570">UNREGISTERED</text><text fill="#eeeeee" stroke="none" font-family="Arial" font-size="24px" font-style="normal" font-weight="normal" text-decoration="none" x="400" y="600">UNREGISTERED</text><text fill="#eeeeee" stroke="none" font-family="Arial" font-size="24px" font-style="normal" font-weight="normal" text-decoration="none" x="400" y="630">UNREGISTERED</text><text fill="#eeeeee" stroke="none" font-family="Arial" font-size="24px" font-style="normal" font-weight="normal" text-decoration="none" x="400" y="660">UNREGISTERED</text><text fill="#eeeeee" stroke="none" font-family="Arial" font-size="24px" font-style="normal" font-weight="normal" text-decoration="none" x="600" y="0">UNREGISTERED</text><text fill="#eeeeee" stroke="none" font-family="Arial" font-size="24px" font-style="normal" font-weight="normal" text-decoration="none" x="600" y="30">UNREGISTERED</text><text fill="#eeeeee" stroke="none" font-family="Arial" font-size="24px" font-style="normal" font-weight="normal" text-decoration="none" x="600" y="60">UNREGISTERED</text><text fill="#eeeeee" stroke="none" font-family="Arial" font-size="24px" font-style="normal" font-weight="normal" text-decoration="none" x="600" y="90">UNREGISTERED</text><text fill="#eeeeee" stroke="none" font-family="Arial" font-size="24px" font-style="normal" font-weight="normal" text-decoration="none" x="600" y="120">UNREGISTERED</text><text fill="#eeeeee" stroke="none" font-family="Arial" font-size="24px" font-style="normal" font-weight="normal" text-decoration="none" x="600" y="150">UNREGISTERED</text><text fill="#eeeeee" stroke="none" font-family="Arial" font-size="24px" font-style="normal" font-weight="normal" text-decoration="none" x="600" y="180">UNREGISTERED</text><text fill="#eeeeee" stroke="none" font-family="Arial" font-size="24px" font-style="normal" font-weight="normal" text-decoration="none" x="600" y="210">UNREGISTERED</text><text fill="#eeeeee" stroke="none" font-family="Arial" font-size="24px" font-style="normal" font-weight="normal" text-decoration="none" x="600" y="240">UNREGISTERED</text><text fill="#eeeeee" stroke="none" font-family="Arial" font-size="24px" font-style="normal" font-weight="normal" text-decoration="none" x="600" y="270">UNREGISTERED</text><text fill="#eeeeee" stroke="none" font-family="Arial" font-size="24px" font-style="normal" font-weight="normal" text-decoration="none" x="600" y="300">UNREGISTERED</text><text fill="#eeeeee" stroke="none" font-family="Arial" font-size="24px" font-style="normal" font-weight="normal" text-decoration="none" x="600" y="330">UNREGISTERED</text><text fill="#eeeeee" stroke="none" font-family="Arial" font-size="24px" font-style="normal" font-weight="normal" text-decoration="none" x="600" y="360">UNREGISTERED</text><text fill="#eeeeee" stroke="none" font-family="Arial" font-size="24px" font-style="normal" font-weight="normal" text-decoration="none" x="600" y="390">UNREGISTERED</text><text fill="#eeeeee" stroke="none" font-family="Arial" font-size="24px" font-style="normal" font-weight="normal" text-decoration="none" x="600" y="420">UNREGISTERED</text><text fill="#eeeeee" stroke="none" font-family="Arial" font-size="24px" font-style="normal" font-weight="normal" text-decoration="none" x="600" y="450">UNREGISTERED</text><text fill="#eeeeee" stroke="none" font-family="Arial" font-size="24px" font-style="normal" font-weight="normal" text-decoration="none" x="600" y="480">UNREGISTERED</text><text fill="#eeeeee" stroke="none" font-family="Arial" font-size="24px" font-style="normal" font-weight="normal" text-decoration="none" x="600" y="510">UNREGISTERED</text><text fill="#eeeeee" stroke="none" font-family="Arial" font-size="24px" font-style="normal" font-weight="normal" text-decoration="none" x="600" y="540">UNREGISTERED</text><text fill="#eeeeee" stroke="none" font-family="Arial" font-size="24px" font-style="normal" font-weight="normal" text-decoration="none" x="600" y="570">UNREGISTERED</text><text fill="#eeeeee" stroke="none" font-family="Arial" font-size="24px" font-style="normal" font-weight="normal" text-decoration="none" x="600" y="600">UNREGISTERED</text><text fill="#eeeeee" stroke="none" font-family="Arial" font-size="24px" font-style="normal" font-weight="normal" text-decoration="none" x="600" y="630">UNREGISTERED</text><text fill="#eeeeee" stroke="none" font-family="Arial" font-size="24px" font-style="normal" font-weight="normal" text-decoration="none" x="600" y="660">UNREGISTERED</text><text fill="#eeeeee" stroke="none" font-family="Arial" font-size="24px" font-style="normal" font-weight="normal" text-decoration="none" x="800" y="0">UNREGISTERED</text><text fill="#eeeeee" stroke="none" font-family="Arial" font-size="24px" font-style="normal" font-weight="normal" text-decoration="none" x="800" y="30">UNREGISTERED</text><text fill="#eeeeee" stroke="none" font-family="Arial" font-size="24px" font-style="normal" font-weight="normal" text-decoration="none" x="800" y="60">UNREGISTERED</text><text fill="#eeeeee" stroke="none" font-family="Arial" font-size="24px" font-style="normal" font-weight="normal" text-decoration="none" x="800" y="90">UNREGISTERED</text><text fill="#eeeeee" stroke="none" font-family="Arial" font-size="24px" font-style="normal" font-weight="normal" text-decoration="none" x="800" y="120">UNREGISTERED</text><text fill="#eeeeee" stroke="none" font-family="Arial" font-size="24px" font-style="normal" font-weight="normal" text-decoration="none" x="800" y="150">UNREGISTERED</text><text fill="#eeeeee" stroke="none" font-family="Arial" font-size="24px" font-style="normal" font-weight="normal" text-decoration="none" x="800" y="180">UNREGISTERED</text><text fill="#eeeeee" stroke="none" font-family="Arial" font-size="24px" font-style="normal" font-weight="normal" text-decoration="none" x="800" y="210">UNREGISTERED</text><text fill="#eeeeee" stroke="none" font-family="Arial" font-size="24px" font-style="normal" font-weight="normal" text-decoration="none" x="800" y="240">UNREGISTERED</text><text fill="#eeeeee" stroke="none" font-family="Arial" font-size="24px" font-style="normal" font-weight="normal" text-decoration="none" x="800" y="270">UNREGISTERED</text><text fill="#eeeeee" stroke="none" font-family="Arial" font-size="24px" font-style="normal" font-weight="normal" text-decoration="none" x="800" y="300">UNREGISTERED</text><text fill="#eeeeee" stroke="none" font-family="Arial" font-size="24px" font-style="normal" font-weight="normal" text-decoration="none" x="800" y="330">UNREGISTERED</text><text fill="#eeeeee" stroke="none" font-family="Arial" font-size="24px" font-style="normal" font-weight="normal" text-decoration="none" x="800" y="360">UNREGISTERED</text><text fill="#eeeeee" stroke="none" font-family="Arial" font-size="24px" font-style="normal" font-weight="normal" text-decoration="none" x="800" y="390">UNREGISTERED</text><text fill="#eeeeee" stroke="none" font-family="Arial" font-size="24px" font-style="normal" font-weight="normal" text-decoration="none" x="800" y="420">UNREGISTERED</text><text fill="#eeeeee" stroke="none" font-family="Arial" font-size="24px" font-style="normal" font-weight="normal" text-decoration="none" x="800" y="450">UNREGISTERED</text><text fill="#eeeeee" stroke="none" font-family="Arial" font-size="24px" font-style="normal" font-weight="normal" text-decoration="none" x="800" y="480">UNREGISTERED</text><text fill="#eeeeee" stroke="none" font-family="Arial" font-size="24px" font-style="normal" font-weight="normal" text-decoration="none" x="800" y="510">UNREGISTERED</text><text fill="#eeeeee" stroke="none" font-family="Arial" font-size="24px" font-style="normal" font-weight="normal" text-decoration="none" x="800" y="540">UNREGISTERED</text><text fill="#eeeeee" stroke="none" font-family="Arial" font-size="24px" font-style="normal" font-weight="normal" text-decoration="none" x="800" y="570">UNREGISTERED</text><text fill="#eeeeee" stroke="none" font-family="Arial" font-size="24px" font-style="normal" font-weight="normal" text-decoration="none" x="800" y="600">UNREGISTERED</text><text fill="#eeeeee" stroke="none" font-family="Arial" font-size="24px" font-style="normal" font-weight="normal" text-decoration="none" x="800" y="630">UNREGISTERED</text><text fill="#eeeeee" stroke="none" font-family="Arial" font-size="24px" font-style="normal" font-weight="normal" text-decoration="none" x="800" y="660">UNREGISTERED</text><g transform="translate(-182,-30) scale(1,1)"><path fill="none" stroke="#000000" d="M 336 40 L 1008 40 L 1008 696 L 336 696 L 336 40" stroke-miterlimit="10"/></g><g transform="translate(-182,-30) scale(1,1)"><path fill="#ffffff" stroke="none" d="M 336 40 L 336 62 L 460.3798828125 62 L 471.3798828125 51 L 471.3798828125 40 L 336 40"/></g><g transform="translate(-182,-30) scale(1,1)"><path fill="none" stroke="#000000" d="M 336 40 L 336 62 L 460.3798828125 62 L 471.3798828125 51 L 471.3798828125 40 L 336 40 L 336 40" stroke-miterlimit="10"/></g><g transform="translate(-182,-30) scale(1,1)"><g><path fill="none" stroke="none"/><text fill="#000000" stroke="none" font-family="Arial" font-size="13px" font-style="normal" font-weight="normal" text-decoration="none" x="367.9599609375" y="57.5">Access Control</text></g></g><g transform="translate(-182,-30) scale(1,1)"><g><path fill="none" stroke="none"/><text fill="#000000" stroke="none" font-family="Arial" font-size="13px" font-style="normal" font-weight="bold" text-decoration="none" x="341" y="57.5">pkg</text></g></g><g transform="translate(-182,-30) scale(1,1)"><path fill="none" stroke="#000000" d="M 248 270 L 639 471" stroke-miterlimit="10"/></g><g transform="translate(-182,-30) scale(1,1)"><path fill="#ffffff" stroke="none" d="M 210.94523899147728 225.68 C 210.94523899147728 220.886167936 214.83108131642274 217 219.62451171875 217 C 224.41794212107726 217 228.30378444602272 220.886167936 228.30378444602272 225.68 C 228.30378444602272 230.47383206400002 224.41794212107726 234.36 219.62451171875 234.36 C 214.83108131642274 234.36 210.94523899147728 230.47383206400002 210.94523899147728 225.68 Z"/></g><g transform="translate(-182,-30) scale(1,1)"><path fill="none" stroke="#000000" d="M 210.94523899147728 225.68 C 210.94523899147728 220.886167936 214.83108131642274 217 219.62451171875 217 C 224.41794212107726 217 228.30378444602272 220.886167936 228.30378444602272 225.68 C 228.30378444602272 230.47383206400002 224.41794212107726 234.36 219.62451171875 234.36 C 214.83108131642274 234.36 210.94523899147728 230.47383206400002 210.94523899147728 225.68 Z" stroke-miterlimit="10"/></g><g transform="translate(-182,-30) scale(1,1)"><path fill="none" stroke="#000000" d="M 219.62451171875 234.36 L 219.62451171875 251.64" stroke-miterlimit="10"/></g><g transform="translate(-182,-30) scale(1,1)"><path fill="none" stroke="#000000" d="M 210.43469353693183 240.84 L 228.81432990056817 240.84" stroke-miterlimit="10"/></g><g transform="translate(-182,-30) scale(1,1)"><path fill="none" stroke="#000000" d="M 219.62451171875 251.64 L 206.86087535511365 269" stroke-miterlimit="10"/></g><g transform="translate(-182,-30) scale(1,1)"><path fill="none" stroke="#000000" d="M 219.62451171875 251.64 L 232.38814808238635 269" stroke-miterlimit="10"/></g><g transform="translate(-182,-30) scale(1,1)"><g><path fill="none" stroke="none"/><text fill="#000000" stroke="none" font-family="Arial" font-size="13px" font-style="normal" font-weight="bold" text-decoration="none" x="197.95361328125" y="289.5">System</text></g></g><g transform="translate(-182,-30) scale(1,1)"><path fill="#C0C0C0" stroke="none" d="M 527 336 C 527 326.6111584 560.1309248 319 601 319 C 641.8690752 319 675 326.6111584 675 336 C 675 345.3888416 641.8690752 353 601 353 C 560.1309248 353 527 345.3888416 527 336 Z" opacity="0.2"/></g><g transform="translate(-182,-30) scale(1,1)"><path fill="#ffffff" stroke="none" d="M 520 329 C 520 319.6111584 553.1309248 312 594 312 C 634.8690752 312 668 319.6111584 668 329 C 668 338.3888416 634.8690752 346 594 346 C 553.1309248 346 520 338.3888416 520 329 Z"/></g><g transform="translate(-182,-30) scale(1,1)"><path fill="none" stroke="#000000" d="M 520 329 C 520 319.6111584 553.1309248 312 594 312 C 634.8690752 312 668 319.6111584 668 329 C 668 338.3888416 634.8690752 346 594 346 C 553.1309248 346 520 338.3888416 520 329 Z" stroke-miterlimit="10"/></g><g transform="translate(-182,-30) scale(1,1)"><g><path fill="none" stroke="none"/><text fill="#000000" stroke="none" font-family="Arial" font-size="13px" font-style="normal" font-weight="bold" text-decoration="none" x="550.2900390625" y="336">Access Control</text></g></g><g transform="translate(-182,-30) scale(1,1)"><path fill="none" stroke="#000000" d="M 248 261 L 519 314" stroke-miterlimit="10"/></g><g transform="translate(-182,-30) scale(1,1)"><path fill="#C0C0C0" stroke="none" d="M 447 208 C 447 198.6111584 469.6096176 191 497.5 191 C 525.3903824 191 548 198.6111584 548 208 C 548 217.3888416 525.3903824 225 497.5 225 C 469.6096176 225 447 217.3888416 447 208 Z" opacity="0.2"/></g><g transform="translate(-182,-30) scale(1,1)"><path fill="#ffffff" stroke="none" d="M 440 201 C 440 191.6111584 462.6096176 184 490.5 184 C 518.3903824 184 541 191.6111584 541 201 C 541 210.3888416 518.3903824 218 490.5 218 C 462.6096176 218 440 210.3888416 440 201 Z"/></g><g transform="translate(-182,-30) scale(1,1)"><path fill="none" stroke="#000000" d="M 440 201 C 440 191.6111584 462.6096176 184 490.5 184 C 518.3903824 184 541 191.6111584 541 201 C 541 210.3888416 518.3903824 218 490.5 218 C 462.6096176 218 440 210.3888416 440 201 Z" stroke-miterlimit="10"/></g><g transform="translate(-182,-30) scale(1,1)"><g><path fill="none" stroke="none"/><text fill="#000000" stroke="none" font-family="Arial" font-size="13px" font-style="normal" font-weight="bold" text-decoration="none" x="477.1318359375" y="208">Role</text></g></g><g transform="translate(-182,-30) scale(1,1)"><path fill="none" stroke="#000000" d="M 605 311 L 672 203" stroke-miterlimit="10" stroke-dasharray="3"/></g><g transform="translate(-182,-30) scale(1,1)"><path fill="none" stroke="#000000" d="M 670.2196603207017 213.85497077961594 L 672 203 L 663.0654862921044 209.416733187801" stroke-miterlimit="10"/></g><g transform="translate(-182,-30) scale(1,1)"><g><path fill="none" stroke="none"/><text fill="#000000" stroke="none" font-family="Arial" font-size="13px" font-style="normal" font-weight="normal" text-decoration="none" x="575.5" y="268.5">«include»</text></g></g><g transform="translate(-182,-30) scale(1,1)"><path fill="#C0C0C0" stroke="none" d="M 455 120 C 455 110.6111584 480.0720512 103 511 103 C 541.9279488 103 567 110.6111584 567 120 C 567 129.3888416 541.9279488 137 511 137 C 480.0720512 137 455 129.3888416 455 120 Z" opacity="0.2"/></g><g transform="translate(-182,-30) scale(1,1)"><path fill="#ffffff" stroke="none" d="M 448 113 C 448 103.6111584 473.0720512 96 504 96 C 534.9279488 96 560 103.6111584 560 113 C 560 122.3888416 534.9279488 130 504 130 C 473.0720512 130 448 122.3888416 448 113 Z"/></g><g transform="translate(-182,-30) scale(1,1)"><path fill="none" stroke="#000000" d="M 448 113 C 448 103.6111584 473.0720512 96 504 96 C 534.9279488 96 560 103.6111584 560 113 C 560 122.3888416 534.9279488 130 504 130 C 473.0720512 130 448 122.3888416 448 113 Z" stroke-miterlimit="10"/></g><g transform="translate(-182,-30) scale(1,1)"><g><path fill="none" stroke="none"/><text fill="#000000" stroke="none" font-family="Arial" font-size="13px" font-style="normal" font-weight="bold" text-decoration="none" x="471.852294921875" y="120">Permission</text></g></g><g transform="translate(-182,-30) scale(1,1)"><path fill="none" stroke="#000000" d="M 248 249 L 439 211" stroke-miterlimit="10"/></g><g transform="translate(-182,-30) scale(1,1)"><path fill="none" stroke="#000000" d="M 248 240 L 468 131" stroke-miterlimit="10"/></g><g transform="translate(-182,-30) scale(1,1)"><path fill="#C0C0C0" stroke="none" d="M 743 272 C 743 262.6111584 773.220776 255 810.5 255 C 847.779224 255 878 262.6111584 878 272 C 878 281.3888416 847.779224 289 810.5 289 C 773.220776 289 743 281.3888416 743 272 Z" opacity="0.2"/></g><g transform="translate(-182,-30) scale(1,1)"><path fill="#ffffff" stroke="none" d="M 736 265 C 736 255.6111584 766.220776 248 803.5 248 C 840.779224 248 871 255.6111584 871 265 C 871 274.3888416 840.779224 282 803.5 282 C 766.220776 282 736 274.3888416 736 265 Z"/></g><g transform="translate(-182,-30) scale(1,1)"><path fill="none" stroke="#000000" d="M 736 265 C 736 255.6111584 766.220776 248 803.5 248 C 840.779224 248 871 255.6111584 871 265 C 871 274.3888416 840.779224 282 803.5 282 C 766.220776 282 736 274.3888416 736 265 Z" stroke-miterlimit="10"/></g><g transform="translate(-182,-30) scale(1,1)"><g><path fill="none" stroke="none"/><text fill="#000000" stroke="none" font-family="Arial" font-size="13px" font-style="normal" font-weight="bold" text-decoration="none" x="762.31640625" y="272">Already Name</text></g></g><g transform="translate(-182,-30) scale(1,1)"><path fill="none" stroke="#000000" d="M 744 283 L 653 311" stroke-miterlimit="10" stroke-dasharray="3"/></g><g transform="translate(-182,-30) scale(1,1)"><path fill="none" stroke="#000000" d="M 661.475311698909 303.98793242999346 L 653 311 L 663.9512309038581 312.03466984607826" stroke-miterlimit="10"/></g><g transform="translate(-182,-30) scale(1,1)"><g><path fill="none" stroke="none"/><text fill="#000000" stroke="none" font-family="Arial" font-size="13px" font-style="normal" font-weight="normal" text-decoration="none" x="682.5" y="312.5">«extend»</text></g></g><g transform="translate(-182,-30) scale(1,1)"><path fill="#C0C0C0" stroke="none" d="M 783 368 C 783 358.6111584 805.6096176 351 833.5 351 C 861.3903824 351 884 358.6111584 884 368 C 884 377.3888416 861.3903824 385 833.5 385 C 805.6096176 385 783 377.3888416 783 368 Z" opacity="0.2"/></g><g transform="translate(-182,-30) scale(1,1)"><path fill="#ffffff" stroke="none" d="M 776 361 C 776 351.6111584 798.6096176 344 826.5 344 C 854.3903824 344 877 351.6111584 877 361 C 877 370.3888416 854.3903824 378 826.5 378 C 798.6096176 378 776 370.3888416 776 361 Z"/></g><g transform="translate(-182,-30) scale(1,1)"><path fill="none" stroke="#000000" d="M 776 361 C 776 351.6111584 798.6096176 344 826.5 344 C 854.3903824 344 877 351.6111584 877 361 C 877 370.3888416 854.3903824 378 826.5 378 C 798.6096176 378 776 370.3888416 776 361 Z" stroke-miterlimit="10"/></g><g transform="translate(-182,-30) scale(1,1)"><g><path fill="none" stroke="none"/><text fill="#000000" stroke="none" font-family="Arial" font-size="13px" font-style="normal" font-weight="bold" text-decoration="none" x="812.055908203125" y="368">Error</text></g></g><g transform="translate(-182,-30) scale(1,1)"><path fill="none" stroke="#000000" d="M 775 354 L 669 339" stroke-miterlimit="10" stroke-dasharray="3"/></g><g transform="translate(-182,-30) scale(1,1)"><path fill="none" stroke="#000000" d="M 679.6522349168173 336.25593526371216 L 669 339 L 678.4726143275177 344.5919207614296" stroke-miterlimit="10"/></g><g transform="translate(-182,-30) scale(1,1)"><g><path fill="none" stroke="none"/><text fill="#000000" stroke="none" font-family="Arial" font-size="13px" font-style="normal" font-weight="normal" text-decoration="none" x="691.5" y="359.5">«extend»</text></g></g><g transform="translate(-182,-30) scale(1,1)"><path fill="#C0C0C0" stroke="none" d="M 391 416 C 391 406.6111584 413.6096176 399 441.5 399 C 469.3903824 399 492 406.6111584 492 416 C 492 425.3888416 469.3903824 433 441.5 433 C 413.6096176 433 391 425.3888416 391 416 Z" opacity="0.2"/></g><g transform="translate(-182,-30) scale(1,1)"><path fill="#ffffff" stroke="none" d="M 384 409 C 384 399.6111584 406.6096176 392 434.5 392 C 462.3903824 392 485 399.6111584 485 409 C 485 418.3888416 462.3903824 426 434.5 426 C 406.6096176 426 384 418.3888416 384 409 Z"/></g><g transform="translate(-182,-30) scale(1,1)"><path fill="none" stroke="#000000" d="M 384 409 C 384 399.6111584 406.6096176 392 434.5 392 C 462.3903824 392 485 399.6111584 485 409 C 485 418.3888416 462.3903824 426 434.5 426 C 406.6096176 426 384 418.3888416 384 409 Z" stroke-miterlimit="10"/></g><g transform="translate(-182,-30) scale(1,1)"><g><path fill="none" stroke="none"/><text fill="#000000" stroke="none" font-family="Arial" font-size="13px" font-style="normal" font-weight="bold" text-decoration="none" x="423.299560546875" y="416">Edit</text></g></g><g transform="translate(-182,-30) scale(1,1)"><path fill="#C0C0C0" stroke="none" d="M 631 496 C 631 486.6111584 653.6096176 479 681.5 479 C 709.3903824 479 732 486.6111584 732 496 C 732 505.3888416 709.3903824 513 681.5 513 C 653.6096176 513 631 505.3888416 631 496 Z" opacity="0.2"/></g><g transform="translate(-182,-30) scale(1,1)"><path fill="#ffffff" stroke="none" d="M 624 489 C 624 479.6111584 646.6096176 472 674.5 472 C 702.3903824 472 725 479.6111584 725 489 C 725 498.3888416 702.3903824 506 674.5 506 C 646.6096176 506 624 498.3888416 624 489 Z"/></g><g transform="translate(-182,-30) scale(1,1)"><path fill="none" stroke="#000000" d="M 624 489 C 624 479.6111584 646.6096176 472 674.5 472 C 702.3903824 472 725 479.6111584 725 489 C 725 498.3888416 702.3903824 506 674.5 506 C 646.6096176 506 624 498.3888416 624 489 Z" stroke-miterlimit="10"/></g><g transform="translate(-182,-30) scale(1,1)"><g><path fill="none" stroke="none"/><text fill="#000000" stroke="none" font-family="Arial" font-size="13px" font-style="normal" font-weight="bold" text-decoration="none" x="653.90185546875" y="496">disable</text></g></g><g transform="translate(-182,-30) scale(1,1)"><path fill="none" stroke="#000000" d="M 470 391 L 558 347" stroke-miterlimit="10" stroke-dasharray="3"/></g><g transform="translate(-182,-30) scale(1,1)"><path fill="none" stroke="#000000" d="M 550.7927808450386 355.3099935049528 L 558 347 L 547.0276737030609 347.77977922099745" stroke-miterlimit="10"/></g><g transform="translate(-182,-30) scale(1,1)"><g><path fill="none" stroke="none"/><text fill="#000000" stroke="none" font-family="Arial" font-size="13px" font-style="normal" font-weight="normal" text-decoration="none" x="472.5" y="363.5">«include»</text></g></g><g transform="translate(-182,-30) scale(1,1)"><path fill="none" stroke="#000000" d="M 665 471 L 603 347" stroke-miterlimit="10" stroke-dasharray="3"/></g><g transform="translate(-182,-30) scale(1,1)"><path fill="none" stroke="#000000" d="M 611.3099935049528 354.2072191549614 L 603 347 L 603.7797792209975 357.97232629693906" stroke-miterlimit="10"/></g><g transform="translate(-182,-30) scale(1,1)"><g><path fill="none" stroke="none"/><text fill="#000000" stroke="none" font-family="Arial" font-size="13px" font-style="normal" font-weight="normal" text-decoration="none" x="579.5" y="428.5">«include»</text></g></g><g transform="translate(-182,-30) scale(1,1)"><path fill="#C0C0C0" stroke="none" d="M 439 544 C 439 534.6111584 476.8319344 527 523.5 527 C 570.1680656 527 608 534.6111584 608 544 C 608 553.3888416 570.1680656 561 523.5 561 C 476.8319344 561 439 553.3888416 439 544 Z" opacity="0.2"/></g><g transform="translate(-182,-30) scale(1,1)"><path fill="#ffffff" stroke="none" d="M 432 537 C 432 527.6111584 469.8319344 520 516.5 520 C 563.1680656 520 601 527.6111584 601 537 C 601 546.3888416 563.1680656 554 516.5 554 C 469.8319344 554 432 546.3888416 432 537 Z"/></g><g transform="translate(-182,-30) scale(1,1)"><path fill="none" stroke="#000000" d="M 432 537 C 432 527.6111584 469.8319344 520 516.5 520 C 563.1680656 520 601 527.6111584 601 537 C 601 546.3888416 563.1680656 554 516.5 554 C 469.8319344 554 432 546.3888416 432 537 Z" stroke-miterlimit="10"/></g><g transform="translate(-182,-30) scale(1,1)"><g><path fill="none" stroke="none"/><text fill="#000000" stroke="none" font-family="Arial" font-size="13px" font-style="normal" font-weight="bold" text-decoration="none" x="465.1982421875" y="544">Relationship User</text></g></g><g transform="translate(-182,-30) scale(1,1)"><path fill="none" stroke="#000000" d="M 523 519 L 587 347" stroke-miterlimit="10" stroke-dasharray="3"/></g><g transform="translate(-182,-30) scale(1,1)"><path fill="none" stroke="#000000" d="M 587.401184696187 357.9926816946342 L 587 347 L 579.5106806494811 355.05668018888315" stroke-miterlimit="10"/></g><g transform="translate(-182,-30) scale(1,1)"><g><path fill="none" stroke="none"/><text fill="#000000" stroke="none" font-family="Arial" font-size="13px" font-style="normal" font-weight="normal" text-decoration="none" x="487.5" y="452.5">«include»</text></g></g><g transform="translate(-182,-30) scale(1,1)"><path fill="#ffffff" stroke="none" d="M 216.40935031960228 513.6800000000001 C 216.40935031960228 508.88616793600005 220.29519264454774 505 225.088623046875 505 C 229.88205344920226 505 233.76789577414772 508.88616793600005 233.76789577414772 513.6800000000001 C 233.76789577414772 518.473832064 229.88205344920226 522.36 225.088623046875 522.36 C 220.29519264454774 522.36 216.40935031960228 518.473832064 216.40935031960228 513.6800000000001 Z"/></g><g transform="translate(-182,-30) scale(1,1)"><path fill="none" stroke="#000000" d="M 216.40935031960228 513.6800000000001 C 216.40935031960228 508.88616793600005 220.29519264454774 505 225.088623046875 505 C 229.88205344920226 505 233.76789577414772 508.88616793600005 233.76789577414772 513.6800000000001 C 233.76789577414772 518.473832064 229.88205344920226 522.36 225.088623046875 522.36 C 220.29519264454774 522.36 216.40935031960228 518.473832064 216.40935031960228 513.6800000000001 Z" stroke-miterlimit="10"/></g><g transform="translate(-182,-30) scale(1,1)"><path fill="none" stroke="#000000" d="M 225.088623046875 522.36 L 225.088623046875 539.64" stroke-miterlimit="10"/></g><g transform="translate(-182,-30) scale(1,1)"><path fill="none" stroke="#000000" d="M 215.89880486505683 528.84 L 234.27844122869317 528.84" stroke-miterlimit="10"/></g><g transform="translate(-182,-30) scale(1,1)"><path fill="none" stroke="#000000" d="M 225.088623046875 539.64 L 212.32498668323865 557" stroke-miterlimit="10"/></g><g transform="translate(-182,-30) scale(1,1)"><path fill="none" stroke="#000000" d="M 225.088623046875 539.64 L 237.85225941051135 557" stroke-miterlimit="10"/></g><g transform="translate(-182,-30) scale(1,1)"><g><path fill="none" stroke="none"/><text fill="#000000" stroke="none" font-family="Arial" font-size="13px" font-style="normal" font-weight="bold" text-decoration="none" x="211.364990234375" y="577.5">User</text></g></g><g transform="translate(-182,-30) scale(1,1)"><path fill="none" stroke="#000000" d="M 251 542 L 431 539" stroke-miterlimit="10"/></g><g transform="translate(-182,-30) scale(1,1)"><path fill="none" stroke="#000000" d="M 248 276 L 409 391" stroke-miterlimit="10"/></g><g transform="translate(-182,-30) scale(1,1)"><path fill="#C0C0C0" stroke="none" d="M 615 192 C 615 182.6111584 648.57864 175 690 175 C 731.42136 175 765 182.6111584 765 192 C 765 201.3888416 731.42136 209 690 209 C 648.57864 209 615 201.3888416 615 192 Z" opacity="0.2"/></g><g transform="translate(-182,-30) scale(1,1)"><path fill="#ffffff" stroke="none" d="M 608 185 C 608 175.6111584 641.57864 168 683 168 C 724.42136 168 758 175.6111584 758 185 C 758 194.3888416 724.42136 202 683 202 C 641.57864 202 608 194.3888416 608 185 Z"/></g><g transform="translate(-182,-30) scale(1,1)"><path fill="none" stroke="#000000" d="M 608 185 C 608 175.6111584 641.57864 168 683 168 C 724.42136 168 758 175.6111584 758 185 C 758 194.3888416 724.42136 202 683 202 C 641.57864 202 608 194.3888416 608 185 Z" stroke-miterlimit="10"/></g><g transform="translate(-182,-30) scale(1,1)"><g><path fill="none" stroke="none"/><text fill="#000000" stroke="none" font-family="Arial" font-size="13px" font-style="normal" font-weight="bold" text-decoration="none" x="638.92822265625" y="192">permission role</text></g></g><g transform="translate(-182,-30) scale(1,1)"><path fill="none" stroke="#000000" d="M 638 167 L 549 131" stroke-miterlimit="10" stroke-dasharray="3"/></g><g transform="translate(-182,-30) scale(1,1)"><path fill="none" stroke="#000000" d="M 559.9996188897646 130.90843428625905 L 549 131 L 556.8426518445307 138.71315837030983" stroke-miterlimit="10"/></g><g transform="translate(-182,-30) scale(1,1)"><g><path fill="none" stroke="none"/><text fill="#000000" stroke="none" font-family="Arial" font-size="13px" font-style="normal" font-weight="normal" text-decoration="none" x="542.5" y="162.5">«include»</text></g></g><g transform="translate(-182,-30) scale(1,1)"><path fill="none" stroke="#000000" d="M 607 191 L 542 197" stroke-miterlimit="10" stroke-dasharray="3"/></g><g transform="translate(-182,-30) scale(1,1)"><path fill="none" stroke="#000000" d="M 551.7327270683459 191.87418066909407 L 542 197 L 552.5065789174859 200.25757570144452" stroke-miterlimit="10"/></g><g transform="translate(-182,-30) scale(1,1)"><g><path fill="none" stroke="none"/><text fill="#000000" stroke="none" font-family="Arial" font-size="13px" font-style="normal" font-weight="normal" text-decoration="none" x="559.5" y="211.5">«include»</text></g></g></g></svg>