<svg version="1.1" xmlns="http://www.w3.org/2000/svg" xmlns:xlink="http://www.w3.org/1999/xlink" width="948" height="580"><defs/><g><text fill="#eeeeee" stroke="none" font-family="Arial" font-size="24px" font-style="normal" font-weight="normal" text-decoration="none" x="0" y="0">UNREGISTERED</text><text fill="#eeeeee" stroke="none" font-family="Arial" font-size="24px" font-style="normal" font-weight="normal" text-decoration="none" x="0" y="30">UNREGISTERED</text><text fill="#eeeeee" stroke="none" font-family="Arial" font-size="24px" font-style="normal" font-weight="normal" text-decoration="none" x="0" y="60">UNREGISTERED</text><text fill="#eeeeee" stroke="none" font-family="Arial" font-size="24px" font-style="normal" font-weight="normal" text-decoration="none" x="0" y="90">UNREGISTERED</text><text fill="#eeeeee" stroke="none" font-family="Arial" font-size="24px" font-style="normal" font-weight="normal" text-decoration="none" x="0" y="120">UNREGISTERED</text><text fill="#eeeeee" stroke="none" font-family="Arial" font-size="24px" font-style="normal" font-weight="normal" text-decoration="none" x="0" y="150">UNREGISTERED</text><text fill="#eeeeee" stroke="none" font-family="Arial" font-size="24px" font-style="normal" font-weight="normal" text-decoration="none" x="0" y="180">UNREGISTERED</text><text fill="#eeeeee" stroke="none" font-family="Arial" font-size="24px" font-style="normal" font-weight="normal" text-decoration="none" x="0" y="210">UNREGISTERED</text><text fill="#eeeeee" stroke="none" font-family="Arial" font-size="24px" font-style="normal" font-weight="normal" text-decoration="none" x="0" y="240">UNREGISTERED</text><text fill="#eeeeee" stroke="none" font-family="Arial" font-size="24px" font-style="normal" font-weight="normal" text-decoration="none" x="0" y="270">UNREGISTERED</text><text fill="#eeeeee" stroke="none" font-family="Arial" font-size="24px" font-style="normal" font-weight="normal" text-decoration="none" x="0" y="300">UNREGISTERED</text><text fill="#eeeeee" stroke="none" font-family="Arial" font-size="24px" font-style="normal" font-weight="normal" text-decoration="none" x="0" y="330">UNREGISTERED</text><text fill="#eeeeee" stroke="none" font-family="Arial" font-size="24px" font-style="normal" font-weight="normal" text-decoration="none" x="0" y="360">UNREGISTERED</text><text fill="#eeeeee" stroke="none" font-family="Arial" font-size="24px" font-style="normal" font-weight="normal" text-decoration="none" x="0" y="390">UNREGISTERED</text><text fill="#eeeeee" stroke="none" font-family="Arial" font-size="24px" font-style="normal" font-weight="normal" text-decoration="none" x="0" y="420">UNREGISTERED</text><text fill="#eeeeee" stroke="none" font-family="Arial" font-size="24px" font-style="normal" font-weight="normal" text-decoration="none" x="0" y="450">UNREGISTERED</text><text fill="#eeeeee" stroke="none" font-family="Arial" font-size="24px" font-style="normal" font-weight="normal" text-decoration="none" x="0" y="480">UNREGISTERED</text><text fill="#eeeeee" stroke="none" font-family="Arial" font-size="24px" font-style="normal" font-weight="normal" text-decoration="none" x="0" y="510">UNREGISTERED</text><text fill="#eeeeee" stroke="none" font-family="Arial" font-size="24px" font-style="normal" font-weight="normal" text-decoration="none" x="0" y="540">UNREGISTERED</text><text fill="#eeeeee" stroke="none" font-family="Arial" font-size="24px" font-style="normal" font-weight="normal" text-decoration="none" x="0" y="570">UNREGISTERED</text><text fill="#eeeeee" stroke="none" font-family="Arial" font-size="24px" font-style="normal" font-weight="normal" text-decoration="none" x="200" y="0">UNREGISTERED</text><text fill="#eeeeee" stroke="none" font-family="Arial" font-size="24px" font-style="normal" font-weight="normal" text-decoration="none" x="200" y="30">UNREGISTERED</text><text fill="#eeeeee" stroke="none" font-family="Arial" font-size="24px" font-style="normal" font-weight="normal" text-decoration="none" x="200" y="60">UNREGISTERED</text><text fill="#eeeeee" stroke="none" font-family="Arial" font-size="24px" font-style="normal" font-weight="normal" text-decoration="none" x="200" y="90">UNREGISTERED</text><text fill="#eeeeee" stroke="none" font-family="Arial" font-size="24px" font-style="normal" font-weight="normal" text-decoration="none" x="200" y="120">UNREGISTERED</text><text fill="#eeeeee" stroke="none" font-family="Arial" font-size="24px" font-style="normal" font-weight="normal" text-decoration="none" x="200" y="150">UNREGISTERED</text><text fill="#eeeeee" stroke="none" font-family="Arial" font-size="24px" font-style="normal" font-weight="normal" text-decoration="none" x="200" y="180">UNREGISTERED</text><text fill="#eeeeee" stroke="none" font-family="Arial" font-size="24px" font-style="normal" font-weight="normal" text-decoration="none" x="200" y="210">UNREGISTERED</text><text fill="#eeeeee" stroke="none" font-family="Arial" font-size="24px" font-style="normal" font-weight="normal" text-decoration="none" x="200" y="240">UNREGISTERED</text><text fill="#eeeeee" stroke="none" font-family="Arial" font-size="24px" font-style="normal" font-weight="normal" text-decoration="none" x="200" y="270">UNREGISTERED</text><text fill="#eeeeee" stroke="none" font-family="Arial" font-size="24px" font-style="normal" font-weight="normal" text-decoration="none" x="200" y="300">UNREGISTERED</text><text fill="#eeeeee" stroke="none" font-family="Arial" font-size="24px" font-style="normal" font-weight="normal" text-decoration="none" x="200" y="330">UNREGISTERED</text><text fill="#eeeeee" stroke="none" font-family="Arial" font-size="24px" font-style="normal" font-weight="normal" text-decoration="none" x="200" y="360">UNREGISTERED</text><text fill="#eeeeee" stroke="none" font-family="Arial" font-size="24px" font-style="normal" font-weight="normal" text-decoration="none" x="200" y="390">UNREGISTERED</text><text fill="#eeeeee" stroke="none" font-family="Arial" font-size="24px" font-style="normal" font-weight="normal" text-decoration="none" x="200" y="420">UNREGISTERED</text><text fill="#eeeeee" stroke="none" font-family="Arial" font-size="24px" font-style="normal" font-weight="normal" text-decoration="none" x="200" y="450">UNREGISTERED</text><text fill="#eeeeee" stroke="none" font-family="Arial" font-size="24px" font-style="normal" font-weight="normal" text-decoration="none" x="200" y="480">UNREGISTERED</text><text fill="#eeeeee" stroke="none" font-family="Arial" font-size="24px" font-style="normal" font-weight="normal" text-decoration="none" x="200" y="510">UNREGISTERED</text><text fill="#eeeeee" stroke="none" font-family="Arial" font-size="24px" font-style="normal" font-weight="normal" text-decoration="none" x="200" y="540">UNREGISTERED</text><text fill="#eeeeee" stroke="none" font-family="Arial" font-size="24px" font-style="normal" font-weight="normal" text-decoration="none" x="200" y="570">UNREGISTERED</text><text fill="#eeeeee" stroke="none" font-family="Arial" font-size="24px" font-style="normal" font-weight="normal" text-decoration="none" x="400" y="0">UNREGISTERED</text><text fill="#eeeeee" stroke="none" font-family="Arial" font-size="24px" font-style="normal" font-weight="normal" text-decoration="none" x="400" y="30">UNREGISTERED</text><text fill="#eeeeee" stroke="none" font-family="Arial" font-size="24px" font-style="normal" font-weight="normal" text-decoration="none" x="400" y="60">UNREGISTERED</text><text fill="#eeeeee" stroke="none" font-family="Arial" font-size="24px" font-style="normal" font-weight="normal" text-decoration="none" x="400" y="90">UNREGISTERED</text><text fill="#eeeeee" stroke="none" font-family="Arial" font-size="24px" font-style="normal" font-weight="normal" text-decoration="none" x="400" y="120">UNREGISTERED</text><text fill="#eeeeee" stroke="none" font-family="Arial" font-size="24px" font-style="normal" font-weight="normal" text-decoration="none" x="400" y="150">UNREGISTERED</text><text fill="#eeeeee" stroke="none" font-family="Arial" font-size="24px" font-style="normal" font-weight="normal" text-decoration="none" x="400" y="180">UNREGISTERED</text><text fill="#eeeeee" stroke="none" font-family="Arial" font-size="24px" font-style="normal" font-weight="normal" text-decoration="none" x="400" y="210">UNREGISTERED</text><text fill="#eeeeee" stroke="none" font-family="Arial" font-size="24px" font-style="normal" font-weight="normal" text-decoration="none" x="400" y="240">UNREGISTERED</text><text fill="#eeeeee" stroke="none" font-family="Arial" font-size="24px" font-style="normal" font-weight="normal" text-decoration="none" x="400" y="270">UNREGISTERED</text><text fill="#eeeeee" stroke="none" font-family="Arial" font-size="24px" font-style="normal" font-weight="normal" text-decoration="none" x="400" y="300">UNREGISTERED</text><text fill="#eeeeee" stroke="none" font-family="Arial" font-size="24px" font-style="normal" font-weight="normal" text-decoration="none" x="400" y="330">UNREGISTERED</text><text fill="#eeeeee" stroke="none" font-family="Arial" font-size="24px" font-style="normal" font-weight="normal" text-decoration="none" x="400" y="360">UNREGISTERED</text><text fill="#eeeeee" stroke="none" font-family="Arial" font-size="24px" font-style="normal" font-weight="normal" text-decoration="none" x="400" y="390">UNREGISTERED</text><text fill="#eeeeee" stroke="none" font-family="Arial" font-size="24px" font-style="normal" font-weight="normal" text-decoration="none" x="400" y="420">UNREGISTERED</text><text fill="#eeeeee" stroke="none" font-family="Arial" font-size="24px" font-style="normal" font-weight="normal" text-decoration="none" x="400" y="450">UNREGISTERED</text><text fill="#eeeeee" stroke="none" font-family="Arial" font-size="24px" font-style="normal" font-weight="normal" text-decoration="none" x="400" y="480">UNREGISTERED</text><text fill="#eeeeee" stroke="none" font-family="Arial" font-size="24px" font-style="normal" font-weight="normal" text-decoration="none" x="400" y="510">UNREGISTERED</text><text fill="#eeeeee" stroke="none" font-family="Arial" font-size="24px" font-style="normal" font-weight="normal" text-decoration="none" x="400" y="540">UNREGISTERED</text><text fill="#eeeeee" stroke="none" font-family="Arial" font-size="24px" font-style="normal" font-weight="normal" text-decoration="none" x="400" y="570">UNREGISTERED</text><text fill="#eeeeee" stroke="none" font-family="Arial" font-size="24px" font-style="normal" font-weight="normal" text-decoration="none" x="600" y="0">UNREGISTERED</text><text fill="#eeeeee" stroke="none" font-family="Arial" font-size="24px" font-style="normal" font-weight="normal" text-decoration="none" x="600" y="30">UNREGISTERED</text><text fill="#eeeeee" stroke="none" font-family="Arial" font-size="24px" font-style="normal" font-weight="normal" text-decoration="none" x="600" y="60">UNREGISTERED</text><text fill="#eeeeee" stroke="none" font-family="Arial" font-size="24px" font-style="normal" font-weight="normal" text-decoration="none" x="600" y="90">UNREGISTERED</text><text fill="#eeeeee" stroke="none" font-family="Arial" font-size="24px" font-style="normal" font-weight="normal" text-decoration="none" x="600" y="120">UNREGISTERED</text><text fill="#eeeeee" stroke="none" font-family="Arial" font-size="24px" font-style="normal" font-weight="normal" text-decoration="none" x="600" y="150">UNREGISTERED</text><text fill="#eeeeee" stroke="none" font-family="Arial" font-size="24px" font-style="normal" font-weight="normal" text-decoration="none" x="600" y="180">UNREGISTERED</text><text fill="#eeeeee" stroke="none" font-family="Arial" font-size="24px" font-style="normal" font-weight="normal" text-decoration="none" x="600" y="210">UNREGISTERED</text><text fill="#eeeeee" stroke="none" font-family="Arial" font-size="24px" font-style="normal" font-weight="normal" text-decoration="none" x="600" y="240">UNREGISTERED</text><text fill="#eeeeee" stroke="none" font-family="Arial" font-size="24px" font-style="normal" font-weight="normal" text-decoration="none" x="600" y="270">UNREGISTERED</text><text fill="#eeeeee" stroke="none" font-family="Arial" font-size="24px" font-style="normal" font-weight="normal" text-decoration="none" x="600" y="300">UNREGISTERED</text><text fill="#eeeeee" stroke="none" font-family="Arial" font-size="24px" font-style="normal" font-weight="normal" text-decoration="none" x="600" y="330">UNREGISTERED</text><text fill="#eeeeee" stroke="none" font-family="Arial" font-size="24px" font-style="normal" font-weight="normal" text-decoration="none" x="600" y="360">UNREGISTERED</text><text fill="#eeeeee" stroke="none" font-family="Arial" font-size="24px" font-style="normal" font-weight="normal" text-decoration="none" x="600" y="390">UNREGISTERED</text><text fill="#eeeeee" stroke="none" font-family="Arial" font-size="24px" font-style="normal" font-weight="normal" text-decoration="none" x="600" y="420">UNREGISTERED</text><text fill="#eeeeee" stroke="none" font-family="Arial" font-size="24px" font-style="normal" font-weight="normal" text-decoration="none" x="600" y="450">UNREGISTERED</text><text fill="#eeeeee" stroke="none" font-family="Arial" font-size="24px" font-style="normal" font-weight="normal" text-decoration="none" x="600" y="480">UNREGISTERED</text><text fill="#eeeeee" stroke="none" font-family="Arial" font-size="24px" font-style="normal" font-weight="normal" text-decoration="none" x="600" y="510">UNREGISTERED</text><text fill="#eeeeee" stroke="none" font-family="Arial" font-size="24px" font-style="normal" font-weight="normal" text-decoration="none" x="600" y="540">UNREGISTERED</text><text fill="#eeeeee" stroke="none" font-family="Arial" font-size="24px" font-style="normal" font-weight="normal" text-decoration="none" x="600" y="570">UNREGISTERED</text><text fill="#eeeeee" stroke="none" font-family="Arial" font-size="24px" font-style="normal" font-weight="normal" text-decoration="none" x="800" y="0">UNREGISTERED</text><text fill="#eeeeee" stroke="none" font-family="Arial" font-size="24px" font-style="normal" font-weight="normal" text-decoration="none" x="800" y="30">UNREGISTERED</text><text fill="#eeeeee" stroke="none" font-family="Arial" font-size="24px" font-style="normal" font-weight="normal" text-decoration="none" x="800" y="60">UNREGISTERED</text><text fill="#eeeeee" stroke="none" font-family="Arial" font-size="24px" font-style="normal" font-weight="normal" text-decoration="none" x="800" y="90">UNREGISTERED</text><text fill="#eeeeee" stroke="none" font-family="Arial" font-size="24px" font-style="normal" font-weight="normal" text-decoration="none" x="800" y="120">UNREGISTERED</text><text fill="#eeeeee" stroke="none" font-family="Arial" font-size="24px" font-style="normal" font-weight="normal" text-decoration="none" x="800" y="150">UNREGISTERED</text><text fill="#eeeeee" stroke="none" font-family="Arial" font-size="24px" font-style="normal" font-weight="normal" text-decoration="none" x="800" y="180">UNREGISTERED</text><text fill="#eeeeee" stroke="none" font-family="Arial" font-size="24px" font-style="normal" font-weight="normal" text-decoration="none" x="800" y="210">UNREGISTERED</text><text fill="#eeeeee" stroke="none" font-family="Arial" font-size="24px" font-style="normal" font-weight="normal" text-decoration="none" x="800" y="240">UNREGISTERED</text><text fill="#eeeeee" stroke="none" font-family="Arial" font-size="24px" font-style="normal" font-weight="normal" text-decoration="none" x="800" y="270">UNREGISTERED</text><text fill="#eeeeee" stroke="none" font-family="Arial" font-size="24px" font-style="normal" font-weight="normal" text-decoration="none" x="800" y="300">UNREGISTERED</text><text fill="#eeeeee" stroke="none" font-family="Arial" font-size="24px" font-style="normal" font-weight="normal" text-decoration="none" x="800" y="330">UNREGISTERED</text><text fill="#eeeeee" stroke="none" font-family="Arial" font-size="24px" font-style="normal" font-weight="normal" text-decoration="none" x="800" y="360">UNREGISTERED</text><text fill="#eeeeee" stroke="none" font-family="Arial" font-size="24px" font-style="normal" font-weight="normal" text-decoration="none" x="800" y="390">UNREGISTERED</text><text fill="#eeeeee" stroke="none" font-family="Arial" font-size="24px" font-style="normal" font-weight="normal" text-decoration="none" x="800" y="420">UNREGISTERED</text><text fill="#eeeeee" stroke="none" font-family="Arial" font-size="24px" font-style="normal" font-weight="normal" text-decoration="none" x="800" y="450">UNREGISTERED</text><text fill="#eeeeee" stroke="none" font-family="Arial" font-size="24px" font-style="normal" font-weight="normal" text-decoration="none" x="800" y="480">UNREGISTERED</text><text fill="#eeeeee" stroke="none" font-family="Arial" font-size="24px" font-style="normal" font-weight="normal" text-decoration="none" x="800" y="510">UNREGISTERED</text><text fill="#eeeeee" stroke="none" font-family="Arial" font-size="24px" font-style="normal" font-weight="normal" text-decoration="none" x="800" y="540">UNREGISTERED</text><text fill="#eeeeee" stroke="none" font-family="Arial" font-size="24px" font-style="normal" font-weight="normal" text-decoration="none" x="800" y="570">UNREGISTERED</text><g transform="translate(-142,-14) scale(1,1)"><path fill="none" stroke="#000000" d="M 272 24 L 1080 24 L 1080 584 L 272 584 L 272 24" stroke-miterlimit="10"/></g><g transform="translate(-142,-14) scale(1,1)"><path fill="#ffffff" stroke="none" d="M 272 24 L 272 46 L 357.3798828125 46 L 368.3798828125 35 L 368.3798828125 24 L 272 24"/></g><g transform="translate(-142,-14) scale(1,1)"><path fill="none" stroke="#000000" d="M 272 24 L 272 46 L 357.3798828125 46 L 368.3798828125 35 L 368.3798828125 24 L 272 24 L 272 24" stroke-miterlimit="10"/></g><g transform="translate(-142,-14) scale(1,1)"><g><path fill="none" stroke="none"/><text fill="#000000" stroke="none" font-family="Arial" font-size="13px" font-style="normal" font-weight="normal" text-decoration="none" x="303.9599609375" y="41.5">Vehicles</text></g></g><g transform="translate(-142,-14) scale(1,1)"><g><path fill="none" stroke="none"/><text fill="#000000" stroke="none" font-family="Arial" font-size="13px" font-style="normal" font-weight="bold" text-decoration="none" x="277" y="41.5">pkg</text></g></g><g transform="translate(-142,-14) scale(1,1)"><path fill="#ffffff" stroke="none" d="M 192.24162571022728 233.68 C 192.24162571022728 228.886167936 196.12746803517274 225 200.9208984375 225 C 205.71432883982726 225 209.60017116477272 228.886167936 209.60017116477272 233.68 C 209.60017116477272 238.47383206400002 205.71432883982726 242.36 200.9208984375 242.36 C 196.12746803517274 242.36 192.24162571022728 238.47383206400002 192.24162571022728 233.68 Z"/></g><g transform="translate(-142,-14) scale(1,1)"><path fill="none" stroke="#000000" d="M 192.24162571022728 233.68 C 192.24162571022728 228.886167936 196.12746803517274 225 200.9208984375 225 C 205.71432883982726 225 209.60017116477272 228.886167936 209.60017116477272 233.68 C 209.60017116477272 238.47383206400002 205.71432883982726 242.36 200.9208984375 242.36 C 196.12746803517274 242.36 192.24162571022728 238.47383206400002 192.24162571022728 233.68 Z" stroke-miterlimit="10"/></g><g transform="translate(-142,-14) scale(1,1)"><path fill="none" stroke="#000000" d="M 200.9208984375 242.36 L 200.9208984375 259.64" stroke-miterlimit="10"/></g><g transform="translate(-142,-14) scale(1,1)"><path fill="none" stroke="#000000" d="M 191.73108025568183 248.84 L 210.11071661931817 248.84" stroke-miterlimit="10"/></g><g transform="translate(-142,-14) scale(1,1)"><path fill="none" stroke="#000000" d="M 200.9208984375 259.64 L 188.15726207386365 277" stroke-miterlimit="10"/></g><g transform="translate(-142,-14) scale(1,1)"><path fill="none" stroke="#000000" d="M 200.9208984375 259.64 L 213.68453480113635 277" stroke-miterlimit="10"/></g><g transform="translate(-142,-14) scale(1,1)"><g><path fill="none" stroke="none"/><text fill="#000000" stroke="none" font-family="Arial" font-size="13px" font-style="normal" font-weight="bold" text-decoration="none" x="175.6318359375" y="297.5">Emplyee</text></g></g><g transform="translate(-142,-14) scale(1,1)"><path fill="#C0C0C0" stroke="none" d="M 527 240 C 527 230.6111584 549.6096176 223 577.5 223 C 605.3903824 223 628 230.6111584 628 240 C 628 249.3888416 605.3903824 257 577.5 257 C 549.6096176 257 527 249.3888416 527 240 Z" opacity="0.2"/></g><g transform="translate(-142,-14) scale(1,1)"><path fill="#ffffff" stroke="none" d="M 520 233 C 520 223.6111584 542.6096176 216 570.5 216 C 598.3903824 216 621 223.6111584 621 233 C 621 242.3888416 598.3903824 250 570.5 250 C 542.6096176 250 520 242.3888416 520 233 Z"/></g><g transform="translate(-142,-14) scale(1,1)"><path fill="none" stroke="#000000" d="M 520 233 C 520 223.6111584 542.6096176 216 570.5 216 C 598.3903824 216 621 223.6111584 621 233 C 621 242.3888416 598.3903824 250 570.5 250 C 542.6096176 250 520 242.3888416 520 233 Z" stroke-miterlimit="10"/></g><g transform="translate(-142,-14) scale(1,1)"><g><path fill="none" stroke="none"/><text fill="#000000" stroke="none" font-family="Arial" font-size="13px" font-style="normal" font-weight="bold" text-decoration="none" x="546.2900390625" y="240">Vehicles</text></g></g><g transform="translate(-142,-14) scale(1,1)"><path fill="none" stroke="#000000" d="M 251 259 L 519 237" stroke-miterlimit="10"/></g><g transform="translate(-142,-14) scale(1,1)"><path fill="#C0C0C0" stroke="none" d="M 343 176 C 343 166.6111584 365.6096176 159 393.5 159 C 421.3903824 159 444 166.6111584 444 176 C 444 185.3888416 421.3903824 193 393.5 193 C 365.6096176 193 343 185.3888416 343 176 Z" opacity="0.2"/></g><g transform="translate(-142,-14) scale(1,1)"><path fill="#ffffff" stroke="none" d="M 336 169 C 336 159.6111584 358.6096176 152 386.5 152 C 414.3903824 152 437 159.6111584 437 169 C 437 178.3888416 414.3903824 186 386.5 186 C 358.6096176 186 336 178.3888416 336 169 Z"/></g><g transform="translate(-142,-14) scale(1,1)"><path fill="none" stroke="#000000" d="M 336 169 C 336 159.6111584 358.6096176 152 386.5 152 C 414.3903824 152 437 159.6111584 437 169 C 437 178.3888416 414.3903824 186 386.5 186 C 358.6096176 186 336 178.3888416 336 169 Z" stroke-miterlimit="10"/></g><g transform="translate(-142,-14) scale(1,1)"><g><path fill="none" stroke="none"/><text fill="#000000" stroke="none" font-family="Arial" font-size="13px" font-style="normal" font-weight="bold" text-decoration="none" x="365.905029296875" y="176">Branch</text></g></g><g transform="translate(-142,-14) scale(1,1)"><path fill="none" stroke="#000000" d="M 519 215 L 438 187" stroke-miterlimit="10" stroke-dasharray="3"/></g><g transform="translate(-142,-14) scale(1,1)"><path fill="none" stroke="#000000" d="M 448.9802857573832 186.34172597939136 L 438 187 L 446.229704542263 194.2987644945604" stroke-miterlimit="10"/></g><g transform="translate(-142,-14) scale(1,1)"><g><path fill="none" stroke="none"/><text fill="#000000" stroke="none" font-family="Arial" font-size="13px" font-style="normal" font-weight="normal" text-decoration="none" x="440.5" y="235.5">«include»</text></g></g><g transform="translate(-142,-14) scale(1,1)"><path fill="#C0C0C0" stroke="none" d="M 439 120 C 439 110.6111584 461.6096176 103 489.5 103 C 517.3903824 103 540 110.6111584 540 120 C 540 129.3888416 517.3903824 137 489.5 137 C 461.6096176 137 439 129.3888416 439 120 Z" opacity="0.2"/></g><g transform="translate(-142,-14) scale(1,1)"><path fill="#ffffff" stroke="none" d="M 432 113 C 432 103.6111584 454.6096176 96 482.5 96 C 510.3903824 96 533 103.6111584 533 113 C 533 122.3888416 510.3903824 130 482.5 130 C 454.6096176 130 432 122.3888416 432 113 Z"/></g><g transform="translate(-142,-14) scale(1,1)"><path fill="none" stroke="#000000" d="M 432 113 C 432 103.6111584 454.6096176 96 482.5 96 C 510.3903824 96 533 103.6111584 533 113 C 533 122.3888416 510.3903824 130 482.5 130 C 454.6096176 130 432 122.3888416 432 113 Z" stroke-miterlimit="10"/></g><g transform="translate(-142,-14) scale(1,1)"><g><path fill="none" stroke="none"/><text fill="#000000" stroke="none" font-family="Arial" font-size="13px" font-style="normal" font-weight="bold" text-decoration="none" x="457.575927734375" y="120">Cutomer</text></g></g><g transform="translate(-142,-14) scale(1,1)"><path fill="none" stroke="#000000" d="M 557 215 L 495 131" stroke-miterlimit="10" stroke-dasharray="3"/></g><g transform="translate(-142,-14) scale(1,1)"><path fill="none" stroke="#000000" d="M 504.4219966802554 136.67679298171566 L 495 131 L 497.6482589321624 141.67645655768908" stroke-miterlimit="10"/></g><g transform="translate(-142,-14) scale(1,1)"><g><path fill="none" stroke="none"/><text fill="#000000" stroke="none" font-family="Arial" font-size="13px" font-style="normal" font-weight="normal" text-decoration="none" x="473.5" y="196.5">«include»</text></g></g><g transform="translate(-142,-14) scale(1,1)"><path fill="#C0C0C0" stroke="none" d="M 719 224 C 719 214.6111584 741.6096176 207 769.5 207 C 797.3903824 207 820 214.6111584 820 224 C 820 233.3888416 797.3903824 241 769.5 241 C 741.6096176 241 719 233.3888416 719 224 Z" opacity="0.2"/></g><g transform="translate(-142,-14) scale(1,1)"><path fill="#ffffff" stroke="none" d="M 712 217 C 712 207.6111584 734.6096176 200 762.5 200 C 790.3903824 200 813 207.6111584 813 217 C 813 226.3888416 790.3903824 234 762.5 234 C 734.6096176 234 712 226.3888416 712 217 Z"/></g><g transform="translate(-142,-14) scale(1,1)"><path fill="none" stroke="#000000" d="M 712 217 C 712 207.6111584 734.6096176 200 762.5 200 C 790.3903824 200 813 207.6111584 813 217 C 813 226.3888416 790.3903824 234 762.5 234 C 734.6096176 234 712 226.3888416 712 217 Z" stroke-miterlimit="10"/></g><g transform="translate(-142,-14) scale(1,1)"><g><path fill="none" stroke="none"/><text fill="#000000" stroke="none" font-family="Arial" font-size="13px" font-style="normal" font-weight="bold" text-decoration="none" x="748.055908203125" y="224">Error</text></g></g><g transform="translate(-142,-14) scale(1,1)"><path fill="none" stroke="#000000" d="M 711 221 L 622 229" stroke-miterlimit="10" stroke-dasharray="3"/></g><g transform="translate(-142,-14) scale(1,1)"><path fill="none" stroke="#000000" d="M 631.7450016689775 223.8975552456077 L 622 229 L 632.4987300492687 232.2827834763477" stroke-miterlimit="10"/></g><g transform="translate(-142,-14) scale(1,1)"><g><path fill="none" stroke="none"/><text fill="#000000" stroke="none" font-family="Arial" font-size="13px" font-style="normal" font-weight="normal" text-decoration="none" x="647.5" y="220.5">«extend»</text></g></g><g transform="translate(-142,-14) scale(1,1)"><path fill="#C0C0C0" stroke="none" d="M 655 152 C 655 142.6111584 677.6096176 135 705.5 135 C 733.3903824 135 756 142.6111584 756 152 C 756 161.3888416 733.3903824 169 705.5 169 C 677.6096176 169 655 161.3888416 655 152 Z" opacity="0.2"/></g><g transform="translate(-142,-14) scale(1,1)"><path fill="#ffffff" stroke="none" d="M 648 145 C 648 135.6111584 670.6096176 128 698.5 128 C 726.3903824 128 749 135.6111584 749 145 C 749 154.3888416 726.3903824 162 698.5 162 C 670.6096176 162 648 154.3888416 648 145 Z"/></g><g transform="translate(-142,-14) scale(1,1)"><path fill="none" stroke="#000000" d="M 648 145 C 648 135.6111584 670.6096176 128 698.5 128 C 726.3903824 128 749 135.6111584 749 145 C 749 154.3888416 726.3903824 162 698.5 162 C 670.6096176 162 648 154.3888416 648 145 Z" stroke-miterlimit="10"/></g><g transform="translate(-142,-14) scale(1,1)"><g><path fill="none" stroke="none"/><text fill="#000000" stroke="none" font-family="Arial" font-size="13px" font-style="normal" font-weight="bold" text-decoration="none" x="677.905029296875" y="152">check?</text></g></g><g transform="translate(-142,-14) scale(1,1)"><path fill="none" stroke="#000000" d="M 596 215 L 672 163" stroke-miterlimit="10" stroke-dasharray="3"/></g><g transform="translate(-142,-14) scale(1,1)"><path fill="none" stroke="#000000" d="M 665.9897176155029 172.21284460189156 L 672 163 L 661.2356236770605 165.2645534610914" stroke-miterlimit="10"/></g><g transform="translate(-142,-14) scale(1,1)"><g><path fill="none" stroke="none"/><text fill="#000000" stroke="none" font-family="Arial" font-size="13px" font-style="normal" font-weight="normal" text-decoration="none" x="602.5" y="181.5">«include»</text></g></g><g transform="translate(-142,-14) scale(1,1)"><path fill="#C0C0C0" stroke="none" d="M 807 184 C 807 174.6111584 841.697928 167 884.5 167 C 927.302072 167 962 174.6111584 962 184 C 962 193.3888416 927.302072 201 884.5 201 C 841.697928 201 807 193.3888416 807 184 Z" opacity="0.2"/></g><g transform="translate(-142,-14) scale(1,1)"><path fill="#ffffff" stroke="none" d="M 800 177 C 800 167.6111584 834.697928 160 877.5 160 C 920.302072 160 955 167.6111584 955 177 C 955 186.3888416 920.302072 194 877.5 194 C 834.697928 194 800 186.3888416 800 177 Z"/></g><g transform="translate(-142,-14) scale(1,1)"><path fill="none" stroke="#000000" d="M 800 177 C 800 167.6111584 834.697928 160 877.5 160 C 920.302072 160 955 167.6111584 955 177 C 955 186.3888416 920.302072 194 877.5 194 C 834.697928 194 800 186.3888416 800 177 Z" stroke-miterlimit="10"/></g><g transform="translate(-142,-14) scale(1,1)"><g><path fill="none" stroke="none"/><text fill="#000000" stroke="none" font-family="Arial" font-size="13px" font-style="normal" font-weight="bold" text-decoration="none" x="830.892333984375" y="184">already vehicles</text></g></g><g transform="translate(-142,-14) scale(1,1)"><path fill="none" stroke="#000000" d="M 799 163 L 750 154" stroke-miterlimit="10" stroke-dasharray="3"/></g><g transform="translate(-142,-14) scale(1,1)"><path fill="none" stroke="#000000" d="M 760.7559258400272 151.69564340349936 L 750 154 L 759.2350142750804 159.9761619237653" stroke-miterlimit="10"/></g><g transform="translate(-142,-14) scale(1,1)"><g><path fill="none" stroke="none"/><text fill="#000000" stroke="none" font-family="Arial" font-size="13px" font-style="normal" font-weight="normal" text-decoration="none" x="737.5" y="183.5">«extend»</text></g></g><g transform="translate(-142,-14) scale(1,1)"><path fill="#C0C0C0" stroke="none" d="M 559 472 C 559 462.6111584 581.6096176 455 609.5 455 C 637.3903824 455 660 462.6111584 660 472 C 660 481.3888416 637.3903824 489 609.5 489 C 581.6096176 489 559 481.3888416 559 472 Z" opacity="0.2"/></g><g transform="translate(-142,-14) scale(1,1)"><path fill="#ffffff" stroke="none" d="M 552 465 C 552 455.6111584 574.6096176 448 602.5 448 C 630.3903824 448 653 455.6111584 653 465 C 653 474.3888416 630.3903824 482 602.5 482 C 574.6096176 482 552 474.3888416 552 465 Z"/></g><g transform="translate(-142,-14) scale(1,1)"><path fill="none" stroke="#000000" d="M 552 465 C 552 455.6111584 574.6096176 448 602.5 448 C 630.3903824 448 653 455.6111584 653 465 C 653 474.3888416 630.3903824 482 602.5 482 C 574.6096176 482 552 474.3888416 552 465 Z" stroke-miterlimit="10"/></g><g transform="translate(-142,-14) scale(1,1)"><g><path fill="none" stroke="none"/><text fill="#000000" stroke="none" font-family="Arial" font-size="13px" font-style="normal" font-weight="bold" text-decoration="none" x="586.240478515625" y="472">getAll</text></g></g><g transform="translate(-142,-14) scale(1,1)"><path fill="#C0C0C0" stroke="none" d="M 519 72 C 519 62.6111584 568.6963872 55 630 55 C 691.3036128 55 741 62.6111584 741 72 C 741 81.3888416 691.3036128 89 630 89 C 568.6963872 89 519 81.3888416 519 72 Z" opacity="0.2"/></g><g transform="translate(-142,-14) scale(1,1)"><path fill="#ffffff" stroke="none" d="M 512 65 C 512 55.6111584 561.6963872 48 623 48 C 684.3036128 48 734 55.6111584 734 65 C 734 74.3888416 684.3036128 82 623 82 C 561.6963872 82 512 74.3888416 512 65 Z"/></g><g transform="translate(-142,-14) scale(1,1)"><path fill="none" stroke="#000000" d="M 512 65 C 512 55.6111584 561.6963872 48 623 48 C 684.3036128 48 734 55.6111584 734 65 C 734 74.3888416 684.3036128 82 623 82 C 561.6963872 82 512 74.3888416 512 65 Z" stroke-miterlimit="10"/></g><g transform="translate(-142,-14) scale(1,1)"><g><path fill="none" stroke="none"/><text fill="#000000" stroke="none" font-family="Arial" font-size="13px" font-style="normal" font-weight="bold" text-decoration="none" x="553.997802734375" y="72">Master data for vehicles</text></g></g><g transform="translate(-142,-14) scale(1,1)"><path fill="none" stroke="#000000" d="M 576 215 L 617 83" stroke-miterlimit="10" stroke-dasharray="3"/></g><g transform="translate(-142,-14) scale(1,1)"><path fill="none" stroke="#000000" d="M 618.0055406757149 93.95394394496716 L 617 83 L 609.9654165863333 91.45663267478047" stroke-miterlimit="10"/></g><g transform="translate(-142,-14) scale(1,1)"><g><path fill="none" stroke="none"/><text fill="#000000" stroke="none" font-family="Arial" font-size="13px" font-style="normal" font-weight="normal" text-decoration="none" x="539.5" y="145.5">«include»</text></g></g><g transform="translate(-142,-14) scale(1,1)"><path fill="#C0C0C0" stroke="none" d="M 767 376 C 767 366.6111584 789.6096176 359 817.5 359 C 845.3903824 359 868 366.6111584 868 376 C 868 385.3888416 845.3903824 393 817.5 393 C 789.6096176 393 767 385.3888416 767 376 Z" opacity="0.2"/></g><g transform="translate(-142,-14) scale(1,1)"><path fill="#ffffff" stroke="none" d="M 760 369 C 760 359.6111584 782.6096176 352 810.5 352 C 838.3903824 352 861 359.6111584 861 369 C 861 378.3888416 838.3903824 386 810.5 386 C 782.6096176 386 760 378.3888416 760 369 Z"/></g><g transform="translate(-142,-14) scale(1,1)"><path fill="none" stroke="#000000" d="M 760 369 C 760 359.6111584 782.6096176 352 810.5 352 C 838.3903824 352 861 359.6111584 861 369 C 861 378.3888416 838.3903824 386 810.5 386 C 782.6096176 386 760 378.3888416 760 369 Z" stroke-miterlimit="10"/></g><g transform="translate(-142,-14) scale(1,1)"><g><path fill="none" stroke="none"/><text fill="#000000" stroke="none" font-family="Arial" font-size="13px" font-style="normal" font-weight="bold" text-decoration="none" x="796.043212890625" y="376">getId</text></g></g><g transform="translate(-142,-14) scale(1,1)"><path fill="#C0C0C0" stroke="none" d="M 423 456 C 423 446.6111584 445.6096176 439 473.5 439 C 501.3903824 439 524 446.6111584 524 456 C 524 465.3888416 501.3903824 473 473.5 473 C 445.6096176 473 423 465.3888416 423 456 Z" opacity="0.2"/></g><g transform="translate(-142,-14) scale(1,1)"><path fill="#ffffff" stroke="none" d="M 416 449 C 416 439.6111584 438.6096176 432 466.5 432 C 494.3903824 432 517 439.6111584 517 449 C 517 458.3888416 494.3903824 466 466.5 466 C 438.6096176 466 416 458.3888416 416 449 Z"/></g><g transform="translate(-142,-14) scale(1,1)"><path fill="none" stroke="#000000" d="M 416 449 C 416 439.6111584 438.6096176 432 466.5 432 C 494.3903824 432 517 439.6111584 517 449 C 517 458.3888416 494.3903824 466 466.5 466 C 438.6096176 466 416 458.3888416 416 449 Z" stroke-miterlimit="10"/></g><g transform="translate(-142,-14) scale(1,1)"><g><path fill="none" stroke="none"/><text fill="#000000" stroke="none" font-family="Arial" font-size="13px" font-style="normal" font-weight="bold" text-decoration="none" x="455.299560546875" y="456">Edit</text></g></g><g transform="translate(-142,-14) scale(1,1)"><path fill="#C0C0C0" stroke="none" d="M 655 424 C 655 414.6111584 677.6096176 407 705.5 407 C 733.3903824 407 756 414.6111584 756 424 C 756 433.3888416 733.3903824 441 705.5 441 C 677.6096176 441 655 433.3888416 655 424 Z" opacity="0.2"/></g><g transform="translate(-142,-14) scale(1,1)"><path fill="#ffffff" stroke="none" d="M 648 417 C 648 407.6111584 670.6096176 400 698.5 400 C 726.3903824 400 749 407.6111584 749 417 C 749 426.3888416 726.3903824 434 698.5 434 C 670.6096176 434 648 426.3888416 648 417 Z"/></g><g transform="translate(-142,-14) scale(1,1)"><path fill="none" stroke="#000000" d="M 648 417 C 648 407.6111584 670.6096176 400 698.5 400 C 726.3903824 400 749 407.6111584 749 417 C 749 426.3888416 726.3903824 434 698.5 434 C 670.6096176 434 648 426.3888416 648 417 Z" stroke-miterlimit="10"/></g><g transform="translate(-142,-14) scale(1,1)"><g><path fill="none" stroke="none"/><text fill="#000000" stroke="none" font-family="Arial" font-size="13px" font-style="normal" font-weight="bold" text-decoration="none" x="677.90185546875" y="424">disable</text></g></g><g transform="translate(-142,-14) scale(1,1)"><path fill="#C0C0C0" stroke="none" d="M 807 304 C 807 294.6111584 839.0116368 287 878.5 287 C 917.9883632 287 950 294.6111584 950 304 C 950 313.3888416 917.9883632 321 878.5 321 C 839.0116368 321 807 313.3888416 807 304 Z" opacity="0.2"/></g><g transform="translate(-142,-14) scale(1,1)"><path fill="#ffffff" stroke="none" d="M 800 297 C 800 287.6111584 832.0116368 280 871.5 280 C 910.9883632 280 943 287.6111584 943 297 C 943 306.3888416 910.9883632 314 871.5 314 C 832.0116368 314 800 306.3888416 800 297 Z"/></g><g transform="translate(-142,-14) scale(1,1)"><path fill="none" stroke="#000000" d="M 800 297 C 800 287.6111584 832.0116368 280 871.5 280 C 910.9883632 280 943 287.6111584 943 297 C 943 306.3888416 910.9883632 314 871.5 314 C 832.0116368 314 800 306.3888416 800 297 Z" stroke-miterlimit="10"/></g><g transform="translate(-142,-14) scale(1,1)"><g><path fill="none" stroke="none"/><text fill="#000000" stroke="none" font-family="Arial" font-size="13px" font-style="normal" font-weight="bold" text-decoration="none" x="828.513671875" y="304">transfer Owner</text></g></g><g transform="translate(-142,-14) scale(1,1)"><path fill="#C0C0C0" stroke="none" d="M 391 296 C 391 286.6111584 413.6096176 279 441.5 279 C 469.3903824 279 492 286.6111584 492 296 C 492 305.3888416 469.3903824 313 441.5 313 C 413.6096176 313 391 305.3888416 391 296 Z" opacity="0.2"/></g><g transform="translate(-142,-14) scale(1,1)"><path fill="#ffffff" stroke="none" d="M 384 289 C 384 279.6111584 406.6096176 272 434.5 272 C 462.3903824 272 485 279.6111584 485 289 C 485 298.3888416 462.3903824 306 434.5 306 C 406.6096176 306 384 298.3888416 384 289 Z"/></g><g transform="translate(-142,-14) scale(1,1)"><path fill="none" stroke="#000000" d="M 384 289 C 384 279.6111584 406.6096176 272 434.5 272 C 462.3903824 272 485 279.6111584 485 289 C 485 298.3888416 462.3903824 306 434.5 306 C 406.6096176 306 384 298.3888416 384 289 Z" stroke-miterlimit="10"/></g><g transform="translate(-142,-14) scale(1,1)"><g><path fill="none" stroke="none"/><text fill="#000000" stroke="none" font-family="Arial" font-size="13px" font-style="normal" font-weight="bold" text-decoration="none" x="409.20458984375" y="296">Add new</text></g></g><g transform="translate(-142,-14) scale(1,1)"><path fill="#C0C0C0" stroke="none" d="M 351 376 C 351 366.6111584 373.6096176 359 401.5 359 C 429.3903824 359 452 366.6111584 452 376 C 452 385.3888416 429.3903824 393 401.5 393 C 373.6096176 393 351 385.3888416 351 376 Z" opacity="0.2"/></g><g transform="translate(-142,-14) scale(1,1)"><path fill="#ffffff" stroke="none" d="M 344 369 C 344 359.6111584 366.6096176 352 394.5 352 C 422.3903824 352 445 359.6111584 445 369 C 445 378.3888416 422.3903824 386 394.5 386 C 366.6096176 386 344 378.3888416 344 369 Z"/></g><g transform="translate(-142,-14) scale(1,1)"><path fill="none" stroke="#000000" d="M 344 369 C 344 359.6111584 366.6096176 352 394.5 352 C 422.3903824 352 445 359.6111584 445 369 C 445 378.3888416 422.3903824 386 394.5 386 C 366.6096176 386 344 378.3888416 344 369 Z" stroke-miterlimit="10"/></g><g transform="translate(-142,-14) scale(1,1)"><g><path fill="none" stroke="none"/><text fill="#000000" stroke="none" font-family="Arial" font-size="13px" font-style="normal" font-weight="bold" text-decoration="none" x="367.036865234375" y="376">validation</text></g></g><g transform="translate(-142,-14) scale(1,1)"><path fill="none" stroke="#000000" d="M 425 307 L 403 351" stroke-miterlimit="10" stroke-dasharray="3"/></g><g transform="translate(-142,-14) scale(1,1)"><path fill="none" stroke="#000000" d="M 403.77977922099745 340.02767370306094 L 403 351 L 411.3099935049528 343.7927808450386" stroke-miterlimit="10"/></g><g transform="translate(-142,-14) scale(1,1)"><g><path fill="none" stroke="none"/><text fill="#000000" stroke="none" font-family="Arial" font-size="13px" font-style="normal" font-weight="normal" text-decoration="none" x="415.5" y="332.5">«include»</text></g></g><g transform="translate(-142,-14) scale(1,1)"><path fill="none" stroke="#000000" d="M 450 431 L 410 387" stroke-miterlimit="10" stroke-dasharray="3"/></g><g transform="translate(-142,-14) scale(1,1)"><path fill="none" stroke="#000000" d="M 419.9509457683021 391.68814230973317 L 410 387 L 413.7213640136061 397.3513984503659" stroke-miterlimit="10"/></g><g transform="translate(-142,-14) scale(1,1)"><g><path fill="none" stroke="none"/><text fill="#000000" stroke="none" font-family="Arial" font-size="13px" font-style="normal" font-weight="normal" text-decoration="none" x="379.5" y="420.5">«include»</text></g></g><g transform="translate(-142,-14) scale(1,1)"><path fill="none" stroke="#000000" d="M 526 251 L 478 271" stroke-miterlimit="10" stroke-dasharray="3"/></g><g transform="translate(-142,-14) scale(1,1)"><path fill="none" stroke="#000000" d="M 485.7618853470315 263.2055702030529 L 478 271 L 488.9999759285823 270.9769875987747" stroke-miterlimit="10"/></g><g transform="translate(-142,-14) scale(1,1)"><g><path fill="none" stroke="none"/><text fill="#000000" stroke="none" font-family="Arial" font-size="13px" font-style="normal" font-weight="normal" text-decoration="none" x="455.5" y="259.5">«include»</text></g></g><g transform="translate(-142,-14) scale(1,1)"><path fill="none" stroke="#000000" d="M 475 431 L 561 251" stroke-miterlimit="10" stroke-dasharray="3"/></g><g transform="translate(-142,-14) scale(1,1)"><path fill="none" stroke="#000000" d="M 560.4171275670201 261.984546405149 L 561 251 L 552.820599698734 258.3550942014123" stroke-miterlimit="10"/></g><g transform="translate(-142,-14) scale(1,1)"><g><path fill="none" stroke="none"/><text fill="#000000" stroke="none" font-family="Arial" font-size="13px" font-style="normal" font-weight="normal" text-decoration="none" x="495.5" y="355.5">«include»</text></g></g><g transform="translate(-142,-14) scale(1,1)"><path fill="none" stroke="#000000" d="M 600 447 L 572 251" stroke-miterlimit="10" stroke-dasharray="3"/></g><g transform="translate(-142,-14) scale(1,1)"><path fill="none" stroke="#000000" d="M 577.6044292324897 260.46521911938726 L 572 251 L 569.2700092902382 261.6558505397089" stroke-miterlimit="10"/></g><g transform="translate(-142,-14) scale(1,1)"><g><path fill="none" stroke="none"/><text fill="#000000" stroke="none" font-family="Arial" font-size="13px" font-style="normal" font-weight="normal" text-decoration="none" x="535.5" y="396.5">«include»</text></g></g><g transform="translate(-142,-14) scale(1,1)"><path fill="none" stroke="#000000" d="M 685 399 L 583 251" stroke-miterlimit="10" stroke-dasharray="3"/></g><g transform="translate(-142,-14) scale(1,1)"><path fill="none" stroke="#000000" d="M 592.2331262080896 256.97907855990275 L 583 251 L 585.300959158337 261.75665314824573" stroke-miterlimit="10"/></g><g transform="translate(-142,-14) scale(1,1)"><g><path fill="none" stroke="none"/><text fill="#000000" stroke="none" font-family="Arial" font-size="13px" font-style="normal" font-weight="normal" text-decoration="none" x="591.5" y="340.5">«include»</text></g></g><g transform="translate(-142,-14) scale(1,1)"><path fill="none" stroke="#000000" d="M 778 351 L 602 251" stroke-miterlimit="10" stroke-dasharray="3"/></g><g transform="translate(-142,-14) scale(1,1)"><path fill="none" stroke="#000000" d="M 612.9155456685831 252.36046416971377 L 602 251 L 608.7564629226407 259.6804498025725" stroke-miterlimit="10"/></g><g transform="translate(-142,-14) scale(1,1)"><g><path fill="none" stroke="none"/><text fill="#000000" stroke="none" font-family="Arial" font-size="13px" font-style="normal" font-weight="normal" text-decoration="none" x="671.5" y="323.5">«include»</text></g></g><g transform="translate(-142,-14) scale(1,1)"><path fill="none" stroke="#000000" d="M 799 282 L 622 244" stroke-miterlimit="10" stroke-dasharray="3"/></g><g transform="translate(-142,-14) scale(1,1)"><path fill="none" stroke="#000000" d="M 632.8198700974547 242.01747356279753 L 622 244 L 631.0526614050953 250.24894562984028" stroke-miterlimit="10"/></g><g transform="translate(-142,-14) scale(1,1)"><g><path fill="none" stroke="none"/><text fill="#000000" stroke="none" font-family="Arial" font-size="13px" font-style="normal" font-weight="normal" text-decoration="none" x="703.5" y="275.5">«include»</text></g></g><g transform="translate(-142,-14) scale(1,1)"><path fill="none" stroke="#000000" d="M 251 269 L 383 283" stroke-miterlimit="10"/></g><g transform="translate(-142,-14) scale(1,1)"><path fill="none" stroke="#000000" d="M 243 304 L 384 440 L 415 443" stroke-miterlimit="10"/></g><g transform="translate(-142,-14) scale(1,1)"><path fill="none" stroke="#000000" d="M 239 304 L 408 480 L 551 469" stroke-miterlimit="10"/></g><g transform="translate(-142,-14) scale(1,1)"><path fill="none" stroke="#000000" d="M 235 304 L 400 496 L 640 496 L 685 435" stroke-miterlimit="10"/></g><g transform="translate(-142,-14) scale(1,1)"><path fill="none" stroke="#000000" d="M 232 304 L 392 512 L 664 512 L 792 387" stroke-miterlimit="10"/></g><g transform="translate(-142,-14) scale(1,1)"><path fill="none" stroke="#000000" d="M 228 304 L 384 528 L 672 528 L 880 376 L 873 315" stroke-miterlimit="10"/></g><g transform="translate(-142,-14) scale(1,1)"><path fill="#C0C0C0" stroke="none" d="M 927 232 C 927 222.6111584 957.8923488 215 996 215 C 1034.1076512 215 1065 222.6111584 1065 232 C 1065 241.3888416 1034.1076512 249 996 249 C 957.8923488 249 927 241.3888416 927 232 Z" opacity="0.2"/></g><g transform="translate(-142,-14) scale(1,1)"><path fill="#ffffff" stroke="none" d="M 920 225 C 920 215.6111584 950.8923488 208 989 208 C 1027.1076512 208 1058 215.6111584 1058 225 C 1058 234.3888416 1027.1076512 242 989 242 C 950.8923488 242 920 234.3888416 920 225 Z"/></g><g transform="translate(-142,-14) scale(1,1)"><path fill="none" stroke="#000000" d="M 920 225 C 920 215.6111584 950.8923488 208 989 208 C 1027.1076512 208 1058 215.6111584 1058 225 C 1058 234.3888416 1027.1076512 242 989 242 C 950.8923488 242 920 234.3888416 920 225 Z" stroke-miterlimit="10"/></g><g transform="translate(-142,-14) scale(1,1)"><g><path fill="none" stroke="none"/><text fill="#000000" stroke="none" font-family="Arial" font-size="13px" font-style="normal" font-weight="bold" text-decoration="none" x="947.4609375" y="232">New customer</text></g></g><g transform="translate(-142,-14) scale(1,1)"><path fill="none" stroke="#000000" d="M 901 279 L 960 243" stroke-miterlimit="10" stroke-dasharray="3"/></g><g transform="translate(-142,-14) scale(1,1)"><path fill="none" stroke="#000000" d="M 953.5173305224994 251.88678774617023 L 960 243 L 949.1321525739858 244.69996833055072" stroke-miterlimit="10"/></g><g transform="translate(-142,-14) scale(1,1)"><g><path fill="none" stroke="none"/><text fill="#000000" stroke="none" font-family="Arial" font-size="13px" font-style="normal" font-weight="normal" text-decoration="none" x="869.5" y="260.5">«include»</text></g></g></g></svg>