<svg version="1.1" xmlns="http://www.w3.org/2000/svg" xmlns:xlink="http://www.w3.org/1999/xlink" width="572" height="452"><defs/><g><text fill="#eeeeee" stroke="none" font-family="Arial" font-size="24px" font-style="normal" font-weight="normal" text-decoration="none" x="0" y="0">UNREGISTERED</text><text fill="#eeeeee" stroke="none" font-family="Arial" font-size="24px" font-style="normal" font-weight="normal" text-decoration="none" x="0" y="30">UNREGISTERED</text><text fill="#eeeeee" stroke="none" font-family="Arial" font-size="24px" font-style="normal" font-weight="normal" text-decoration="none" x="0" y="60">UNREGISTERED</text><text fill="#eeeeee" stroke="none" font-family="Arial" font-size="24px" font-style="normal" font-weight="normal" text-decoration="none" x="0" y="90">UNREGISTERED</text><text fill="#eeeeee" stroke="none" font-family="Arial" font-size="24px" font-style="normal" font-weight="normal" text-decoration="none" x="0" y="120">UNREGISTERED</text><text fill="#eeeeee" stroke="none" font-family="Arial" font-size="24px" font-style="normal" font-weight="normal" text-decoration="none" x="0" y="150">UNREGISTERED</text><text fill="#eeeeee" stroke="none" font-family="Arial" font-size="24px" font-style="normal" font-weight="normal" text-decoration="none" x="0" y="180">UNREGISTERED</text><text fill="#eeeeee" stroke="none" font-family="Arial" font-size="24px" font-style="normal" font-weight="normal" text-decoration="none" x="0" y="210">UNREGISTERED</text><text fill="#eeeeee" stroke="none" font-family="Arial" font-size="24px" font-style="normal" font-weight="normal" text-decoration="none" x="0" y="240">UNREGISTERED</text><text fill="#eeeeee" stroke="none" font-family="Arial" font-size="24px" font-style="normal" font-weight="normal" text-decoration="none" x="0" y="270">UNREGISTERED</text><text fill="#eeeeee" stroke="none" font-family="Arial" font-size="24px" font-style="normal" font-weight="normal" text-decoration="none" x="0" y="300">UNREGISTERED</text><text fill="#eeeeee" stroke="none" font-family="Arial" font-size="24px" font-style="normal" font-weight="normal" text-decoration="none" x="0" y="330">UNREGISTERED</text><text fill="#eeeeee" stroke="none" font-family="Arial" font-size="24px" font-style="normal" font-weight="normal" text-decoration="none" x="0" y="360">UNREGISTERED</text><text fill="#eeeeee" stroke="none" font-family="Arial" font-size="24px" font-style="normal" font-weight="normal" text-decoration="none" x="0" y="390">UNREGISTERED</text><text fill="#eeeeee" stroke="none" font-family="Arial" font-size="24px" font-style="normal" font-weight="normal" text-decoration="none" x="0" y="420">UNREGISTERED</text><text fill="#eeeeee" stroke="none" font-family="Arial" font-size="24px" font-style="normal" font-weight="normal" text-decoration="none" x="0" y="450">UNREGISTERED</text><text fill="#eeeeee" stroke="none" font-family="Arial" font-size="24px" font-style="normal" font-weight="normal" text-decoration="none" x="200" y="0">UNREGISTERED</text><text fill="#eeeeee" stroke="none" font-family="Arial" font-size="24px" font-style="normal" font-weight="normal" text-decoration="none" x="200" y="30">UNREGISTERED</text><text fill="#eeeeee" stroke="none" font-family="Arial" font-size="24px" font-style="normal" font-weight="normal" text-decoration="none" x="200" y="60">UNREGISTERED</text><text fill="#eeeeee" stroke="none" font-family="Arial" font-size="24px" font-style="normal" font-weight="normal" text-decoration="none" x="200" y="90">UNREGISTERED</text><text fill="#eeeeee" stroke="none" font-family="Arial" font-size="24px" font-style="normal" font-weight="normal" text-decoration="none" x="200" y="120">UNREGISTERED</text><text fill="#eeeeee" stroke="none" font-family="Arial" font-size="24px" font-style="normal" font-weight="normal" text-decoration="none" x="200" y="150">UNREGISTERED</text><text fill="#eeeeee" stroke="none" font-family="Arial" font-size="24px" font-style="normal" font-weight="normal" text-decoration="none" x="200" y="180">UNREGISTERED</text><text fill="#eeeeee" stroke="none" font-family="Arial" font-size="24px" font-style="normal" font-weight="normal" text-decoration="none" x="200" y="210">UNREGISTERED</text><text fill="#eeeeee" stroke="none" font-family="Arial" font-size="24px" font-style="normal" font-weight="normal" text-decoration="none" x="200" y="240">UNREGISTERED</text><text fill="#eeeeee" stroke="none" font-family="Arial" font-size="24px" font-style="normal" font-weight="normal" text-decoration="none" x="200" y="270">UNREGISTERED</text><text fill="#eeeeee" stroke="none" font-family="Arial" font-size="24px" font-style="normal" font-weight="normal" text-decoration="none" x="200" y="300">UNREGISTERED</text><text fill="#eeeeee" stroke="none" font-family="Arial" font-size="24px" font-style="normal" font-weight="normal" text-decoration="none" x="200" y="330">UNREGISTERED</text><text fill="#eeeeee" stroke="none" font-family="Arial" font-size="24px" font-style="normal" font-weight="normal" text-decoration="none" x="200" y="360">UNREGISTERED</text><text fill="#eeeeee" stroke="none" font-family="Arial" font-size="24px" font-style="normal" font-weight="normal" text-decoration="none" x="200" y="390">UNREGISTERED</text><text fill="#eeeeee" stroke="none" font-family="Arial" font-size="24px" font-style="normal" font-weight="normal" text-decoration="none" x="200" y="420">UNREGISTERED</text><text fill="#eeeeee" stroke="none" font-family="Arial" font-size="24px" font-style="normal" font-weight="normal" text-decoration="none" x="200" y="450">UNREGISTERED</text><text fill="#eeeeee" stroke="none" font-family="Arial" font-size="24px" font-style="normal" font-weight="normal" text-decoration="none" x="400" y="0">UNREGISTERED</text><text fill="#eeeeee" stroke="none" font-family="Arial" font-size="24px" font-style="normal" font-weight="normal" text-decoration="none" x="400" y="30">UNREGISTERED</text><text fill="#eeeeee" stroke="none" font-family="Arial" font-size="24px" font-style="normal" font-weight="normal" text-decoration="none" x="400" y="60">UNREGISTERED</text><text fill="#eeeeee" stroke="none" font-family="Arial" font-size="24px" font-style="normal" font-weight="normal" text-decoration="none" x="400" y="90">UNREGISTERED</text><text fill="#eeeeee" stroke="none" font-family="Arial" font-size="24px" font-style="normal" font-weight="normal" text-decoration="none" x="400" y="120">UNREGISTERED</text><text fill="#eeeeee" stroke="none" font-family="Arial" font-size="24px" font-style="normal" font-weight="normal" text-decoration="none" x="400" y="150">UNREGISTERED</text><text fill="#eeeeee" stroke="none" font-family="Arial" font-size="24px" font-style="normal" font-weight="normal" text-decoration="none" x="400" y="180">UNREGISTERED</text><text fill="#eeeeee" stroke="none" font-family="Arial" font-size="24px" font-style="normal" font-weight="normal" text-decoration="none" x="400" y="210">UNREGISTERED</text><text fill="#eeeeee" stroke="none" font-family="Arial" font-size="24px" font-style="normal" font-weight="normal" text-decoration="none" x="400" y="240">UNREGISTERED</text><text fill="#eeeeee" stroke="none" font-family="Arial" font-size="24px" font-style="normal" font-weight="normal" text-decoration="none" x="400" y="270">UNREGISTERED</text><text fill="#eeeeee" stroke="none" font-family="Arial" font-size="24px" font-style="normal" font-weight="normal" text-decoration="none" x="400" y="300">UNREGISTERED</text><text fill="#eeeeee" stroke="none" font-family="Arial" font-size="24px" font-style="normal" font-weight="normal" text-decoration="none" x="400" y="330">UNREGISTERED</text><text fill="#eeeeee" stroke="none" font-family="Arial" font-size="24px" font-style="normal" font-weight="normal" text-decoration="none" x="400" y="360">UNREGISTERED</text><text fill="#eeeeee" stroke="none" font-family="Arial" font-size="24px" font-style="normal" font-weight="normal" text-decoration="none" x="400" y="390">UNREGISTERED</text><text fill="#eeeeee" stroke="none" font-family="Arial" font-size="24px" font-style="normal" font-weight="normal" text-decoration="none" x="400" y="420">UNREGISTERED</text><text fill="#eeeeee" stroke="none" font-family="Arial" font-size="24px" font-style="normal" font-weight="normal" text-decoration="none" x="400" y="450">UNREGISTERED</text><g transform="translate(-174,-38) scale(1,1)"><path fill="none" stroke="#000000" d="M 328 48 L 736 48 L 736 480 L 328 480 L 328 48" stroke-miterlimit="10"/></g><g transform="translate(-174,-38) scale(1,1)"><path fill="#ffffff" stroke="none" d="M 328 48 L 328 70 L 429.25537109375 70 L 440.25537109375 59 L 440.25537109375 48 L 328 48"/></g><g transform="translate(-174,-38) scale(1,1)"><path fill="none" stroke="#000000" d="M 328 48 L 328 70 L 429.25537109375 70 L 440.25537109375 59 L 440.25537109375 48 L 328 48 L 328 48" stroke-miterlimit="10"/></g><g transform="translate(-174,-38) scale(1,1)"><g><path fill="none" stroke="none"/><text fill="#000000" stroke="none" font-family="Arial" font-size="13px" font-style="normal" font-weight="normal" text-decoration="none" x="359.9599609375" y="65.5">Permission</text></g></g><g transform="translate(-174,-38) scale(1,1)"><g><path fill="none" stroke="none"/><text fill="#000000" stroke="none" font-family="Arial" font-size="13px" font-style="normal" font-weight="bold" text-decoration="none" x="333" y="65.5">pkg</text></g></g><g transform="translate(-174,-38) scale(1,1)"><path fill="#ffffff" stroke="none" d="M 220.26799289772728 281.68 C 220.26799289772728 276.886167936 224.15383522267274 273 228.947265625 273 C 233.74069602732726 273 237.62653835227272 276.886167936 237.62653835227272 281.68 C 237.62653835227272 286.473832064 233.74069602732726 290.36 228.947265625 290.36 C 224.15383522267274 290.36 220.26799289772728 286.473832064 220.26799289772728 281.68 Z"/></g><g transform="translate(-174,-38) scale(1,1)"><path fill="none" stroke="#000000" d="M 220.26799289772728 281.68 C 220.26799289772728 276.886167936 224.15383522267274 273 228.947265625 273 C 233.74069602732726 273 237.62653835227272 276.886167936 237.62653835227272 281.68 C 237.62653835227272 286.473832064 233.74069602732726 290.36 228.947265625 290.36 C 224.15383522267274 290.36 220.26799289772728 286.473832064 220.26799289772728 281.68 Z" stroke-miterlimit="10"/></g><g transform="translate(-174,-38) scale(1,1)"><path fill="none" stroke="#000000" d="M 228.947265625 290.36 L 228.947265625 307.64" stroke-miterlimit="10"/></g><g transform="translate(-174,-38) scale(1,1)"><path fill="none" stroke="#000000" d="M 219.75744744318183 296.84 L 238.13708380681817 296.84" stroke-miterlimit="10"/></g><g transform="translate(-174,-38) scale(1,1)"><path fill="none" stroke="#000000" d="M 228.947265625 307.64 L 216.18362926136365 325" stroke-miterlimit="10"/></g><g transform="translate(-174,-38) scale(1,1)"><path fill="none" stroke="#000000" d="M 228.947265625 307.64 L 241.71090198863635 325" stroke-miterlimit="10"/></g><g transform="translate(-174,-38) scale(1,1)"><g><path fill="none" stroke="none"/><text fill="#000000" stroke="none" font-family="Arial" font-size="13px" font-style="normal" font-weight="bold" text-decoration="none" x="207.2763671875" y="345.5">System</text></g></g><g transform="translate(-174,-38) scale(1,1)"><path fill="#C0C0C0" stroke="none" d="M 399 232 C 399 222.6111584 424.0720512 215 455 215 C 485.9279488 215 511 222.6111584 511 232 C 511 241.3888416 485.9279488 249 455 249 C 424.0720512 249 399 241.3888416 399 232 Z" opacity="0.2"/></g><g transform="translate(-174,-38) scale(1,1)"><path fill="#ffffff" stroke="none" d="M 392 225 C 392 215.6111584 417.0720512 208 448 208 C 478.9279488 208 504 215.6111584 504 225 C 504 234.3888416 478.9279488 242 448 242 C 417.0720512 242 392 234.3888416 392 225 Z"/></g><g transform="translate(-174,-38) scale(1,1)"><path fill="none" stroke="#000000" d="M 392 225 C 392 215.6111584 417.0720512 208 448 208 C 478.9279488 208 504 215.6111584 504 225 C 504 234.3888416 478.9279488 242 448 242 C 417.0720512 242 392 234.3888416 392 225 Z" stroke-miterlimit="10"/></g><g transform="translate(-174,-38) scale(1,1)"><g><path fill="none" stroke="none"/><text fill="#000000" stroke="none" font-family="Arial" font-size="13px" font-style="normal" font-weight="bold" text-decoration="none" x="415.852294921875" y="232">Permission</text></g></g><g transform="translate(-174,-38) scale(1,1)"><path fill="none" stroke="#000000" d="M 275 293 L 402 243" stroke-miterlimit="10"/></g><g transform="translate(-174,-38) scale(1,1)"><path fill="#C0C0C0" stroke="none" d="M 463 128 C 463 118.6111584 513.5918176 111 576 111 C 638.4081824 111 689 118.6111584 689 128 C 689 137.3888416 638.4081824 145 576 145 C 513.5918176 145 463 137.3888416 463 128 Z" opacity="0.2"/></g><g transform="translate(-174,-38) scale(1,1)"><path fill="#ffffff" stroke="none" d="M 456 121 C 456 111.6111584 506.5918176 104 569 104 C 631.4081824 104 682 111.6111584 682 121 C 682 130.3888416 631.4081824 138 569 138 C 506.5918176 138 456 130.3888416 456 121 Z"/></g><g transform="translate(-174,-38) scale(1,1)"><path fill="none" stroke="#000000" d="M 456 121 C 456 111.6111584 506.5918176 104 569 104 C 631.4081824 104 682 111.6111584 682 121 C 682 130.3888416 631.4081824 138 569 138 C 506.5918176 138 456 130.3888416 456 121 Z" stroke-miterlimit="10"/></g><g transform="translate(-174,-38) scale(1,1)"><g><path fill="none" stroke="none"/><text fill="#000000" stroke="none" font-family="Arial" font-size="13px" font-style="normal" font-weight="bold" text-decoration="none" x="498.556884765625" y="128">Already name Permissin</text></g></g><g transform="translate(-174,-38) scale(1,1)"><path fill="none" stroke="#000000" d="M 548 139 L 469 207" stroke-miterlimit="10" stroke-dasharray="3"/></g><g transform="translate(-174,-38) scale(1,1)"><path fill="none" stroke="#000000" d="M 473.95613341386985 197.1797789442435 L 469 207 L 479.4484604466889 203.56057064413628" stroke-miterlimit="10"/></g><g transform="translate(-174,-38) scale(1,1)"><g><path fill="none" stroke="none"/><text fill="#000000" stroke="none" font-family="Arial" font-size="13px" font-style="normal" font-weight="normal" text-decoration="none" x="500.5" y="201.5">«extend»</text></g></g><g transform="translate(-174,-38) scale(1,1)"><path fill="#C0C0C0" stroke="none" d="M 575 304 C 575 294.6111584 591.1177472 287 611 287 C 630.8822528 287 647 294.6111584 647 304 C 647 313.3888416 630.8822528 321 611 321 C 591.1177472 321 575 313.3888416 575 304 Z" opacity="0.2"/></g><g transform="translate(-174,-38) scale(1,1)"><path fill="#ffffff" stroke="none" d="M 568 297 C 568 287.6111584 584.1177472 280 604 280 C 623.8822528 280 640 287.6111584 640 297 C 640 306.3888416 623.8822528 314 604 314 C 584.1177472 314 568 306.3888416 568 297 Z"/></g><g transform="translate(-174,-38) scale(1,1)"><path fill="none" stroke="#000000" d="M 568 297 C 568 287.6111584 584.1177472 280 604 280 C 623.8822528 280 640 287.6111584 640 297 C 640 306.3888416 623.8822528 314 604 314 C 584.1177472 314 568 306.3888416 568 297 Z" stroke-miterlimit="10"/></g><g transform="translate(-174,-38) scale(1,1)"><g><path fill="none" stroke="none"/><text fill="#000000" stroke="none" font-family="Arial" font-size="13px" font-style="normal" font-weight="bold" text-decoration="none" x="593.52001953125" y="304">edit</text></g></g><g transform="translate(-174,-38) scale(1,1)"><path fill="#C0C0C0" stroke="none" d="M 495 376 C 495 366.6111584 517.6096176 359 545.5 359 C 573.3903824 359 596 366.6111584 596 376 C 596 385.3888416 573.3903824 393 545.5 393 C 517.6096176 393 495 385.3888416 495 376 Z" opacity="0.2"/></g><g transform="translate(-174,-38) scale(1,1)"><path fill="#ffffff" stroke="none" d="M 488 369 C 488 359.6111584 510.6096176 352 538.5 352 C 566.3903824 352 589 359.6111584 589 369 C 589 378.3888416 566.3903824 386 538.5 386 C 510.6096176 386 488 378.3888416 488 369 Z"/></g><g transform="translate(-174,-38) scale(1,1)"><path fill="none" stroke="#000000" d="M 488 369 C 488 359.6111584 510.6096176 352 538.5 352 C 566.3903824 352 589 359.6111584 589 369 C 589 378.3888416 566.3903824 386 538.5 386 C 510.6096176 386 488 378.3888416 488 369 Z" stroke-miterlimit="10"/></g><g transform="translate(-174,-38) scale(1,1)"><g><path fill="none" stroke="none"/><text fill="#000000" stroke="none" font-family="Arial" font-size="13px" font-style="normal" font-weight="bold" text-decoration="none" x="519.7109375" y="376">Delete</text></g></g><g transform="translate(-174,-38) scale(1,1)"><path fill="#C0C0C0" stroke="none" d="M 359 432 C 359 422.6111584 381.6096176 415 409.5 415 C 437.3903824 415 460 422.6111584 460 432 C 460 441.3888416 437.3903824 449 409.5 449 C 381.6096176 449 359 441.3888416 359 432 Z" opacity="0.2"/></g><g transform="translate(-174,-38) scale(1,1)"><path fill="#ffffff" stroke="none" d="M 352 425 C 352 415.6111584 374.6096176 408 402.5 408 C 430.3903824 408 453 415.6111584 453 425 C 453 434.3888416 430.3903824 442 402.5 442 C 374.6096176 442 352 434.3888416 352 425 Z"/></g><g transform="translate(-174,-38) scale(1,1)"><path fill="none" stroke="#000000" d="M 352 425 C 352 415.6111584 374.6096176 408 402.5 408 C 430.3903824 408 453 415.6111584 453 425 C 453 434.3888416 430.3903824 442 402.5 442 C 374.6096176 442 352 434.3888416 352 425 Z" stroke-miterlimit="10"/></g><g transform="translate(-174,-38) scale(1,1)"><g><path fill="none" stroke="none"/><text fill="#000000" stroke="none" font-family="Arial" font-size="13px" font-style="normal" font-weight="bold" text-decoration="none" x="380.82275390625" y="432">Disable</text></g></g><g transform="translate(-174,-38) scale(1,1)"><path fill="none" stroke="#000000" d="M 567 280 L 487 243" stroke-miterlimit="10" stroke-dasharray="3"/></g><g transform="translate(-174,-38) scale(1,1)"><path fill="none" stroke="#000000" d="M 497.99097937402814 243.44539016568456 L 487 243 L 494.4568576408274 251.08673445368612" stroke-miterlimit="10"/></g><g transform="translate(-174,-38) scale(1,1)"><g><path fill="none" stroke="none"/><text fill="#000000" stroke="none" font-family="Arial" font-size="13px" font-style="normal" font-weight="normal" text-decoration="none" x="486.5" y="294.5">«include»</text></g></g><g transform="translate(-174,-38) scale(1,1)"><path fill="none" stroke="#000000" d="M 527 351 L 459 243" stroke-miterlimit="10" stroke-dasharray="3"/></g><g transform="translate(-174,-38) scale(1,1)"><path fill="none" stroke="#000000" d="M 467.9770401857295 249.35710228829126 L 459 243 L 460.8525758535662 253.84287612706072" stroke-miterlimit="10"/></g><g transform="translate(-174,-38) scale(1,1)"><g><path fill="none" stroke="none"/><text fill="#000000" stroke="none" font-family="Arial" font-size="13px" font-style="normal" font-weight="normal" text-decoration="none" x="439.5" y="318.5">«include»</text></g></g><g transform="translate(-174,-38) scale(1,1)"><path fill="none" stroke="#000000" d="M 406 407 L 444 243" stroke-miterlimit="10" stroke-dasharray="3"/></g><g transform="translate(-174,-38) scale(1,1)"><path fill="none" stroke="#000000" d="M 445.80688156362623 253.85058427067537 L 444 243 L 437.60513648881044 251.9501799240717" stroke-miterlimit="10"/></g><g transform="translate(-174,-38) scale(1,1)"><g><path fill="none" stroke="none"/><text fill="#000000" stroke="none" font-family="Arial" font-size="13px" font-style="normal" font-weight="normal" text-decoration="none" x="367.5" y="324.5">«include»</text></g></g><g transform="translate(-174,-38) scale(1,1)"><path fill="none" stroke="#000000" d="M 275 309 L 567 298" stroke-miterlimit="10"/></g><g transform="translate(-174,-38) scale(1,1)"><path fill="none" stroke="#000000" d="M 275 320 L 487 359" stroke-miterlimit="10"/></g><g transform="translate(-174,-38) scale(1,1)"><path fill="none" stroke="#000000" d="M 275 342 L 375 407" stroke-miterlimit="10"/></g><g transform="translate(-174,-38) scale(1,1)"><path fill="#C0C0C0" stroke="none" d="M 607 232 C 607 222.6111584 629.6096176 215 657.5 215 C 685.3903824 215 708 222.6111584 708 232 C 708 241.3888416 685.3903824 249 657.5 249 C 629.6096176 249 607 241.3888416 607 232 Z" opacity="0.2"/></g><g transform="translate(-174,-38) scale(1,1)"><path fill="#ffffff" stroke="none" d="M 600 225 C 600 215.6111584 622.6096176 208 650.5 208 C 678.3903824 208 701 215.6111584 701 225 C 701 234.3888416 678.3903824 242 650.5 242 C 622.6096176 242 600 234.3888416 600 225 Z"/></g><g transform="translate(-174,-38) scale(1,1)"><path fill="none" stroke="#000000" d="M 600 225 C 600 215.6111584 622.6096176 208 650.5 208 C 678.3903824 208 701 215.6111584 701 225 C 701 234.3888416 678.3903824 242 650.5 242 C 622.6096176 242 600 234.3888416 600 225 Z" stroke-miterlimit="10"/></g><g transform="translate(-174,-38) scale(1,1)"><g><path fill="none" stroke="none"/><text fill="#000000" stroke="none" font-family="Arial" font-size="13px" font-style="normal" font-weight="bold" text-decoration="none" x="636.055908203125" y="232">Error</text></g></g><g transform="translate(-174,-38) scale(1,1)"><path fill="none" stroke="#000000" d="M 599 225 L 505 225" stroke-miterlimit="10" stroke-dasharray="3"/></g><g transform="translate(-174,-38) scale(1,1)"><path fill="none" stroke="#000000" d="M 515.1626748576241 220.790482243984 L 505 225 L 515.1626748576241 229.209517756016" stroke-miterlimit="10"/></g><g transform="translate(-174,-38) scale(1,1)"><g><path fill="none" stroke="none"/><text fill="#000000" stroke="none" font-family="Arial" font-size="13px" font-style="normal" font-weight="normal" text-decoration="none" x="524.5" y="244.5">«extend»</text></g></g></g></svg>