<svg version="1.1" xmlns="http://www.w3.org/2000/svg" xmlns:xlink="http://www.w3.org/1999/xlink" width="740" height="700"><defs/><g><text fill="#eeeeee" stroke="none" font-family="Arial" font-size="24px" font-style="normal" font-weight="normal" text-decoration="none" x="0" y="0">UNREGISTERED</text><text fill="#eeeeee" stroke="none" font-family="Arial" font-size="24px" font-style="normal" font-weight="normal" text-decoration="none" x="0" y="30">UNREGISTERED</text><text fill="#eeeeee" stroke="none" font-family="Arial" font-size="24px" font-style="normal" font-weight="normal" text-decoration="none" x="0" y="60">UNREGISTERED</text><text fill="#eeeeee" stroke="none" font-family="Arial" font-size="24px" font-style="normal" font-weight="normal" text-decoration="none" x="0" y="90">UNREGISTERED</text><text fill="#eeeeee" stroke="none" font-family="Arial" font-size="24px" font-style="normal" font-weight="normal" text-decoration="none" x="0" y="120">UNREGISTERED</text><text fill="#eeeeee" stroke="none" font-family="Arial" font-size="24px" font-style="normal" font-weight="normal" text-decoration="none" x="0" y="150">UNREGISTERED</text><text fill="#eeeeee" stroke="none" font-family="Arial" font-size="24px" font-style="normal" font-weight="normal" text-decoration="none" x="0" y="180">UNREGISTERED</text><text fill="#eeeeee" stroke="none" font-family="Arial" font-size="24px" font-style="normal" font-weight="normal" text-decoration="none" x="0" y="210">UNREGISTERED</text><text fill="#eeeeee" stroke="none" font-family="Arial" font-size="24px" font-style="normal" font-weight="normal" text-decoration="none" x="0" y="240">UNREGISTERED</text><text fill="#eeeeee" stroke="none" font-family="Arial" font-size="24px" font-style="normal" font-weight="normal" text-decoration="none" x="0" y="270">UNREGISTERED</text><text fill="#eeeeee" stroke="none" font-family="Arial" font-size="24px" font-style="normal" font-weight="normal" text-decoration="none" x="0" y="300">UNREGISTERED</text><text fill="#eeeeee" stroke="none" font-family="Arial" font-size="24px" font-style="normal" font-weight="normal" text-decoration="none" x="0" y="330">UNREGISTERED</text><text fill="#eeeeee" stroke="none" font-family="Arial" font-size="24px" font-style="normal" font-weight="normal" text-decoration="none" x="0" y="360">UNREGISTERED</text><text fill="#eeeeee" stroke="none" font-family="Arial" font-size="24px" font-style="normal" font-weight="normal" text-decoration="none" x="0" y="390">UNREGISTERED</text><text fill="#eeeeee" stroke="none" font-family="Arial" font-size="24px" font-style="normal" font-weight="normal" text-decoration="none" x="0" y="420">UNREGISTERED</text><text fill="#eeeeee" stroke="none" font-family="Arial" font-size="24px" font-style="normal" font-weight="normal" text-decoration="none" x="0" y="450">UNREGISTERED</text><text fill="#eeeeee" stroke="none" font-family="Arial" font-size="24px" font-style="normal" font-weight="normal" text-decoration="none" x="0" y="480">UNREGISTERED</text><text fill="#eeeeee" stroke="none" font-family="Arial" font-size="24px" font-style="normal" font-weight="normal" text-decoration="none" x="0" y="510">UNREGISTERED</text><text fill="#eeeeee" stroke="none" font-family="Arial" font-size="24px" font-style="normal" font-weight="normal" text-decoration="none" x="0" y="540">UNREGISTERED</text><text fill="#eeeeee" stroke="none" font-family="Arial" font-size="24px" font-style="normal" font-weight="normal" text-decoration="none" x="0" y="570">UNREGISTERED</text><text fill="#eeeeee" stroke="none" font-family="Arial" font-size="24px" font-style="normal" font-weight="normal" text-decoration="none" x="0" y="600">UNREGISTERED</text><text fill="#eeeeee" stroke="none" font-family="Arial" font-size="24px" font-style="normal" font-weight="normal" text-decoration="none" x="0" y="630">UNREGISTERED</text><text fill="#eeeeee" stroke="none" font-family="Arial" font-size="24px" font-style="normal" font-weight="normal" text-decoration="none" x="0" y="660">UNREGISTERED</text><text fill="#eeeeee" stroke="none" font-family="Arial" font-size="24px" font-style="normal" font-weight="normal" text-decoration="none" x="0" y="690">UNREGISTERED</text><text fill="#eeeeee" stroke="none" font-family="Arial" font-size="24px" font-style="normal" font-weight="normal" text-decoration="none" x="200" y="0">UNREGISTERED</text><text fill="#eeeeee" stroke="none" font-family="Arial" font-size="24px" font-style="normal" font-weight="normal" text-decoration="none" x="200" y="30">UNREGISTERED</text><text fill="#eeeeee" stroke="none" font-family="Arial" font-size="24px" font-style="normal" font-weight="normal" text-decoration="none" x="200" y="60">UNREGISTERED</text><text fill="#eeeeee" stroke="none" font-family="Arial" font-size="24px" font-style="normal" font-weight="normal" text-decoration="none" x="200" y="90">UNREGISTERED</text><text fill="#eeeeee" stroke="none" font-family="Arial" font-size="24px" font-style="normal" font-weight="normal" text-decoration="none" x="200" y="120">UNREGISTERED</text><text fill="#eeeeee" stroke="none" font-family="Arial" font-size="24px" font-style="normal" font-weight="normal" text-decoration="none" x="200" y="150">UNREGISTERED</text><text fill="#eeeeee" stroke="none" font-family="Arial" font-size="24px" font-style="normal" font-weight="normal" text-decoration="none" x="200" y="180">UNREGISTERED</text><text fill="#eeeeee" stroke="none" font-family="Arial" font-size="24px" font-style="normal" font-weight="normal" text-decoration="none" x="200" y="210">UNREGISTERED</text><text fill="#eeeeee" stroke="none" font-family="Arial" font-size="24px" font-style="normal" font-weight="normal" text-decoration="none" x="200" y="240">UNREGISTERED</text><text fill="#eeeeee" stroke="none" font-family="Arial" font-size="24px" font-style="normal" font-weight="normal" text-decoration="none" x="200" y="270">UNREGISTERED</text><text fill="#eeeeee" stroke="none" font-family="Arial" font-size="24px" font-style="normal" font-weight="normal" text-decoration="none" x="200" y="300">UNREGISTERED</text><text fill="#eeeeee" stroke="none" font-family="Arial" font-size="24px" font-style="normal" font-weight="normal" text-decoration="none" x="200" y="330">UNREGISTERED</text><text fill="#eeeeee" stroke="none" font-family="Arial" font-size="24px" font-style="normal" font-weight="normal" text-decoration="none" x="200" y="360">UNREGISTERED</text><text fill="#eeeeee" stroke="none" font-family="Arial" font-size="24px" font-style="normal" font-weight="normal" text-decoration="none" x="200" y="390">UNREGISTERED</text><text fill="#eeeeee" stroke="none" font-family="Arial" font-size="24px" font-style="normal" font-weight="normal" text-decoration="none" x="200" y="420">UNREGISTERED</text><text fill="#eeeeee" stroke="none" font-family="Arial" font-size="24px" font-style="normal" font-weight="normal" text-decoration="none" x="200" y="450">UNREGISTERED</text><text fill="#eeeeee" stroke="none" font-family="Arial" font-size="24px" font-style="normal" font-weight="normal" text-decoration="none" x="200" y="480">UNREGISTERED</text><text fill="#eeeeee" stroke="none" font-family="Arial" font-size="24px" font-style="normal" font-weight="normal" text-decoration="none" x="200" y="510">UNREGISTERED</text><text fill="#eeeeee" stroke="none" font-family="Arial" font-size="24px" font-style="normal" font-weight="normal" text-decoration="none" x="200" y="540">UNREGISTERED</text><text fill="#eeeeee" stroke="none" font-family="Arial" font-size="24px" font-style="normal" font-weight="normal" text-decoration="none" x="200" y="570">UNREGISTERED</text><text fill="#eeeeee" stroke="none" font-family="Arial" font-size="24px" font-style="normal" font-weight="normal" text-decoration="none" x="200" y="600">UNREGISTERED</text><text fill="#eeeeee" stroke="none" font-family="Arial" font-size="24px" font-style="normal" font-weight="normal" text-decoration="none" x="200" y="630">UNREGISTERED</text><text fill="#eeeeee" stroke="none" font-family="Arial" font-size="24px" font-style="normal" font-weight="normal" text-decoration="none" x="200" y="660">UNREGISTERED</text><text fill="#eeeeee" stroke="none" font-family="Arial" font-size="24px" font-style="normal" font-weight="normal" text-decoration="none" x="200" y="690">UNREGISTERED</text><text fill="#eeeeee" stroke="none" font-family="Arial" font-size="24px" font-style="normal" font-weight="normal" text-decoration="none" x="400" y="0">UNREGISTERED</text><text fill="#eeeeee" stroke="none" font-family="Arial" font-size="24px" font-style="normal" font-weight="normal" text-decoration="none" x="400" y="30">UNREGISTERED</text><text fill="#eeeeee" stroke="none" font-family="Arial" font-size="24px" font-style="normal" font-weight="normal" text-decoration="none" x="400" y="60">UNREGISTERED</text><text fill="#eeeeee" stroke="none" font-family="Arial" font-size="24px" font-style="normal" font-weight="normal" text-decoration="none" x="400" y="90">UNREGISTERED</text><text fill="#eeeeee" stroke="none" font-family="Arial" font-size="24px" font-style="normal" font-weight="normal" text-decoration="none" x="400" y="120">UNREGISTERED</text><text fill="#eeeeee" stroke="none" font-family="Arial" font-size="24px" font-style="normal" font-weight="normal" text-decoration="none" x="400" y="150">UNREGISTERED</text><text fill="#eeeeee" stroke="none" font-family="Arial" font-size="24px" font-style="normal" font-weight="normal" text-decoration="none" x="400" y="180">UNREGISTERED</text><text fill="#eeeeee" stroke="none" font-family="Arial" font-size="24px" font-style="normal" font-weight="normal" text-decoration="none" x="400" y="210">UNREGISTERED</text><text fill="#eeeeee" stroke="none" font-family="Arial" font-size="24px" font-style="normal" font-weight="normal" text-decoration="none" x="400" y="240">UNREGISTERED</text><text fill="#eeeeee" stroke="none" font-family="Arial" font-size="24px" font-style="normal" font-weight="normal" text-decoration="none" x="400" y="270">UNREGISTERED</text><text fill="#eeeeee" stroke="none" font-family="Arial" font-size="24px" font-style="normal" font-weight="normal" text-decoration="none" x="400" y="300">UNREGISTERED</text><text fill="#eeeeee" stroke="none" font-family="Arial" font-size="24px" font-style="normal" font-weight="normal" text-decoration="none" x="400" y="330">UNREGISTERED</text><text fill="#eeeeee" stroke="none" font-family="Arial" font-size="24px" font-style="normal" font-weight="normal" text-decoration="none" x="400" y="360">UNREGISTERED</text><text fill="#eeeeee" stroke="none" font-family="Arial" font-size="24px" font-style="normal" font-weight="normal" text-decoration="none" x="400" y="390">UNREGISTERED</text><text fill="#eeeeee" stroke="none" font-family="Arial" font-size="24px" font-style="normal" font-weight="normal" text-decoration="none" x="400" y="420">UNREGISTERED</text><text fill="#eeeeee" stroke="none" font-family="Arial" font-size="24px" font-style="normal" font-weight="normal" text-decoration="none" x="400" y="450">UNREGISTERED</text><text fill="#eeeeee" stroke="none" font-family="Arial" font-size="24px" font-style="normal" font-weight="normal" text-decoration="none" x="400" y="480">UNREGISTERED</text><text fill="#eeeeee" stroke="none" font-family="Arial" font-size="24px" font-style="normal" font-weight="normal" text-decoration="none" x="400" y="510">UNREGISTERED</text><text fill="#eeeeee" stroke="none" font-family="Arial" font-size="24px" font-style="normal" font-weight="normal" text-decoration="none" x="400" y="540">UNREGISTERED</text><text fill="#eeeeee" stroke="none" font-family="Arial" font-size="24px" font-style="normal" font-weight="normal" text-decoration="none" x="400" y="570">UNREGISTERED</text><text fill="#eeeeee" stroke="none" font-family="Arial" font-size="24px" font-style="normal" font-weight="normal" text-decoration="none" x="400" y="600">UNREGISTERED</text><text fill="#eeeeee" stroke="none" font-family="Arial" font-size="24px" font-style="normal" font-weight="normal" text-decoration="none" x="400" y="630">UNREGISTERED</text><text fill="#eeeeee" stroke="none" font-family="Arial" font-size="24px" font-style="normal" font-weight="normal" text-decoration="none" x="400" y="660">UNREGISTERED</text><text fill="#eeeeee" stroke="none" font-family="Arial" font-size="24px" font-style="normal" font-weight="normal" text-decoration="none" x="400" y="690">UNREGISTERED</text><text fill="#eeeeee" stroke="none" font-family="Arial" font-size="24px" font-style="normal" font-weight="normal" text-decoration="none" x="600" y="0">UNREGISTERED</text><text fill="#eeeeee" stroke="none" font-family="Arial" font-size="24px" font-style="normal" font-weight="normal" text-decoration="none" x="600" y="30">UNREGISTERED</text><text fill="#eeeeee" stroke="none" font-family="Arial" font-size="24px" font-style="normal" font-weight="normal" text-decoration="none" x="600" y="60">UNREGISTERED</text><text fill="#eeeeee" stroke="none" font-family="Arial" font-size="24px" font-style="normal" font-weight="normal" text-decoration="none" x="600" y="90">UNREGISTERED</text><text fill="#eeeeee" stroke="none" font-family="Arial" font-size="24px" font-style="normal" font-weight="normal" text-decoration="none" x="600" y="120">UNREGISTERED</text><text fill="#eeeeee" stroke="none" font-family="Arial" font-size="24px" font-style="normal" font-weight="normal" text-decoration="none" x="600" y="150">UNREGISTERED</text><text fill="#eeeeee" stroke="none" font-family="Arial" font-size="24px" font-style="normal" font-weight="normal" text-decoration="none" x="600" y="180">UNREGISTERED</text><text fill="#eeeeee" stroke="none" font-family="Arial" font-size="24px" font-style="normal" font-weight="normal" text-decoration="none" x="600" y="210">UNREGISTERED</text><text fill="#eeeeee" stroke="none" font-family="Arial" font-size="24px" font-style="normal" font-weight="normal" text-decoration="none" x="600" y="240">UNREGISTERED</text><text fill="#eeeeee" stroke="none" font-family="Arial" font-size="24px" font-style="normal" font-weight="normal" text-decoration="none" x="600" y="270">UNREGISTERED</text><text fill="#eeeeee" stroke="none" font-family="Arial" font-size="24px" font-style="normal" font-weight="normal" text-decoration="none" x="600" y="300">UNREGISTERED</text><text fill="#eeeeee" stroke="none" font-family="Arial" font-size="24px" font-style="normal" font-weight="normal" text-decoration="none" x="600" y="330">UNREGISTERED</text><text fill="#eeeeee" stroke="none" font-family="Arial" font-size="24px" font-style="normal" font-weight="normal" text-decoration="none" x="600" y="360">UNREGISTERED</text><text fill="#eeeeee" stroke="none" font-family="Arial" font-size="24px" font-style="normal" font-weight="normal" text-decoration="none" x="600" y="390">UNREGISTERED</text><text fill="#eeeeee" stroke="none" font-family="Arial" font-size="24px" font-style="normal" font-weight="normal" text-decoration="none" x="600" y="420">UNREGISTERED</text><text fill="#eeeeee" stroke="none" font-family="Arial" font-size="24px" font-style="normal" font-weight="normal" text-decoration="none" x="600" y="450">UNREGISTERED</text><text fill="#eeeeee" stroke="none" font-family="Arial" font-size="24px" font-style="normal" font-weight="normal" text-decoration="none" x="600" y="480">UNREGISTERED</text><text fill="#eeeeee" stroke="none" font-family="Arial" font-size="24px" font-style="normal" font-weight="normal" text-decoration="none" x="600" y="510">UNREGISTERED</text><text fill="#eeeeee" stroke="none" font-family="Arial" font-size="24px" font-style="normal" font-weight="normal" text-decoration="none" x="600" y="540">UNREGISTERED</text><text fill="#eeeeee" stroke="none" font-family="Arial" font-size="24px" font-style="normal" font-weight="normal" text-decoration="none" x="600" y="570">UNREGISTERED</text><text fill="#eeeeee" stroke="none" font-family="Arial" font-size="24px" font-style="normal" font-weight="normal" text-decoration="none" x="600" y="600">UNREGISTERED</text><text fill="#eeeeee" stroke="none" font-family="Arial" font-size="24px" font-style="normal" font-weight="normal" text-decoration="none" x="600" y="630">UNREGISTERED</text><text fill="#eeeeee" stroke="none" font-family="Arial" font-size="24px" font-style="normal" font-weight="normal" text-decoration="none" x="600" y="660">UNREGISTERED</text><text fill="#eeeeee" stroke="none" font-family="Arial" font-size="24px" font-style="normal" font-weight="normal" text-decoration="none" x="600" y="690">UNREGISTERED</text><g transform="translate(-70,-6) scale(1,1)"><rect fill="#ffffff" stroke="none" x="80" y="16" width="720" height="21"/></g><g transform="translate(-70,-6) scale(1,1)"><path fill="none" stroke="#000000" d="M 80 16 L 800 16 L 800 37 L 80 37 L 80 16 Z Z" stroke-miterlimit="10" stroke-width="2"/></g><g transform="translate(-70,-6) scale(1,1)"><path fill="none" stroke="#000000" d="M 80 696 L 80 16 L 800 16 L 800 696" stroke-miterlimit="10" stroke-width="2"/></g><g transform="translate(-70,-6) scale(1,1)"><g><path fill="none" stroke="none"/><text fill="#000000" stroke="none" font-family="Arial" font-size="13px" font-style="normal" font-weight="normal" text-decoration="none" x="396.2900390625" y="33">Access Control</text></g></g><g transform="translate(-70,-6) scale(1,1)"><path fill="#C0C0C0" stroke="none" d="M 256 88.5 C 256 83.2532944 260.2532944 79 265.5 79 C 270.7467056 79 275 83.2532944 275 88.5 C 275 93.7467056 270.7467056 98 265.5 98 C 260.2532944 98 256 93.7467056 256 88.5 Z" opacity="0.2"/></g><g transform="translate(-70,-6) scale(1,1)"><path fill="#000000" stroke="none" d="M 249 81.5 C 249 76.2532944 253.2532944 72 258.5 72 C 263.7467056 72 268 76.2532944 268 81.5 C 268 86.7467056 263.7467056 91 258.5 91 C 253.2532944 91 249 86.7467056 249 81.5 Z"/></g><g transform="translate(-70,-6) scale(1,1)"><path fill="#C0C0C0" stroke="none" d="M 254 160.5 L 265.5 151 L 276 160.5 L 265.5 169 L 254 160.5" opacity="0.2"/></g><g transform="translate(-70,-6) scale(1,1)"><path fill="#ffffff" stroke="none" d="M 247 153 L 258 144 L 269 153 L 258 162 L 247 153"/></g><g transform="translate(-70,-6) scale(1,1)"><path fill="none" stroke="#000000" d="M 247 153 L 258 144 L 269 153 L 258 162 L 247 153 L 247 153" stroke-miterlimit="10"/></g><g transform="translate(-70,-6) scale(1,1)"><path fill="none" stroke="#000000" d="M 258 92 L 258 143" stroke-miterlimit="10"/></g><g transform="translate(-70,-6) scale(1,1)"><path fill="none" stroke="#000000" d="M 253.790482243984 132.83732514237585 L 258 143 L 262.209517756016 132.83732514237585" stroke-miterlimit="10"/></g><g transform="translate(-70,-6) scale(1,1)"><path fill="#C0C0C0" stroke="none" d="M 136 207 L 192.20263671875 207 Q 202.20263671875 207 202.20263671875 217 L 202.20263671875 237 Q 202.20263671875 247 192.20263671875 247 L 136 247 Q 126 247 126 237 L 126 217 Q 126 207 136 207 Z" opacity="0.2"/></g><g transform="translate(-70,-6) scale(1,1)"><path fill="#ffffff" stroke="none" d="M 129 200 L 185.20263671875 200 Q 195.20263671875 200 195.20263671875 210 L 195.20263671875 230 Q 195.20263671875 240 185.20263671875 240 L 129 240 Q 119 240 119 230 L 119 210 Q 119 200 129 200 Z"/></g><g transform="translate(-70,-6) scale(1,1)"><path fill="none" stroke="#000000" d="M 129 200 L 185.20263671875 200 Q 195.20263671875 200 195.20263671875 210 L 195.20263671875 230 Q 195.20263671875 240 185.20263671875 240 L 129 240 Q 119 240 119 230 L 119 210 Q 119 200 129 200 Z" stroke-miterlimit="10"/></g><g transform="translate(-70,-6) scale(1,1)"><g><path fill="none" stroke="none"/><text fill="#000000" stroke="none" font-family="Arial" font-size="13px" font-style="normal" font-weight="bold" text-decoration="none" x="125.305908203125" y="219.5">new create</text></g></g><g transform="translate(-70,-6) scale(1,1)"><path fill="#C0C0C0" stroke="none" d="M 313 199 L 373 199 Q 383 199 383 209 L 383 229 Q 383 239 373 239 L 313 239 Q 303 239 303 229 L 303 209 Q 303 199 313 199 Z" opacity="0.2"/></g><g transform="translate(-70,-6) scale(1,1)"><path fill="#ffffff" stroke="none" d="M 306 192 L 366 192 Q 376 192 376 202 L 376 222 Q 376 232 366 232 L 306 232 Q 296 232 296 222 L 296 202 Q 296 192 306 192 Z"/></g><g transform="translate(-70,-6) scale(1,1)"><path fill="none" stroke="#000000" d="M 306 192 L 366 192 Q 376 192 376 202 L 376 222 Q 376 232 366 232 L 306 232 Q 296 232 296 222 L 296 202 Q 296 192 306 192 Z" stroke-miterlimit="10"/></g><g transform="translate(-70,-6) scale(1,1)"><g><path fill="none" stroke="none"/><text fill="#000000" stroke="none" font-family="Arial" font-size="13px" font-style="normal" font-weight="bold" text-decoration="none" x="317.9345703125" y="211.5">get All</text></g></g><g transform="translate(-70,-6) scale(1,1)"><path fill="none" stroke="#000000" d="M 247 152 L 176 152 M 176 152 A 8 8 0 0 0 168 160 L 168 200" stroke-miterlimit="10"/></g><g transform="translate(-70,-6) scale(1,1)"><path fill="none" stroke="#000000" d="M 163.790482243984 189.83732514237585 L 168 200 L 172.209517756016 189.83732514237585" stroke-miterlimit="10"/></g><g transform="translate(-70,-6) scale(1,1)"><path fill="none" stroke="#000000" d="M 269 152 L 328 152 M 328 152 A 8 8 0 0 1 336 160 L 336 192" stroke-miterlimit="10"/></g><g transform="translate(-70,-6) scale(1,1)"><path fill="none" stroke="#000000" d="M 331.790482243984 181.83732514237585 L 336 192 L 340.209517756016 181.83732514237585" stroke-miterlimit="10"/></g><g transform="translate(-70,-6) scale(1,1)"><path fill="none" stroke="#000000" d="M 168 280 L 256 280 M 256 280 A 8 8 0 0 1 264 288 L 264 330" stroke-miterlimit="10"/></g><g transform="translate(-70,-6) scale(1,1)"><path fill="none" stroke="#000000" d="M 259.790482243984 319.83732514237585 L 264 330 L 268.209517756016 319.83732514237585" stroke-miterlimit="10"/></g><g transform="translate(-70,-6) scale(1,1)"><path fill="#C0C0C0" stroke="none" d="M 153 288.5 L 164.5 279 L 175 288.5 L 164.5 297 L 153 288.5" opacity="0.2"/></g><g transform="translate(-70,-6) scale(1,1)"><path fill="#ffffff" stroke="none" d="M 146 281 L 157 272 L 168 281 L 157 290 L 146 281"/></g><g transform="translate(-70,-6) scale(1,1)"><path fill="none" stroke="#000000" d="M 146 281 L 157 272 L 168 281 L 157 290 L 146 281 L 146 281" stroke-miterlimit="10"/></g><g transform="translate(-70,-6) scale(1,1)"><path fill="#C0C0C0" stroke="none" d="M 241 337 L 305.91162109375 337 Q 315.91162109375 337 315.91162109375 347 L 315.91162109375 367 Q 315.91162109375 377 305.91162109375 377 L 241 377 Q 231 377 231 367 L 231 347 Q 231 337 241 337 Z" opacity="0.2"/></g><g transform="translate(-70,-6) scale(1,1)"><path fill="#ffffff" stroke="none" d="M 234 330 L 298.91162109375 330 Q 308.91162109375 330 308.91162109375 340 L 308.91162109375 360 Q 308.91162109375 370 298.91162109375 370 L 234 370 Q 224 370 224 360 L 224 340 Q 224 330 234 330 Z"/></g><g transform="translate(-70,-6) scale(1,1)"><path fill="none" stroke="#000000" d="M 234 330 L 298.91162109375 330 Q 308.91162109375 330 308.91162109375 340 L 308.91162109375 360 Q 308.91162109375 370 298.91162109375 370 L 234 370 Q 224 370 224 360 L 224 340 Q 224 330 234 330 Z" stroke-miterlimit="10"/></g><g transform="translate(-70,-6) scale(1,1)"><g><path fill="none" stroke="none"/><text fill="#000000" stroke="none" font-family="Arial" font-size="13px" font-style="normal" font-weight="bold" text-decoration="none" x="255.61083984375" y="349.5">201</text></g></g><g transform="translate(-70,-6) scale(1,1)"><path fill="#C0C0C0" stroke="none" d="M 138 337 L 190 337 Q 200 337 200 347 L 200 367 Q 200 377 190 377 L 138 377 Q 128 377 128 367 L 128 347 Q 128 337 138 337 Z" opacity="0.2"/></g><g transform="translate(-70,-6) scale(1,1)"><path fill="#ffffff" stroke="none" d="M 131 330 L 183 330 Q 193 330 193 340 L 193 360 Q 193 370 183 370 L 131 370 Q 121 370 121 360 L 121 340 Q 121 330 131 330 Z"/></g><g transform="translate(-70,-6) scale(1,1)"><path fill="none" stroke="#000000" d="M 131 330 L 183 330 Q 193 330 193 340 L 193 360 Q 193 370 183 370 L 131 370 Q 121 370 121 360 L 121 340 Q 121 330 131 330 Z" stroke-miterlimit="10"/></g><g transform="translate(-70,-6) scale(1,1)"><g><path fill="none" stroke="none"/><text fill="#000000" stroke="none" font-family="Arial" font-size="13px" font-style="normal" font-weight="bold" text-decoration="none" x="146.155029296875" y="349.5">403</text></g></g><g transform="translate(-70,-6) scale(1,1)"><path fill="none" stroke="#000000" d="M 309 350 L 330 350 M 330 350 A 8 8 0 0 0 338 342 L 338 232" stroke-miterlimit="10"/></g><g transform="translate(-70,-6) scale(1,1)"><path fill="none" stroke="#000000" d="M 342.209517756016 242.16267485762415 L 338 232 L 333.790482243984 242.16267485762415" stroke-miterlimit="10"/></g><g transform="translate(-70,-6) scale(1,1)"><path fill="none" stroke="#000000" d="M 376 208 L 576 208 M 576 208 A 8 8 0 0 1 584 216 L 584 256" stroke-miterlimit="10"/></g><g transform="translate(-70,-6) scale(1,1)"><path fill="none" stroke="#000000" d="M 579.790482243984 245.83732514237585 L 584 256 L 588.209517756016 245.83732514237585" stroke-miterlimit="10"/></g><g transform="translate(-70,-6) scale(1,1)"><path fill="none" stroke="#000000" d="M 578 262 L 460 324" stroke-miterlimit="10"/></g><g transform="translate(-70,-6) scale(1,1)"><path fill="none" stroke="#000000" d="M 467.03847733993405 315.54660797459184 L 460 324 L 470.95440588148966 322.99950423110084" stroke-miterlimit="10"/></g><g transform="translate(-70,-6) scale(1,1)"><path fill="none" stroke="#000000" d="M 590 262 L 642 319" stroke-miterlimit="10"/></g><g transform="translate(-70,-6) scale(1,1)"><path fill="none" stroke="#000000" d="M 632.0408947555442 314.3292160476156 L 642 319 L 638.260592153283 308.65510614090647" stroke-miterlimit="10"/></g><g transform="translate(-70,-6) scale(1,1)"><path fill="#C0C0C0" stroke="none" d="M 562 263 L 625 263 Q 628 263 628 266 L 628 265 Q 628 268 625 268 L 562 268 Q 559 268 559 265 L 559 266 Q 559 263 562 263 Z" opacity="0.2"/></g><g transform="translate(-70,-6) scale(1,1)"><path fill="#000000" stroke="none" d="M 555 256 L 618 256 Q 621 256 621 259 L 621 259 Q 621 262 618 262 L 555 262 Q 552 262 552 259 L 552 259 Q 552 256 555 256 Z"/></g><g transform="translate(-70,-6) scale(1,1)"><path fill="#C0C0C0" stroke="none" d="M 649 327 L 688 327 Q 698 327 698 337 L 698 357 Q 698 367 688 367 L 649 367 Q 639 367 639 357 L 639 337 Q 639 327 649 327 Z" opacity="0.2"/></g><g transform="translate(-70,-6) scale(1,1)"><path fill="#ffffff" stroke="none" d="M 642 320 L 681 320 Q 691 320 691 330 L 691 350 Q 691 360 681 360 L 642 360 Q 632 360 632 350 L 632 330 Q 632 320 642 320 Z"/></g><g transform="translate(-70,-6) scale(1,1)"><path fill="none" stroke="#000000" d="M 642 320 L 681 320 Q 691 320 691 330 L 691 350 Q 691 360 681 360 L 642 360 Q 632 360 632 350 L 632 330 Q 632 320 642 320 Z" stroke-miterlimit="10"/></g><g transform="translate(-70,-6) scale(1,1)"><g><path fill="none" stroke="none"/><text fill="#000000" stroke="none" font-family="Arial" font-size="13px" font-style="normal" font-weight="bold" text-decoration="none" x="640.90185546875" y="339.5">disable</text></g></g><g transform="translate(-70,-6) scale(1,1)"><path fill="#C0C0C0" stroke="none" d="M 417 327 L 456 327 Q 466 327 466 337 L 466 357 Q 466 367 456 367 L 417 367 Q 407 367 407 357 L 407 337 Q 407 327 417 327 Z" opacity="0.2"/></g><g transform="translate(-70,-6) scale(1,1)"><path fill="#ffffff" stroke="none" d="M 410 320 L 449 320 Q 459 320 459 330 L 459 350 Q 459 360 449 360 L 410 360 Q 400 360 400 350 L 400 330 Q 400 320 410 320 Z"/></g><g transform="translate(-70,-6) scale(1,1)"><path fill="none" stroke="#000000" d="M 410 320 L 449 320 Q 459 320 459 330 L 459 350 Q 459 360 449 360 L 410 360 Q 400 360 400 350 L 400 330 Q 400 320 410 320 Z" stroke-miterlimit="10"/></g><g transform="translate(-70,-6) scale(1,1)"><g><path fill="none" stroke="none"/><text fill="#000000" stroke="none" font-family="Arial" font-size="13px" font-style="normal" font-weight="bold" text-decoration="none" x="419.02001953125" y="339.5">edit</text></g></g><g transform="translate(-70,-6) scale(1,1)"><path fill="#C0C0C0" stroke="none" d="M 425 416.5 L 436.5 407 L 447 416.5 L 436.5 425 L 425 416.5" opacity="0.2"/></g><g transform="translate(-70,-6) scale(1,1)"><path fill="#ffffff" stroke="none" d="M 418 409 L 429 400 L 440 409 L 429 418 L 418 409"/></g><g transform="translate(-70,-6) scale(1,1)"><path fill="none" stroke="#000000" d="M 418 409 L 429 400 L 440 409 L 429 418 L 418 409 L 418 409" stroke-miterlimit="10"/></g><g transform="translate(-70,-6) scale(1,1)"><path fill="none" stroke="#000000" d="M 429 361 L 429 399" stroke-miterlimit="10"/></g><g transform="translate(-70,-6) scale(1,1)"><path fill="none" stroke="#000000" d="M 424.790482243984 388.83732514237585 L 429 399 L 433.209517756016 388.83732514237585" stroke-miterlimit="10"/></g><g transform="translate(-70,-6) scale(1,1)"><path fill="none" stroke="#000000" d="M 429 419 L 429 447" stroke-miterlimit="10"/></g><g transform="translate(-70,-6) scale(1,1)"><path fill="none" stroke="#000000" d="M 424.790482243984 436.83732514237585 L 429 447 L 433.209517756016 436.83732514237585" stroke-miterlimit="10"/></g><g transform="translate(-70,-6) scale(1,1)"><path fill="#C0C0C0" stroke="none" d="M 537 455 L 576 455 Q 586 455 586 465 L 586 485 Q 586 495 576 495 L 537 495 Q 527 495 527 485 L 527 465 Q 527 455 537 455 Z" opacity="0.2"/></g><g transform="translate(-70,-6) scale(1,1)"><path fill="#ffffff" stroke="none" d="M 530 448 L 569 448 Q 579 448 579 458 L 579 478 Q 579 488 569 488 L 530 488 Q 520 488 520 478 L 520 458 Q 520 448 530 448 Z"/></g><g transform="translate(-70,-6) scale(1,1)"><path fill="none" stroke="#000000" d="M 530 448 L 569 448 Q 579 448 579 458 L 579 478 Q 579 488 569 488 L 530 488 Q 520 488 520 478 L 520 458 Q 520 448 530 448 Z" stroke-miterlimit="10"/></g><g transform="translate(-70,-6) scale(1,1)"><g><path fill="none" stroke="none"/><text fill="#000000" stroke="none" font-family="Arial" font-size="13px" font-style="normal" font-weight="bold" text-decoration="none" x="531.799560546875" y="467.5">match</text></g></g><g transform="translate(-70,-6) scale(1,1)"><path fill="none" stroke="#000000" d="M 440 408 L 544 408 M 544 408 A 8 8 0 0 1 552 416 L 552 448" stroke-miterlimit="10"/></g><g transform="translate(-70,-6) scale(1,1)"><path fill="none" stroke="#000000" d="M 547.790482243984 437.83732514237585 L 552 448 L 556.209517756016 437.83732514237585" stroke-miterlimit="10"/></g><g transform="translate(-70,-6) scale(1,1)"><path fill="#C0C0C0" stroke="none" d="M 414 455 L 458 455 Q 468 455 468 465 L 468 485 Q 468 495 458 495 L 414 495 Q 404 495 404 485 L 404 465 Q 404 455 414 455 Z" opacity="0.2"/></g><g transform="translate(-70,-6) scale(1,1)"><path fill="#ffffff" stroke="none" d="M 407 448 L 451 448 Q 461 448 461 458 L 461 478 Q 461 488 451 488 L 407 488 Q 397 488 397 478 L 397 458 Q 397 448 407 448 Z"/></g><g transform="translate(-70,-6) scale(1,1)"><path fill="none" stroke="#000000" d="M 407 448 L 451 448 Q 461 448 461 458 L 461 478 Q 461 488 451 488 L 407 488 Q 397 488 397 478 L 397 458 Q 397 448 407 448 Z" stroke-miterlimit="10"/></g><g transform="translate(-70,-6) scale(1,1)"><g><path fill="none" stroke="none"/><text fill="#000000" stroke="none" font-family="Arial" font-size="13px" font-style="normal" font-weight="bold" text-decoration="none" x="418.155029296875" y="467.5">404</text></g></g><g transform="translate(-70,-6) scale(1,1)"><path fill="#C0C0C0" stroke="none" d="M 545 546.5 L 556.5 537 L 567 546.5 L 556.5 555 L 545 546.5" opacity="0.2"/></g><g transform="translate(-70,-6) scale(1,1)"><path fill="#ffffff" stroke="none" d="M 538 539 L 549 530 L 560 539 L 549 548 L 538 539"/></g><g transform="translate(-70,-6) scale(1,1)"><path fill="none" stroke="#000000" d="M 538 539 L 549 530 L 560 539 L 549 548 L 538 539 L 538 539" stroke-miterlimit="10"/></g><g transform="translate(-70,-6) scale(1,1)"><path fill="none" stroke="#000000" d="M 549 489 L 549 529" stroke-miterlimit="10"/></g><g transform="translate(-70,-6) scale(1,1)"><path fill="none" stroke="#000000" d="M 544.790482243984 518.8373251423759 L 549 529 L 553.209517756016 518.8373251423759" stroke-miterlimit="10"/></g><g transform="translate(-70,-6) scale(1,1)"><path fill="none" stroke="#000000" d="M 537 539 L 485 539" stroke-miterlimit="10"/></g><g transform="translate(-70,-6) scale(1,1)"><path fill="none" stroke="#000000" d="M 495.16267485762415 534.790482243984 L 485 539 L 495.16267485762415 543.209517756016" stroke-miterlimit="10"/></g><g transform="translate(-70,-6) scale(1,1)"><path fill="#C0C0C0" stroke="none" d="M 537 591 L 576 591 Q 586 591 586 601 L 586 621 Q 586 631 576 631 L 537 631 Q 527 631 527 621 L 527 601 Q 527 591 537 591 Z" opacity="0.2"/></g><g transform="translate(-70,-6) scale(1,1)"><path fill="#ffffff" stroke="none" d="M 530 584 L 569 584 Q 579 584 579 594 L 579 614 Q 579 624 569 624 L 530 624 Q 520 624 520 614 L 520 594 Q 520 584 530 584 Z"/></g><g transform="translate(-70,-6) scale(1,1)"><path fill="none" stroke="#000000" d="M 530 584 L 569 584 Q 579 584 579 594 L 579 614 Q 579 624 569 624 L 530 624 Q 520 624 520 614 L 520 594 Q 520 584 530 584 Z" stroke-miterlimit="10"/></g><g transform="translate(-70,-6) scale(1,1)"><g><path fill="none" stroke="none"/><text fill="#000000" stroke="none" font-family="Arial" font-size="13px" font-style="normal" font-weight="bold" text-decoration="none" x="538.655029296875" y="603.5">200</text></g></g><g transform="translate(-70,-6) scale(1,1)"><path fill="none" stroke="#000000" d="M 549 549 L 549 583" stroke-miterlimit="10"/></g><g transform="translate(-70,-6) scale(1,1)"><path fill="none" stroke="#000000" d="M 544.790482243984 572.8373251423759 L 549 583 L 553.209517756016 572.8373251423759" stroke-miterlimit="10"/></g><g transform="translate(-70,-6) scale(1,1)"><path fill="none" stroke="#000000" d="M 392 540 L 384 540 M 384 540 A 8 8 0 0 1 376 532 L 376 344 M 376 344 A 8 8 0 0 1 384 336 L 400 336" stroke-miterlimit="10"/></g><g transform="translate(-70,-6) scale(1,1)"><path fill="none" stroke="#000000" d="M 389.83732514237585 340.209517756016 L 400 336 L 389.83732514237585 331.790482243984" stroke-miterlimit="10"/></g><g transform="translate(-70,-6) scale(1,1)"><path fill="none" stroke="#000000" d="M 661 361 L 661 394" stroke-miterlimit="10"/></g><g transform="translate(-70,-6) scale(1,1)"><path fill="none" stroke="#000000" d="M 656.790482243984 383.83732514237585 L 661 394 L 665.209517756016 383.83732514237585" stroke-miterlimit="10"/></g><g transform="translate(-70,-6) scale(1,1)"><path fill="#C0C0C0" stroke="none" d="M 636 455 L 700.080078125 455 Q 710.080078125 455 710.080078125 465 L 710.080078125 485 Q 710.080078125 495 700.080078125 495 L 636 495 Q 626 495 626 485 L 626 465 Q 626 455 636 455 Z" opacity="0.2"/></g><g transform="translate(-70,-6) scale(1,1)"><path fill="#ffffff" stroke="none" d="M 629 448 L 693.080078125 448 Q 703.080078125 448 703.080078125 458 L 703.080078125 478 Q 703.080078125 488 693.080078125 488 L 629 488 Q 619 488 619 478 L 619 458 Q 619 448 629 448 Z"/></g><g transform="translate(-70,-6) scale(1,1)"><path fill="none" stroke="#000000" d="M 629 448 L 693.080078125 448 Q 703.080078125 448 703.080078125 458 L 703.080078125 478 Q 703.080078125 488 693.080078125 488 L 629 488 Q 619 488 619 478 L 619 458 Q 619 448 629 448 Z" stroke-miterlimit="10"/></g><g transform="translate(-70,-6) scale(1,1)"><g><path fill="none" stroke="none"/><text fill="#000000" stroke="none" font-family="Arial" font-size="13px" font-style="normal" font-weight="bold" text-decoration="none" x="650.195068359375" y="467.5">404</text></g></g><g transform="translate(-70,-6) scale(1,1)"><path fill="none" stroke="#000000" d="M 661 414 L 661 447" stroke-miterlimit="10"/></g><g transform="translate(-70,-6) scale(1,1)"><path fill="none" stroke="#000000" d="M 656.790482243984 436.83732514237585 L 661 447 L 665.209517756016 436.83732514237585" stroke-miterlimit="10"/></g><g transform="translate(-70,-6) scale(1,1)"><path fill="none" stroke="#000000" d="M 673 404 L 735 404" stroke-miterlimit="10"/></g><g transform="translate(-70,-6) scale(1,1)"><path fill="none" stroke="#000000" d="M 724.8373251423759 408.209517756016 L 735 404 L 724.8373251423758 399.790482243984" stroke-miterlimit="10"/></g><g transform="translate(-70,-6) scale(1,1)"><path fill="#C0C0C0" stroke="none" d="M 753 391 L 792 391 Q 802 391 802 401 L 802 421 Q 802 431 792 431 L 753 431 Q 743 431 743 421 L 743 401 Q 743 391 753 391 Z" opacity="0.2"/></g><g transform="translate(-70,-6) scale(1,1)"><path fill="#ffffff" stroke="none" d="M 746 384 L 785 384 Q 795 384 795 394 L 795 414 Q 795 424 785 424 L 746 424 Q 736 424 736 414 L 736 394 Q 736 384 746 384 Z"/></g><g transform="translate(-70,-6) scale(1,1)"><path fill="none" stroke="#000000" d="M 746 384 L 785 384 Q 795 384 795 394 L 795 414 Q 795 424 785 424 L 746 424 Q 736 424 736 414 L 736 394 Q 736 384 746 384 Z" stroke-miterlimit="10"/></g><g transform="translate(-70,-6) scale(1,1)"><g><path fill="none" stroke="none"/><text fill="#000000" stroke="none" font-family="Arial" font-size="13px" font-style="normal" font-weight="bold" text-decoration="none" x="754.655029296875" y="403.5">200</text></g></g><g transform="translate(-70,-6) scale(1,1)"><path fill="#C0C0C0" stroke="none" d="M 657 411.5 L 668.5 402 L 679 411.5 L 668.5 420 L 657 411.5" opacity="0.2"/></g><g transform="translate(-70,-6) scale(1,1)"><path fill="#ffffff" stroke="none" d="M 650 404 L 661 395 L 672 404 L 661 413 L 650 404"/></g><g transform="translate(-70,-6) scale(1,1)"><path fill="none" stroke="#000000" d="M 650 404 L 661 395 L 672 404 L 661 413 L 650 404 L 650 404" stroke-miterlimit="10"/></g><g transform="translate(-70,-6) scale(1,1)"><path fill="#C0C0C0" stroke="none" d="M 385 263 L 437 263 Q 447 263 447 273 L 447 293 Q 447 303 437 303 L 385 303 Q 375 303 375 293 L 375 273 Q 375 263 385 263 Z" opacity="0.2"/></g><g transform="translate(-70,-6) scale(1,1)"><path fill="#ffffff" stroke="none" d="M 378 256 L 430 256 Q 440 256 440 266 L 440 286 Q 440 296 430 296 L 378 296 Q 368 296 368 286 L 368 266 Q 368 256 378 256 Z"/></g><g transform="translate(-70,-6) scale(1,1)"><path fill="none" stroke="#000000" d="M 378 256 L 430 256 Q 440 256 440 266 L 440 286 Q 440 296 430 296 L 378 296 Q 368 296 368 286 L 368 266 Q 368 256 378 256 Z" stroke-miterlimit="10"/></g><g transform="translate(-70,-6) scale(1,1)"><g><path fill="none" stroke="none"/><text fill="#000000" stroke="none" font-family="Arial" font-size="13px" font-style="normal" font-weight="bold" text-decoration="none" x="393.161376953125" y="275.5">role</text></g></g><g transform="translate(-70,-6) scale(1,1)"><path fill="none" stroke="#000000" d="M 368 272 L 360 272 M 360 272 A 8 8 0 0 0 352 280 L 352 384 M 352 384 A 8 8 0 0 1 344 392 L 274 392 M 274 392 A 8 8 0 0 1 266 384 L 266 370" stroke-miterlimit="10"/></g><g transform="translate(-70,-6) scale(1,1)"><path fill="none" stroke="#000000" d="M 270.209517756016 380.16267485762415 L 266 370 L 261.790482243984 380.16267485762415" stroke-miterlimit="10"/></g><g transform="translate(-70,-6) scale(1,1)"><path fill="none" stroke="#000000" d="M 429 296 L 429 320" stroke-miterlimit="10"/></g><g transform="translate(-70,-6) scale(1,1)"><path fill="none" stroke="#000000" d="M 424.790482243984 309.83732514237585 L 429 320 L 433.209517756016 309.83732514237585" stroke-miterlimit="10"/></g><g transform="translate(-70,-6) scale(1,1)"><path fill="none" stroke="#000000" d="M 549 625 L 549 655" stroke-miterlimit="10"/></g><g transform="translate(-70,-6) scale(1,1)"><path fill="none" stroke="#000000" d="M 544.790482243984 644.8373251423759 L 549 655 L 553.209517756016 644.8373251423759" stroke-miterlimit="10"/></g><g transform="translate(-70,-6) scale(1,1)"><path fill="#C0C0C0" stroke="none" d="M 544 675.5 C 544 668.59644 549.59644 663 556.5 663 C 563.40356 663 569 668.59644 569 675.5 C 569 682.40356 563.40356 688 556.5 688 C 549.59644 688 544 682.40356 544 675.5 Z" opacity="0.2"/></g><g transform="translate(-70,-6) scale(1,1)"><path fill="none" stroke="#000000" d="M 537 668.5 C 537 661.59644 542.59644 656 549.5 656 C 556.40356 656 562 661.59644 562 668.5 C 562 675.40356 556.40356 681 549.5 681 C 542.59644 681 537 675.40356 537 668.5 Z" stroke-miterlimit="10"/></g><g transform="translate(-70,-6) scale(1,1)"><path fill="#000000" stroke="none" d="M 542 668.5 C 542 664.357864 545.357864 661 549.5 661 C 553.642136 661 557 664.357864 557 668.5 C 557 672.642136 553.642136 676 549.5 676 C 545.357864 676 542 672.642136 542 668.5 Z"/></g><g transform="translate(-70,-6) scale(1,1)"><path fill="none" stroke="#000000" d="M 765 425 L 765 447" stroke-miterlimit="10"/></g><g transform="translate(-70,-6) scale(1,1)"><path fill="none" stroke="#000000" d="M 760.790482243984 436.83732514237585 L 765 447 L 769.209517756016 436.83732514237585" stroke-miterlimit="10"/></g><g transform="translate(-70,-6) scale(1,1)"><path fill="#C0C0C0" stroke="none" d="M 760 467.5 C 760 460.59644 765.59644 455 772.5 455 C 779.40356 455 785 460.59644 785 467.5 C 785 474.40356 779.40356 480 772.5 480 C 765.59644 480 760 474.40356 760 467.5 Z" opacity="0.2"/></g><g transform="translate(-70,-6) scale(1,1)"><path fill="none" stroke="#000000" d="M 753 460.5 C 753 453.59644 758.59644 448 765.5 448 C 772.40356 448 778 453.59644 778 460.5 C 778 467.40356 772.40356 473 765.5 473 C 758.59644 473 753 467.40356 753 460.5 Z" stroke-miterlimit="10"/></g><g transform="translate(-70,-6) scale(1,1)"><path fill="#000000" stroke="none" d="M 758 460.5 C 758 456.357864 761.357864 453 765.5 453 C 769.642136 453 773 456.357864 773 460.5 C 773 464.642136 769.642136 468 765.5 468 C 761.357864 468 758 464.642136 758 460.5 Z"/></g><g transform="translate(-70,-6) scale(1,1)"><path fill="none" stroke="#000000" d="M 157 241 L 157 271" stroke-miterlimit="10"/></g><g transform="translate(-70,-6) scale(1,1)"><path fill="none" stroke="#000000" d="M 152.790482243984 260.83732514237585 L 157 271 L 161.209517756016 260.83732514237585" stroke-miterlimit="10"/></g><g transform="translate(-70,-6) scale(1,1)"><path fill="none" stroke="#000000" d="M 157 291 L 157 329" stroke-miterlimit="10"/></g><g transform="translate(-70,-6) scale(1,1)"><path fill="none" stroke="#000000" d="M 152.790482243984 318.83732514237585 L 157 329 L 161.209517756016 318.83732514237585" stroke-miterlimit="10"/></g><g transform="translate(-70,-6) scale(1,1)"><path fill="#C0C0C0" stroke="none" d="M 409 526 L 481.103515625 526 Q 491.103515625 526 491.103515625 536 L 491.103515625 556 Q 491.103515625 566 481.103515625 566 L 409 566 Q 399 566 399 556 L 399 536 Q 399 526 409 526 Z" opacity="0.2"/></g><g transform="translate(-70,-6) scale(1,1)"><path fill="#ffffff" stroke="none" d="M 402 519 L 474.103515625 519 Q 484.103515625 519 484.103515625 529 L 484.103515625 549 Q 484.103515625 559 474.103515625 559 L 402 559 Q 392 559 392 549 L 392 529 Q 392 519 402 519 Z"/></g><g transform="translate(-70,-6) scale(1,1)"><path fill="none" stroke="#000000" d="M 402 519 L 474.103515625 519 Q 484.103515625 519 484.103515625 529 L 484.103515625 549 Q 484.103515625 559 474.103515625 559 L 402 559 Q 392 559 392 549 L 392 529 Q 392 519 402 519 Z" stroke-miterlimit="10"/></g><g transform="translate(-70,-6) scale(1,1)"><g><path fill="none" stroke="none"/><text fill="#000000" stroke="none" font-family="Arial" font-size="13px" font-style="normal" font-weight="bold" text-decoration="none" x="398.667724609375" y="538.5">already name</text></g></g></g></svg>