<svg version="1.1" xmlns="http://www.w3.org/2000/svg" xmlns:xlink="http://www.w3.org/1999/xlink" width="549.57080078125" height="557"><defs/><g><text fill="#eeeeee" stroke="none" font-family="Arial" font-size="24px" font-style="normal" font-weight="normal" text-decoration="none" x="0" y="0">UNREGISTERED</text><text fill="#eeeeee" stroke="none" font-family="Arial" font-size="24px" font-style="normal" font-weight="normal" text-decoration="none" x="0" y="30">UNREGISTERED</text><text fill="#eeeeee" stroke="none" font-family="Arial" font-size="24px" font-style="normal" font-weight="normal" text-decoration="none" x="0" y="60">UNREGISTERED</text><text fill="#eeeeee" stroke="none" font-family="Arial" font-size="24px" font-style="normal" font-weight="normal" text-decoration="none" x="0" y="90">UNREGISTERED</text><text fill="#eeeeee" stroke="none" font-family="Arial" font-size="24px" font-style="normal" font-weight="normal" text-decoration="none" x="0" y="120">UNREGISTERED</text><text fill="#eeeeee" stroke="none" font-family="Arial" font-size="24px" font-style="normal" font-weight="normal" text-decoration="none" x="0" y="150">UNREGISTERED</text><text fill="#eeeeee" stroke="none" font-family="Arial" font-size="24px" font-style="normal" font-weight="normal" text-decoration="none" x="0" y="180">UNREGISTERED</text><text fill="#eeeeee" stroke="none" font-family="Arial" font-size="24px" font-style="normal" font-weight="normal" text-decoration="none" x="0" y="210">UNREGISTERED</text><text fill="#eeeeee" stroke="none" font-family="Arial" font-size="24px" font-style="normal" font-weight="normal" text-decoration="none" x="0" y="240">UNREGISTERED</text><text fill="#eeeeee" stroke="none" font-family="Arial" font-size="24px" font-style="normal" font-weight="normal" text-decoration="none" x="0" y="270">UNREGISTERED</text><text fill="#eeeeee" stroke="none" font-family="Arial" font-size="24px" font-style="normal" font-weight="normal" text-decoration="none" x="0" y="300">UNREGISTERED</text><text fill="#eeeeee" stroke="none" font-family="Arial" font-size="24px" font-style="normal" font-weight="normal" text-decoration="none" x="0" y="330">UNREGISTERED</text><text fill="#eeeeee" stroke="none" font-family="Arial" font-size="24px" font-style="normal" font-weight="normal" text-decoration="none" x="0" y="360">UNREGISTERED</text><text fill="#eeeeee" stroke="none" font-family="Arial" font-size="24px" font-style="normal" font-weight="normal" text-decoration="none" x="0" y="390">UNREGISTERED</text><text fill="#eeeeee" stroke="none" font-family="Arial" font-size="24px" font-style="normal" font-weight="normal" text-decoration="none" x="0" y="420">UNREGISTERED</text><text fill="#eeeeee" stroke="none" font-family="Arial" font-size="24px" font-style="normal" font-weight="normal" text-decoration="none" x="0" y="450">UNREGISTERED</text><text fill="#eeeeee" stroke="none" font-family="Arial" font-size="24px" font-style="normal" font-weight="normal" text-decoration="none" x="0" y="480">UNREGISTERED</text><text fill="#eeeeee" stroke="none" font-family="Arial" font-size="24px" font-style="normal" font-weight="normal" text-decoration="none" x="0" y="510">UNREGISTERED</text><text fill="#eeeeee" stroke="none" font-family="Arial" font-size="24px" font-style="normal" font-weight="normal" text-decoration="none" x="0" y="540">UNREGISTERED</text><text fill="#eeeeee" stroke="none" font-family="Arial" font-size="24px" font-style="normal" font-weight="normal" text-decoration="none" x="200" y="0">UNREGISTERED</text><text fill="#eeeeee" stroke="none" font-family="Arial" font-size="24px" font-style="normal" font-weight="normal" text-decoration="none" x="200" y="30">UNREGISTERED</text><text fill="#eeeeee" stroke="none" font-family="Arial" font-size="24px" font-style="normal" font-weight="normal" text-decoration="none" x="200" y="60">UNREGISTERED</text><text fill="#eeeeee" stroke="none" font-family="Arial" font-size="24px" font-style="normal" font-weight="normal" text-decoration="none" x="200" y="90">UNREGISTERED</text><text fill="#eeeeee" stroke="none" font-family="Arial" font-size="24px" font-style="normal" font-weight="normal" text-decoration="none" x="200" y="120">UNREGISTERED</text><text fill="#eeeeee" stroke="none" font-family="Arial" font-size="24px" font-style="normal" font-weight="normal" text-decoration="none" x="200" y="150">UNREGISTERED</text><text fill="#eeeeee" stroke="none" font-family="Arial" font-size="24px" font-style="normal" font-weight="normal" text-decoration="none" x="200" y="180">UNREGISTERED</text><text fill="#eeeeee" stroke="none" font-family="Arial" font-size="24px" font-style="normal" font-weight="normal" text-decoration="none" x="200" y="210">UNREGISTERED</text><text fill="#eeeeee" stroke="none" font-family="Arial" font-size="24px" font-style="normal" font-weight="normal" text-decoration="none" x="200" y="240">UNREGISTERED</text><text fill="#eeeeee" stroke="none" font-family="Arial" font-size="24px" font-style="normal" font-weight="normal" text-decoration="none" x="200" y="270">UNREGISTERED</text><text fill="#eeeeee" stroke="none" font-family="Arial" font-size="24px" font-style="normal" font-weight="normal" text-decoration="none" x="200" y="300">UNREGISTERED</text><text fill="#eeeeee" stroke="none" font-family="Arial" font-size="24px" font-style="normal" font-weight="normal" text-decoration="none" x="200" y="330">UNREGISTERED</text><text fill="#eeeeee" stroke="none" font-family="Arial" font-size="24px" font-style="normal" font-weight="normal" text-decoration="none" x="200" y="360">UNREGISTERED</text><text fill="#eeeeee" stroke="none" font-family="Arial" font-size="24px" font-style="normal" font-weight="normal" text-decoration="none" x="200" y="390">UNREGISTERED</text><text fill="#eeeeee" stroke="none" font-family="Arial" font-size="24px" font-style="normal" font-weight="normal" text-decoration="none" x="200" y="420">UNREGISTERED</text><text fill="#eeeeee" stroke="none" font-family="Arial" font-size="24px" font-style="normal" font-weight="normal" text-decoration="none" x="200" y="450">UNREGISTERED</text><text fill="#eeeeee" stroke="none" font-family="Arial" font-size="24px" font-style="normal" font-weight="normal" text-decoration="none" x="200" y="480">UNREGISTERED</text><text fill="#eeeeee" stroke="none" font-family="Arial" font-size="24px" font-style="normal" font-weight="normal" text-decoration="none" x="200" y="510">UNREGISTERED</text><text fill="#eeeeee" stroke="none" font-family="Arial" font-size="24px" font-style="normal" font-weight="normal" text-decoration="none" x="200" y="540">UNREGISTERED</text><text fill="#eeeeee" stroke="none" font-family="Arial" font-size="24px" font-style="normal" font-weight="normal" text-decoration="none" x="400" y="0">UNREGISTERED</text><text fill="#eeeeee" stroke="none" font-family="Arial" font-size="24px" font-style="normal" font-weight="normal" text-decoration="none" x="400" y="30">UNREGISTERED</text><text fill="#eeeeee" stroke="none" font-family="Arial" font-size="24px" font-style="normal" font-weight="normal" text-decoration="none" x="400" y="60">UNREGISTERED</text><text fill="#eeeeee" stroke="none" font-family="Arial" font-size="24px" font-style="normal" font-weight="normal" text-decoration="none" x="400" y="90">UNREGISTERED</text><text fill="#eeeeee" stroke="none" font-family="Arial" font-size="24px" font-style="normal" font-weight="normal" text-decoration="none" x="400" y="120">UNREGISTERED</text><text fill="#eeeeee" stroke="none" font-family="Arial" font-size="24px" font-style="normal" font-weight="normal" text-decoration="none" x="400" y="150">UNREGISTERED</text><text fill="#eeeeee" stroke="none" font-family="Arial" font-size="24px" font-style="normal" font-weight="normal" text-decoration="none" x="400" y="180">UNREGISTERED</text><text fill="#eeeeee" stroke="none" font-family="Arial" font-size="24px" font-style="normal" font-weight="normal" text-decoration="none" x="400" y="210">UNREGISTERED</text><text fill="#eeeeee" stroke="none" font-family="Arial" font-size="24px" font-style="normal" font-weight="normal" text-decoration="none" x="400" y="240">UNREGISTERED</text><text fill="#eeeeee" stroke="none" font-family="Arial" font-size="24px" font-style="normal" font-weight="normal" text-decoration="none" x="400" y="270">UNREGISTERED</text><text fill="#eeeeee" stroke="none" font-family="Arial" font-size="24px" font-style="normal" font-weight="normal" text-decoration="none" x="400" y="300">UNREGISTERED</text><text fill="#eeeeee" stroke="none" font-family="Arial" font-size="24px" font-style="normal" font-weight="normal" text-decoration="none" x="400" y="330">UNREGISTERED</text><text fill="#eeeeee" stroke="none" font-family="Arial" font-size="24px" font-style="normal" font-weight="normal" text-decoration="none" x="400" y="360">UNREGISTERED</text><text fill="#eeeeee" stroke="none" font-family="Arial" font-size="24px" font-style="normal" font-weight="normal" text-decoration="none" x="400" y="390">UNREGISTERED</text><text fill="#eeeeee" stroke="none" font-family="Arial" font-size="24px" font-style="normal" font-weight="normal" text-decoration="none" x="400" y="420">UNREGISTERED</text><text fill="#eeeeee" stroke="none" font-family="Arial" font-size="24px" font-style="normal" font-weight="normal" text-decoration="none" x="400" y="450">UNREGISTERED</text><text fill="#eeeeee" stroke="none" font-family="Arial" font-size="24px" font-style="normal" font-weight="normal" text-decoration="none" x="400" y="480">UNREGISTERED</text><text fill="#eeeeee" stroke="none" font-family="Arial" font-size="24px" font-style="normal" font-weight="normal" text-decoration="none" x="400" y="510">UNREGISTERED</text><text fill="#eeeeee" stroke="none" font-family="Arial" font-size="24px" font-style="normal" font-weight="normal" text-decoration="none" x="400" y="540">UNREGISTERED</text><g transform="translate(-230,-62) scale(1,1)"><rect fill="#C0C0C0" stroke="none" x="247" y="79" width="104.36083984375" height="57" opacity="0.2"/></g><g transform="translate(-230,-62) scale(1,1)"><rect fill="#ffffff" stroke="none" x="240" y="72" width="104.36083984375" height="57"/></g><g transform="translate(-230,-62) scale(1,1)"><path fill="none" stroke="#000000" d="M 240 72 L 344.36083984375 72 L 344.36083984375 129 L 240 129 L 240 72 Z Z" stroke-miterlimit="10"/></g><g transform="translate(-230,-62) scale(1,1)"><path fill="none" stroke="#000000" d="M 240 97 L 344.36083984375 97" stroke-miterlimit="10"/></g><g transform="translate(-230,-62) scale(1,1)"><path fill="none" stroke="#000000" d="M 240 107 L 344.36083984375 107" stroke-miterlimit="10"/></g><g transform="translate(-230,-62) scale(1,1)"><g><path fill="none" stroke="none"/><text fill="#000000" stroke="none" font-family="Arial" font-size="13px" font-style="normal" font-weight="bold" text-decoration="none" x="248.470458984375" y="91.5">Access Control</text></g></g><g transform="translate(-230,-62) scale(1,1)"><g><path fill="none" stroke="none"/><text fill="#000000" stroke="none" font-family="Arial" font-size="13px" font-style="normal" font-weight="normal" text-decoration="none" x="245" y="124.5">+get()</text></g></g><g transform="translate(-230,-62) scale(1,1)"><rect fill="#C0C0C0" stroke="none" x="375" y="231" width="176" height="385" opacity="0.2"/></g><g transform="translate(-230,-62) scale(1,1)"><rect fill="#ffffff" stroke="none" x="368" y="224" width="176" height="385"/></g><g transform="translate(-230,-62) scale(1,1)"><path fill="none" stroke="#000000" d="M 368 224 L 544 224 L 544 609 L 368 609 L 368 224 Z Z" stroke-miterlimit="10"/></g><g transform="translate(-230,-62) scale(1,1)"><path fill="none" stroke="#000000" d="M 368 249 L 544 249" stroke-miterlimit="10"/></g><g transform="translate(-230,-62) scale(1,1)"><path fill="none" stroke="#000000" d="M 368 512 L 544 512" stroke-miterlimit="10"/></g><g transform="translate(-230,-62) scale(1,1)"><g><path fill="none" stroke="none"/><text fill="#000000" stroke="none" font-family="Arial" font-size="13px" font-style="normal" font-weight="bold" text-decoration="none" x="442.2763671875" y="243.5">User</text></g></g><g transform="translate(-230,-62) scale(1,1)"><g><path fill="none" stroke="none"/><text fill="#000000" stroke="none" font-family="Arial" font-size="13px" font-style="normal" font-weight="normal" text-decoration="none" x="373" y="266.5">+uId</text></g></g><g transform="translate(-230,-62) scale(1,1)"><g><path fill="none" stroke="none"/><text fill="#000000" stroke="none" font-family="Arial" font-size="13px" font-style="normal" font-weight="normal" text-decoration="none" x="373" y="281.5">+provinceId</text></g></g><g transform="translate(-230,-62) scale(1,1)"><g><path fill="none" stroke="none"/><text fill="#000000" stroke="none" font-family="Arial" font-size="13px" font-style="normal" font-weight="normal" text-decoration="none" x="373" y="296.5">+districtId</text></g></g><g transform="translate(-230,-62) scale(1,1)"><g><path fill="none" stroke="none"/><text fill="#000000" stroke="none" font-family="Arial" font-size="13px" font-style="normal" font-weight="normal" text-decoration="none" x="373" y="311.5">+genderId</text></g></g><g transform="translate(-230,-62) scale(1,1)"><g><path fill="none" stroke="none"/><text fill="#000000" stroke="none" font-family="Arial" font-size="13px" font-style="normal" font-weight="normal" text-decoration="none" x="373" y="326.5">+accesscontrol</text></g></g><g transform="translate(-230,-62) scale(1,1)"><g><path fill="none" stroke="none"/><text fill="#000000" stroke="none" font-family="Arial" font-size="13px" font-style="normal" font-weight="normal" text-decoration="none" x="373" y="341.5">+avartas</text></g></g><g transform="translate(-230,-62) scale(1,1)"><g><path fill="none" stroke="none"/><text fill="#000000" stroke="none" font-family="Arial" font-size="13px" font-style="normal" font-weight="normal" text-decoration="none" x="373" y="356.5">+firstname</text></g></g><g transform="translate(-230,-62) scale(1,1)"><g><path fill="none" stroke="none"/><text fill="#000000" stroke="none" font-family="Arial" font-size="13px" font-style="normal" font-weight="normal" text-decoration="none" x="373" y="371.5">+lastname</text></g></g><g transform="translate(-230,-62) scale(1,1)"><g><path fill="none" stroke="none"/><text fill="#000000" stroke="none" font-family="Arial" font-size="13px" font-style="normal" font-weight="normal" text-decoration="none" x="373" y="386.5">+username</text></g></g><g transform="translate(-230,-62) scale(1,1)"><g><path fill="none" stroke="none"/><text fill="#000000" stroke="none" font-family="Arial" font-size="13px" font-style="normal" font-weight="normal" text-decoration="none" x="373" y="401.5">+email</text></g></g><g transform="translate(-230,-62) scale(1,1)"><g><path fill="none" stroke="none"/><text fill="#000000" stroke="none" font-family="Arial" font-size="13px" font-style="normal" font-weight="normal" text-decoration="none" x="373" y="416.5">+password</text></g></g><g transform="translate(-230,-62) scale(1,1)"><g><path fill="none" stroke="none"/><text fill="#000000" stroke="none" font-family="Arial" font-size="13px" font-style="normal" font-weight="normal" text-decoration="none" x="373" y="431.5">+village</text></g></g><g transform="translate(-230,-62) scale(1,1)"><g><path fill="none" stroke="none"/><text fill="#000000" stroke="none" font-family="Arial" font-size="13px" font-style="normal" font-weight="normal" text-decoration="none" x="373" y="446.5">+device_qty</text></g></g><g transform="translate(-230,-62) scale(1,1)"><g><path fill="none" stroke="none"/><text fill="#000000" stroke="none" font-family="Arial" font-size="13px" font-style="normal" font-weight="normal" text-decoration="none" x="373" y="461.5">+description</text></g></g><g transform="translate(-230,-62) scale(1,1)"><g><path fill="none" stroke="none"/><text fill="#000000" stroke="none" font-family="Arial" font-size="13px" font-style="normal" font-weight="normal" text-decoration="none" x="373" y="476.5">+isActive</text></g></g><g transform="translate(-230,-62) scale(1,1)"><g><path fill="none" stroke="none"/><text fill="#000000" stroke="none" font-family="Arial" font-size="13px" font-style="normal" font-weight="normal" text-decoration="none" x="373" y="491.5">+create date</text></g></g><g transform="translate(-230,-62) scale(1,1)"><g><path fill="none" stroke="none"/><text fill="#000000" stroke="none" font-family="Arial" font-size="13px" font-style="normal" font-weight="normal" text-decoration="none" x="373" y="506.5">+update date</text></g></g><g transform="translate(-230,-62) scale(1,1)"><g><path fill="none" stroke="none"/><text fill="#000000" stroke="none" font-family="Arial" font-size="13px" font-style="normal" font-weight="normal" text-decoration="none" x="373" y="529.5">+create()</text></g></g><g transform="translate(-230,-62) scale(1,1)"><g><path fill="none" stroke="none"/><text fill="#000000" stroke="none" font-family="Arial" font-size="13px" font-style="normal" font-weight="normal" text-decoration="none" x="373" y="544.5">+edit()</text></g></g><g transform="translate(-230,-62) scale(1,1)"><g><path fill="none" stroke="none"/><text fill="#000000" stroke="none" font-family="Arial" font-size="13px" font-style="normal" font-weight="normal" text-decoration="none" x="373" y="559.5">+validation()</text></g></g><g transform="translate(-230,-62) scale(1,1)"><g><path fill="none" stroke="none"/><text fill="#000000" stroke="none" font-family="Arial" font-size="13px" font-style="normal" font-weight="normal" text-decoration="none" x="373" y="574.5">+delete()</text></g></g><g transform="translate(-230,-62) scale(1,1)"><g><path fill="none" stroke="none"/><text fill="#000000" stroke="none" font-family="Arial" font-size="13px" font-style="normal" font-weight="normal" text-decoration="none" x="373" y="589.5">+disable()</text></g></g><g transform="translate(-230,-62) scale(1,1)"><g><path fill="none" stroke="none"/><text fill="#000000" stroke="none" font-family="Arial" font-size="13px" font-style="normal" font-weight="normal" text-decoration="none" x="373" y="604.5">+get()</text></g></g><g transform="translate(-230,-62) scale(1,1)"><rect fill="#C0C0C0" stroke="none" x="479" y="79" width="89.57080078125" height="57" opacity="0.2"/></g><g transform="translate(-230,-62) scale(1,1)"><rect fill="#ffffff" stroke="none" x="472" y="72" width="89.57080078125" height="57"/></g><g transform="translate(-230,-62) scale(1,1)"><path fill="none" stroke="#000000" d="M 472 72 L 561.57080078125 72 L 561.57080078125 129 L 472 129 L 472 72 Z Z" stroke-miterlimit="10"/></g><g transform="translate(-230,-62) scale(1,1)"><path fill="none" stroke="#000000" d="M 472 97 L 561.57080078125 97" stroke-miterlimit="10"/></g><g transform="translate(-230,-62) scale(1,1)"><path fill="none" stroke="#000000" d="M 472 107 L 561.57080078125 107" stroke-miterlimit="10"/></g><g transform="translate(-230,-62) scale(1,1)"><g><path fill="none" stroke="none"/><text fill="#000000" stroke="none" font-family="Arial" font-size="13px" font-style="normal" font-weight="bold" text-decoration="none" x="492.216796875" y="91.5">province</text></g></g><g transform="translate(-230,-62) scale(1,1)"><g><path fill="none" stroke="none"/><text fill="#000000" stroke="none" font-family="Arial" font-size="13px" font-style="normal" font-weight="normal" text-decoration="none" x="477" y="124.5">+get()</text></g></g><g transform="translate(-230,-62) scale(1,1)"><rect fill="#C0C0C0" stroke="none" x="655" y="103" width="89.57080078125" height="57" opacity="0.2"/></g><g transform="translate(-230,-62) scale(1,1)"><rect fill="#ffffff" stroke="none" x="648" y="96" width="89.57080078125" height="57"/></g><g transform="translate(-230,-62) scale(1,1)"><path fill="none" stroke="#000000" d="M 648 96 L 737.57080078125 96 L 737.57080078125 153 L 648 153 L 648 96 Z Z" stroke-miterlimit="10"/></g><g transform="translate(-230,-62) scale(1,1)"><path fill="none" stroke="#000000" d="M 648 121 L 737.57080078125 121" stroke-miterlimit="10"/></g><g transform="translate(-230,-62) scale(1,1)"><path fill="none" stroke="#000000" d="M 648 131 L 737.57080078125 131" stroke-miterlimit="10"/></g><g transform="translate(-230,-62) scale(1,1)"><g><path fill="none" stroke="none"/><text fill="#000000" stroke="none" font-family="Arial" font-size="13px" font-style="normal" font-weight="bold" text-decoration="none" x="674.005859375" y="115.5">district</text></g></g><g transform="translate(-230,-62) scale(1,1)"><g><path fill="none" stroke="none"/><text fill="#000000" stroke="none" font-family="Arial" font-size="13px" font-style="normal" font-weight="normal" text-decoration="none" x="653" y="148.5">+get()</text></g></g><g transform="translate(-230,-62) scale(1,1)"><rect fill="#C0C0C0" stroke="none" x="687" y="255" width="89.57080078125" height="57" opacity="0.2"/></g><g transform="translate(-230,-62) scale(1,1)"><rect fill="#ffffff" stroke="none" x="680" y="248" width="89.57080078125" height="57"/></g><g transform="translate(-230,-62) scale(1,1)"><path fill="none" stroke="#000000" d="M 680 248 L 769.57080078125 248 L 769.57080078125 305 L 680 305 L 680 248 Z Z" stroke-miterlimit="10"/></g><g transform="translate(-230,-62) scale(1,1)"><path fill="none" stroke="#000000" d="M 680 273 L 769.57080078125 273" stroke-miterlimit="10"/></g><g transform="translate(-230,-62) scale(1,1)"><path fill="none" stroke="#000000" d="M 680 283 L 769.57080078125 283" stroke-miterlimit="10"/></g><g transform="translate(-230,-62) scale(1,1)"><g><path fill="none" stroke="none"/><text fill="#000000" stroke="none" font-family="Arial" font-size="13px" font-style="normal" font-weight="bold" text-decoration="none" x="703.10498046875" y="267.5">Gender</text></g></g><g transform="translate(-230,-62) scale(1,1)"><g><path fill="none" stroke="none"/><text fill="#000000" stroke="none" font-family="Arial" font-size="13px" font-style="normal" font-weight="normal" text-decoration="none" x="685" y="300.5">+get()</text></g></g><g transform="translate(-230,-62) scale(1,1)"><path fill="none" stroke="#000000" d="M 367 245 L 308 130" stroke-miterlimit="10"/></g><g transform="translate(-230,-62) scale(1,1)"><path fill="#FFFFFF" stroke="none" d="M 324.76871440580106 144.24114521998428 L 308 130 L 309.7872613112092 151.9272820250357"/></g><g transform="translate(-230,-62) scale(1,1)"><path fill="none" stroke="#000000" d="M 324.76871440580106 144.24114521998428 L 308 130 L 309.7872613112092 151.9272820250357 L 324.76871440580106 144.24114521998428" stroke-miterlimit="10"/></g><g transform="translate(-230,-62) scale(1,1)"><path fill="none" stroke="#000000" d="M 493 223 L 510 130" stroke-miterlimit="10"/></g><g transform="translate(-230,-62) scale(1,1)"><path fill="#FFFFFF" stroke="none" d="M 514.6269806129018 151.507929942415 L 510 130 L 498.06336625623464 148.48017247936832"/></g><g transform="translate(-230,-62) scale(1,1)"><path fill="none" stroke="#000000" d="M 514.6269806129018 151.507929942415 L 510 130 L 498.06336625623464 148.48017247936832 L 514.6269806129018 151.507929942415" stroke-miterlimit="10"/></g><g transform="translate(-230,-62) scale(1,1)"><path fill="none" stroke="#000000" d="M 545 306 L 668 154" stroke-miterlimit="10"/></g><g transform="translate(-230,-62) scale(1,1)"><path fill="#FFFFFF" stroke="none" d="M 661.7589712413861 175.09619776249156 L 668 154 L 648.6696617480936 164.5041907383141"/></g><g transform="translate(-230,-62) scale(1,1)"><path fill="none" stroke="#000000" d="M 661.7589712413861 175.09619776249156 L 668 154 L 648.6696617480936 164.5041907383141 L 661.7589712413861 175.09619776249156" stroke-miterlimit="10"/></g><g transform="translate(-230,-62) scale(1,1)"><path fill="none" stroke="#000000" d="M 545 370 L 679 300" stroke-miterlimit="10"/></g><g transform="translate(-230,-62) scale(1,1)"><path fill="#FFFFFF" stroke="none" d="M 664.8828151385587 316.87320632209224 L 679 300 L 657.0864842424996 301.948801463922"/></g><g transform="translate(-230,-62) scale(1,1)"><path fill="none" stroke="#000000" d="M 664.8828151385587 316.87320632209224 L 679 300 L 657.0864842424996 301.948801463922 L 664.8828151385587 316.87320632209224" stroke-miterlimit="10"/></g></g></svg>