<svg version="1.1" xmlns="http://www.w3.org/2000/svg" xmlns:xlink="http://www.w3.org/1999/xlink" width="668" height="532"><defs/><g><text fill="#eeeeee" stroke="none" font-family="Arial" font-size="24px" font-style="normal" font-weight="normal" text-decoration="none" x="0" y="0">UNREGISTERED</text><text fill="#eeeeee" stroke="none" font-family="Arial" font-size="24px" font-style="normal" font-weight="normal" text-decoration="none" x="0" y="30">UNREGISTERED</text><text fill="#eeeeee" stroke="none" font-family="Arial" font-size="24px" font-style="normal" font-weight="normal" text-decoration="none" x="0" y="60">UNREGISTERED</text><text fill="#eeeeee" stroke="none" font-family="Arial" font-size="24px" font-style="normal" font-weight="normal" text-decoration="none" x="0" y="90">UNREGISTERED</text><text fill="#eeeeee" stroke="none" font-family="Arial" font-size="24px" font-style="normal" font-weight="normal" text-decoration="none" x="0" y="120">UNREGISTERED</text><text fill="#eeeeee" stroke="none" font-family="Arial" font-size="24px" font-style="normal" font-weight="normal" text-decoration="none" x="0" y="150">UNREGISTERED</text><text fill="#eeeeee" stroke="none" font-family="Arial" font-size="24px" font-style="normal" font-weight="normal" text-decoration="none" x="0" y="180">UNREGISTERED</text><text fill="#eeeeee" stroke="none" font-family="Arial" font-size="24px" font-style="normal" font-weight="normal" text-decoration="none" x="0" y="210">UNREGISTERED</text><text fill="#eeeeee" stroke="none" font-family="Arial" font-size="24px" font-style="normal" font-weight="normal" text-decoration="none" x="0" y="240">UNREGISTERED</text><text fill="#eeeeee" stroke="none" font-family="Arial" font-size="24px" font-style="normal" font-weight="normal" text-decoration="none" x="0" y="270">UNREGISTERED</text><text fill="#eeeeee" stroke="none" font-family="Arial" font-size="24px" font-style="normal" font-weight="normal" text-decoration="none" x="0" y="300">UNREGISTERED</text><text fill="#eeeeee" stroke="none" font-family="Arial" font-size="24px" font-style="normal" font-weight="normal" text-decoration="none" x="0" y="330">UNREGISTERED</text><text fill="#eeeeee" stroke="none" font-family="Arial" font-size="24px" font-style="normal" font-weight="normal" text-decoration="none" x="0" y="360">UNREGISTERED</text><text fill="#eeeeee" stroke="none" font-family="Arial" font-size="24px" font-style="normal" font-weight="normal" text-decoration="none" x="0" y="390">UNREGISTERED</text><text fill="#eeeeee" stroke="none" font-family="Arial" font-size="24px" font-style="normal" font-weight="normal" text-decoration="none" x="0" y="420">UNREGISTERED</text><text fill="#eeeeee" stroke="none" font-family="Arial" font-size="24px" font-style="normal" font-weight="normal" text-decoration="none" x="0" y="450">UNREGISTERED</text><text fill="#eeeeee" stroke="none" font-family="Arial" font-size="24px" font-style="normal" font-weight="normal" text-decoration="none" x="0" y="480">UNREGISTERED</text><text fill="#eeeeee" stroke="none" font-family="Arial" font-size="24px" font-style="normal" font-weight="normal" text-decoration="none" x="0" y="510">UNREGISTERED</text><text fill="#eeeeee" stroke="none" font-family="Arial" font-size="24px" font-style="normal" font-weight="normal" text-decoration="none" x="200" y="0">UNREGISTERED</text><text fill="#eeeeee" stroke="none" font-family="Arial" font-size="24px" font-style="normal" font-weight="normal" text-decoration="none" x="200" y="30">UNREGISTERED</text><text fill="#eeeeee" stroke="none" font-family="Arial" font-size="24px" font-style="normal" font-weight="normal" text-decoration="none" x="200" y="60">UNREGISTERED</text><text fill="#eeeeee" stroke="none" font-family="Arial" font-size="24px" font-style="normal" font-weight="normal" text-decoration="none" x="200" y="90">UNREGISTERED</text><text fill="#eeeeee" stroke="none" font-family="Arial" font-size="24px" font-style="normal" font-weight="normal" text-decoration="none" x="200" y="120">UNREGISTERED</text><text fill="#eeeeee" stroke="none" font-family="Arial" font-size="24px" font-style="normal" font-weight="normal" text-decoration="none" x="200" y="150">UNREGISTERED</text><text fill="#eeeeee" stroke="none" font-family="Arial" font-size="24px" font-style="normal" font-weight="normal" text-decoration="none" x="200" y="180">UNREGISTERED</text><text fill="#eeeeee" stroke="none" font-family="Arial" font-size="24px" font-style="normal" font-weight="normal" text-decoration="none" x="200" y="210">UNREGISTERED</text><text fill="#eeeeee" stroke="none" font-family="Arial" font-size="24px" font-style="normal" font-weight="normal" text-decoration="none" x="200" y="240">UNREGISTERED</text><text fill="#eeeeee" stroke="none" font-family="Arial" font-size="24px" font-style="normal" font-weight="normal" text-decoration="none" x="200" y="270">UNREGISTERED</text><text fill="#eeeeee" stroke="none" font-family="Arial" font-size="24px" font-style="normal" font-weight="normal" text-decoration="none" x="200" y="300">UNREGISTERED</text><text fill="#eeeeee" stroke="none" font-family="Arial" font-size="24px" font-style="normal" font-weight="normal" text-decoration="none" x="200" y="330">UNREGISTERED</text><text fill="#eeeeee" stroke="none" font-family="Arial" font-size="24px" font-style="normal" font-weight="normal" text-decoration="none" x="200" y="360">UNREGISTERED</text><text fill="#eeeeee" stroke="none" font-family="Arial" font-size="24px" font-style="normal" font-weight="normal" text-decoration="none" x="200" y="390">UNREGISTERED</text><text fill="#eeeeee" stroke="none" font-family="Arial" font-size="24px" font-style="normal" font-weight="normal" text-decoration="none" x="200" y="420">UNREGISTERED</text><text fill="#eeeeee" stroke="none" font-family="Arial" font-size="24px" font-style="normal" font-weight="normal" text-decoration="none" x="200" y="450">UNREGISTERED</text><text fill="#eeeeee" stroke="none" font-family="Arial" font-size="24px" font-style="normal" font-weight="normal" text-decoration="none" x="200" y="480">UNREGISTERED</text><text fill="#eeeeee" stroke="none" font-family="Arial" font-size="24px" font-style="normal" font-weight="normal" text-decoration="none" x="200" y="510">UNREGISTERED</text><text fill="#eeeeee" stroke="none" font-family="Arial" font-size="24px" font-style="normal" font-weight="normal" text-decoration="none" x="400" y="0">UNREGISTERED</text><text fill="#eeeeee" stroke="none" font-family="Arial" font-size="24px" font-style="normal" font-weight="normal" text-decoration="none" x="400" y="30">UNREGISTERED</text><text fill="#eeeeee" stroke="none" font-family="Arial" font-size="24px" font-style="normal" font-weight="normal" text-decoration="none" x="400" y="60">UNREGISTERED</text><text fill="#eeeeee" stroke="none" font-family="Arial" font-size="24px" font-style="normal" font-weight="normal" text-decoration="none" x="400" y="90">UNREGISTERED</text><text fill="#eeeeee" stroke="none" font-family="Arial" font-size="24px" font-style="normal" font-weight="normal" text-decoration="none" x="400" y="120">UNREGISTERED</text><text fill="#eeeeee" stroke="none" font-family="Arial" font-size="24px" font-style="normal" font-weight="normal" text-decoration="none" x="400" y="150">UNREGISTERED</text><text fill="#eeeeee" stroke="none" font-family="Arial" font-size="24px" font-style="normal" font-weight="normal" text-decoration="none" x="400" y="180">UNREGISTERED</text><text fill="#eeeeee" stroke="none" font-family="Arial" font-size="24px" font-style="normal" font-weight="normal" text-decoration="none" x="400" y="210">UNREGISTERED</text><text fill="#eeeeee" stroke="none" font-family="Arial" font-size="24px" font-style="normal" font-weight="normal" text-decoration="none" x="400" y="240">UNREGISTERED</text><text fill="#eeeeee" stroke="none" font-family="Arial" font-size="24px" font-style="normal" font-weight="normal" text-decoration="none" x="400" y="270">UNREGISTERED</text><text fill="#eeeeee" stroke="none" font-family="Arial" font-size="24px" font-style="normal" font-weight="normal" text-decoration="none" x="400" y="300">UNREGISTERED</text><text fill="#eeeeee" stroke="none" font-family="Arial" font-size="24px" font-style="normal" font-weight="normal" text-decoration="none" x="400" y="330">UNREGISTERED</text><text fill="#eeeeee" stroke="none" font-family="Arial" font-size="24px" font-style="normal" font-weight="normal" text-decoration="none" x="400" y="360">UNREGISTERED</text><text fill="#eeeeee" stroke="none" font-family="Arial" font-size="24px" font-style="normal" font-weight="normal" text-decoration="none" x="400" y="390">UNREGISTERED</text><text fill="#eeeeee" stroke="none" font-family="Arial" font-size="24px" font-style="normal" font-weight="normal" text-decoration="none" x="400" y="420">UNREGISTERED</text><text fill="#eeeeee" stroke="none" font-family="Arial" font-size="24px" font-style="normal" font-weight="normal" text-decoration="none" x="400" y="450">UNREGISTERED</text><text fill="#eeeeee" stroke="none" font-family="Arial" font-size="24px" font-style="normal" font-weight="normal" text-decoration="none" x="400" y="480">UNREGISTERED</text><text fill="#eeeeee" stroke="none" font-family="Arial" font-size="24px" font-style="normal" font-weight="normal" text-decoration="none" x="400" y="510">UNREGISTERED</text><text fill="#eeeeee" stroke="none" font-family="Arial" font-size="24px" font-style="normal" font-weight="normal" text-decoration="none" x="600" y="0">UNREGISTERED</text><text fill="#eeeeee" stroke="none" font-family="Arial" font-size="24px" font-style="normal" font-weight="normal" text-decoration="none" x="600" y="30">UNREGISTERED</text><text fill="#eeeeee" stroke="none" font-family="Arial" font-size="24px" font-style="normal" font-weight="normal" text-decoration="none" x="600" y="60">UNREGISTERED</text><text fill="#eeeeee" stroke="none" font-family="Arial" font-size="24px" font-style="normal" font-weight="normal" text-decoration="none" x="600" y="90">UNREGISTERED</text><text fill="#eeeeee" stroke="none" font-family="Arial" font-size="24px" font-style="normal" font-weight="normal" text-decoration="none" x="600" y="120">UNREGISTERED</text><text fill="#eeeeee" stroke="none" font-family="Arial" font-size="24px" font-style="normal" font-weight="normal" text-decoration="none" x="600" y="150">UNREGISTERED</text><text fill="#eeeeee" stroke="none" font-family="Arial" font-size="24px" font-style="normal" font-weight="normal" text-decoration="none" x="600" y="180">UNREGISTERED</text><text fill="#eeeeee" stroke="none" font-family="Arial" font-size="24px" font-style="normal" font-weight="normal" text-decoration="none" x="600" y="210">UNREGISTERED</text><text fill="#eeeeee" stroke="none" font-family="Arial" font-size="24px" font-style="normal" font-weight="normal" text-decoration="none" x="600" y="240">UNREGISTERED</text><text fill="#eeeeee" stroke="none" font-family="Arial" font-size="24px" font-style="normal" font-weight="normal" text-decoration="none" x="600" y="270">UNREGISTERED</text><text fill="#eeeeee" stroke="none" font-family="Arial" font-size="24px" font-style="normal" font-weight="normal" text-decoration="none" x="600" y="300">UNREGISTERED</text><text fill="#eeeeee" stroke="none" font-family="Arial" font-size="24px" font-style="normal" font-weight="normal" text-decoration="none" x="600" y="330">UNREGISTERED</text><text fill="#eeeeee" stroke="none" font-family="Arial" font-size="24px" font-style="normal" font-weight="normal" text-decoration="none" x="600" y="360">UNREGISTERED</text><text fill="#eeeeee" stroke="none" font-family="Arial" font-size="24px" font-style="normal" font-weight="normal" text-decoration="none" x="600" y="390">UNREGISTERED</text><text fill="#eeeeee" stroke="none" font-family="Arial" font-size="24px" font-style="normal" font-weight="normal" text-decoration="none" x="600" y="420">UNREGISTERED</text><text fill="#eeeeee" stroke="none" font-family="Arial" font-size="24px" font-style="normal" font-weight="normal" text-decoration="none" x="600" y="450">UNREGISTERED</text><text fill="#eeeeee" stroke="none" font-family="Arial" font-size="24px" font-style="normal" font-weight="normal" text-decoration="none" x="600" y="480">UNREGISTERED</text><text fill="#eeeeee" stroke="none" font-family="Arial" font-size="24px" font-style="normal" font-weight="normal" text-decoration="none" x="600" y="510">UNREGISTERED</text><g transform="translate(-262,-86) scale(1,1)"><path fill="none" stroke="#000000" d="M 424 96 L 920 96 L 920 608 L 424 608 L 424 96" stroke-miterlimit="10"/></g><g transform="translate(-262,-86) scale(1,1)"><path fill="#ffffff" stroke="none" d="M 424 96 L 424 118 L 498.51904296875 118 L 509.51904296875 107 L 509.51904296875 96 L 424 96"/></g><g transform="translate(-262,-86) scale(1,1)"><path fill="none" stroke="#000000" d="M 424 96 L 424 118 L 498.51904296875 118 L 509.51904296875 107 L 509.51904296875 96 L 424 96 L 424 96" stroke-miterlimit="10"/></g><g transform="translate(-262,-86) scale(1,1)"><g><path fill="none" stroke="none"/><text fill="#000000" stroke="none" font-family="Arial" font-size="13px" font-style="normal" font-weight="normal" text-decoration="none" x="455.9599609375" y="113.5">Striker</text></g></g><g transform="translate(-262,-86) scale(1,1)"><g><path fill="none" stroke="none"/><text fill="#000000" stroke="none" font-family="Arial" font-size="13px" font-style="normal" font-weight="bold" text-decoration="none" x="429" y="113.5">pkg</text></g></g><g transform="translate(-262,-86) scale(1,1)"><path fill="#ffffff" stroke="none" d="M 308.26799289772725 281.68 C 308.26799289772725 276.886167936 312.15383522267274 273 316.947265625 273 C 321.74069602732726 273 325.62653835227275 276.886167936 325.62653835227275 281.68 C 325.62653835227275 286.473832064 321.74069602732726 290.36 316.947265625 290.36 C 312.15383522267274 290.36 308.26799289772725 286.473832064 308.26799289772725 281.68 Z"/></g><g transform="translate(-262,-86) scale(1,1)"><path fill="none" stroke="#000000" d="M 308.26799289772725 281.68 C 308.26799289772725 276.886167936 312.15383522267274 273 316.947265625 273 C 321.74069602732726 273 325.62653835227275 276.886167936 325.62653835227275 281.68 C 325.62653835227275 286.473832064 321.74069602732726 290.36 316.947265625 290.36 C 312.15383522267274 290.36 308.26799289772725 286.473832064 308.26799289772725 281.68 Z" stroke-miterlimit="10"/></g><g transform="translate(-262,-86) scale(1,1)"><path fill="none" stroke="#000000" d="M 316.947265625 290.36 L 316.947265625 307.64" stroke-miterlimit="10"/></g><g transform="translate(-262,-86) scale(1,1)"><path fill="none" stroke="#000000" d="M 307.75744744318183 296.84 L 326.13708380681817 296.84" stroke-miterlimit="10"/></g><g transform="translate(-262,-86) scale(1,1)"><path fill="none" stroke="#000000" d="M 316.947265625 307.64 L 304.18362926136365 325" stroke-miterlimit="10"/></g><g transform="translate(-262,-86) scale(1,1)"><path fill="none" stroke="#000000" d="M 316.947265625 307.64 L 329.71090198863635 325" stroke-miterlimit="10"/></g><g transform="translate(-262,-86) scale(1,1)"><g><path fill="none" stroke="none"/><text fill="#000000" stroke="none" font-family="Arial" font-size="13px" font-style="normal" font-weight="bold" text-decoration="none" x="279.372314453125" y="345.5">Super Amdin</text></g></g><g transform="translate(-262,-86) scale(1,1)"><path fill="#C0C0C0" stroke="none" d="M 551 344 C 551 334.6111584 578.7583424 327 613 327 C 647.2416576 327 675 334.6111584 675 344 C 675 353.3888416 647.2416576 361 613 361 C 578.7583424 361 551 353.3888416 551 344 Z" opacity="0.2"/></g><g transform="translate(-262,-86) scale(1,1)"><path fill="#ffffff" stroke="none" d="M 544 337 C 544 327.6111584 571.7583424 320 606 320 C 640.2416576 320 668 327.6111584 668 337 C 668 346.3888416 640.2416576 354 606 354 C 571.7583424 354 544 346.3888416 544 337 Z"/></g><g transform="translate(-262,-86) scale(1,1)"><path fill="none" stroke="#000000" d="M 544 337 C 544 327.6111584 571.7583424 320 606 320 C 640.2416576 320 668 327.6111584 668 337 C 668 346.3888416 640.2416576 354 606 354 C 571.7583424 354 544 346.3888416 544 337 Z" stroke-miterlimit="10"/></g><g transform="translate(-262,-86) scale(1,1)"><g><path fill="none" stroke="none"/><text fill="#000000" stroke="none" font-family="Arial" font-size="13px" font-style="normal" font-weight="bold" text-decoration="none" x="570.24365234375" y="344">Stock striker</text></g></g><g transform="translate(-262,-86) scale(1,1)"><path fill="none" stroke="#000000" d="M 363 315 L 543 331" stroke-miterlimit="10"/></g><g transform="translate(-262,-86) scale(1,1)"><path fill="#C0C0C0" stroke="none" d="M 543 232 C 543 222.6111584 574.5639216 215 613.5 215 C 652.4360784 215 684 222.6111584 684 232 C 684 241.3888416 652.4360784 249 613.5 249 C 574.5639216 249 543 241.3888416 543 232 Z" opacity="0.2"/></g><g transform="translate(-262,-86) scale(1,1)"><path fill="#ffffff" stroke="none" d="M 536 225 C 536 215.6111584 567.5639216 208 606.5 208 C 645.4360784 208 677 215.6111584 677 225 C 677 234.3888416 645.4360784 242 606.5 242 C 567.5639216 242 536 234.3888416 536 225 Z"/></g><g transform="translate(-262,-86) scale(1,1)"><path fill="none" stroke="#000000" d="M 536 225 C 536 215.6111584 567.5639216 208 606.5 208 C 645.4360784 208 677 215.6111584 677 225 C 677 234.3888416 645.4360784 242 606.5 242 C 567.5639216 242 536 234.3888416 536 225 Z" stroke-miterlimit="10"/></g><g transform="translate(-262,-86) scale(1,1)"><g><path fill="none" stroke="none"/><text fill="#000000" stroke="none" font-family="Arial" font-size="13px" font-style="normal" font-weight="bold" text-decoration="none" x="565.325927734375" y="232">register striker</text></g></g><g transform="translate(-262,-86) scale(1,1)"><path fill="none" stroke="#000000" d="M 606 319 L 606 243" stroke-miterlimit="10" stroke-dasharray="3"/></g><g transform="translate(-262,-86) scale(1,1)"><path fill="none" stroke="#000000" d="M 610.209517756016 253.16267485762415 L 606 243 L 601.790482243984 253.16267485762415" stroke-miterlimit="10"/></g><g transform="translate(-262,-86) scale(1,1)"><g><path fill="none" stroke="none"/><text fill="#000000" stroke="none" font-family="Arial" font-size="13px" font-style="normal" font-weight="normal" text-decoration="none" x="548.5" y="286.5">«include»</text></g></g><g transform="translate(-262,-86) scale(1,1)"><path fill="#C0C0C0" stroke="none" d="M 487 152 C 487 142.6111584 509.6096176 135 537.5 135 C 565.3903824 135 588 142.6111584 588 152 C 588 161.3888416 565.3903824 169 537.5 169 C 509.6096176 169 487 161.3888416 487 152 Z" opacity="0.2"/></g><g transform="translate(-262,-86) scale(1,1)"><path fill="#ffffff" stroke="none" d="M 480 145 C 480 135.6111584 502.6096176 128 530.5 128 C 558.3903824 128 581 135.6111584 581 145 C 581 154.3888416 558.3903824 162 530.5 162 C 502.6096176 162 480 154.3888416 480 145 Z"/></g><g transform="translate(-262,-86) scale(1,1)"><path fill="none" stroke="#000000" d="M 480 145 C 480 135.6111584 502.6096176 128 530.5 128 C 558.3903824 128 581 135.6111584 581 145 C 581 154.3888416 558.3903824 162 530.5 162 C 502.6096176 162 480 154.3888416 480 145 Z" stroke-miterlimit="10"/></g><g transform="translate(-262,-86) scale(1,1)"><g><path fill="none" stroke="none"/><text fill="#000000" stroke="none" font-family="Arial" font-size="13px" font-style="normal" font-weight="bold" text-decoration="none" x="509.181396484375" y="152">already</text></g></g><g transform="translate(-262,-86) scale(1,1)"><path fill="none" stroke="#000000" d="M 547 163 L 589 207" stroke-miterlimit="10" stroke-dasharray="3"/></g><g transform="translate(-262,-86) scale(1,1)"><path fill="none" stroke="#000000" d="M 578.9379414824056 202.55534271416747 L 589 207 L 585.0278974963754 196.7422028826507" stroke-miterlimit="10"/></g><g transform="translate(-262,-86) scale(1,1)"><g><path fill="none" stroke="none"/><text fill="#000000" stroke="none" font-family="Arial" font-size="13px" font-style="normal" font-weight="normal" text-decoration="none" x="562.5" y="170.5">«extend»</text></g></g><g transform="translate(-262,-86) scale(1,1)"><path fill="#C0C0C0" stroke="none" d="M 743 216 C 743 206.6111584 765.6096176 199 793.5 199 C 821.3903824 199 844 206.6111584 844 216 C 844 225.3888416 821.3903824 233 793.5 233 C 765.6096176 233 743 225.3888416 743 216 Z" opacity="0.2"/></g><g transform="translate(-262,-86) scale(1,1)"><path fill="#ffffff" stroke="none" d="M 736 209 C 736 199.6111584 758.6096176 192 786.5 192 C 814.3903824 192 837 199.6111584 837 209 C 837 218.3888416 814.3903824 226 786.5 226 C 758.6096176 226 736 218.3888416 736 209 Z"/></g><g transform="translate(-262,-86) scale(1,1)"><path fill="none" stroke="#000000" d="M 736 209 C 736 199.6111584 758.6096176 192 786.5 192 C 814.3903824 192 837 199.6111584 837 209 C 837 218.3888416 814.3903824 226 786.5 226 C 758.6096176 226 736 218.3888416 736 209 Z" stroke-miterlimit="10"/></g><g transform="translate(-262,-86) scale(1,1)"><g><path fill="none" stroke="none"/><text fill="#000000" stroke="none" font-family="Arial" font-size="13px" font-style="normal" font-weight="bold" text-decoration="none" x="772.77001953125" y="216">Eoor</text></g></g><g transform="translate(-262,-86) scale(1,1)"><path fill="none" stroke="#000000" d="M 735 214 L 678 219" stroke-miterlimit="10" stroke-dasharray="3"/></g><g transform="translate(-262,-86) scale(1,1)"><path fill="none" stroke="#000000" d="M 687.7559563832866 213.9185321955748 L 678 219 L 688.4916432584723 222.30536257269196" stroke-miterlimit="10"/></g><g transform="translate(-262,-86) scale(1,1)"><g><path fill="none" stroke="none"/><text fill="#000000" stroke="none" font-family="Arial" font-size="13px" font-style="normal" font-weight="normal" text-decoration="none" x="682.5" y="251.5">«extend»</text></g></g><g transform="translate(-262,-86) scale(1,1)"><path fill="none" stroke="#000000" d="M 363 297 L 545 243" stroke-miterlimit="10"/></g><g transform="translate(-262,-86) scale(1,1)"><path fill="#ffffff" stroke="none" d="M 312.24162571022725 433.68 C 312.24162571022725 428.886167936 316.12746803517274 425 320.9208984375 425 C 325.71432883982726 425 329.60017116477275 428.886167936 329.60017116477275 433.68 C 329.60017116477275 438.473832064 325.71432883982726 442.36 320.9208984375 442.36 C 316.12746803517274 442.36 312.24162571022725 438.473832064 312.24162571022725 433.68 Z"/></g><g transform="translate(-262,-86) scale(1,1)"><path fill="none" stroke="#000000" d="M 312.24162571022725 433.68 C 312.24162571022725 428.886167936 316.12746803517274 425 320.9208984375 425 C 325.71432883982726 425 329.60017116477275 428.886167936 329.60017116477275 433.68 C 329.60017116477275 438.473832064 325.71432883982726 442.36 320.9208984375 442.36 C 316.12746803517274 442.36 312.24162571022725 438.473832064 312.24162571022725 433.68 Z" stroke-miterlimit="10"/></g><g transform="translate(-262,-86) scale(1,1)"><path fill="none" stroke="#000000" d="M 320.9208984375 442.36 L 320.9208984375 459.64" stroke-miterlimit="10"/></g><g transform="translate(-262,-86) scale(1,1)"><path fill="none" stroke="#000000" d="M 311.73108025568183 448.84 L 330.11071661931817 448.84" stroke-miterlimit="10"/></g><g transform="translate(-262,-86) scale(1,1)"><path fill="none" stroke="#000000" d="M 320.9208984375 459.64 L 308.15726207386365 477" stroke-miterlimit="10"/></g><g transform="translate(-262,-86) scale(1,1)"><path fill="none" stroke="#000000" d="M 320.9208984375 459.64 L 333.68453480113635 477" stroke-miterlimit="10"/></g><g transform="translate(-262,-86) scale(1,1)"><g><path fill="none" stroke="none"/><text fill="#000000" stroke="none" font-family="Arial" font-size="13px" font-style="normal" font-weight="bold" text-decoration="none" x="280.095947265625" y="497.5">Admin Branch</text></g></g><g transform="translate(-262,-86) scale(1,1)"><path fill="#C0C0C0" stroke="none" d="M 503 456 C 503 446.6111584 542.17508 439 590.5 439 C 638.82492 439 678 446.6111584 678 456 C 678 465.3888416 638.82492 473 590.5 473 C 542.17508 473 503 465.3888416 503 456 Z" opacity="0.2"/></g><g transform="translate(-262,-86) scale(1,1)"><path fill="#ffffff" stroke="none" d="M 496 449 C 496 439.6111584 535.17508 432 583.5 432 C 631.82492 432 671 439.6111584 671 449 C 671 458.3888416 631.82492 466 583.5 466 C 535.17508 466 496 458.3888416 496 449 Z"/></g><g transform="translate(-262,-86) scale(1,1)"><path fill="none" stroke="#000000" d="M 496 449 C 496 439.6111584 535.17508 432 583.5 432 C 631.82492 432 671 439.6111584 671 449 C 671 458.3888416 631.82492 466 583.5 466 C 535.17508 466 496 458.3888416 496 449 Z" stroke-miterlimit="10"/></g><g transform="translate(-262,-86) scale(1,1)"><g><path fill="none" stroke="none"/><text fill="#000000" stroke="none" font-family="Arial" font-size="13px" font-style="normal" font-weight="bold" text-decoration="none" x="532.56640625" y="456">distribution striker</text></g></g><g transform="translate(-262,-86) scale(1,1)"><path fill="none" stroke="#000000" d="M 371 460 L 495 454" stroke-miterlimit="10"/></g><g transform="translate(-262,-86) scale(1,1)"><path fill="none" stroke="#000000" d="M 587 431 L 602 355" stroke-miterlimit="10" stroke-dasharray="3"/></g><g transform="translate(-262,-86) scale(1,1)"><path fill="none" stroke="#000000" d="M 604.1620189971339 365.78543804655294 L 602 355 L 595.9023219131426 364.1552346747126" stroke-miterlimit="10"/></g><g transform="translate(-262,-86) scale(1,1)"><g><path fill="none" stroke="none"/><text fill="#000000" stroke="none" font-family="Arial" font-size="13px" font-style="normal" font-weight="normal" text-decoration="none" x="536.5" y="392.5">«include»</text></g></g><g transform="translate(-262,-86) scale(1,1)"><path fill="none" stroke="#000000" d="M 363 335 L 548 431" stroke-miterlimit="10"/></g><g transform="translate(-262,-86) scale(1,1)"><path fill="#C0C0C0" stroke="none" d="M 479 560 C 479 550.6111584 501.6096176 543 529.5 543 C 557.3903824 543 580 550.6111584 580 560 C 580 569.3888416 557.3903824 577 529.5 577 C 501.6096176 577 479 569.3888416 479 560 Z" opacity="0.2"/></g><g transform="translate(-262,-86) scale(1,1)"><path fill="#ffffff" stroke="none" d="M 472 553 C 472 543.6111584 494.6096176 536 522.5 536 C 550.3903824 536 573 543.6111584 573 553 C 573 562.3888416 550.3903824 570 522.5 570 C 494.6096176 570 472 562.3888416 472 553 Z"/></g><g transform="translate(-262,-86) scale(1,1)"><path fill="none" stroke="#000000" d="M 472 553 C 472 543.6111584 494.6096176 536 522.5 536 C 550.3903824 536 573 543.6111584 573 553 C 573 562.3888416 550.3903824 570 522.5 570 C 494.6096176 570 472 562.3888416 472 553 Z" stroke-miterlimit="10"/></g><g transform="translate(-262,-86) scale(1,1)"><g><path fill="none" stroke="none"/><text fill="#000000" stroke="none" font-family="Arial" font-size="13px" font-style="normal" font-weight="bold" text-decoration="none" x="501.905029296875" y="560">Branch</text></g></g><g transform="translate(-262,-86) scale(1,1)"><path fill="none" stroke="#000000" d="M 572 467 L 533 535" stroke-miterlimit="10" stroke-dasharray="3"/></g><g transform="translate(-262,-86) scale(1,1)"><path fill="none" stroke="#000000" d="M 534.404478138384 524.0900301944139 L 533 535 L 541.70762964775 528.278602383609" stroke-miterlimit="10"/></g><g transform="translate(-262,-86) scale(1,1)"><g><path fill="none" stroke="none"/><text fill="#000000" stroke="none" font-family="Arial" font-size="13px" font-style="normal" font-weight="normal" text-decoration="none" x="550.5" y="521.5">«include»</text></g></g><g transform="translate(-262,-86) scale(1,1)"><path fill="#C0C0C0" stroke="none" d="M 711 520 C 711 510.6111584 733.6096176 503 761.5 503 C 789.3903824 503 812 510.6111584 812 520 C 812 529.3888416 789.3903824 537 761.5 537 C 733.6096176 537 711 529.3888416 711 520 Z" opacity="0.2"/></g><g transform="translate(-262,-86) scale(1,1)"><path fill="#ffffff" stroke="none" d="M 704 513 C 704 503.6111584 726.6096176 496 754.5 496 C 782.3903824 496 805 503.6111584 805 513 C 805 522.3888416 782.3903824 530 754.5 530 C 726.6096176 530 704 522.3888416 704 513 Z"/></g><g transform="translate(-262,-86) scale(1,1)"><path fill="none" stroke="#000000" d="M 704 513 C 704 503.6111584 726.6096176 496 754.5 496 C 782.3903824 496 805 503.6111584 805 513 C 805 522.3888416 782.3903824 530 754.5 530 C 726.6096176 530 704 522.3888416 704 513 Z" stroke-miterlimit="10"/></g><g transform="translate(-262,-86) scale(1,1)"><g><path fill="none" stroke="none"/><text fill="#000000" stroke="none" font-family="Arial" font-size="13px" font-style="normal" font-weight="bold" text-decoration="none" x="740.055908203125" y="520">Error</text></g></g><g transform="translate(-262,-86) scale(1,1)"><path fill="none" stroke="#000000" d="M 706 495 L 631 467" stroke-miterlimit="10" stroke-dasharray="3"/></g><g transform="translate(-262,-86) scale(1,1)"><path fill="none" stroke="#000000" d="M 641.9931120772035 466.6107868732403 L 631 467 L 639.0485193373929 474.49808885487573" stroke-miterlimit="10"/></g><g transform="translate(-262,-86) scale(1,1)"><g><path fill="none" stroke="none"/><text fill="#000000" stroke="none" font-family="Arial" font-size="13px" font-style="normal" font-weight="normal" text-decoration="none" x="630.5" y="515.5">«extend»</text></g></g><g transform="translate(-262,-86) scale(1,1)"><path fill="#C0C0C0" stroke="none" d="M 743 312 C 743 302.6111584 767.624336 295 798 295 C 828.375664 295 853 302.6111584 853 312 C 853 321.3888416 828.375664 329 798 329 C 767.624336 329 743 321.3888416 743 312 Z" opacity="0.2"/></g><g transform="translate(-262,-86) scale(1,1)"><path fill="#ffffff" stroke="none" d="M 736 305 C 736 295.6111584 760.624336 288 791 288 C 821.375664 288 846 295.6111584 846 305 C 846 314.3888416 821.375664 322 791 322 C 760.624336 322 736 314.3888416 736 305 Z"/></g><g transform="translate(-262,-86) scale(1,1)"><path fill="none" stroke="#000000" d="M 736 305 C 736 295.6111584 760.624336 288 791 288 C 821.375664 288 846 295.6111584 846 305 C 846 314.3888416 821.375664 322 791 322 C 760.624336 322 736 314.3888416 736 305 Z" stroke-miterlimit="10"/></g><g transform="translate(-262,-86) scale(1,1)"><g><path fill="none" stroke="none"/><text fill="#000000" stroke="none" font-family="Arial" font-size="13px" font-style="normal" font-weight="bold" text-decoration="none" x="772.214111328125" y="312">Export</text></g></g><g transform="translate(-262,-86) scale(1,1)"><path fill="none" stroke="#000000" d="M 735 315 L 669 326" stroke-miterlimit="10" stroke-dasharray="3"/></g><g transform="translate(-262,-86) scale(1,1)"><path fill="none" stroke="#000000" d="M 678.3323602733092 320.1770238082953 L 669 326 L 679.7164411855751 328.4815092818907" stroke-miterlimit="10"/></g><g transform="translate(-262,-86) scale(1,1)"><g><path fill="none" stroke="none"/><text fill="#000000" stroke="none" font-family="Arial" font-size="13px" font-style="normal" font-weight="normal" text-decoration="none" x="675.5" y="339.5">«include»</text></g></g><g transform="translate(-262,-86) scale(1,1)"><path fill="#C0C0C0" stroke="none" d="M 727 408 C 727 398.6111584 749.6096176 391 777.5 391 C 805.3903824 391 828 398.6111584 828 408 C 828 417.3888416 805.3903824 425 777.5 425 C 749.6096176 425 727 417.3888416 727 408 Z" opacity="0.2"/></g><g transform="translate(-262,-86) scale(1,1)"><path fill="#ffffff" stroke="none" d="M 720 401 C 720 391.6111584 742.6096176 384 770.5 384 C 798.3903824 384 821 391.6111584 821 401 C 821 410.3888416 798.3903824 418 770.5 418 C 742.6096176 418 720 410.3888416 720 401 Z"/></g><g transform="translate(-262,-86) scale(1,1)"><path fill="none" stroke="#000000" d="M 720 401 C 720 391.6111584 742.6096176 384 770.5 384 C 798.3903824 384 821 391.6111584 821 401 C 821 410.3888416 798.3903824 418 770.5 418 C 742.6096176 418 720 410.3888416 720 401 Z" stroke-miterlimit="10"/></g><g transform="translate(-262,-86) scale(1,1)"><g><path fill="none" stroke="none"/><text fill="#000000" stroke="none" font-family="Arial" font-size="13px" font-style="normal" font-weight="bold" text-decoration="none" x="751.34912109375" y="408">counts</text></g></g><g transform="translate(-262,-86) scale(1,1)"><path fill="none" stroke="#000000" d="M 724 383 L 652 355" stroke-miterlimit="10" stroke-dasharray="3"/></g><g transform="translate(-262,-86) scale(1,1)"><path fill="none" stroke="#000000" d="M 662.9973844145943 354.7601332919363 L 652 355 L 659.9459364707276 362.6067137190222" stroke-miterlimit="10"/></g><g transform="translate(-262,-86) scale(1,1)"><g><path fill="none" stroke="none"/><text fill="#000000" stroke="none" font-family="Arial" font-size="13px" font-style="normal" font-weight="normal" text-decoration="none" x="649.5" y="402.5">«include»</text></g></g><g transform="translate(-262,-86) scale(1,1)"><path fill="#C0C0C0" stroke="none" d="M 663 136 C 663 126.6111584 685.6096176 119 713.5 119 C 741.3903824 119 764 126.6111584 764 136 C 764 145.3888416 741.3903824 153 713.5 153 C 685.6096176 153 663 145.3888416 663 136 Z" opacity="0.2"/></g><g transform="translate(-262,-86) scale(1,1)"><path fill="#ffffff" stroke="none" d="M 656 129 C 656 119.6111584 678.6096176 112 706.5 112 C 734.3903824 112 757 119.6111584 757 129 C 757 138.3888416 734.3903824 146 706.5 146 C 678.6096176 146 656 138.3888416 656 129 Z"/></g><g transform="translate(-262,-86) scale(1,1)"><path fill="none" stroke="#000000" d="M 656 129 C 656 119.6111584 678.6096176 112 706.5 112 C 734.3903824 112 757 119.6111584 757 129 C 757 138.3888416 734.3903824 146 706.5 146 C 678.6096176 146 656 138.3888416 656 129 Z" stroke-miterlimit="10"/></g><g transform="translate(-262,-86) scale(1,1)"><g><path fill="none" stroke="none"/><text fill="#000000" stroke="none" font-family="Arial" font-size="13px" font-style="normal" font-weight="bold" text-decoration="none" x="678.433837890625" y="136">Validation</text></g></g><g transform="translate(-262,-86) scale(1,1)"><path fill="none" stroke="#000000" d="M 625 207 L 687 147" stroke-miterlimit="10" stroke-dasharray="3"/></g><g transform="translate(-262,-86) scale(1,1)"><path fill="none" stroke="#000000" d="M 682.6244689282767 157.0923103321481 L 687 147 L 676.769691234191 151.04237338159294" stroke-miterlimit="10"/></g><g transform="translate(-262,-86) scale(1,1)"><g><path fill="none" stroke="none"/><text fill="#000000" stroke="none" font-family="Arial" font-size="13px" font-style="normal" font-weight="normal" text-decoration="none" x="647.5" y="185.5">«include»</text></g></g></g></svg>