<svg version="1.1" xmlns="http://www.w3.org/2000/svg" xmlns:xlink="http://www.w3.org/1999/xlink" width="766.0654296875" height="484"><defs/><g><text fill="#eeeeee" stroke="none" font-family="Arial" font-size="24px" font-style="normal" font-weight="normal" text-decoration="none" x="0" y="0">UNREGISTERED</text><text fill="#eeeeee" stroke="none" font-family="Arial" font-size="24px" font-style="normal" font-weight="normal" text-decoration="none" x="0" y="30">UNREGISTERED</text><text fill="#eeeeee" stroke="none" font-family="Arial" font-size="24px" font-style="normal" font-weight="normal" text-decoration="none" x="0" y="60">UNREGISTERED</text><text fill="#eeeeee" stroke="none" font-family="Arial" font-size="24px" font-style="normal" font-weight="normal" text-decoration="none" x="0" y="90">UNREGISTERED</text><text fill="#eeeeee" stroke="none" font-family="Arial" font-size="24px" font-style="normal" font-weight="normal" text-decoration="none" x="0" y="120">UNREGISTERED</text><text fill="#eeeeee" stroke="none" font-family="Arial" font-size="24px" font-style="normal" font-weight="normal" text-decoration="none" x="0" y="150">UNREGISTERED</text><text fill="#eeeeee" stroke="none" font-family="Arial" font-size="24px" font-style="normal" font-weight="normal" text-decoration="none" x="0" y="180">UNREGISTERED</text><text fill="#eeeeee" stroke="none" font-family="Arial" font-size="24px" font-style="normal" font-weight="normal" text-decoration="none" x="0" y="210">UNREGISTERED</text><text fill="#eeeeee" stroke="none" font-family="Arial" font-size="24px" font-style="normal" font-weight="normal" text-decoration="none" x="0" y="240">UNREGISTERED</text><text fill="#eeeeee" stroke="none" font-family="Arial" font-size="24px" font-style="normal" font-weight="normal" text-decoration="none" x="0" y="270">UNREGISTERED</text><text fill="#eeeeee" stroke="none" font-family="Arial" font-size="24px" font-style="normal" font-weight="normal" text-decoration="none" x="0" y="300">UNREGISTERED</text><text fill="#eeeeee" stroke="none" font-family="Arial" font-size="24px" font-style="normal" font-weight="normal" text-decoration="none" x="0" y="330">UNREGISTERED</text><text fill="#eeeeee" stroke="none" font-family="Arial" font-size="24px" font-style="normal" font-weight="normal" text-decoration="none" x="0" y="360">UNREGISTERED</text><text fill="#eeeeee" stroke="none" font-family="Arial" font-size="24px" font-style="normal" font-weight="normal" text-decoration="none" x="0" y="390">UNREGISTERED</text><text fill="#eeeeee" stroke="none" font-family="Arial" font-size="24px" font-style="normal" font-weight="normal" text-decoration="none" x="0" y="420">UNREGISTERED</text><text fill="#eeeeee" stroke="none" font-family="Arial" font-size="24px" font-style="normal" font-weight="normal" text-decoration="none" x="0" y="450">UNREGISTERED</text><text fill="#eeeeee" stroke="none" font-family="Arial" font-size="24px" font-style="normal" font-weight="normal" text-decoration="none" x="0" y="480">UNREGISTERED</text><text fill="#eeeeee" stroke="none" font-family="Arial" font-size="24px" font-style="normal" font-weight="normal" text-decoration="none" x="200" y="0">UNREGISTERED</text><text fill="#eeeeee" stroke="none" font-family="Arial" font-size="24px" font-style="normal" font-weight="normal" text-decoration="none" x="200" y="30">UNREGISTERED</text><text fill="#eeeeee" stroke="none" font-family="Arial" font-size="24px" font-style="normal" font-weight="normal" text-decoration="none" x="200" y="60">UNREGISTERED</text><text fill="#eeeeee" stroke="none" font-family="Arial" font-size="24px" font-style="normal" font-weight="normal" text-decoration="none" x="200" y="90">UNREGISTERED</text><text fill="#eeeeee" stroke="none" font-family="Arial" font-size="24px" font-style="normal" font-weight="normal" text-decoration="none" x="200" y="120">UNREGISTERED</text><text fill="#eeeeee" stroke="none" font-family="Arial" font-size="24px" font-style="normal" font-weight="normal" text-decoration="none" x="200" y="150">UNREGISTERED</text><text fill="#eeeeee" stroke="none" font-family="Arial" font-size="24px" font-style="normal" font-weight="normal" text-decoration="none" x="200" y="180">UNREGISTERED</text><text fill="#eeeeee" stroke="none" font-family="Arial" font-size="24px" font-style="normal" font-weight="normal" text-decoration="none" x="200" y="210">UNREGISTERED</text><text fill="#eeeeee" stroke="none" font-family="Arial" font-size="24px" font-style="normal" font-weight="normal" text-decoration="none" x="200" y="240">UNREGISTERED</text><text fill="#eeeeee" stroke="none" font-family="Arial" font-size="24px" font-style="normal" font-weight="normal" text-decoration="none" x="200" y="270">UNREGISTERED</text><text fill="#eeeeee" stroke="none" font-family="Arial" font-size="24px" font-style="normal" font-weight="normal" text-decoration="none" x="200" y="300">UNREGISTERED</text><text fill="#eeeeee" stroke="none" font-family="Arial" font-size="24px" font-style="normal" font-weight="normal" text-decoration="none" x="200" y="330">UNREGISTERED</text><text fill="#eeeeee" stroke="none" font-family="Arial" font-size="24px" font-style="normal" font-weight="normal" text-decoration="none" x="200" y="360">UNREGISTERED</text><text fill="#eeeeee" stroke="none" font-family="Arial" font-size="24px" font-style="normal" font-weight="normal" text-decoration="none" x="200" y="390">UNREGISTERED</text><text fill="#eeeeee" stroke="none" font-family="Arial" font-size="24px" font-style="normal" font-weight="normal" text-decoration="none" x="200" y="420">UNREGISTERED</text><text fill="#eeeeee" stroke="none" font-family="Arial" font-size="24px" font-style="normal" font-weight="normal" text-decoration="none" x="200" y="450">UNREGISTERED</text><text fill="#eeeeee" stroke="none" font-family="Arial" font-size="24px" font-style="normal" font-weight="normal" text-decoration="none" x="200" y="480">UNREGISTERED</text><text fill="#eeeeee" stroke="none" font-family="Arial" font-size="24px" font-style="normal" font-weight="normal" text-decoration="none" x="400" y="0">UNREGISTERED</text><text fill="#eeeeee" stroke="none" font-family="Arial" font-size="24px" font-style="normal" font-weight="normal" text-decoration="none" x="400" y="30">UNREGISTERED</text><text fill="#eeeeee" stroke="none" font-family="Arial" font-size="24px" font-style="normal" font-weight="normal" text-decoration="none" x="400" y="60">UNREGISTERED</text><text fill="#eeeeee" stroke="none" font-family="Arial" font-size="24px" font-style="normal" font-weight="normal" text-decoration="none" x="400" y="90">UNREGISTERED</text><text fill="#eeeeee" stroke="none" font-family="Arial" font-size="24px" font-style="normal" font-weight="normal" text-decoration="none" x="400" y="120">UNREGISTERED</text><text fill="#eeeeee" stroke="none" font-family="Arial" font-size="24px" font-style="normal" font-weight="normal" text-decoration="none" x="400" y="150">UNREGISTERED</text><text fill="#eeeeee" stroke="none" font-family="Arial" font-size="24px" font-style="normal" font-weight="normal" text-decoration="none" x="400" y="180">UNREGISTERED</text><text fill="#eeeeee" stroke="none" font-family="Arial" font-size="24px" font-style="normal" font-weight="normal" text-decoration="none" x="400" y="210">UNREGISTERED</text><text fill="#eeeeee" stroke="none" font-family="Arial" font-size="24px" font-style="normal" font-weight="normal" text-decoration="none" x="400" y="240">UNREGISTERED</text><text fill="#eeeeee" stroke="none" font-family="Arial" font-size="24px" font-style="normal" font-weight="normal" text-decoration="none" x="400" y="270">UNREGISTERED</text><text fill="#eeeeee" stroke="none" font-family="Arial" font-size="24px" font-style="normal" font-weight="normal" text-decoration="none" x="400" y="300">UNREGISTERED</text><text fill="#eeeeee" stroke="none" font-family="Arial" font-size="24px" font-style="normal" font-weight="normal" text-decoration="none" x="400" y="330">UNREGISTERED</text><text fill="#eeeeee" stroke="none" font-family="Arial" font-size="24px" font-style="normal" font-weight="normal" text-decoration="none" x="400" y="360">UNREGISTERED</text><text fill="#eeeeee" stroke="none" font-family="Arial" font-size="24px" font-style="normal" font-weight="normal" text-decoration="none" x="400" y="390">UNREGISTERED</text><text fill="#eeeeee" stroke="none" font-family="Arial" font-size="24px" font-style="normal" font-weight="normal" text-decoration="none" x="400" y="420">UNREGISTERED</text><text fill="#eeeeee" stroke="none" font-family="Arial" font-size="24px" font-style="normal" font-weight="normal" text-decoration="none" x="400" y="450">UNREGISTERED</text><text fill="#eeeeee" stroke="none" font-family="Arial" font-size="24px" font-style="normal" font-weight="normal" text-decoration="none" x="400" y="480">UNREGISTERED</text><text fill="#eeeeee" stroke="none" font-family="Arial" font-size="24px" font-style="normal" font-weight="normal" text-decoration="none" x="600" y="0">UNREGISTERED</text><text fill="#eeeeee" stroke="none" font-family="Arial" font-size="24px" font-style="normal" font-weight="normal" text-decoration="none" x="600" y="30">UNREGISTERED</text><text fill="#eeeeee" stroke="none" font-family="Arial" font-size="24px" font-style="normal" font-weight="normal" text-decoration="none" x="600" y="60">UNREGISTERED</text><text fill="#eeeeee" stroke="none" font-family="Arial" font-size="24px" font-style="normal" font-weight="normal" text-decoration="none" x="600" y="90">UNREGISTERED</text><text fill="#eeeeee" stroke="none" font-family="Arial" font-size="24px" font-style="normal" font-weight="normal" text-decoration="none" x="600" y="120">UNREGISTERED</text><text fill="#eeeeee" stroke="none" font-family="Arial" font-size="24px" font-style="normal" font-weight="normal" text-decoration="none" x="600" y="150">UNREGISTERED</text><text fill="#eeeeee" stroke="none" font-family="Arial" font-size="24px" font-style="normal" font-weight="normal" text-decoration="none" x="600" y="180">UNREGISTERED</text><text fill="#eeeeee" stroke="none" font-family="Arial" font-size="24px" font-style="normal" font-weight="normal" text-decoration="none" x="600" y="210">UNREGISTERED</text><text fill="#eeeeee" stroke="none" font-family="Arial" font-size="24px" font-style="normal" font-weight="normal" text-decoration="none" x="600" y="240">UNREGISTERED</text><text fill="#eeeeee" stroke="none" font-family="Arial" font-size="24px" font-style="normal" font-weight="normal" text-decoration="none" x="600" y="270">UNREGISTERED</text><text fill="#eeeeee" stroke="none" font-family="Arial" font-size="24px" font-style="normal" font-weight="normal" text-decoration="none" x="600" y="300">UNREGISTERED</text><text fill="#eeeeee" stroke="none" font-family="Arial" font-size="24px" font-style="normal" font-weight="normal" text-decoration="none" x="600" y="330">UNREGISTERED</text><text fill="#eeeeee" stroke="none" font-family="Arial" font-size="24px" font-style="normal" font-weight="normal" text-decoration="none" x="600" y="360">UNREGISTERED</text><text fill="#eeeeee" stroke="none" font-family="Arial" font-size="24px" font-style="normal" font-weight="normal" text-decoration="none" x="600" y="390">UNREGISTERED</text><text fill="#eeeeee" stroke="none" font-family="Arial" font-size="24px" font-style="normal" font-weight="normal" text-decoration="none" x="600" y="420">UNREGISTERED</text><text fill="#eeeeee" stroke="none" font-family="Arial" font-size="24px" font-style="normal" font-weight="normal" text-decoration="none" x="600" y="450">UNREGISTERED</text><text fill="#eeeeee" stroke="none" font-family="Arial" font-size="24px" font-style="normal" font-weight="normal" text-decoration="none" x="600" y="480">UNREGISTERED</text><g transform="translate(-222,-54) scale(1,1)"><path fill="#C0C0C0" stroke="none" d="M 591 80.5 C 591 75.2532944 595.2532944 71 600.5 71 C 605.7467056 71 610 75.2532944 610 80.5 C 610 85.7467056 605.7467056 90 600.5 90 C 595.2532944 90 591 85.7467056 591 80.5 Z" opacity="0.2"/></g><g transform="translate(-222,-54) scale(1,1)"><path fill="#000000" stroke="none" d="M 584 73.5 C 584 68.2532944 588.2532944 64 593.5 64 C 598.7467056 64 603 68.2532944 603 73.5 C 603 78.7467056 598.7467056 83 593.5 83 C 588.2532944 83 584 78.7467056 584 73.5 Z"/></g><g transform="translate(-222,-54) scale(1,1)"><path fill="#C0C0C0" stroke="none" d="M 561 199 L 648.2490234375 199 Q 658.2490234375 199 658.2490234375 209 L 658.2490234375 229 Q 658.2490234375 239 648.2490234375 239 L 561 239 Q 551 239 551 229 L 551 209 Q 551 199 561 199 Z" opacity="0.2"/></g><g transform="translate(-222,-54) scale(1,1)"><path fill="#ffffff" stroke="none" d="M 554 192 L 641.2490234375 192 Q 651.2490234375 192 651.2490234375 202 L 651.2490234375 222 Q 651.2490234375 232 641.2490234375 232 L 554 232 Q 544 232 544 222 L 544 202 Q 544 192 554 192 Z"/></g><g transform="translate(-222,-54) scale(1,1)"><path fill="none" stroke="#000000" d="M 554 192 L 641.2490234375 192 Q 651.2490234375 192 651.2490234375 202 L 651.2490234375 222 Q 651.2490234375 232 641.2490234375 232 L 554 232 Q 544 232 544 222 L 544 202 Q 544 192 554 192 Z" stroke-miterlimit="10"/></g><g transform="translate(-222,-54) scale(1,1)"><g><path fill="none" stroke="none"/><text fill="#000000" stroke="none" font-family="Arial" font-size="13px" font-style="normal" font-weight="bold" text-decoration="none" x="552.4609375" y="211.5">show insurance</text></g></g><g transform="translate(-222,-54) scale(1,1)"><path fill="#C0C0C0" stroke="none" d="M 591 288.5 L 602.5 279 L 613 288.5 L 602.5 297 L 591 288.5" opacity="0.2"/></g><g transform="translate(-222,-54) scale(1,1)"><path fill="#ffffff" stroke="none" d="M 584 281 L 595 272 L 606 281 L 595 290 L 584 281"/></g><g transform="translate(-222,-54) scale(1,1)"><path fill="none" stroke="#000000" d="M 584 281 L 595 272 L 606 281 L 595 290 L 584 281 L 584 281" stroke-miterlimit="10"/></g><g transform="translate(-222,-54) scale(1,1)"><path fill="none" stroke="#000000" d="M 596 233 L 595 271" stroke-miterlimit="10"/></g><g transform="translate(-222,-54) scale(1,1)"><path fill="none" stroke="#000000" d="M 591.0592853332588 260.7301038021151 L 595 271 L 599.4754071800323 260.9515806928197" stroke-miterlimit="10"/></g><g transform="translate(-222,-54) scale(1,1)"><path fill="#C0C0C0" stroke="none" d="M 521 271 L 560 271 Q 570 271 570 281 L 570 301 Q 570 311 560 311 L 521 311 Q 511 311 511 301 L 511 281 Q 511 271 521 271 Z" opacity="0.2"/></g><g transform="translate(-222,-54) scale(1,1)"><path fill="#ffffff" stroke="none" d="M 514 264 L 553 264 Q 563 264 563 274 L 563 294 Q 563 304 553 304 L 514 304 Q 504 304 504 294 L 504 274 Q 504 264 514 264 Z"/></g><g transform="translate(-222,-54) scale(1,1)"><path fill="none" stroke="#000000" d="M 514 264 L 553 264 Q 563 264 563 274 L 563 294 Q 563 304 553 304 L 514 304 Q 504 304 504 294 L 504 274 Q 504 264 514 264 Z" stroke-miterlimit="10"/></g><g transform="translate(-222,-54) scale(1,1)"><g><path fill="none" stroke="none"/><text fill="#000000" stroke="none" font-family="Arial" font-size="13px" font-style="normal" font-weight="bold" text-decoration="none" x="515.0791015625" y="283.5">Empty</text></g></g><g transform="translate(-222,-54) scale(1,1)"><path fill="none" stroke="#000000" d="M 583 282 L 564 283" stroke-miterlimit="10"/></g><g transform="translate(-222,-54) scale(1,1)"><path fill="none" stroke="#000000" d="M 573.9273809652669 278.2621621840279 L 564 283 L 574.3698756477985 286.66956115212656" stroke-miterlimit="10"/></g><g transform="translate(-222,-54) scale(1,1)"><path fill="#C0C0C0" stroke="none" d="M 583 337 L 622 337 Q 632 337 632 347 L 632 367 Q 632 377 622 377 L 583 377 Q 573 377 573 367 L 573 347 Q 573 337 583 337 Z" opacity="0.2"/></g><g transform="translate(-222,-54) scale(1,1)"><path fill="#ffffff" stroke="none" d="M 576 330 L 615 330 Q 625 330 625 340 L 625 360 Q 625 370 615 370 L 576 370 Q 566 370 566 360 L 566 340 Q 566 330 576 330 Z"/></g><g transform="translate(-222,-54) scale(1,1)"><path fill="none" stroke="#000000" d="M 576 330 L 615 330 Q 625 330 625 340 L 625 360 Q 625 370 615 370 L 576 370 Q 566 370 566 360 L 566 340 Q 566 330 576 330 Z" stroke-miterlimit="10"/></g><g transform="translate(-222,-54) scale(1,1)"><g><path fill="none" stroke="none"/><text fill="#000000" stroke="none" font-family="Arial" font-size="13px" font-style="normal" font-weight="bold" text-decoration="none" x="574.181396484375" y="349.5">expired</text></g></g><g transform="translate(-222,-54) scale(1,1)"><path fill="none" stroke="#000000" d="M 595 291 L 595 329" stroke-miterlimit="10"/></g><g transform="translate(-222,-54) scale(1,1)"><path fill="none" stroke="#000000" d="M 590.790482243984 318.83732514237585 L 595 329 L 599.209517756016 318.83732514237585" stroke-miterlimit="10"/></g><g transform="translate(-222,-54) scale(1,1)"><path fill="#C0C0C0" stroke="none" d="M 583 407 L 622 407 Q 632 407 632 417 L 632 437 Q 632 447 622 447 L 583 447 Q 573 447 573 437 L 573 417 Q 573 407 583 407 Z" opacity="0.2"/></g><g transform="translate(-222,-54) scale(1,1)"><path fill="#ffffff" stroke="none" d="M 576 400 L 615 400 Q 625 400 625 410 L 625 430 Q 625 440 615 440 L 576 440 Q 566 440 566 430 L 566 410 Q 566 400 576 400 Z"/></g><g transform="translate(-222,-54) scale(1,1)"><path fill="none" stroke="#000000" d="M 576 400 L 615 400 Q 625 400 625 410 L 625 430 Q 625 440 615 440 L 576 440 Q 566 440 566 430 L 566 410 Q 566 400 576 400 Z" stroke-miterlimit="10"/></g><g transform="translate(-222,-54) scale(1,1)"><g><path fill="none" stroke="none"/><text fill="#000000" stroke="none" font-family="Arial" font-size="13px" font-style="normal" font-weight="bold" text-decoration="none" x="577.79638671875" y="419.5">renew</text></g></g><g transform="translate(-222,-54) scale(1,1)"><path fill="none" stroke="#000000" d="M 595 371 L 595 399" stroke-miterlimit="10"/></g><g transform="translate(-222,-54) scale(1,1)"><path fill="none" stroke="#000000" d="M 590.790482243984 388.83732514237585 L 595 399 L 599.209517756016 388.83732514237585" stroke-miterlimit="10"/></g><g transform="translate(-222,-54) scale(1,1)"><path fill="#C0C0C0" stroke="none" d="M 409 271 L 459.41357421875 271 Q 469.41357421875 271 469.41357421875 281 L 469.41357421875 301 Q 469.41357421875 311 459.41357421875 311 L 409 311 Q 399 311 399 301 L 399 281 Q 399 271 409 271 Z" opacity="0.2"/></g><g transform="translate(-222,-54) scale(1,1)"><path fill="#ffffff" stroke="none" d="M 402 264 L 452.41357421875 264 Q 462.41357421875 264 462.41357421875 274 L 462.41357421875 294 Q 462.41357421875 304 452.41357421875 304 L 402 304 Q 392 304 392 294 L 392 274 Q 392 264 402 264 Z"/></g><g transform="translate(-222,-54) scale(1,1)"><path fill="none" stroke="#000000" d="M 402 264 L 452.41357421875 264 Q 462.41357421875 264 462.41357421875 274 L 462.41357421875 294 Q 462.41357421875 304 452.41357421875 304 L 402 304 Q 392 304 392 294 L 392 274 Q 392 264 402 264 Z" stroke-miterlimit="10"/></g><g transform="translate(-222,-54) scale(1,1)"><g><path fill="none" stroke="none"/><text fill="#000000" stroke="none" font-family="Arial" font-size="13px" font-style="normal" font-weight="bold" text-decoration="none" x="399.023193359375" y="283.5">insurance</text></g></g><g transform="translate(-222,-54) scale(1,1)"><path fill="none" stroke="#000000" d="M 503 284 L 463 284" stroke-miterlimit="10"/></g><g transform="translate(-222,-54) scale(1,1)"><path fill="none" stroke="#000000" d="M 473.16267485762415 279.790482243984 L 463 284 L 473.16267485762415 288.209517756016" stroke-miterlimit="10"/></g><g transform="translate(-222,-54) scale(1,1)"><path fill="#C0C0C0" stroke="none" d="M 249 247 L 329.75537109375 247 Q 339.75537109375 247 339.75537109375 257 L 339.75537109375 277 Q 339.75537109375 287 329.75537109375 287 L 249 287 Q 239 287 239 277 L 239 257 Q 239 247 249 247 Z" opacity="0.2"/></g><g transform="translate(-222,-54) scale(1,1)"><path fill="#ffffff" stroke="none" d="M 242 240 L 322.75537109375 240 Q 332.75537109375 240 332.75537109375 250 L 332.75537109375 270 Q 332.75537109375 280 322.75537109375 280 L 242 280 Q 232 280 232 270 L 232 250 Q 232 240 242 240 Z"/></g><g transform="translate(-222,-54) scale(1,1)"><path fill="none" stroke="#000000" d="M 242 240 L 322.75537109375 240 Q 332.75537109375 240 332.75537109375 250 L 332.75537109375 270 Q 332.75537109375 280 322.75537109375 280 L 242 280 Q 232 280 232 270 L 232 250 Q 232 240 242 240 Z" stroke-miterlimit="10"/></g><g transform="translate(-222,-54) scale(1,1)"><g><path fill="none" stroke="none"/><text fill="#000000" stroke="none" font-family="Arial" font-size="13px" font-style="normal" font-weight="bold" text-decoration="none" x="240.102294921875" y="259.5">type insurance</text></g></g><g transform="translate(-222,-54) scale(1,1)"><path fill="none" stroke="#000000" d="M 334 269 L 391 278" stroke-miterlimit="10"/></g><g transform="translate(-222,-54) scale(1,1)"><path fill="none" stroke="#000000" d="M 380.3051589246494 280.5730088171232 L 391 278 L 381.6182133692666 272.25699733454775" stroke-miterlimit="10"/></g><g transform="translate(-222,-54) scale(1,1)"><path fill="#C0C0C0" stroke="none" d="M 273 311 L 313.314453125 311 Q 323.314453125 311 323.314453125 321 L 323.314453125 341 Q 323.314453125 351 313.314453125 351 L 273 351 Q 263 351 263 341 L 263 321 Q 263 311 273 311 Z" opacity="0.2"/></g><g transform="translate(-222,-54) scale(1,1)"><path fill="#ffffff" stroke="none" d="M 266 304 L 306.314453125 304 Q 316.314453125 304 316.314453125 314 L 316.314453125 334 Q 316.314453125 344 306.314453125 344 L 266 344 Q 256 344 256 334 L 256 314 Q 256 304 266 304 Z"/></g><g transform="translate(-222,-54) scale(1,1)"><path fill="none" stroke="#000000" d="M 266 304 L 306.314453125 304 Q 316.314453125 304 316.314453125 314 L 316.314453125 334 Q 316.314453125 344 306.314453125 344 L 266 344 Q 256 344 256 334 L 256 314 Q 256 304 266 304 Z" stroke-miterlimit="10"/></g><g transform="translate(-222,-54) scale(1,1)"><g><path fill="none" stroke="none"/><text fill="#000000" stroke="none" font-family="Arial" font-size="13px" font-style="normal" font-weight="bold" text-decoration="none" x="262.674072265625" y="323.5">vehicles</text></g></g><g transform="translate(-222,-54) scale(1,1)"><path fill="none" stroke="#000000" d="M 317 315 L 391 294" stroke-miterlimit="10"/></g><g transform="translate(-222,-54) scale(1,1)"><path fill="none" stroke="#000000" d="M 382.3725886635187 300.8240584428296 L 391 294 L 380.07416093975024 292.72483694002653" stroke-miterlimit="10"/></g><g transform="translate(-222,-54) scale(1,1)"><path fill="#C0C0C0" stroke="none" d="M 321 183 L 368.51904296875 183 Q 378.51904296875 183 378.51904296875 193 L 378.51904296875 213 Q 378.51904296875 223 368.51904296875 223 L 321 223 Q 311 223 311 213 L 311 193 Q 311 183 321 183 Z" opacity="0.2"/></g><g transform="translate(-222,-54) scale(1,1)"><path fill="#ffffff" stroke="none" d="M 314 176 L 361.51904296875 176 Q 371.51904296875 176 371.51904296875 186 L 371.51904296875 206 Q 371.51904296875 216 361.51904296875 216 L 314 216 Q 304 216 304 206 L 304 186 Q 304 176 314 176 Z"/></g><g transform="translate(-222,-54) scale(1,1)"><path fill="none" stroke="#000000" d="M 314 176 L 361.51904296875 176 Q 371.51904296875 176 371.51904296875 186 L 371.51904296875 206 Q 371.51904296875 216 361.51904296875 216 L 314 216 Q 304 216 304 206 L 304 186 Q 304 176 314 176 Z" stroke-miterlimit="10"/></g><g transform="translate(-222,-54) scale(1,1)"><g><path fill="none" stroke="none"/><text fill="#000000" stroke="none" font-family="Arial" font-size="13px" font-style="normal" font-weight="bold" text-decoration="none" x="311.029541015625" y="195.5">customer</text></g></g><g transform="translate(-222,-54) scale(1,1)"><path fill="none" stroke="#000000" d="M 358 217 L 406 263" stroke-miterlimit="10"/></g><g transform="translate(-222,-54) scale(1,1)"><path fill="none" stroke="#000000" d="M 395.7500807083493 259.0076129302576 L 406 263 L 401.5752565323953 252.9291685921226" stroke-miterlimit="10"/></g><g transform="translate(-222,-54) scale(1,1)"><rect fill="#C0C0C0" stroke="none" x="391" y="359" width="89.18359375" height="34" opacity="0.2"/></g><g transform="translate(-222,-54) scale(1,1)"><rect fill="#ffffff" stroke="none" x="384" y="352" width="89.18359375" height="34"/></g><g transform="translate(-222,-54) scale(1,1)"><path fill="none" stroke="#000000" d="M 384 352 L 473.18359375 352 L 473.18359375 386 L 384 386 L 384 352 Z Z" stroke-miterlimit="10"/></g><g transform="translate(-222,-54) scale(1,1)"><rect fill="#ffffff" stroke="none" x="384" y="352" width="89.18359375" height="34"/></g><g transform="translate(-222,-54) scale(1,1)"><path fill="none" stroke="#000000" d="M 384 352 L 473.18359375 352 L 473.18359375 386 L 384 386 L 384 352 Z Z" stroke-miterlimit="10"/></g><g transform="translate(-222,-54) scale(1,1)"><g><path fill="none" stroke="none"/><text fill="#000000" stroke="none" font-family="Arial" font-size="13px" font-style="normal" font-weight="bold" text-decoration="none" x="409.805908203125" y="371.5">Object</text></g></g><g transform="translate(-222,-54) scale(1,1)"><path fill="none" stroke="#000000" d="M 427 305 L 428 351" stroke-miterlimit="10"/></g><g transform="translate(-222,-54) scale(1,1)"><path fill="none" stroke="#000000" d="M 423.57060105042297 340.93121531934037 L 428 351 L 431.9876478921751 340.74823604017183" stroke-miterlimit="10"/></g><g transform="translate(-222,-54) scale(1,1)"><path fill="#C0C0C0" stroke="none" d="M 417 423 L 456 423 Q 466 423 466 433 L 466 453 Q 466 463 456 463 L 417 463 Q 407 463 407 453 L 407 433 Q 407 423 417 423 Z" opacity="0.2"/></g><g transform="translate(-222,-54) scale(1,1)"><path fill="#ffffff" stroke="none" d="M 410 416 L 449 416 Q 459 416 459 426 L 459 446 Q 459 456 449 456 L 410 456 Q 400 456 400 446 L 400 426 Q 400 416 410 416 Z"/></g><g transform="translate(-222,-54) scale(1,1)"><path fill="none" stroke="#000000" d="M 410 416 L 449 416 Q 459 416 459 426 L 459 446 Q 459 456 449 456 L 410 456 Q 400 456 400 446 L 400 426 Q 400 416 410 416 Z" stroke-miterlimit="10"/></g><g transform="translate(-222,-54) scale(1,1)"><g><path fill="none" stroke="none"/><text fill="#000000" stroke="none" font-family="Arial" font-size="13px" font-style="normal" font-weight="bold" text-decoration="none" x="411.4345703125" y="435.5">create</text></g></g><g transform="translate(-222,-54) scale(1,1)"><path fill="none" stroke="#000000" d="M 428 387 L 429 415" stroke-miterlimit="10"/></g><g transform="translate(-222,-54) scale(1,1)"><path fill="none" stroke="#000000" d="M 424.43044290015257 404.99404437791003 L 429 415 L 432.8441142603102 404.6935561150473" stroke-miterlimit="10"/></g><g transform="translate(-222,-54) scale(1,1)"><path fill="#C0C0C0" stroke="none" d="M 423 512.5 L 434.5 503 L 445 512.5 L 434.5 521 L 423 512.5" opacity="0.2"/></g><g transform="translate(-222,-54) scale(1,1)"><path fill="#ffffff" stroke="none" d="M 416 505 L 427 496 L 438 505 L 427 514 L 416 505"/></g><g transform="translate(-222,-54) scale(1,1)"><path fill="none" stroke="#000000" d="M 416 505 L 427 496 L 438 505 L 427 514 L 416 505 L 416 505" stroke-miterlimit="10"/></g><g transform="translate(-222,-54) scale(1,1)"><path fill="none" stroke="#000000" d="M 428 457 L 427 495" stroke-miterlimit="10"/></g><g transform="translate(-222,-54) scale(1,1)"><path fill="none" stroke="#000000" d="M 423.0592853332588 484.7301038021151 L 427 495 L 431.4754071800324 484.9515806928197" stroke-miterlimit="10"/></g><g transform="translate(-222,-54) scale(1,1)"><path fill="#C0C0C0" stroke="none" d="M 329 495 L 375.0908203125 495 Q 385.0908203125 495 385.0908203125 505 L 385.0908203125 525 Q 385.0908203125 535 375.0908203125 535 L 329 535 Q 319 535 319 525 L 319 505 Q 319 495 329 495 Z" opacity="0.2"/></g><g transform="translate(-222,-54) scale(1,1)"><path fill="#ffffff" stroke="none" d="M 322 488 L 368.0908203125 488 Q 378.0908203125 488 378.0908203125 498 L 378.0908203125 518 Q 378.0908203125 528 368.0908203125 528 L 322 528 Q 312 528 312 518 L 312 498 Q 312 488 322 488 Z"/></g><g transform="translate(-222,-54) scale(1,1)"><path fill="none" stroke="#000000" d="M 322 488 L 368.0908203125 488 Q 378.0908203125 488 378.0908203125 498 L 378.0908203125 518 Q 378.0908203125 528 368.0908203125 528 L 322 528 Q 312 528 312 518 L 312 498 Q 312 488 322 488 Z" stroke-miterlimit="10"/></g><g transform="translate(-222,-54) scale(1,1)"><g><path fill="none" stroke="none"/><text fill="#000000" stroke="none" font-family="Arial" font-size="13px" font-style="normal" font-weight="bold" text-decoration="none" x="317.950439453125" y="507.5">Error 500</text></g></g><g transform="translate(-222,-54) scale(1,1)"><path fill="none" stroke="#000000" d="M 415 505 L 379 507" stroke-miterlimit="10"/></g><g transform="translate(-222,-54) scale(1,1)"><path fill="none" stroke="#000000" d="M 388.9135258953276 502.2332396407341 L 379 507 L 389.3805299603827 510.6393128117264" stroke-miterlimit="10"/></g><g transform="translate(-222,-54) scale(1,1)"><path fill="#C0C0C0" stroke="none" d="M 489 495 L 532.91357421875 495 Q 542.91357421875 495 542.91357421875 505 L 542.91357421875 525 Q 542.91357421875 535 532.91357421875 535 L 489 535 Q 479 535 479 525 L 479 505 Q 479 495 489 495 Z" opacity="0.2"/></g><g transform="translate(-222,-54) scale(1,1)"><path fill="#ffffff" stroke="none" d="M 482 488 L 525.91357421875 488 Q 535.91357421875 488 535.91357421875 498 L 535.91357421875 518 Q 535.91357421875 528 525.91357421875 528 L 482 528 Q 472 528 472 518 L 472 498 Q 472 488 482 488 Z"/></g><g transform="translate(-222,-54) scale(1,1)"><path fill="none" stroke="#000000" d="M 482 488 L 525.91357421875 488 Q 535.91357421875 488 535.91357421875 498 L 535.91357421875 518 Q 535.91357421875 528 525.91357421875 528 L 482 528 Q 472 528 472 518 L 472 498 Q 472 488 482 488 Z" stroke-miterlimit="10"/></g><g transform="translate(-222,-54) scale(1,1)"><g><path fill="none" stroke="none"/><text fill="#000000" stroke="none" font-family="Arial" font-size="13px" font-style="normal" font-weight="bold" text-decoration="none" x="476.5" y="507.5">MSG 201</text></g></g><g transform="translate(-222,-54) scale(1,1)"><path fill="none" stroke="#000000" d="M 439 505 L 471 507" stroke-miterlimit="10"/></g><g transform="translate(-222,-54) scale(1,1)"><path fill="none" stroke="#000000" d="M 460.5945336509049 510.5673898101903 L 471 507 L 461.11969865722506 502.1647497090678" stroke-miterlimit="10"/></g><g transform="translate(-222,-54) scale(1,1)"><path fill="none" stroke="#000000" d="M 344 488 L 344 336 M 344 336 A 8 8 0 0 1 352 328 L 400 328 M 400 328 A 8 8 0 0 0 408 320 L 408 304" stroke-miterlimit="10"/></g><g transform="translate(-222,-54) scale(1,1)"><path fill="none" stroke="#000000" d="M 412.209517756016 314.16267485762415 L 408 304 L 403.790482243984 314.16267485762415" stroke-miterlimit="10"/></g><g transform="translate(-222,-54) scale(1,1)"><g><path fill="none" stroke="none"/><text fill="#000000" stroke="none" font-family="Arial" font-size="13px" font-style="normal" font-weight="normal" text-decoration="none" x="303.5" y="404.5">MSG</text></g></g><g transform="translate(-222,-54) scale(1,1)"><path fill="#C0C0C0" stroke="none" d="M 561 127 L 652.59716796875 127 Q 662.59716796875 127 662.59716796875 137 L 662.59716796875 157 Q 662.59716796875 167 652.59716796875 167 L 561 167 Q 551 167 551 157 L 551 137 Q 551 127 561 127 Z" opacity="0.2"/></g><g transform="translate(-222,-54) scale(1,1)"><path fill="#ffffff" stroke="none" d="M 554 120 L 645.59716796875 120 Q 655.59716796875 120 655.59716796875 130 L 655.59716796875 150 Q 655.59716796875 160 645.59716796875 160 L 554 160 Q 544 160 544 150 L 544 130 Q 544 120 554 120 Z"/></g><g transform="translate(-222,-54) scale(1,1)"><path fill="none" stroke="#000000" d="M 554 120 L 645.59716796875 120 Q 655.59716796875 120 655.59716796875 130 L 655.59716796875 150 Q 655.59716796875 160 645.59716796875 160 L 554 160 Q 544 160 544 150 L 544 130 Q 544 120 554 120 Z" stroke-miterlimit="10"/></g><g transform="translate(-222,-54) scale(1,1)"><g><path fill="none" stroke="none"/><text fill="#000000" stroke="none" font-family="Arial" font-size="13px" font-style="normal" font-weight="bold" text-decoration="none" x="552.09912109375" y="139.5">generate invoice</text></g></g><g transform="translate(-222,-54) scale(1,1)"><path fill="none" stroke="#000000" d="M 594 84 L 597 119" stroke-miterlimit="10"/></g><g transform="translate(-222,-54) scale(1,1)"><path fill="none" stroke="#000000" d="M 591.9379570577379 109.23395058118717 L 597 119 L 600.3262348783145 108.51495533942347" stroke-miterlimit="10"/></g><g transform="translate(-222,-54) scale(1,1)"><path fill="none" stroke="#000000" d="M 598 161 L 598 191" stroke-miterlimit="10"/></g><g transform="translate(-222,-54) scale(1,1)"><path fill="none" stroke="#000000" d="M 593.790482243984 180.83732514237585 L 598 191 L 602.209517756016 180.83732514237585" stroke-miterlimit="10"/></g><g transform="translate(-222,-54) scale(1,1)"><path fill="none" stroke="#000000" d="M 592 440 L 592 500 M 592 500 A 8 8 0 0 1 584 508 L 536 508" stroke-miterlimit="10"/></g><g transform="translate(-222,-54) scale(1,1)"><path fill="none" stroke="#000000" d="M 546.1626748576241 503.790482243984 L 536 508 L 546.1626748576241 512.209517756016" stroke-miterlimit="10"/></g><g transform="translate(-222,-54) scale(1,1)"><path fill="#C0C0C0" stroke="none" d="M 863 88.5 C 863 83.2532944 867.2532944 79 872.5 79 C 877.7467056 79 882 83.2532944 882 88.5 C 882 93.7467056 877.7467056 98 872.5 98 C 867.2532944 98 863 93.7467056 863 88.5 Z" opacity="0.2"/></g><g transform="translate(-222,-54) scale(1,1)"><path fill="#000000" stroke="none" d="M 856 81.5 C 856 76.2532944 860.2532944 72 865.5 72 C 870.7467056 72 875 76.2532944 875 81.5 C 875 86.7467056 870.7467056 91 865.5 91 C 860.2532944 91 856 86.7467056 856 81.5 Z"/></g><g transform="translate(-222,-54) scale(1,1)"><path fill="#C0C0C0" stroke="none" d="M 825 127 L 916.5908203125 127 Q 926.5908203125 127 926.5908203125 137 L 926.5908203125 157 Q 926.5908203125 167 916.5908203125 167 L 825 167 Q 815 167 815 157 L 815 137 Q 815 127 825 127 Z" opacity="0.2"/></g><g transform="translate(-222,-54) scale(1,1)"><path fill="#ffffff" stroke="none" d="M 818 120 L 909.5908203125 120 Q 919.5908203125 120 919.5908203125 130 L 919.5908203125 150 Q 919.5908203125 160 909.5908203125 160 L 818 160 Q 808 160 808 150 L 808 130 Q 808 120 818 120 Z"/></g><g transform="translate(-222,-54) scale(1,1)"><path fill="none" stroke="#000000" d="M 818 120 L 909.5908203125 120 Q 919.5908203125 120 919.5908203125 130 L 919.5908203125 150 Q 919.5908203125 160 909.5908203125 160 L 818 160 Q 808 160 808 150 L 808 130 Q 808 120 818 120 Z" stroke-miterlimit="10"/></g><g transform="translate(-222,-54) scale(1,1)"><g><path fill="none" stroke="none"/><text fill="#000000" stroke="none" font-family="Arial" font-size="13px" font-style="normal" font-weight="bold" text-decoration="none" x="816.4609375" y="139.5">get all insurance</text></g></g><g transform="translate(-222,-54) scale(1,1)"><path fill="none" stroke="#000000" d="M 865 92 L 864 119" stroke-miterlimit="10"/></g><g transform="translate(-222,-54) scale(1,1)"><path fill="none" stroke="#000000" d="M 860.1695039351113 108.68848702193164 L 864 119 L 868.582771008294 109.00008950612359" stroke-miterlimit="10"/></g><g transform="translate(-222,-54) scale(1,1)"><path fill="#C0C0C0" stroke="none" d="M 855 216.5 L 866.5 207 L 877 216.5 L 866.5 225 L 855 216.5" opacity="0.2"/></g><g transform="translate(-222,-54) scale(1,1)"><path fill="#ffffff" stroke="none" d="M 848 209 L 859 200 L 870 209 L 859 218 L 848 209"/></g><g transform="translate(-222,-54) scale(1,1)"><path fill="none" stroke="#000000" d="M 848 209 L 859 200 L 870 209 L 859 218 L 848 209 L 848 209" stroke-miterlimit="10"/></g><g transform="translate(-222,-54) scale(1,1)"><path fill="none" stroke="#000000" d="M 862 161 L 860 199" stroke-miterlimit="10"/></g><g transform="translate(-222,-54) scale(1,1)"><path fill="none" stroke="#000000" d="M 856.3304388478734 188.63012435220153 L 860 199 L 864.7378378159722 189.07261903473304" stroke-miterlimit="10"/></g><g transform="translate(-222,-54) scale(1,1)"><path fill="#C0C0C0" stroke="none" d="M 761 199 L 800 199 Q 810 199 810 209 L 810 229 Q 810 239 800 239 L 761 239 Q 751 239 751 229 L 751 209 Q 751 199 761 199 Z" opacity="0.2"/></g><g transform="translate(-222,-54) scale(1,1)"><path fill="#ffffff" stroke="none" d="M 754 192 L 793 192 Q 803 192 803 202 L 803 222 Q 803 232 793 232 L 754 232 Q 744 232 744 222 L 744 202 Q 744 192 754 192 Z"/></g><g transform="translate(-222,-54) scale(1,1)"><path fill="none" stroke="#000000" d="M 754 192 L 793 192 Q 803 192 803 202 L 803 222 Q 803 232 793 232 L 754 232 Q 744 232 744 222 L 744 202 Q 744 192 754 192 Z" stroke-miterlimit="10"/></g><g transform="translate(-222,-54) scale(1,1)"><g><path fill="none" stroke="none"/><text fill="#000000" stroke="none" font-family="Arial" font-size="13px" font-style="normal" font-weight="bold" text-decoration="none" x="752.17822265625" y="211.5">getOne</text></g></g><g transform="translate(-222,-54) scale(1,1)"><path fill="none" stroke="#000000" d="M 847 209 L 804 211" stroke-miterlimit="10"/></g><g transform="translate(-222,-54) scale(1,1)"><path fill="none" stroke="#000000" d="M 813.9561199580178 206.322856065764 L 804 211 L 814.3472801291049 214.73279974413728" stroke-miterlimit="10"/></g><g transform="translate(-222,-54) scale(1,1)"><path fill="#C0C0C0" stroke="none" d="M 929 199 L 975.0654296875 199 Q 985.0654296875 199 985.0654296875 209 L 985.0654296875 229 Q 985.0654296875 239 975.0654296875 239 L 929 239 Q 919 239 919 229 L 919 209 Q 919 199 929 199 Z" opacity="0.2"/></g><g transform="translate(-222,-54) scale(1,1)"><path fill="#ffffff" stroke="none" d="M 922 192 L 968.0654296875 192 Q 978.0654296875 192 978.0654296875 202 L 978.0654296875 222 Q 978.0654296875 232 968.0654296875 232 L 922 232 Q 912 232 912 222 L 912 202 Q 912 192 922 192 Z"/></g><g transform="translate(-222,-54) scale(1,1)"><path fill="none" stroke="#000000" d="M 922 192 L 968.0654296875 192 Q 978.0654296875 192 978.0654296875 202 L 978.0654296875 222 Q 978.0654296875 232 968.0654296875 232 L 922 232 Q 912 232 912 222 L 912 202 Q 912 192 922 192 Z" stroke-miterlimit="10"/></g><g transform="translate(-222,-54) scale(1,1)"><g><path fill="none" stroke="none"/><text fill="#000000" stroke="none" font-family="Arial" font-size="13px" font-style="normal" font-weight="bold" text-decoration="none" x="918.65185546875" y="211.5">get detail</text></g></g><g transform="translate(-222,-54) scale(1,1)"><path fill="none" stroke="#000000" d="M 871 209 L 911 211" stroke-miterlimit="10"/></g><g transform="translate(-222,-54) scale(1,1)"><path fill="none" stroke="#000000" d="M 900.6397914314744 214.69676594020342 L 911 211 L 901.0602180019113 206.28823453146586" stroke-miterlimit="10"/></g><g transform="translate(-222,-54) scale(1,1)"><path fill="#C0C0C0" stroke="none" d="M 767 275.5 C 767 268.59644 772.59644 263 779.5 263 C 786.40356 263 792 268.59644 792 275.5 C 792 282.40356 786.40356 288 779.5 288 C 772.59644 288 767 282.40356 767 275.5 Z" opacity="0.2"/></g><g transform="translate(-222,-54) scale(1,1)"><path fill="none" stroke="#000000" d="M 760 268.5 C 760 261.59644 765.59644 256 772.5 256 C 779.40356 256 785 261.59644 785 268.5 C 785 275.40356 779.40356 281 772.5 281 C 765.59644 281 760 275.40356 760 268.5 Z" stroke-miterlimit="10"/></g><g transform="translate(-222,-54) scale(1,1)"><path fill="#000000" stroke="none" d="M 765 268.5 C 765 264.357864 768.357864 261 772.5 261 C 776.642136 261 780 264.357864 780 268.5 C 780 272.642136 776.642136 276 772.5 276 C 768.357864 276 765 272.642136 765 268.5 Z"/></g><g transform="translate(-222,-54) scale(1,1)"><path fill="none" stroke="#000000" d="M 773 233 L 772 255" stroke-miterlimit="10"/></g><g transform="translate(-222,-54) scale(1,1)"><path fill="none" stroke="#000000" d="M 768.2562874862449 244.6566631779511 L 772 255 L 776.6666391016781 245.0389518877435" stroke-miterlimit="10"/></g><g transform="translate(-222,-54) scale(1,1)"><path fill="#C0C0C0" stroke="none" d="M 943 275.5 C 943 268.59644 948.59644 263 955.5 263 C 962.40356 263 968 268.59644 968 275.5 C 968 282.40356 962.40356 288 955.5 288 C 948.59644 288 943 282.40356 943 275.5 Z" opacity="0.2"/></g><g transform="translate(-222,-54) scale(1,1)"><path fill="none" stroke="#000000" d="M 936 268.5 C 936 261.59644 941.59644 256 948.5 256 C 955.40356 256 961 261.59644 961 268.5 C 961 275.40356 955.40356 281 948.5 281 C 941.59644 281 936 275.40356 936 268.5 Z" stroke-miterlimit="10"/></g><g transform="translate(-222,-54) scale(1,1)"><path fill="#000000" stroke="none" d="M 941 268.5 C 941 264.357864 944.357864 261 948.5 261 C 952.642136 261 956 264.357864 956 268.5 C 956 272.642136 952.642136 276 948.5 276 C 944.357864 276 941 272.642136 941 268.5 Z"/></g><g transform="translate(-222,-54) scale(1,1)"><path fill="none" stroke="#000000" d="M 946 233 L 947 255" stroke-miterlimit="10"/></g><g transform="translate(-222,-54) scale(1,1)"><path fill="none" stroke="#000000" d="M 942.3333608983219 245.0389518877435 L 947 255 L 950.7437125137551 244.6566631779511" stroke-miterlimit="10"/></g></g></svg>