<svg version="1.1" xmlns="http://www.w3.org/2000/svg" xmlns:xlink="http://www.w3.org/1999/xlink" width="668" height="428"><defs/><g><text fill="#eeeeee" stroke="none" font-family="Arial" font-size="24px" font-style="normal" font-weight="normal" text-decoration="none" x="0" y="0">UNREGISTERED</text><text fill="#eeeeee" stroke="none" font-family="Arial" font-size="24px" font-style="normal" font-weight="normal" text-decoration="none" x="0" y="30">UNREGISTERED</text><text fill="#eeeeee" stroke="none" font-family="Arial" font-size="24px" font-style="normal" font-weight="normal" text-decoration="none" x="0" y="60">UNREGISTERED</text><text fill="#eeeeee" stroke="none" font-family="Arial" font-size="24px" font-style="normal" font-weight="normal" text-decoration="none" x="0" y="90">UNREGISTERED</text><text fill="#eeeeee" stroke="none" font-family="Arial" font-size="24px" font-style="normal" font-weight="normal" text-decoration="none" x="0" y="120">UNREGISTERED</text><text fill="#eeeeee" stroke="none" font-family="Arial" font-size="24px" font-style="normal" font-weight="normal" text-decoration="none" x="0" y="150">UNREGISTERED</text><text fill="#eeeeee" stroke="none" font-family="Arial" font-size="24px" font-style="normal" font-weight="normal" text-decoration="none" x="0" y="180">UNREGISTERED</text><text fill="#eeeeee" stroke="none" font-family="Arial" font-size="24px" font-style="normal" font-weight="normal" text-decoration="none" x="0" y="210">UNREGISTERED</text><text fill="#eeeeee" stroke="none" font-family="Arial" font-size="24px" font-style="normal" font-weight="normal" text-decoration="none" x="0" y="240">UNREGISTERED</text><text fill="#eeeeee" stroke="none" font-family="Arial" font-size="24px" font-style="normal" font-weight="normal" text-decoration="none" x="0" y="270">UNREGISTERED</text><text fill="#eeeeee" stroke="none" font-family="Arial" font-size="24px" font-style="normal" font-weight="normal" text-decoration="none" x="0" y="300">UNREGISTERED</text><text fill="#eeeeee" stroke="none" font-family="Arial" font-size="24px" font-style="normal" font-weight="normal" text-decoration="none" x="0" y="330">UNREGISTERED</text><text fill="#eeeeee" stroke="none" font-family="Arial" font-size="24px" font-style="normal" font-weight="normal" text-decoration="none" x="0" y="360">UNREGISTERED</text><text fill="#eeeeee" stroke="none" font-family="Arial" font-size="24px" font-style="normal" font-weight="normal" text-decoration="none" x="0" y="390">UNREGISTERED</text><text fill="#eeeeee" stroke="none" font-family="Arial" font-size="24px" font-style="normal" font-weight="normal" text-decoration="none" x="0" y="420">UNREGISTERED</text><text fill="#eeeeee" stroke="none" font-family="Arial" font-size="24px" font-style="normal" font-weight="normal" text-decoration="none" x="200" y="0">UNREGISTERED</text><text fill="#eeeeee" stroke="none" font-family="Arial" font-size="24px" font-style="normal" font-weight="normal" text-decoration="none" x="200" y="30">UNREGISTERED</text><text fill="#eeeeee" stroke="none" font-family="Arial" font-size="24px" font-style="normal" font-weight="normal" text-decoration="none" x="200" y="60">UNREGISTERED</text><text fill="#eeeeee" stroke="none" font-family="Arial" font-size="24px" font-style="normal" font-weight="normal" text-decoration="none" x="200" y="90">UNREGISTERED</text><text fill="#eeeeee" stroke="none" font-family="Arial" font-size="24px" font-style="normal" font-weight="normal" text-decoration="none" x="200" y="120">UNREGISTERED</text><text fill="#eeeeee" stroke="none" font-family="Arial" font-size="24px" font-style="normal" font-weight="normal" text-decoration="none" x="200" y="150">UNREGISTERED</text><text fill="#eeeeee" stroke="none" font-family="Arial" font-size="24px" font-style="normal" font-weight="normal" text-decoration="none" x="200" y="180">UNREGISTERED</text><text fill="#eeeeee" stroke="none" font-family="Arial" font-size="24px" font-style="normal" font-weight="normal" text-decoration="none" x="200" y="210">UNREGISTERED</text><text fill="#eeeeee" stroke="none" font-family="Arial" font-size="24px" font-style="normal" font-weight="normal" text-decoration="none" x="200" y="240">UNREGISTERED</text><text fill="#eeeeee" stroke="none" font-family="Arial" font-size="24px" font-style="normal" font-weight="normal" text-decoration="none" x="200" y="270">UNREGISTERED</text><text fill="#eeeeee" stroke="none" font-family="Arial" font-size="24px" font-style="normal" font-weight="normal" text-decoration="none" x="200" y="300">UNREGISTERED</text><text fill="#eeeeee" stroke="none" font-family="Arial" font-size="24px" font-style="normal" font-weight="normal" text-decoration="none" x="200" y="330">UNREGISTERED</text><text fill="#eeeeee" stroke="none" font-family="Arial" font-size="24px" font-style="normal" font-weight="normal" text-decoration="none" x="200" y="360">UNREGISTERED</text><text fill="#eeeeee" stroke="none" font-family="Arial" font-size="24px" font-style="normal" font-weight="normal" text-decoration="none" x="200" y="390">UNREGISTERED</text><text fill="#eeeeee" stroke="none" font-family="Arial" font-size="24px" font-style="normal" font-weight="normal" text-decoration="none" x="200" y="420">UNREGISTERED</text><text fill="#eeeeee" stroke="none" font-family="Arial" font-size="24px" font-style="normal" font-weight="normal" text-decoration="none" x="400" y="0">UNREGISTERED</text><text fill="#eeeeee" stroke="none" font-family="Arial" font-size="24px" font-style="normal" font-weight="normal" text-decoration="none" x="400" y="30">UNREGISTERED</text><text fill="#eeeeee" stroke="none" font-family="Arial" font-size="24px" font-style="normal" font-weight="normal" text-decoration="none" x="400" y="60">UNREGISTERED</text><text fill="#eeeeee" stroke="none" font-family="Arial" font-size="24px" font-style="normal" font-weight="normal" text-decoration="none" x="400" y="90">UNREGISTERED</text><text fill="#eeeeee" stroke="none" font-family="Arial" font-size="24px" font-style="normal" font-weight="normal" text-decoration="none" x="400" y="120">UNREGISTERED</text><text fill="#eeeeee" stroke="none" font-family="Arial" font-size="24px" font-style="normal" font-weight="normal" text-decoration="none" x="400" y="150">UNREGISTERED</text><text fill="#eeeeee" stroke="none" font-family="Arial" font-size="24px" font-style="normal" font-weight="normal" text-decoration="none" x="400" y="180">UNREGISTERED</text><text fill="#eeeeee" stroke="none" font-family="Arial" font-size="24px" font-style="normal" font-weight="normal" text-decoration="none" x="400" y="210">UNREGISTERED</text><text fill="#eeeeee" stroke="none" font-family="Arial" font-size="24px" font-style="normal" font-weight="normal" text-decoration="none" x="400" y="240">UNREGISTERED</text><text fill="#eeeeee" stroke="none" font-family="Arial" font-size="24px" font-style="normal" font-weight="normal" text-decoration="none" x="400" y="270">UNREGISTERED</text><text fill="#eeeeee" stroke="none" font-family="Arial" font-size="24px" font-style="normal" font-weight="normal" text-decoration="none" x="400" y="300">UNREGISTERED</text><text fill="#eeeeee" stroke="none" font-family="Arial" font-size="24px" font-style="normal" font-weight="normal" text-decoration="none" x="400" y="330">UNREGISTERED</text><text fill="#eeeeee" stroke="none" font-family="Arial" font-size="24px" font-style="normal" font-weight="normal" text-decoration="none" x="400" y="360">UNREGISTERED</text><text fill="#eeeeee" stroke="none" font-family="Arial" font-size="24px" font-style="normal" font-weight="normal" text-decoration="none" x="400" y="390">UNREGISTERED</text><text fill="#eeeeee" stroke="none" font-family="Arial" font-size="24px" font-style="normal" font-weight="normal" text-decoration="none" x="400" y="420">UNREGISTERED</text><text fill="#eeeeee" stroke="none" font-family="Arial" font-size="24px" font-style="normal" font-weight="normal" text-decoration="none" x="600" y="0">UNREGISTERED</text><text fill="#eeeeee" stroke="none" font-family="Arial" font-size="24px" font-style="normal" font-weight="normal" text-decoration="none" x="600" y="30">UNREGISTERED</text><text fill="#eeeeee" stroke="none" font-family="Arial" font-size="24px" font-style="normal" font-weight="normal" text-decoration="none" x="600" y="60">UNREGISTERED</text><text fill="#eeeeee" stroke="none" font-family="Arial" font-size="24px" font-style="normal" font-weight="normal" text-decoration="none" x="600" y="90">UNREGISTERED</text><text fill="#eeeeee" stroke="none" font-family="Arial" font-size="24px" font-style="normal" font-weight="normal" text-decoration="none" x="600" y="120">UNREGISTERED</text><text fill="#eeeeee" stroke="none" font-family="Arial" font-size="24px" font-style="normal" font-weight="normal" text-decoration="none" x="600" y="150">UNREGISTERED</text><text fill="#eeeeee" stroke="none" font-family="Arial" font-size="24px" font-style="normal" font-weight="normal" text-decoration="none" x="600" y="180">UNREGISTERED</text><text fill="#eeeeee" stroke="none" font-family="Arial" font-size="24px" font-style="normal" font-weight="normal" text-decoration="none" x="600" y="210">UNREGISTERED</text><text fill="#eeeeee" stroke="none" font-family="Arial" font-size="24px" font-style="normal" font-weight="normal" text-decoration="none" x="600" y="240">UNREGISTERED</text><text fill="#eeeeee" stroke="none" font-family="Arial" font-size="24px" font-style="normal" font-weight="normal" text-decoration="none" x="600" y="270">UNREGISTERED</text><text fill="#eeeeee" stroke="none" font-family="Arial" font-size="24px" font-style="normal" font-weight="normal" text-decoration="none" x="600" y="300">UNREGISTERED</text><text fill="#eeeeee" stroke="none" font-family="Arial" font-size="24px" font-style="normal" font-weight="normal" text-decoration="none" x="600" y="330">UNREGISTERED</text><text fill="#eeeeee" stroke="none" font-family="Arial" font-size="24px" font-style="normal" font-weight="normal" text-decoration="none" x="600" y="360">UNREGISTERED</text><text fill="#eeeeee" stroke="none" font-family="Arial" font-size="24px" font-style="normal" font-weight="normal" text-decoration="none" x="600" y="390">UNREGISTERED</text><text fill="#eeeeee" stroke="none" font-family="Arial" font-size="24px" font-style="normal" font-weight="normal" text-decoration="none" x="600" y="420">UNREGISTERED</text><g transform="translate(-174,-38) scale(1,1)"><path fill="none" stroke="#000000" d="M 328 48 L 832 48 L 832 456 L 328 456 L 328 48" stroke-miterlimit="10"/></g><g transform="translate(-174,-38) scale(1,1)"><path fill="#ffffff" stroke="none" d="M 328 48 L 328 70 L 391.6962890625 70 L 402.6962890625 59 L 402.6962890625 48 L 328 48"/></g><g transform="translate(-174,-38) scale(1,1)"><path fill="none" stroke="#000000" d="M 328 48 L 328 70 L 391.6962890625 70 L 402.6962890625 59 L 402.6962890625 48 L 328 48 L 328 48" stroke-miterlimit="10"/></g><g transform="translate(-174,-38) scale(1,1)"><g><path fill="none" stroke="none"/><text fill="#000000" stroke="none" font-family="Arial" font-size="13px" font-style="normal" font-weight="normal" text-decoration="none" x="359.9599609375" y="65.5">Role</text></g></g><g transform="translate(-174,-38) scale(1,1)"><g><path fill="none" stroke="none"/><text fill="#000000" stroke="none" font-family="Arial" font-size="13px" font-style="normal" font-weight="bold" text-decoration="none" x="333" y="65.5">pkg</text></g></g><g transform="translate(-174,-38) scale(1,1)"><path fill="#ffffff" stroke="none" d="M 220.26799289772728 281.68 C 220.26799289772728 276.886167936 224.15383522267274 273 228.947265625 273 C 233.74069602732726 273 237.62653835227272 276.886167936 237.62653835227272 281.68 C 237.62653835227272 286.473832064 233.74069602732726 290.36 228.947265625 290.36 C 224.15383522267274 290.36 220.26799289772728 286.473832064 220.26799289772728 281.68 Z"/></g><g transform="translate(-174,-38) scale(1,1)"><path fill="none" stroke="#000000" d="M 220.26799289772728 281.68 C 220.26799289772728 276.886167936 224.15383522267274 273 228.947265625 273 C 233.74069602732726 273 237.62653835227272 276.886167936 237.62653835227272 281.68 C 237.62653835227272 286.473832064 233.74069602732726 290.36 228.947265625 290.36 C 224.15383522267274 290.36 220.26799289772728 286.473832064 220.26799289772728 281.68 Z" stroke-miterlimit="10"/></g><g transform="translate(-174,-38) scale(1,1)"><path fill="none" stroke="#000000" d="M 228.947265625 290.36 L 228.947265625 307.64" stroke-miterlimit="10"/></g><g transform="translate(-174,-38) scale(1,1)"><path fill="none" stroke="#000000" d="M 219.75744744318183 296.84 L 238.13708380681817 296.84" stroke-miterlimit="10"/></g><g transform="translate(-174,-38) scale(1,1)"><path fill="none" stroke="#000000" d="M 228.947265625 307.64 L 216.18362926136365 325" stroke-miterlimit="10"/></g><g transform="translate(-174,-38) scale(1,1)"><path fill="none" stroke="#000000" d="M 228.947265625 307.64 L 241.71090198863635 325" stroke-miterlimit="10"/></g><g transform="translate(-174,-38) scale(1,1)"><g><path fill="none" stroke="none"/><text fill="#000000" stroke="none" font-family="Arial" font-size="13px" font-style="normal" font-weight="bold" text-decoration="none" x="207.2763671875" y="345.5">System</text></g></g><g transform="translate(-174,-38) scale(1,1)"><path fill="#C0C0C0" stroke="none" d="M 399 232 C 399 222.6111584 424.0720512 215 455 215 C 485.9279488 215 511 222.6111584 511 232 C 511 241.3888416 485.9279488 249 455 249 C 424.0720512 249 399 241.3888416 399 232 Z" opacity="0.2"/></g><g transform="translate(-174,-38) scale(1,1)"><path fill="#ffffff" stroke="none" d="M 392 225 C 392 215.6111584 417.0720512 208 448 208 C 478.9279488 208 504 215.6111584 504 225 C 504 234.3888416 478.9279488 242 448 242 C 417.0720512 242 392 234.3888416 392 225 Z"/></g><g transform="translate(-174,-38) scale(1,1)"><path fill="none" stroke="#000000" d="M 392 225 C 392 215.6111584 417.0720512 208 448 208 C 478.9279488 208 504 215.6111584 504 225 C 504 234.3888416 478.9279488 242 448 242 C 417.0720512 242 392 234.3888416 392 225 Z" stroke-miterlimit="10"/></g><g transform="translate(-174,-38) scale(1,1)"><g><path fill="none" stroke="none"/><text fill="#000000" stroke="none" font-family="Arial" font-size="13px" font-style="normal" font-weight="bold" text-decoration="none" x="434.6318359375" y="232">Role</text></g></g><g transform="translate(-174,-38) scale(1,1)"><path fill="none" stroke="#000000" d="M 275 293 L 402 243" stroke-miterlimit="10"/></g><g transform="translate(-174,-38) scale(1,1)"><path fill="#C0C0C0" stroke="none" d="M 455 96 C 455 86.6111584 481.862912 79 515 79 C 548.137088 79 575 86.6111584 575 96 C 575 105.3888416 548.137088 113 515 113 C 481.862912 113 455 105.3888416 455 96 Z" opacity="0.2"/></g><g transform="translate(-174,-38) scale(1,1)"><path fill="#ffffff" stroke="none" d="M 448 89 C 448 79.6111584 474.862912 72 508 72 C 541.137088 72 568 79.6111584 568 89 C 568 98.3888416 541.137088 106 508 106 C 474.862912 106 448 98.3888416 448 89 Z"/></g><g transform="translate(-174,-38) scale(1,1)"><path fill="none" stroke="#000000" d="M 448 89 C 448 79.6111584 474.862912 72 508 72 C 541.137088 72 568 79.6111584 568 89 C 568 98.3888416 541.137088 106 508 106 C 474.862912 106 448 98.3888416 448 89 Z" stroke-miterlimit="10"/></g><g transform="translate(-174,-38) scale(1,1)"><g><path fill="none" stroke="none"/><text fill="#000000" stroke="none" font-family="Arial" font-size="13px" font-style="normal" font-weight="bold" text-decoration="none" x="486.67822265625" y="96">getOne</text></g></g><g transform="translate(-174,-38) scale(1,1)"><path fill="#C0C0C0" stroke="none" d="M 583 304 C 583 294.6111584 599.1177472 287 619 287 C 638.8822528 287 655 294.6111584 655 304 C 655 313.3888416 638.8822528 321 619 321 C 599.1177472 321 583 313.3888416 583 304 Z" opacity="0.2"/></g><g transform="translate(-174,-38) scale(1,1)"><path fill="#ffffff" stroke="none" d="M 576 297 C 576 287.6111584 592.1177472 280 612 280 C 631.8822528 280 648 287.6111584 648 297 C 648 306.3888416 631.8822528 314 612 314 C 592.1177472 314 576 306.3888416 576 297 Z"/></g><g transform="translate(-174,-38) scale(1,1)"><path fill="none" stroke="#000000" d="M 576 297 C 576 287.6111584 592.1177472 280 612 280 C 631.8822528 280 648 287.6111584 648 297 C 648 306.3888416 631.8822528 314 612 314 C 592.1177472 314 576 306.3888416 576 297 Z" stroke-miterlimit="10"/></g><g transform="translate(-174,-38) scale(1,1)"><g><path fill="none" stroke="none"/><text fill="#000000" stroke="none" font-family="Arial" font-size="13px" font-style="normal" font-weight="bold" text-decoration="none" x="601.52001953125" y="304">edit</text></g></g><g transform="translate(-174,-38) scale(1,1)"><path fill="#C0C0C0" stroke="none" d="M 495 376 C 495 366.6111584 517.6096176 359 545.5 359 C 573.3903824 359 596 366.6111584 596 376 C 596 385.3888416 573.3903824 393 545.5 393 C 517.6096176 393 495 385.3888416 495 376 Z" opacity="0.2"/></g><g transform="translate(-174,-38) scale(1,1)"><path fill="#ffffff" stroke="none" d="M 488 369 C 488 359.6111584 510.6096176 352 538.5 352 C 566.3903824 352 589 359.6111584 589 369 C 589 378.3888416 566.3903824 386 538.5 386 C 510.6096176 386 488 378.3888416 488 369 Z"/></g><g transform="translate(-174,-38) scale(1,1)"><path fill="none" stroke="#000000" d="M 488 369 C 488 359.6111584 510.6096176 352 538.5 352 C 566.3903824 352 589 359.6111584 589 369 C 589 378.3888416 566.3903824 386 538.5 386 C 510.6096176 386 488 378.3888416 488 369 Z" stroke-miterlimit="10"/></g><g transform="translate(-174,-38) scale(1,1)"><g><path fill="none" stroke="none"/><text fill="#000000" stroke="none" font-family="Arial" font-size="13px" font-style="normal" font-weight="bold" text-decoration="none" x="519.7109375" y="376">Delete</text></g></g><g transform="translate(-174,-38) scale(1,1)"><path fill="#C0C0C0" stroke="none" d="M 359 432 C 359 422.6111584 381.6096176 415 409.5 415 C 437.3903824 415 460 422.6111584 460 432 C 460 441.3888416 437.3903824 449 409.5 449 C 381.6096176 449 359 441.3888416 359 432 Z" opacity="0.2"/></g><g transform="translate(-174,-38) scale(1,1)"><path fill="#ffffff" stroke="none" d="M 352 425 C 352 415.6111584 374.6096176 408 402.5 408 C 430.3903824 408 453 415.6111584 453 425 C 453 434.3888416 430.3903824 442 402.5 442 C 374.6096176 442 352 434.3888416 352 425 Z"/></g><g transform="translate(-174,-38) scale(1,1)"><path fill="none" stroke="#000000" d="M 352 425 C 352 415.6111584 374.6096176 408 402.5 408 C 430.3903824 408 453 415.6111584 453 425 C 453 434.3888416 430.3903824 442 402.5 442 C 374.6096176 442 352 434.3888416 352 425 Z" stroke-miterlimit="10"/></g><g transform="translate(-174,-38) scale(1,1)"><g><path fill="none" stroke="none"/><text fill="#000000" stroke="none" font-family="Arial" font-size="13px" font-style="normal" font-weight="bold" text-decoration="none" x="380.82275390625" y="432">Disable</text></g></g><g transform="translate(-174,-38) scale(1,1)"><path fill="none" stroke="#000000" d="M 575 281 L 489 243" stroke-miterlimit="10" stroke-dasharray="3"/></g><g transform="translate(-174,-38) scale(1,1)"><path fill="none" stroke="#000000" d="M 499.9969974498862 243.256996278565 L 489 243 L 496.5943276581927 250.9577752808187" stroke-miterlimit="10"/></g><g transform="translate(-174,-38) scale(1,1)"><g><path fill="none" stroke="none"/><text fill="#000000" stroke="none" font-family="Arial" font-size="13px" font-style="normal" font-weight="normal" text-decoration="none" x="491.5" y="295.5">«include»</text></g></g><g transform="translate(-174,-38) scale(1,1)"><path fill="none" stroke="#000000" d="M 527 351 L 459 243" stroke-miterlimit="10" stroke-dasharray="3"/></g><g transform="translate(-174,-38) scale(1,1)"><path fill="none" stroke="#000000" d="M 467.9770401857295 249.35710228829126 L 459 243 L 460.8525758535662 253.84287612706072" stroke-miterlimit="10"/></g><g transform="translate(-174,-38) scale(1,1)"><g><path fill="none" stroke="none"/><text fill="#000000" stroke="none" font-family="Arial" font-size="13px" font-style="normal" font-weight="normal" text-decoration="none" x="439.5" y="318.5">«include»</text></g></g><g transform="translate(-174,-38) scale(1,1)"><path fill="none" stroke="#000000" d="M 406 407 L 444 243" stroke-miterlimit="10" stroke-dasharray="3"/></g><g transform="translate(-174,-38) scale(1,1)"><path fill="none" stroke="#000000" d="M 445.80688156362623 253.85058427067537 L 444 243 L 437.60513648881044 251.9501799240717" stroke-miterlimit="10"/></g><g transform="translate(-174,-38) scale(1,1)"><g><path fill="none" stroke="none"/><text fill="#000000" stroke="none" font-family="Arial" font-size="13px" font-style="normal" font-weight="normal" text-decoration="none" x="367.5" y="324.5">«include»</text></g></g><g transform="translate(-174,-38) scale(1,1)"><path fill="#C0C0C0" stroke="none" d="M 647 240 C 647 230.6111584 669.6096176 223 697.5 223 C 725.3903824 223 748 230.6111584 748 240 C 748 249.3888416 725.3903824 257 697.5 257 C 669.6096176 257 647 249.3888416 647 240 Z" opacity="0.2"/></g><g transform="translate(-174,-38) scale(1,1)"><path fill="#ffffff" stroke="none" d="M 640 233 C 640 223.6111584 662.6096176 216 690.5 216 C 718.3903824 216 741 223.6111584 741 233 C 741 242.3888416 718.3903824 250 690.5 250 C 662.6096176 250 640 242.3888416 640 233 Z"/></g><g transform="translate(-174,-38) scale(1,1)"><path fill="none" stroke="#000000" d="M 640 233 C 640 223.6111584 662.6096176 216 690.5 216 C 718.3903824 216 741 223.6111584 741 233 C 741 242.3888416 718.3903824 250 690.5 250 C 662.6096176 250 640 242.3888416 640 233 Z" stroke-miterlimit="10"/></g><g transform="translate(-174,-38) scale(1,1)"><g><path fill="none" stroke="none"/><text fill="#000000" stroke="none" font-family="Arial" font-size="13px" font-style="normal" font-weight="bold" text-decoration="none" x="676.055908203125" y="240">Error</text></g></g><g transform="translate(-174,-38) scale(1,1)"><path fill="none" stroke="#000000" d="M 639 231 L 505 227" stroke-miterlimit="10" stroke-dasharray="3"/></g><g transform="translate(-174,-38) scale(1,1)"><path fill="none" stroke="#000000" d="M 515.2837513682691 223.09558483308675 L 505 227 L 515.0325487696315 231.5108718874476" stroke-miterlimit="10"/></g><g transform="translate(-174,-38) scale(1,1)"><g><path fill="none" stroke="none"/><text fill="#000000" stroke="none" font-family="Arial" font-size="13px" font-style="normal" font-weight="normal" text-decoration="none" x="545.5" y="252.5">«extend»</text></g></g><g transform="translate(-174,-38) scale(1,1)"><path fill="#C0C0C0" stroke="none" d="M 343 152 C 343 142.6111584 365.6096176 135 393.5 135 C 421.3903824 135 444 142.6111584 444 152 C 444 161.3888416 421.3903824 169 393.5 169 C 365.6096176 169 343 161.3888416 343 152 Z" opacity="0.2"/></g><g transform="translate(-174,-38) scale(1,1)"><path fill="#ffffff" stroke="none" d="M 336 145 C 336 135.6111584 358.6096176 128 386.5 128 C 414.3903824 128 437 135.6111584 437 145 C 437 154.3888416 414.3903824 162 386.5 162 C 358.6096176 162 336 154.3888416 336 145 Z"/></g><g transform="translate(-174,-38) scale(1,1)"><path fill="none" stroke="#000000" d="M 336 145 C 336 135.6111584 358.6096176 128 386.5 128 C 414.3903824 128 437 135.6111584 437 145 C 437 154.3888416 414.3903824 162 386.5 162 C 358.6096176 162 336 154.3888416 336 145 Z" stroke-miterlimit="10"/></g><g transform="translate(-174,-38) scale(1,1)"><g><path fill="none" stroke="none"/><text fill="#000000" stroke="none" font-family="Arial" font-size="13px" font-style="normal" font-weight="bold" text-decoration="none" x="368.4345703125" y="152">get All</text></g></g><g transform="translate(-174,-38) scale(1,1)"><path fill="none" stroke="#000000" d="M 400 163 L 434 207" stroke-miterlimit="10" stroke-dasharray="3"/></g><g transform="translate(-174,-38) scale(1,1)"><path fill="none" stroke="#000000" d="M 424.45512959063075 201.53232692378677 L 434 207 L 431.11698611748966 196.3845286984867" stroke-miterlimit="10"/></g><g transform="translate(-174,-38) scale(1,1)"><g><path fill="none" stroke="none"/><text fill="#000000" stroke="none" font-family="Arial" font-size="13px" font-style="normal" font-weight="normal" text-decoration="none" x="412.5" y="172.5">«include»</text></g></g><g transform="translate(-174,-38) scale(1,1)"><path fill="#C0C0C0" stroke="none" d="M 639 160 C 639 150.6111584 672.1309248 143 713 143 C 753.8690752 143 787 150.6111584 787 160 C 787 169.3888416 753.8690752 177 713 177 C 672.1309248 177 639 169.3888416 639 160 Z" opacity="0.2"/></g><g transform="translate(-174,-38) scale(1,1)"><path fill="#ffffff" stroke="none" d="M 632 153 C 632 143.6111584 665.1309248 136 706 136 C 746.8690752 136 780 143.6111584 780 153 C 780 162.3888416 746.8690752 170 706 170 C 665.1309248 170 632 162.3888416 632 153 Z"/></g><g transform="translate(-174,-38) scale(1,1)"><path fill="none" stroke="#000000" d="M 632 153 C 632 143.6111584 665.1309248 136 706 136 C 746.8690752 136 780 143.6111584 780 153 C 780 162.3888416 746.8690752 170 706 170 C 665.1309248 170 632 162.3888416 632 153 Z" stroke-miterlimit="10"/></g><g transform="translate(-174,-38) scale(1,1)"><g><path fill="none" stroke="none"/><text fill="#000000" stroke="none" font-family="Arial" font-size="13px" font-style="normal" font-weight="bold" text-decoration="none" x="674.57275390625" y="160">permission</text></g></g><g transform="translate(-174,-38) scale(1,1)"><path fill="none" stroke="#000000" d="M 505 209 L 642 171" stroke-miterlimit="10" stroke-dasharray="3"/></g><g transform="translate(-174,-38) scale(1,1)"><path fill="none" stroke="#000000" d="M 633.3321818002439 177.77266030862154 L 642 171 L 631.0819329419611 169.65992100375956" stroke-miterlimit="10"/></g><g transform="translate(-174,-38) scale(1,1)"><g><path fill="none" stroke="none"/><text fill="#000000" stroke="none" font-family="Arial" font-size="13px" font-style="normal" font-weight="normal" text-decoration="none" x="540.5" y="184.5">«include»</text></g></g><g transform="translate(-174,-38) scale(1,1)"><path fill="none" stroke="#000000" d="M 500 107 L 456 207" stroke-miterlimit="10" stroke-dasharray="3"/></g><g transform="translate(-174,-38) scale(1,1)"><path fill="none" stroke="#000000" d="M 456.2398667080637 196.00261558540564 L 456 207 L 463.94593647072764 199.3932862809778" stroke-miterlimit="10"/></g><g transform="translate(-174,-38) scale(1,1)"><g><path fill="none" stroke="none"/><text fill="#000000" stroke="none" font-family="Arial" font-size="13px" font-style="normal" font-weight="normal" text-decoration="none" x="477.5" y="175.5">«include»</text></g></g></g></svg>