<svg version="1.1" xmlns="http://www.w3.org/2000/svg" xmlns:xlink="http://www.w3.org/1999/xlink" width="709.57080078125" height="293"><defs/><g><text fill="#eeeeee" stroke="none" font-family="Arial" font-size="24px" font-style="normal" font-weight="normal" text-decoration="none" x="0" y="0">UNREGISTERED</text><text fill="#eeeeee" stroke="none" font-family="Arial" font-size="24px" font-style="normal" font-weight="normal" text-decoration="none" x="0" y="30">UNREGISTERED</text><text fill="#eeeeee" stroke="none" font-family="Arial" font-size="24px" font-style="normal" font-weight="normal" text-decoration="none" x="0" y="60">UNREGISTERED</text><text fill="#eeeeee" stroke="none" font-family="Arial" font-size="24px" font-style="normal" font-weight="normal" text-decoration="none" x="0" y="90">UNREGISTERED</text><text fill="#eeeeee" stroke="none" font-family="Arial" font-size="24px" font-style="normal" font-weight="normal" text-decoration="none" x="0" y="120">UNREGISTERED</text><text fill="#eeeeee" stroke="none" font-family="Arial" font-size="24px" font-style="normal" font-weight="normal" text-decoration="none" x="0" y="150">UNREGISTERED</text><text fill="#eeeeee" stroke="none" font-family="Arial" font-size="24px" font-style="normal" font-weight="normal" text-decoration="none" x="0" y="180">UNREGISTERED</text><text fill="#eeeeee" stroke="none" font-family="Arial" font-size="24px" font-style="normal" font-weight="normal" text-decoration="none" x="0" y="210">UNREGISTERED</text><text fill="#eeeeee" stroke="none" font-family="Arial" font-size="24px" font-style="normal" font-weight="normal" text-decoration="none" x="0" y="240">UNREGISTERED</text><text fill="#eeeeee" stroke="none" font-family="Arial" font-size="24px" font-style="normal" font-weight="normal" text-decoration="none" x="0" y="270">UNREGISTERED</text><text fill="#eeeeee" stroke="none" font-family="Arial" font-size="24px" font-style="normal" font-weight="normal" text-decoration="none" x="200" y="0">UNREGISTERED</text><text fill="#eeeeee" stroke="none" font-family="Arial" font-size="24px" font-style="normal" font-weight="normal" text-decoration="none" x="200" y="30">UNREGISTERED</text><text fill="#eeeeee" stroke="none" font-family="Arial" font-size="24px" font-style="normal" font-weight="normal" text-decoration="none" x="200" y="60">UNREGISTERED</text><text fill="#eeeeee" stroke="none" font-family="Arial" font-size="24px" font-style="normal" font-weight="normal" text-decoration="none" x="200" y="90">UNREGISTERED</text><text fill="#eeeeee" stroke="none" font-family="Arial" font-size="24px" font-style="normal" font-weight="normal" text-decoration="none" x="200" y="120">UNREGISTERED</text><text fill="#eeeeee" stroke="none" font-family="Arial" font-size="24px" font-style="normal" font-weight="normal" text-decoration="none" x="200" y="150">UNREGISTERED</text><text fill="#eeeeee" stroke="none" font-family="Arial" font-size="24px" font-style="normal" font-weight="normal" text-decoration="none" x="200" y="180">UNREGISTERED</text><text fill="#eeeeee" stroke="none" font-family="Arial" font-size="24px" font-style="normal" font-weight="normal" text-decoration="none" x="200" y="210">UNREGISTERED</text><text fill="#eeeeee" stroke="none" font-family="Arial" font-size="24px" font-style="normal" font-weight="normal" text-decoration="none" x="200" y="240">UNREGISTERED</text><text fill="#eeeeee" stroke="none" font-family="Arial" font-size="24px" font-style="normal" font-weight="normal" text-decoration="none" x="200" y="270">UNREGISTERED</text><text fill="#eeeeee" stroke="none" font-family="Arial" font-size="24px" font-style="normal" font-weight="normal" text-decoration="none" x="400" y="0">UNREGISTERED</text><text fill="#eeeeee" stroke="none" font-family="Arial" font-size="24px" font-style="normal" font-weight="normal" text-decoration="none" x="400" y="30">UNREGISTERED</text><text fill="#eeeeee" stroke="none" font-family="Arial" font-size="24px" font-style="normal" font-weight="normal" text-decoration="none" x="400" y="60">UNREGISTERED</text><text fill="#eeeeee" stroke="none" font-family="Arial" font-size="24px" font-style="normal" font-weight="normal" text-decoration="none" x="400" y="90">UNREGISTERED</text><text fill="#eeeeee" stroke="none" font-family="Arial" font-size="24px" font-style="normal" font-weight="normal" text-decoration="none" x="400" y="120">UNREGISTERED</text><text fill="#eeeeee" stroke="none" font-family="Arial" font-size="24px" font-style="normal" font-weight="normal" text-decoration="none" x="400" y="150">UNREGISTERED</text><text fill="#eeeeee" stroke="none" font-family="Arial" font-size="24px" font-style="normal" font-weight="normal" text-decoration="none" x="400" y="180">UNREGISTERED</text><text fill="#eeeeee" stroke="none" font-family="Arial" font-size="24px" font-style="normal" font-weight="normal" text-decoration="none" x="400" y="210">UNREGISTERED</text><text fill="#eeeeee" stroke="none" font-family="Arial" font-size="24px" font-style="normal" font-weight="normal" text-decoration="none" x="400" y="240">UNREGISTERED</text><text fill="#eeeeee" stroke="none" font-family="Arial" font-size="24px" font-style="normal" font-weight="normal" text-decoration="none" x="400" y="270">UNREGISTERED</text><text fill="#eeeeee" stroke="none" font-family="Arial" font-size="24px" font-style="normal" font-weight="normal" text-decoration="none" x="600" y="0">UNREGISTERED</text><text fill="#eeeeee" stroke="none" font-family="Arial" font-size="24px" font-style="normal" font-weight="normal" text-decoration="none" x="600" y="30">UNREGISTERED</text><text fill="#eeeeee" stroke="none" font-family="Arial" font-size="24px" font-style="normal" font-weight="normal" text-decoration="none" x="600" y="60">UNREGISTERED</text><text fill="#eeeeee" stroke="none" font-family="Arial" font-size="24px" font-style="normal" font-weight="normal" text-decoration="none" x="600" y="90">UNREGISTERED</text><text fill="#eeeeee" stroke="none" font-family="Arial" font-size="24px" font-style="normal" font-weight="normal" text-decoration="none" x="600" y="120">UNREGISTERED</text><text fill="#eeeeee" stroke="none" font-family="Arial" font-size="24px" font-style="normal" font-weight="normal" text-decoration="none" x="600" y="150">UNREGISTERED</text><text fill="#eeeeee" stroke="none" font-family="Arial" font-size="24px" font-style="normal" font-weight="normal" text-decoration="none" x="600" y="180">UNREGISTERED</text><text fill="#eeeeee" stroke="none" font-family="Arial" font-size="24px" font-style="normal" font-weight="normal" text-decoration="none" x="600" y="210">UNREGISTERED</text><text fill="#eeeeee" stroke="none" font-family="Arial" font-size="24px" font-style="normal" font-weight="normal" text-decoration="none" x="600" y="240">UNREGISTERED</text><text fill="#eeeeee" stroke="none" font-family="Arial" font-size="24px" font-style="normal" font-weight="normal" text-decoration="none" x="600" y="270">UNREGISTERED</text><g transform="translate(-158,-78) scale(1,1)"><rect fill="#C0C0C0" stroke="none" x="383" y="119" width="136" height="208" opacity="0.2"/></g><g transform="translate(-158,-78) scale(1,1)"><rect fill="#ffffff" stroke="none" x="376" y="112" width="136" height="208"/></g><g transform="translate(-158,-78) scale(1,1)"><path fill="none" stroke="#000000" d="M 376 112 L 512 112 L 512 320 L 376 320 L 376 112 Z Z" stroke-miterlimit="10"/></g><g transform="translate(-158,-78) scale(1,1)"><path fill="none" stroke="#000000" d="M 376 137 L 512 137" stroke-miterlimit="10"/></g><g transform="translate(-158,-78) scale(1,1)"><path fill="none" stroke="#000000" d="M 376 265 L 512 265" stroke-miterlimit="10"/></g><g transform="translate(-158,-78) scale(1,1)"><g><path fill="none" stroke="none"/><text fill="#000000" stroke="none" font-family="Arial" font-size="13px" font-style="normal" font-weight="bold" text-decoration="none" x="415.45458984375" y="131.5">Insurance</text></g></g><g transform="translate(-158,-78) scale(1,1)"><g><path fill="none" stroke="none"/><text fill="#000000" stroke="none" font-family="Arial" font-size="13px" font-style="normal" font-weight="normal" text-decoration="none" x="381" y="154.5">+isnId</text></g></g><g transform="translate(-158,-78) scale(1,1)"><g><path fill="none" stroke="none"/><text fill="#000000" stroke="none" font-family="Arial" font-size="13px" font-style="normal" font-weight="normal" text-decoration="none" x="381" y="169.5">+vehicles</text></g></g><g transform="translate(-158,-78) scale(1,1)"><g><path fill="none" stroke="none"/><text fill="#000000" stroke="none" font-family="Arial" font-size="13px" font-style="normal" font-weight="normal" text-decoration="none" x="381" y="184.5">+type insurance</text></g></g><g transform="translate(-158,-78) scale(1,1)"><g><path fill="none" stroke="none"/><text fill="#000000" stroke="none" font-family="Arial" font-size="13px" font-style="normal" font-weight="normal" text-decoration="none" x="381" y="199.5">+customer</text></g></g><g transform="translate(-158,-78) scale(1,1)"><g><path fill="none" stroke="none"/><text fill="#000000" stroke="none" font-family="Arial" font-size="13px" font-style="normal" font-weight="normal" text-decoration="none" x="381" y="214.5">+Name</text></g></g><g transform="translate(-158,-78) scale(1,1)"><g><path fill="none" stroke="none"/><text fill="#000000" stroke="none" font-family="Arial" font-size="13px" font-style="normal" font-weight="normal" text-decoration="none" x="381" y="229.5">+Number date</text></g></g><g transform="translate(-158,-78) scale(1,1)"><g><path fill="none" stroke="none"/><text fill="#000000" stroke="none" font-family="Arial" font-size="13px" font-style="normal" font-weight="normal" text-decoration="none" x="381" y="244.5">+isActive</text></g></g><g transform="translate(-158,-78) scale(1,1)"><g><path fill="none" stroke="none"/><text fill="#000000" stroke="none" font-family="Arial" font-size="13px" font-style="normal" font-weight="normal" text-decoration="none" x="381" y="259.5">+create date</text></g></g><g transform="translate(-158,-78) scale(1,1)"><g><path fill="none" stroke="none"/><text fill="#000000" stroke="none" font-family="Arial" font-size="13px" font-style="normal" font-weight="normal" text-decoration="none" x="381" y="282.5">+create()</text></g></g><g transform="translate(-158,-78) scale(1,1)"><g><path fill="none" stroke="none"/><text fill="#000000" stroke="none" font-family="Arial" font-size="13px" font-style="normal" font-weight="normal" text-decoration="none" x="381" y="297.5">+getAll()</text></g></g><g transform="translate(-158,-78) scale(1,1)"><g><path fill="none" stroke="none"/><text fill="#000000" stroke="none" font-family="Arial" font-size="13px" font-style="normal" font-weight="normal" text-decoration="none" x="381" y="312.5">+getExpire()</text></g></g><g transform="translate(-158,-78) scale(1,1)"><rect fill="#C0C0C0" stroke="none" x="199" y="95" width="100.75537109375" height="57" opacity="0.2"/></g><g transform="translate(-158,-78) scale(1,1)"><rect fill="#ffffff" stroke="none" x="192" y="88" width="100.75537109375" height="57"/></g><g transform="translate(-158,-78) scale(1,1)"><path fill="none" stroke="#000000" d="M 192 88 L 292.75537109375 88 L 292.75537109375 145 L 192 145 L 192 88 Z Z" stroke-miterlimit="10"/></g><g transform="translate(-158,-78) scale(1,1)"><path fill="none" stroke="#000000" d="M 192 113 L 292.75537109375 113" stroke-miterlimit="10"/></g><g transform="translate(-158,-78) scale(1,1)"><path fill="none" stroke="#000000" d="M 192 123 L 292.75537109375 123" stroke-miterlimit="10"/></g><g transform="translate(-158,-78) scale(1,1)"><g><path fill="none" stroke="none"/><text fill="#000000" stroke="none" font-family="Arial" font-size="13px" font-style="normal" font-weight="bold" text-decoration="none" x="200.102294921875" y="107.5">type insurance</text></g></g><g transform="translate(-158,-78) scale(1,1)"><g><path fill="none" stroke="none"/><text fill="#000000" stroke="none" font-family="Arial" font-size="13px" font-style="normal" font-weight="normal" text-decoration="none" x="197" y="140.5">+getOne()</text></g></g><g transform="translate(-158,-78) scale(1,1)"><rect fill="#C0C0C0" stroke="none" x="183" y="311" width="104" height="57" opacity="0.2"/></g><g transform="translate(-158,-78) scale(1,1)"><rect fill="#ffffff" stroke="none" x="176" y="304" width="104" height="57"/></g><g transform="translate(-158,-78) scale(1,1)"><path fill="none" stroke="#000000" d="M 176 304 L 280 304 L 280 361 L 176 361 L 176 304 Z Z" stroke-miterlimit="10"/></g><g transform="translate(-158,-78) scale(1,1)"><path fill="none" stroke="#000000" d="M 176 329 L 280 329" stroke-miterlimit="10"/></g><g transform="translate(-158,-78) scale(1,1)"><path fill="none" stroke="#000000" d="M 176 339 L 280 339" stroke-miterlimit="10"/></g><g transform="translate(-158,-78) scale(1,1)"><g><path fill="none" stroke="none"/><text fill="#000000" stroke="none" font-family="Arial" font-size="13px" font-style="normal" font-weight="bold" text-decoration="none" x="203.7900390625" y="323.5">Vehicles</text></g></g><g transform="translate(-158,-78) scale(1,1)"><g><path fill="none" stroke="none"/><text fill="#000000" stroke="none" font-family="Arial" font-size="13px" font-style="normal" font-weight="normal" text-decoration="none" x="181" y="356.5">+getOne()</text></g></g><g transform="translate(-158,-78) scale(1,1)"><path fill="none" stroke="#000000" d="M 375 182 L 294 142" stroke-miterlimit="10"/></g><g transform="translate(-158,-78) scale(1,1)"><path fill="#FFFFFF" stroke="none" d="M 315.9521041873601 143.45090376913436 L 294 142 L 308.4965378381919 158.54842562619993"/></g><g transform="translate(-158,-78) scale(1,1)"><path fill="none" stroke="#000000" d="M 315.9521041873601 143.45090376913436 L 294 142 L 308.4965378381919 158.54842562619993 L 315.9521041873601 143.45090376913436" stroke-miterlimit="10"/></g><g transform="translate(-158,-78) scale(1,1)"><path fill="none" stroke="#000000" d="M 375 253 L 281 304" stroke-miterlimit="10"/></g><g transform="translate(-158,-78) scale(1,1)"><path fill="#FFFFFF" stroke="none" d="M 294.8503637537034 286.9070943403382 L 281 304 L 302.8801956342728 301.7071766300152"/></g><g transform="translate(-158,-78) scale(1,1)"><path fill="none" stroke="#000000" d="M 294.8503637537034 286.9070943403382 L 281 304 L 302.8801956342728 301.7071766300152 L 294.8503637537034 286.9070943403382" stroke-miterlimit="10"/></g><g transform="translate(-158,-78) scale(1,1)"><rect fill="#C0C0C0" stroke="none" x="583" y="159" width="136" height="205" opacity="0.2"/></g><g transform="translate(-158,-78) scale(1,1)"><rect fill="#ffffff" stroke="none" x="576" y="152" width="136" height="205"/></g><g transform="translate(-158,-78) scale(1,1)"><path fill="none" stroke="#000000" d="M 576 152 L 712 152 L 712 357 L 576 357 L 576 152 Z Z" stroke-miterlimit="10"/></g><g transform="translate(-158,-78) scale(1,1)"><path fill="none" stroke="#000000" d="M 576 177 L 712 177" stroke-miterlimit="10"/></g><g transform="translate(-158,-78) scale(1,1)"><path fill="none" stroke="#000000" d="M 576 290 L 712 290" stroke-miterlimit="10"/></g><g transform="translate(-158,-78) scale(1,1)"><g><path fill="none" stroke="none"/><text fill="#000000" stroke="none" font-family="Arial" font-size="13px" font-style="normal" font-weight="bold" text-decoration="none" x="598.471435546875" y="171.5">insurance detail</text></g></g><g transform="translate(-158,-78) scale(1,1)"><g><path fill="none" stroke="none"/><text fill="#000000" stroke="none" font-family="Arial" font-size="13px" font-style="normal" font-weight="normal" text-decoration="none" x="581" y="194.5">+insdId</text></g></g><g transform="translate(-158,-78) scale(1,1)"><g><path fill="none" stroke="none"/><text fill="#000000" stroke="none" font-family="Arial" font-size="13px" font-style="normal" font-weight="normal" text-decoration="none" x="581" y="209.5">+insurance</text></g></g><g transform="translate(-158,-78) scale(1,1)"><g><path fill="none" stroke="none"/><text fill="#000000" stroke="none" font-family="Arial" font-size="13px" font-style="normal" font-weight="normal" text-decoration="none" x="581" y="224.5">+start date</text></g></g><g transform="translate(-158,-78) scale(1,1)"><g><path fill="none" stroke="none"/><text fill="#000000" stroke="none" font-family="Arial" font-size="13px" font-style="normal" font-weight="normal" text-decoration="none" x="581" y="239.5">+end date</text></g></g><g transform="translate(-158,-78) scale(1,1)"><g><path fill="none" stroke="none"/><text fill="#000000" stroke="none" font-family="Arial" font-size="13px" font-style="normal" font-weight="normal" text-decoration="none" x="581" y="254.5">+isActive</text></g></g><g transform="translate(-158,-78) scale(1,1)"><g><path fill="none" stroke="none"/><text fill="#000000" stroke="none" font-family="Arial" font-size="13px" font-style="normal" font-weight="normal" text-decoration="none" x="581" y="269.5">+create date</text></g></g><g transform="translate(-158,-78) scale(1,1)"><g><path fill="none" stroke="none"/><text fill="#000000" stroke="none" font-family="Arial" font-size="13px" font-style="normal" font-weight="normal" text-decoration="none" x="581" y="284.5">+empoyee</text></g></g><g transform="translate(-158,-78) scale(1,1)"><g><path fill="none" stroke="none"/><text fill="#000000" stroke="none" font-family="Arial" font-size="13px" font-style="normal" font-weight="normal" text-decoration="none" x="581" y="307.5">+create()</text></g></g><g transform="translate(-158,-78) scale(1,1)"><g><path fill="none" stroke="none"/><text fill="#000000" stroke="none" font-family="Arial" font-size="13px" font-style="normal" font-weight="normal" text-decoration="none" x="581" y="322.5">+renew()</text></g></g><g transform="translate(-158,-78) scale(1,1)"><g><path fill="none" stroke="none"/><text fill="#000000" stroke="none" font-family="Arial" font-size="13px" font-style="normal" font-weight="normal" text-decoration="none" x="581" y="337.5">+getAll()</text></g></g><g transform="translate(-158,-78) scale(1,1)"><g><path fill="none" stroke="none"/><text fill="#000000" stroke="none" font-family="Arial" font-size="13px" font-style="normal" font-weight="normal" text-decoration="none" x="581" y="352.5">+getOne()</text></g></g><g transform="translate(-158,-78) scale(1,1)"><path fill="none" stroke="#000000" d="M 576 241 L 512 241" stroke-miterlimit="10"/></g><g transform="translate(-158,-78) scale(1,1)"><path fill="#000000" stroke="none" d="M 522.1626748576241 236.790482243984 L 512 241 L 522.1626748576241 245.209517756016 L 534 241"/></g><g transform="translate(-158,-78) scale(1,1)"><path fill="none" stroke="#000000" d="M 522.1626748576241 236.790482243984 L 512 241 L 522.1626748576241 245.209517756016 L 534 241 L 522.1626748576241 236.790482243984" stroke-miterlimit="10"/></g><g transform="translate(-158,-78) scale(1,1)"><rect fill="#C0C0C0" stroke="none" x="775" y="199" width="89.57080078125" height="57" opacity="0.2"/></g><g transform="translate(-158,-78) scale(1,1)"><rect fill="#ffffff" stroke="none" x="768" y="192" width="89.57080078125" height="57"/></g><g transform="translate(-158,-78) scale(1,1)"><path fill="none" stroke="#000000" d="M 768 192 L 857.57080078125 192 L 857.57080078125 249 L 768 249 L 768 192 Z Z" stroke-miterlimit="10"/></g><g transform="translate(-158,-78) scale(1,1)"><path fill="none" stroke="#000000" d="M 768 217 L 857.57080078125 217" stroke-miterlimit="10"/></g><g transform="translate(-158,-78) scale(1,1)"><path fill="none" stroke="#000000" d="M 768 227 L 857.57080078125 227" stroke-miterlimit="10"/></g><g transform="translate(-158,-78) scale(1,1)"><g><path fill="none" stroke="none"/><text fill="#000000" stroke="none" font-family="Arial" font-size="13px" font-style="normal" font-weight="bold" text-decoration="none" x="784.601806640625" y="211.5">employee</text></g></g><g transform="translate(-158,-78) scale(1,1)"><g><path fill="none" stroke="none"/><text fill="#000000" stroke="none" font-family="Arial" font-size="13px" font-style="normal" font-weight="normal" text-decoration="none" x="773" y="244.5">+getOne()</text></g></g><g transform="translate(-158,-78) scale(1,1)"><path fill="none" stroke="#000000" d="M 713 240 L 767 229" stroke-miterlimit="10"/></g><g transform="translate(-158,-78) scale(1,1)"><path fill="#FFFFFF" stroke="none" d="M 748.764143693272 241.30664636529255 L 767 229 L 745.403189246206 224.8074154433323"/></g><g transform="translate(-158,-78) scale(1,1)"><path fill="none" stroke="#000000" d="M 748.764143693272 241.30664636529255 L 767 229 L 745.403189246206 224.8074154433323 L 748.764143693272 241.30664636529255" stroke-miterlimit="10"/></g><g transform="translate(-158,-78) scale(1,1)"><rect fill="#C0C0C0" stroke="none" x="175" y="199" width="89.57080078125" height="57" opacity="0.2"/></g><g transform="translate(-158,-78) scale(1,1)"><rect fill="#ffffff" stroke="none" x="168" y="192" width="89.57080078125" height="57"/></g><g transform="translate(-158,-78) scale(1,1)"><path fill="none" stroke="#000000" d="M 168 192 L 257.57080078125 192 L 257.57080078125 249 L 168 249 L 168 192 Z Z" stroke-miterlimit="10"/></g><g transform="translate(-158,-78) scale(1,1)"><path fill="none" stroke="#000000" d="M 168 217 L 257.57080078125 217" stroke-miterlimit="10"/></g><g transform="translate(-158,-78) scale(1,1)"><path fill="none" stroke="#000000" d="M 168 227 L 257.57080078125 227" stroke-miterlimit="10"/></g><g transform="translate(-158,-78) scale(1,1)"><g><path fill="none" stroke="none"/><text fill="#000000" stroke="none" font-family="Arial" font-size="13px" font-style="normal" font-weight="bold" text-decoration="none" x="184.611328125" y="211.5">Customer</text></g></g><g transform="translate(-158,-78) scale(1,1)"><g><path fill="none" stroke="none"/><text fill="#000000" stroke="none" font-family="Arial" font-size="13px" font-style="normal" font-weight="normal" text-decoration="none" x="173" y="244.5">+getOne()</text></g></g><g transform="translate(-158,-78) scale(1,1)"><path fill="none" stroke="#000000" d="M 375 217 L 259 219" stroke-miterlimit="10"/></g><g transform="translate(-158,-78) scale(1,1)"><path fill="#FFFFFF" stroke="none" d="M 279.1771951648189 210.2318305627224 L 259 219 L 279.4674635940595 227.06739945867625"/></g><g transform="translate(-158,-78) scale(1,1)"><path fill="none" stroke="#000000" d="M 279.1771951648189 210.2318305627224 L 259 219 L 279.4674635940595 227.06739945867625 L 279.1771951648189 210.2318305627224" stroke-miterlimit="10"/></g></g></svg>