<svg version="1.1" xmlns="http://www.w3.org/2000/svg" xmlns:xlink="http://www.w3.org/1999/xlink" width="716" height="484"><defs/><g><text fill="#eeeeee" stroke="none" font-family="Arial" font-size="24px" font-style="normal" font-weight="normal" text-decoration="none" x="0" y="0">UNREGISTERED</text><text fill="#eeeeee" stroke="none" font-family="Arial" font-size="24px" font-style="normal" font-weight="normal" text-decoration="none" x="0" y="30">UNREGISTERED</text><text fill="#eeeeee" stroke="none" font-family="Arial" font-size="24px" font-style="normal" font-weight="normal" text-decoration="none" x="0" y="60">UNREGISTERED</text><text fill="#eeeeee" stroke="none" font-family="Arial" font-size="24px" font-style="normal" font-weight="normal" text-decoration="none" x="0" y="90">UNREGISTERED</text><text fill="#eeeeee" stroke="none" font-family="Arial" font-size="24px" font-style="normal" font-weight="normal" text-decoration="none" x="0" y="120">UNREGISTERED</text><text fill="#eeeeee" stroke="none" font-family="Arial" font-size="24px" font-style="normal" font-weight="normal" text-decoration="none" x="0" y="150">UNREGISTERED</text><text fill="#eeeeee" stroke="none" font-family="Arial" font-size="24px" font-style="normal" font-weight="normal" text-decoration="none" x="0" y="180">UNREGISTERED</text><text fill="#eeeeee" stroke="none" font-family="Arial" font-size="24px" font-style="normal" font-weight="normal" text-decoration="none" x="0" y="210">UNREGISTERED</text><text fill="#eeeeee" stroke="none" font-family="Arial" font-size="24px" font-style="normal" font-weight="normal" text-decoration="none" x="0" y="240">UNREGISTERED</text><text fill="#eeeeee" stroke="none" font-family="Arial" font-size="24px" font-style="normal" font-weight="normal" text-decoration="none" x="0" y="270">UNREGISTERED</text><text fill="#eeeeee" stroke="none" font-family="Arial" font-size="24px" font-style="normal" font-weight="normal" text-decoration="none" x="0" y="300">UNREGISTERED</text><text fill="#eeeeee" stroke="none" font-family="Arial" font-size="24px" font-style="normal" font-weight="normal" text-decoration="none" x="0" y="330">UNREGISTERED</text><text fill="#eeeeee" stroke="none" font-family="Arial" font-size="24px" font-style="normal" font-weight="normal" text-decoration="none" x="0" y="360">UNREGISTERED</text><text fill="#eeeeee" stroke="none" font-family="Arial" font-size="24px" font-style="normal" font-weight="normal" text-decoration="none" x="0" y="390">UNREGISTERED</text><text fill="#eeeeee" stroke="none" font-family="Arial" font-size="24px" font-style="normal" font-weight="normal" text-decoration="none" x="0" y="420">UNREGISTERED</text><text fill="#eeeeee" stroke="none" font-family="Arial" font-size="24px" font-style="normal" font-weight="normal" text-decoration="none" x="0" y="450">UNREGISTERED</text><text fill="#eeeeee" stroke="none" font-family="Arial" font-size="24px" font-style="normal" font-weight="normal" text-decoration="none" x="0" y="480">UNREGISTERED</text><text fill="#eeeeee" stroke="none" font-family="Arial" font-size="24px" font-style="normal" font-weight="normal" text-decoration="none" x="200" y="0">UNREGISTERED</text><text fill="#eeeeee" stroke="none" font-family="Arial" font-size="24px" font-style="normal" font-weight="normal" text-decoration="none" x="200" y="30">UNREGISTERED</text><text fill="#eeeeee" stroke="none" font-family="Arial" font-size="24px" font-style="normal" font-weight="normal" text-decoration="none" x="200" y="60">UNREGISTERED</text><text fill="#eeeeee" stroke="none" font-family="Arial" font-size="24px" font-style="normal" font-weight="normal" text-decoration="none" x="200" y="90">UNREGISTERED</text><text fill="#eeeeee" stroke="none" font-family="Arial" font-size="24px" font-style="normal" font-weight="normal" text-decoration="none" x="200" y="120">UNREGISTERED</text><text fill="#eeeeee" stroke="none" font-family="Arial" font-size="24px" font-style="normal" font-weight="normal" text-decoration="none" x="200" y="150">UNREGISTERED</text><text fill="#eeeeee" stroke="none" font-family="Arial" font-size="24px" font-style="normal" font-weight="normal" text-decoration="none" x="200" y="180">UNREGISTERED</text><text fill="#eeeeee" stroke="none" font-family="Arial" font-size="24px" font-style="normal" font-weight="normal" text-decoration="none" x="200" y="210">UNREGISTERED</text><text fill="#eeeeee" stroke="none" font-family="Arial" font-size="24px" font-style="normal" font-weight="normal" text-decoration="none" x="200" y="240">UNREGISTERED</text><text fill="#eeeeee" stroke="none" font-family="Arial" font-size="24px" font-style="normal" font-weight="normal" text-decoration="none" x="200" y="270">UNREGISTERED</text><text fill="#eeeeee" stroke="none" font-family="Arial" font-size="24px" font-style="normal" font-weight="normal" text-decoration="none" x="200" y="300">UNREGISTERED</text><text fill="#eeeeee" stroke="none" font-family="Arial" font-size="24px" font-style="normal" font-weight="normal" text-decoration="none" x="200" y="330">UNREGISTERED</text><text fill="#eeeeee" stroke="none" font-family="Arial" font-size="24px" font-style="normal" font-weight="normal" text-decoration="none" x="200" y="360">UNREGISTERED</text><text fill="#eeeeee" stroke="none" font-family="Arial" font-size="24px" font-style="normal" font-weight="normal" text-decoration="none" x="200" y="390">UNREGISTERED</text><text fill="#eeeeee" stroke="none" font-family="Arial" font-size="24px" font-style="normal" font-weight="normal" text-decoration="none" x="200" y="420">UNREGISTERED</text><text fill="#eeeeee" stroke="none" font-family="Arial" font-size="24px" font-style="normal" font-weight="normal" text-decoration="none" x="200" y="450">UNREGISTERED</text><text fill="#eeeeee" stroke="none" font-family="Arial" font-size="24px" font-style="normal" font-weight="normal" text-decoration="none" x="200" y="480">UNREGISTERED</text><text fill="#eeeeee" stroke="none" font-family="Arial" font-size="24px" font-style="normal" font-weight="normal" text-decoration="none" x="400" y="0">UNREGISTERED</text><text fill="#eeeeee" stroke="none" font-family="Arial" font-size="24px" font-style="normal" font-weight="normal" text-decoration="none" x="400" y="30">UNREGISTERED</text><text fill="#eeeeee" stroke="none" font-family="Arial" font-size="24px" font-style="normal" font-weight="normal" text-decoration="none" x="400" y="60">UNREGISTERED</text><text fill="#eeeeee" stroke="none" font-family="Arial" font-size="24px" font-style="normal" font-weight="normal" text-decoration="none" x="400" y="90">UNREGISTERED</text><text fill="#eeeeee" stroke="none" font-family="Arial" font-size="24px" font-style="normal" font-weight="normal" text-decoration="none" x="400" y="120">UNREGISTERED</text><text fill="#eeeeee" stroke="none" font-family="Arial" font-size="24px" font-style="normal" font-weight="normal" text-decoration="none" x="400" y="150">UNREGISTERED</text><text fill="#eeeeee" stroke="none" font-family="Arial" font-size="24px" font-style="normal" font-weight="normal" text-decoration="none" x="400" y="180">UNREGISTERED</text><text fill="#eeeeee" stroke="none" font-family="Arial" font-size="24px" font-style="normal" font-weight="normal" text-decoration="none" x="400" y="210">UNREGISTERED</text><text fill="#eeeeee" stroke="none" font-family="Arial" font-size="24px" font-style="normal" font-weight="normal" text-decoration="none" x="400" y="240">UNREGISTERED</text><text fill="#eeeeee" stroke="none" font-family="Arial" font-size="24px" font-style="normal" font-weight="normal" text-decoration="none" x="400" y="270">UNREGISTERED</text><text fill="#eeeeee" stroke="none" font-family="Arial" font-size="24px" font-style="normal" font-weight="normal" text-decoration="none" x="400" y="300">UNREGISTERED</text><text fill="#eeeeee" stroke="none" font-family="Arial" font-size="24px" font-style="normal" font-weight="normal" text-decoration="none" x="400" y="330">UNREGISTERED</text><text fill="#eeeeee" stroke="none" font-family="Arial" font-size="24px" font-style="normal" font-weight="normal" text-decoration="none" x="400" y="360">UNREGISTERED</text><text fill="#eeeeee" stroke="none" font-family="Arial" font-size="24px" font-style="normal" font-weight="normal" text-decoration="none" x="400" y="390">UNREGISTERED</text><text fill="#eeeeee" stroke="none" font-family="Arial" font-size="24px" font-style="normal" font-weight="normal" text-decoration="none" x="400" y="420">UNREGISTERED</text><text fill="#eeeeee" stroke="none" font-family="Arial" font-size="24px" font-style="normal" font-weight="normal" text-decoration="none" x="400" y="450">UNREGISTERED</text><text fill="#eeeeee" stroke="none" font-family="Arial" font-size="24px" font-style="normal" font-weight="normal" text-decoration="none" x="400" y="480">UNREGISTERED</text><text fill="#eeeeee" stroke="none" font-family="Arial" font-size="24px" font-style="normal" font-weight="normal" text-decoration="none" x="600" y="0">UNREGISTERED</text><text fill="#eeeeee" stroke="none" font-family="Arial" font-size="24px" font-style="normal" font-weight="normal" text-decoration="none" x="600" y="30">UNREGISTERED</text><text fill="#eeeeee" stroke="none" font-family="Arial" font-size="24px" font-style="normal" font-weight="normal" text-decoration="none" x="600" y="60">UNREGISTERED</text><text fill="#eeeeee" stroke="none" font-family="Arial" font-size="24px" font-style="normal" font-weight="normal" text-decoration="none" x="600" y="90">UNREGISTERED</text><text fill="#eeeeee" stroke="none" font-family="Arial" font-size="24px" font-style="normal" font-weight="normal" text-decoration="none" x="600" y="120">UNREGISTERED</text><text fill="#eeeeee" stroke="none" font-family="Arial" font-size="24px" font-style="normal" font-weight="normal" text-decoration="none" x="600" y="150">UNREGISTERED</text><text fill="#eeeeee" stroke="none" font-family="Arial" font-size="24px" font-style="normal" font-weight="normal" text-decoration="none" x="600" y="180">UNREGISTERED</text><text fill="#eeeeee" stroke="none" font-family="Arial" font-size="24px" font-style="normal" font-weight="normal" text-decoration="none" x="600" y="210">UNREGISTERED</text><text fill="#eeeeee" stroke="none" font-family="Arial" font-size="24px" font-style="normal" font-weight="normal" text-decoration="none" x="600" y="240">UNREGISTERED</text><text fill="#eeeeee" stroke="none" font-family="Arial" font-size="24px" font-style="normal" font-weight="normal" text-decoration="none" x="600" y="270">UNREGISTERED</text><text fill="#eeeeee" stroke="none" font-family="Arial" font-size="24px" font-style="normal" font-weight="normal" text-decoration="none" x="600" y="300">UNREGISTERED</text><text fill="#eeeeee" stroke="none" font-family="Arial" font-size="24px" font-style="normal" font-weight="normal" text-decoration="none" x="600" y="330">UNREGISTERED</text><text fill="#eeeeee" stroke="none" font-family="Arial" font-size="24px" font-style="normal" font-weight="normal" text-decoration="none" x="600" y="360">UNREGISTERED</text><text fill="#eeeeee" stroke="none" font-family="Arial" font-size="24px" font-style="normal" font-weight="normal" text-decoration="none" x="600" y="390">UNREGISTERED</text><text fill="#eeeeee" stroke="none" font-family="Arial" font-size="24px" font-style="normal" font-weight="normal" text-decoration="none" x="600" y="420">UNREGISTERED</text><text fill="#eeeeee" stroke="none" font-family="Arial" font-size="24px" font-style="normal" font-weight="normal" text-decoration="none" x="600" y="450">UNREGISTERED</text><text fill="#eeeeee" stroke="none" font-family="Arial" font-size="24px" font-style="normal" font-weight="normal" text-decoration="none" x="600" y="480">UNREGISTERED</text><g transform="translate(-70,-38) scale(1,1)"><path fill="none" stroke="#000000" d="M 216 48 L 776 48 L 776 512 L 216 512 L 216 48" stroke-miterlimit="10"/></g><g transform="translate(-70,-38) scale(1,1)"><path fill="#ffffff" stroke="none" d="M 216 48 L 216 70 L 320.3974609375 70 L 331.3974609375 59 L 331.3974609375 48 L 216 48"/></g><g transform="translate(-70,-38) scale(1,1)"><path fill="none" stroke="#000000" d="M 216 48 L 216 70 L 320.3974609375 70 L 331.3974609375 59 L 331.3974609375 48 L 216 48 L 216 48" stroke-miterlimit="10"/></g><g transform="translate(-70,-38) scale(1,1)"><g><path fill="none" stroke="none"/><text fill="#000000" stroke="none" font-family="Arial" font-size="13px" font-style="normal" font-weight="normal" text-decoration="none" x="247.9599609375" y="65.5">Transaction</text></g></g><g transform="translate(-70,-38) scale(1,1)"><g><path fill="none" stroke="none"/><text fill="#000000" stroke="none" font-family="Arial" font-size="13px" font-style="normal" font-weight="bold" text-decoration="none" x="221" y="65.5">pkg</text></g></g><g transform="translate(-70,-38) scale(1,1)"><path fill="#ffffff" stroke="none" d="M 105.80705539772727 281.68 C 105.80705539772727 276.886167936 109.69289772267273 273 114.486328125 273 C 119.27975852732727 273 123.16560085227273 276.886167936 123.16560085227273 281.68 C 123.16560085227273 286.473832064 119.27975852732727 290.36 114.486328125 290.36 C 109.69289772267273 290.36 105.80705539772727 286.473832064 105.80705539772727 281.68 Z"/></g><g transform="translate(-70,-38) scale(1,1)"><path fill="none" stroke="#000000" d="M 105.80705539772727 281.68 C 105.80705539772727 276.886167936 109.69289772267273 273 114.486328125 273 C 119.27975852732727 273 123.16560085227273 276.886167936 123.16560085227273 281.68 C 123.16560085227273 286.473832064 119.27975852732727 290.36 114.486328125 290.36 C 109.69289772267273 290.36 105.80705539772727 286.473832064 105.80705539772727 281.68 Z" stroke-miterlimit="10"/></g><g transform="translate(-70,-38) scale(1,1)"><path fill="none" stroke="#000000" d="M 114.486328125 290.36 L 114.486328125 307.64" stroke-miterlimit="10"/></g><g transform="translate(-70,-38) scale(1,1)"><path fill="none" stroke="#000000" d="M 105.29650994318182 296.84 L 123.67614630681818 296.84" stroke-miterlimit="10"/></g><g transform="translate(-70,-38) scale(1,1)"><path fill="none" stroke="#000000" d="M 114.486328125 307.64 L 101.72269176136363 325" stroke-miterlimit="10"/></g><g transform="translate(-70,-38) scale(1,1)"><path fill="none" stroke="#000000" d="M 114.486328125 307.64 L 127.24996448863637 325" stroke-miterlimit="10"/></g><g transform="translate(-70,-38) scale(1,1)"><g><path fill="none" stroke="none"/><text fill="#000000" stroke="none" font-family="Arial" font-size="13px" font-style="normal" font-weight="bold" text-decoration="none" x="86.302734375" y="345.5">employee</text></g></g><g transform="translate(-70,-38) scale(1,1)"><path fill="#C0C0C0" stroke="none" d="M 407 323 C 407 311.954304 433.862912 303 467 303 C 500.137088 303 527 311.954304 527 323 C 527 334.045696 500.137088 343 467 343 C 433.862912 343 407 334.045696 407 323 Z" opacity="0.2"/></g><g transform="translate(-70,-38) scale(1,1)"><path fill="#ffffff" stroke="none" d="M 400 316 C 400 304.954304 426.862912 296 460 296 C 493.137088 296 520 304.954304 520 316 C 520 327.045696 493.137088 336 460 336 C 426.862912 336 400 327.045696 400 316 Z"/></g><g transform="translate(-70,-38) scale(1,1)"><path fill="none" stroke="#000000" d="M 400 316 C 400 304.954304 426.862912 296 460 296 C 493.137088 296 520 304.954304 520 316 C 520 327.045696 493.137088 336 460 336 C 426.862912 336 400 327.045696 400 316 Z" stroke-miterlimit="10"/></g><g transform="translate(-70,-38) scale(1,1)"><g><path fill="none" stroke="none"/><text fill="#000000" stroke="none" font-family="Arial" font-size="13px" font-style="normal" font-weight="bold" text-decoration="none" x="428.20458984375" y="323">transaction</text></g></g><g transform="translate(-70,-38) scale(1,1)"><path fill="none" stroke="#000000" d="M 150 312 L 399 315" stroke-miterlimit="10"/></g><g transform="translate(-70,-38) scale(1,1)"><path fill="#C0C0C0" stroke="none" d="M 247 248 C 247 238.6111584 269.6096176 231 297.5 231 C 325.3903824 231 348 238.6111584 348 248 C 348 257.3888416 325.3903824 265 297.5 265 C 269.6096176 265 247 257.3888416 247 248 Z" opacity="0.2"/></g><g transform="translate(-70,-38) scale(1,1)"><path fill="#ffffff" stroke="none" d="M 240 241 C 240 231.6111584 262.6096176 224 290.5 224 C 318.3903824 224 341 231.6111584 341 241 C 341 250.3888416 318.3903824 258 290.5 258 C 262.6096176 258 240 250.3888416 240 241 Z"/></g><g transform="translate(-70,-38) scale(1,1)"><path fill="none" stroke="#000000" d="M 240 241 C 240 231.6111584 262.6096176 224 290.5 224 C 318.3903824 224 341 231.6111584 341 241 C 341 250.3888416 318.3903824 258 290.5 258 C 262.6096176 258 240 250.3888416 240 241 Z" stroke-miterlimit="10"/></g><g transform="translate(-70,-38) scale(1,1)"><g><path fill="none" stroke="none"/><text fill="#000000" stroke="none" font-family="Arial" font-size="13px" font-style="normal" font-weight="bold" text-decoration="none" x="272.431396484375" y="248">ledger</text></g></g><g transform="translate(-70,-38) scale(1,1)"><path fill="none" stroke="#000000" d="M 412 295 L 331 259" stroke-miterlimit="10" stroke-dasharray="3"/></g><g transform="translate(-70,-38) scale(1,1)"><path fill="none" stroke="#000000" d="M 341.9964167340228 259.28074723810596 L 331 259 L 338.5771225655166 266.9741591172449" stroke-miterlimit="10"/></g><g transform="translate(-70,-38) scale(1,1)"><g><path fill="none" stroke="none"/><text fill="#000000" stroke="none" font-family="Arial" font-size="13px" font-style="normal" font-weight="normal" text-decoration="none" x="330.5" y="310.5">«include»</text></g></g><g transform="translate(-70,-38) scale(1,1)"><path fill="#C0C0C0" stroke="none" d="M 311 184 C 311 174.6111584 333.6096176 167 361.5 167 C 389.3903824 167 412 174.6111584 412 184 C 412 193.3888416 389.3903824 201 361.5 201 C 333.6096176 201 311 193.3888416 311 184 Z" opacity="0.2"/></g><g transform="translate(-70,-38) scale(1,1)"><path fill="#ffffff" stroke="none" d="M 304 177 C 304 167.6111584 326.6096176 160 354.5 160 C 382.3903824 160 405 167.6111584 405 177 C 405 186.3888416 382.3903824 194 354.5 194 C 326.6096176 194 304 186.3888416 304 177 Z"/></g><g transform="translate(-70,-38) scale(1,1)"><path fill="none" stroke="#000000" d="M 304 177 C 304 167.6111584 326.6096176 160 354.5 160 C 382.3903824 160 405 167.6111584 405 177 C 405 186.3888416 382.3903824 194 354.5 194 C 326.6096176 194 304 186.3888416 304 177 Z" stroke-miterlimit="10"/></g><g transform="translate(-70,-38) scale(1,1)"><g><path fill="none" stroke="none"/><text fill="#000000" stroke="none" font-family="Arial" font-size="13px" font-style="normal" font-weight="bold" text-decoration="none" x="334.62548828125" y="184">branch</text></g></g><g transform="translate(-70,-38) scale(1,1)"><path fill="none" stroke="#000000" d="M 444 295 L 368 195" stroke-miterlimit="10" stroke-dasharray="3"/></g><g transform="translate(-70,-38) scale(1,1)"><path fill="none" stroke="#000000" d="M 377.5007234025622 200.54402875425504 L 368 195 L 370.7978056169025 205.63824627135642" stroke-miterlimit="10"/></g><g transform="translate(-70,-38) scale(1,1)"><g><path fill="none" stroke="none"/><text fill="#000000" stroke="none" font-family="Arial" font-size="13px" font-style="normal" font-weight="normal" text-decoration="none" x="354.5" y="269.5">«include»</text></g></g><g transform="translate(-70,-38) scale(1,1)"><path fill="#C0C0C0" stroke="none" d="M 607 416 C 607 406.6111584 636.101488 399 672 399 C 707.898512 399 737 406.6111584 737 416 C 737 425.3888416 707.898512 433 672 433 C 636.101488 433 607 425.3888416 607 416 Z" opacity="0.2"/></g><g transform="translate(-70,-38) scale(1,1)"><path fill="#ffffff" stroke="none" d="M 600 409 C 600 399.6111584 629.101488 392 665 392 C 700.898512 392 730 399.6111584 730 409 C 730 418.3888416 700.898512 426 665 426 C 629.101488 426 600 418.3888416 600 409 Z"/></g><g transform="translate(-70,-38) scale(1,1)"><path fill="none" stroke="#000000" d="M 600 409 C 600 399.6111584 629.101488 392 665 392 C 700.898512 392 730 399.6111584 730 409 C 730 418.3888416 700.898512 426 665 426 C 629.101488 426 600 418.3888416 600 409 Z" stroke-miterlimit="10"/></g><g transform="translate(-70,-38) scale(1,1)"><g><path fill="none" stroke="none"/><text fill="#000000" stroke="none" font-family="Arial" font-size="13px" font-style="normal" font-weight="bold" text-decoration="none" x="627.4345703125" y="416">export striker</text></g></g><g transform="translate(-70,-38) scale(1,1)"><path fill="#C0C0C0" stroke="none" d="M 631 248 C 631 238.6111584 652.4903296 231 679 231 C 705.5096704 231 727 238.6111584 727 248 C 727 257.3888416 705.5096704 265 679 265 C 652.4903296 265 631 257.3888416 631 248 Z" opacity="0.2"/></g><g transform="translate(-70,-38) scale(1,1)"><path fill="#ffffff" stroke="none" d="M 624 241 C 624 231.6111584 645.4903296 224 672 224 C 698.5096704 224 720 231.6111584 720 241 C 720 250.3888416 698.5096704 258 672 258 C 645.4903296 258 624 250.3888416 624 241 Z"/></g><g transform="translate(-70,-38) scale(1,1)"><path fill="none" stroke="#000000" d="M 624 241 C 624 231.6111584 645.4903296 224 672 224 C 698.5096704 224 720 231.6111584 720 241 C 720 250.3888416 698.5096704 258 672 258 C 645.4903296 258 624 250.3888416 624 241 Z" stroke-miterlimit="10"/></g><g transform="translate(-70,-38) scale(1,1)"><g><path fill="none" stroke="none"/><text fill="#000000" stroke="none" font-family="Arial" font-size="13px" font-style="normal" font-weight="bold" text-decoration="none" x="647.425048828125" y="248">expense</text></g></g><g transform="translate(-70,-38) scale(1,1)"><path fill="#C0C0C0" stroke="none" d="M 647 328 C 647 318.6111584 669.6096176 311 697.5 311 C 725.3903824 311 748 318.6111584 748 328 C 748 337.3888416 725.3903824 345 697.5 345 C 669.6096176 345 647 337.3888416 647 328 Z" opacity="0.2"/></g><g transform="translate(-70,-38) scale(1,1)"><path fill="#ffffff" stroke="none" d="M 640 321 C 640 311.6111584 662.6096176 304 690.5 304 C 718.3903824 304 741 311.6111584 741 321 C 741 330.3888416 718.3903824 338 690.5 338 C 662.6096176 338 640 330.3888416 640 321 Z"/></g><g transform="translate(-70,-38) scale(1,1)"><path fill="none" stroke="#000000" d="M 640 321 C 640 311.6111584 662.6096176 304 690.5 304 C 718.3903824 304 741 311.6111584 741 321 C 741 330.3888416 718.3903824 338 690.5 338 C 662.6096176 338 640 330.3888416 640 321 Z" stroke-miterlimit="10"/></g><g transform="translate(-70,-38) scale(1,1)"><g><path fill="none" stroke="none"/><text fill="#000000" stroke="none" font-family="Arial" font-size="13px" font-style="normal" font-weight="bold" text-decoration="none" x="665.569580078125" y="328">payment</text></g></g><g transform="translate(-70,-38) scale(1,1)"><path fill="#C0C0C0" stroke="none" d="M 599 184 C 599 174.6111584 621.6096176 167 649.5 167 C 677.3903824 167 700 174.6111584 700 184 C 700 193.3888416 677.3903824 201 649.5 201 C 621.6096176 201 599 193.3888416 599 184 Z" opacity="0.2"/></g><g transform="translate(-70,-38) scale(1,1)"><path fill="#ffffff" stroke="none" d="M 592 177 C 592 167.6111584 614.6096176 160 642.5 160 C 670.3903824 160 693 167.6111584 693 177 C 693 186.3888416 670.3903824 194 642.5 194 C 614.6096176 194 592 186.3888416 592 177 Z"/></g><g transform="translate(-70,-38) scale(1,1)"><path fill="none" stroke="#000000" d="M 592 177 C 592 167.6111584 614.6096176 160 642.5 160 C 670.3903824 160 693 167.6111584 693 177 C 693 186.3888416 670.3903824 194 642.5 194 C 614.6096176 194 592 186.3888416 592 177 Z" stroke-miterlimit="10"/></g><g transform="translate(-70,-38) scale(1,1)"><g><path fill="none" stroke="none"/><text fill="#000000" stroke="none" font-family="Arial" font-size="13px" font-style="normal" font-weight="bold" text-decoration="none" x="621.54638671875" y="184">income</text></g></g><g transform="translate(-70,-38) scale(1,1)"><path fill="none" stroke="#000000" d="M 625 391 L 506 337" stroke-miterlimit="10"/></g><g transform="translate(-70,-38) scale(1,1)"><path fill="#FFFFFF" stroke="none" d="M 527.9878069264583 337.73235685617897 L 506 337 L 521.0298728818666 353.06558188037184"/></g><g transform="translate(-70,-38) scale(1,1)"><path fill="none" stroke="#000000" d="M 527.9878069264583 337.73235685617897 L 506 337 L 521.0298728818666 353.06558188037184 L 527.9878069264583 337.73235685617897" stroke-miterlimit="10"/></g><g transform="translate(-70,-38) scale(1,1)"><path fill="none" stroke="#000000" d="M 639 320 L 521 317" stroke-miterlimit="10"/></g><g transform="translate(-70,-38) scale(1,1)"><path fill="#FFFFFF" stroke="none" d="M 541.5327582246609 309.10026331529843 L 521 317 L 541.1048099564622 325.93289519778097"/></g><g transform="translate(-70,-38) scale(1,1)"><path fill="none" stroke="#000000" d="M 541.5327582246609 309.10026331529843 L 521 317 L 541.1048099564622 325.93289519778097 L 541.5327582246609 309.10026331529843" stroke-miterlimit="10"/></g><g transform="translate(-70,-38) scale(1,1)"><path fill="none" stroke="#000000" d="M 623 258 L 519 295" stroke-miterlimit="10"/></g><g transform="translate(-70,-38) scale(1,1)"><path fill="#FFFFFF" stroke="none" d="M 535.3275882736081 280.2551751055654 L 519 295 L 540.9715140589531 296.1191827184273"/></g><g transform="translate(-70,-38) scale(1,1)"><path fill="none" stroke="#000000" d="M 535.3275882736081 280.2551751055654 L 519 295 L 540.9715140589531 296.1191827184273 L 535.3275882736081 280.2551751055654" stroke-miterlimit="10"/></g><g transform="translate(-70,-38) scale(1,1)"><path fill="none" stroke="#000000" d="M 618 195 L 487 295" stroke-miterlimit="10"/></g><g transform="translate(-70,-38) scale(1,1)"><path fill="#FFFFFF" stroke="none" d="M 498.0476430020888 275.9750273561722 L 487 295 L 508.26455045124436 289.3591761145659"/></g><g transform="translate(-70,-38) scale(1,1)"><path fill="none" stroke="#000000" d="M 498.0476430020888 275.9750273561722 L 487 295 L 508.26455045124436 289.3591761145659 L 498.0476430020888 275.9750273561722" stroke-miterlimit="10"/></g><g transform="translate(-70,-38) scale(1,1)"><path fill="#C0C0C0" stroke="none" d="M 431 160 C 431 150.6111584 458.3106272 143 492 143 C 525.6893728 143 553 150.6111584 553 160 C 553 169.3888416 525.6893728 177 492 177 C 458.3106272 177 431 169.3888416 431 160 Z" opacity="0.2"/></g><g transform="translate(-70,-38) scale(1,1)"><path fill="#ffffff" stroke="none" d="M 424 153 C 424 143.6111584 451.3106272 136 485 136 C 518.6893728 136 546 143.6111584 546 153 C 546 162.3888416 518.6893728 170 485 170 C 451.3106272 170 424 162.3888416 424 153 Z"/></g><g transform="translate(-70,-38) scale(1,1)"><path fill="none" stroke="#000000" d="M 424 153 C 424 143.6111584 451.3106272 136 485 136 C 518.6893728 136 546 143.6111584 546 153 C 546 162.3888416 518.6893728 170 485 170 C 451.3106272 170 424 162.3888416 424 153 Z" stroke-miterlimit="10"/></g><g transform="translate(-70,-38) scale(1,1)"><g><path fill="none" stroke="none"/><text fill="#000000" stroke="none" font-family="Arial" font-size="13px" font-style="normal" font-weight="bold" text-decoration="none" x="470.555908203125" y="160">Error</text></g></g><g transform="translate(-70,-38) scale(1,1)"><path fill="none" stroke="#000000" d="M 482 171 L 463 295" stroke-miterlimit="10" stroke-dasharray="3"/></g><g transform="translate(-70,-38) scale(1,1)"><path fill="none" stroke="#000000" d="M 460.37826448638106 284.31699934959147 L 463 295 L 468.70017524316665 285.59213083651827" stroke-miterlimit="10"/></g><g transform="translate(-70,-38) scale(1,1)"><g><path fill="none" stroke="none"/><text fill="#000000" stroke="none" font-family="Arial" font-size="13px" font-style="normal" font-weight="normal" text-decoration="none" x="455.5" y="228.5">«extend»</text></g></g><g transform="translate(-70,-38) scale(1,1)"><path fill="#C0C0C0" stroke="none" d="M 255 392 C 255 382.6111584 277.6096176 375 305.5 375 C 333.3903824 375 356 382.6111584 356 392 C 356 401.3888416 333.3903824 409 305.5 409 C 277.6096176 409 255 401.3888416 255 392 Z" opacity="0.2"/></g><g transform="translate(-70,-38) scale(1,1)"><path fill="#ffffff" stroke="none" d="M 248 385 C 248 375.6111584 270.6096176 368 298.5 368 C 326.3903824 368 349 375.6111584 349 385 C 349 394.3888416 326.3903824 402 298.5 402 C 270.6096176 402 248 394.3888416 248 385 Z"/></g><g transform="translate(-70,-38) scale(1,1)"><path fill="none" stroke="#000000" d="M 248 385 C 248 375.6111584 270.6096176 368 298.5 368 C 326.3903824 368 349 375.6111584 349 385 C 349 394.3888416 326.3903824 402 298.5 402 C 270.6096176 402 248 394.3888416 248 385 Z" stroke-miterlimit="10"/></g><g transform="translate(-70,-38) scale(1,1)"><g><path fill="none" stroke="none"/><text fill="#000000" stroke="none" font-family="Arial" font-size="13px" font-style="normal" font-weight="bold" text-decoration="none" x="278.619140625" y="392">update</text></g></g><g transform="translate(-70,-38) scale(1,1)"><path fill="none" stroke="#000000" d="M 340 367 L 411 337" stroke-miterlimit="10" stroke-dasharray="3"/></g><g transform="translate(-70,-38) scale(1,1)"><path fill="none" stroke="#000000" d="M 403.2771051638302 344.83306423754215 L 411 337 L 400.00027585111786 337.07790153078963" stroke-miterlimit="10"/></g><g transform="translate(-70,-38) scale(1,1)"><g><path fill="none" stroke="none"/><text fill="#000000" stroke="none" font-family="Arial" font-size="13px" font-style="normal" font-weight="normal" text-decoration="none" x="330.5" y="354.5">«include»</text></g></g><g transform="translate(-70,-38) scale(1,1)"><path fill="#C0C0C0" stroke="none" d="M 343 464 C 343 454.6111584 365.6096176 447 393.5 447 C 421.3903824 447 444 454.6111584 444 464 C 444 473.3888416 421.3903824 481 393.5 481 C 365.6096176 481 343 473.3888416 343 464 Z" opacity="0.2"/></g><g transform="translate(-70,-38) scale(1,1)"><path fill="#ffffff" stroke="none" d="M 336 457 C 336 447.6111584 358.6096176 440 386.5 440 C 414.3903824 440 437 447.6111584 437 457 C 437 466.3888416 414.3903824 474 386.5 474 C 358.6096176 474 336 466.3888416 336 457 Z"/></g><g transform="translate(-70,-38) scale(1,1)"><path fill="none" stroke="#000000" d="M 336 457 C 336 447.6111584 358.6096176 440 386.5 440 C 414.3903824 440 437 447.6111584 437 457 C 437 466.3888416 414.3903824 474 386.5 474 C 358.6096176 474 336 466.3888416 336 457 Z" stroke-miterlimit="10"/></g><g transform="translate(-70,-38) scale(1,1)"><g><path fill="none" stroke="none"/><text fill="#000000" stroke="none" font-family="Arial" font-size="13px" font-style="normal" font-weight="bold" text-decoration="none" x="369.155029296875" y="464">get all</text></g></g><g transform="translate(-70,-38) scale(1,1)"><path fill="#C0C0C0" stroke="none" d="M 503 472 C 503 462.6111584 525.6096176 455 553.5 455 C 581.3903824 455 604 462.6111584 604 472 C 604 481.3888416 581.3903824 489 553.5 489 C 525.6096176 489 503 481.3888416 503 472 Z" opacity="0.2"/></g><g transform="translate(-70,-38) scale(1,1)"><path fill="#ffffff" stroke="none" d="M 496 465 C 496 455.6111584 518.6096176 448 546.5 448 C 574.3903824 448 597 455.6111584 597 465 C 597 474.3888416 574.3903824 482 546.5 482 C 518.6096176 482 496 474.3888416 496 465 Z"/></g><g transform="translate(-70,-38) scale(1,1)"><path fill="none" stroke="#000000" d="M 496 465 C 496 455.6111584 518.6096176 448 546.5 448 C 574.3903824 448 597 455.6111584 597 465 C 597 474.3888416 574.3903824 482 546.5 482 C 518.6096176 482 496 474.3888416 496 465 Z" stroke-miterlimit="10"/></g><g transform="translate(-70,-38) scale(1,1)"><g><path fill="none" stroke="none"/><text fill="#000000" stroke="none" font-family="Arial" font-size="13px" font-style="normal" font-weight="bold" text-decoration="none" x="523.372314453125" y="472">get One</text></g></g><g transform="translate(-70,-38) scale(1,1)"><path fill="none" stroke="#000000" d="M 395 439 L 449 337" stroke-miterlimit="10" stroke-dasharray="3"/></g><g transform="translate(-70,-38) scale(1,1)"><path fill="none" stroke="#000000" d="M 447.96533015392174 347.95123090385806 L 449 337 L 440.5246883010911 344.01206757000654" stroke-miterlimit="10"/></g><g transform="translate(-70,-38) scale(1,1)"><g><path fill="none" stroke="none"/><text fill="#000000" stroke="none" font-family="Arial" font-size="13px" font-style="normal" font-weight="normal" text-decoration="none" x="367.5" y="379.5">«include»</text></g></g><g transform="translate(-70,-38) scale(1,1)"><path fill="none" stroke="#000000" d="M 536 447 L 472 337" stroke-miterlimit="10" stroke-dasharray="3"/></g><g transform="translate(-70,-38) scale(1,1)"><path fill="none" stroke="#000000" d="M 480.74923359925754 343.66715167261276 L 472 337 L 473.4722542493165 347.9010305671239" stroke-miterlimit="10"/></g><g transform="translate(-70,-38) scale(1,1)"><g><path fill="none" stroke="none"/><text fill="#000000" stroke="none" font-family="Arial" font-size="13px" font-style="normal" font-weight="normal" text-decoration="none" x="450.5" y="413.5">«include»</text></g></g></g></svg>