<svg version="1.1" xmlns="http://www.w3.org/2000/svg" xmlns:xlink="http://www.w3.org/1999/xlink" width="587" height="428"><defs/><g><text fill="#eeeeee" stroke="none" font-family="Arial" font-size="24px" font-style="normal" font-weight="normal" text-decoration="none" x="0" y="0">UNREGISTERED</text><text fill="#eeeeee" stroke="none" font-family="Arial" font-size="24px" font-style="normal" font-weight="normal" text-decoration="none" x="0" y="30">UNREGISTERED</text><text fill="#eeeeee" stroke="none" font-family="Arial" font-size="24px" font-style="normal" font-weight="normal" text-decoration="none" x="0" y="60">UNREGISTERED</text><text fill="#eeeeee" stroke="none" font-family="Arial" font-size="24px" font-style="normal" font-weight="normal" text-decoration="none" x="0" y="90">UNREGISTERED</text><text fill="#eeeeee" stroke="none" font-family="Arial" font-size="24px" font-style="normal" font-weight="normal" text-decoration="none" x="0" y="120">UNREGISTERED</text><text fill="#eeeeee" stroke="none" font-family="Arial" font-size="24px" font-style="normal" font-weight="normal" text-decoration="none" x="0" y="150">UNREGISTERED</text><text fill="#eeeeee" stroke="none" font-family="Arial" font-size="24px" font-style="normal" font-weight="normal" text-decoration="none" x="0" y="180">UNREGISTERED</text><text fill="#eeeeee" stroke="none" font-family="Arial" font-size="24px" font-style="normal" font-weight="normal" text-decoration="none" x="0" y="210">UNREGISTERED</text><text fill="#eeeeee" stroke="none" font-family="Arial" font-size="24px" font-style="normal" font-weight="normal" text-decoration="none" x="0" y="240">UNREGISTERED</text><text fill="#eeeeee" stroke="none" font-family="Arial" font-size="24px" font-style="normal" font-weight="normal" text-decoration="none" x="0" y="270">UNREGISTERED</text><text fill="#eeeeee" stroke="none" font-family="Arial" font-size="24px" font-style="normal" font-weight="normal" text-decoration="none" x="0" y="300">UNREGISTERED</text><text fill="#eeeeee" stroke="none" font-family="Arial" font-size="24px" font-style="normal" font-weight="normal" text-decoration="none" x="0" y="330">UNREGISTERED</text><text fill="#eeeeee" stroke="none" font-family="Arial" font-size="24px" font-style="normal" font-weight="normal" text-decoration="none" x="0" y="360">UNREGISTERED</text><text fill="#eeeeee" stroke="none" font-family="Arial" font-size="24px" font-style="normal" font-weight="normal" text-decoration="none" x="0" y="390">UNREGISTERED</text><text fill="#eeeeee" stroke="none" font-family="Arial" font-size="24px" font-style="normal" font-weight="normal" text-decoration="none" x="0" y="420">UNREGISTERED</text><text fill="#eeeeee" stroke="none" font-family="Arial" font-size="24px" font-style="normal" font-weight="normal" text-decoration="none" x="200" y="0">UNREGISTERED</text><text fill="#eeeeee" stroke="none" font-family="Arial" font-size="24px" font-style="normal" font-weight="normal" text-decoration="none" x="200" y="30">UNREGISTERED</text><text fill="#eeeeee" stroke="none" font-family="Arial" font-size="24px" font-style="normal" font-weight="normal" text-decoration="none" x="200" y="60">UNREGISTERED</text><text fill="#eeeeee" stroke="none" font-family="Arial" font-size="24px" font-style="normal" font-weight="normal" text-decoration="none" x="200" y="90">UNREGISTERED</text><text fill="#eeeeee" stroke="none" font-family="Arial" font-size="24px" font-style="normal" font-weight="normal" text-decoration="none" x="200" y="120">UNREGISTERED</text><text fill="#eeeeee" stroke="none" font-family="Arial" font-size="24px" font-style="normal" font-weight="normal" text-decoration="none" x="200" y="150">UNREGISTERED</text><text fill="#eeeeee" stroke="none" font-family="Arial" font-size="24px" font-style="normal" font-weight="normal" text-decoration="none" x="200" y="180">UNREGISTERED</text><text fill="#eeeeee" stroke="none" font-family="Arial" font-size="24px" font-style="normal" font-weight="normal" text-decoration="none" x="200" y="210">UNREGISTERED</text><text fill="#eeeeee" stroke="none" font-family="Arial" font-size="24px" font-style="normal" font-weight="normal" text-decoration="none" x="200" y="240">UNREGISTERED</text><text fill="#eeeeee" stroke="none" font-family="Arial" font-size="24px" font-style="normal" font-weight="normal" text-decoration="none" x="200" y="270">UNREGISTERED</text><text fill="#eeeeee" stroke="none" font-family="Arial" font-size="24px" font-style="normal" font-weight="normal" text-decoration="none" x="200" y="300">UNREGISTERED</text><text fill="#eeeeee" stroke="none" font-family="Arial" font-size="24px" font-style="normal" font-weight="normal" text-decoration="none" x="200" y="330">UNREGISTERED</text><text fill="#eeeeee" stroke="none" font-family="Arial" font-size="24px" font-style="normal" font-weight="normal" text-decoration="none" x="200" y="360">UNREGISTERED</text><text fill="#eeeeee" stroke="none" font-family="Arial" font-size="24px" font-style="normal" font-weight="normal" text-decoration="none" x="200" y="390">UNREGISTERED</text><text fill="#eeeeee" stroke="none" font-family="Arial" font-size="24px" font-style="normal" font-weight="normal" text-decoration="none" x="200" y="420">UNREGISTERED</text><text fill="#eeeeee" stroke="none" font-family="Arial" font-size="24px" font-style="normal" font-weight="normal" text-decoration="none" x="400" y="0">UNREGISTERED</text><text fill="#eeeeee" stroke="none" font-family="Arial" font-size="24px" font-style="normal" font-weight="normal" text-decoration="none" x="400" y="30">UNREGISTERED</text><text fill="#eeeeee" stroke="none" font-family="Arial" font-size="24px" font-style="normal" font-weight="normal" text-decoration="none" x="400" y="60">UNREGISTERED</text><text fill="#eeeeee" stroke="none" font-family="Arial" font-size="24px" font-style="normal" font-weight="normal" text-decoration="none" x="400" y="90">UNREGISTERED</text><text fill="#eeeeee" stroke="none" font-family="Arial" font-size="24px" font-style="normal" font-weight="normal" text-decoration="none" x="400" y="120">UNREGISTERED</text><text fill="#eeeeee" stroke="none" font-family="Arial" font-size="24px" font-style="normal" font-weight="normal" text-decoration="none" x="400" y="150">UNREGISTERED</text><text fill="#eeeeee" stroke="none" font-family="Arial" font-size="24px" font-style="normal" font-weight="normal" text-decoration="none" x="400" y="180">UNREGISTERED</text><text fill="#eeeeee" stroke="none" font-family="Arial" font-size="24px" font-style="normal" font-weight="normal" text-decoration="none" x="400" y="210">UNREGISTERED</text><text fill="#eeeeee" stroke="none" font-family="Arial" font-size="24px" font-style="normal" font-weight="normal" text-decoration="none" x="400" y="240">UNREGISTERED</text><text fill="#eeeeee" stroke="none" font-family="Arial" font-size="24px" font-style="normal" font-weight="normal" text-decoration="none" x="400" y="270">UNREGISTERED</text><text fill="#eeeeee" stroke="none" font-family="Arial" font-size="24px" font-style="normal" font-weight="normal" text-decoration="none" x="400" y="300">UNREGISTERED</text><text fill="#eeeeee" stroke="none" font-family="Arial" font-size="24px" font-style="normal" font-weight="normal" text-decoration="none" x="400" y="330">UNREGISTERED</text><text fill="#eeeeee" stroke="none" font-family="Arial" font-size="24px" font-style="normal" font-weight="normal" text-decoration="none" x="400" y="360">UNREGISTERED</text><text fill="#eeeeee" stroke="none" font-family="Arial" font-size="24px" font-style="normal" font-weight="normal" text-decoration="none" x="400" y="390">UNREGISTERED</text><text fill="#eeeeee" stroke="none" font-family="Arial" font-size="24px" font-style="normal" font-weight="normal" text-decoration="none" x="400" y="420">UNREGISTERED</text><g transform="translate(-86,-22) scale(1,1)"><rect fill="#ffffff" stroke="none" x="96" y="32" width="176" height="21"/></g><g transform="translate(-86,-22) scale(1,1)"><path fill="none" stroke="#000000" d="M 96 32 L 272 32 L 272 53 L 96 53 L 96 32 Z Z" stroke-miterlimit="10" stroke-width="2"/></g><g transform="translate(-86,-22) scale(1,1)"><path fill="none" stroke="#000000" d="M 96 440 L 96 32 L 272 32 L 272 440" stroke-miterlimit="10" stroke-width="2"/></g><g transform="translate(-86,-22) scale(1,1)"><g><path fill="none" stroke="none"/><text fill="#000000" stroke="none" font-family="Arial" font-size="13px" font-style="normal" font-weight="normal" text-decoration="none" x="170.75244140625" y="49">Web</text></g></g><g transform="translate(-86,-22) scale(1,1)"><rect fill="#ffffff" stroke="none" x="272" y="32" width="208" height="21"/></g><g transform="translate(-86,-22) scale(1,1)"><path fill="none" stroke="#000000" d="M 272 32 L 480 32 L 480 53 L 272 53 L 272 32 Z Z" stroke-miterlimit="10" stroke-width="2"/></g><g transform="translate(-86,-22) scale(1,1)"><path fill="none" stroke="#000000" d="M 272 440 L 272 32 L 480 32 L 480 440" stroke-miterlimit="10" stroke-width="2"/></g><g transform="translate(-86,-22) scale(1,1)"><g><path fill="none" stroke="none"/><text fill="#000000" stroke="none" font-family="Arial" font-size="13px" font-style="normal" font-weight="normal" text-decoration="none" x="360.095947265625" y="49">Login</text></g></g><g transform="translate(-86,-22) scale(1,1)"><rect fill="#ffffff" stroke="none" x="480" y="32" width="183" height="21"/></g><g transform="translate(-86,-22) scale(1,1)"><path fill="none" stroke="#000000" d="M 480 32 L 663 32 L 663 53 L 480 53 L 480 32 Z Z" stroke-miterlimit="10" stroke-width="2"/></g><g transform="translate(-86,-22) scale(1,1)"><path fill="none" stroke="#000000" d="M 480 440 L 480 32 L 663 32 L 663 440" stroke-miterlimit="10" stroke-width="2"/></g><g transform="translate(-86,-22) scale(1,1)"><g><path fill="none" stroke="none"/><text fill="#000000" stroke="none" font-family="Arial" font-size="13px" font-style="normal" font-weight="normal" text-decoration="none" x="534.6455078125" y="49">local storage</text></g></g><g transform="translate(-86,-22) scale(1,1)"><path fill="#C0C0C0" stroke="none" d="M 353 86 L 392 86 Q 402 86 402 96 L 402 116 Q 402 126 392 126 L 353 126 Q 343 126 343 116 L 343 96 Q 343 86 353 86 Z" opacity="0.2"/></g><g transform="translate(-86,-22) scale(1,1)"><path fill="#ffffff" stroke="none" d="M 346 79 L 385 79 Q 395 79 395 89 L 395 109 Q 395 119 385 119 L 346 119 Q 336 119 336 109 L 336 89 Q 336 79 346 79 Z"/></g><g transform="translate(-86,-22) scale(1,1)"><path fill="none" stroke="#000000" d="M 346 79 L 385 79 Q 395 79 395 89 L 395 109 Q 395 119 385 119 L 346 119 Q 336 119 336 109 L 336 89 Q 336 79 346 79 Z" stroke-miterlimit="10"/></g><g transform="translate(-86,-22) scale(1,1)"><g><path fill="none" stroke="none"/><text fill="#000000" stroke="none" font-family="Arial" font-size="13px" font-style="normal" font-weight="bold" text-decoration="none" x="349.595947265625" y="98.5">Login</text></g></g><g transform="translate(-86,-22) scale(1,1)"><path fill="none" stroke="#000000" d="M 308 99 L 335 99" stroke-miterlimit="10"/></g><g transform="translate(-86,-22) scale(1,1)"><path fill="none" stroke="#000000" d="M 324.83732514237585 103.20951775601598 L 335 99 L 324.83732514237585 94.79048224398402" stroke-miterlimit="10"/></g><g transform="translate(-86,-22) scale(1,1)"><path fill="#C0C0C0" stroke="none" d="M 353 196 L 392 196 Q 402 196 402 206 L 402 226 Q 402 236 392 236 L 353 236 Q 343 236 343 226 L 343 206 Q 343 196 353 196 Z" opacity="0.2"/></g><g transform="translate(-86,-22) scale(1,1)"><path fill="#ffffff" stroke="none" d="M 346 189 L 385 189 Q 395 189 395 199 L 395 219 Q 395 229 385 229 L 346 229 Q 336 229 336 219 L 336 199 Q 336 189 346 189 Z"/></g><g transform="translate(-86,-22) scale(1,1)"><path fill="none" stroke="#000000" d="M 346 189 L 385 189 Q 395 189 395 199 L 395 219 Q 395 229 385 229 L 346 229 Q 336 229 336 219 L 336 199 Q 336 189 346 189 Z" stroke-miterlimit="10"/></g><g transform="translate(-86,-22) scale(1,1)"><g><path fill="none" stroke="none"/><text fill="#000000" stroke="none" font-family="Arial" font-size="13px" font-style="normal" font-weight="bold" text-decoration="none" x="345.619140625" y="208.5">Logout</text></g></g><g transform="translate(-86,-22) scale(1,1)"><path fill="none" stroke="#000000" d="M 365 120 L 365 188" stroke-miterlimit="10"/></g><g transform="translate(-86,-22) scale(1,1)"><path fill="none" stroke="#000000" d="M 360.790482243984 177.83732514237585 L 365 188 L 369.209517756016 177.83732514237585" stroke-miterlimit="10"/></g><g transform="translate(-86,-22) scale(1,1)"><path fill="none" stroke="#000000" d="M 396 209 L 516 209" stroke-miterlimit="10"/></g><g transform="translate(-86,-22) scale(1,1)"><path fill="none" stroke="#000000" d="M 505.83732514237585 213.209517756016 L 516 209 L 505.83732514237585 204.790482243984" stroke-miterlimit="10"/></g><g transform="translate(-86,-22) scale(1,1)"><rect fill="#C0C0C0" stroke="none" x="524" y="204" width="89.18359375" height="24" opacity="0.2"/></g><g transform="translate(-86,-22) scale(1,1)"><rect fill="#ffffff" stroke="none" x="517" y="197" width="89.18359375" height="24"/></g><g transform="translate(-86,-22) scale(1,1)"><path fill="none" stroke="#000000" d="M 517 197 L 606.18359375 197 L 606.18359375 221 L 517 221 L 517 197 Z Z" stroke-miterlimit="10"/></g><g transform="translate(-86,-22) scale(1,1)"><rect fill="#ffffff" stroke="none" x="517" y="197" width="89.18359375" height="24"/></g><g transform="translate(-86,-22) scale(1,1)"><path fill="none" stroke="#000000" d="M 517 197 L 606.18359375 197 L 606.18359375 221 L 517 221 L 517 197 Z Z" stroke-miterlimit="10"/></g><g transform="translate(-86,-22) scale(1,1)"><g><path fill="none" stroke="none"/><text fill="#000000" stroke="none" font-family="Arial" font-size="13px" font-style="normal" font-weight="bold" text-decoration="none" x="544.246826171875" y="216.5">object</text></g></g><g transform="translate(-86,-22) scale(1,1)"><path fill="#C0C0C0" stroke="none" d="M 534 285 L 602.94873046875 285 Q 612.94873046875 285 612.94873046875 295 L 612.94873046875 315 Q 612.94873046875 325 602.94873046875 325 L 534 325 Q 524 325 524 315 L 524 295 Q 524 285 534 285 Z" opacity="0.2"/></g><g transform="translate(-86,-22) scale(1,1)"><path fill="#ffffff" stroke="none" d="M 527 278 L 595.94873046875 278 Q 605.94873046875 278 605.94873046875 288 L 605.94873046875 308 Q 605.94873046875 318 595.94873046875 318 L 527 318 Q 517 318 517 308 L 517 288 Q 517 278 527 278 Z"/></g><g transform="translate(-86,-22) scale(1,1)"><path fill="none" stroke="#000000" d="M 527 278 L 595.94873046875 278 Q 605.94873046875 278 605.94873046875 288 L 605.94873046875 308 Q 605.94873046875 318 595.94873046875 318 L 527 318 Q 517 318 517 308 L 517 288 Q 517 278 527 278 Z" stroke-miterlimit="10"/></g><g transform="translate(-86,-22) scale(1,1)"><g><path fill="none" stroke="none"/><text fill="#000000" stroke="none" font-family="Arial" font-size="13px" font-style="normal" font-weight="bold" text-decoration="none" x="523.534423828125" y="297.5">Delete Token</text></g></g><g transform="translate(-86,-22) scale(1,1)"><path fill="none" stroke="#000000" d="M 561 222 L 561 277" stroke-miterlimit="10"/></g><g transform="translate(-86,-22) scale(1,1)"><path fill="none" stroke="#000000" d="M 556.790482243984 266.83732514237585 L 561 277 L 565.209517756016 266.83732514237585" stroke-miterlimit="10"/></g><g transform="translate(-86,-22) scale(1,1)"><path fill="#C0C0C0" stroke="none" d="M 513 381 L 624.09716796875 381 Q 634.09716796875 381 634.09716796875 391 L 634.09716796875 411 Q 634.09716796875 421 624.09716796875 421 L 513 421 Q 503 421 503 411 L 503 391 Q 503 381 513 381 Z" opacity="0.2"/></g><g transform="translate(-86,-22) scale(1,1)"><path fill="#ffffff" stroke="none" d="M 506 374 L 617.09716796875 374 Q 627.09716796875 374 627.09716796875 384 L 627.09716796875 404 Q 627.09716796875 414 617.09716796875 414 L 506 414 Q 496 414 496 404 L 496 384 Q 496 374 506 374 Z"/></g><g transform="translate(-86,-22) scale(1,1)"><path fill="none" stroke="#000000" d="M 506 374 L 617.09716796875 374 Q 627.09716796875 374 627.09716796875 384 L 627.09716796875 404 Q 627.09716796875 414 617.09716796875 414 L 506 414 Q 496 414 496 404 L 496 384 Q 496 374 506 374 Z" stroke-miterlimit="10"/></g><g transform="translate(-86,-22) scale(1,1)"><g><path fill="none" stroke="none"/><text fill="#000000" stroke="none" font-family="Arial" font-size="13px" font-style="normal" font-weight="bold" text-decoration="none" x="504.09912109375" y="393.5">Clear Local Storage</text></g></g><g transform="translate(-86,-22) scale(1,1)"><path fill="none" stroke="#000000" d="M 561 319 L 561 373" stroke-miterlimit="10"/></g><g transform="translate(-86,-22) scale(1,1)"><path fill="none" stroke="#000000" d="M 556.790482243984 362.83732514237585 L 561 373 L 565.209517756016 362.83732514237585" stroke-miterlimit="10"/></g><g transform="translate(-86,-22) scale(1,1)"><path fill="none" stroke="#000000" d="M 495 394 L 238 394" stroke-miterlimit="10"/></g><g transform="translate(-86,-22) scale(1,1)"><path fill="none" stroke="#000000" d="M 248.16267485762415 389.790482243984 L 238 394 L 248.16267485762415 398.209517756016" stroke-miterlimit="10"/></g><g transform="translate(-86,-22) scale(1,1)"><path fill="#C0C0C0" stroke="none" d="M 153 381 L 234.44091796875 381 Q 244.44091796875 381 244.44091796875 391 L 244.44091796875 411 Q 244.44091796875 421 234.44091796875 421 L 153 421 Q 143 421 143 411 L 143 391 Q 143 381 153 381 Z" opacity="0.2"/></g><g transform="translate(-86,-22) scale(1,1)"><path fill="#ffffff" stroke="none" d="M 146 374 L 227.44091796875 374 Q 237.44091796875 374 237.44091796875 384 L 237.44091796875 404 Q 237.44091796875 414 227.44091796875 414 L 146 414 Q 136 414 136 404 L 136 384 Q 136 374 146 374 Z"/></g><g transform="translate(-86,-22) scale(1,1)"><path fill="none" stroke="#000000" d="M 146 374 L 227.44091796875 374 Q 237.44091796875 374 237.44091796875 384 L 237.44091796875 404 Q 237.44091796875 414 227.44091796875 414 L 146 414 Q 136 414 136 404 L 136 384 Q 136 374 146 374 Z" stroke-miterlimit="10"/></g><g transform="translate(-86,-22) scale(1,1)"><g><path fill="none" stroke="none"/><text fill="#000000" stroke="none" font-family="Arial" font-size="13px" font-style="normal" font-weight="bold" text-decoration="none" x="144.451416015625" y="393.5">web form login</text></g></g><g transform="translate(-86,-22) scale(1,1)"><path fill="#C0C0C0" stroke="none" d="M 295 106.5 C 295 101.2532944 299.2532944 97 304.5 97 C 309.7467056 97 314 101.2532944 314 106.5 C 314 111.7467056 309.7467056 116 304.5 116 C 299.2532944 116 295 111.7467056 295 106.5 Z" opacity="0.2"/></g><g transform="translate(-86,-22) scale(1,1)"><path fill="#000000" stroke="none" d="M 288 99.5 C 288 94.2532944 292.2532944 90 297.5 90 C 302.7467056 90 307 94.2532944 307 99.5 C 307 104.7467056 302.7467056 109 297.5 109 C 292.2532944 109 288 104.7467056 288 99.5 Z"/></g></g></svg>