<svg version="1.1" xmlns="http://www.w3.org/2000/svg" xmlns:xlink="http://www.w3.org/1999/xlink" width="716" height="428"><defs/><g><text fill="#eeeeee" stroke="none" font-family="Arial" font-size="24px" font-style="normal" font-weight="normal" text-decoration="none" x="0" y="0">UNREGISTERED</text><text fill="#eeeeee" stroke="none" font-family="Arial" font-size="24px" font-style="normal" font-weight="normal" text-decoration="none" x="0" y="30">UNREGISTERED</text><text fill="#eeeeee" stroke="none" font-family="Arial" font-size="24px" font-style="normal" font-weight="normal" text-decoration="none" x="0" y="60">UNREGISTERED</text><text fill="#eeeeee" stroke="none" font-family="Arial" font-size="24px" font-style="normal" font-weight="normal" text-decoration="none" x="0" y="90">UNREGISTERED</text><text fill="#eeeeee" stroke="none" font-family="Arial" font-size="24px" font-style="normal" font-weight="normal" text-decoration="none" x="0" y="120">UNREGISTERED</text><text fill="#eeeeee" stroke="none" font-family="Arial" font-size="24px" font-style="normal" font-weight="normal" text-decoration="none" x="0" y="150">UNREGISTERED</text><text fill="#eeeeee" stroke="none" font-family="Arial" font-size="24px" font-style="normal" font-weight="normal" text-decoration="none" x="0" y="180">UNREGISTERED</text><text fill="#eeeeee" stroke="none" font-family="Arial" font-size="24px" font-style="normal" font-weight="normal" text-decoration="none" x="0" y="210">UNREGISTERED</text><text fill="#eeeeee" stroke="none" font-family="Arial" font-size="24px" font-style="normal" font-weight="normal" text-decoration="none" x="0" y="240">UNREGISTERED</text><text fill="#eeeeee" stroke="none" font-family="Arial" font-size="24px" font-style="normal" font-weight="normal" text-decoration="none" x="0" y="270">UNREGISTERED</text><text fill="#eeeeee" stroke="none" font-family="Arial" font-size="24px" font-style="normal" font-weight="normal" text-decoration="none" x="0" y="300">UNREGISTERED</text><text fill="#eeeeee" stroke="none" font-family="Arial" font-size="24px" font-style="normal" font-weight="normal" text-decoration="none" x="0" y="330">UNREGISTERED</text><text fill="#eeeeee" stroke="none" font-family="Arial" font-size="24px" font-style="normal" font-weight="normal" text-decoration="none" x="0" y="360">UNREGISTERED</text><text fill="#eeeeee" stroke="none" font-family="Arial" font-size="24px" font-style="normal" font-weight="normal" text-decoration="none" x="0" y="390">UNREGISTERED</text><text fill="#eeeeee" stroke="none" font-family="Arial" font-size="24px" font-style="normal" font-weight="normal" text-decoration="none" x="0" y="420">UNREGISTERED</text><text fill="#eeeeee" stroke="none" font-family="Arial" font-size="24px" font-style="normal" font-weight="normal" text-decoration="none" x="200" y="0">UNREGISTERED</text><text fill="#eeeeee" stroke="none" font-family="Arial" font-size="24px" font-style="normal" font-weight="normal" text-decoration="none" x="200" y="30">UNREGISTERED</text><text fill="#eeeeee" stroke="none" font-family="Arial" font-size="24px" font-style="normal" font-weight="normal" text-decoration="none" x="200" y="60">UNREGISTERED</text><text fill="#eeeeee" stroke="none" font-family="Arial" font-size="24px" font-style="normal" font-weight="normal" text-decoration="none" x="200" y="90">UNREGISTERED</text><text fill="#eeeeee" stroke="none" font-family="Arial" font-size="24px" font-style="normal" font-weight="normal" text-decoration="none" x="200" y="120">UNREGISTERED</text><text fill="#eeeeee" stroke="none" font-family="Arial" font-size="24px" font-style="normal" font-weight="normal" text-decoration="none" x="200" y="150">UNREGISTERED</text><text fill="#eeeeee" stroke="none" font-family="Arial" font-size="24px" font-style="normal" font-weight="normal" text-decoration="none" x="200" y="180">UNREGISTERED</text><text fill="#eeeeee" stroke="none" font-family="Arial" font-size="24px" font-style="normal" font-weight="normal" text-decoration="none" x="200" y="210">UNREGISTERED</text><text fill="#eeeeee" stroke="none" font-family="Arial" font-size="24px" font-style="normal" font-weight="normal" text-decoration="none" x="200" y="240">UNREGISTERED</text><text fill="#eeeeee" stroke="none" font-family="Arial" font-size="24px" font-style="normal" font-weight="normal" text-decoration="none" x="200" y="270">UNREGISTERED</text><text fill="#eeeeee" stroke="none" font-family="Arial" font-size="24px" font-style="normal" font-weight="normal" text-decoration="none" x="200" y="300">UNREGISTERED</text><text fill="#eeeeee" stroke="none" font-family="Arial" font-size="24px" font-style="normal" font-weight="normal" text-decoration="none" x="200" y="330">UNREGISTERED</text><text fill="#eeeeee" stroke="none" font-family="Arial" font-size="24px" font-style="normal" font-weight="normal" text-decoration="none" x="200" y="360">UNREGISTERED</text><text fill="#eeeeee" stroke="none" font-family="Arial" font-size="24px" font-style="normal" font-weight="normal" text-decoration="none" x="200" y="390">UNREGISTERED</text><text fill="#eeeeee" stroke="none" font-family="Arial" font-size="24px" font-style="normal" font-weight="normal" text-decoration="none" x="200" y="420">UNREGISTERED</text><text fill="#eeeeee" stroke="none" font-family="Arial" font-size="24px" font-style="normal" font-weight="normal" text-decoration="none" x="400" y="0">UNREGISTERED</text><text fill="#eeeeee" stroke="none" font-family="Arial" font-size="24px" font-style="normal" font-weight="normal" text-decoration="none" x="400" y="30">UNREGISTERED</text><text fill="#eeeeee" stroke="none" font-family="Arial" font-size="24px" font-style="normal" font-weight="normal" text-decoration="none" x="400" y="60">UNREGISTERED</text><text fill="#eeeeee" stroke="none" font-family="Arial" font-size="24px" font-style="normal" font-weight="normal" text-decoration="none" x="400" y="90">UNREGISTERED</text><text fill="#eeeeee" stroke="none" font-family="Arial" font-size="24px" font-style="normal" font-weight="normal" text-decoration="none" x="400" y="120">UNREGISTERED</text><text fill="#eeeeee" stroke="none" font-family="Arial" font-size="24px" font-style="normal" font-weight="normal" text-decoration="none" x="400" y="150">UNREGISTERED</text><text fill="#eeeeee" stroke="none" font-family="Arial" font-size="24px" font-style="normal" font-weight="normal" text-decoration="none" x="400" y="180">UNREGISTERED</text><text fill="#eeeeee" stroke="none" font-family="Arial" font-size="24px" font-style="normal" font-weight="normal" text-decoration="none" x="400" y="210">UNREGISTERED</text><text fill="#eeeeee" stroke="none" font-family="Arial" font-size="24px" font-style="normal" font-weight="normal" text-decoration="none" x="400" y="240">UNREGISTERED</text><text fill="#eeeeee" stroke="none" font-family="Arial" font-size="24px" font-style="normal" font-weight="normal" text-decoration="none" x="400" y="270">UNREGISTERED</text><text fill="#eeeeee" stroke="none" font-family="Arial" font-size="24px" font-style="normal" font-weight="normal" text-decoration="none" x="400" y="300">UNREGISTERED</text><text fill="#eeeeee" stroke="none" font-family="Arial" font-size="24px" font-style="normal" font-weight="normal" text-decoration="none" x="400" y="330">UNREGISTERED</text><text fill="#eeeeee" stroke="none" font-family="Arial" font-size="24px" font-style="normal" font-weight="normal" text-decoration="none" x="400" y="360">UNREGISTERED</text><text fill="#eeeeee" stroke="none" font-family="Arial" font-size="24px" font-style="normal" font-weight="normal" text-decoration="none" x="400" y="390">UNREGISTERED</text><text fill="#eeeeee" stroke="none" font-family="Arial" font-size="24px" font-style="normal" font-weight="normal" text-decoration="none" x="400" y="420">UNREGISTERED</text><text fill="#eeeeee" stroke="none" font-family="Arial" font-size="24px" font-style="normal" font-weight="normal" text-decoration="none" x="600" y="0">UNREGISTERED</text><text fill="#eeeeee" stroke="none" font-family="Arial" font-size="24px" font-style="normal" font-weight="normal" text-decoration="none" x="600" y="30">UNREGISTERED</text><text fill="#eeeeee" stroke="none" font-family="Arial" font-size="24px" font-style="normal" font-weight="normal" text-decoration="none" x="600" y="60">UNREGISTERED</text><text fill="#eeeeee" stroke="none" font-family="Arial" font-size="24px" font-style="normal" font-weight="normal" text-decoration="none" x="600" y="90">UNREGISTERED</text><text fill="#eeeeee" stroke="none" font-family="Arial" font-size="24px" font-style="normal" font-weight="normal" text-decoration="none" x="600" y="120">UNREGISTERED</text><text fill="#eeeeee" stroke="none" font-family="Arial" font-size="24px" font-style="normal" font-weight="normal" text-decoration="none" x="600" y="150">UNREGISTERED</text><text fill="#eeeeee" stroke="none" font-family="Arial" font-size="24px" font-style="normal" font-weight="normal" text-decoration="none" x="600" y="180">UNREGISTERED</text><text fill="#eeeeee" stroke="none" font-family="Arial" font-size="24px" font-style="normal" font-weight="normal" text-decoration="none" x="600" y="210">UNREGISTERED</text><text fill="#eeeeee" stroke="none" font-family="Arial" font-size="24px" font-style="normal" font-weight="normal" text-decoration="none" x="600" y="240">UNREGISTERED</text><text fill="#eeeeee" stroke="none" font-family="Arial" font-size="24px" font-style="normal" font-weight="normal" text-decoration="none" x="600" y="270">UNREGISTERED</text><text fill="#eeeeee" stroke="none" font-family="Arial" font-size="24px" font-style="normal" font-weight="normal" text-decoration="none" x="600" y="300">UNREGISTERED</text><text fill="#eeeeee" stroke="none" font-family="Arial" font-size="24px" font-style="normal" font-weight="normal" text-decoration="none" x="600" y="330">UNREGISTERED</text><text fill="#eeeeee" stroke="none" font-family="Arial" font-size="24px" font-style="normal" font-weight="normal" text-decoration="none" x="600" y="360">UNREGISTERED</text><text fill="#eeeeee" stroke="none" font-family="Arial" font-size="24px" font-style="normal" font-weight="normal" text-decoration="none" x="600" y="390">UNREGISTERED</text><text fill="#eeeeee" stroke="none" font-family="Arial" font-size="24px" font-style="normal" font-weight="normal" text-decoration="none" x="600" y="420">UNREGISTERED</text><g transform="translate(-150,-62) scale(1,1)"><path fill="none" stroke="#000000" d="M 312 72 L 856 72 L 856 480 L 312 480 L 312 72" stroke-miterlimit="10"/></g><g transform="translate(-150,-62) scale(1,1)"><path fill="#ffffff" stroke="none" d="M 312 72 L 312 94 L 388.7216796875 94 L 399.7216796875 83 L 399.7216796875 72 L 312 72"/></g><g transform="translate(-150,-62) scale(1,1)"><path fill="none" stroke="#000000" d="M 312 72 L 312 94 L 388.7216796875 94 L 399.7216796875 83 L 399.7216796875 72 L 312 72 L 312 72" stroke-miterlimit="10"/></g><g transform="translate(-150,-62) scale(1,1)"><g><path fill="none" stroke="none"/><text fill="#000000" stroke="none" font-family="Arial" font-size="13px" font-style="normal" font-weight="normal" text-decoration="none" x="343.9599609375" y="89.5">Logout</text></g></g><g transform="translate(-150,-62) scale(1,1)"><g><path fill="none" stroke="none"/><text fill="#000000" stroke="none" font-family="Arial" font-size="13px" font-style="normal" font-weight="bold" text-decoration="none" x="317" y="89.5">pkg</text></g></g><g transform="translate(-150,-62) scale(1,1)"><path fill="#ffffff" stroke="none" d="M 176.40935031960228 241.68 C 176.40935031960228 236.886167936 180.29519264454774 233 185.088623046875 233 C 189.88205344920226 233 193.76789577414772 236.886167936 193.76789577414772 241.68 C 193.76789577414772 246.47383206400002 189.88205344920226 250.36 185.088623046875 250.36 C 180.29519264454774 250.36 176.40935031960228 246.47383206400002 176.40935031960228 241.68 Z"/></g><g transform="translate(-150,-62) scale(1,1)"><path fill="none" stroke="#000000" d="M 176.40935031960228 241.68 C 176.40935031960228 236.886167936 180.29519264454774 233 185.088623046875 233 C 189.88205344920226 233 193.76789577414772 236.886167936 193.76789577414772 241.68 C 193.76789577414772 246.47383206400002 189.88205344920226 250.36 185.088623046875 250.36 C 180.29519264454774 250.36 176.40935031960228 246.47383206400002 176.40935031960228 241.68 Z" stroke-miterlimit="10"/></g><g transform="translate(-150,-62) scale(1,1)"><path fill="none" stroke="#000000" d="M 185.088623046875 250.36 L 185.088623046875 267.64" stroke-miterlimit="10"/></g><g transform="translate(-150,-62) scale(1,1)"><path fill="none" stroke="#000000" d="M 175.89880486505683 256.84 L 194.27844122869317 256.84" stroke-miterlimit="10"/></g><g transform="translate(-150,-62) scale(1,1)"><path fill="none" stroke="#000000" d="M 185.088623046875 267.64 L 172.32498668323865 285" stroke-miterlimit="10"/></g><g transform="translate(-150,-62) scale(1,1)"><path fill="none" stroke="#000000" d="M 185.088623046875 267.64 L 197.85225941051135 285" stroke-miterlimit="10"/></g><g transform="translate(-150,-62) scale(1,1)"><g><path fill="none" stroke="none"/><text fill="#000000" stroke="none" font-family="Arial" font-size="13px" font-style="normal" font-weight="bold" text-decoration="none" x="171.364990234375" y="305.5">User</text></g></g><g transform="translate(-150,-62) scale(1,1)"><path fill="#C0C0C0" stroke="none" d="M 455 160 C 455 150.6111584 477.6096176 143 505.5 143 C 533.3903824 143 556 150.6111584 556 160 C 556 169.3888416 533.3903824 177 505.5 177 C 477.6096176 177 455 169.3888416 455 160 Z" opacity="0.2"/></g><g transform="translate(-150,-62) scale(1,1)"><path fill="#ffffff" stroke="none" d="M 448 153 C 448 143.6111584 470.6096176 136 498.5 136 C 526.3903824 136 549 143.6111584 549 153 C 549 162.3888416 526.3903824 170 498.5 170 C 470.6096176 170 448 162.3888416 448 153 Z"/></g><g transform="translate(-150,-62) scale(1,1)"><path fill="none" stroke="#000000" d="M 448 153 C 448 143.6111584 470.6096176 136 498.5 136 C 526.3903824 136 549 143.6111584 549 153 C 549 162.3888416 526.3903824 170 498.5 170 C 470.6096176 170 448 162.3888416 448 153 Z" stroke-miterlimit="10"/></g><g transform="translate(-150,-62) scale(1,1)"><g><path fill="none" stroke="none"/><text fill="#000000" stroke="none" font-family="Arial" font-size="13px" font-style="normal" font-weight="bold" text-decoration="none" x="482.595947265625" y="160">Login</text></g></g><g transform="translate(-150,-62) scale(1,1)"><path fill="none" stroke="#000000" d="M 211 261 L 450 171" stroke-miterlimit="10"/></g><g transform="translate(-150,-62) scale(1,1)"><path fill="#C0C0C0" stroke="none" d="M 407 272 C 407 262.6111584 429.6096176 255 457.5 255 C 485.3903824 255 508 262.6111584 508 272 C 508 281.3888416 485.3903824 289 457.5 289 C 429.6096176 289 407 281.3888416 407 272 Z" opacity="0.2"/></g><g transform="translate(-150,-62) scale(1,1)"><path fill="#ffffff" stroke="none" d="M 400 265 C 400 255.6111584 422.6096176 248 450.5 248 C 478.3903824 248 501 255.6111584 501 265 C 501 274.3888416 478.3903824 282 450.5 282 C 422.6096176 282 400 274.3888416 400 265 Z"/></g><g transform="translate(-150,-62) scale(1,1)"><path fill="none" stroke="#000000" d="M 400 265 C 400 255.6111584 422.6096176 248 450.5 248 C 478.3903824 248 501 255.6111584 501 265 C 501 274.3888416 478.3903824 282 450.5 282 C 422.6096176 282 400 274.3888416 400 265 Z" stroke-miterlimit="10"/></g><g transform="translate(-150,-62) scale(1,1)"><g><path fill="none" stroke="none"/><text fill="#000000" stroke="none" font-family="Arial" font-size="13px" font-style="normal" font-weight="bold" text-decoration="none" x="430.619140625" y="272">Logout</text></g></g><g transform="translate(-150,-62) scale(1,1)"><path fill="none" stroke="#000000" d="M 490 171 L 458 247" stroke-miterlimit="10" stroke-dasharray="3"/></g><g transform="translate(-150,-62) scale(1,1)"><path fill="none" stroke="#000000" d="M 458.0640566415997 236.00018651309637 L 458 247 L 465.82333759403195 239.26725217727838" stroke-miterlimit="10"/></g><g transform="translate(-150,-62) scale(1,1)"><g><path fill="none" stroke="none"/><text fill="#000000" stroke="none" font-family="Arial" font-size="13px" font-style="normal" font-weight="normal" text-decoration="none" x="473.5" y="226.5">«include»</text></g></g><g transform="translate(-150,-62) scale(1,1)"><path fill="none" stroke="#000000" d="M 211 261 L 450 171" stroke-miterlimit="10"/></g><g transform="translate(-150,-62) scale(1,1)"><path fill="none" stroke="#000000" d="M 211 270 L 399 266" stroke-miterlimit="10"/></g><g transform="translate(-150,-62) scale(1,1)"><path fill="#C0C0C0" stroke="none" d="M 439 376 C 439 366.6111584 466.3106272 359 500 359 C 533.6893728 359 561 366.6111584 561 376 C 561 385.3888416 533.6893728 393 500 393 C 466.3106272 393 439 385.3888416 439 376 Z" opacity="0.2"/></g><g transform="translate(-150,-62) scale(1,1)"><path fill="#ffffff" stroke="none" d="M 432 369 C 432 359.6111584 459.3106272 352 493 352 C 526.6893728 352 554 359.6111584 554 369 C 554 378.3888416 526.6893728 386 493 386 C 459.3106272 386 432 378.3888416 432 369 Z"/></g><g transform="translate(-150,-62) scale(1,1)"><path fill="none" stroke="#000000" d="M 432 369 C 432 359.6111584 459.3106272 352 493 352 C 526.6893728 352 554 359.6111584 554 369 C 554 378.3888416 526.6893728 386 493 386 C 459.3106272 386 432 378.3888416 432 369 Z" stroke-miterlimit="10"/></g><g transform="translate(-150,-62) scale(1,1)"><g><path fill="none" stroke="none"/><text fill="#000000" stroke="none" font-family="Arial" font-size="13px" font-style="normal" font-weight="bold" text-decoration="none" x="456.504150390625" y="376">Delete token</text></g></g><g transform="translate(-150,-62) scale(1,1)"><path fill="none" stroke="#000000" d="M 457 283 L 486 351" stroke-miterlimit="10" stroke-dasharray="3"/></g><g transform="translate(-150,-62) scale(1,1)"><path fill="none" stroke="#000000" d="M 478.14122743425537 343.3032673321792 L 486 351 L 485.8854204893553 340.00059676456306" stroke-miterlimit="10"/></g><g transform="translate(-150,-62) scale(1,1)"><g><path fill="none" stroke="none"/><text fill="#000000" stroke="none" font-family="Arial" font-size="13px" font-style="normal" font-weight="normal" text-decoration="none" x="470.5" y="310.5">«include»</text></g></g><g transform="translate(-150,-62) scale(1,1)"><path fill="#C0C0C0" stroke="none" d="M 647 200 C 647 190.6111584 687.294368 183 737 183 C 786.705632 183 827 190.6111584 827 200 C 827 209.3888416 786.705632 217 737 217 C 687.294368 217 647 209.3888416 647 200 Z" opacity="0.2"/></g><g transform="translate(-150,-62) scale(1,1)"><path fill="#ffffff" stroke="none" d="M 640 193 C 640 183.6111584 680.294368 176 730 176 C 779.705632 176 820 183.6111584 820 193 C 820 202.3888416 779.705632 210 730 210 C 680.294368 210 640 202.3888416 640 193 Z"/></g><g transform="translate(-150,-62) scale(1,1)"><path fill="none" stroke="#000000" d="M 640 193 C 640 183.6111584 680.294368 176 730 176 C 779.705632 176 820 183.6111584 820 193 C 820 202.3888416 779.705632 210 730 210 C 680.294368 210 640 202.3888416 640 193 Z" stroke-miterlimit="10"/></g><g transform="translate(-150,-62) scale(1,1)"><g><path fill="none" stroke="none"/><text fill="#000000" stroke="none" font-family="Arial" font-size="13px" font-style="normal" font-weight="bold" text-decoration="none" x="675.080078125" y="200">clear Local storage</text></g></g><g transform="translate(-150,-62) scale(1,1)"><path fill="none" stroke="#000000" d="M 502 252 L 660 211" stroke-miterlimit="10" stroke-dasharray="3"/></g><g transform="translate(-150,-62) scale(1,1)"><path fill="none" stroke="#000000" d="M 651.220447274801 217.6271754123043 L 660 211 L 649.1057980580738 209.47803940638008" stroke-miterlimit="10"/></g><g transform="translate(-150,-62) scale(1,1)"><g><path fill="none" stroke="none"/><text fill="#000000" stroke="none" font-family="Arial" font-size="13px" font-style="normal" font-weight="normal" text-decoration="none" x="545.5" y="207.5">«include»</text></g></g></g></svg>