<svg version="1.1" xmlns="http://www.w3.org/2000/svg" xmlns:xlink="http://www.w3.org/1999/xlink" width="723.44873046875" height="420"><defs/><g><text fill="#eeeeee" stroke="none" font-family="Arial" font-size="24px" font-style="normal" font-weight="normal" text-decoration="none" x="0" y="0">UNREGISTERED</text><text fill="#eeeeee" stroke="none" font-family="Arial" font-size="24px" font-style="normal" font-weight="normal" text-decoration="none" x="0" y="30">UNREGISTERED</text><text fill="#eeeeee" stroke="none" font-family="Arial" font-size="24px" font-style="normal" font-weight="normal" text-decoration="none" x="0" y="60">UNREGISTERED</text><text fill="#eeeeee" stroke="none" font-family="Arial" font-size="24px" font-style="normal" font-weight="normal" text-decoration="none" x="0" y="90">UNREGISTERED</text><text fill="#eeeeee" stroke="none" font-family="Arial" font-size="24px" font-style="normal" font-weight="normal" text-decoration="none" x="0" y="120">UNREGISTERED</text><text fill="#eeeeee" stroke="none" font-family="Arial" font-size="24px" font-style="normal" font-weight="normal" text-decoration="none" x="0" y="150">UNREGISTERED</text><text fill="#eeeeee" stroke="none" font-family="Arial" font-size="24px" font-style="normal" font-weight="normal" text-decoration="none" x="0" y="180">UNREGISTERED</text><text fill="#eeeeee" stroke="none" font-family="Arial" font-size="24px" font-style="normal" font-weight="normal" text-decoration="none" x="0" y="210">UNREGISTERED</text><text fill="#eeeeee" stroke="none" font-family="Arial" font-size="24px" font-style="normal" font-weight="normal" text-decoration="none" x="0" y="240">UNREGISTERED</text><text fill="#eeeeee" stroke="none" font-family="Arial" font-size="24px" font-style="normal" font-weight="normal" text-decoration="none" x="0" y="270">UNREGISTERED</text><text fill="#eeeeee" stroke="none" font-family="Arial" font-size="24px" font-style="normal" font-weight="normal" text-decoration="none" x="0" y="300">UNREGISTERED</text><text fill="#eeeeee" stroke="none" font-family="Arial" font-size="24px" font-style="normal" font-weight="normal" text-decoration="none" x="0" y="330">UNREGISTERED</text><text fill="#eeeeee" stroke="none" font-family="Arial" font-size="24px" font-style="normal" font-weight="normal" text-decoration="none" x="0" y="360">UNREGISTERED</text><text fill="#eeeeee" stroke="none" font-family="Arial" font-size="24px" font-style="normal" font-weight="normal" text-decoration="none" x="0" y="390">UNREGISTERED</text><text fill="#eeeeee" stroke="none" font-family="Arial" font-size="24px" font-style="normal" font-weight="normal" text-decoration="none" x="200" y="0">UNREGISTERED</text><text fill="#eeeeee" stroke="none" font-family="Arial" font-size="24px" font-style="normal" font-weight="normal" text-decoration="none" x="200" y="30">UNREGISTERED</text><text fill="#eeeeee" stroke="none" font-family="Arial" font-size="24px" font-style="normal" font-weight="normal" text-decoration="none" x="200" y="60">UNREGISTERED</text><text fill="#eeeeee" stroke="none" font-family="Arial" font-size="24px" font-style="normal" font-weight="normal" text-decoration="none" x="200" y="90">UNREGISTERED</text><text fill="#eeeeee" stroke="none" font-family="Arial" font-size="24px" font-style="normal" font-weight="normal" text-decoration="none" x="200" y="120">UNREGISTERED</text><text fill="#eeeeee" stroke="none" font-family="Arial" font-size="24px" font-style="normal" font-weight="normal" text-decoration="none" x="200" y="150">UNREGISTERED</text><text fill="#eeeeee" stroke="none" font-family="Arial" font-size="24px" font-style="normal" font-weight="normal" text-decoration="none" x="200" y="180">UNREGISTERED</text><text fill="#eeeeee" stroke="none" font-family="Arial" font-size="24px" font-style="normal" font-weight="normal" text-decoration="none" x="200" y="210">UNREGISTERED</text><text fill="#eeeeee" stroke="none" font-family="Arial" font-size="24px" font-style="normal" font-weight="normal" text-decoration="none" x="200" y="240">UNREGISTERED</text><text fill="#eeeeee" stroke="none" font-family="Arial" font-size="24px" font-style="normal" font-weight="normal" text-decoration="none" x="200" y="270">UNREGISTERED</text><text fill="#eeeeee" stroke="none" font-family="Arial" font-size="24px" font-style="normal" font-weight="normal" text-decoration="none" x="200" y="300">UNREGISTERED</text><text fill="#eeeeee" stroke="none" font-family="Arial" font-size="24px" font-style="normal" font-weight="normal" text-decoration="none" x="200" y="330">UNREGISTERED</text><text fill="#eeeeee" stroke="none" font-family="Arial" font-size="24px" font-style="normal" font-weight="normal" text-decoration="none" x="200" y="360">UNREGISTERED</text><text fill="#eeeeee" stroke="none" font-family="Arial" font-size="24px" font-style="normal" font-weight="normal" text-decoration="none" x="200" y="390">UNREGISTERED</text><text fill="#eeeeee" stroke="none" font-family="Arial" font-size="24px" font-style="normal" font-weight="normal" text-decoration="none" x="400" y="0">UNREGISTERED</text><text fill="#eeeeee" stroke="none" font-family="Arial" font-size="24px" font-style="normal" font-weight="normal" text-decoration="none" x="400" y="30">UNREGISTERED</text><text fill="#eeeeee" stroke="none" font-family="Arial" font-size="24px" font-style="normal" font-weight="normal" text-decoration="none" x="400" y="60">UNREGISTERED</text><text fill="#eeeeee" stroke="none" font-family="Arial" font-size="24px" font-style="normal" font-weight="normal" text-decoration="none" x="400" y="90">UNREGISTERED</text><text fill="#eeeeee" stroke="none" font-family="Arial" font-size="24px" font-style="normal" font-weight="normal" text-decoration="none" x="400" y="120">UNREGISTERED</text><text fill="#eeeeee" stroke="none" font-family="Arial" font-size="24px" font-style="normal" font-weight="normal" text-decoration="none" x="400" y="150">UNREGISTERED</text><text fill="#eeeeee" stroke="none" font-family="Arial" font-size="24px" font-style="normal" font-weight="normal" text-decoration="none" x="400" y="180">UNREGISTERED</text><text fill="#eeeeee" stroke="none" font-family="Arial" font-size="24px" font-style="normal" font-weight="normal" text-decoration="none" x="400" y="210">UNREGISTERED</text><text fill="#eeeeee" stroke="none" font-family="Arial" font-size="24px" font-style="normal" font-weight="normal" text-decoration="none" x="400" y="240">UNREGISTERED</text><text fill="#eeeeee" stroke="none" font-family="Arial" font-size="24px" font-style="normal" font-weight="normal" text-decoration="none" x="400" y="270">UNREGISTERED</text><text fill="#eeeeee" stroke="none" font-family="Arial" font-size="24px" font-style="normal" font-weight="normal" text-decoration="none" x="400" y="300">UNREGISTERED</text><text fill="#eeeeee" stroke="none" font-family="Arial" font-size="24px" font-style="normal" font-weight="normal" text-decoration="none" x="400" y="330">UNREGISTERED</text><text fill="#eeeeee" stroke="none" font-family="Arial" font-size="24px" font-style="normal" font-weight="normal" text-decoration="none" x="400" y="360">UNREGISTERED</text><text fill="#eeeeee" stroke="none" font-family="Arial" font-size="24px" font-style="normal" font-weight="normal" text-decoration="none" x="400" y="390">UNREGISTERED</text><text fill="#eeeeee" stroke="none" font-family="Arial" font-size="24px" font-style="normal" font-weight="normal" text-decoration="none" x="600" y="0">UNREGISTERED</text><text fill="#eeeeee" stroke="none" font-family="Arial" font-size="24px" font-style="normal" font-weight="normal" text-decoration="none" x="600" y="30">UNREGISTERED</text><text fill="#eeeeee" stroke="none" font-family="Arial" font-size="24px" font-style="normal" font-weight="normal" text-decoration="none" x="600" y="60">UNREGISTERED</text><text fill="#eeeeee" stroke="none" font-family="Arial" font-size="24px" font-style="normal" font-weight="normal" text-decoration="none" x="600" y="90">UNREGISTERED</text><text fill="#eeeeee" stroke="none" font-family="Arial" font-size="24px" font-style="normal" font-weight="normal" text-decoration="none" x="600" y="120">UNREGISTERED</text><text fill="#eeeeee" stroke="none" font-family="Arial" font-size="24px" font-style="normal" font-weight="normal" text-decoration="none" x="600" y="150">UNREGISTERED</text><text fill="#eeeeee" stroke="none" font-family="Arial" font-size="24px" font-style="normal" font-weight="normal" text-decoration="none" x="600" y="180">UNREGISTERED</text><text fill="#eeeeee" stroke="none" font-family="Arial" font-size="24px" font-style="normal" font-weight="normal" text-decoration="none" x="600" y="210">UNREGISTERED</text><text fill="#eeeeee" stroke="none" font-family="Arial" font-size="24px" font-style="normal" font-weight="normal" text-decoration="none" x="600" y="240">UNREGISTERED</text><text fill="#eeeeee" stroke="none" font-family="Arial" font-size="24px" font-style="normal" font-weight="normal" text-decoration="none" x="600" y="270">UNREGISTERED</text><text fill="#eeeeee" stroke="none" font-family="Arial" font-size="24px" font-style="normal" font-weight="normal" text-decoration="none" x="600" y="300">UNREGISTERED</text><text fill="#eeeeee" stroke="none" font-family="Arial" font-size="24px" font-style="normal" font-weight="normal" text-decoration="none" x="600" y="330">UNREGISTERED</text><text fill="#eeeeee" stroke="none" font-family="Arial" font-size="24px" font-style="normal" font-weight="normal" text-decoration="none" x="600" y="360">UNREGISTERED</text><text fill="#eeeeee" stroke="none" font-family="Arial" font-size="24px" font-style="normal" font-weight="normal" text-decoration="none" x="600" y="390">UNREGISTERED</text><g transform="translate(-150,-126) scale(1,1)"><rect fill="#C0C0C0" stroke="none" x="415" y="143" width="120" height="400" opacity="0.2"/></g><g transform="translate(-150,-126) scale(1,1)"><rect fill="#ffffff" stroke="none" x="408" y="136" width="120" height="400"/></g><g transform="translate(-150,-126) scale(1,1)"><path fill="none" stroke="#000000" d="M 408 136 L 528 136 L 528 536 L 408 536 L 408 136 Z Z" stroke-miterlimit="10"/></g><g transform="translate(-150,-126) scale(1,1)"><path fill="none" stroke="#000000" d="M 408 161 L 528 161" stroke-miterlimit="10"/></g><g transform="translate(-150,-126) scale(1,1)"><path fill="none" stroke="#000000" d="M 408 454 L 528 454" stroke-miterlimit="10"/></g><g transform="translate(-150,-126) scale(1,1)"><g><path fill="none" stroke="none"/><text fill="#000000" stroke="none" font-family="Arial" font-size="13px" font-style="normal" font-weight="bold" text-decoration="none" x="447.766845703125" y="155.5">invoice</text></g></g><g transform="translate(-150,-126) scale(1,1)"><g><path fill="none" stroke="none"/><text fill="#000000" stroke="none" font-family="Arial" font-size="13px" font-style="normal" font-weight="normal" text-decoration="none" x="413" y="178.5">+inid</text></g></g><g transform="translate(-150,-126) scale(1,1)"><g><path fill="none" stroke="none"/><text fill="#000000" stroke="none" font-family="Arial" font-size="13px" font-style="normal" font-weight="normal" text-decoration="none" x="413" y="193.5">+branch</text></g></g><g transform="translate(-150,-126) scale(1,1)"><g><path fill="none" stroke="none"/><text fill="#000000" stroke="none" font-family="Arial" font-size="13px" font-style="normal" font-weight="normal" text-decoration="none" x="413" y="208.5">+inspection</text></g></g><g transform="translate(-150,-126) scale(1,1)"><g><path fill="none" stroke="none"/><text fill="#000000" stroke="none" font-family="Arial" font-size="13px" font-style="normal" font-weight="normal" text-decoration="none" x="413" y="223.5">+fee</text></g></g><g transform="translate(-150,-126) scale(1,1)"><g><path fill="none" stroke="none"/><text fill="#000000" stroke="none" font-family="Arial" font-size="13px" font-style="normal" font-weight="normal" text-decoration="none" x="413" y="238.5">+distribution striker</text></g></g><g transform="translate(-150,-126) scale(1,1)"><g><path fill="none" stroke="none"/><text fill="#000000" stroke="none" font-family="Arial" font-size="13px" font-style="normal" font-weight="normal" text-decoration="none" x="413" y="253.5">+employee</text></g></g><g transform="translate(-150,-126) scale(1,1)"><g><path fill="none" stroke="none"/><text fill="#000000" stroke="none" font-family="Arial" font-size="13px" font-style="normal" font-weight="normal" text-decoration="none" x="413" y="268.5">+customer</text></g></g><g transform="translate(-150,-126) scale(1,1)"><g><path fill="none" stroke="none"/><text fill="#000000" stroke="none" font-family="Arial" font-size="13px" font-style="normal" font-weight="normal" text-decoration="none" x="413" y="283.5">+feeName</text></g></g><g transform="translate(-150,-126) scale(1,1)"><g><path fill="none" stroke="none"/><text fill="#000000" stroke="none" font-family="Arial" font-size="13px" font-style="normal" font-weight="normal" text-decoration="none" x="413" y="298.5">+QTY</text></g></g><g transform="translate(-150,-126) scale(1,1)"><g><path fill="none" stroke="none"/><text fill="#000000" stroke="none" font-family="Arial" font-size="13px" font-style="normal" font-weight="normal" text-decoration="none" x="413" y="313.5">+feePrice</text></g></g><g transform="translate(-150,-126) scale(1,1)"><g><path fill="none" stroke="none"/><text fill="#000000" stroke="none" font-family="Arial" font-size="13px" font-style="normal" font-weight="normal" text-decoration="none" x="413" y="328.5">+strikerPrice</text></g></g><g transform="translate(-150,-126) scale(1,1)"><g><path fill="none" stroke="none"/><text fill="#000000" stroke="none" font-family="Arial" font-size="13px" font-style="normal" font-weight="normal" text-decoration="none" x="413" y="343.5">+taxPrice</text></g></g><g transform="translate(-150,-126) scale(1,1)"><g><path fill="none" stroke="none"/><text fill="#000000" stroke="none" font-family="Arial" font-size="13px" font-style="normal" font-weight="normal" text-decoration="none" x="413" y="358.5">+servicePrice</text></g></g><g transform="translate(-150,-126) scale(1,1)"><g><path fill="none" stroke="none"/><text fill="#000000" stroke="none" font-family="Arial" font-size="13px" font-style="normal" font-weight="normal" text-decoration="none" x="413" y="373.5">+gran total</text></g></g><g transform="translate(-150,-126) scale(1,1)"><g><path fill="none" stroke="none"/><text fill="#000000" stroke="none" font-family="Arial" font-size="13px" font-style="normal" font-weight="normal" text-decoration="none" x="413" y="388.5">+discount</text></g></g><g transform="translate(-150,-126) scale(1,1)"><g><path fill="none" stroke="none"/><text fill="#000000" stroke="none" font-family="Arial" font-size="13px" font-style="normal" font-weight="normal" text-decoration="none" x="413" y="403.5">+total</text></g></g><g transform="translate(-150,-126) scale(1,1)"><g><path fill="none" stroke="none"/><text fill="#000000" stroke="none" font-family="Arial" font-size="13px" font-style="normal" font-weight="normal" text-decoration="none" x="413" y="418.5">+status</text></g></g><g transform="translate(-150,-126) scale(1,1)"><g><path fill="none" stroke="none"/><text fill="#000000" stroke="none" font-family="Arial" font-size="13px" font-style="normal" font-weight="normal" text-decoration="none" x="413" y="433.5">+create date</text></g></g><g transform="translate(-150,-126) scale(1,1)"><g><path fill="none" stroke="none"/><text fill="#000000" stroke="none" font-family="Arial" font-size="13px" font-style="normal" font-weight="normal" text-decoration="none" x="413" y="448.5">+update date</text></g></g><g transform="translate(-150,-126) scale(1,1)"><g><path fill="none" stroke="none"/><text fill="#000000" stroke="none" font-family="Arial" font-size="13px" font-style="normal" font-weight="normal" text-decoration="none" x="413" y="471.5">+create()</text></g></g><g transform="translate(-150,-126) scale(1,1)"><g><path fill="none" stroke="none"/><text fill="#000000" stroke="none" font-family="Arial" font-size="13px" font-style="normal" font-weight="normal" text-decoration="none" x="413" y="486.5">+getDiscount()</text></g></g><g transform="translate(-150,-126) scale(1,1)"><g><path fill="none" stroke="none"/><text fill="#000000" stroke="none" font-family="Arial" font-size="13px" font-style="normal" font-weight="normal" text-decoration="none" x="413" y="501.5">+getAll()</text></g></g><g transform="translate(-150,-126) scale(1,1)"><g><path fill="none" stroke="none"/><text fill="#000000" stroke="none" font-family="Arial" font-size="13px" font-style="normal" font-weight="normal" text-decoration="none" x="413" y="516.5">+printPDF()</text></g></g><g transform="translate(-150,-126) scale(1,1)"><g><path fill="none" stroke="none"/><text fill="#000000" stroke="none" font-family="Arial" font-size="13px" font-style="normal" font-weight="normal" text-decoration="none" x="413" y="531.5">+fineStrikerNext()</text></g></g><g transform="translate(-150,-126) scale(1,1)"><rect fill="#C0C0C0" stroke="none" x="175" y="143" width="104" height="64" opacity="0.2"/></g><g transform="translate(-150,-126) scale(1,1)"><rect fill="#ffffff" stroke="none" x="168" y="136" width="104" height="64"/></g><g transform="translate(-150,-126) scale(1,1)"><path fill="none" stroke="#000000" d="M 168 136 L 272 136 L 272 200 L 168 200 L 168 136 Z Z" stroke-miterlimit="10"/></g><g transform="translate(-150,-126) scale(1,1)"><path fill="none" stroke="#000000" d="M 168 161 L 272 161" stroke-miterlimit="10"/></g><g transform="translate(-150,-126) scale(1,1)"><path fill="none" stroke="#000000" d="M 168 171 L 272 171" stroke-miterlimit="10"/></g><g transform="translate(-150,-126) scale(1,1)"><g><path fill="none" stroke="none"/><text fill="#000000" stroke="none" font-family="Arial" font-size="13px" font-style="normal" font-weight="bold" text-decoration="none" x="200.12548828125" y="155.5">branch</text></g></g><g transform="translate(-150,-126) scale(1,1)"><g><path fill="none" stroke="none"/><text fill="#000000" stroke="none" font-family="Arial" font-size="13px" font-style="normal" font-weight="normal" text-decoration="none" x="173" y="188.5">+getId()</text></g></g><g transform="translate(-150,-126) scale(1,1)"><rect fill="#C0C0C0" stroke="none" x="175" y="223" width="104" height="57" opacity="0.2"/></g><g transform="translate(-150,-126) scale(1,1)"><rect fill="#ffffff" stroke="none" x="168" y="216" width="104" height="57"/></g><g transform="translate(-150,-126) scale(1,1)"><path fill="none" stroke="#000000" d="M 168 216 L 272 216 L 272 273 L 168 273 L 168 216 Z Z" stroke-miterlimit="10"/></g><g transform="translate(-150,-126) scale(1,1)"><path fill="none" stroke="#000000" d="M 168 241 L 272 241" stroke-miterlimit="10"/></g><g transform="translate(-150,-126) scale(1,1)"><path fill="none" stroke="#000000" d="M 168 251 L 272 251" stroke-miterlimit="10"/></g><g transform="translate(-150,-126) scale(1,1)"><g><path fill="none" stroke="none"/><text fill="#000000" stroke="none" font-family="Arial" font-size="13px" font-style="normal" font-weight="bold" text-decoration="none" x="190.369140625" y="235.5">Inspection</text></g></g><g transform="translate(-150,-126) scale(1,1)"><g><path fill="none" stroke="none"/><text fill="#000000" stroke="none" font-family="Arial" font-size="13px" font-style="normal" font-weight="normal" text-decoration="none" x="173" y="268.5">+getId()</text></g></g><g transform="translate(-150,-126) scale(1,1)"><rect fill="#C0C0C0" stroke="none" x="175" y="303" width="104" height="57" opacity="0.2"/></g><g transform="translate(-150,-126) scale(1,1)"><rect fill="#ffffff" stroke="none" x="168" y="296" width="104" height="57"/></g><g transform="translate(-150,-126) scale(1,1)"><path fill="none" stroke="#000000" d="M 168 296 L 272 296 L 272 353 L 168 353 L 168 296 Z Z" stroke-miterlimit="10"/></g><g transform="translate(-150,-126) scale(1,1)"><path fill="none" stroke="#000000" d="M 168 321 L 272 321" stroke-miterlimit="10"/></g><g transform="translate(-150,-126) scale(1,1)"><path fill="none" stroke="#000000" d="M 168 331 L 272 331" stroke-miterlimit="10"/></g><g transform="translate(-150,-126) scale(1,1)"><g><path fill="none" stroke="none"/><text fill="#000000" stroke="none" font-family="Arial" font-size="13px" font-style="normal" font-weight="bold" text-decoration="none" x="210.964111328125" y="315.5">fee</text></g></g><g transform="translate(-150,-126) scale(1,1)"><g><path fill="none" stroke="none"/><text fill="#000000" stroke="none" font-family="Arial" font-size="13px" font-style="normal" font-weight="normal" text-decoration="none" x="173" y="348.5">+getId()</text></g></g><g transform="translate(-150,-126) scale(1,1)"><rect fill="#C0C0C0" stroke="none" x="167" y="391" width="123.84814453125" height="57" opacity="0.2"/></g><g transform="translate(-150,-126) scale(1,1)"><rect fill="#ffffff" stroke="none" x="160" y="384" width="123.84814453125" height="57"/></g><g transform="translate(-150,-126) scale(1,1)"><path fill="none" stroke="#000000" d="M 160 384 L 283.84814453125 384 L 283.84814453125 441 L 160 441 L 160 384 Z Z" stroke-miterlimit="10"/></g><g transform="translate(-150,-126) scale(1,1)"><path fill="none" stroke="#000000" d="M 160 409 L 283.84814453125 409" stroke-miterlimit="10"/></g><g transform="translate(-150,-126) scale(1,1)"><path fill="none" stroke="#000000" d="M 160 419 L 283.84814453125 419" stroke-miterlimit="10"/></g><g transform="translate(-150,-126) scale(1,1)"><g><path fill="none" stroke="none"/><text fill="#000000" stroke="none" font-family="Arial" font-size="13px" font-style="normal" font-weight="bold" text-decoration="none" x="170.990478515625" y="403.5">distribution striker</text></g></g><g transform="translate(-150,-126) scale(1,1)"><g><path fill="none" stroke="none"/><text fill="#000000" stroke="none" font-family="Arial" font-size="13px" font-style="normal" font-weight="normal" text-decoration="none" x="165" y="436.5">+getId()</text></g></g><g transform="translate(-150,-126) scale(1,1)"><path fill="none" stroke="#000000" d="M 407 295 L 269 201" stroke-miterlimit="10"/></g><g transform="translate(-150,-126) scale(1,1)"><path fill="#FFFFFF" stroke="none" d="M 290.53813182327434 205.48429231465323 L 269 201 L 281.05888556181304 219.40063257084105"/></g><g transform="translate(-150,-126) scale(1,1)"><path fill="none" stroke="#000000" d="M 290.53813182327434 205.48429231465323 L 269 201 L 281.05888556181304 219.40063257084105 L 290.53813182327434 205.48429231465323" stroke-miterlimit="10"/></g><g transform="translate(-150,-126) scale(1,1)"><path fill="none" stroke="#000000" d="M 407 313 L 273 264" stroke-miterlimit="10"/></g><g transform="translate(-150,-126) scale(1,1)"><path fill="#FFFFFF" stroke="none" d="M 294.98047703171613 263.07337739170714 L 273 264 L 289.1977654927663 278.887323232917"/></g><g transform="translate(-150,-126) scale(1,1)"><path fill="none" stroke="#000000" d="M 294.98047703171613 263.07337739170714 L 273 264 L 289.1977654927663 278.887323232917 L 294.98047703171613 263.07337739170714" stroke-miterlimit="10"/></g><g transform="translate(-150,-126) scale(1,1)"><path fill="none" stroke="#000000" d="M 407 333 L 273 327" stroke-miterlimit="10"/></g><g transform="translate(-150,-126) scale(1,1)"><path fill="#FFFFFF" stroke="none" d="M 293.68159955726964 319.49857081932095 L 273 327 L 292.9284107349789 336.31978785048125"/></g><g transform="translate(-150,-126) scale(1,1)"><path fill="none" stroke="#000000" d="M 293.68159955726964 319.49857081932095 L 273 327 L 292.9284107349789 336.31978785048125 L 293.68159955726964 319.49857081932095" stroke-miterlimit="10"/></g><g transform="translate(-150,-126) scale(1,1)"><path fill="none" stroke="#000000" d="M 407 355 L 285 392" stroke-miterlimit="10"/></g><g transform="translate(-150,-126) scale(1,1)"><path fill="#FFFFFF" stroke="none" d="M 302.0070989748524 378.0444066962535 L 285 392 L 306.89392967398965 394.1577403528682"/></g><g transform="translate(-150,-126) scale(1,1)"><path fill="none" stroke="#000000" d="M 302.0070989748524 378.0444066962535 L 285 392 L 306.89392967398965 394.1577403528682 L 302.0070989748524 378.0444066962535" stroke-miterlimit="10"/></g><g transform="translate(-150,-126) scale(1,1)"><rect fill="#C0C0C0" stroke="none" x="775" y="247" width="95.44873046875" height="57" opacity="0.2"/></g><g transform="translate(-150,-126) scale(1,1)"><rect fill="#ffffff" stroke="none" x="768" y="240" width="95.44873046875" height="57"/></g><g transform="translate(-150,-126) scale(1,1)"><path fill="none" stroke="#000000" d="M 768 240 L 863.44873046875 240 L 863.44873046875 297 L 768 297 L 768 240 Z Z" stroke-miterlimit="10"/></g><g transform="translate(-150,-126) scale(1,1)"><path fill="none" stroke="#000000" d="M 768 265 L 863.44873046875 265" stroke-miterlimit="10"/></g><g transform="translate(-150,-126) scale(1,1)"><path fill="none" stroke="#000000" d="M 768 275 L 863.44873046875 275" stroke-miterlimit="10"/></g><g transform="translate(-150,-126) scale(1,1)"><g><path fill="none" stroke="none"/><text fill="#000000" stroke="none" font-family="Arial" font-size="13px" font-style="normal" font-weight="bold" text-decoration="none" x="774.896240234375" y="259.5">Type payment</text></g></g><g transform="translate(-150,-126) scale(1,1)"><g><path fill="none" stroke="none"/><text fill="#000000" stroke="none" font-family="Arial" font-size="13px" font-style="normal" font-weight="normal" text-decoration="none" x="773" y="292.5">+getId()</text></g></g><g transform="translate(-150,-126) scale(1,1)"><rect fill="#C0C0C0" stroke="none" x="607" y="247" width="112" height="235" opacity="0.2"/></g><g transform="translate(-150,-126) scale(1,1)"><rect fill="#ffffff" stroke="none" x="600" y="240" width="112" height="235"/></g><g transform="translate(-150,-126) scale(1,1)"><path fill="none" stroke="#000000" d="M 600 240 L 712 240 L 712 475 L 600 475 L 600 240 Z Z" stroke-miterlimit="10"/></g><g transform="translate(-150,-126) scale(1,1)"><path fill="none" stroke="#000000" d="M 600 265 L 712 265" stroke-miterlimit="10"/></g><g transform="translate(-150,-126) scale(1,1)"><path fill="none" stroke="#000000" d="M 600 423 L 712 423" stroke-miterlimit="10"/></g><g transform="translate(-150,-126) scale(1,1)"><g><path fill="none" stroke="none"/><text fill="#000000" stroke="none" font-family="Arial" font-size="13px" font-style="normal" font-weight="bold" text-decoration="none" x="631.069580078125" y="259.5">payment</text></g></g><g transform="translate(-150,-126) scale(1,1)"><g><path fill="none" stroke="none"/><text fill="#000000" stroke="none" font-family="Arial" font-size="13px" font-style="normal" font-weight="normal" text-decoration="none" x="605" y="282.5">+pId</text></g></g><g transform="translate(-150,-126) scale(1,1)"><g><path fill="none" stroke="none"/><text fill="#000000" stroke="none" font-family="Arial" font-size="13px" font-style="normal" font-weight="normal" text-decoration="none" x="605" y="297.5">+invoice</text></g></g><g transform="translate(-150,-126) scale(1,1)"><g><path fill="none" stroke="none"/><text fill="#000000" stroke="none" font-family="Arial" font-size="13px" font-style="normal" font-weight="normal" text-decoration="none" x="605" y="312.5">+type payment</text></g></g><g transform="translate(-150,-126) scale(1,1)"><g><path fill="none" stroke="none"/><text fill="#000000" stroke="none" font-family="Arial" font-size="13px" font-style="normal" font-weight="normal" text-decoration="none" x="605" y="327.5">+transaction</text></g></g><g transform="translate(-150,-126) scale(1,1)"><g><path fill="none" stroke="none"/><text fill="#000000" stroke="none" font-family="Arial" font-size="13px" font-style="normal" font-weight="normal" text-decoration="none" x="605" y="342.5">+employee</text></g></g><g transform="translate(-150,-126) scale(1,1)"><g><path fill="none" stroke="none"/><text fill="#000000" stroke="none" font-family="Arial" font-size="13px" font-style="normal" font-weight="normal" text-decoration="none" x="605" y="357.5">+price</text></g></g><g transform="translate(-150,-126) scale(1,1)"><g><path fill="none" stroke="none"/><text fill="#000000" stroke="none" font-family="Arial" font-size="13px" font-style="normal" font-weight="normal" text-decoration="none" x="605" y="372.5">+receipt</text></g></g><g transform="translate(-150,-126) scale(1,1)"><g><path fill="none" stroke="none"/><text fill="#000000" stroke="none" font-family="Arial" font-size="13px" font-style="normal" font-weight="normal" text-decoration="none" x="605" y="387.5">+diff</text></g></g><g transform="translate(-150,-126) scale(1,1)"><g><path fill="none" stroke="none"/><text fill="#000000" stroke="none" font-family="Arial" font-size="13px" font-style="normal" font-weight="normal" text-decoration="none" x="605" y="402.5">+image</text></g></g><g transform="translate(-150,-126) scale(1,1)"><g><path fill="none" stroke="none"/><text fill="#000000" stroke="none" font-family="Arial" font-size="13px" font-style="normal" font-weight="normal" text-decoration="none" x="605" y="417.5">+create date</text></g></g><g transform="translate(-150,-126) scale(1,1)"><g><path fill="none" stroke="none"/><text fill="#000000" stroke="none" font-family="Arial" font-size="13px" font-style="normal" font-weight="normal" text-decoration="none" x="605" y="440.5">+create()</text></g></g><g transform="translate(-150,-126) scale(1,1)"><g><path fill="none" stroke="none"/><text fill="#000000" stroke="none" font-family="Arial" font-size="13px" font-style="normal" font-weight="normal" text-decoration="none" x="605" y="455.5">+getAll()</text></g></g><g transform="translate(-150,-126) scale(1,1)"><g><path fill="none" stroke="none"/><text fill="#000000" stroke="none" font-family="Arial" font-size="13px" font-style="normal" font-weight="normal" text-decoration="none" x="605" y="470.5">+printPDF()</text></g></g><g transform="translate(-150,-126) scale(1,1)"><path fill="none" stroke="#000000" d="M 713 325 L 767 295" stroke-miterlimit="10"/></g><g transform="translate(-150,-126) scale(1,1)"><path fill="#FFFFFF" stroke="none" d="M 753.321092740461 312.23042356371235 L 767 295 L 745.1438025729407 297.5113012621756"/></g><g transform="translate(-150,-126) scale(1,1)"><path fill="none" stroke="#000000" d="M 753.321092740461 312.23042356371235 L 767 295 L 745.1438025729407 297.5113012621756 L 753.321092740461 312.23042356371235" stroke-miterlimit="10"/></g><g transform="translate(-150,-126) scale(1,1)"><path fill="none" stroke="#000000" d="M 600 352 L 528 352" stroke-miterlimit="10"/></g><g transform="translate(-150,-126) scale(1,1)"><path fill="#000000" stroke="none" d="M 538.1626748576241 347.790482243984 L 528 352 L 538.1626748576241 356.209517756016 L 550 352"/></g><g transform="translate(-150,-126) scale(1,1)"><path fill="none" stroke="#000000" d="M 538.1626748576241 347.790482243984 L 528 352 L 538.1626748576241 356.209517756016 L 550 352 L 538.1626748576241 347.790482243984" stroke-miterlimit="10"/></g></g></svg>