<svg version="1.1" xmlns="http://www.w3.org/2000/svg" xmlns:xlink="http://www.w3.org/1999/xlink" width="554" height="467"><defs/><g><text fill="#eeeeee" stroke="none" font-family="Arial" font-size="24px" font-style="normal" font-weight="normal" text-decoration="none" x="0" y="0">UNREGISTERED</text><text fill="#eeeeee" stroke="none" font-family="Arial" font-size="24px" font-style="normal" font-weight="normal" text-decoration="none" x="0" y="30">UNREGISTERED</text><text fill="#eeeeee" stroke="none" font-family="Arial" font-size="24px" font-style="normal" font-weight="normal" text-decoration="none" x="0" y="60">UNREGISTERED</text><text fill="#eeeeee" stroke="none" font-family="Arial" font-size="24px" font-style="normal" font-weight="normal" text-decoration="none" x="0" y="90">UNREGISTERED</text><text fill="#eeeeee" stroke="none" font-family="Arial" font-size="24px" font-style="normal" font-weight="normal" text-decoration="none" x="0" y="120">UNREGISTERED</text><text fill="#eeeeee" stroke="none" font-family="Arial" font-size="24px" font-style="normal" font-weight="normal" text-decoration="none" x="0" y="150">UNREGISTERED</text><text fill="#eeeeee" stroke="none" font-family="Arial" font-size="24px" font-style="normal" font-weight="normal" text-decoration="none" x="0" y="180">UNREGISTERED</text><text fill="#eeeeee" stroke="none" font-family="Arial" font-size="24px" font-style="normal" font-weight="normal" text-decoration="none" x="0" y="210">UNREGISTERED</text><text fill="#eeeeee" stroke="none" font-family="Arial" font-size="24px" font-style="normal" font-weight="normal" text-decoration="none" x="0" y="240">UNREGISTERED</text><text fill="#eeeeee" stroke="none" font-family="Arial" font-size="24px" font-style="normal" font-weight="normal" text-decoration="none" x="0" y="270">UNREGISTERED</text><text fill="#eeeeee" stroke="none" font-family="Arial" font-size="24px" font-style="normal" font-weight="normal" text-decoration="none" x="0" y="300">UNREGISTERED</text><text fill="#eeeeee" stroke="none" font-family="Arial" font-size="24px" font-style="normal" font-weight="normal" text-decoration="none" x="0" y="330">UNREGISTERED</text><text fill="#eeeeee" stroke="none" font-family="Arial" font-size="24px" font-style="normal" font-weight="normal" text-decoration="none" x="0" y="360">UNREGISTERED</text><text fill="#eeeeee" stroke="none" font-family="Arial" font-size="24px" font-style="normal" font-weight="normal" text-decoration="none" x="0" y="390">UNREGISTERED</text><text fill="#eeeeee" stroke="none" font-family="Arial" font-size="24px" font-style="normal" font-weight="normal" text-decoration="none" x="0" y="420">UNREGISTERED</text><text fill="#eeeeee" stroke="none" font-family="Arial" font-size="24px" font-style="normal" font-weight="normal" text-decoration="none" x="0" y="450">UNREGISTERED</text><text fill="#eeeeee" stroke="none" font-family="Arial" font-size="24px" font-style="normal" font-weight="normal" text-decoration="none" x="200" y="0">UNREGISTERED</text><text fill="#eeeeee" stroke="none" font-family="Arial" font-size="24px" font-style="normal" font-weight="normal" text-decoration="none" x="200" y="30">UNREGISTERED</text><text fill="#eeeeee" stroke="none" font-family="Arial" font-size="24px" font-style="normal" font-weight="normal" text-decoration="none" x="200" y="60">UNREGISTERED</text><text fill="#eeeeee" stroke="none" font-family="Arial" font-size="24px" font-style="normal" font-weight="normal" text-decoration="none" x="200" y="90">UNREGISTERED</text><text fill="#eeeeee" stroke="none" font-family="Arial" font-size="24px" font-style="normal" font-weight="normal" text-decoration="none" x="200" y="120">UNREGISTERED</text><text fill="#eeeeee" stroke="none" font-family="Arial" font-size="24px" font-style="normal" font-weight="normal" text-decoration="none" x="200" y="150">UNREGISTERED</text><text fill="#eeeeee" stroke="none" font-family="Arial" font-size="24px" font-style="normal" font-weight="normal" text-decoration="none" x="200" y="180">UNREGISTERED</text><text fill="#eeeeee" stroke="none" font-family="Arial" font-size="24px" font-style="normal" font-weight="normal" text-decoration="none" x="200" y="210">UNREGISTERED</text><text fill="#eeeeee" stroke="none" font-family="Arial" font-size="24px" font-style="normal" font-weight="normal" text-decoration="none" x="200" y="240">UNREGISTERED</text><text fill="#eeeeee" stroke="none" font-family="Arial" font-size="24px" font-style="normal" font-weight="normal" text-decoration="none" x="200" y="270">UNREGISTERED</text><text fill="#eeeeee" stroke="none" font-family="Arial" font-size="24px" font-style="normal" font-weight="normal" text-decoration="none" x="200" y="300">UNREGISTERED</text><text fill="#eeeeee" stroke="none" font-family="Arial" font-size="24px" font-style="normal" font-weight="normal" text-decoration="none" x="200" y="330">UNREGISTERED</text><text fill="#eeeeee" stroke="none" font-family="Arial" font-size="24px" font-style="normal" font-weight="normal" text-decoration="none" x="200" y="360">UNREGISTERED</text><text fill="#eeeeee" stroke="none" font-family="Arial" font-size="24px" font-style="normal" font-weight="normal" text-decoration="none" x="200" y="390">UNREGISTERED</text><text fill="#eeeeee" stroke="none" font-family="Arial" font-size="24px" font-style="normal" font-weight="normal" text-decoration="none" x="200" y="420">UNREGISTERED</text><text fill="#eeeeee" stroke="none" font-family="Arial" font-size="24px" font-style="normal" font-weight="normal" text-decoration="none" x="200" y="450">UNREGISTERED</text><text fill="#eeeeee" stroke="none" font-family="Arial" font-size="24px" font-style="normal" font-weight="normal" text-decoration="none" x="400" y="0">UNREGISTERED</text><text fill="#eeeeee" stroke="none" font-family="Arial" font-size="24px" font-style="normal" font-weight="normal" text-decoration="none" x="400" y="30">UNREGISTERED</text><text fill="#eeeeee" stroke="none" font-family="Arial" font-size="24px" font-style="normal" font-weight="normal" text-decoration="none" x="400" y="60">UNREGISTERED</text><text fill="#eeeeee" stroke="none" font-family="Arial" font-size="24px" font-style="normal" font-weight="normal" text-decoration="none" x="400" y="90">UNREGISTERED</text><text fill="#eeeeee" stroke="none" font-family="Arial" font-size="24px" font-style="normal" font-weight="normal" text-decoration="none" x="400" y="120">UNREGISTERED</text><text fill="#eeeeee" stroke="none" font-family="Arial" font-size="24px" font-style="normal" font-weight="normal" text-decoration="none" x="400" y="150">UNREGISTERED</text><text fill="#eeeeee" stroke="none" font-family="Arial" font-size="24px" font-style="normal" font-weight="normal" text-decoration="none" x="400" y="180">UNREGISTERED</text><text fill="#eeeeee" stroke="none" font-family="Arial" font-size="24px" font-style="normal" font-weight="normal" text-decoration="none" x="400" y="210">UNREGISTERED</text><text fill="#eeeeee" stroke="none" font-family="Arial" font-size="24px" font-style="normal" font-weight="normal" text-decoration="none" x="400" y="240">UNREGISTERED</text><text fill="#eeeeee" stroke="none" font-family="Arial" font-size="24px" font-style="normal" font-weight="normal" text-decoration="none" x="400" y="270">UNREGISTERED</text><text fill="#eeeeee" stroke="none" font-family="Arial" font-size="24px" font-style="normal" font-weight="normal" text-decoration="none" x="400" y="300">UNREGISTERED</text><text fill="#eeeeee" stroke="none" font-family="Arial" font-size="24px" font-style="normal" font-weight="normal" text-decoration="none" x="400" y="330">UNREGISTERED</text><text fill="#eeeeee" stroke="none" font-family="Arial" font-size="24px" font-style="normal" font-weight="normal" text-decoration="none" x="400" y="360">UNREGISTERED</text><text fill="#eeeeee" stroke="none" font-family="Arial" font-size="24px" font-style="normal" font-weight="normal" text-decoration="none" x="400" y="390">UNREGISTERED</text><text fill="#eeeeee" stroke="none" font-family="Arial" font-size="24px" font-style="normal" font-weight="normal" text-decoration="none" x="400" y="420">UNREGISTERED</text><text fill="#eeeeee" stroke="none" font-family="Arial" font-size="24px" font-style="normal" font-weight="normal" text-decoration="none" x="400" y="450">UNREGISTERED</text><g transform="translate(-214,-53) scale(1,1)"><rect fill="#C0C0C0" stroke="none" x="231" y="70" width="112" height="64" opacity="0.2"/></g><g transform="translate(-214,-53) scale(1,1)"><rect fill="#ffffff" stroke="none" x="224" y="63" width="112" height="64"/></g><g transform="translate(-214,-53) scale(1,1)"><path fill="none" stroke="#000000" d="M 224 63 L 336 63 L 336 127 L 224 127 L 224 63 Z Z" stroke-miterlimit="10"/></g><g transform="translate(-214,-53) scale(1,1)"><path fill="none" stroke="#000000" d="M 224 88 L 336 88" stroke-miterlimit="10"/></g><g transform="translate(-214,-53) scale(1,1)"><path fill="none" stroke="#000000" d="M 224 98 L 336 98" stroke-miterlimit="10"/></g><g transform="translate(-214,-53) scale(1,1)"><g><path fill="none" stroke="none"/><text fill="#000000" stroke="none" font-family="Arial" font-size="13px" font-style="normal" font-weight="bold" text-decoration="none" x="259.0400390625" y="82.5">Vehicle</text></g></g><g transform="translate(-214,-53) scale(1,1)"><g><path fill="none" stroke="none"/><text fill="#000000" stroke="none" font-family="Arial" font-size="13px" font-style="normal" font-weight="normal" text-decoration="none" x="229" y="115.5">+getId()</text></g></g><g transform="translate(-214,-53) scale(1,1)"><rect fill="#C0C0C0" stroke="none" x="381" y="70" width="104" height="64" opacity="0.2"/></g><g transform="translate(-214,-53) scale(1,1)"><rect fill="#ffffff" stroke="none" x="374" y="63" width="104" height="64"/></g><g transform="translate(-214,-53) scale(1,1)"><path fill="none" stroke="#000000" d="M 374 63 L 478 63 L 478 127 L 374 127 L 374 63 Z Z" stroke-miterlimit="10"/></g><g transform="translate(-214,-53) scale(1,1)"><path fill="none" stroke="#000000" d="M 374 88 L 478 88" stroke-miterlimit="10"/></g><g transform="translate(-214,-53) scale(1,1)"><path fill="none" stroke="#000000" d="M 374 98 L 478 98" stroke-miterlimit="10"/></g><g transform="translate(-214,-53) scale(1,1)"><g><path fill="none" stroke="none"/><text fill="#000000" stroke="none" font-family="Arial" font-size="13px" font-style="normal" font-weight="bold" text-decoration="none" x="399.619140625" y="82.5">Standard</text></g></g><g transform="translate(-214,-53) scale(1,1)"><g><path fill="none" stroke="none"/><text fill="#000000" stroke="none" font-family="Arial" font-size="13px" font-style="normal" font-weight="normal" text-decoration="none" x="379" y="115.5">+getId()</text></g></g><g transform="translate(-214,-53) scale(1,1)"><rect fill="#C0C0C0" stroke="none" x="523" y="70" width="107.9599609375" height="64" opacity="0.2"/></g><g transform="translate(-214,-53) scale(1,1)"><rect fill="#ffffff" stroke="none" x="516" y="63" width="107.9599609375" height="64"/></g><g transform="translate(-214,-53) scale(1,1)"><path fill="none" stroke="#000000" d="M 516 63 L 623.9599609375 63 L 623.9599609375 127 L 516 127 L 516 63 Z Z" stroke-miterlimit="10"/></g><g transform="translate(-214,-53) scale(1,1)"><path fill="none" stroke="#000000" d="M 516 88 L 623.9599609375 88" stroke-miterlimit="10"/></g><g transform="translate(-214,-53) scale(1,1)"><path fill="none" stroke="#000000" d="M 516 98 L 623.9599609375 98" stroke-miterlimit="10"/></g><g transform="translate(-214,-53) scale(1,1)"><g><path fill="none" stroke="none"/><text fill="#000000" stroke="none" font-family="Arial" font-size="13px" font-style="normal" font-weight="bold" text-decoration="none" x="523.365966796875" y="82.5">Engine Machine</text></g></g><g transform="translate(-214,-53) scale(1,1)"><g><path fill="none" stroke="none"/><text fill="#000000" stroke="none" font-family="Arial" font-size="13px" font-style="normal" font-weight="normal" text-decoration="none" x="521" y="115.5">+getId()</text></g></g><g transform="translate(-214,-53) scale(1,1)"><rect fill="#C0C0C0" stroke="none" x="669" y="70" width="96" height="64" opacity="0.2"/></g><g transform="translate(-214,-53) scale(1,1)"><rect fill="#ffffff" stroke="none" x="662" y="63" width="96" height="64"/></g><g transform="translate(-214,-53) scale(1,1)"><path fill="none" stroke="#000000" d="M 662 63 L 758 63 L 758 127 L 662 127 L 662 63 Z Z" stroke-miterlimit="10"/></g><g transform="translate(-214,-53) scale(1,1)"><path fill="none" stroke="#000000" d="M 662 88 L 758 88" stroke-miterlimit="10"/></g><g transform="translate(-214,-53) scale(1,1)"><path fill="none" stroke="#000000" d="M 662 98 L 758 98" stroke-miterlimit="10"/></g><g transform="translate(-214,-53) scale(1,1)"><g><path fill="none" stroke="none"/><text fill="#000000" stroke="none" font-family="Arial" font-size="13px" font-style="normal" font-weight="bold" text-decoration="none" x="681.095947265625" y="82.5">Employee</text></g></g><g transform="translate(-214,-53) scale(1,1)"><g><path fill="none" stroke="none"/><text fill="#000000" stroke="none" font-family="Arial" font-size="13px" font-style="normal" font-weight="normal" text-decoration="none" x="667" y="115.5">+getId()</text></g></g><g transform="translate(-214,-53) scale(1,1)"><rect fill="#C0C0C0" stroke="none" x="431" y="207" width="146.66162109375" height="310" opacity="0.2"/></g><g transform="translate(-214,-53) scale(1,1)"><rect fill="#ffffff" stroke="none" x="424" y="200" width="146.66162109375" height="310"/></g><g transform="translate(-214,-53) scale(1,1)"><path fill="none" stroke="#000000" d="M 424 200 L 570.66162109375 200 L 570.66162109375 510 L 424 510 L 424 200 Z Z" stroke-miterlimit="10"/></g><g transform="translate(-214,-53) scale(1,1)"><path fill="none" stroke="#000000" d="M 424 225 L 570.66162109375 225" stroke-miterlimit="10"/></g><g transform="translate(-214,-53) scale(1,1)"><path fill="none" stroke="#000000" d="M 424 338 L 570.66162109375 338" stroke-miterlimit="10"/></g><g transform="translate(-214,-53) scale(1,1)"><g><path fill="none" stroke="none"/><text fill="#000000" stroke="none" font-family="Arial" font-size="13px" font-style="normal" font-weight="bold" text-decoration="none" x="467.699951171875" y="219.5">Inspection</text></g></g><g transform="translate(-214,-53) scale(1,1)"><g><path fill="none" stroke="none"/><text fill="#000000" stroke="none" font-family="Arial" font-size="13px" font-style="normal" font-weight="normal" text-decoration="none" x="429" y="242.5">+inpId</text></g></g><g transform="translate(-214,-53) scale(1,1)"><g><path fill="none" stroke="none"/><text fill="#000000" stroke="none" font-family="Arial" font-size="13px" font-style="normal" font-weight="normal" text-decoration="none" x="429" y="257.5">+image</text></g></g><g transform="translate(-214,-53) scale(1,1)"><g><path fill="none" stroke="none"/><text fill="#000000" stroke="none" font-family="Arial" font-size="13px" font-style="normal" font-weight="normal" text-decoration="none" x="429" y="272.5">+weight</text></g></g><g transform="translate(-214,-53) scale(1,1)"><g><path fill="none" stroke="none"/><text fill="#000000" stroke="none" font-family="Arial" font-size="13px" font-style="normal" font-weight="normal" text-decoration="none" x="429" y="287.5">+payload</text></g></g><g transform="translate(-214,-53) scale(1,1)"><g><path fill="none" stroke="none"/><text fill="#000000" stroke="none" font-family="Arial" font-size="13px" font-style="normal" font-weight="normal" text-decoration="none" x="429" y="302.5">+gross weight</text></g></g><g transform="translate(-214,-53) scale(1,1)"><g><path fill="none" stroke="none"/><text fill="#000000" stroke="none" font-family="Arial" font-size="13px" font-style="normal" font-weight="normal" text-decoration="none" x="429" y="317.5">+front shaft weight</text></g></g><g transform="translate(-214,-53) scale(1,1)"><g><path fill="none" stroke="none"/><text fill="#000000" stroke="none" font-family="Arial" font-size="13px" font-style="normal" font-weight="normal" text-decoration="none" x="429" y="332.5">+etc</text></g></g><g transform="translate(-214,-53) scale(1,1)"><g><path fill="none" stroke="none"/><text fill="#000000" stroke="none" font-family="Arial" font-size="13px" font-style="normal" font-weight="normal" text-decoration="none" x="429" y="355.5">+create()</text></g></g><g transform="translate(-214,-53) scale(1,1)"><g><path fill="none" stroke="none"/><text fill="#000000" stroke="none" font-family="Arial" font-size="13px" font-style="normal" font-weight="normal" text-decoration="none" x="429" y="370.5">+getid()</text></g></g><g transform="translate(-214,-53) scale(1,1)"><g><path fill="none" stroke="none"/><text fill="#000000" stroke="none" font-family="Arial" font-size="13px" font-style="normal" font-weight="normal" text-decoration="none" x="429" y="385.5">+getAll()</text></g></g><g transform="translate(-214,-53) scale(1,1)"><g><path fill="none" stroke="none"/><text fill="#000000" stroke="none" font-family="Arial" font-size="13px" font-style="normal" font-weight="normal" text-decoration="none" x="429" y="400.5">+inspection_day()</text></g></g><g transform="translate(-214,-53) scale(1,1)"><g><path fill="none" stroke="none"/><text fill="#000000" stroke="none" font-family="Arial" font-size="13px" font-style="normal" font-weight="normal" text-decoration="none" x="429" y="415.5">+recheck()</text></g></g><g transform="translate(-214,-53) scale(1,1)"><g><path fill="none" stroke="none"/><text fill="#000000" stroke="none" font-family="Arial" font-size="13px" font-style="normal" font-weight="normal" text-decoration="none" x="429" y="430.5">+update()</text></g></g><g transform="translate(-214,-53) scale(1,1)"><g><path fill="none" stroke="none"/><text fill="#000000" stroke="none" font-family="Arial" font-size="13px" font-style="normal" font-weight="normal" text-decoration="none" x="429" y="445.5">+pull data from engine()</text></g></g><g transform="translate(-214,-53) scale(1,1)"><g><path fill="none" stroke="none"/><text fill="#000000" stroke="none" font-family="Arial" font-size="13px" font-style="normal" font-weight="normal" text-decoration="none" x="429" y="460.5">+connect engine()</text></g></g><g transform="translate(-214,-53) scale(1,1)"><g><path fill="none" stroke="none"/><text fill="#000000" stroke="none" font-family="Arial" font-size="13px" font-style="normal" font-weight="normal" text-decoration="none" x="429" y="475.5">+printPDF()</text></g></g><g transform="translate(-214,-53) scale(1,1)"><g><path fill="none" stroke="none"/><text fill="#000000" stroke="none" font-family="Arial" font-size="13px" font-style="normal" font-weight="normal" text-decoration="none" x="429" y="490.5">+take image car()</text></g></g><g transform="translate(-214,-53) scale(1,1)"><g><path fill="none" stroke="none"/><text fill="#000000" stroke="none" font-family="Arial" font-size="13px" font-style="normal" font-weight="normal" text-decoration="none" x="429" y="505.5">+time remaining()</text></g></g><g transform="translate(-214,-53) scale(1,1)"><path fill="none" stroke="#000000" d="M 423 266 L 308 128" stroke-miterlimit="10"/></g><g transform="translate(-214,-53) scale(1,1)"><path fill="#FFFFFF" stroke="none" d="M 327.4796540394558 138.2246309714881 L 308 128 L 314.5442895713979 149.00410136153636"/></g><g transform="translate(-214,-53) scale(1,1)"><path fill="none" stroke="#000000" d="M 327.4796540394558 138.2246309714881 L 308 128 L 314.5442895713979 149.00410136153636 L 327.4796540394558 138.2246309714881" stroke-miterlimit="10"/></g><g transform="translate(-214,-53) scale(1,1)"><path fill="none" stroke="#000000" d="M 454 199 L 435 128" stroke-miterlimit="10"/></g><g transform="translate(-214,-53) scale(1,1)"><path fill="#FFFFFF" stroke="none" d="M 448.387155557534 145.45806593178025 L 435 128 L 432.12143166876785 149.81086528229514"/></g><g transform="translate(-214,-53) scale(1,1)"><path fill="none" stroke="#000000" d="M 448.387155557534 145.45806593178025 L 435 128 L 432.12143166876785 149.81086528229514 L 448.387155557534 145.45806593178025" stroke-miterlimit="10"/></g><g transform="translate(-214,-53) scale(1,1)"><path fill="none" stroke="#000000" d="M 540 199 L 560 128" stroke-miterlimit="10"/></g><g transform="translate(-214,-53) scale(1,1)"><path fill="#FFFFFF" stroke="none" d="M 562.5926843882601 149.8466928312473 L 560 128 L 546.3853600649408 145.28124935988973"/></g><g transform="translate(-214,-53) scale(1,1)"><path fill="none" stroke="#000000" d="M 562.5926843882601 149.8466928312473 L 560 128 L 546.3853600649408 145.28124935988973 L 562.5926843882601 149.8466928312473" stroke-miterlimit="10"/></g><g transform="translate(-214,-53) scale(1,1)"><path fill="none" stroke="#000000" d="M 572 264 L 683 128" stroke-miterlimit="10"/></g><g transform="translate(-214,-53) scale(1,1)"><path fill="#FFFFFF" stroke="none" d="M 676.6705243180527 149.06983003233861 L 683 128 L 663.6257651296252 138.42300451825432"/></g><g transform="translate(-214,-53) scale(1,1)"><path fill="none" stroke="#000000" d="M 676.6705243180527 149.06983003233861 L 683 128 L 663.6257651296252 138.42300451825432 L 676.6705243180527 149.06983003233861" stroke-miterlimit="10"/></g></g></svg>