<svg version="1.1" xmlns="http://www.w3.org/2000/svg" xmlns:xlink="http://www.w3.org/1999/xlink" width="909.841796875" height="572"><defs/><g><text fill="#eeeeee" stroke="none" font-family="Arial" font-size="24px" font-style="normal" font-weight="normal" text-decoration="none" x="0" y="0">UNREGISTERED</text><text fill="#eeeeee" stroke="none" font-family="Arial" font-size="24px" font-style="normal" font-weight="normal" text-decoration="none" x="0" y="30">UNREGISTERED</text><text fill="#eeeeee" stroke="none" font-family="Arial" font-size="24px" font-style="normal" font-weight="normal" text-decoration="none" x="0" y="60">UNREGISTERED</text><text fill="#eeeeee" stroke="none" font-family="Arial" font-size="24px" font-style="normal" font-weight="normal" text-decoration="none" x="0" y="90">UNREGISTERED</text><text fill="#eeeeee" stroke="none" font-family="Arial" font-size="24px" font-style="normal" font-weight="normal" text-decoration="none" x="0" y="120">UNREGISTERED</text><text fill="#eeeeee" stroke="none" font-family="Arial" font-size="24px" font-style="normal" font-weight="normal" text-decoration="none" x="0" y="150">UNREGISTERED</text><text fill="#eeeeee" stroke="none" font-family="Arial" font-size="24px" font-style="normal" font-weight="normal" text-decoration="none" x="0" y="180">UNREGISTERED</text><text fill="#eeeeee" stroke="none" font-family="Arial" font-size="24px" font-style="normal" font-weight="normal" text-decoration="none" x="0" y="210">UNREGISTERED</text><text fill="#eeeeee" stroke="none" font-family="Arial" font-size="24px" font-style="normal" font-weight="normal" text-decoration="none" x="0" y="240">UNREGISTERED</text><text fill="#eeeeee" stroke="none" font-family="Arial" font-size="24px" font-style="normal" font-weight="normal" text-decoration="none" x="0" y="270">UNREGISTERED</text><text fill="#eeeeee" stroke="none" font-family="Arial" font-size="24px" font-style="normal" font-weight="normal" text-decoration="none" x="0" y="300">UNREGISTERED</text><text fill="#eeeeee" stroke="none" font-family="Arial" font-size="24px" font-style="normal" font-weight="normal" text-decoration="none" x="0" y="330">UNREGISTERED</text><text fill="#eeeeee" stroke="none" font-family="Arial" font-size="24px" font-style="normal" font-weight="normal" text-decoration="none" x="0" y="360">UNREGISTERED</text><text fill="#eeeeee" stroke="none" font-family="Arial" font-size="24px" font-style="normal" font-weight="normal" text-decoration="none" x="0" y="390">UNREGISTERED</text><text fill="#eeeeee" stroke="none" font-family="Arial" font-size="24px" font-style="normal" font-weight="normal" text-decoration="none" x="0" y="420">UNREGISTERED</text><text fill="#eeeeee" stroke="none" font-family="Arial" font-size="24px" font-style="normal" font-weight="normal" text-decoration="none" x="0" y="450">UNREGISTERED</text><text fill="#eeeeee" stroke="none" font-family="Arial" font-size="24px" font-style="normal" font-weight="normal" text-decoration="none" x="0" y="480">UNREGISTERED</text><text fill="#eeeeee" stroke="none" font-family="Arial" font-size="24px" font-style="normal" font-weight="normal" text-decoration="none" x="0" y="510">UNREGISTERED</text><text fill="#eeeeee" stroke="none" font-family="Arial" font-size="24px" font-style="normal" font-weight="normal" text-decoration="none" x="0" y="540">UNREGISTERED</text><text fill="#eeeeee" stroke="none" font-family="Arial" font-size="24px" font-style="normal" font-weight="normal" text-decoration="none" x="0" y="570">UNREGISTERED</text><text fill="#eeeeee" stroke="none" font-family="Arial" font-size="24px" font-style="normal" font-weight="normal" text-decoration="none" x="200" y="0">UNREGISTERED</text><text fill="#eeeeee" stroke="none" font-family="Arial" font-size="24px" font-style="normal" font-weight="normal" text-decoration="none" x="200" y="30">UNREGISTERED</text><text fill="#eeeeee" stroke="none" font-family="Arial" font-size="24px" font-style="normal" font-weight="normal" text-decoration="none" x="200" y="60">UNREGISTERED</text><text fill="#eeeeee" stroke="none" font-family="Arial" font-size="24px" font-style="normal" font-weight="normal" text-decoration="none" x="200" y="90">UNREGISTERED</text><text fill="#eeeeee" stroke="none" font-family="Arial" font-size="24px" font-style="normal" font-weight="normal" text-decoration="none" x="200" y="120">UNREGISTERED</text><text fill="#eeeeee" stroke="none" font-family="Arial" font-size="24px" font-style="normal" font-weight="normal" text-decoration="none" x="200" y="150">UNREGISTERED</text><text fill="#eeeeee" stroke="none" font-family="Arial" font-size="24px" font-style="normal" font-weight="normal" text-decoration="none" x="200" y="180">UNREGISTERED</text><text fill="#eeeeee" stroke="none" font-family="Arial" font-size="24px" font-style="normal" font-weight="normal" text-decoration="none" x="200" y="210">UNREGISTERED</text><text fill="#eeeeee" stroke="none" font-family="Arial" font-size="24px" font-style="normal" font-weight="normal" text-decoration="none" x="200" y="240">UNREGISTERED</text><text fill="#eeeeee" stroke="none" font-family="Arial" font-size="24px" font-style="normal" font-weight="normal" text-decoration="none" x="200" y="270">UNREGISTERED</text><text fill="#eeeeee" stroke="none" font-family="Arial" font-size="24px" font-style="normal" font-weight="normal" text-decoration="none" x="200" y="300">UNREGISTERED</text><text fill="#eeeeee" stroke="none" font-family="Arial" font-size="24px" font-style="normal" font-weight="normal" text-decoration="none" x="200" y="330">UNREGISTERED</text><text fill="#eeeeee" stroke="none" font-family="Arial" font-size="24px" font-style="normal" font-weight="normal" text-decoration="none" x="200" y="360">UNREGISTERED</text><text fill="#eeeeee" stroke="none" font-family="Arial" font-size="24px" font-style="normal" font-weight="normal" text-decoration="none" x="200" y="390">UNREGISTERED</text><text fill="#eeeeee" stroke="none" font-family="Arial" font-size="24px" font-style="normal" font-weight="normal" text-decoration="none" x="200" y="420">UNREGISTERED</text><text fill="#eeeeee" stroke="none" font-family="Arial" font-size="24px" font-style="normal" font-weight="normal" text-decoration="none" x="200" y="450">UNREGISTERED</text><text fill="#eeeeee" stroke="none" font-family="Arial" font-size="24px" font-style="normal" font-weight="normal" text-decoration="none" x="200" y="480">UNREGISTERED</text><text fill="#eeeeee" stroke="none" font-family="Arial" font-size="24px" font-style="normal" font-weight="normal" text-decoration="none" x="200" y="510">UNREGISTERED</text><text fill="#eeeeee" stroke="none" font-family="Arial" font-size="24px" font-style="normal" font-weight="normal" text-decoration="none" x="200" y="540">UNREGISTERED</text><text fill="#eeeeee" stroke="none" font-family="Arial" font-size="24px" font-style="normal" font-weight="normal" text-decoration="none" x="200" y="570">UNREGISTERED</text><text fill="#eeeeee" stroke="none" font-family="Arial" font-size="24px" font-style="normal" font-weight="normal" text-decoration="none" x="400" y="0">UNREGISTERED</text><text fill="#eeeeee" stroke="none" font-family="Arial" font-size="24px" font-style="normal" font-weight="normal" text-decoration="none" x="400" y="30">UNREGISTERED</text><text fill="#eeeeee" stroke="none" font-family="Arial" font-size="24px" font-style="normal" font-weight="normal" text-decoration="none" x="400" y="60">UNREGISTERED</text><text fill="#eeeeee" stroke="none" font-family="Arial" font-size="24px" font-style="normal" font-weight="normal" text-decoration="none" x="400" y="90">UNREGISTERED</text><text fill="#eeeeee" stroke="none" font-family="Arial" font-size="24px" font-style="normal" font-weight="normal" text-decoration="none" x="400" y="120">UNREGISTERED</text><text fill="#eeeeee" stroke="none" font-family="Arial" font-size="24px" font-style="normal" font-weight="normal" text-decoration="none" x="400" y="150">UNREGISTERED</text><text fill="#eeeeee" stroke="none" font-family="Arial" font-size="24px" font-style="normal" font-weight="normal" text-decoration="none" x="400" y="180">UNREGISTERED</text><text fill="#eeeeee" stroke="none" font-family="Arial" font-size="24px" font-style="normal" font-weight="normal" text-decoration="none" x="400" y="210">UNREGISTERED</text><text fill="#eeeeee" stroke="none" font-family="Arial" font-size="24px" font-style="normal" font-weight="normal" text-decoration="none" x="400" y="240">UNREGISTERED</text><text fill="#eeeeee" stroke="none" font-family="Arial" font-size="24px" font-style="normal" font-weight="normal" text-decoration="none" x="400" y="270">UNREGISTERED</text><text fill="#eeeeee" stroke="none" font-family="Arial" font-size="24px" font-style="normal" font-weight="normal" text-decoration="none" x="400" y="300">UNREGISTERED</text><text fill="#eeeeee" stroke="none" font-family="Arial" font-size="24px" font-style="normal" font-weight="normal" text-decoration="none" x="400" y="330">UNREGISTERED</text><text fill="#eeeeee" stroke="none" font-family="Arial" font-size="24px" font-style="normal" font-weight="normal" text-decoration="none" x="400" y="360">UNREGISTERED</text><text fill="#eeeeee" stroke="none" font-family="Arial" font-size="24px" font-style="normal" font-weight="normal" text-decoration="none" x="400" y="390">UNREGISTERED</text><text fill="#eeeeee" stroke="none" font-family="Arial" font-size="24px" font-style="normal" font-weight="normal" text-decoration="none" x="400" y="420">UNREGISTERED</text><text fill="#eeeeee" stroke="none" font-family="Arial" font-size="24px" font-style="normal" font-weight="normal" text-decoration="none" x="400" y="450">UNREGISTERED</text><text fill="#eeeeee" stroke="none" font-family="Arial" font-size="24px" font-style="normal" font-weight="normal" text-decoration="none" x="400" y="480">UNREGISTERED</text><text fill="#eeeeee" stroke="none" font-family="Arial" font-size="24px" font-style="normal" font-weight="normal" text-decoration="none" x="400" y="510">UNREGISTERED</text><text fill="#eeeeee" stroke="none" font-family="Arial" font-size="24px" font-style="normal" font-weight="normal" text-decoration="none" x="400" y="540">UNREGISTERED</text><text fill="#eeeeee" stroke="none" font-family="Arial" font-size="24px" font-style="normal" font-weight="normal" text-decoration="none" x="400" y="570">UNREGISTERED</text><text fill="#eeeeee" stroke="none" font-family="Arial" font-size="24px" font-style="normal" font-weight="normal" text-decoration="none" x="600" y="0">UNREGISTERED</text><text fill="#eeeeee" stroke="none" font-family="Arial" font-size="24px" font-style="normal" font-weight="normal" text-decoration="none" x="600" y="30">UNREGISTERED</text><text fill="#eeeeee" stroke="none" font-family="Arial" font-size="24px" font-style="normal" font-weight="normal" text-decoration="none" x="600" y="60">UNREGISTERED</text><text fill="#eeeeee" stroke="none" font-family="Arial" font-size="24px" font-style="normal" font-weight="normal" text-decoration="none" x="600" y="90">UNREGISTERED</text><text fill="#eeeeee" stroke="none" font-family="Arial" font-size="24px" font-style="normal" font-weight="normal" text-decoration="none" x="600" y="120">UNREGISTERED</text><text fill="#eeeeee" stroke="none" font-family="Arial" font-size="24px" font-style="normal" font-weight="normal" text-decoration="none" x="600" y="150">UNREGISTERED</text><text fill="#eeeeee" stroke="none" font-family="Arial" font-size="24px" font-style="normal" font-weight="normal" text-decoration="none" x="600" y="180">UNREGISTERED</text><text fill="#eeeeee" stroke="none" font-family="Arial" font-size="24px" font-style="normal" font-weight="normal" text-decoration="none" x="600" y="210">UNREGISTERED</text><text fill="#eeeeee" stroke="none" font-family="Arial" font-size="24px" font-style="normal" font-weight="normal" text-decoration="none" x="600" y="240">UNREGISTERED</text><text fill="#eeeeee" stroke="none" font-family="Arial" font-size="24px" font-style="normal" font-weight="normal" text-decoration="none" x="600" y="270">UNREGISTERED</text><text fill="#eeeeee" stroke="none" font-family="Arial" font-size="24px" font-style="normal" font-weight="normal" text-decoration="none" x="600" y="300">UNREGISTERED</text><text fill="#eeeeee" stroke="none" font-family="Arial" font-size="24px" font-style="normal" font-weight="normal" text-decoration="none" x="600" y="330">UNREGISTERED</text><text fill="#eeeeee" stroke="none" font-family="Arial" font-size="24px" font-style="normal" font-weight="normal" text-decoration="none" x="600" y="360">UNREGISTERED</text><text fill="#eeeeee" stroke="none" font-family="Arial" font-size="24px" font-style="normal" font-weight="normal" text-decoration="none" x="600" y="390">UNREGISTERED</text><text fill="#eeeeee" stroke="none" font-family="Arial" font-size="24px" font-style="normal" font-weight="normal" text-decoration="none" x="600" y="420">UNREGISTERED</text><text fill="#eeeeee" stroke="none" font-family="Arial" font-size="24px" font-style="normal" font-weight="normal" text-decoration="none" x="600" y="450">UNREGISTERED</text><text fill="#eeeeee" stroke="none" font-family="Arial" font-size="24px" font-style="normal" font-weight="normal" text-decoration="none" x="600" y="480">UNREGISTERED</text><text fill="#eeeeee" stroke="none" font-family="Arial" font-size="24px" font-style="normal" font-weight="normal" text-decoration="none" x="600" y="510">UNREGISTERED</text><text fill="#eeeeee" stroke="none" font-family="Arial" font-size="24px" font-style="normal" font-weight="normal" text-decoration="none" x="600" y="540">UNREGISTERED</text><text fill="#eeeeee" stroke="none" font-family="Arial" font-size="24px" font-style="normal" font-weight="normal" text-decoration="none" x="600" y="570">UNREGISTERED</text><text fill="#eeeeee" stroke="none" font-family="Arial" font-size="24px" font-style="normal" font-weight="normal" text-decoration="none" x="800" y="0">UNREGISTERED</text><text fill="#eeeeee" stroke="none" font-family="Arial" font-size="24px" font-style="normal" font-weight="normal" text-decoration="none" x="800" y="30">UNREGISTERED</text><text fill="#eeeeee" stroke="none" font-family="Arial" font-size="24px" font-style="normal" font-weight="normal" text-decoration="none" x="800" y="60">UNREGISTERED</text><text fill="#eeeeee" stroke="none" font-family="Arial" font-size="24px" font-style="normal" font-weight="normal" text-decoration="none" x="800" y="90">UNREGISTERED</text><text fill="#eeeeee" stroke="none" font-family="Arial" font-size="24px" font-style="normal" font-weight="normal" text-decoration="none" x="800" y="120">UNREGISTERED</text><text fill="#eeeeee" stroke="none" font-family="Arial" font-size="24px" font-style="normal" font-weight="normal" text-decoration="none" x="800" y="150">UNREGISTERED</text><text fill="#eeeeee" stroke="none" font-family="Arial" font-size="24px" font-style="normal" font-weight="normal" text-decoration="none" x="800" y="180">UNREGISTERED</text><text fill="#eeeeee" stroke="none" font-family="Arial" font-size="24px" font-style="normal" font-weight="normal" text-decoration="none" x="800" y="210">UNREGISTERED</text><text fill="#eeeeee" stroke="none" font-family="Arial" font-size="24px" font-style="normal" font-weight="normal" text-decoration="none" x="800" y="240">UNREGISTERED</text><text fill="#eeeeee" stroke="none" font-family="Arial" font-size="24px" font-style="normal" font-weight="normal" text-decoration="none" x="800" y="270">UNREGISTERED</text><text fill="#eeeeee" stroke="none" font-family="Arial" font-size="24px" font-style="normal" font-weight="normal" text-decoration="none" x="800" y="300">UNREGISTERED</text><text fill="#eeeeee" stroke="none" font-family="Arial" font-size="24px" font-style="normal" font-weight="normal" text-decoration="none" x="800" y="330">UNREGISTERED</text><text fill="#eeeeee" stroke="none" font-family="Arial" font-size="24px" font-style="normal" font-weight="normal" text-decoration="none" x="800" y="360">UNREGISTERED</text><text fill="#eeeeee" stroke="none" font-family="Arial" font-size="24px" font-style="normal" font-weight="normal" text-decoration="none" x="800" y="390">UNREGISTERED</text><text fill="#eeeeee" stroke="none" font-family="Arial" font-size="24px" font-style="normal" font-weight="normal" text-decoration="none" x="800" y="420">UNREGISTERED</text><text fill="#eeeeee" stroke="none" font-family="Arial" font-size="24px" font-style="normal" font-weight="normal" text-decoration="none" x="800" y="450">UNREGISTERED</text><text fill="#eeeeee" stroke="none" font-family="Arial" font-size="24px" font-style="normal" font-weight="normal" text-decoration="none" x="800" y="480">UNREGISTERED</text><text fill="#eeeeee" stroke="none" font-family="Arial" font-size="24px" font-style="normal" font-weight="normal" text-decoration="none" x="800" y="510">UNREGISTERED</text><text fill="#eeeeee" stroke="none" font-family="Arial" font-size="24px" font-style="normal" font-weight="normal" text-decoration="none" x="800" y="540">UNREGISTERED</text><text fill="#eeeeee" stroke="none" font-family="Arial" font-size="24px" font-style="normal" font-weight="normal" text-decoration="none" x="800" y="570">UNREGISTERED</text><g transform="translate(-206,-22) scale(1,1)"><path fill="none" stroke="#000000" d="M 352 32 L 936 32 L 936 584 L 352 584 L 352 32" stroke-miterlimit="10"/></g><g transform="translate(-206,-22) scale(1,1)"><path fill="#ffffff" stroke="none" d="M 352 32 L 352 54 L 430.14990234375 54 L 441.14990234375 43 L 441.14990234375 32 L 352 32"/></g><g transform="translate(-206,-22) scale(1,1)"><path fill="none" stroke="#000000" d="M 352 32 L 352 54 L 430.14990234375 54 L 441.14990234375 43 L 441.14990234375 32 L 352 32 L 352 32" stroke-miterlimit="10"/></g><g transform="translate(-206,-22) scale(1,1)"><g><path fill="none" stroke="none"/><text fill="#000000" stroke="none" font-family="Arial" font-size="13px" font-style="normal" font-weight="normal" text-decoration="none" x="383.9599609375" y="49.5">Branch</text></g></g><g transform="translate(-206,-22) scale(1,1)"><g><path fill="none" stroke="none"/><text fill="#000000" stroke="none" font-family="Arial" font-size="13px" font-style="normal" font-weight="bold" text-decoration="none" x="357" y="49.5">pkg</text></g></g><g transform="translate(-206,-22) scale(1,1)"><path fill="#C0C0C0" stroke="none" d="M 535 279 C 535 265.7451648 558.2811904 255 587 255 C 615.7188096 255 639 265.7451648 639 279 C 639 292.2548352 615.7188096 303 587 303 C 558.2811904 303 535 292.2548352 535 279 Z" opacity="0.2"/></g><g transform="translate(-206,-22) scale(1,1)"><path fill="#ffffff" stroke="none" d="M 528 272 C 528 258.7451648 551.2811904 248 580 248 C 608.7188096 248 632 258.7451648 632 272 C 632 285.2548352 608.7188096 296 580 296 C 551.2811904 296 528 285.2548352 528 272 Z"/></g><g transform="translate(-206,-22) scale(1,1)"><path fill="none" stroke="#000000" d="M 528 272 C 528 258.7451648 551.2811904 248 580 248 C 608.7188096 248 632 258.7451648 632 272 C 632 285.2548352 608.7188096 296 580 296 C 551.2811904 296 528 285.2548352 528 272 Z" stroke-miterlimit="10"/></g><g transform="translate(-206,-22) scale(1,1)"><g><path fill="none" stroke="none"/><text fill="#000000" stroke="none" font-family="Arial" font-size="13px" font-style="normal" font-weight="bold" text-decoration="none" x="559.405029296875" y="279">Branch</text></g></g><g transform="translate(-206,-22) scale(1,1)"><path fill="#C0C0C0" stroke="none" d="M 503 120 C 503 110.6111584 532.9969184 103 570 103 C 607.0030816 103 637 110.6111584 637 120 C 637 129.3888416 607.0030816 137 570 137 C 532.9969184 137 503 129.3888416 503 120 Z" opacity="0.2"/></g><g transform="translate(-206,-22) scale(1,1)"><path fill="#ffffff" stroke="none" d="M 496 113 C 496 103.6111584 525.9969184 96 563 96 C 600.0030816 96 630 103.6111584 630 113 C 630 122.3888416 600.0030816 130 563 130 C 525.9969184 130 496 122.3888416 496 113 Z"/></g><g transform="translate(-206,-22) scale(1,1)"><path fill="none" stroke="#000000" d="M 496 113 C 496 103.6111584 525.9969184 96 563 96 C 600.0030816 96 630 103.6111584 630 113 C 630 122.3888416 600.0030816 130 563 130 C 525.9969184 130 496 122.3888416 496 113 Z" stroke-miterlimit="10"/></g><g transform="translate(-206,-22) scale(1,1)"><g><path fill="none" stroke="none"/><text fill="#000000" stroke="none" font-family="Arial" font-size="13px" font-style="normal" font-weight="bold" text-decoration="none" x="525.786865234375" y="120">type contract</text></g></g><g transform="translate(-206,-22) scale(1,1)"><path fill="none" stroke="#000000" d="M 577 247 L 565 131" stroke-miterlimit="10" stroke-dasharray="3"/></g><g transform="translate(-206,-22) scale(1,1)"><path fill="none" stroke="#000000" d="M 570.2329033834837 140.67557348063275 L 565 131 L 561.8585578477313 141.54188508777958" stroke-miterlimit="10"/></g><g transform="translate(-206,-22) scale(1,1)"><g><path fill="none" stroke="none"/><text fill="#000000" stroke="none" font-family="Arial" font-size="13px" font-style="normal" font-weight="normal" text-decoration="none" x="519.5" y="198.5">«include»</text></g></g><g transform="translate(-206,-22) scale(1,1)"><path fill="#ffffff" stroke="none" d="M 252.26799289772728 313.68 C 252.26799289772728 308.886167936 256.15383522267274 305 260.947265625 305 C 265.74069602732726 305 269.62653835227275 308.886167936 269.62653835227275 313.68 C 269.62653835227275 318.473832064 265.74069602732726 322.36 260.947265625 322.36 C 256.15383522267274 322.36 252.26799289772728 318.473832064 252.26799289772728 313.68 Z"/></g><g transform="translate(-206,-22) scale(1,1)"><path fill="none" stroke="#000000" d="M 252.26799289772728 313.68 C 252.26799289772728 308.886167936 256.15383522267274 305 260.947265625 305 C 265.74069602732726 305 269.62653835227275 308.886167936 269.62653835227275 313.68 C 269.62653835227275 318.473832064 265.74069602732726 322.36 260.947265625 322.36 C 256.15383522267274 322.36 252.26799289772728 318.473832064 252.26799289772728 313.68 Z" stroke-miterlimit="10"/></g><g transform="translate(-206,-22) scale(1,1)"><path fill="none" stroke="#000000" d="M 260.947265625 322.36 L 260.947265625 339.64" stroke-miterlimit="10"/></g><g transform="translate(-206,-22) scale(1,1)"><path fill="none" stroke="#000000" d="M 251.75744744318183 328.84 L 270.13708380681817 328.84" stroke-miterlimit="10"/></g><g transform="translate(-206,-22) scale(1,1)"><path fill="none" stroke="#000000" d="M 260.947265625 339.64 L 248.18362926136365 357" stroke-miterlimit="10"/></g><g transform="translate(-206,-22) scale(1,1)"><path fill="none" stroke="#000000" d="M 260.947265625 339.64 L 273.71090198863635 357" stroke-miterlimit="10"/></g><g transform="translate(-206,-22) scale(1,1)"><g><path fill="none" stroke="none"/><text fill="#000000" stroke="none" font-family="Arial" font-size="13px" font-style="normal" font-weight="bold" text-decoration="none" x="223.372314453125" y="377.5">Super Admin</text></g></g><g transform="translate(-206,-22) scale(1,1)"><path fill="none" stroke="#000000" d="M 307 333 L 527 284" stroke-miterlimit="10"/></g><g transform="translate(-206,-22) scale(1,1)"><path fill="none" stroke="#000000" d="M 307 307 L 539 131" stroke-miterlimit="10"/></g><g transform="translate(-206,-22) scale(1,1)"><path fill="#C0C0C0" stroke="none" d="M 679 176 C 679 166.6111584 701.6096176 159 729.5 159 C 757.3903824 159 780 166.6111584 780 176 C 780 185.3888416 757.3903824 193 729.5 193 C 701.6096176 193 679 185.3888416 679 176 Z" opacity="0.2"/></g><g transform="translate(-206,-22) scale(1,1)"><path fill="#ffffff" stroke="none" d="M 672 169 C 672 159.6111584 694.6096176 152 722.5 152 C 750.3903824 152 773 159.6111584 773 169 C 773 178.3888416 750.3903824 186 722.5 186 C 694.6096176 186 672 178.3888416 672 169 Z"/></g><g transform="translate(-206,-22) scale(1,1)"><path fill="none" stroke="#000000" d="M 672 169 C 672 159.6111584 694.6096176 152 722.5 152 C 750.3903824 152 773 159.6111584 773 169 C 773 178.3888416 750.3903824 186 722.5 186 C 694.6096176 186 672 178.3888416 672 169 Z" stroke-miterlimit="10"/></g><g transform="translate(-206,-22) scale(1,1)"><g><path fill="none" stroke="none"/><text fill="#000000" stroke="none" font-family="Arial" font-size="13px" font-style="normal" font-weight="bold" text-decoration="none" x="699.378662109375" y="176">contract</text></g></g><g transform="translate(-206,-22) scale(1,1)"><path fill="none" stroke="#000000" d="M 697 187 L 614 247" stroke-miterlimit="10" stroke-dasharray="3"/></g><g transform="translate(-206,-22) scale(1,1)"><path fill="none" stroke="#000000" d="M 619.7699186812054 237.63474301408246 L 614 247 L 624.7021853486723 244.45771190407828" stroke-miterlimit="10"/></g><g transform="translate(-206,-22) scale(1,1)"><g><path fill="none" stroke="none"/><text fill="#000000" stroke="none" font-family="Arial" font-size="13px" font-style="normal" font-weight="normal" text-decoration="none" x="627.5" y="244.5">«include»</text></g></g><g transform="translate(-206,-22) scale(1,1)"><path fill="none" stroke="#000000" d="M 671 151 L 614 131" stroke-miterlimit="10" stroke-dasharray="3"/></g><g transform="translate(-206,-22) scale(1,1)"><path fill="none" stroke="#000000" d="M 624.983219420871 130.3926358975042 L 614 131 L 622.1957802072818 138.33683765623366" stroke-miterlimit="10"/></g><g transform="translate(-206,-22) scale(1,1)"><g><path fill="none" stroke="none"/><text fill="#000000" stroke="none" font-family="Arial" font-size="13px" font-style="normal" font-weight="normal" text-decoration="none" x="646.5" y="137.5">«include»</text></g></g><g transform="translate(-206,-22) scale(1,1)"><path fill="#C0C0C0" stroke="none" d="M 415 368 C 415 358.6111584 438.0573328 351 466.5 351 C 494.9426672 351 518 358.6111584 518 368 C 518 377.3888416 494.9426672 385 466.5 385 C 438.0573328 385 415 377.3888416 415 368 Z" opacity="0.2"/></g><g transform="translate(-206,-22) scale(1,1)"><path fill="#ffffff" stroke="none" d="M 408 361 C 408 351.6111584 431.0573328 344 459.5 344 C 487.9426672 344 511 351.6111584 511 361 C 511 370.3888416 487.9426672 378 459.5 378 C 431.0573328 378 408 370.3888416 408 361 Z"/></g><g transform="translate(-206,-22) scale(1,1)"><path fill="none" stroke="#000000" d="M 408 361 C 408 351.6111584 431.0573328 344 459.5 344 C 487.9426672 344 511 351.6111584 511 361 C 511 370.3888416 487.9426672 378 459.5 378 C 431.0573328 378 408 370.3888416 408 361 Z" stroke-miterlimit="10"/></g><g transform="translate(-206,-22) scale(1,1)"><g><path fill="none" stroke="none"/><text fill="#000000" stroke="none" font-family="Arial" font-size="13px" font-style="normal" font-weight="bold" text-decoration="none" x="445.7763671875" y="368">User</text></g></g><g transform="translate(-206,-22) scale(1,1)"><path fill="none" stroke="#000000" d="M 307 347 L 407 356" stroke-miterlimit="10"/></g><g transform="translate(-206,-22) scale(1,1)"><path fill="#C0C0C0" stroke="none" d="M 775 248 C 775 238.6111584 797.8334752 231 826 231 C 854.1665248 231 877 238.6111584 877 248 C 877 257.3888416 854.1665248 265 826 265 C 797.8334752 265 775 257.3888416 775 248 Z" opacity="0.2"/></g><g transform="translate(-206,-22) scale(1,1)"><path fill="#ffffff" stroke="none" d="M 768 241 C 768 231.6111584 790.8334752 224 819 224 C 847.1665248 224 870 231.6111584 870 241 C 870 250.3888416 847.1665248 258 819 258 C 790.8334752 258 768 250.3888416 768 241 Z"/></g><g transform="translate(-206,-22) scale(1,1)"><path fill="none" stroke="#000000" d="M 768 241 C 768 231.6111584 790.8334752 224 819 224 C 847.1665248 224 870 231.6111584 870 241 C 870 250.3888416 847.1665248 258 819 258 C 790.8334752 258 768 250.3888416 768 241 Z" stroke-miterlimit="10"/></g><g transform="translate(-206,-22) scale(1,1)"><g><path fill="none" stroke="none"/><text fill="#000000" stroke="none" font-family="Arial" font-size="13px" font-style="normal" font-weight="bold" text-decoration="none" x="794.431396484375" y="248">province</text></g></g><g transform="translate(-206,-22) scale(1,1)"><path fill="#C0C0C0" stroke="none" d="M 783 312 C 783 302.6111584 805.6096176 295 833.5 295 C 861.3903824 295 884 302.6111584 884 312 C 884 321.3888416 861.3903824 329 833.5 329 C 805.6096176 329 783 321.3888416 783 312 Z" opacity="0.2"/></g><g transform="translate(-206,-22) scale(1,1)"><path fill="#ffffff" stroke="none" d="M 776 305 C 776 295.6111584 798.6096176 288 826.5 288 C 854.3903824 288 877 295.6111584 877 305 C 877 314.3888416 854.3903824 322 826.5 322 C 798.6096176 322 776 314.3888416 776 305 Z"/></g><g transform="translate(-206,-22) scale(1,1)"><path fill="none" stroke="#000000" d="M 776 305 C 776 295.6111584 798.6096176 288 826.5 288 C 854.3903824 288 877 295.6111584 877 305 C 877 314.3888416 854.3903824 322 826.5 322 C 798.6096176 322 776 314.3888416 776 305 Z" stroke-miterlimit="10"/></g><g transform="translate(-206,-22) scale(1,1)"><g><path fill="none" stroke="none"/><text fill="#000000" stroke="none" font-family="Arial" font-size="13px" font-style="normal" font-weight="bold" text-decoration="none" x="807.720458984375" y="312">district</text></g></g><g transform="translate(-206,-22) scale(1,1)"><path fill="none" stroke="#000000" d="M 546 297 L 483 343" stroke-miterlimit="10" stroke-dasharray="3"/></g><g transform="translate(-206,-22) scale(1,1)"><path fill="none" stroke="#000000" d="M 488.72530769322054 333.6074044152881 L 483 343 L 493.68997192514837 340.40683586336314" stroke-miterlimit="10"/></g><g transform="translate(-206,-22) scale(1,1)"><g><path fill="none" stroke="none"/><text fill="#000000" stroke="none" font-family="Arial" font-size="13px" font-style="normal" font-weight="normal" text-decoration="none" x="504.5" y="318.5">«include»</text></g></g><g transform="translate(-206,-22) scale(1,1)"><path fill="none" stroke="#000000" d="M 633 279 L 775 298" stroke-miterlimit="10" stroke-dasharray="3"/></g><g transform="translate(-206,-22) scale(1,1)"><path fill="none" stroke="#000000" d="M 764.3688236411007 300.82455115478206 L 775 298 L 765.4853638292775 292.47988237998686" stroke-miterlimit="10"/></g><g transform="translate(-206,-22) scale(1,1)"><g><path fill="none" stroke="none"/><text fill="#000000" stroke="none" font-family="Arial" font-size="13px" font-style="normal" font-weight="normal" text-decoration="none" x="679.5" y="284.5">«include»</text></g></g><g transform="translate(-206,-22) scale(1,1)"><path fill="none" stroke="#000000" d="M 633 265 L 767 248" stroke-miterlimit="10" stroke-dasharray="3"/></g><g transform="translate(-206,-22) scale(1,1)"><path fill="none" stroke="#000000" d="M 757.4479313893094 253.45508801548223 L 767 248 L 756.3883377833045 245.1029972387384" stroke-miterlimit="10"/></g><g transform="translate(-206,-22) scale(1,1)"><g><path fill="none" stroke="none"/><text fill="#000000" stroke="none" font-family="Arial" font-size="13px" font-style="normal" font-weight="normal" text-decoration="none" x="695.5" y="263.5">«include»</text></g></g><g transform="translate(-206,-22) scale(1,1)"><path fill="#C0C0C0" stroke="none" d="M 719 392 C 719 382.6111584 741.6096176 375 769.5 375 C 797.3903824 375 820 382.6111584 820 392 C 820 401.3888416 797.3903824 409 769.5 409 C 741.6096176 409 719 401.3888416 719 392 Z" opacity="0.2"/></g><g transform="translate(-206,-22) scale(1,1)"><path fill="#ffffff" stroke="none" d="M 712 385 C 712 375.6111584 734.6096176 368 762.5 368 C 790.3903824 368 813 375.6111584 813 385 C 813 394.3888416 790.3903824 402 762.5 402 C 734.6096176 402 712 394.3888416 712 385 Z"/></g><g transform="translate(-206,-22) scale(1,1)"><path fill="none" stroke="#000000" d="M 712 385 C 712 375.6111584 734.6096176 368 762.5 368 C 790.3903824 368 813 375.6111584 813 385 C 813 394.3888416 790.3903824 402 762.5 402 C 734.6096176 402 712 394.3888416 712 385 Z" stroke-miterlimit="10"/></g><g transform="translate(-206,-22) scale(1,1)"><g><path fill="none" stroke="none"/><text fill="#000000" stroke="none" font-family="Arial" font-size="13px" font-style="normal" font-weight="bold" text-decoration="none" x="748.055908203125" y="392">Error</text></g></g><g transform="translate(-206,-22) scale(1,1)"><path fill="none" stroke="#000000" d="M 733 367 L 620 297" stroke-miterlimit="10" stroke-dasharray="3"/></g><g transform="translate(-206,-22) scale(1,1)"><path fill="none" stroke="#000000" d="M 630.8561276908874 298.7732714285032 L 620 297 L 626.4225492556747 305.93033375963256" stroke-miterlimit="10"/></g><g transform="translate(-206,-22) scale(1,1)"><g><path fill="none" stroke="none"/><text fill="#000000" stroke="none" font-family="Arial" font-size="13px" font-style="normal" font-weight="normal" text-decoration="none" x="659.5" y="333.5">«extend»</text></g></g><g transform="translate(-206,-22) scale(1,1)"><path fill="none" stroke="#000000" d="M 307 325 L 674 187" stroke-miterlimit="10"/></g><g transform="translate(-206,-22) scale(1,1)"><path fill="#C0C0C0" stroke="none" d="M 719 472 C 719 462.6111584 741.6096176 455 769.5 455 C 797.3903824 455 820 462.6111584 820 472 C 820 481.3888416 797.3903824 489 769.5 489 C 741.6096176 489 719 481.3888416 719 472 Z" opacity="0.2"/></g><g transform="translate(-206,-22) scale(1,1)"><path fill="#ffffff" stroke="none" d="M 712 465 C 712 455.6111584 734.6096176 448 762.5 448 C 790.3903824 448 813 455.6111584 813 465 C 813 474.3888416 790.3903824 482 762.5 482 C 734.6096176 482 712 474.3888416 712 465 Z"/></g><g transform="translate(-206,-22) scale(1,1)"><path fill="none" stroke="#000000" d="M 712 465 C 712 455.6111584 734.6096176 448 762.5 448 C 790.3903824 448 813 455.6111584 813 465 C 813 474.3888416 790.3903824 482 762.5 482 C 734.6096176 482 712 474.3888416 712 465 Z" stroke-miterlimit="10"/></g><g transform="translate(-206,-22) scale(1,1)"><g><path fill="none" stroke="none"/><text fill="#000000" stroke="none" font-family="Arial" font-size="13px" font-style="normal" font-weight="bold" text-decoration="none" x="752.02001953125" y="472">edit</text></g></g><g transform="translate(-206,-22) scale(1,1)"><path fill="#C0C0C0" stroke="none" d="M 455 472 C 455 462.6111584 477.6096176 455 505.5 455 C 533.3903824 455 556 462.6111584 556 472 C 556 481.3888416 533.3903824 489 505.5 489 C 477.6096176 489 455 481.3888416 455 472 Z" opacity="0.2"/></g><g transform="translate(-206,-22) scale(1,1)"><path fill="#ffffff" stroke="none" d="M 448 465 C 448 455.6111584 470.6096176 448 498.5 448 C 526.3903824 448 549 455.6111584 549 465 C 549 474.3888416 526.3903824 482 498.5 482 C 470.6096176 482 448 474.3888416 448 465 Z"/></g><g transform="translate(-206,-22) scale(1,1)"><path fill="none" stroke="#000000" d="M 448 465 C 448 455.6111584 470.6096176 448 498.5 448 C 526.3903824 448 549 455.6111584 549 465 C 549 474.3888416 526.3903824 482 498.5 482 C 470.6096176 482 448 474.3888416 448 465 Z" stroke-miterlimit="10"/></g><g transform="translate(-206,-22) scale(1,1)"><g><path fill="none" stroke="none"/><text fill="#000000" stroke="none" font-family="Arial" font-size="13px" font-style="normal" font-weight="bold" text-decoration="none" x="480.7900390625" y="472">delete</text></g></g><g transform="translate(-206,-22) scale(1,1)"><path fill="#C0C0C0" stroke="none" d="M 599 472 C 599 462.6111584 621.6096176 455 649.5 455 C 677.3903824 455 700 462.6111584 700 472 C 700 481.3888416 677.3903824 489 649.5 489 C 621.6096176 489 599 481.3888416 599 472 Z" opacity="0.2"/></g><g transform="translate(-206,-22) scale(1,1)"><path fill="#ffffff" stroke="none" d="M 592 465 C 592 455.6111584 614.6096176 448 642.5 448 C 670.3903824 448 693 455.6111584 693 465 C 693 474.3888416 670.3903824 482 642.5 482 C 614.6096176 482 592 474.3888416 592 465 Z"/></g><g transform="translate(-206,-22) scale(1,1)"><path fill="none" stroke="#000000" d="M 592 465 C 592 455.6111584 614.6096176 448 642.5 448 C 670.3903824 448 693 455.6111584 693 465 C 693 474.3888416 670.3903824 482 642.5 482 C 614.6096176 482 592 474.3888416 592 465 Z" stroke-miterlimit="10"/></g><g transform="translate(-206,-22) scale(1,1)"><g><path fill="none" stroke="none"/><text fill="#000000" stroke="none" font-family="Arial" font-size="13px" font-style="normal" font-weight="bold" text-decoration="none" x="621.90185546875" y="472">disable</text></g></g><g transform="translate(-206,-22) scale(1,1)"><path fill="none" stroke="#000000" d="M 745 447 L 604 297" stroke-miterlimit="10" stroke-dasharray="3"/></g><g transform="translate(-206,-22) scale(1,1)"><path fill="none" stroke="#000000" d="M 614.027688835608 301.5216652481382 L 604 297 L 607.893346616073 307.28794693450124" stroke-miterlimit="10"/></g><g transform="translate(-206,-22) scale(1,1)"><g><path fill="none" stroke="none"/><text fill="#000000" stroke="none" font-family="Arial" font-size="13px" font-style="normal" font-weight="normal" text-decoration="none" x="662.5" y="427.5">«include»</text></g></g><g transform="translate(-206,-22) scale(1,1)"><path fill="none" stroke="#000000" d="M 506 447 L 569 297" stroke-miterlimit="10" stroke-dasharray="3"/></g><g transform="translate(-206,-22) scale(1,1)"><path fill="none" stroke="#000000" d="M 568.9457822114724 307.9998663824343 L 569 297 L 561.1835821229059 304.7397423452364" stroke-miterlimit="10"/></g><g transform="translate(-206,-22) scale(1,1)"><g><path fill="none" stroke="none"/><text fill="#000000" stroke="none" font-family="Arial" font-size="13px" font-style="normal" font-weight="normal" text-decoration="none" x="477.5" y="394.5">«include»</text></g></g><g transform="translate(-206,-22) scale(1,1)"><path fill="none" stroke="#000000" d="M 636 447 L 588 297" stroke-miterlimit="10" stroke-dasharray="3"/></g><g transform="translate(-206,-22) scale(1,1)"><path fill="none" stroke="#000000" d="M 595.1065829779457 305.39621809969066 L 588 297 L 587.0880902601579 307.96213576938277" stroke-miterlimit="10"/></g><g transform="translate(-206,-22) scale(1,1)"><g><path fill="none" stroke="none"/><text fill="#000000" stroke="none" font-family="Arial" font-size="13px" font-style="normal" font-weight="normal" text-decoration="none" x="563.5" y="389.5">«include»</text></g></g><g transform="translate(-206,-22) scale(1,1)"><path fill="none" stroke="#000000" d="M 307 367 L 463 447" stroke-miterlimit="10"/></g><g transform="translate(-206,-22) scale(1,1)"><path fill="none" stroke="#000000" d="M 307 358 L 591 449" stroke-miterlimit="10"/></g><g transform="translate(-206,-22) scale(1,1)"><path fill="#ffffff" stroke="none" d="M 1048.2416257102273 401.68 C 1048.2416257102273 396.886167936 1052.1274680351728 393 1056.9208984375 393 C 1061.7143288398272 393 1065.6001711647727 396.886167936 1065.6001711647727 401.68 C 1065.6001711647727 406.473832064 1061.7143288398272 410.36 1056.9208984375 410.36 C 1052.1274680351728 410.36 1048.2416257102273 406.473832064 1048.2416257102273 401.68 Z"/></g><g transform="translate(-206,-22) scale(1,1)"><path fill="none" stroke="#000000" d="M 1048.2416257102273 401.68 C 1048.2416257102273 396.886167936 1052.1274680351728 393 1056.9208984375 393 C 1061.7143288398272 393 1065.6001711647727 396.886167936 1065.6001711647727 401.68 C 1065.6001711647727 406.473832064 1061.7143288398272 410.36 1056.9208984375 410.36 C 1052.1274680351728 410.36 1048.2416257102273 406.473832064 1048.2416257102273 401.68 Z" stroke-miterlimit="10"/></g><g transform="translate(-206,-22) scale(1,1)"><path fill="none" stroke="#000000" d="M 1056.9208984375 410.36 L 1056.9208984375 427.64" stroke-miterlimit="10"/></g><g transform="translate(-206,-22) scale(1,1)"><path fill="none" stroke="#000000" d="M 1047.7310802556817 416.84 L 1066.1107166193183 416.84" stroke-miterlimit="10"/></g><g transform="translate(-206,-22) scale(1,1)"><path fill="none" stroke="#000000" d="M 1056.9208984375 427.64 L 1044.1572620738636 445" stroke-miterlimit="10"/></g><g transform="translate(-206,-22) scale(1,1)"><path fill="none" stroke="#000000" d="M 1056.9208984375 427.64 L 1069.6845348011364 445" stroke-miterlimit="10"/></g><g transform="translate(-206,-22) scale(1,1)"><g><path fill="none" stroke="none"/><text fill="#000000" stroke="none" font-family="Arial" font-size="13px" font-style="normal" font-weight="bold" text-decoration="none" x="1016.095947265625" y="465.5">Admin Branch</text></g></g><g transform="translate(-206,-22) scale(1,1)"><path fill="none" stroke="#000000" d="M 1007 437 L 814 459" stroke-miterlimit="10"/></g><g transform="translate(-206,-22) scale(1,1)"><path fill="none" stroke="#000000" d="M 1007 415 L 633 290" stroke-miterlimit="10"/></g><g transform="translate(-206,-22) scale(1,1)"><path fill="#C0C0C0" stroke="none" d="M 783 88 C 783 78.6111584 804.4903296 71 831 71 C 857.5096704 71 879 78.6111584 879 88 C 879 97.3888416 857.5096704 105 831 105 C 804.4903296 105 783 97.3888416 783 88 Z" opacity="0.2"/></g><g transform="translate(-206,-22) scale(1,1)"><path fill="#ffffff" stroke="none" d="M 776 81 C 776 71.6111584 797.4903296 64 824 64 C 850.5096704 64 872 71.6111584 872 81 C 872 90.3888416 850.5096704 98 824 98 C 797.4903296 98 776 90.3888416 776 81 Z"/></g><g transform="translate(-206,-22) scale(1,1)"><path fill="none" stroke="#000000" d="M 776 81 C 776 71.6111584 797.4903296 64 824 64 C 850.5096704 64 872 71.6111584 872 81 C 872 90.3888416 850.5096704 98 824 98 C 797.4903296 98 776 90.3888416 776 81 Z" stroke-miterlimit="10"/></g><g transform="translate(-206,-22) scale(1,1)"><g><path fill="none" stroke="none"/><text fill="#000000" stroke="none" font-family="Arial" font-size="13px" font-style="normal" font-weight="bold" text-decoration="none" x="806.29638671875" y="88">renew</text></g></g><g transform="translate(-206,-22) scale(1,1)"><path fill="none" stroke="#000000" d="M 803 99 L 743 151" stroke-miterlimit="10" stroke-dasharray="3"/></g><g transform="translate(-206,-22) scale(1,1)"><path fill="none" stroke="#000000" d="M 747.9228807114221 141.1630672716996 L 743 151 L 753.4367641722762 147.52524049576192" stroke-miterlimit="10"/></g><g transform="translate(-206,-22) scale(1,1)"><g><path fill="none" stroke="none"/><text fill="#000000" stroke="none" font-family="Arial" font-size="13px" font-style="normal" font-weight="normal" text-decoration="none" x="780.5" y="131.5">«include»</text></g></g><g transform="translate(-206,-22) scale(1,1)"><path fill="none" stroke="#000000" d="M 1029 391 L 836 99" stroke-miterlimit="10"/></g><g transform="translate(-206,-22) scale(1,1)"><path fill="#FFFFFF" stroke="none" d="M 854.2308922852128 111.31399880156597 L 836 99 L 840.1838755058452 120.5984996180658"/></g><g transform="translate(-206,-22) scale(1,1)"><path fill="none" stroke="#000000" d="M 854.2308922852128 111.31399880156597 L 836 99 L 840.1838755058452 120.5984996180658 L 854.2308922852128 111.31399880156597" stroke-miterlimit="10"/></g><g transform="translate(-206,-22) scale(1,1)"><path fill="none" stroke="#000000" d="M 307 321 L 785 99" stroke-miterlimit="10"/></g></g></svg>