<svg version="1.1" xmlns="http://www.w3.org/2000/svg" xmlns:xlink="http://www.w3.org/1999/xlink" width="773.841796875" height="460"><defs/><g><text fill="#eeeeee" stroke="none" font-family="Arial" font-size="24px" font-style="normal" font-weight="normal" text-decoration="none" x="0" y="0">UNREGISTERED</text><text fill="#eeeeee" stroke="none" font-family="Arial" font-size="24px" font-style="normal" font-weight="normal" text-decoration="none" x="0" y="30">UNREGISTERED</text><text fill="#eeeeee" stroke="none" font-family="Arial" font-size="24px" font-style="normal" font-weight="normal" text-decoration="none" x="0" y="60">UNREGISTERED</text><text fill="#eeeeee" stroke="none" font-family="Arial" font-size="24px" font-style="normal" font-weight="normal" text-decoration="none" x="0" y="90">UNREGISTERED</text><text fill="#eeeeee" stroke="none" font-family="Arial" font-size="24px" font-style="normal" font-weight="normal" text-decoration="none" x="0" y="120">UNREGISTERED</text><text fill="#eeeeee" stroke="none" font-family="Arial" font-size="24px" font-style="normal" font-weight="normal" text-decoration="none" x="0" y="150">UNREGISTERED</text><text fill="#eeeeee" stroke="none" font-family="Arial" font-size="24px" font-style="normal" font-weight="normal" text-decoration="none" x="0" y="180">UNREGISTERED</text><text fill="#eeeeee" stroke="none" font-family="Arial" font-size="24px" font-style="normal" font-weight="normal" text-decoration="none" x="0" y="210">UNREGISTERED</text><text fill="#eeeeee" stroke="none" font-family="Arial" font-size="24px" font-style="normal" font-weight="normal" text-decoration="none" x="0" y="240">UNREGISTERED</text><text fill="#eeeeee" stroke="none" font-family="Arial" font-size="24px" font-style="normal" font-weight="normal" text-decoration="none" x="0" y="270">UNREGISTERED</text><text fill="#eeeeee" stroke="none" font-family="Arial" font-size="24px" font-style="normal" font-weight="normal" text-decoration="none" x="0" y="300">UNREGISTERED</text><text fill="#eeeeee" stroke="none" font-family="Arial" font-size="24px" font-style="normal" font-weight="normal" text-decoration="none" x="0" y="330">UNREGISTERED</text><text fill="#eeeeee" stroke="none" font-family="Arial" font-size="24px" font-style="normal" font-weight="normal" text-decoration="none" x="0" y="360">UNREGISTERED</text><text fill="#eeeeee" stroke="none" font-family="Arial" font-size="24px" font-style="normal" font-weight="normal" text-decoration="none" x="0" y="390">UNREGISTERED</text><text fill="#eeeeee" stroke="none" font-family="Arial" font-size="24px" font-style="normal" font-weight="normal" text-decoration="none" x="0" y="420">UNREGISTERED</text><text fill="#eeeeee" stroke="none" font-family="Arial" font-size="24px" font-style="normal" font-weight="normal" text-decoration="none" x="0" y="450">UNREGISTERED</text><text fill="#eeeeee" stroke="none" font-family="Arial" font-size="24px" font-style="normal" font-weight="normal" text-decoration="none" x="200" y="0">UNREGISTERED</text><text fill="#eeeeee" stroke="none" font-family="Arial" font-size="24px" font-style="normal" font-weight="normal" text-decoration="none" x="200" y="30">UNREGISTERED</text><text fill="#eeeeee" stroke="none" font-family="Arial" font-size="24px" font-style="normal" font-weight="normal" text-decoration="none" x="200" y="60">UNREGISTERED</text><text fill="#eeeeee" stroke="none" font-family="Arial" font-size="24px" font-style="normal" font-weight="normal" text-decoration="none" x="200" y="90">UNREGISTERED</text><text fill="#eeeeee" stroke="none" font-family="Arial" font-size="24px" font-style="normal" font-weight="normal" text-decoration="none" x="200" y="120">UNREGISTERED</text><text fill="#eeeeee" stroke="none" font-family="Arial" font-size="24px" font-style="normal" font-weight="normal" text-decoration="none" x="200" y="150">UNREGISTERED</text><text fill="#eeeeee" stroke="none" font-family="Arial" font-size="24px" font-style="normal" font-weight="normal" text-decoration="none" x="200" y="180">UNREGISTERED</text><text fill="#eeeeee" stroke="none" font-family="Arial" font-size="24px" font-style="normal" font-weight="normal" text-decoration="none" x="200" y="210">UNREGISTERED</text><text fill="#eeeeee" stroke="none" font-family="Arial" font-size="24px" font-style="normal" font-weight="normal" text-decoration="none" x="200" y="240">UNREGISTERED</text><text fill="#eeeeee" stroke="none" font-family="Arial" font-size="24px" font-style="normal" font-weight="normal" text-decoration="none" x="200" y="270">UNREGISTERED</text><text fill="#eeeeee" stroke="none" font-family="Arial" font-size="24px" font-style="normal" font-weight="normal" text-decoration="none" x="200" y="300">UNREGISTERED</text><text fill="#eeeeee" stroke="none" font-family="Arial" font-size="24px" font-style="normal" font-weight="normal" text-decoration="none" x="200" y="330">UNREGISTERED</text><text fill="#eeeeee" stroke="none" font-family="Arial" font-size="24px" font-style="normal" font-weight="normal" text-decoration="none" x="200" y="360">UNREGISTERED</text><text fill="#eeeeee" stroke="none" font-family="Arial" font-size="24px" font-style="normal" font-weight="normal" text-decoration="none" x="200" y="390">UNREGISTERED</text><text fill="#eeeeee" stroke="none" font-family="Arial" font-size="24px" font-style="normal" font-weight="normal" text-decoration="none" x="200" y="420">UNREGISTERED</text><text fill="#eeeeee" stroke="none" font-family="Arial" font-size="24px" font-style="normal" font-weight="normal" text-decoration="none" x="200" y="450">UNREGISTERED</text><text fill="#eeeeee" stroke="none" font-family="Arial" font-size="24px" font-style="normal" font-weight="normal" text-decoration="none" x="400" y="0">UNREGISTERED</text><text fill="#eeeeee" stroke="none" font-family="Arial" font-size="24px" font-style="normal" font-weight="normal" text-decoration="none" x="400" y="30">UNREGISTERED</text><text fill="#eeeeee" stroke="none" font-family="Arial" font-size="24px" font-style="normal" font-weight="normal" text-decoration="none" x="400" y="60">UNREGISTERED</text><text fill="#eeeeee" stroke="none" font-family="Arial" font-size="24px" font-style="normal" font-weight="normal" text-decoration="none" x="400" y="90">UNREGISTERED</text><text fill="#eeeeee" stroke="none" font-family="Arial" font-size="24px" font-style="normal" font-weight="normal" text-decoration="none" x="400" y="120">UNREGISTERED</text><text fill="#eeeeee" stroke="none" font-family="Arial" font-size="24px" font-style="normal" font-weight="normal" text-decoration="none" x="400" y="150">UNREGISTERED</text><text fill="#eeeeee" stroke="none" font-family="Arial" font-size="24px" font-style="normal" font-weight="normal" text-decoration="none" x="400" y="180">UNREGISTERED</text><text fill="#eeeeee" stroke="none" font-family="Arial" font-size="24px" font-style="normal" font-weight="normal" text-decoration="none" x="400" y="210">UNREGISTERED</text><text fill="#eeeeee" stroke="none" font-family="Arial" font-size="24px" font-style="normal" font-weight="normal" text-decoration="none" x="400" y="240">UNREGISTERED</text><text fill="#eeeeee" stroke="none" font-family="Arial" font-size="24px" font-style="normal" font-weight="normal" text-decoration="none" x="400" y="270">UNREGISTERED</text><text fill="#eeeeee" stroke="none" font-family="Arial" font-size="24px" font-style="normal" font-weight="normal" text-decoration="none" x="400" y="300">UNREGISTERED</text><text fill="#eeeeee" stroke="none" font-family="Arial" font-size="24px" font-style="normal" font-weight="normal" text-decoration="none" x="400" y="330">UNREGISTERED</text><text fill="#eeeeee" stroke="none" font-family="Arial" font-size="24px" font-style="normal" font-weight="normal" text-decoration="none" x="400" y="360">UNREGISTERED</text><text fill="#eeeeee" stroke="none" font-family="Arial" font-size="24px" font-style="normal" font-weight="normal" text-decoration="none" x="400" y="390">UNREGISTERED</text><text fill="#eeeeee" stroke="none" font-family="Arial" font-size="24px" font-style="normal" font-weight="normal" text-decoration="none" x="400" y="420">UNREGISTERED</text><text fill="#eeeeee" stroke="none" font-family="Arial" font-size="24px" font-style="normal" font-weight="normal" text-decoration="none" x="400" y="450">UNREGISTERED</text><text fill="#eeeeee" stroke="none" font-family="Arial" font-size="24px" font-style="normal" font-weight="normal" text-decoration="none" x="600" y="0">UNREGISTERED</text><text fill="#eeeeee" stroke="none" font-family="Arial" font-size="24px" font-style="normal" font-weight="normal" text-decoration="none" x="600" y="30">UNREGISTERED</text><text fill="#eeeeee" stroke="none" font-family="Arial" font-size="24px" font-style="normal" font-weight="normal" text-decoration="none" x="600" y="60">UNREGISTERED</text><text fill="#eeeeee" stroke="none" font-family="Arial" font-size="24px" font-style="normal" font-weight="normal" text-decoration="none" x="600" y="90">UNREGISTERED</text><text fill="#eeeeee" stroke="none" font-family="Arial" font-size="24px" font-style="normal" font-weight="normal" text-decoration="none" x="600" y="120">UNREGISTERED</text><text fill="#eeeeee" stroke="none" font-family="Arial" font-size="24px" font-style="normal" font-weight="normal" text-decoration="none" x="600" y="150">UNREGISTERED</text><text fill="#eeeeee" stroke="none" font-family="Arial" font-size="24px" font-style="normal" font-weight="normal" text-decoration="none" x="600" y="180">UNREGISTERED</text><text fill="#eeeeee" stroke="none" font-family="Arial" font-size="24px" font-style="normal" font-weight="normal" text-decoration="none" x="600" y="210">UNREGISTERED</text><text fill="#eeeeee" stroke="none" font-family="Arial" font-size="24px" font-style="normal" font-weight="normal" text-decoration="none" x="600" y="240">UNREGISTERED</text><text fill="#eeeeee" stroke="none" font-family="Arial" font-size="24px" font-style="normal" font-weight="normal" text-decoration="none" x="600" y="270">UNREGISTERED</text><text fill="#eeeeee" stroke="none" font-family="Arial" font-size="24px" font-style="normal" font-weight="normal" text-decoration="none" x="600" y="300">UNREGISTERED</text><text fill="#eeeeee" stroke="none" font-family="Arial" font-size="24px" font-style="normal" font-weight="normal" text-decoration="none" x="600" y="330">UNREGISTERED</text><text fill="#eeeeee" stroke="none" font-family="Arial" font-size="24px" font-style="normal" font-weight="normal" text-decoration="none" x="600" y="360">UNREGISTERED</text><text fill="#eeeeee" stroke="none" font-family="Arial" font-size="24px" font-style="normal" font-weight="normal" text-decoration="none" x="600" y="390">UNREGISTERED</text><text fill="#eeeeee" stroke="none" font-family="Arial" font-size="24px" font-style="normal" font-weight="normal" text-decoration="none" x="600" y="420">UNREGISTERED</text><text fill="#eeeeee" stroke="none" font-family="Arial" font-size="24px" font-style="normal" font-weight="normal" text-decoration="none" x="600" y="450">UNREGISTERED</text><g transform="translate(-150,-6) scale(1,1)"><path fill="none" stroke="#000000" d="M 296 16 L 776 16 L 776 456 L 296 456 L 296 16" stroke-miterlimit="10"/></g><g transform="translate(-150,-6) scale(1,1)"><path fill="#ffffff" stroke="none" d="M 296 16 L 296 38 L 429.78076171875 38 L 440.78076171875 27 L 440.78076171875 16 L 296 16"/></g><g transform="translate(-150,-6) scale(1,1)"><path fill="none" stroke="#000000" d="M 296 16 L 296 38 L 429.78076171875 38 L 440.78076171875 27 L 440.78076171875 16 L 296 16 L 296 16" stroke-miterlimit="10"/></g><g transform="translate(-150,-6) scale(1,1)"><g><path fill="none" stroke="none"/><text fill="#000000" stroke="none" font-family="Arial" font-size="13px" font-style="normal" font-weight="normal" text-decoration="none" x="327.9599609375" y="33.5">Forget password</text></g></g><g transform="translate(-150,-6) scale(1,1)"><g><path fill="none" stroke="none"/><text fill="#000000" stroke="none" font-family="Arial" font-size="13px" font-style="normal" font-weight="bold" text-decoration="none" x="301" y="33.5">pkg</text></g></g><g transform="translate(-150,-6) scale(1,1)"><path fill="#ffffff" stroke="none" d="M 199.51799289772728 121.68 C 199.51799289772728 116.886167936 203.40383522267274 113 208.197265625 113 C 212.99069602732726 113 216.87653835227272 116.886167936 216.87653835227272 121.68 C 216.87653835227272 126.473832064 212.99069602732726 130.36 208.197265625 130.36 C 203.40383522267274 130.36 199.51799289772728 126.473832064 199.51799289772728 121.68 Z"/></g><g transform="translate(-150,-6) scale(1,1)"><path fill="none" stroke="#000000" d="M 199.51799289772728 121.68 C 199.51799289772728 116.886167936 203.40383522267274 113 208.197265625 113 C 212.99069602732726 113 216.87653835227272 116.886167936 216.87653835227272 121.68 C 216.87653835227272 126.473832064 212.99069602732726 130.36 208.197265625 130.36 C 203.40383522267274 130.36 199.51799289772728 126.473832064 199.51799289772728 121.68 Z" stroke-miterlimit="10"/></g><g transform="translate(-150,-6) scale(1,1)"><path fill="none" stroke="#000000" d="M 208.197265625 130.36 L 208.197265625 147.64" stroke-miterlimit="10"/></g><g transform="translate(-150,-6) scale(1,1)"><path fill="none" stroke="#000000" d="M 199.00744744318183 136.84 L 217.38708380681817 136.84" stroke-miterlimit="10"/></g><g transform="translate(-150,-6) scale(1,1)"><path fill="none" stroke="#000000" d="M 208.197265625 147.64 L 195.43362926136365 165" stroke-miterlimit="10"/></g><g transform="translate(-150,-6) scale(1,1)"><path fill="none" stroke="#000000" d="M 208.197265625 147.64 L 220.96090198863635 165" stroke-miterlimit="10"/></g><g transform="translate(-150,-6) scale(1,1)"><g><path fill="none" stroke="none"/><text fill="#000000" stroke="none" font-family="Arial" font-size="13px" font-style="normal" font-weight="bold" text-decoration="none" x="170.622314453125" y="185.5">Super Admin</text></g></g><g transform="translate(-150,-6) scale(1,1)"><path fill="#C0C0C0" stroke="none" d="M 447 144 C 447 134.6111584 496.248672 127 557 127 C 617.7513280000001 127 667 134.6111584 667 144 C 667 153.3888416 617.7513280000001 161 557 161 C 496.248672 161 447 153.3888416 447 144 Z" opacity="0.2"/></g><g transform="translate(-150,-6) scale(1,1)"><path fill="#ffffff" stroke="none" d="M 440 137 C 440 127.6111584 489.248672 120 550 120 C 610.7513280000001 120 660 127.6111584 660 137 C 660 146.3888416 610.7513280000001 154 550 154 C 489.248672 154 440 146.3888416 440 137 Z"/></g><g transform="translate(-150,-6) scale(1,1)"><path fill="none" stroke="#000000" d="M 440 137 C 440 127.6111584 489.248672 120 550 120 C 610.7513280000001 120 660 127.6111584 660 137 C 660 146.3888416 610.7513280000001 154 550 154 C 489.248672 154 440 146.3888416 440 137 Z" stroke-miterlimit="10"/></g><g transform="translate(-150,-6) scale(1,1)"><g><path fill="none" stroke="none"/><text fill="#000000" stroke="none" font-family="Arial" font-size="13px" font-style="normal" font-weight="bold" text-decoration="none" x="480.635986328125" y="144">Request New Password</text></g></g><g transform="translate(-150,-6) scale(1,1)"><path fill="none" stroke="#000000" d="M 257 149 L 439 142" stroke-miterlimit="10"/></g><g transform="translate(-150,-6) scale(1,1)"><path fill="#C0C0C0" stroke="none" d="M 455 392 C 455 382.6111584 487.2354944 375 527 375 C 566.7645056 375 599 382.6111584 599 392 C 599 401.3888416 566.7645056 409 527 409 C 487.2354944 409 455 401.3888416 455 392 Z" opacity="0.2"/></g><g transform="translate(-150,-6) scale(1,1)"><path fill="#ffffff" stroke="none" d="M 448 385 C 448 375.6111584 480.2354944 368 520 368 C 559.7645056 368 592 375.6111584 592 385 C 592 394.3888416 559.7645056 402 520 402 C 480.2354944 402 448 394.3888416 448 385 Z"/></g><g transform="translate(-150,-6) scale(1,1)"><path fill="none" stroke="#000000" d="M 448 385 C 448 375.6111584 480.2354944 368 520 368 C 559.7645056 368 592 375.6111584 592 385 C 592 394.3888416 559.7645056 402 520 402 C 480.2354944 402 448 394.3888416 448 385 Z" stroke-miterlimit="10"/></g><g transform="translate(-150,-6) scale(1,1)"><g><path fill="none" stroke="none"/><text fill="#000000" stroke="none" font-family="Arial" font-size="13px" font-style="normal" font-weight="bold" text-decoration="none" x="477.372314453125" y="392">New password</text></g></g><g transform="translate(-150,-6) scale(1,1)"><path fill="#ffffff" stroke="none" d="M 856.2416257102273 113.68 C 856.2416257102273 108.886167936 860.1274680351727 105 864.9208984375 105 C 869.7143288398273 105 873.6001711647727 108.886167936 873.6001711647727 113.68 C 873.6001711647727 118.473832064 869.7143288398273 122.36 864.9208984375 122.36 C 860.1274680351727 122.36 856.2416257102273 118.473832064 856.2416257102273 113.68 Z"/></g><g transform="translate(-150,-6) scale(1,1)"><path fill="none" stroke="#000000" d="M 856.2416257102273 113.68 C 856.2416257102273 108.886167936 860.1274680351727 105 864.9208984375 105 C 869.7143288398273 105 873.6001711647727 108.886167936 873.6001711647727 113.68 C 873.6001711647727 118.473832064 869.7143288398273 122.36 864.9208984375 122.36 C 860.1274680351727 122.36 856.2416257102273 118.473832064 856.2416257102273 113.68 Z" stroke-miterlimit="10"/></g><g transform="translate(-150,-6) scale(1,1)"><path fill="none" stroke="#000000" d="M 864.9208984375 122.36 L 864.9208984375 139.64" stroke-miterlimit="10"/></g><g transform="translate(-150,-6) scale(1,1)"><path fill="none" stroke="#000000" d="M 855.7310802556818 128.84 L 874.1107166193182 128.84" stroke-miterlimit="10"/></g><g transform="translate(-150,-6) scale(1,1)"><path fill="none" stroke="#000000" d="M 864.9208984375 139.64 L 852.1572620738636 157" stroke-miterlimit="10"/></g><g transform="translate(-150,-6) scale(1,1)"><path fill="none" stroke="#000000" d="M 864.9208984375 139.64 L 877.6845348011364 157" stroke-miterlimit="10"/></g><g transform="translate(-150,-6) scale(1,1)"><g><path fill="none" stroke="none"/><text fill="#000000" stroke="none" font-family="Arial" font-size="13px" font-style="normal" font-weight="bold" text-decoration="none" x="824.095947265625" y="177.5">Admin Branch</text></g></g><g transform="translate(-150,-6) scale(1,1)"><path fill="none" stroke="#000000" d="M 815 142 L 661 139" stroke-miterlimit="10"/></g><g transform="translate(-150,-6) scale(1,1)"><path fill="none" stroke="#000000" d="M 815 177 L 546 367" stroke-miterlimit="10"/></g><g transform="translate(-150,-6) scale(1,1)"><path fill="#C0C0C0" stroke="none" d="M 447 256 C 447 246.6111584 483.936504 239 529.5 239 C 575.063496 239 612 246.6111584 612 256 C 612 265.3888416 575.063496 273 529.5 273 C 483.936504 273 447 265.3888416 447 256 Z" opacity="0.2"/></g><g transform="translate(-150,-6) scale(1,1)"><path fill="#ffffff" stroke="none" d="M 440 249 C 440 239.6111584 476.936504 232 522.5 232 C 568.063496 232 605 239.6111584 605 249 C 605 258.3888416 568.063496 266 522.5 266 C 476.936504 266 440 258.3888416 440 249 Z"/></g><g transform="translate(-150,-6) scale(1,1)"><path fill="none" stroke="#000000" d="M 440 249 C 440 239.6111584 476.936504 232 522.5 232 C 568.063496 232 605 239.6111584 605 249 C 605 258.3888416 568.063496 266 522.5 266 C 476.936504 266 440 258.3888416 440 249 Z" stroke-miterlimit="10"/></g><g transform="translate(-150,-6) scale(1,1)"><g><path fill="none" stroke="none"/><text fill="#000000" stroke="none" font-family="Arial" font-size="13px" font-style="normal" font-weight="bold" text-decoration="none" x="472.274169921875" y="256">Approve Request</text></g></g><g transform="translate(-150,-6) scale(1,1)"><path fill="none" stroke="#000000" d="M 257 166 L 464 231" stroke-miterlimit="10"/></g><g transform="translate(-150,-6) scale(1,1)"><path fill="none" stroke="#000000" d="M 527 231 L 546 155" stroke-miterlimit="10" stroke-dasharray="3"/></g><g transform="translate(-150,-6) scale(1,1)"><path fill="none" stroke="#000000" d="M 547.6190213815926 165.8802008145965 L 546 155 L 539.4513572211376 163.83828477448273" stroke-miterlimit="10"/></g><g transform="translate(-150,-6) scale(1,1)"><g><path fill="none" stroke="none"/><text fill="#000000" stroke="none" font-family="Arial" font-size="13px" font-style="normal" font-weight="normal" text-decoration="none" x="478.5" y="191.5">«include»</text></g></g><g transform="translate(-150,-6) scale(1,1)"><path fill="none" stroke="#000000" d="M 520 367 L 522 267" stroke-miterlimit="10" stroke-dasharray="3"/></g><g transform="translate(-150,-6) scale(1,1)"><path fill="none" stroke="#000000" d="M 526.0054632463075 277.244816454309 L 522 267 L 517.5881110364041 277.0764694101109" stroke-miterlimit="10"/></g><g transform="translate(-150,-6) scale(1,1)"><g><path fill="none" stroke="none"/><text fill="#000000" stroke="none" font-family="Arial" font-size="13px" font-style="normal" font-weight="normal" text-decoration="none" x="466.5" y="329.5">«include»</text></g></g><g transform="translate(-150,-6) scale(1,1)"><path fill="#ffffff" stroke="none" d="M 866.5275143821023 305.68 C 866.5275143821023 300.886167936 870.4133567070477 297 875.206787109375 297 C 880.0002175117023 297 883.8860598366477 300.886167936 883.8860598366477 305.68 C 883.8860598366477 310.473832064 880.0002175117023 314.36 875.206787109375 314.36 C 870.4133567070477 314.36 866.5275143821023 310.473832064 866.5275143821023 305.68 Z"/></g><g transform="translate(-150,-6) scale(1,1)"><path fill="none" stroke="#000000" d="M 866.5275143821023 305.68 C 866.5275143821023 300.886167936 870.4133567070477 297 875.206787109375 297 C 880.0002175117023 297 883.8860598366477 300.886167936 883.8860598366477 305.68 C 883.8860598366477 310.473832064 880.0002175117023 314.36 875.206787109375 314.36 C 870.4133567070477 314.36 866.5275143821023 310.473832064 866.5275143821023 305.68 Z" stroke-miterlimit="10"/></g><g transform="translate(-150,-6) scale(1,1)"><path fill="none" stroke="#000000" d="M 875.206787109375 314.36 L 875.206787109375 331.64" stroke-miterlimit="10"/></g><g transform="translate(-150,-6) scale(1,1)"><path fill="none" stroke="#000000" d="M 866.0169689275568 320.84 L 884.3966052911932 320.84" stroke-miterlimit="10"/></g><g transform="translate(-150,-6) scale(1,1)"><path fill="none" stroke="#000000" d="M 875.206787109375 331.64 L 862.4431507457386 349" stroke-miterlimit="10"/></g><g transform="translate(-150,-6) scale(1,1)"><path fill="none" stroke="#000000" d="M 875.206787109375 331.64 L 887.9704234730114 349" stroke-miterlimit="10"/></g><g transform="translate(-150,-6) scale(1,1)"><g><path fill="none" stroke="none"/><text fill="#000000" stroke="none" font-family="Arial" font-size="13px" font-style="normal" font-weight="bold" text-decoration="none" x="846.302734375" y="369.5">Employee</text></g></g><g transform="translate(-150,-6) scale(1,1)"><path fill="none" stroke="#000000" d="M 839 340 L 593 375" stroke-miterlimit="10"/></g><g transform="translate(-150,-6) scale(1,1)"><path fill="none" stroke="#000000" d="M 839 313 L 580 155" stroke-miterlimit="10"/></g><g transform="translate(-150,-6) scale(1,1)"><path fill="none" stroke="#000000" d="M 815 158 L 580 231" stroke-miterlimit="10"/></g><g transform="translate(-150,-6) scale(1,1)"><path fill="#C0C0C0" stroke="none" d="M 607 64 C 607 54.6111584 629.6096176 47 657.5 47 C 685.3903824 47 708 54.6111584 708 64 C 708 73.3888416 685.3903824 81 657.5 81 C 629.6096176 81 607 73.3888416 607 64 Z" opacity="0.2"/></g><g transform="translate(-150,-6) scale(1,1)"><path fill="#ffffff" stroke="none" d="M 600 57 C 600 47.6111584 622.6096176 40 650.5 40 C 678.3903824 40 701 47.6111584 701 57 C 701 66.3888416 678.3903824 74 650.5 74 C 622.6096176 74 600 66.3888416 600 57 Z"/></g><g transform="translate(-150,-6) scale(1,1)"><path fill="none" stroke="#000000" d="M 600 57 C 600 47.6111584 622.6096176 40 650.5 40 C 678.3903824 40 701 47.6111584 701 57 C 701 66.3888416 678.3903824 74 650.5 74 C 622.6096176 74 600 66.3888416 600 57 Z" stroke-miterlimit="10"/></g><g transform="translate(-150,-6) scale(1,1)"><g><path fill="none" stroke="none"/><text fill="#000000" stroke="none" font-family="Arial" font-size="13px" font-style="normal" font-weight="bold" text-decoration="none" x="636.7763671875" y="64">User</text></g></g><g transform="translate(-150,-6) scale(1,1)"><path fill="none" stroke="#000000" d="M 573 119 L 628 75" stroke-miterlimit="10" stroke-dasharray="3"/></g><g transform="translate(-150,-6) scale(1,1)"><path fill="none" stroke="#000000" d="M 622.6939490779461 84.63565377193318 L 628 75 L 617.4346192883949 78.06149153499418" stroke-miterlimit="10"/></g><g transform="translate(-150,-6) scale(1,1)"><g><path fill="none" stroke="none"/><text fill="#000000" stroke="none" font-family="Arial" font-size="13px" font-style="normal" font-weight="normal" text-decoration="none" x="553.5" y="79.5">«include»</text></g></g></g></svg>