<svg version="1.1" xmlns="http://www.w3.org/2000/svg" xmlns:xlink="http://www.w3.org/1999/xlink" width="846.17724609375" height="484"><defs/><g><text fill="#eeeeee" stroke="none" font-family="Arial" font-size="24px" font-style="normal" font-weight="normal" text-decoration="none" x="0" y="0">UNREGISTERED</text><text fill="#eeeeee" stroke="none" font-family="Arial" font-size="24px" font-style="normal" font-weight="normal" text-decoration="none" x="0" y="30">UNREGISTERED</text><text fill="#eeeeee" stroke="none" font-family="Arial" font-size="24px" font-style="normal" font-weight="normal" text-decoration="none" x="0" y="60">UNREGISTERED</text><text fill="#eeeeee" stroke="none" font-family="Arial" font-size="24px" font-style="normal" font-weight="normal" text-decoration="none" x="0" y="90">UNREGISTERED</text><text fill="#eeeeee" stroke="none" font-family="Arial" font-size="24px" font-style="normal" font-weight="normal" text-decoration="none" x="0" y="120">UNREGISTERED</text><text fill="#eeeeee" stroke="none" font-family="Arial" font-size="24px" font-style="normal" font-weight="normal" text-decoration="none" x="0" y="150">UNREGISTERED</text><text fill="#eeeeee" stroke="none" font-family="Arial" font-size="24px" font-style="normal" font-weight="normal" text-decoration="none" x="0" y="180">UNREGISTERED</text><text fill="#eeeeee" stroke="none" font-family="Arial" font-size="24px" font-style="normal" font-weight="normal" text-decoration="none" x="0" y="210">UNREGISTERED</text><text fill="#eeeeee" stroke="none" font-family="Arial" font-size="24px" font-style="normal" font-weight="normal" text-decoration="none" x="0" y="240">UNREGISTERED</text><text fill="#eeeeee" stroke="none" font-family="Arial" font-size="24px" font-style="normal" font-weight="normal" text-decoration="none" x="0" y="270">UNREGISTERED</text><text fill="#eeeeee" stroke="none" font-family="Arial" font-size="24px" font-style="normal" font-weight="normal" text-decoration="none" x="0" y="300">UNREGISTERED</text><text fill="#eeeeee" stroke="none" font-family="Arial" font-size="24px" font-style="normal" font-weight="normal" text-decoration="none" x="0" y="330">UNREGISTERED</text><text fill="#eeeeee" stroke="none" font-family="Arial" font-size="24px" font-style="normal" font-weight="normal" text-decoration="none" x="0" y="360">UNREGISTERED</text><text fill="#eeeeee" stroke="none" font-family="Arial" font-size="24px" font-style="normal" font-weight="normal" text-decoration="none" x="0" y="390">UNREGISTERED</text><text fill="#eeeeee" stroke="none" font-family="Arial" font-size="24px" font-style="normal" font-weight="normal" text-decoration="none" x="0" y="420">UNREGISTERED</text><text fill="#eeeeee" stroke="none" font-family="Arial" font-size="24px" font-style="normal" font-weight="normal" text-decoration="none" x="0" y="450">UNREGISTERED</text><text fill="#eeeeee" stroke="none" font-family="Arial" font-size="24px" font-style="normal" font-weight="normal" text-decoration="none" x="0" y="480">UNREGISTERED</text><text fill="#eeeeee" stroke="none" font-family="Arial" font-size="24px" font-style="normal" font-weight="normal" text-decoration="none" x="200" y="0">UNREGISTERED</text><text fill="#eeeeee" stroke="none" font-family="Arial" font-size="24px" font-style="normal" font-weight="normal" text-decoration="none" x="200" y="30">UNREGISTERED</text><text fill="#eeeeee" stroke="none" font-family="Arial" font-size="24px" font-style="normal" font-weight="normal" text-decoration="none" x="200" y="60">UNREGISTERED</text><text fill="#eeeeee" stroke="none" font-family="Arial" font-size="24px" font-style="normal" font-weight="normal" text-decoration="none" x="200" y="90">UNREGISTERED</text><text fill="#eeeeee" stroke="none" font-family="Arial" font-size="24px" font-style="normal" font-weight="normal" text-decoration="none" x="200" y="120">UNREGISTERED</text><text fill="#eeeeee" stroke="none" font-family="Arial" font-size="24px" font-style="normal" font-weight="normal" text-decoration="none" x="200" y="150">UNREGISTERED</text><text fill="#eeeeee" stroke="none" font-family="Arial" font-size="24px" font-style="normal" font-weight="normal" text-decoration="none" x="200" y="180">UNREGISTERED</text><text fill="#eeeeee" stroke="none" font-family="Arial" font-size="24px" font-style="normal" font-weight="normal" text-decoration="none" x="200" y="210">UNREGISTERED</text><text fill="#eeeeee" stroke="none" font-family="Arial" font-size="24px" font-style="normal" font-weight="normal" text-decoration="none" x="200" y="240">UNREGISTERED</text><text fill="#eeeeee" stroke="none" font-family="Arial" font-size="24px" font-style="normal" font-weight="normal" text-decoration="none" x="200" y="270">UNREGISTERED</text><text fill="#eeeeee" stroke="none" font-family="Arial" font-size="24px" font-style="normal" font-weight="normal" text-decoration="none" x="200" y="300">UNREGISTERED</text><text fill="#eeeeee" stroke="none" font-family="Arial" font-size="24px" font-style="normal" font-weight="normal" text-decoration="none" x="200" y="330">UNREGISTERED</text><text fill="#eeeeee" stroke="none" font-family="Arial" font-size="24px" font-style="normal" font-weight="normal" text-decoration="none" x="200" y="360">UNREGISTERED</text><text fill="#eeeeee" stroke="none" font-family="Arial" font-size="24px" font-style="normal" font-weight="normal" text-decoration="none" x="200" y="390">UNREGISTERED</text><text fill="#eeeeee" stroke="none" font-family="Arial" font-size="24px" font-style="normal" font-weight="normal" text-decoration="none" x="200" y="420">UNREGISTERED</text><text fill="#eeeeee" stroke="none" font-family="Arial" font-size="24px" font-style="normal" font-weight="normal" text-decoration="none" x="200" y="450">UNREGISTERED</text><text fill="#eeeeee" stroke="none" font-family="Arial" font-size="24px" font-style="normal" font-weight="normal" text-decoration="none" x="200" y="480">UNREGISTERED</text><text fill="#eeeeee" stroke="none" font-family="Arial" font-size="24px" font-style="normal" font-weight="normal" text-decoration="none" x="400" y="0">UNREGISTERED</text><text fill="#eeeeee" stroke="none" font-family="Arial" font-size="24px" font-style="normal" font-weight="normal" text-decoration="none" x="400" y="30">UNREGISTERED</text><text fill="#eeeeee" stroke="none" font-family="Arial" font-size="24px" font-style="normal" font-weight="normal" text-decoration="none" x="400" y="60">UNREGISTERED</text><text fill="#eeeeee" stroke="none" font-family="Arial" font-size="24px" font-style="normal" font-weight="normal" text-decoration="none" x="400" y="90">UNREGISTERED</text><text fill="#eeeeee" stroke="none" font-family="Arial" font-size="24px" font-style="normal" font-weight="normal" text-decoration="none" x="400" y="120">UNREGISTERED</text><text fill="#eeeeee" stroke="none" font-family="Arial" font-size="24px" font-style="normal" font-weight="normal" text-decoration="none" x="400" y="150">UNREGISTERED</text><text fill="#eeeeee" stroke="none" font-family="Arial" font-size="24px" font-style="normal" font-weight="normal" text-decoration="none" x="400" y="180">UNREGISTERED</text><text fill="#eeeeee" stroke="none" font-family="Arial" font-size="24px" font-style="normal" font-weight="normal" text-decoration="none" x="400" y="210">UNREGISTERED</text><text fill="#eeeeee" stroke="none" font-family="Arial" font-size="24px" font-style="normal" font-weight="normal" text-decoration="none" x="400" y="240">UNREGISTERED</text><text fill="#eeeeee" stroke="none" font-family="Arial" font-size="24px" font-style="normal" font-weight="normal" text-decoration="none" x="400" y="270">UNREGISTERED</text><text fill="#eeeeee" stroke="none" font-family="Arial" font-size="24px" font-style="normal" font-weight="normal" text-decoration="none" x="400" y="300">UNREGISTERED</text><text fill="#eeeeee" stroke="none" font-family="Arial" font-size="24px" font-style="normal" font-weight="normal" text-decoration="none" x="400" y="330">UNREGISTERED</text><text fill="#eeeeee" stroke="none" font-family="Arial" font-size="24px" font-style="normal" font-weight="normal" text-decoration="none" x="400" y="360">UNREGISTERED</text><text fill="#eeeeee" stroke="none" font-family="Arial" font-size="24px" font-style="normal" font-weight="normal" text-decoration="none" x="400" y="390">UNREGISTERED</text><text fill="#eeeeee" stroke="none" font-family="Arial" font-size="24px" font-style="normal" font-weight="normal" text-decoration="none" x="400" y="420">UNREGISTERED</text><text fill="#eeeeee" stroke="none" font-family="Arial" font-size="24px" font-style="normal" font-weight="normal" text-decoration="none" x="400" y="450">UNREGISTERED</text><text fill="#eeeeee" stroke="none" font-family="Arial" font-size="24px" font-style="normal" font-weight="normal" text-decoration="none" x="400" y="480">UNREGISTERED</text><text fill="#eeeeee" stroke="none" font-family="Arial" font-size="24px" font-style="normal" font-weight="normal" text-decoration="none" x="600" y="0">UNREGISTERED</text><text fill="#eeeeee" stroke="none" font-family="Arial" font-size="24px" font-style="normal" font-weight="normal" text-decoration="none" x="600" y="30">UNREGISTERED</text><text fill="#eeeeee" stroke="none" font-family="Arial" font-size="24px" font-style="normal" font-weight="normal" text-decoration="none" x="600" y="60">UNREGISTERED</text><text fill="#eeeeee" stroke="none" font-family="Arial" font-size="24px" font-style="normal" font-weight="normal" text-decoration="none" x="600" y="90">UNREGISTERED</text><text fill="#eeeeee" stroke="none" font-family="Arial" font-size="24px" font-style="normal" font-weight="normal" text-decoration="none" x="600" y="120">UNREGISTERED</text><text fill="#eeeeee" stroke="none" font-family="Arial" font-size="24px" font-style="normal" font-weight="normal" text-decoration="none" x="600" y="150">UNREGISTERED</text><text fill="#eeeeee" stroke="none" font-family="Arial" font-size="24px" font-style="normal" font-weight="normal" text-decoration="none" x="600" y="180">UNREGISTERED</text><text fill="#eeeeee" stroke="none" font-family="Arial" font-size="24px" font-style="normal" font-weight="normal" text-decoration="none" x="600" y="210">UNREGISTERED</text><text fill="#eeeeee" stroke="none" font-family="Arial" font-size="24px" font-style="normal" font-weight="normal" text-decoration="none" x="600" y="240">UNREGISTERED</text><text fill="#eeeeee" stroke="none" font-family="Arial" font-size="24px" font-style="normal" font-weight="normal" text-decoration="none" x="600" y="270">UNREGISTERED</text><text fill="#eeeeee" stroke="none" font-family="Arial" font-size="24px" font-style="normal" font-weight="normal" text-decoration="none" x="600" y="300">UNREGISTERED</text><text fill="#eeeeee" stroke="none" font-family="Arial" font-size="24px" font-style="normal" font-weight="normal" text-decoration="none" x="600" y="330">UNREGISTERED</text><text fill="#eeeeee" stroke="none" font-family="Arial" font-size="24px" font-style="normal" font-weight="normal" text-decoration="none" x="600" y="360">UNREGISTERED</text><text fill="#eeeeee" stroke="none" font-family="Arial" font-size="24px" font-style="normal" font-weight="normal" text-decoration="none" x="600" y="390">UNREGISTERED</text><text fill="#eeeeee" stroke="none" font-family="Arial" font-size="24px" font-style="normal" font-weight="normal" text-decoration="none" x="600" y="420">UNREGISTERED</text><text fill="#eeeeee" stroke="none" font-family="Arial" font-size="24px" font-style="normal" font-weight="normal" text-decoration="none" x="600" y="450">UNREGISTERED</text><text fill="#eeeeee" stroke="none" font-family="Arial" font-size="24px" font-style="normal" font-weight="normal" text-decoration="none" x="600" y="480">UNREGISTERED</text><text fill="#eeeeee" stroke="none" font-family="Arial" font-size="24px" font-style="normal" font-weight="normal" text-decoration="none" x="800" y="0">UNREGISTERED</text><text fill="#eeeeee" stroke="none" font-family="Arial" font-size="24px" font-style="normal" font-weight="normal" text-decoration="none" x="800" y="30">UNREGISTERED</text><text fill="#eeeeee" stroke="none" font-family="Arial" font-size="24px" font-style="normal" font-weight="normal" text-decoration="none" x="800" y="60">UNREGISTERED</text><text fill="#eeeeee" stroke="none" font-family="Arial" font-size="24px" font-style="normal" font-weight="normal" text-decoration="none" x="800" y="90">UNREGISTERED</text><text fill="#eeeeee" stroke="none" font-family="Arial" font-size="24px" font-style="normal" font-weight="normal" text-decoration="none" x="800" y="120">UNREGISTERED</text><text fill="#eeeeee" stroke="none" font-family="Arial" font-size="24px" font-style="normal" font-weight="normal" text-decoration="none" x="800" y="150">UNREGISTERED</text><text fill="#eeeeee" stroke="none" font-family="Arial" font-size="24px" font-style="normal" font-weight="normal" text-decoration="none" x="800" y="180">UNREGISTERED</text><text fill="#eeeeee" stroke="none" font-family="Arial" font-size="24px" font-style="normal" font-weight="normal" text-decoration="none" x="800" y="210">UNREGISTERED</text><text fill="#eeeeee" stroke="none" font-family="Arial" font-size="24px" font-style="normal" font-weight="normal" text-decoration="none" x="800" y="240">UNREGISTERED</text><text fill="#eeeeee" stroke="none" font-family="Arial" font-size="24px" font-style="normal" font-weight="normal" text-decoration="none" x="800" y="270">UNREGISTERED</text><text fill="#eeeeee" stroke="none" font-family="Arial" font-size="24px" font-style="normal" font-weight="normal" text-decoration="none" x="800" y="300">UNREGISTERED</text><text fill="#eeeeee" stroke="none" font-family="Arial" font-size="24px" font-style="normal" font-weight="normal" text-decoration="none" x="800" y="330">UNREGISTERED</text><text fill="#eeeeee" stroke="none" font-family="Arial" font-size="24px" font-style="normal" font-weight="normal" text-decoration="none" x="800" y="360">UNREGISTERED</text><text fill="#eeeeee" stroke="none" font-family="Arial" font-size="24px" font-style="normal" font-weight="normal" text-decoration="none" x="800" y="390">UNREGISTERED</text><text fill="#eeeeee" stroke="none" font-family="Arial" font-size="24px" font-style="normal" font-weight="normal" text-decoration="none" x="800" y="420">UNREGISTERED</text><text fill="#eeeeee" stroke="none" font-family="Arial" font-size="24px" font-style="normal" font-weight="normal" text-decoration="none" x="800" y="450">UNREGISTERED</text><text fill="#eeeeee" stroke="none" font-family="Arial" font-size="24px" font-style="normal" font-weight="normal" text-decoration="none" x="800" y="480">UNREGISTERED</text><g transform="translate(-158,-78) scale(1,1)"><path fill="none" stroke="#000000" d="M 256 88 L 824 88 L 824 552 L 256 552 L 256 88" stroke-miterlimit="10"/></g><g transform="translate(-158,-78) scale(1,1)"><path fill="#ffffff" stroke="none" d="M 256 88 L 256 110 L 320.4072265625 110 L 331.4072265625 99 L 331.4072265625 88 L 256 88"/></g><g transform="translate(-158,-78) scale(1,1)"><path fill="none" stroke="#000000" d="M 256 88 L 256 110 L 320.4072265625 110 L 331.4072265625 99 L 331.4072265625 88 L 256 88 L 256 88" stroke-miterlimit="10"/></g><g transform="translate(-158,-78) scale(1,1)"><g><path fill="none" stroke="none"/><text fill="#000000" stroke="none" font-family="Arial" font-size="13px" font-style="normal" font-weight="normal" text-decoration="none" x="287.9599609375" y="105.5">User</text></g></g><g transform="translate(-158,-78) scale(1,1)"><g><path fill="none" stroke="none"/><text fill="#000000" stroke="none" font-family="Arial" font-size="13px" font-style="normal" font-weight="bold" text-decoration="none" x="261" y="105.5">pkg</text></g></g><g transform="translate(-158,-78) scale(1,1)"><path fill="#ffffff" stroke="none" d="M 186.94523899147728 241.68 C 186.94523899147728 236.886167936 190.83108131642274 233 195.62451171875 233 C 200.41794212107726 233 204.30378444602272 236.886167936 204.30378444602272 241.68 C 204.30378444602272 246.47383206400002 200.41794212107726 250.36 195.62451171875 250.36 C 190.83108131642274 250.36 186.94523899147728 246.47383206400002 186.94523899147728 241.68 Z"/></g><g transform="translate(-158,-78) scale(1,1)"><path fill="none" stroke="#000000" d="M 186.94523899147728 241.68 C 186.94523899147728 236.886167936 190.83108131642274 233 195.62451171875 233 C 200.41794212107726 233 204.30378444602272 236.886167936 204.30378444602272 241.68 C 204.30378444602272 246.47383206400002 200.41794212107726 250.36 195.62451171875 250.36 C 190.83108131642274 250.36 186.94523899147728 246.47383206400002 186.94523899147728 241.68 Z" stroke-miterlimit="10"/></g><g transform="translate(-158,-78) scale(1,1)"><path fill="none" stroke="#000000" d="M 195.62451171875 250.36 L 195.62451171875 267.64" stroke-miterlimit="10"/></g><g transform="translate(-158,-78) scale(1,1)"><path fill="none" stroke="#000000" d="M 186.43469353693183 256.84 L 204.81432990056817 256.84" stroke-miterlimit="10"/></g><g transform="translate(-158,-78) scale(1,1)"><path fill="none" stroke="#000000" d="M 195.62451171875 267.64 L 182.86087535511365 285" stroke-miterlimit="10"/></g><g transform="translate(-158,-78) scale(1,1)"><path fill="none" stroke="#000000" d="M 195.62451171875 267.64 L 208.38814808238635 285" stroke-miterlimit="10"/></g><g transform="translate(-158,-78) scale(1,1)"><g><path fill="none" stroke="none"/><text fill="#000000" stroke="none" font-family="Arial" font-size="13px" font-style="normal" font-weight="bold" text-decoration="none" x="173.95361328125" y="305.5">System</text></g></g><g transform="translate(-158,-78) scale(1,1)"><path fill="#C0C0C0" stroke="none" d="M 439 344 C 439 334.6111584 461.6096176 327 489.5 327 C 517.3903824 327 540 334.6111584 540 344 C 540 353.3888416 517.3903824 361 489.5 361 C 461.6096176 361 439 353.3888416 439 344 Z" opacity="0.2"/></g><g transform="translate(-158,-78) scale(1,1)"><path fill="#ffffff" stroke="none" d="M 432 337 C 432 327.6111584 454.6096176 320 482.5 320 C 510.3903824 320 533 327.6111584 533 337 C 533 346.3888416 510.3903824 354 482.5 354 C 454.6096176 354 432 346.3888416 432 337 Z"/></g><g transform="translate(-158,-78) scale(1,1)"><path fill="none" stroke="#000000" d="M 432 337 C 432 327.6111584 454.6096176 320 482.5 320 C 510.3903824 320 533 327.6111584 533 337 C 533 346.3888416 510.3903824 354 482.5 354 C 454.6096176 354 432 346.3888416 432 337 Z" stroke-miterlimit="10"/></g><g transform="translate(-158,-78) scale(1,1)"><g><path fill="none" stroke="none"/><text fill="#000000" stroke="none" font-family="Arial" font-size="13px" font-style="normal" font-weight="bold" text-decoration="none" x="468.7763671875" y="344">User</text></g></g><g transform="translate(-158,-78) scale(1,1)"><path fill="none" stroke="#000000" d="M 224 278 L 431 325" stroke-miterlimit="10"/></g><g transform="translate(-158,-78) scale(1,1)"><path fill="#C0C0C0" stroke="none" d="M 519 168 C 519 158.6111584 541.6096176 151 569.5 151 C 597.3903824 151 620 158.6111584 620 168 C 620 177.3888416 597.3903824 185 569.5 185 C 541.6096176 185 519 177.3888416 519 168 Z" opacity="0.2"/></g><g transform="translate(-158,-78) scale(1,1)"><path fill="#ffffff" stroke="none" d="M 512 161 C 512 151.6111584 534.6096176 144 562.5 144 C 590.3903824 144 613 151.6111584 613 161 C 613 170.3888416 590.3903824 178 562.5 178 C 534.6096176 178 512 170.3888416 512 161 Z"/></g><g transform="translate(-158,-78) scale(1,1)"><path fill="none" stroke="#000000" d="M 512 161 C 512 151.6111584 534.6096176 144 562.5 144 C 590.3903824 144 613 151.6111584 613 161 C 613 170.3888416 590.3903824 178 562.5 178 C 534.6096176 178 512 170.3888416 512 161 Z" stroke-miterlimit="10"/></g><g transform="translate(-158,-78) scale(1,1)"><g><path fill="none" stroke="none"/><text fill="#000000" stroke="none" font-family="Arial" font-size="13px" font-style="normal" font-weight="bold" text-decoration="none" x="540.819580078125" y="168">Gender</text></g></g><g transform="translate(-158,-78) scale(1,1)"><path fill="none" stroke="#000000" d="M 490 319 L 554 179" stroke-miterlimit="10" stroke-dasharray="3"/></g><g transform="translate(-158,-78) scale(1,1)"><path fill="none" stroke="#000000" d="M 553.6032176911364 189.99284147977096 L 554 179 L 545.9463197838929 186.4925452936025" stroke-miterlimit="10"/></g><g transform="translate(-158,-78) scale(1,1)"><g><path fill="none" stroke="none"/><text fill="#000000" stroke="none" font-family="Arial" font-size="13px" font-style="normal" font-weight="normal" text-decoration="none" x="480.5" y="249.5">«include»</text></g></g><g transform="translate(-158,-78) scale(1,1)"><path fill="#C0C0C0" stroke="none" d="M 639 200 C 639 190.6111584 661.6096176 183 689.5 183 C 717.3903824 183 740 190.6111584 740 200 C 740 209.3888416 717.3903824 217 689.5 217 C 661.6096176 217 639 209.3888416 639 200 Z" opacity="0.2"/></g><g transform="translate(-158,-78) scale(1,1)"><path fill="#ffffff" stroke="none" d="M 632 193 C 632 183.6111584 654.6096176 176 682.5 176 C 710.3903824 176 733 183.6111584 733 193 C 733 202.3888416 710.3903824 210 682.5 210 C 654.6096176 210 632 202.3888416 632 193 Z"/></g><g transform="translate(-158,-78) scale(1,1)"><path fill="none" stroke="#000000" d="M 632 193 C 632 183.6111584 654.6096176 176 682.5 176 C 710.3903824 176 733 183.6111584 733 193 C 733 202.3888416 710.3903824 210 682.5 210 C 654.6096176 210 632 202.3888416 632 193 Z" stroke-miterlimit="10"/></g><g transform="translate(-158,-78) scale(1,1)"><g><path fill="none" stroke="none"/><text fill="#000000" stroke="none" font-family="Arial" font-size="13px" font-style="normal" font-weight="bold" text-decoration="none" x="657.931396484375" y="200">province</text></g></g><g transform="translate(-158,-78) scale(1,1)"><path fill="none" stroke="#000000" d="M 507 319 L 657 211" stroke-miterlimit="10" stroke-dasharray="3"/></g><g transform="translate(-158,-78) scale(1,1)"><path fill="none" stroke="#000000" d="M 651.2122814704012 220.35426716649354 L 657 211 L 646.2929992336634 213.5219307265799" stroke-miterlimit="10"/></g><g transform="translate(-158,-78) scale(1,1)"><g><path fill="none" stroke="none"/><text fill="#000000" stroke="none" font-family="Arial" font-size="13px" font-style="normal" font-weight="normal" text-decoration="none" x="536.5" y="262.5">«include»</text></g></g><g transform="translate(-158,-78) scale(1,1)"><path fill="#C0C0C0" stroke="none" d="M 671 272 C 671 262.6111584 693.6096176 255 721.5 255 C 749.3903824 255 772 262.6111584 772 272 C 772 281.3888416 749.3903824 289 721.5 289 C 693.6096176 289 671 281.3888416 671 272 Z" opacity="0.2"/></g><g transform="translate(-158,-78) scale(1,1)"><path fill="#ffffff" stroke="none" d="M 664 265 C 664 255.6111584 686.6096176 248 714.5 248 C 742.3903824 248 765 255.6111584 765 265 C 765 274.3888416 742.3903824 282 714.5 282 C 686.6096176 282 664 274.3888416 664 265 Z"/></g><g transform="translate(-158,-78) scale(1,1)"><path fill="none" stroke="#000000" d="M 664 265 C 664 255.6111584 686.6096176 248 714.5 248 C 742.3903824 248 765 255.6111584 765 265 C 765 274.3888416 742.3903824 282 714.5 282 C 686.6096176 282 664 274.3888416 664 265 Z" stroke-miterlimit="10"/></g><g transform="translate(-158,-78) scale(1,1)"><g><path fill="none" stroke="none"/><text fill="#000000" stroke="none" font-family="Arial" font-size="13px" font-style="normal" font-weight="bold" text-decoration="none" x="695.720458984375" y="272">district</text></g></g><g transform="translate(-158,-78) scale(1,1)"><path fill="none" stroke="#000000" d="M 534 321 L 663 281" stroke-miterlimit="10" stroke-dasharray="3"/></g><g transform="translate(-158,-78) scale(1,1)"><path fill="none" stroke="#000000" d="M 654.539976876494 288.0305055827974 L 663 281 L 652.046542107608 279.9891784531399" stroke-miterlimit="10"/></g><g transform="translate(-158,-78) scale(1,1)"><g><path fill="none" stroke="none"/><text fill="#000000" stroke="none" font-family="Arial" font-size="13px" font-style="normal" font-weight="normal" text-decoration="none" x="567.5" y="299.5">«include»</text></g></g><g transform="translate(-158,-78) scale(1,1)"><path fill="#C0C0C0" stroke="none" d="M 271 480 C 271 470.6111584 298.0867696 463 331.5 463 C 364.9132304 463 392 470.6111584 392 480 C 392 489.3888416 364.9132304 497 331.5 497 C 298.0867696 497 271 489.3888416 271 480 Z" opacity="0.2"/></g><g transform="translate(-158,-78) scale(1,1)"><path fill="#ffffff" stroke="none" d="M 264 473 C 264 463.6111584 291.0867696 456 324.5 456 C 357.9132304 456 385 463.6111584 385 473 C 385 482.3888416 357.9132304 490 324.5 490 C 291.0867696 490 264 482.3888416 264 473 Z"/></g><g transform="translate(-158,-78) scale(1,1)"><path fill="none" stroke="#000000" d="M 264 473 C 264 463.6111584 291.0867696 456 324.5 456 C 357.9132304 456 385 463.6111584 385 473 C 385 482.3888416 357.9132304 490 324.5 490 C 291.0867696 490 264 482.3888416 264 473 Z" stroke-miterlimit="10"/></g><g transform="translate(-158,-78) scale(1,1)"><g><path fill="none" stroke="none"/><text fill="#000000" stroke="none" font-family="Arial" font-size="13px" font-style="normal" font-weight="bold" text-decoration="none" x="288.73095703125" y="480">already user</text></g></g><g transform="translate(-158,-78) scale(1,1)"><path fill="none" stroke="#000000" d="M 345 455 L 461 355" stroke-miterlimit="10" stroke-dasharray="3"/></g><g transform="translate(-158,-78) scale(1,1)"><path fill="none" stroke="#000000" d="M 456.0512497590355 364.823943762693 L 461 355 L 450.55412789362 358.44728239881096" stroke-miterlimit="10"/></g><g transform="translate(-158,-78) scale(1,1)"><g><path fill="none" stroke="none"/><text fill="#000000" stroke="none" font-family="Arial" font-size="13px" font-style="normal" font-weight="normal" text-decoration="none" x="351.5" y="395.5">«extend»</text></g></g><g transform="translate(-158,-78) scale(1,1)"><path fill="#C0C0C0" stroke="none" d="M 367 200 C 367 190.6111584 400.1309248 183 441 183 C 481.8690752 183 515 190.6111584 515 200 C 515 209.3888416 481.8690752 217 441 217 C 400.1309248 217 367 209.3888416 367 200 Z" opacity="0.2"/></g><g transform="translate(-158,-78) scale(1,1)"><path fill="#ffffff" stroke="none" d="M 360 193 C 360 183.6111584 393.1309248 176 434 176 C 474.8690752 176 508 183.6111584 508 193 C 508 202.3888416 474.8690752 210 434 210 C 393.1309248 210 360 202.3888416 360 193 Z"/></g><g transform="translate(-158,-78) scale(1,1)"><path fill="none" stroke="#000000" d="M 360 193 C 360 183.6111584 393.1309248 176 434 176 C 474.8690752 176 508 183.6111584 508 193 C 508 202.3888416 474.8690752 210 434 210 C 393.1309248 210 360 202.3888416 360 193 Z" stroke-miterlimit="10"/></g><g transform="translate(-158,-78) scale(1,1)"><g><path fill="none" stroke="none"/><text fill="#000000" stroke="none" font-family="Arial" font-size="13px" font-style="normal" font-weight="bold" text-decoration="none" x="390.2900390625" y="200">Access Control</text></g></g><g transform="translate(-158,-78) scale(1,1)"><path fill="none" stroke="#000000" d="M 476 319 L 440 211" stroke-miterlimit="10" stroke-dasharray="3"/></g><g transform="translate(-158,-78) scale(1,1)"><path fill="none" stroke="#000000" d="M 447.2072191549614 219.30999350495279 L 440 211 L 439.22022077900255 221.97232629693906" stroke-miterlimit="10"/></g><g transform="translate(-158,-78) scale(1,1)"><g><path fill="none" stroke="none"/><text fill="#000000" stroke="none" font-family="Arial" font-size="13px" font-style="normal" font-weight="normal" text-decoration="none" x="446.5" y="267.5">«include»</text></g></g><g transform="translate(-158,-78) scale(1,1)"><path fill="none" stroke="#000000" d="M 224 261 L 379 211" stroke-miterlimit="10"/></g><g transform="translate(-158,-78) scale(1,1)"><path fill="#C0C0C0" stroke="none" d="M 663 360 C 663 350.6111584 679.1177472 343 699 343 C 718.8822528 343 735 350.6111584 735 360 C 735 369.3888416 718.8822528 377 699 377 C 679.1177472 377 663 369.3888416 663 360 Z" opacity="0.2"/></g><g transform="translate(-158,-78) scale(1,1)"><path fill="#ffffff" stroke="none" d="M 656 353 C 656 343.6111584 672.1177472 336 692 336 C 711.8822528 336 728 343.6111584 728 353 C 728 362.3888416 711.8822528 370 692 370 C 672.1177472 370 656 362.3888416 656 353 Z"/></g><g transform="translate(-158,-78) scale(1,1)"><path fill="none" stroke="#000000" d="M 656 353 C 656 343.6111584 672.1177472 336 692 336 C 711.8822528 336 728 343.6111584 728 353 C 728 362.3888416 711.8822528 370 692 370 C 672.1177472 370 656 362.3888416 656 353 Z" stroke-miterlimit="10"/></g><g transform="translate(-158,-78) scale(1,1)"><g><path fill="none" stroke="none"/><text fill="#000000" stroke="none" font-family="Arial" font-size="13px" font-style="normal" font-weight="bold" text-decoration="none" x="681.52001953125" y="360">edit</text></g></g><g transform="translate(-158,-78) scale(1,1)"><path fill="#C0C0C0" stroke="none" d="M 551 480 C 551 470.6111584 573.6096176 463 601.5 463 C 629.3903824 463 652 470.6111584 652 480 C 652 489.3888416 629.3903824 497 601.5 497 C 573.6096176 497 551 489.3888416 551 480 Z" opacity="0.2"/></g><g transform="translate(-158,-78) scale(1,1)"><path fill="#ffffff" stroke="none" d="M 544 473 C 544 463.6111584 566.6096176 456 594.5 456 C 622.3903824 456 645 463.6111584 645 473 C 645 482.3888416 622.3903824 490 594.5 490 C 566.6096176 490 544 482.3888416 544 473 Z"/></g><g transform="translate(-158,-78) scale(1,1)"><path fill="none" stroke="#000000" d="M 544 473 C 544 463.6111584 566.6096176 456 594.5 456 C 622.3903824 456 645 463.6111584 645 473 C 645 482.3888416 622.3903824 490 594.5 490 C 566.6096176 490 544 482.3888416 544 473 Z" stroke-miterlimit="10"/></g><g transform="translate(-158,-78) scale(1,1)"><g><path fill="none" stroke="none"/><text fill="#000000" stroke="none" font-family="Arial" font-size="13px" font-style="normal" font-weight="bold" text-decoration="none" x="576.7900390625" y="480">delete</text></g></g><g transform="translate(-158,-78) scale(1,1)"><path fill="#C0C0C0" stroke="none" d="M 407 512 C 407 502.6111584 429.6096176 495 457.5 495 C 485.3903824 495 508 502.6111584 508 512 C 508 521.3888416 485.3903824 529 457.5 529 C 429.6096176 529 407 521.3888416 407 512 Z" opacity="0.2"/></g><g transform="translate(-158,-78) scale(1,1)"><path fill="#ffffff" stroke="none" d="M 400 505 C 400 495.6111584 422.6096176 488 450.5 488 C 478.3903824 488 501 495.6111584 501 505 C 501 514.3888416 478.3903824 522 450.5 522 C 422.6096176 522 400 514.3888416 400 505 Z"/></g><g transform="translate(-158,-78) scale(1,1)"><path fill="none" stroke="#000000" d="M 400 505 C 400 495.6111584 422.6096176 488 450.5 488 C 478.3903824 488 501 495.6111584 501 505 C 501 514.3888416 478.3903824 522 450.5 522 C 422.6096176 522 400 514.3888416 400 505 Z" stroke-miterlimit="10"/></g><g transform="translate(-158,-78) scale(1,1)"><g><path fill="none" stroke="none"/><text fill="#000000" stroke="none" font-family="Arial" font-size="13px" font-style="normal" font-weight="bold" text-decoration="none" x="429.90185546875" y="512">disable</text></g></g><g transform="translate(-158,-78) scale(1,1)"><path fill="#C0C0C0" stroke="none" d="M 671 440 C 671 430.6111584 693.6096176 423 721.5 423 C 749.3903824 423 772 430.6111584 772 440 C 772 449.3888416 749.3903824 457 721.5 457 C 693.6096176 457 671 449.3888416 671 440 Z" opacity="0.2"/></g><g transform="translate(-158,-78) scale(1,1)"><path fill="#ffffff" stroke="none" d="M 664 433 C 664 423.6111584 686.6096176 416 714.5 416 C 742.3903824 416 765 423.6111584 765 433 C 765 442.3888416 742.3903824 450 714.5 450 C 686.6096176 450 664 442.3888416 664 433 Z"/></g><g transform="translate(-158,-78) scale(1,1)"><path fill="none" stroke="#000000" d="M 664 433 C 664 423.6111584 686.6096176 416 714.5 416 C 742.3903824 416 765 423.6111584 765 433 C 765 442.3888416 742.3903824 450 714.5 450 C 686.6096176 450 664 442.3888416 664 433 Z" stroke-miterlimit="10"/></g><g transform="translate(-158,-78) scale(1,1)"><g><path fill="none" stroke="none"/><text fill="#000000" stroke="none" font-family="Arial" font-size="13px" font-style="normal" font-weight="bold" text-decoration="none" x="689.9345703125" y="440">get User</text></g></g><g transform="translate(-158,-78) scale(1,1)"><path fill="none" stroke="#000000" d="M 655 350 L 534 341" stroke-miterlimit="10" stroke-dasharray="3"/></g><g transform="translate(-158,-78) scale(1,1)"><path fill="none" stroke="#000000" d="M 544.4469210233676 337.5558976305111 L 534 341 L 543.8224368387098 345.9517405575773" stroke-miterlimit="10"/></g><g transform="translate(-158,-78) scale(1,1)"><g><path fill="none" stroke="none"/><text fill="#000000" stroke="none" font-family="Arial" font-size="13px" font-style="normal" font-weight="normal" text-decoration="none" x="575.5" y="363.5">«include»</text></g></g><g transform="translate(-158,-78) scale(1,1)"><path fill="none" stroke="#000000" d="M 453 487 L 479 355" stroke-miterlimit="10" stroke-dasharray="3"/></g><g transform="translate(-158,-78) scale(1,1)"><path fill="none" stroke="#000000" d="M 481.16615832638246 365.78460746179684 L 479 355 L 472.9058361730372 364.1575743103803" stroke-miterlimit="10"/></g><g transform="translate(-158,-78) scale(1,1)"><g><path fill="none" stroke="none"/><text fill="#000000" stroke="none" font-family="Arial" font-size="13px" font-style="normal" font-weight="normal" text-decoration="none" x="429.5" y="434.5">«include»</text></g></g><g transform="translate(-158,-78) scale(1,1)"><path fill="none" stroke="#000000" d="M 671 415 L 526 355" stroke-miterlimit="10" stroke-dasharray="3"/></g><g transform="translate(-158,-78) scale(1,1)"><path fill="none" stroke="#000000" d="M 536.9999992914013 354.99605168776947 L 526 355 L 533.7809659703496 362.77538221364466" stroke-miterlimit="10"/></g><g transform="translate(-158,-78) scale(1,1)"><g><path fill="none" stroke="none"/><text fill="#000000" stroke="none" font-family="Arial" font-size="13px" font-style="normal" font-weight="normal" text-decoration="none" x="573.5" y="403.5">«include»</text></g></g><g transform="translate(-158,-78) scale(1,1)"><path fill="none" stroke="#000000" d="M 579 455 L 497 355" stroke-miterlimit="10" stroke-dasharray="3"/></g><g transform="translate(-158,-78) scale(1,1)"><path fill="none" stroke="#000000" d="M 506.6990291830543 360.18929984740345 L 497 355 L 500.1888601945546 365.5276384179732" stroke-miterlimit="10"/></g><g transform="translate(-158,-78) scale(1,1)"><g><path fill="none" stroke="none"/><text fill="#000000" stroke="none" font-family="Arial" font-size="13px" font-style="normal" font-weight="normal" text-decoration="none" x="545.5" y="431.5">«include»</text></g></g><g transform="translate(-158,-78) scale(1,1)"><path fill="#ffffff" stroke="none" d="M 960.4093503196023 257.68 C 960.4093503196023 252.886167936 964.2951926445477 249 969.088623046875 249 C 973.8820534492023 249 977.7678957741477 252.886167936 977.7678957741477 257.68 C 977.7678957741477 262.473832064 973.8820534492023 266.36 969.088623046875 266.36 C 964.2951926445477 266.36 960.4093503196023 262.473832064 960.4093503196023 257.68 Z"/></g><g transform="translate(-158,-78) scale(1,1)"><path fill="none" stroke="#000000" d="M 960.4093503196023 257.68 C 960.4093503196023 252.886167936 964.2951926445477 249 969.088623046875 249 C 973.8820534492023 249 977.7678957741477 252.886167936 977.7678957741477 257.68 C 977.7678957741477 262.473832064 973.8820534492023 266.36 969.088623046875 266.36 C 964.2951926445477 266.36 960.4093503196023 262.473832064 960.4093503196023 257.68 Z" stroke-miterlimit="10"/></g><g transform="translate(-158,-78) scale(1,1)"><path fill="none" stroke="#000000" d="M 969.088623046875 266.36 L 969.088623046875 283.64" stroke-miterlimit="10"/></g><g transform="translate(-158,-78) scale(1,1)"><path fill="none" stroke="#000000" d="M 959.8988048650568 272.84 L 978.2784412286932 272.84" stroke-miterlimit="10"/></g><g transform="translate(-158,-78) scale(1,1)"><path fill="none" stroke="#000000" d="M 969.088623046875 283.64 L 956.3249866832386 301" stroke-miterlimit="10"/></g><g transform="translate(-158,-78) scale(1,1)"><path fill="none" stroke="#000000" d="M 969.088623046875 283.64 L 981.8522594105114 301" stroke-miterlimit="10"/></g><g transform="translate(-158,-78) scale(1,1)"><g><path fill="none" stroke="none"/><text fill="#000000" stroke="none" font-family="Arial" font-size="13px" font-style="normal" font-weight="bold" text-decoration="none" x="955.364990234375" y="321.5">User</text></g></g><g transform="translate(-158,-78) scale(1,1)"><path fill="none" stroke="#000000" d="M 943 290 L 534 332" stroke-miterlimit="10"/></g><g transform="translate(-158,-78) scale(1,1)"><path fill="none" stroke="#000000" d="M 943 302 L 745 415" stroke-miterlimit="10"/></g><g transform="translate(-158,-78) scale(1,1)"><path fill="none" stroke="#000000" d="M 943 293 L 729 344" stroke-miterlimit="10"/></g><g transform="translate(-158,-78) scale(1,1)"><path fill="none" stroke="#000000" d="M 224 298 L 430 487" stroke-miterlimit="10"/></g><g transform="translate(-158,-78) scale(1,1)"><path fill="none" stroke="#000000" d="M 224 286 L 558 455" stroke-miterlimit="10"/></g></g></svg>