<svg version="1.1" xmlns="http://www.w3.org/2000/svg" xmlns:xlink="http://www.w3.org/1999/xlink" width="941.57080078125" height="405"><defs/><g><text fill="#eeeeee" stroke="none" font-family="Arial" font-size="24px" font-style="normal" font-weight="normal" text-decoration="none" x="0" y="0">UNREGISTERED</text><text fill="#eeeeee" stroke="none" font-family="Arial" font-size="24px" font-style="normal" font-weight="normal" text-decoration="none" x="0" y="30">UNREGISTERED</text><text fill="#eeeeee" stroke="none" font-family="Arial" font-size="24px" font-style="normal" font-weight="normal" text-decoration="none" x="0" y="60">UNREGISTERED</text><text fill="#eeeeee" stroke="none" font-family="Arial" font-size="24px" font-style="normal" font-weight="normal" text-decoration="none" x="0" y="90">UNREGISTERED</text><text fill="#eeeeee" stroke="none" font-family="Arial" font-size="24px" font-style="normal" font-weight="normal" text-decoration="none" x="0" y="120">UNREGISTERED</text><text fill="#eeeeee" stroke="none" font-family="Arial" font-size="24px" font-style="normal" font-weight="normal" text-decoration="none" x="0" y="150">UNREGISTERED</text><text fill="#eeeeee" stroke="none" font-family="Arial" font-size="24px" font-style="normal" font-weight="normal" text-decoration="none" x="0" y="180">UNREGISTERED</text><text fill="#eeeeee" stroke="none" font-family="Arial" font-size="24px" font-style="normal" font-weight="normal" text-decoration="none" x="0" y="210">UNREGISTERED</text><text fill="#eeeeee" stroke="none" font-family="Arial" font-size="24px" font-style="normal" font-weight="normal" text-decoration="none" x="0" y="240">UNREGISTERED</text><text fill="#eeeeee" stroke="none" font-family="Arial" font-size="24px" font-style="normal" font-weight="normal" text-decoration="none" x="0" y="270">UNREGISTERED</text><text fill="#eeeeee" stroke="none" font-family="Arial" font-size="24px" font-style="normal" font-weight="normal" text-decoration="none" x="0" y="300">UNREGISTERED</text><text fill="#eeeeee" stroke="none" font-family="Arial" font-size="24px" font-style="normal" font-weight="normal" text-decoration="none" x="0" y="330">UNREGISTERED</text><text fill="#eeeeee" stroke="none" font-family="Arial" font-size="24px" font-style="normal" font-weight="normal" text-decoration="none" x="0" y="360">UNREGISTERED</text><text fill="#eeeeee" stroke="none" font-family="Arial" font-size="24px" font-style="normal" font-weight="normal" text-decoration="none" x="0" y="390">UNREGISTERED</text><text fill="#eeeeee" stroke="none" font-family="Arial" font-size="24px" font-style="normal" font-weight="normal" text-decoration="none" x="200" y="0">UNREGISTERED</text><text fill="#eeeeee" stroke="none" font-family="Arial" font-size="24px" font-style="normal" font-weight="normal" text-decoration="none" x="200" y="30">UNREGISTERED</text><text fill="#eeeeee" stroke="none" font-family="Arial" font-size="24px" font-style="normal" font-weight="normal" text-decoration="none" x="200" y="60">UNREGISTERED</text><text fill="#eeeeee" stroke="none" font-family="Arial" font-size="24px" font-style="normal" font-weight="normal" text-decoration="none" x="200" y="90">UNREGISTERED</text><text fill="#eeeeee" stroke="none" font-family="Arial" font-size="24px" font-style="normal" font-weight="normal" text-decoration="none" x="200" y="120">UNREGISTERED</text><text fill="#eeeeee" stroke="none" font-family="Arial" font-size="24px" font-style="normal" font-weight="normal" text-decoration="none" x="200" y="150">UNREGISTERED</text><text fill="#eeeeee" stroke="none" font-family="Arial" font-size="24px" font-style="normal" font-weight="normal" text-decoration="none" x="200" y="180">UNREGISTERED</text><text fill="#eeeeee" stroke="none" font-family="Arial" font-size="24px" font-style="normal" font-weight="normal" text-decoration="none" x="200" y="210">UNREGISTERED</text><text fill="#eeeeee" stroke="none" font-family="Arial" font-size="24px" font-style="normal" font-weight="normal" text-decoration="none" x="200" y="240">UNREGISTERED</text><text fill="#eeeeee" stroke="none" font-family="Arial" font-size="24px" font-style="normal" font-weight="normal" text-decoration="none" x="200" y="270">UNREGISTERED</text><text fill="#eeeeee" stroke="none" font-family="Arial" font-size="24px" font-style="normal" font-weight="normal" text-decoration="none" x="200" y="300">UNREGISTERED</text><text fill="#eeeeee" stroke="none" font-family="Arial" font-size="24px" font-style="normal" font-weight="normal" text-decoration="none" x="200" y="330">UNREGISTERED</text><text fill="#eeeeee" stroke="none" font-family="Arial" font-size="24px" font-style="normal" font-weight="normal" text-decoration="none" x="200" y="360">UNREGISTERED</text><text fill="#eeeeee" stroke="none" font-family="Arial" font-size="24px" font-style="normal" font-weight="normal" text-decoration="none" x="200" y="390">UNREGISTERED</text><text fill="#eeeeee" stroke="none" font-family="Arial" font-size="24px" font-style="normal" font-weight="normal" text-decoration="none" x="400" y="0">UNREGISTERED</text><text fill="#eeeeee" stroke="none" font-family="Arial" font-size="24px" font-style="normal" font-weight="normal" text-decoration="none" x="400" y="30">UNREGISTERED</text><text fill="#eeeeee" stroke="none" font-family="Arial" font-size="24px" font-style="normal" font-weight="normal" text-decoration="none" x="400" y="60">UNREGISTERED</text><text fill="#eeeeee" stroke="none" font-family="Arial" font-size="24px" font-style="normal" font-weight="normal" text-decoration="none" x="400" y="90">UNREGISTERED</text><text fill="#eeeeee" stroke="none" font-family="Arial" font-size="24px" font-style="normal" font-weight="normal" text-decoration="none" x="400" y="120">UNREGISTERED</text><text fill="#eeeeee" stroke="none" font-family="Arial" font-size="24px" font-style="normal" font-weight="normal" text-decoration="none" x="400" y="150">UNREGISTERED</text><text fill="#eeeeee" stroke="none" font-family="Arial" font-size="24px" font-style="normal" font-weight="normal" text-decoration="none" x="400" y="180">UNREGISTERED</text><text fill="#eeeeee" stroke="none" font-family="Arial" font-size="24px" font-style="normal" font-weight="normal" text-decoration="none" x="400" y="210">UNREGISTERED</text><text fill="#eeeeee" stroke="none" font-family="Arial" font-size="24px" font-style="normal" font-weight="normal" text-decoration="none" x="400" y="240">UNREGISTERED</text><text fill="#eeeeee" stroke="none" font-family="Arial" font-size="24px" font-style="normal" font-weight="normal" text-decoration="none" x="400" y="270">UNREGISTERED</text><text fill="#eeeeee" stroke="none" font-family="Arial" font-size="24px" font-style="normal" font-weight="normal" text-decoration="none" x="400" y="300">UNREGISTERED</text><text fill="#eeeeee" stroke="none" font-family="Arial" font-size="24px" font-style="normal" font-weight="normal" text-decoration="none" x="400" y="330">UNREGISTERED</text><text fill="#eeeeee" stroke="none" font-family="Arial" font-size="24px" font-style="normal" font-weight="normal" text-decoration="none" x="400" y="360">UNREGISTERED</text><text fill="#eeeeee" stroke="none" font-family="Arial" font-size="24px" font-style="normal" font-weight="normal" text-decoration="none" x="400" y="390">UNREGISTERED</text><text fill="#eeeeee" stroke="none" font-family="Arial" font-size="24px" font-style="normal" font-weight="normal" text-decoration="none" x="600" y="0">UNREGISTERED</text><text fill="#eeeeee" stroke="none" font-family="Arial" font-size="24px" font-style="normal" font-weight="normal" text-decoration="none" x="600" y="30">UNREGISTERED</text><text fill="#eeeeee" stroke="none" font-family="Arial" font-size="24px" font-style="normal" font-weight="normal" text-decoration="none" x="600" y="60">UNREGISTERED</text><text fill="#eeeeee" stroke="none" font-family="Arial" font-size="24px" font-style="normal" font-weight="normal" text-decoration="none" x="600" y="90">UNREGISTERED</text><text fill="#eeeeee" stroke="none" font-family="Arial" font-size="24px" font-style="normal" font-weight="normal" text-decoration="none" x="600" y="120">UNREGISTERED</text><text fill="#eeeeee" stroke="none" font-family="Arial" font-size="24px" font-style="normal" font-weight="normal" text-decoration="none" x="600" y="150">UNREGISTERED</text><text fill="#eeeeee" stroke="none" font-family="Arial" font-size="24px" font-style="normal" font-weight="normal" text-decoration="none" x="600" y="180">UNREGISTERED</text><text fill="#eeeeee" stroke="none" font-family="Arial" font-size="24px" font-style="normal" font-weight="normal" text-decoration="none" x="600" y="210">UNREGISTERED</text><text fill="#eeeeee" stroke="none" font-family="Arial" font-size="24px" font-style="normal" font-weight="normal" text-decoration="none" x="600" y="240">UNREGISTERED</text><text fill="#eeeeee" stroke="none" font-family="Arial" font-size="24px" font-style="normal" font-weight="normal" text-decoration="none" x="600" y="270">UNREGISTERED</text><text fill="#eeeeee" stroke="none" font-family="Arial" font-size="24px" font-style="normal" font-weight="normal" text-decoration="none" x="600" y="300">UNREGISTERED</text><text fill="#eeeeee" stroke="none" font-family="Arial" font-size="24px" font-style="normal" font-weight="normal" text-decoration="none" x="600" y="330">UNREGISTERED</text><text fill="#eeeeee" stroke="none" font-family="Arial" font-size="24px" font-style="normal" font-weight="normal" text-decoration="none" x="600" y="360">UNREGISTERED</text><text fill="#eeeeee" stroke="none" font-family="Arial" font-size="24px" font-style="normal" font-weight="normal" text-decoration="none" x="600" y="390">UNREGISTERED</text><text fill="#eeeeee" stroke="none" font-family="Arial" font-size="24px" font-style="normal" font-weight="normal" text-decoration="none" x="800" y="0">UNREGISTERED</text><text fill="#eeeeee" stroke="none" font-family="Arial" font-size="24px" font-style="normal" font-weight="normal" text-decoration="none" x="800" y="30">UNREGISTERED</text><text fill="#eeeeee" stroke="none" font-family="Arial" font-size="24px" font-style="normal" font-weight="normal" text-decoration="none" x="800" y="60">UNREGISTERED</text><text fill="#eeeeee" stroke="none" font-family="Arial" font-size="24px" font-style="normal" font-weight="normal" text-decoration="none" x="800" y="90">UNREGISTERED</text><text fill="#eeeeee" stroke="none" font-family="Arial" font-size="24px" font-style="normal" font-weight="normal" text-decoration="none" x="800" y="120">UNREGISTERED</text><text fill="#eeeeee" stroke="none" font-family="Arial" font-size="24px" font-style="normal" font-weight="normal" text-decoration="none" x="800" y="150">UNREGISTERED</text><text fill="#eeeeee" stroke="none" font-family="Arial" font-size="24px" font-style="normal" font-weight="normal" text-decoration="none" x="800" y="180">UNREGISTERED</text><text fill="#eeeeee" stroke="none" font-family="Arial" font-size="24px" font-style="normal" font-weight="normal" text-decoration="none" x="800" y="210">UNREGISTERED</text><text fill="#eeeeee" stroke="none" font-family="Arial" font-size="24px" font-style="normal" font-weight="normal" text-decoration="none" x="800" y="240">UNREGISTERED</text><text fill="#eeeeee" stroke="none" font-family="Arial" font-size="24px" font-style="normal" font-weight="normal" text-decoration="none" x="800" y="270">UNREGISTERED</text><text fill="#eeeeee" stroke="none" font-family="Arial" font-size="24px" font-style="normal" font-weight="normal" text-decoration="none" x="800" y="300">UNREGISTERED</text><text fill="#eeeeee" stroke="none" font-family="Arial" font-size="24px" font-style="normal" font-weight="normal" text-decoration="none" x="800" y="330">UNREGISTERED</text><text fill="#eeeeee" stroke="none" font-family="Arial" font-size="24px" font-style="normal" font-weight="normal" text-decoration="none" x="800" y="360">UNREGISTERED</text><text fill="#eeeeee" stroke="none" font-family="Arial" font-size="24px" font-style="normal" font-weight="normal" text-decoration="none" x="800" y="390">UNREGISTERED</text><g transform="translate(-134,-270) scale(1,1)"><rect fill="#C0C0C0" stroke="none" x="364" y="407" width="120" height="250" opacity="0.2"/></g><g transform="translate(-134,-270) scale(1,1)"><rect fill="#ffffff" stroke="none" x="357" y="400" width="120" height="250"/></g><g transform="translate(-134,-270) scale(1,1)"><path fill="none" stroke="#000000" d="M 357 400 L 477 400 L 477 650 L 357 650 L 357 400 Z Z" stroke-miterlimit="10"/></g><g transform="translate(-134,-270) scale(1,1)"><path fill="none" stroke="#000000" d="M 357 425 L 477 425" stroke-miterlimit="10"/></g><g transform="translate(-134,-270) scale(1,1)"><path fill="none" stroke="#000000" d="M 357 568 L 477 568" stroke-miterlimit="10"/></g><g transform="translate(-134,-270) scale(1,1)"><g><path fill="none" stroke="none"/><text fill="#000000" stroke="none" font-family="Arial" font-size="13px" font-style="normal" font-weight="bold" text-decoration="none" x="379.41552734375" y="419.5">Beekkeeping</text></g></g><g transform="translate(-134,-270) scale(1,1)"><g><path fill="none" stroke="none"/><text fill="#000000" stroke="none" font-family="Arial" font-size="13px" font-style="normal" font-weight="normal" text-decoration="none" x="362" y="442.5">+bkId</text></g></g><g transform="translate(-134,-270) scale(1,1)"><g><path fill="none" stroke="none"/><text fill="#000000" stroke="none" font-family="Arial" font-size="13px" font-style="normal" font-weight="normal" text-decoration="none" x="362" y="457.5">+branch</text></g></g><g transform="translate(-134,-270) scale(1,1)"><g><path fill="none" stroke="none"/><text fill="#000000" stroke="none" font-family="Arial" font-size="13px" font-style="normal" font-weight="normal" text-decoration="none" x="362" y="472.5">+employee</text></g></g><g transform="translate(-134,-270) scale(1,1)"><g><path fill="none" stroke="none"/><text fill="#000000" stroke="none" font-family="Arial" font-size="13px" font-style="normal" font-weight="normal" text-decoration="none" x="362" y="487.5">+amount</text></g></g><g transform="translate(-134,-270) scale(1,1)"><g><path fill="none" stroke="none"/><text fill="#000000" stroke="none" font-family="Arial" font-size="13px" font-style="normal" font-weight="normal" text-decoration="none" x="362" y="502.5">+total</text></g></g><g transform="translate(-134,-270) scale(1,1)"><g><path fill="none" stroke="none"/><text fill="#000000" stroke="none" font-family="Arial" font-size="13px" font-style="normal" font-weight="normal" text-decoration="none" x="362" y="517.5">+description</text></g></g><g transform="translate(-134,-270) scale(1,1)"><g><path fill="none" stroke="none"/><text fill="#000000" stroke="none" font-family="Arial" font-size="13px" font-style="normal" font-weight="normal" text-decoration="none" x="362" y="532.5">+doc</text></g></g><g transform="translate(-134,-270) scale(1,1)"><g><path fill="none" stroke="none"/><text fill="#000000" stroke="none" font-family="Arial" font-size="13px" font-style="normal" font-weight="normal" text-decoration="none" x="362" y="547.5">+status</text></g></g><g transform="translate(-134,-270) scale(1,1)"><g><path fill="none" stroke="none"/><text fill="#000000" stroke="none" font-family="Arial" font-size="13px" font-style="normal" font-weight="normal" text-decoration="none" x="362" y="562.5">+create date</text></g></g><g transform="translate(-134,-270) scale(1,1)"><g><path fill="none" stroke="none"/><text fill="#000000" stroke="none" font-family="Arial" font-size="13px" font-style="normal" font-weight="normal" text-decoration="none" x="362" y="585.5">+create()</text></g></g><g transform="translate(-134,-270) scale(1,1)"><g><path fill="none" stroke="none"/><text fill="#000000" stroke="none" font-family="Arial" font-size="13px" font-style="normal" font-weight="normal" text-decoration="none" x="362" y="600.5">+getAll()</text></g></g><g transform="translate(-134,-270) scale(1,1)"><g><path fill="none" stroke="none"/><text fill="#000000" stroke="none" font-family="Arial" font-size="13px" font-style="normal" font-weight="normal" text-decoration="none" x="362" y="615.5">+getOne()</text></g></g><g transform="translate(-134,-270) scale(1,1)"><g><path fill="none" stroke="none"/><text fill="#000000" stroke="none" font-family="Arial" font-size="13px" font-style="normal" font-weight="normal" text-decoration="none" x="362" y="630.5">+Edit()</text></g></g><g transform="translate(-134,-270) scale(1,1)"><g><path fill="none" stroke="none"/><text fill="#000000" stroke="none" font-family="Arial" font-size="13px" font-style="normal" font-weight="normal" text-decoration="none" x="362" y="645.5">+validation()</text></g></g><g transform="translate(-134,-270) scale(1,1)"><rect fill="#C0C0C0" stroke="none" x="167" y="287" width="89.57080078125" height="57" opacity="0.2"/></g><g transform="translate(-134,-270) scale(1,1)"><rect fill="#ffffff" stroke="none" x="160" y="280" width="89.57080078125" height="57"/></g><g transform="translate(-134,-270) scale(1,1)"><path fill="none" stroke="#000000" d="M 160 280 L 249.57080078125 280 L 249.57080078125 337 L 160 337 L 160 280 Z Z" stroke-miterlimit="10"/></g><g transform="translate(-134,-270) scale(1,1)"><path fill="none" stroke="#000000" d="M 160 305 L 249.57080078125 305" stroke-miterlimit="10"/></g><g transform="translate(-134,-270) scale(1,1)"><path fill="none" stroke="#000000" d="M 160 315 L 249.57080078125 315" stroke-miterlimit="10"/></g><g transform="translate(-134,-270) scale(1,1)"><g><path fill="none" stroke="none"/><text fill="#000000" stroke="none" font-family="Arial" font-size="13px" font-style="normal" font-weight="bold" text-decoration="none" x="172.989990234375" y="299.5">transaction</text></g></g><g transform="translate(-134,-270) scale(1,1)"><g><path fill="none" stroke="none"/><text fill="#000000" stroke="none" font-family="Arial" font-size="13px" font-style="normal" font-weight="normal" text-decoration="none" x="165" y="332.5">+getOne()</text></g></g><g transform="translate(-134,-270) scale(1,1)"><rect fill="#C0C0C0" stroke="none" x="151" y="407" width="128" height="265" opacity="0.2"/></g><g transform="translate(-134,-270) scale(1,1)"><rect fill="#ffffff" stroke="none" x="144" y="400" width="128" height="265"/></g><g transform="translate(-134,-270) scale(1,1)"><path fill="none" stroke="#000000" d="M 144 400 L 272 400 L 272 665 L 144 665 L 144 400 Z Z" stroke-miterlimit="10"/></g><g transform="translate(-134,-270) scale(1,1)"><path fill="none" stroke="#000000" d="M 144 425 L 272 425" stroke-miterlimit="10"/></g><g transform="translate(-134,-270) scale(1,1)"><path fill="none" stroke="#000000" d="M 144 583 L 272 583" stroke-miterlimit="10"/></g><g transform="translate(-134,-270) scale(1,1)"><g><path fill="none" stroke="none"/><text fill="#000000" stroke="none" font-family="Arial" font-size="13px" font-style="normal" font-weight="bold" text-decoration="none" x="175.839599609375" y="419.5">Beek detail</text></g></g><g transform="translate(-134,-270) scale(1,1)"><g><path fill="none" stroke="none"/><text fill="#000000" stroke="none" font-family="Arial" font-size="13px" font-style="normal" font-weight="normal" text-decoration="none" x="149" y="442.5">+bdId</text></g></g><g transform="translate(-134,-270) scale(1,1)"><g><path fill="none" stroke="none"/><text fill="#000000" stroke="none" font-family="Arial" font-size="13px" font-style="normal" font-weight="normal" text-decoration="none" x="149" y="457.5">+transaction</text></g></g><g transform="translate(-134,-270) scale(1,1)"><g><path fill="none" stroke="none"/><text fill="#000000" stroke="none" font-family="Arial" font-size="13px" font-style="normal" font-weight="normal" text-decoration="none" x="149" y="472.5">+bookId</text></g></g><g transform="translate(-134,-270) scale(1,1)"><g><path fill="none" stroke="none"/><text fill="#000000" stroke="none" font-family="Arial" font-size="13px" font-style="normal" font-weight="normal" text-decoration="none" x="149" y="487.5">+name</text></g></g><g transform="translate(-134,-270) scale(1,1)"><g><path fill="none" stroke="none"/><text fill="#000000" stroke="none" font-family="Arial" font-size="13px" font-style="normal" font-weight="normal" text-decoration="none" x="149" y="502.5">+description</text></g></g><g transform="translate(-134,-270) scale(1,1)"><g><path fill="none" stroke="none"/><text fill="#000000" stroke="none" font-family="Arial" font-size="13px" font-style="normal" font-weight="normal" text-decoration="none" x="149" y="517.5">+QTY</text></g></g><g transform="translate(-134,-270) scale(1,1)"><g><path fill="none" stroke="none"/><text fill="#000000" stroke="none" font-family="Arial" font-size="13px" font-style="normal" font-weight="normal" text-decoration="none" x="149" y="532.5">+price</text></g></g><g transform="translate(-134,-270) scale(1,1)"><g><path fill="none" stroke="none"/><text fill="#000000" stroke="none" font-family="Arial" font-size="13px" font-style="normal" font-weight="normal" text-decoration="none" x="149" y="547.5">+discount</text></g></g><g transform="translate(-134,-270) scale(1,1)"><g><path fill="none" stroke="none"/><text fill="#000000" stroke="none" font-family="Arial" font-size="13px" font-style="normal" font-weight="normal" text-decoration="none" x="149" y="562.5">+total</text></g></g><g transform="translate(-134,-270) scale(1,1)"><g><path fill="none" stroke="none"/><text fill="#000000" stroke="none" font-family="Arial" font-size="13px" font-style="normal" font-weight="normal" text-decoration="none" x="149" y="577.5">+create date</text></g></g><g transform="translate(-134,-270) scale(1,1)"><g><path fill="none" stroke="none"/><text fill="#000000" stroke="none" font-family="Arial" font-size="13px" font-style="normal" font-weight="normal" text-decoration="none" x="149" y="600.5">+create()</text></g></g><g transform="translate(-134,-270) scale(1,1)"><g><path fill="none" stroke="none"/><text fill="#000000" stroke="none" font-family="Arial" font-size="13px" font-style="normal" font-weight="normal" text-decoration="none" x="149" y="615.5">+edit()</text></g></g><g transform="translate(-134,-270) scale(1,1)"><g><path fill="none" stroke="none"/><text fill="#000000" stroke="none" font-family="Arial" font-size="13px" font-style="normal" font-weight="normal" text-decoration="none" x="149" y="630.5">+getAll()</text></g></g><g transform="translate(-134,-270) scale(1,1)"><g><path fill="none" stroke="none"/><text fill="#000000" stroke="none" font-family="Arial" font-size="13px" font-style="normal" font-weight="normal" text-decoration="none" x="149" y="645.5">+getOne()</text></g></g><g transform="translate(-134,-270) scale(1,1)"><rect fill="#C0C0C0" stroke="none" x="983" y="487" width="89.57080078125" height="57" opacity="0.2"/></g><g transform="translate(-134,-270) scale(1,1)"><rect fill="#ffffff" stroke="none" x="976" y="480" width="89.57080078125" height="57"/></g><g transform="translate(-134,-270) scale(1,1)"><path fill="none" stroke="#000000" d="M 976 480 L 1065.57080078125 480 L 1065.57080078125 537 L 976 537 L 976 480 Z Z" stroke-miterlimit="10"/></g><g transform="translate(-134,-270) scale(1,1)"><path fill="none" stroke="#000000" d="M 976 505 L 1065.57080078125 505" stroke-miterlimit="10"/></g><g transform="translate(-134,-270) scale(1,1)"><path fill="none" stroke="#000000" d="M 976 515 L 1065.57080078125 515" stroke-miterlimit="10"/></g><g transform="translate(-134,-270) scale(1,1)"><g><path fill="none" stroke="none"/><text fill="#000000" stroke="none" font-family="Arial" font-size="13px" font-style="normal" font-weight="bold" text-decoration="none" x="1000.1904296875" y="499.5">Branch</text></g></g><g transform="translate(-134,-270) scale(1,1)"><g><path fill="none" stroke="none"/><text fill="#000000" stroke="none" font-family="Arial" font-size="13px" font-style="normal" font-weight="normal" text-decoration="none" x="981" y="532.5">+getOne()</text></g></g><g transform="translate(-134,-270) scale(1,1)"><rect fill="#C0C0C0" stroke="none" x="695" y="303" width="89.57080078125" height="57" opacity="0.2"/></g><g transform="translate(-134,-270) scale(1,1)"><rect fill="#ffffff" stroke="none" x="688" y="296" width="89.57080078125" height="57"/></g><g transform="translate(-134,-270) scale(1,1)"><path fill="none" stroke="#000000" d="M 688 296 L 777.57080078125 296 L 777.57080078125 353 L 688 353 L 688 296 Z Z" stroke-miterlimit="10"/></g><g transform="translate(-134,-270) scale(1,1)"><path fill="none" stroke="#000000" d="M 688 321 L 777.57080078125 321" stroke-miterlimit="10"/></g><g transform="translate(-134,-270) scale(1,1)"><path fill="none" stroke="#000000" d="M 688 331 L 777.57080078125 331" stroke-miterlimit="10"/></g><g transform="translate(-134,-270) scale(1,1)"><g><path fill="none" stroke="none"/><text fill="#000000" stroke="none" font-family="Arial" font-size="13px" font-style="normal" font-weight="bold" text-decoration="none" x="719.061767578125" y="315.5">User</text></g></g><g transform="translate(-134,-270) scale(1,1)"><g><path fill="none" stroke="none"/><text fill="#000000" stroke="none" font-family="Arial" font-size="13px" font-style="normal" font-weight="normal" text-decoration="none" x="693" y="348.5">+getOne()</text></g></g><g transform="translate(-134,-270) scale(1,1)"><rect fill="#C0C0C0" stroke="none" x="569" y="407" width="120" height="220" opacity="0.2"/></g><g transform="translate(-134,-270) scale(1,1)"><rect fill="#ffffff" stroke="none" x="562" y="400" width="120" height="220"/></g><g transform="translate(-134,-270) scale(1,1)"><path fill="none" stroke="#000000" d="M 562 400 L 682 400 L 682 620 L 562 620 L 562 400 Z Z" stroke-miterlimit="10"/></g><g transform="translate(-134,-270) scale(1,1)"><path fill="none" stroke="#000000" d="M 562 425 L 682 425" stroke-miterlimit="10"/></g><g transform="translate(-134,-270) scale(1,1)"><path fill="none" stroke="#000000" d="M 562 553 L 682 553" stroke-miterlimit="10"/></g><g transform="translate(-134,-270) scale(1,1)"><g><path fill="none" stroke="none"/><text fill="#000000" stroke="none" font-family="Arial" font-size="13px" font-style="normal" font-weight="bold" text-decoration="none" x="597.7900390625" y="419.5">Approve</text></g></g><g transform="translate(-134,-270) scale(1,1)"><g><path fill="none" stroke="none"/><text fill="#000000" stroke="none" font-family="Arial" font-size="13px" font-style="normal" font-weight="normal" text-decoration="none" x="567" y="442.5">+aId</text></g></g><g transform="translate(-134,-270) scale(1,1)"><g><path fill="none" stroke="none"/><text fill="#000000" stroke="none" font-family="Arial" font-size="13px" font-style="normal" font-weight="normal" text-decoration="none" x="567" y="457.5">+lineApprove</text></g></g><g transform="translate(-134,-270) scale(1,1)"><g><path fill="none" stroke="none"/><text fill="#000000" stroke="none" font-family="Arial" font-size="13px" font-style="normal" font-weight="normal" text-decoration="none" x="567" y="472.5">+bookId</text></g></g><g transform="translate(-134,-270) scale(1,1)"><g><path fill="none" stroke="none"/><text fill="#000000" stroke="none" font-family="Arial" font-size="13px" font-style="normal" font-weight="normal" text-decoration="none" x="567" y="487.5">+user</text></g></g><g transform="translate(-134,-270) scale(1,1)"><g><path fill="none" stroke="none"/><text fill="#000000" stroke="none" font-family="Arial" font-size="13px" font-style="normal" font-weight="normal" text-decoration="none" x="567" y="502.5">+level</text></g></g><g transform="translate(-134,-270) scale(1,1)"><g><path fill="none" stroke="none"/><text fill="#000000" stroke="none" font-family="Arial" font-size="13px" font-style="normal" font-weight="normal" text-decoration="none" x="567" y="517.5">+app</text></g></g><g transform="translate(-134,-270) scale(1,1)"><g><path fill="none" stroke="none"/><text fill="#000000" stroke="none" font-family="Arial" font-size="13px" font-style="normal" font-weight="normal" text-decoration="none" x="567" y="532.5">+create date</text></g></g><g transform="translate(-134,-270) scale(1,1)"><g><path fill="none" stroke="none"/><text fill="#000000" stroke="none" font-family="Arial" font-size="13px" font-style="normal" font-weight="normal" text-decoration="none" x="567" y="547.5">+update date</text></g></g><g transform="translate(-134,-270) scale(1,1)"><g><path fill="none" stroke="none"/><text fill="#000000" stroke="none" font-family="Arial" font-size="13px" font-style="normal" font-weight="normal" text-decoration="none" x="567" y="570.5">+create()</text></g></g><g transform="translate(-134,-270) scale(1,1)"><g><path fill="none" stroke="none"/><text fill="#000000" stroke="none" font-family="Arial" font-size="13px" font-style="normal" font-weight="normal" text-decoration="none" x="567" y="585.5">+getOne()</text></g></g><g transform="translate(-134,-270) scale(1,1)"><g><path fill="none" stroke="none"/><text fill="#000000" stroke="none" font-family="Arial" font-size="13px" font-style="normal" font-weight="normal" text-decoration="none" x="567" y="600.5">+approve()</text></g></g><g transform="translate(-134,-270) scale(1,1)"><g><path fill="none" stroke="none"/><text fill="#000000" stroke="none" font-family="Arial" font-size="13px" font-style="normal" font-weight="normal" text-decoration="none" x="567" y="615.5">+reject()</text></g></g><g transform="translate(-134,-270) scale(1,1)"><rect fill="#C0C0C0" stroke="none" x="774" y="407" width="128" height="235" opacity="0.2"/></g><g transform="translate(-134,-270) scale(1,1)"><rect fill="#ffffff" stroke="none" x="767" y="400" width="128" height="235"/></g><g transform="translate(-134,-270) scale(1,1)"><path fill="none" stroke="#000000" d="M 767 400 L 895 400 L 895 635 L 767 635 L 767 400 Z Z" stroke-miterlimit="10"/></g><g transform="translate(-134,-270) scale(1,1)"><path fill="none" stroke="#000000" d="M 767 425 L 895 425" stroke-miterlimit="10"/></g><g transform="translate(-134,-270) scale(1,1)"><path fill="none" stroke="#000000" d="M 767 553 L 895 553" stroke-miterlimit="10"/></g><g transform="translate(-134,-270) scale(1,1)"><g><path fill="none" stroke="none"/><text fill="#000000" stroke="none" font-family="Arial" font-size="13px" font-style="normal" font-weight="bold" text-decoration="none" x="794.865966796875" y="419.5">Line Apprive</text></g></g><g transform="translate(-134,-270) scale(1,1)"><g><path fill="none" stroke="none"/><text fill="#000000" stroke="none" font-family="Arial" font-size="13px" font-style="normal" font-weight="normal" text-decoration="none" x="772" y="442.5">+laid</text></g></g><g transform="translate(-134,-270) scale(1,1)"><g><path fill="none" stroke="none"/><text fill="#000000" stroke="none" font-family="Arial" font-size="13px" font-style="normal" font-weight="normal" text-decoration="none" x="772" y="457.5">+User</text></g></g><g transform="translate(-134,-270) scale(1,1)"><g><path fill="none" stroke="none"/><text fill="#000000" stroke="none" font-family="Arial" font-size="13px" font-style="normal" font-weight="normal" text-decoration="none" x="772" y="472.5">+branch</text></g></g><g transform="translate(-134,-270) scale(1,1)"><g><path fill="none" stroke="none"/><text fill="#000000" stroke="none" font-family="Arial" font-size="13px" font-style="normal" font-weight="normal" text-decoration="none" x="772" y="487.5">+level</text></g></g><g transform="translate(-134,-270) scale(1,1)"><g><path fill="none" stroke="none"/><text fill="#000000" stroke="none" font-family="Arial" font-size="13px" font-style="normal" font-weight="normal" text-decoration="none" x="772" y="502.5">+description</text></g></g><g transform="translate(-134,-270) scale(1,1)"><g><path fill="none" stroke="none"/><text fill="#000000" stroke="none" font-family="Arial" font-size="13px" font-style="normal" font-weight="normal" text-decoration="none" x="772" y="517.5">+isActive</text></g></g><g transform="translate(-134,-270) scale(1,1)"><g><path fill="none" stroke="none"/><text fill="#000000" stroke="none" font-family="Arial" font-size="13px" font-style="normal" font-weight="normal" text-decoration="none" x="772" y="532.5">+create date</text></g></g><g transform="translate(-134,-270) scale(1,1)"><g><path fill="none" stroke="none"/><text fill="#000000" stroke="none" font-family="Arial" font-size="13px" font-style="normal" font-weight="normal" text-decoration="none" x="772" y="547.5">+update date</text></g></g><g transform="translate(-134,-270) scale(1,1)"><g><path fill="none" stroke="none"/><text fill="#000000" stroke="none" font-family="Arial" font-size="13px" font-style="normal" font-weight="normal" text-decoration="none" x="772" y="570.5">+create()</text></g></g><g transform="translate(-134,-270) scale(1,1)"><g><path fill="none" stroke="none"/><text fill="#000000" stroke="none" font-family="Arial" font-size="13px" font-style="normal" font-weight="normal" text-decoration="none" x="772" y="585.5">+disable()</text></g></g><g transform="translate(-134,-270) scale(1,1)"><g><path fill="none" stroke="none"/><text fill="#000000" stroke="none" font-family="Arial" font-size="13px" font-style="normal" font-weight="normal" text-decoration="none" x="772" y="600.5">+getAll()</text></g></g><g transform="translate(-134,-270) scale(1,1)"><g><path fill="none" stroke="none"/><text fill="#000000" stroke="none" font-family="Arial" font-size="13px" font-style="normal" font-weight="normal" text-decoration="none" x="772" y="615.5">+getOne()</text></g></g><g transform="translate(-134,-270) scale(1,1)"><g><path fill="none" stroke="none"/><text fill="#000000" stroke="none" font-family="Arial" font-size="13px" font-style="normal" font-weight="normal" text-decoration="none" x="772" y="630.5">+edit()</text></g></g><g transform="translate(-134,-270) scale(1,1)"><path fill="none" stroke="#000000" d="M 272 527 L 357 527" stroke-miterlimit="10"/></g><g transform="translate(-134,-270) scale(1,1)"><path fill="#000000" stroke="none" d="M 346.83732514237585 531.209517756016 L 357 527 L 346.83732514237585 522.790482243984 L 335 527"/></g><g transform="translate(-134,-270) scale(1,1)"><path fill="none" stroke="#000000" d="M 346.83732514237585 531.209517756016 L 357 527 L 346.83732514237585 522.790482243984 L 335 527 L 346.83732514237585 531.209517756016" stroke-miterlimit="10"/></g><g transform="translate(-134,-270) scale(1,1)"><path fill="none" stroke="#000000" d="M 205 400 L 205 337" stroke-miterlimit="10"/></g><g transform="translate(-134,-270) scale(1,1)"><path fill="#000000" stroke="none" d="M 209.209517756016 347.16267485762415 L 205 337 L 200.790482243984 347.16267485762415 L 205 359"/></g><g transform="translate(-134,-270) scale(1,1)"><path fill="none" stroke="#000000" d="M 209.209517756016 347.16267485762415 L 205 337 L 200.790482243984 347.16267485762415 L 205 359 L 209.209517756016 347.16267485762415" stroke-miterlimit="10"/></g><g transform="translate(-134,-270) scale(1,1)"><path fill="none" stroke="#000000" d="M 562 510 L 477 510" stroke-miterlimit="10"/></g><g transform="translate(-134,-270) scale(1,1)"><path fill="#000000" stroke="none" d="M 487.16267485762415 505.790482243984 L 477 510 L 487.16267485762415 514.209517756016 L 499 510"/></g><g transform="translate(-134,-270) scale(1,1)"><path fill="none" stroke="#000000" d="M 487.16267485762415 505.790482243984 L 477 510 L 487.16267485762415 514.209517756016 L 499 510 L 487.16267485762415 505.790482243984" stroke-miterlimit="10"/></g><g transform="translate(-134,-270) scale(1,1)"><path fill="none" stroke="#000000" d="M 682 505 L 767 505" stroke-miterlimit="10"/></g><g transform="translate(-134,-270) scale(1,1)"><path fill="#000000" stroke="none" d="M 756.8373251423759 509.209517756016 L 767 505 L 756.8373251423758 500.790482243984 L 745 505"/></g><g transform="translate(-134,-270) scale(1,1)"><path fill="none" stroke="#000000" d="M 756.8373251423759 509.209517756016 L 767 505 L 756.8373251423758 500.790482243984 L 745 505 L 756.8373251423759 509.209517756016" stroke-miterlimit="10"/></g><g transform="translate(-134,-270) scale(1,1)"><path fill="none" stroke="#000000" d="M 770 399 L 747 354" stroke-miterlimit="10"/></g><g transform="translate(-134,-270) scale(1,1)"><path fill="#FFFFFF" stroke="none" d="M 763.7468926600446 368.2668001399383 L 747 354 L 748.7536902389372 375.92999248850435"/></g><g transform="translate(-134,-270) scale(1,1)"><path fill="none" stroke="#000000" d="M 763.7468926600446 368.2668001399383 L 747 354 L 748.7536902389372 375.92999248850435 L 763.7468926600446 368.2668001399383" stroke-miterlimit="10"/></g><g transform="translate(-134,-270) scale(1,1)"><path fill="none" stroke="#000000" d="M 896 514 L 975 510" stroke-miterlimit="10"/></g><g transform="translate(-134,-270) scale(1,1)"><path fill="#FFFFFF" stroke="none" d="M 955.1263891630222 519.4360792864597 L 975 510 L 954.2749193592408 502.61955066178007"/></g><g transform="translate(-134,-270) scale(1,1)"><path fill="none" stroke="#000000" d="M 955.1263891630222 519.4360792864597 L 975 510 L 954.2749193592408 502.61955066178007 L 955.1263891630222 519.4360792864597" stroke-miterlimit="10"/></g><g transform="translate(-134,-270) scale(1,1)"><path fill="none" stroke="#000000" d="M 683 407 L 714 354" stroke-miterlimit="10"/></g><g transform="translate(-134,-270) scale(1,1)"><path fill="#FFFFFF" stroke="none" d="M 711.0052771407519 375.79522046220904 L 714 354 L 696.4708629721675 367.29395934473513"/></g><g transform="translate(-134,-270) scale(1,1)"><path fill="none" stroke="#000000" d="M 711.0052771407519 375.79522046220904 L 714 354 L 696.4708629721675 367.29395934473513 L 711.0052771407519 375.79522046220904" stroke-miterlimit="10"/></g></g></svg>