<svg version="1.1" xmlns="http://www.w3.org/2000/svg" xmlns:xlink="http://www.w3.org/1999/xlink" width="595" height="508"><defs/><g><text fill="#eeeeee" stroke="none" font-family="Arial" font-size="24px" font-style="normal" font-weight="normal" text-decoration="none" x="0" y="0">UNREGISTERED</text><text fill="#eeeeee" stroke="none" font-family="Arial" font-size="24px" font-style="normal" font-weight="normal" text-decoration="none" x="0" y="30">UNREGISTERED</text><text fill="#eeeeee" stroke="none" font-family="Arial" font-size="24px" font-style="normal" font-weight="normal" text-decoration="none" x="0" y="60">UNREGISTERED</text><text fill="#eeeeee" stroke="none" font-family="Arial" font-size="24px" font-style="normal" font-weight="normal" text-decoration="none" x="0" y="90">UNREGISTERED</text><text fill="#eeeeee" stroke="none" font-family="Arial" font-size="24px" font-style="normal" font-weight="normal" text-decoration="none" x="0" y="120">UNREGISTERED</text><text fill="#eeeeee" stroke="none" font-family="Arial" font-size="24px" font-style="normal" font-weight="normal" text-decoration="none" x="0" y="150">UNREGISTERED</text><text fill="#eeeeee" stroke="none" font-family="Arial" font-size="24px" font-style="normal" font-weight="normal" text-decoration="none" x="0" y="180">UNREGISTERED</text><text fill="#eeeeee" stroke="none" font-family="Arial" font-size="24px" font-style="normal" font-weight="normal" text-decoration="none" x="0" y="210">UNREGISTERED</text><text fill="#eeeeee" stroke="none" font-family="Arial" font-size="24px" font-style="normal" font-weight="normal" text-decoration="none" x="0" y="240">UNREGISTERED</text><text fill="#eeeeee" stroke="none" font-family="Arial" font-size="24px" font-style="normal" font-weight="normal" text-decoration="none" x="0" y="270">UNREGISTERED</text><text fill="#eeeeee" stroke="none" font-family="Arial" font-size="24px" font-style="normal" font-weight="normal" text-decoration="none" x="0" y="300">UNREGISTERED</text><text fill="#eeeeee" stroke="none" font-family="Arial" font-size="24px" font-style="normal" font-weight="normal" text-decoration="none" x="0" y="330">UNREGISTERED</text><text fill="#eeeeee" stroke="none" font-family="Arial" font-size="24px" font-style="normal" font-weight="normal" text-decoration="none" x="0" y="360">UNREGISTERED</text><text fill="#eeeeee" stroke="none" font-family="Arial" font-size="24px" font-style="normal" font-weight="normal" text-decoration="none" x="0" y="390">UNREGISTERED</text><text fill="#eeeeee" stroke="none" font-family="Arial" font-size="24px" font-style="normal" font-weight="normal" text-decoration="none" x="0" y="420">UNREGISTERED</text><text fill="#eeeeee" stroke="none" font-family="Arial" font-size="24px" font-style="normal" font-weight="normal" text-decoration="none" x="0" y="450">UNREGISTERED</text><text fill="#eeeeee" stroke="none" font-family="Arial" font-size="24px" font-style="normal" font-weight="normal" text-decoration="none" x="0" y="480">UNREGISTERED</text><text fill="#eeeeee" stroke="none" font-family="Arial" font-size="24px" font-style="normal" font-weight="normal" text-decoration="none" x="200" y="0">UNREGISTERED</text><text fill="#eeeeee" stroke="none" font-family="Arial" font-size="24px" font-style="normal" font-weight="normal" text-decoration="none" x="200" y="30">UNREGISTERED</text><text fill="#eeeeee" stroke="none" font-family="Arial" font-size="24px" font-style="normal" font-weight="normal" text-decoration="none" x="200" y="60">UNREGISTERED</text><text fill="#eeeeee" stroke="none" font-family="Arial" font-size="24px" font-style="normal" font-weight="normal" text-decoration="none" x="200" y="90">UNREGISTERED</text><text fill="#eeeeee" stroke="none" font-family="Arial" font-size="24px" font-style="normal" font-weight="normal" text-decoration="none" x="200" y="120">UNREGISTERED</text><text fill="#eeeeee" stroke="none" font-family="Arial" font-size="24px" font-style="normal" font-weight="normal" text-decoration="none" x="200" y="150">UNREGISTERED</text><text fill="#eeeeee" stroke="none" font-family="Arial" font-size="24px" font-style="normal" font-weight="normal" text-decoration="none" x="200" y="180">UNREGISTERED</text><text fill="#eeeeee" stroke="none" font-family="Arial" font-size="24px" font-style="normal" font-weight="normal" text-decoration="none" x="200" y="210">UNREGISTERED</text><text fill="#eeeeee" stroke="none" font-family="Arial" font-size="24px" font-style="normal" font-weight="normal" text-decoration="none" x="200" y="240">UNREGISTERED</text><text fill="#eeeeee" stroke="none" font-family="Arial" font-size="24px" font-style="normal" font-weight="normal" text-decoration="none" x="200" y="270">UNREGISTERED</text><text fill="#eeeeee" stroke="none" font-family="Arial" font-size="24px" font-style="normal" font-weight="normal" text-decoration="none" x="200" y="300">UNREGISTERED</text><text fill="#eeeeee" stroke="none" font-family="Arial" font-size="24px" font-style="normal" font-weight="normal" text-decoration="none" x="200" y="330">UNREGISTERED</text><text fill="#eeeeee" stroke="none" font-family="Arial" font-size="24px" font-style="normal" font-weight="normal" text-decoration="none" x="200" y="360">UNREGISTERED</text><text fill="#eeeeee" stroke="none" font-family="Arial" font-size="24px" font-style="normal" font-weight="normal" text-decoration="none" x="200" y="390">UNREGISTERED</text><text fill="#eeeeee" stroke="none" font-family="Arial" font-size="24px" font-style="normal" font-weight="normal" text-decoration="none" x="200" y="420">UNREGISTERED</text><text fill="#eeeeee" stroke="none" font-family="Arial" font-size="24px" font-style="normal" font-weight="normal" text-decoration="none" x="200" y="450">UNREGISTERED</text><text fill="#eeeeee" stroke="none" font-family="Arial" font-size="24px" font-style="normal" font-weight="normal" text-decoration="none" x="200" y="480">UNREGISTERED</text><text fill="#eeeeee" stroke="none" font-family="Arial" font-size="24px" font-style="normal" font-weight="normal" text-decoration="none" x="400" y="0">UNREGISTERED</text><text fill="#eeeeee" stroke="none" font-family="Arial" font-size="24px" font-style="normal" font-weight="normal" text-decoration="none" x="400" y="30">UNREGISTERED</text><text fill="#eeeeee" stroke="none" font-family="Arial" font-size="24px" font-style="normal" font-weight="normal" text-decoration="none" x="400" y="60">UNREGISTERED</text><text fill="#eeeeee" stroke="none" font-family="Arial" font-size="24px" font-style="normal" font-weight="normal" text-decoration="none" x="400" y="90">UNREGISTERED</text><text fill="#eeeeee" stroke="none" font-family="Arial" font-size="24px" font-style="normal" font-weight="normal" text-decoration="none" x="400" y="120">UNREGISTERED</text><text fill="#eeeeee" stroke="none" font-family="Arial" font-size="24px" font-style="normal" font-weight="normal" text-decoration="none" x="400" y="150">UNREGISTERED</text><text fill="#eeeeee" stroke="none" font-family="Arial" font-size="24px" font-style="normal" font-weight="normal" text-decoration="none" x="400" y="180">UNREGISTERED</text><text fill="#eeeeee" stroke="none" font-family="Arial" font-size="24px" font-style="normal" font-weight="normal" text-decoration="none" x="400" y="210">UNREGISTERED</text><text fill="#eeeeee" stroke="none" font-family="Arial" font-size="24px" font-style="normal" font-weight="normal" text-decoration="none" x="400" y="240">UNREGISTERED</text><text fill="#eeeeee" stroke="none" font-family="Arial" font-size="24px" font-style="normal" font-weight="normal" text-decoration="none" x="400" y="270">UNREGISTERED</text><text fill="#eeeeee" stroke="none" font-family="Arial" font-size="24px" font-style="normal" font-weight="normal" text-decoration="none" x="400" y="300">UNREGISTERED</text><text fill="#eeeeee" stroke="none" font-family="Arial" font-size="24px" font-style="normal" font-weight="normal" text-decoration="none" x="400" y="330">UNREGISTERED</text><text fill="#eeeeee" stroke="none" font-family="Arial" font-size="24px" font-style="normal" font-weight="normal" text-decoration="none" x="400" y="360">UNREGISTERED</text><text fill="#eeeeee" stroke="none" font-family="Arial" font-size="24px" font-style="normal" font-weight="normal" text-decoration="none" x="400" y="390">UNREGISTERED</text><text fill="#eeeeee" stroke="none" font-family="Arial" font-size="24px" font-style="normal" font-weight="normal" text-decoration="none" x="400" y="420">UNREGISTERED</text><text fill="#eeeeee" stroke="none" font-family="Arial" font-size="24px" font-style="normal" font-weight="normal" text-decoration="none" x="400" y="450">UNREGISTERED</text><text fill="#eeeeee" stroke="none" font-family="Arial" font-size="24px" font-style="normal" font-weight="normal" text-decoration="none" x="400" y="480">UNREGISTERED</text><g transform="translate(-62,-6) scale(1,1)"><rect fill="#ffffff" stroke="none" x="72" y="24" width="175" height="21"/></g><g transform="translate(-62,-6) scale(1,1)"><path fill="none" stroke="#000000" d="M 72 24 L 247 24 L 247 45 L 72 45 L 72 24 Z Z" stroke-miterlimit="10" stroke-width="2"/></g><g transform="translate(-62,-6) scale(1,1)"><path fill="none" stroke="#000000" d="M 72 496 L 72 24 L 247 24 L 247 496" stroke-miterlimit="10" stroke-width="2"/></g><g transform="translate(-62,-6) scale(1,1)"><g><path fill="none" stroke="none"/><text fill="#000000" stroke="none" font-family="Arial" font-size="13px" font-style="normal" font-weight="normal" text-decoration="none" x="146.25244140625" y="41">Web</text></g></g><g transform="translate(-62,-6) scale(1,1)"><rect fill="#ffffff" stroke="none" x="248" y="24" width="199" height="21"/></g><g transform="translate(-62,-6) scale(1,1)"><path fill="none" stroke="#000000" d="M 248 24 L 447 24 L 447 45 L 248 45 L 248 24 Z Z" stroke-miterlimit="10" stroke-width="2"/></g><g transform="translate(-62,-6) scale(1,1)"><path fill="none" stroke="#000000" d="M 248 504 L 248 24 L 447 24 L 447 504" stroke-miterlimit="10" stroke-width="2"/></g><g transform="translate(-62,-6) scale(1,1)"><g><path fill="none" stroke="none"/><text fill="#000000" stroke="none" font-family="Arial" font-size="13px" font-style="normal" font-weight="normal" text-decoration="none" x="333.7763671875" y="41">User</text></g></g><g transform="translate(-62,-6) scale(1,1)"><rect fill="#ffffff" stroke="none" x="448" y="16" width="199" height="21"/></g><g transform="translate(-62,-6) scale(1,1)"><path fill="none" stroke="#000000" d="M 448 16 L 647 16 L 647 37 L 448 37 L 448 16 Z Z" stroke-miterlimit="10" stroke-width="2"/></g><g transform="translate(-62,-6) scale(1,1)"><path fill="none" stroke="#000000" d="M 448 496 L 448 16 L 647 16 L 647 496" stroke-miterlimit="10" stroke-width="2"/></g><g transform="translate(-62,-6) scale(1,1)"><g><path fill="none" stroke="none"/><text fill="#000000" stroke="none" font-family="Arial" font-size="13px" font-style="normal" font-weight="normal" text-decoration="none" x="503.7900390625" y="33">Access Control</text></g></g><g transform="translate(-62,-6) scale(1,1)"><path fill="#C0C0C0" stroke="none" d="M 155 72.5 C 155 67.2532944 159.2532944 63 164.5 63 C 169.7467056 63 174 67.2532944 174 72.5 C 174 77.7467056 169.7467056 82 164.5 82 C 159.2532944 82 155 77.7467056 155 72.5 Z" opacity="0.2"/></g><g transform="translate(-62,-6) scale(1,1)"><path fill="#000000" stroke="none" d="M 148 65.5 C 148 60.2532944 152.2532944 56 157.5 56 C 162.7467056 56 167 60.2532944 167 65.5 C 167 70.7467056 162.7467056 75 157.5 75 C 152.2532944 75 148 70.7467056 148 65.5 Z"/></g><g transform="translate(-62,-6) scale(1,1)"><path fill="#C0C0C0" stroke="none" d="M 145 119 L 184 119 Q 194 119 194 129 L 194 149 Q 194 159 184 159 L 145 159 Q 135 159 135 149 L 135 129 Q 135 119 145 119 Z" opacity="0.2"/></g><g transform="translate(-62,-6) scale(1,1)"><path fill="#ffffff" stroke="none" d="M 138 112 L 177 112 Q 187 112 187 122 L 187 142 Q 187 152 177 152 L 138 152 Q 128 152 128 142 L 128 122 Q 128 112 138 112 Z"/></g><g transform="translate(-62,-6) scale(1,1)"><path fill="none" stroke="#000000" d="M 138 112 L 177 112 Q 187 112 187 122 L 187 142 Q 187 152 177 152 L 138 152 Q 128 152 128 142 L 128 122 Q 128 112 138 112 Z" stroke-miterlimit="10"/></g><g transform="translate(-62,-6) scale(1,1)"><g><path fill="none" stroke="none"/><text fill="#000000" stroke="none" font-family="Arial" font-size="13px" font-style="normal" font-weight="bold" text-decoration="none" x="141.595947265625" y="131.5">Login</text></g></g><g transform="translate(-62,-6) scale(1,1)"><path fill="none" stroke="#000000" d="M 157 76 L 157 111" stroke-miterlimit="10"/></g><g transform="translate(-62,-6) scale(1,1)"><path fill="none" stroke="#000000" d="M 152.790482243984 100.83732514237585 L 157 111 L 161.209517756016 100.83732514237585" stroke-miterlimit="10"/></g><g transform="translate(-62,-6) scale(1,1)"><path fill="#C0C0C0" stroke="none" d="M 145 198 L 184 198 Q 194 198 194 208 L 194 228 Q 194 238 184 238 L 145 238 Q 135 238 135 228 L 135 208 Q 135 198 145 198 Z" opacity="0.2"/></g><g transform="translate(-62,-6) scale(1,1)"><path fill="#ffffff" stroke="none" d="M 138 191 L 177 191 Q 187 191 187 201 L 187 221 Q 187 231 177 231 L 138 231 Q 128 231 128 221 L 128 201 Q 128 191 138 191 Z"/></g><g transform="translate(-62,-6) scale(1,1)"><path fill="none" stroke="#000000" d="M 138 191 L 177 191 Q 187 191 187 201 L 187 221 Q 187 231 177 231 L 138 231 Q 128 231 128 221 L 128 201 Q 128 191 138 191 Z" stroke-miterlimit="10"/></g><g transform="translate(-62,-6) scale(1,1)"><g><path fill="none" stroke="none"/><text fill="#000000" stroke="none" font-family="Arial" font-size="13px" font-style="normal" font-weight="bold" text-decoration="none" x="138.714111328125" y="210.5">Object</text></g></g><g transform="translate(-62,-6) scale(1,1)"><path fill="none" stroke="#000000" d="M 157 153 L 157 190" stroke-miterlimit="10"/></g><g transform="translate(-62,-6) scale(1,1)"><path fill="none" stroke="#000000" d="M 152.790482243984 179.83732514237585 L 157 190 L 161.209517756016 179.83732514237585" stroke-miterlimit="10"/></g><g transform="translate(-62,-6) scale(1,1)"><path fill="none" stroke="#000000" d="M 188 211 L 311 211" stroke-miterlimit="10"/></g><g transform="translate(-62,-6) scale(1,1)"><path fill="none" stroke="#000000" d="M 300.83732514237585 215.209517756016 L 311 211 L 300.83732514237585 206.790482243984" stroke-miterlimit="10"/></g><g transform="translate(-62,-6) scale(1,1)"><path fill="#C0C0C0" stroke="none" d="M 329 198 L 368 198 Q 378 198 378 208 L 378 228 Q 378 238 368 238 L 329 238 Q 319 238 319 228 L 319 208 Q 319 198 329 198 Z" opacity="0.2"/></g><g transform="translate(-62,-6) scale(1,1)"><path fill="#ffffff" stroke="none" d="M 322 191 L 361 191 Q 371 191 371 201 L 371 221 Q 371 231 361 231 L 322 231 Q 312 231 312 221 L 312 201 Q 312 191 322 191 Z"/></g><g transform="translate(-62,-6) scale(1,1)"><path fill="none" stroke="#000000" d="M 322 191 L 361 191 Q 371 191 371 201 L 371 221 Q 371 231 361 231 L 322 231 Q 312 231 312 221 L 312 201 Q 312 191 322 191 Z" stroke-miterlimit="10"/></g><g transform="translate(-62,-6) scale(1,1)"><g><path fill="none" stroke="none"/><text fill="#000000" stroke="none" font-family="Arial" font-size="13px" font-style="normal" font-weight="bold" text-decoration="none" x="327.7763671875" y="210.5">User</text></g></g><g transform="translate(-62,-6) scale(1,1)"><path fill="none" stroke="#000000" d="M 341 232 L 341 273" stroke-miterlimit="10"/></g><g transform="translate(-62,-6) scale(1,1)"><path fill="none" stroke="#000000" d="M 336.790482243984 262.83732514237585 L 341 273 L 345.209517756016 262.83732514237585" stroke-miterlimit="10"/></g><g transform="translate(-62,-6) scale(1,1)"><path fill="none" stroke="#000000" d="M 341 293 L 341 333" stroke-miterlimit="10"/></g><g transform="translate(-62,-6) scale(1,1)"><path fill="none" stroke="#000000" d="M 336.790482243984 322.83732514237585 L 341 333 L 345.209517756016 322.83732514237585" stroke-miterlimit="10"/></g><g transform="translate(-62,-6) scale(1,1)"><path fill="none" stroke="#000000" d="M 353 283 L 486 277" stroke-miterlimit="10"/></g><g transform="translate(-62,-6) scale(1,1)"><path fill="none" stroke="#000000" d="M 476.03736084403533 281.66324147434375 L 486 277 L 475.65794062548395 273.25275996312155" stroke-miterlimit="10"/></g><g transform="translate(-62,-6) scale(1,1)"><path fill="#C0C0C0" stroke="none" d="M 337 290.5 L 348.5 281 L 359 290.5 L 348.5 299 L 337 290.5" opacity="0.2"/></g><g transform="translate(-62,-6) scale(1,1)"><path fill="#ffffff" stroke="none" d="M 330 283 L 341 274 L 352 283 L 341 292 L 330 283"/></g><g transform="translate(-62,-6) scale(1,1)"><path fill="none" stroke="#000000" d="M 330 283 L 341 274 L 352 283 L 341 292 L 330 283 L 330 283" stroke-miterlimit="10"/></g><g transform="translate(-62,-6) scale(1,1)"><path fill="#C0C0C0" stroke="none" d="M 504 262 L 604.26171875 262 Q 614.26171875 262 614.26171875 272 L 614.26171875 292 Q 614.26171875 302 604.26171875 302 L 504 302 Q 494 302 494 292 L 494 272 Q 494 262 504 262 Z" opacity="0.2"/></g><g transform="translate(-62,-6) scale(1,1)"><path fill="#ffffff" stroke="none" d="M 497 255 L 597.26171875 255 Q 607.26171875 255 607.26171875 265 L 607.26171875 285 Q 607.26171875 295 597.26171875 295 L 497 295 Q 487 295 487 285 L 487 265 Q 487 255 497 255 Z"/></g><g transform="translate(-62,-6) scale(1,1)"><path fill="none" stroke="#000000" d="M 497 255 L 597.26171875 255 Q 607.26171875 255 607.26171875 265 L 607.26171875 285 Q 607.26171875 295 597.26171875 295 L 497 295 Q 487 295 487 285 L 487 265 Q 487 255 497 255 Z" stroke-miterlimit="10"/></g><g transform="translate(-62,-6) scale(1,1)"><g><path fill="none" stroke="none"/><text fill="#000000" stroke="none" font-family="Arial" font-size="13px" font-style="normal" font-weight="bold" text-decoration="none" x="503.4208984375" y="274.5">Access Control</text></g></g><g transform="translate(-62,-6) scale(1,1)"><path fill="#C0C0C0" stroke="none" d="M 295 341 L 401.736328125 341 Q 411.736328125 341 411.736328125 351 L 411.736328125 371 Q 411.736328125 381 401.736328125 381 L 295 381 Q 285 381 285 371 L 285 351 Q 285 341 295 341 Z" opacity="0.2"/></g><g transform="translate(-62,-6) scale(1,1)"><path fill="#ffffff" stroke="none" d="M 288 334 L 394.736328125 334 Q 404.736328125 334 404.736328125 344 L 404.736328125 364 Q 404.736328125 374 394.736328125 374 L 288 374 Q 278 374 278 364 L 278 344 Q 278 334 288 334 Z"/></g><g transform="translate(-62,-6) scale(1,1)"><path fill="none" stroke="#000000" d="M 288 334 L 394.736328125 334 Q 404.736328125 334 404.736328125 344 L 404.736328125 364 Q 404.736328125 374 394.736328125 374 L 288 374 Q 278 374 278 364 L 278 344 Q 278 334 288 334 Z" stroke-miterlimit="10"/></g><g transform="translate(-62,-6) scale(1,1)"><g><path fill="none" stroke="none"/><text fill="#000000" stroke="none" font-family="Arial" font-size="13px" font-style="normal" font-weight="bold" text-decoration="none" x="286.080078125" y="353.5">Not found user 404</text></g></g><g transform="translate(-62,-6) scale(1,1)"><path fill="none" stroke="#000000" d="M 278 352 L 104 352 M 104 352 A 8 8 0 0 1 96 344 L 96 138 M 96 138 A 8 8 0 0 1 104 130 L 128 130" stroke-miterlimit="10"/></g><g transform="translate(-62,-6) scale(1,1)"><path fill="none" stroke="#000000" d="M 117.83732514237585 134.209517756016 L 128 130 L 117.83732514237585 125.79048224398402" stroke-miterlimit="10"/></g><g transform="translate(-62,-6) scale(1,1)"><path fill="#C0C0C0" stroke="none" d="M 515 366 L 594.99365234375 366 Q 604.99365234375 366 604.99365234375 376 L 604.99365234375 396 Q 604.99365234375 406 594.99365234375 406 L 515 406 Q 505 406 505 396 L 505 376 Q 505 366 515 366 Z" opacity="0.2"/></g><g transform="translate(-62,-6) scale(1,1)"><path fill="#ffffff" stroke="none" d="M 508 359 L 587.99365234375 359 Q 597.99365234375 359 597.99365234375 369 L 597.99365234375 389 Q 597.99365234375 399 587.99365234375 399 L 508 399 Q 498 399 498 389 L 498 369 Q 498 359 508 359 Z"/></g><g transform="translate(-62,-6) scale(1,1)"><path fill="none" stroke="#000000" d="M 508 359 L 587.99365234375 359 Q 597.99365234375 359 597.99365234375 369 L 597.99365234375 389 Q 597.99365234375 399 587.99365234375 399 L 508 399 Q 498 399 498 389 L 498 369 Q 498 359 508 359 Z" stroke-miterlimit="10"/></g><g transform="translate(-62,-6) scale(1,1)"><g><path fill="none" stroke="none"/><text fill="#000000" stroke="none" font-family="Arial" font-size="13px" font-style="normal" font-weight="bold" text-decoration="none" x="506.800537109375" y="378.5">Authentication</text></g></g><g transform="translate(-62,-6) scale(1,1)"><path fill="none" stroke="#000000" d="M 547 296 L 547 358" stroke-miterlimit="10"/></g><g transform="translate(-62,-6) scale(1,1)"><path fill="none" stroke="#000000" d="M 542.790482243984 347.83732514237585 L 547 358 L 551.209517756016 347.83732514237585" stroke-miterlimit="10"/></g><g transform="translate(-62,-6) scale(1,1)"><path fill="none" stroke="#000000" d="M 497 393 L 375 426" stroke-miterlimit="10"/></g><g transform="translate(-62,-6) scale(1,1)"><path fill="none" stroke="#000000" d="M 383.710986620918 419.28295361857704 L 375 426 L 385.90926675632517 427.40992866462767" stroke-miterlimit="10"/></g><g transform="translate(-62,-6) scale(1,1)"><path fill="#C0C0C0" stroke="none" d="M 326 423 L 371.341796875 423 Q 381.341796875 423 381.341796875 433 L 381.341796875 453 Q 381.341796875 463 371.341796875 463 L 326 463 Q 316 463 316 453 L 316 433 Q 316 423 326 423 Z" opacity="0.2"/></g><g transform="translate(-62,-6) scale(1,1)"><path fill="#ffffff" stroke="none" d="M 319 416 L 364.341796875 416 Q 374.341796875 416 374.341796875 426 L 374.341796875 446 Q 374.341796875 456 364.341796875 456 L 319 456 Q 309 456 309 446 L 309 426 Q 309 416 319 416 Z"/></g><g transform="translate(-62,-6) scale(1,1)"><path fill="none" stroke="#000000" d="M 319 416 L 364.341796875 416 Q 374.341796875 416 374.341796875 426 L 374.341796875 446 Q 374.341796875 456 364.341796875 456 L 319 456 Q 309 456 309 446 L 309 426 Q 309 416 319 416 Z" stroke-miterlimit="10"/></g><g transform="translate(-62,-6) scale(1,1)"><g><path fill="none" stroke="none"/><text fill="#000000" stroke="none" font-family="Arial" font-size="13px" font-style="normal" font-weight="bold" text-decoration="none" x="315.29638671875" y="435.5">Log User</text></g></g></g></svg>