<svg version="1.1" xmlns="http://www.w3.org/2000/svg" xmlns:xlink="http://www.w3.org/1999/xlink" width="636" height="420"><defs/><g><text fill="#eeeeee" stroke="none" font-family="Arial" font-size="24px" font-style="normal" font-weight="normal" text-decoration="none" x="0" y="0">UNREGISTERED</text><text fill="#eeeeee" stroke="none" font-family="Arial" font-size="24px" font-style="normal" font-weight="normal" text-decoration="none" x="0" y="30">UNREGISTERED</text><text fill="#eeeeee" stroke="none" font-family="Arial" font-size="24px" font-style="normal" font-weight="normal" text-decoration="none" x="0" y="60">UNREGISTERED</text><text fill="#eeeeee" stroke="none" font-family="Arial" font-size="24px" font-style="normal" font-weight="normal" text-decoration="none" x="0" y="90">UNREGISTERED</text><text fill="#eeeeee" stroke="none" font-family="Arial" font-size="24px" font-style="normal" font-weight="normal" text-decoration="none" x="0" y="120">UNREGISTERED</text><text fill="#eeeeee" stroke="none" font-family="Arial" font-size="24px" font-style="normal" font-weight="normal" text-decoration="none" x="0" y="150">UNREGISTERED</text><text fill="#eeeeee" stroke="none" font-family="Arial" font-size="24px" font-style="normal" font-weight="normal" text-decoration="none" x="0" y="180">UNREGISTERED</text><text fill="#eeeeee" stroke="none" font-family="Arial" font-size="24px" font-style="normal" font-weight="normal" text-decoration="none" x="0" y="210">UNREGISTERED</text><text fill="#eeeeee" stroke="none" font-family="Arial" font-size="24px" font-style="normal" font-weight="normal" text-decoration="none" x="0" y="240">UNREGISTERED</text><text fill="#eeeeee" stroke="none" font-family="Arial" font-size="24px" font-style="normal" font-weight="normal" text-decoration="none" x="0" y="270">UNREGISTERED</text><text fill="#eeeeee" stroke="none" font-family="Arial" font-size="24px" font-style="normal" font-weight="normal" text-decoration="none" x="0" y="300">UNREGISTERED</text><text fill="#eeeeee" stroke="none" font-family="Arial" font-size="24px" font-style="normal" font-weight="normal" text-decoration="none" x="0" y="330">UNREGISTERED</text><text fill="#eeeeee" stroke="none" font-family="Arial" font-size="24px" font-style="normal" font-weight="normal" text-decoration="none" x="0" y="360">UNREGISTERED</text><text fill="#eeeeee" stroke="none" font-family="Arial" font-size="24px" font-style="normal" font-weight="normal" text-decoration="none" x="0" y="390">UNREGISTERED</text><text fill="#eeeeee" stroke="none" font-family="Arial" font-size="24px" font-style="normal" font-weight="normal" text-decoration="none" x="200" y="0">UNREGISTERED</text><text fill="#eeeeee" stroke="none" font-family="Arial" font-size="24px" font-style="normal" font-weight="normal" text-decoration="none" x="200" y="30">UNREGISTERED</text><text fill="#eeeeee" stroke="none" font-family="Arial" font-size="24px" font-style="normal" font-weight="normal" text-decoration="none" x="200" y="60">UNREGISTERED</text><text fill="#eeeeee" stroke="none" font-family="Arial" font-size="24px" font-style="normal" font-weight="normal" text-decoration="none" x="200" y="90">UNREGISTERED</text><text fill="#eeeeee" stroke="none" font-family="Arial" font-size="24px" font-style="normal" font-weight="normal" text-decoration="none" x="200" y="120">UNREGISTERED</text><text fill="#eeeeee" stroke="none" font-family="Arial" font-size="24px" font-style="normal" font-weight="normal" text-decoration="none" x="200" y="150">UNREGISTERED</text><text fill="#eeeeee" stroke="none" font-family="Arial" font-size="24px" font-style="normal" font-weight="normal" text-decoration="none" x="200" y="180">UNREGISTERED</text><text fill="#eeeeee" stroke="none" font-family="Arial" font-size="24px" font-style="normal" font-weight="normal" text-decoration="none" x="200" y="210">UNREGISTERED</text><text fill="#eeeeee" stroke="none" font-family="Arial" font-size="24px" font-style="normal" font-weight="normal" text-decoration="none" x="200" y="240">UNREGISTERED</text><text fill="#eeeeee" stroke="none" font-family="Arial" font-size="24px" font-style="normal" font-weight="normal" text-decoration="none" x="200" y="270">UNREGISTERED</text><text fill="#eeeeee" stroke="none" font-family="Arial" font-size="24px" font-style="normal" font-weight="normal" text-decoration="none" x="200" y="300">UNREGISTERED</text><text fill="#eeeeee" stroke="none" font-family="Arial" font-size="24px" font-style="normal" font-weight="normal" text-decoration="none" x="200" y="330">UNREGISTERED</text><text fill="#eeeeee" stroke="none" font-family="Arial" font-size="24px" font-style="normal" font-weight="normal" text-decoration="none" x="200" y="360">UNREGISTERED</text><text fill="#eeeeee" stroke="none" font-family="Arial" font-size="24px" font-style="normal" font-weight="normal" text-decoration="none" x="200" y="390">UNREGISTERED</text><text fill="#eeeeee" stroke="none" font-family="Arial" font-size="24px" font-style="normal" font-weight="normal" text-decoration="none" x="400" y="0">UNREGISTERED</text><text fill="#eeeeee" stroke="none" font-family="Arial" font-size="24px" font-style="normal" font-weight="normal" text-decoration="none" x="400" y="30">UNREGISTERED</text><text fill="#eeeeee" stroke="none" font-family="Arial" font-size="24px" font-style="normal" font-weight="normal" text-decoration="none" x="400" y="60">UNREGISTERED</text><text fill="#eeeeee" stroke="none" font-family="Arial" font-size="24px" font-style="normal" font-weight="normal" text-decoration="none" x="400" y="90">UNREGISTERED</text><text fill="#eeeeee" stroke="none" font-family="Arial" font-size="24px" font-style="normal" font-weight="normal" text-decoration="none" x="400" y="120">UNREGISTERED</text><text fill="#eeeeee" stroke="none" font-family="Arial" font-size="24px" font-style="normal" font-weight="normal" text-decoration="none" x="400" y="150">UNREGISTERED</text><text fill="#eeeeee" stroke="none" font-family="Arial" font-size="24px" font-style="normal" font-weight="normal" text-decoration="none" x="400" y="180">UNREGISTERED</text><text fill="#eeeeee" stroke="none" font-family="Arial" font-size="24px" font-style="normal" font-weight="normal" text-decoration="none" x="400" y="210">UNREGISTERED</text><text fill="#eeeeee" stroke="none" font-family="Arial" font-size="24px" font-style="normal" font-weight="normal" text-decoration="none" x="400" y="240">UNREGISTERED</text><text fill="#eeeeee" stroke="none" font-family="Arial" font-size="24px" font-style="normal" font-weight="normal" text-decoration="none" x="400" y="270">UNREGISTERED</text><text fill="#eeeeee" stroke="none" font-family="Arial" font-size="24px" font-style="normal" font-weight="normal" text-decoration="none" x="400" y="300">UNREGISTERED</text><text fill="#eeeeee" stroke="none" font-family="Arial" font-size="24px" font-style="normal" font-weight="normal" text-decoration="none" x="400" y="330">UNREGISTERED</text><text fill="#eeeeee" stroke="none" font-family="Arial" font-size="24px" font-style="normal" font-weight="normal" text-decoration="none" x="400" y="360">UNREGISTERED</text><text fill="#eeeeee" stroke="none" font-family="Arial" font-size="24px" font-style="normal" font-weight="normal" text-decoration="none" x="400" y="390">UNREGISTERED</text><text fill="#eeeeee" stroke="none" font-family="Arial" font-size="24px" font-style="normal" font-weight="normal" text-decoration="none" x="600" y="0">UNREGISTERED</text><text fill="#eeeeee" stroke="none" font-family="Arial" font-size="24px" font-style="normal" font-weight="normal" text-decoration="none" x="600" y="30">UNREGISTERED</text><text fill="#eeeeee" stroke="none" font-family="Arial" font-size="24px" font-style="normal" font-weight="normal" text-decoration="none" x="600" y="60">UNREGISTERED</text><text fill="#eeeeee" stroke="none" font-family="Arial" font-size="24px" font-style="normal" font-weight="normal" text-decoration="none" x="600" y="90">UNREGISTERED</text><text fill="#eeeeee" stroke="none" font-family="Arial" font-size="24px" font-style="normal" font-weight="normal" text-decoration="none" x="600" y="120">UNREGISTERED</text><text fill="#eeeeee" stroke="none" font-family="Arial" font-size="24px" font-style="normal" font-weight="normal" text-decoration="none" x="600" y="150">UNREGISTERED</text><text fill="#eeeeee" stroke="none" font-family="Arial" font-size="24px" font-style="normal" font-weight="normal" text-decoration="none" x="600" y="180">UNREGISTERED</text><text fill="#eeeeee" stroke="none" font-family="Arial" font-size="24px" font-style="normal" font-weight="normal" text-decoration="none" x="600" y="210">UNREGISTERED</text><text fill="#eeeeee" stroke="none" font-family="Arial" font-size="24px" font-style="normal" font-weight="normal" text-decoration="none" x="600" y="240">UNREGISTERED</text><text fill="#eeeeee" stroke="none" font-family="Arial" font-size="24px" font-style="normal" font-weight="normal" text-decoration="none" x="600" y="270">UNREGISTERED</text><text fill="#eeeeee" stroke="none" font-family="Arial" font-size="24px" font-style="normal" font-weight="normal" text-decoration="none" x="600" y="300">UNREGISTERED</text><text fill="#eeeeee" stroke="none" font-family="Arial" font-size="24px" font-style="normal" font-weight="normal" text-decoration="none" x="600" y="330">UNREGISTERED</text><text fill="#eeeeee" stroke="none" font-family="Arial" font-size="24px" font-style="normal" font-weight="normal" text-decoration="none" x="600" y="360">UNREGISTERED</text><text fill="#eeeeee" stroke="none" font-family="Arial" font-size="24px" font-style="normal" font-weight="normal" text-decoration="none" x="600" y="390">UNREGISTERED</text><g transform="translate(-238,-150) scale(1,1)"><path fill="none" stroke="#000000" d="M 400 160 L 864 160 L 864 560 L 400 560 L 400 160" stroke-miterlimit="10"/></g><g transform="translate(-238,-150) scale(1,1)"><path fill="#ffffff" stroke="none" d="M 400 160 L 400 182 L 493.3271484375 182 L 504.3271484375 171 L 504.3271484375 160 L 400 160"/></g><g transform="translate(-238,-150) scale(1,1)"><path fill="none" stroke="#000000" d="M 400 160 L 400 182 L 493.3271484375 182 L 504.3271484375 171 L 504.3271484375 160 L 400 160 L 400 160" stroke-miterlimit="10"/></g><g transform="translate(-238,-150) scale(1,1)"><g><path fill="none" stroke="none"/><text fill="#000000" stroke="none" font-family="Arial" font-size="13px" font-style="normal" font-weight="normal" text-decoration="none" x="431.9599609375" y="177.5">insurance</text></g></g><g transform="translate(-238,-150) scale(1,1)"><g><path fill="none" stroke="none"/><text fill="#000000" stroke="none" font-family="Arial" font-size="13px" font-style="normal" font-weight="bold" text-decoration="none" x="405" y="177.5">pkg</text></g></g><g transform="translate(-238,-150) scale(1,1)"><path fill="#ffffff" stroke="none" d="M 273.80705539772725 345.68 C 273.80705539772725 340.886167936 277.69289772267274 337 282.486328125 337 C 287.27975852732726 337 291.16560085227275 340.886167936 291.16560085227275 345.68 C 291.16560085227275 350.473832064 287.27975852732726 354.36 282.486328125 354.36 C 277.69289772267274 354.36 273.80705539772725 350.473832064 273.80705539772725 345.68 Z"/></g><g transform="translate(-238,-150) scale(1,1)"><path fill="none" stroke="#000000" d="M 273.80705539772725 345.68 C 273.80705539772725 340.886167936 277.69289772267274 337 282.486328125 337 C 287.27975852732726 337 291.16560085227275 340.886167936 291.16560085227275 345.68 C 291.16560085227275 350.473832064 287.27975852732726 354.36 282.486328125 354.36 C 277.69289772267274 354.36 273.80705539772725 350.473832064 273.80705539772725 345.68 Z" stroke-miterlimit="10"/></g><g transform="translate(-238,-150) scale(1,1)"><path fill="none" stroke="#000000" d="M 282.486328125 354.36 L 282.486328125 371.64" stroke-miterlimit="10"/></g><g transform="translate(-238,-150) scale(1,1)"><path fill="none" stroke="#000000" d="M 273.29650994318183 360.84 L 291.67614630681817 360.84" stroke-miterlimit="10"/></g><g transform="translate(-238,-150) scale(1,1)"><path fill="none" stroke="#000000" d="M 282.486328125 371.64 L 269.72269176136365 389" stroke-miterlimit="10"/></g><g transform="translate(-238,-150) scale(1,1)"><path fill="none" stroke="#000000" d="M 282.486328125 371.64 L 295.24996448863635 389" stroke-miterlimit="10"/></g><g transform="translate(-238,-150) scale(1,1)"><g><path fill="none" stroke="none"/><text fill="#000000" stroke="none" font-family="Arial" font-size="13px" font-style="normal" font-weight="bold" text-decoration="none" x="254.302734375" y="409.5">employee</text></g></g><g transform="translate(-238,-150) scale(1,1)"><path fill="#C0C0C0" stroke="none" d="M 543 376 C 543 366.6111584 565.6096176 359 593.5 359 C 621.3903824 359 644 366.6111584 644 376 C 644 385.3888416 621.3903824 393 593.5 393 C 565.6096176 393 543 385.3888416 543 376 Z" opacity="0.2"/></g><g transform="translate(-238,-150) scale(1,1)"><path fill="#ffffff" stroke="none" d="M 536 369 C 536 359.6111584 558.6096176 352 586.5 352 C 614.3903824 352 637 359.6111584 637 369 C 637 378.3888416 614.3903824 386 586.5 386 C 558.6096176 386 536 378.3888416 536 369 Z"/></g><g transform="translate(-238,-150) scale(1,1)"><path fill="none" stroke="#000000" d="M 536 369 C 536 359.6111584 558.6096176 352 586.5 352 C 614.3903824 352 637 359.6111584 637 369 C 637 378.3888416 614.3903824 386 586.5 386 C 558.6096176 386 536 378.3888416 536 369 Z" stroke-miterlimit="10"/></g><g transform="translate(-238,-150) scale(1,1)"><g><path fill="none" stroke="none"/><text fill="#000000" stroke="none" font-family="Arial" font-size="13px" font-style="normal" font-weight="bold" text-decoration="none" x="557.95458984375" y="376">Insurance</text></g></g><g transform="translate(-238,-150) scale(1,1)"><path fill="none" stroke="#000000" d="M 318 374 L 535 370" stroke-miterlimit="10"/></g><g transform="translate(-238,-150) scale(1,1)"><path fill="#C0C0C0" stroke="none" d="M 447 456 C 447 446.6111584 478.7877792 439 518 439 C 557.2122208 439 589 446.6111584 589 456 C 589 465.3888416 557.2122208 473 518 473 C 478.7877792 473 447 465.3888416 447 456 Z" opacity="0.2"/></g><g transform="translate(-238,-150) scale(1,1)"><path fill="#ffffff" stroke="none" d="M 440 449 C 440 439.6111584 471.7877792 432 511 432 C 550.2122208 432 582 439.6111584 582 449 C 582 458.3888416 550.2122208 466 511 466 C 471.7877792 466 440 458.3888416 440 449 Z"/></g><g transform="translate(-238,-150) scale(1,1)"><path fill="none" stroke="#000000" d="M 440 449 C 440 439.6111584 471.7877792 432 511 432 C 550.2122208 432 582 439.6111584 582 449 C 582 458.3888416 550.2122208 466 511 466 C 471.7877792 466 440 458.3888416 440 449 Z" stroke-miterlimit="10"/></g><g transform="translate(-238,-150) scale(1,1)"><g><path fill="none" stroke="none"/><text fill="#000000" stroke="none" font-family="Arial" font-size="13px" font-style="normal" font-weight="bold" text-decoration="none" x="468.724609375" y="456">type insurance</text></g></g><g transform="translate(-238,-150) scale(1,1)"><path fill="none" stroke="#000000" d="M 569 387 L 528 431" stroke-miterlimit="10" stroke-dasharray="3"/></g><g transform="translate(-238,-150) scale(1,1)"><path fill="none" stroke="#000000" d="M 531.8484389084039 420.6951701630603 L 528 431 L 538.007872305788 426.434642192441" stroke-miterlimit="10"/></g><g transform="translate(-238,-150) scale(1,1)"><g><path fill="none" stroke="none"/><text fill="#000000" stroke="none" font-family="Arial" font-size="13px" font-style="normal" font-weight="normal" text-decoration="none" x="542.5" y="435.5">«include»</text></g></g><g transform="translate(-238,-150) scale(1,1)"><path fill="#C0C0C0" stroke="none" d="M 447 264 C 447 254.6111584 482.5933584 247 526.5 247 C 570.4066416000001 247 606 254.6111584 606 264 C 606 273.3888416 570.4066416000001 281 526.5 281 C 482.5933584 281 447 273.3888416 447 264 Z" opacity="0.2"/></g><g transform="translate(-238,-150) scale(1,1)"><path fill="#ffffff" stroke="none" d="M 440 257 C 440 247.6111584 475.5933584 240 519.5 240 C 563.4066416000001 240 599 247.6111584 599 257 C 599 266.3888416 563.4066416000001 274 519.5 274 C 475.5933584 274 440 266.3888416 440 257 Z"/></g><g transform="translate(-238,-150) scale(1,1)"><path fill="none" stroke="#000000" d="M 440 257 C 440 247.6111584 475.5933584 240 519.5 240 C 563.4066416000001 240 599 247.6111584 599 257 C 599 266.3888416 563.4066416000001 274 519.5 274 C 475.5933584 274 440 266.3888416 440 257 Z" stroke-miterlimit="10"/></g><g transform="translate(-238,-150) scale(1,1)"><g><path fill="none" stroke="none"/><text fill="#000000" stroke="none" font-family="Arial" font-size="13px" font-style="normal" font-weight="bold" text-decoration="none" x="471.806884765625" y="264">expire insurance</text></g></g><g transform="translate(-238,-150) scale(1,1)"><path fill="none" stroke="#000000" d="M 530 275 L 575 351" stroke-miterlimit="10" stroke-dasharray="3"/></g><g transform="translate(-238,-150) scale(1,1)"><path fill="none" stroke="#000000" d="M 566.200011964903 344.3999840468262 L 575 351 L 573.444384822451 340.1105527495938" stroke-miterlimit="10"/></g><g transform="translate(-238,-150) scale(1,1)"><g><path fill="none" stroke="none"/><text fill="#000000" stroke="none" font-family="Arial" font-size="13px" font-style="normal" font-weight="normal" text-decoration="none" x="550.5" y="303.5">«extend»</text></g></g><g transform="translate(-238,-150) scale(1,1)"><path fill="#C0C0C0" stroke="none" d="M 727 352 C 727 342.6111584 749.6096176 335 777.5 335 C 805.3903824 335 828 342.6111584 828 352 C 828 361.3888416 805.3903824 369 777.5 369 C 749.6096176 369 727 361.3888416 727 352 Z" opacity="0.2"/></g><g transform="translate(-238,-150) scale(1,1)"><path fill="#ffffff" stroke="none" d="M 720 345 C 720 335.6111584 742.6096176 328 770.5 328 C 798.3903824 328 821 335.6111584 821 345 C 821 354.3888416 798.3903824 362 770.5 362 C 742.6096176 362 720 354.3888416 720 345 Z"/></g><g transform="translate(-238,-150) scale(1,1)"><path fill="none" stroke="#000000" d="M 720 345 C 720 335.6111584 742.6096176 328 770.5 328 C 798.3903824 328 821 335.6111584 821 345 C 821 354.3888416 798.3903824 362 770.5 362 C 742.6096176 362 720 354.3888416 720 345 Z" stroke-miterlimit="10"/></g><g transform="translate(-238,-150) scale(1,1)"><g><path fill="none" stroke="none"/><text fill="#000000" stroke="none" font-family="Arial" font-size="13px" font-style="normal" font-weight="bold" text-decoration="none" x="750.266845703125" y="352">vehicle</text></g></g><g transform="translate(-238,-150) scale(1,1)"><path fill="none" stroke="#000000" d="M 638 362 L 719 352" stroke-miterlimit="10" stroke-dasharray="3"/></g><g transform="translate(-238,-150) scale(1,1)"><path fill="none" stroke="#000000" d="M 709.4296763077033 357.42299773415635 L 719 352 L 708.3981207468455 349.067397691208" stroke-miterlimit="10"/></g><g transform="translate(-238,-150) scale(1,1)"><g><path fill="none" stroke="none"/><text fill="#000000" stroke="none" font-family="Arial" font-size="13px" font-style="normal" font-weight="normal" text-decoration="none" x="642.5" y="356.5">«include»</text></g></g><g transform="translate(-238,-150) scale(1,1)"><path fill="#C0C0C0" stroke="none" d="M 719 440 C 719 430.6111584 741.6096176 423 769.5 423 C 797.3903824 423 820 430.6111584 820 440 C 820 449.3888416 797.3903824 457 769.5 457 C 741.6096176 457 719 449.3888416 719 440 Z" opacity="0.2"/></g><g transform="translate(-238,-150) scale(1,1)"><path fill="#ffffff" stroke="none" d="M 712 433 C 712 423.6111584 734.6096176 416 762.5 416 C 790.3903824 416 813 423.6111584 813 433 C 813 442.3888416 790.3903824 450 762.5 450 C 734.6096176 450 712 442.3888416 712 433 Z"/></g><g transform="translate(-238,-150) scale(1,1)"><path fill="none" stroke="#000000" d="M 712 433 C 712 423.6111584 734.6096176 416 762.5 416 C 790.3903824 416 813 423.6111584 813 433 C 813 442.3888416 790.3903824 450 762.5 450 C 734.6096176 450 712 442.3888416 712 433 Z" stroke-miterlimit="10"/></g><g transform="translate(-238,-150) scale(1,1)"><g><path fill="none" stroke="none"/><text fill="#000000" stroke="none" font-family="Arial" font-size="13px" font-style="normal" font-weight="bold" text-decoration="none" x="748.055908203125" y="440">Error</text></g></g><g transform="translate(-238,-150) scale(1,1)"><path fill="none" stroke="#000000" d="M 713 415 L 636 387" stroke-miterlimit="10" stroke-dasharray="3"/></g><g transform="translate(-238,-150) scale(1,1)"><path fill="none" stroke="#000000" d="M 646.9893884883053 386.5169465318371 L 636 387 L 644.1122415041878 394.42910073816034" stroke-miterlimit="10"/></g><g transform="translate(-238,-150) scale(1,1)"><g><path fill="none" stroke="none"/><text fill="#000000" stroke="none" font-family="Arial" font-size="13px" font-style="normal" font-weight="normal" text-decoration="none" x="639.5" y="420.5">«extend»</text></g></g><g transform="translate(-238,-150) scale(1,1)"><path fill="none" stroke="#000000" d="M 318 357 L 483 275" stroke-miterlimit="10"/></g><g transform="translate(-238,-150) scale(1,1)"><path fill="none" stroke="#000000" d="M 318 387 L 455 431" stroke-miterlimit="10"/></g><g transform="translate(-238,-150) scale(1,1)"><path fill="#C0C0C0" stroke="none" d="M 615 528 C 615 518.6111584 637.6096176 511 665.5 511 C 693.3903824 511 716 518.6111584 716 528 C 716 537.3888416 693.3903824 545 665.5 545 C 637.6096176 545 615 537.3888416 615 528 Z" opacity="0.2"/></g><g transform="translate(-238,-150) scale(1,1)"><path fill="#ffffff" stroke="none" d="M 608 521 C 608 511.6111584 630.6096176 504 658.5 504 C 686.3903824 504 709 511.6111584 709 521 C 709 530.3888416 686.3903824 538 658.5 538 C 630.6096176 538 608 530.3888416 608 521 Z"/></g><g transform="translate(-238,-150) scale(1,1)"><path fill="none" stroke="#000000" d="M 608 521 C 608 511.6111584 630.6096176 504 658.5 504 C 686.3903824 504 709 511.6111584 709 521 C 709 530.3888416 686.3903824 538 658.5 538 C 630.6096176 538 608 530.3888416 608 521 Z" stroke-miterlimit="10"/></g><g transform="translate(-238,-150) scale(1,1)"><g><path fill="none" stroke="none"/><text fill="#000000" stroke="none" font-family="Arial" font-size="13px" font-style="normal" font-weight="bold" text-decoration="none" x="642.9609375" y="528">detail</text></g></g><g transform="translate(-238,-150) scale(1,1)"><path fill="none" stroke="#000000" d="M 649 503 L 595 387" stroke-miterlimit="10" stroke-dasharray="3"/></g><g transform="translate(-238,-150) scale(1,1)"><path fill="none" stroke="#000000" d="M 603.1052226868451 394.4367577072708 L 595 387 L 595.4726761200428 397.9898397297477" stroke-miterlimit="10"/></g><g transform="translate(-238,-150) scale(1,1)"><g><path fill="none" stroke="none"/><text fill="#000000" stroke="none" font-family="Arial" font-size="13px" font-style="normal" font-weight="normal" text-decoration="none" x="579.5" y="465.5">«include»</text></g></g><g transform="translate(-238,-150) scale(1,1)"><path fill="none" stroke="#000000" d="M 318 396 L 472 488 L 607 512" stroke-miterlimit="10"/></g><g transform="translate(-238,-150) scale(1,1)"><path fill="#C0C0C0" stroke="none" d="M 711 264 C 711 254.6111584 733.6096176 247 761.5 247 C 789.3903824 247 812 254.6111584 812 264 C 812 273.3888416 789.3903824 281 761.5 281 C 733.6096176 281 711 273.3888416 711 264 Z" opacity="0.2"/></g><g transform="translate(-238,-150) scale(1,1)"><path fill="#ffffff" stroke="none" d="M 704 257 C 704 247.6111584 726.6096176 240 754.5 240 C 782.3903824 240 805 247.6111584 805 257 C 805 266.3888416 782.3903824 274 754.5 274 C 726.6096176 274 704 266.3888416 704 257 Z"/></g><g transform="translate(-238,-150) scale(1,1)"><path fill="none" stroke="#000000" d="M 704 257 C 704 247.6111584 726.6096176 240 754.5 240 C 782.3903824 240 805 247.6111584 805 257 C 805 266.3888416 782.3903824 274 754.5 274 C 726.6096176 274 704 266.3888416 704 257 Z" stroke-miterlimit="10"/></g><g transform="translate(-238,-150) scale(1,1)"><g><path fill="none" stroke="none"/><text fill="#000000" stroke="none" font-family="Arial" font-size="13px" font-style="normal" font-weight="bold" text-decoration="none" x="727.77001953125" y="264">customer</text></g></g><g transform="translate(-238,-150) scale(1,1)"><path fill="none" stroke="#000000" d="M 613 351 L 727 275" stroke-miterlimit="10" stroke-dasharray="3"/></g><g transform="translate(-238,-150) scale(1,1)"><path fill="none" stroke="#000000" d="M 720.8791637187297 284.1397682256108 L 727 275 L 716.2091230681783 277.13470724978384" stroke-miterlimit="10"/></g><g transform="translate(-238,-150) scale(1,1)"><g><path fill="none" stroke="none"/><text fill="#000000" stroke="none" font-family="Arial" font-size="13px" font-style="normal" font-weight="normal" text-decoration="none" x="625.5" y="294.5">«include»</text></g></g><g transform="translate(-238,-150) scale(1,1)"><path fill="#C0C0C0" stroke="none" d="M 599 208 C 599 198.6111584 621.6096176 191 649.5 191 C 677.3903824 191 700 198.6111584 700 208 C 700 217.3888416 677.3903824 225 649.5 225 C 621.6096176 225 599 217.3888416 599 208 Z" opacity="0.2"/></g><g transform="translate(-238,-150) scale(1,1)"><path fill="#ffffff" stroke="none" d="M 592 201 C 592 191.6111584 614.6096176 184 642.5 184 C 670.3903824 184 693 191.6111584 693 201 C 693 210.3888416 670.3903824 218 642.5 218 C 614.6096176 218 592 210.3888416 592 201 Z"/></g><g transform="translate(-238,-150) scale(1,1)"><path fill="none" stroke="#000000" d="M 592 201 C 592 191.6111584 614.6096176 184 642.5 184 C 670.3903824 184 693 191.6111584 693 201 C 693 210.3888416 670.3903824 218 642.5 218 C 614.6096176 218 592 210.3888416 592 201 Z" stroke-miterlimit="10"/></g><g transform="translate(-238,-150) scale(1,1)"><g><path fill="none" stroke="none"/><text fill="#000000" stroke="none" font-family="Arial" font-size="13px" font-style="normal" font-weight="bold" text-decoration="none" x="624.79638671875" y="208">renew</text></g></g><g transform="translate(-238,-150) scale(1,1)"><path fill="none" stroke="#000000" d="M 602 219 L 559 239" stroke-miterlimit="10" stroke-dasharray="3"/></g><g transform="translate(-238,-150) scale(1,1)"><path fill="none" stroke="#000000" d="M 566.4394287674806 230.8972288929292 L 559 239 L 569.989994925852 238.53094613342768" stroke-miterlimit="10"/></g><g transform="translate(-238,-150) scale(1,1)"><g><path fill="none" stroke="none"/><text fill="#000000" stroke="none" font-family="Arial" font-size="13px" font-style="normal" font-weight="normal" text-decoration="none" x="595.5" y="238.5">«extend»</text></g></g></g></svg>