<svg version="1.1" xmlns="http://www.w3.org/2000/svg" xmlns:xlink="http://www.w3.org/1999/xlink" width="1097.3818359375" height="549"><defs/><g><text fill="#eeeeee" stroke="none" font-family="Arial" font-size="24px" font-style="normal" font-weight="normal" text-decoration="none" x="0" y="0">UNREGISTERED</text><text fill="#eeeeee" stroke="none" font-family="Arial" font-size="24px" font-style="normal" font-weight="normal" text-decoration="none" x="0" y="30">UNREGISTERED</text><text fill="#eeeeee" stroke="none" font-family="Arial" font-size="24px" font-style="normal" font-weight="normal" text-decoration="none" x="0" y="60">UNREGISTERED</text><text fill="#eeeeee" stroke="none" font-family="Arial" font-size="24px" font-style="normal" font-weight="normal" text-decoration="none" x="0" y="90">UNREGISTERED</text><text fill="#eeeeee" stroke="none" font-family="Arial" font-size="24px" font-style="normal" font-weight="normal" text-decoration="none" x="0" y="120">UNREGISTERED</text><text fill="#eeeeee" stroke="none" font-family="Arial" font-size="24px" font-style="normal" font-weight="normal" text-decoration="none" x="0" y="150">UNREGISTERED</text><text fill="#eeeeee" stroke="none" font-family="Arial" font-size="24px" font-style="normal" font-weight="normal" text-decoration="none" x="0" y="180">UNREGISTERED</text><text fill="#eeeeee" stroke="none" font-family="Arial" font-size="24px" font-style="normal" font-weight="normal" text-decoration="none" x="0" y="210">UNREGISTERED</text><text fill="#eeeeee" stroke="none" font-family="Arial" font-size="24px" font-style="normal" font-weight="normal" text-decoration="none" x="0" y="240">UNREGISTERED</text><text fill="#eeeeee" stroke="none" font-family="Arial" font-size="24px" font-style="normal" font-weight="normal" text-decoration="none" x="0" y="270">UNREGISTERED</text><text fill="#eeeeee" stroke="none" font-family="Arial" font-size="24px" font-style="normal" font-weight="normal" text-decoration="none" x="0" y="300">UNREGISTERED</text><text fill="#eeeeee" stroke="none" font-family="Arial" font-size="24px" font-style="normal" font-weight="normal" text-decoration="none" x="0" y="330">UNREGISTERED</text><text fill="#eeeeee" stroke="none" font-family="Arial" font-size="24px" font-style="normal" font-weight="normal" text-decoration="none" x="0" y="360">UNREGISTERED</text><text fill="#eeeeee" stroke="none" font-family="Arial" font-size="24px" font-style="normal" font-weight="normal" text-decoration="none" x="0" y="390">UNREGISTERED</text><text fill="#eeeeee" stroke="none" font-family="Arial" font-size="24px" font-style="normal" font-weight="normal" text-decoration="none" x="0" y="420">UNREGISTERED</text><text fill="#eeeeee" stroke="none" font-family="Arial" font-size="24px" font-style="normal" font-weight="normal" text-decoration="none" x="0" y="450">UNREGISTERED</text><text fill="#eeeeee" stroke="none" font-family="Arial" font-size="24px" font-style="normal" font-weight="normal" text-decoration="none" x="0" y="480">UNREGISTERED</text><text fill="#eeeeee" stroke="none" font-family="Arial" font-size="24px" font-style="normal" font-weight="normal" text-decoration="none" x="0" y="510">UNREGISTERED</text><text fill="#eeeeee" stroke="none" font-family="Arial" font-size="24px" font-style="normal" font-weight="normal" text-decoration="none" x="0" y="540">UNREGISTERED</text><text fill="#eeeeee" stroke="none" font-family="Arial" font-size="24px" font-style="normal" font-weight="normal" text-decoration="none" x="200" y="0">UNREGISTERED</text><text fill="#eeeeee" stroke="none" font-family="Arial" font-size="24px" font-style="normal" font-weight="normal" text-decoration="none" x="200" y="30">UNREGISTERED</text><text fill="#eeeeee" stroke="none" font-family="Arial" font-size="24px" font-style="normal" font-weight="normal" text-decoration="none" x="200" y="60">UNREGISTERED</text><text fill="#eeeeee" stroke="none" font-family="Arial" font-size="24px" font-style="normal" font-weight="normal" text-decoration="none" x="200" y="90">UNREGISTERED</text><text fill="#eeeeee" stroke="none" font-family="Arial" font-size="24px" font-style="normal" font-weight="normal" text-decoration="none" x="200" y="120">UNREGISTERED</text><text fill="#eeeeee" stroke="none" font-family="Arial" font-size="24px" font-style="normal" font-weight="normal" text-decoration="none" x="200" y="150">UNREGISTERED</text><text fill="#eeeeee" stroke="none" font-family="Arial" font-size="24px" font-style="normal" font-weight="normal" text-decoration="none" x="200" y="180">UNREGISTERED</text><text fill="#eeeeee" stroke="none" font-family="Arial" font-size="24px" font-style="normal" font-weight="normal" text-decoration="none" x="200" y="210">UNREGISTERED</text><text fill="#eeeeee" stroke="none" font-family="Arial" font-size="24px" font-style="normal" font-weight="normal" text-decoration="none" x="200" y="240">UNREGISTERED</text><text fill="#eeeeee" stroke="none" font-family="Arial" font-size="24px" font-style="normal" font-weight="normal" text-decoration="none" x="200" y="270">UNREGISTERED</text><text fill="#eeeeee" stroke="none" font-family="Arial" font-size="24px" font-style="normal" font-weight="normal" text-decoration="none" x="200" y="300">UNREGISTERED</text><text fill="#eeeeee" stroke="none" font-family="Arial" font-size="24px" font-style="normal" font-weight="normal" text-decoration="none" x="200" y="330">UNREGISTERED</text><text fill="#eeeeee" stroke="none" font-family="Arial" font-size="24px" font-style="normal" font-weight="normal" text-decoration="none" x="200" y="360">UNREGISTERED</text><text fill="#eeeeee" stroke="none" font-family="Arial" font-size="24px" font-style="normal" font-weight="normal" text-decoration="none" x="200" y="390">UNREGISTERED</text><text fill="#eeeeee" stroke="none" font-family="Arial" font-size="24px" font-style="normal" font-weight="normal" text-decoration="none" x="200" y="420">UNREGISTERED</text><text fill="#eeeeee" stroke="none" font-family="Arial" font-size="24px" font-style="normal" font-weight="normal" text-decoration="none" x="200" y="450">UNREGISTERED</text><text fill="#eeeeee" stroke="none" font-family="Arial" font-size="24px" font-style="normal" font-weight="normal" text-decoration="none" x="200" y="480">UNREGISTERED</text><text fill="#eeeeee" stroke="none" font-family="Arial" font-size="24px" font-style="normal" font-weight="normal" text-decoration="none" x="200" y="510">UNREGISTERED</text><text fill="#eeeeee" stroke="none" font-family="Arial" font-size="24px" font-style="normal" font-weight="normal" text-decoration="none" x="200" y="540">UNREGISTERED</text><text fill="#eeeeee" stroke="none" font-family="Arial" font-size="24px" font-style="normal" font-weight="normal" text-decoration="none" x="400" y="0">UNREGISTERED</text><text fill="#eeeeee" stroke="none" font-family="Arial" font-size="24px" font-style="normal" font-weight="normal" text-decoration="none" x="400" y="30">UNREGISTERED</text><text fill="#eeeeee" stroke="none" font-family="Arial" font-size="24px" font-style="normal" font-weight="normal" text-decoration="none" x="400" y="60">UNREGISTERED</text><text fill="#eeeeee" stroke="none" font-family="Arial" font-size="24px" font-style="normal" font-weight="normal" text-decoration="none" x="400" y="90">UNREGISTERED</text><text fill="#eeeeee" stroke="none" font-family="Arial" font-size="24px" font-style="normal" font-weight="normal" text-decoration="none" x="400" y="120">UNREGISTERED</text><text fill="#eeeeee" stroke="none" font-family="Arial" font-size="24px" font-style="normal" font-weight="normal" text-decoration="none" x="400" y="150">UNREGISTERED</text><text fill="#eeeeee" stroke="none" font-family="Arial" font-size="24px" font-style="normal" font-weight="normal" text-decoration="none" x="400" y="180">UNREGISTERED</text><text fill="#eeeeee" stroke="none" font-family="Arial" font-size="24px" font-style="normal" font-weight="normal" text-decoration="none" x="400" y="210">UNREGISTERED</text><text fill="#eeeeee" stroke="none" font-family="Arial" font-size="24px" font-style="normal" font-weight="normal" text-decoration="none" x="400" y="240">UNREGISTERED</text><text fill="#eeeeee" stroke="none" font-family="Arial" font-size="24px" font-style="normal" font-weight="normal" text-decoration="none" x="400" y="270">UNREGISTERED</text><text fill="#eeeeee" stroke="none" font-family="Arial" font-size="24px" font-style="normal" font-weight="normal" text-decoration="none" x="400" y="300">UNREGISTERED</text><text fill="#eeeeee" stroke="none" font-family="Arial" font-size="24px" font-style="normal" font-weight="normal" text-decoration="none" x="400" y="330">UNREGISTERED</text><text fill="#eeeeee" stroke="none" font-family="Arial" font-size="24px" font-style="normal" font-weight="normal" text-decoration="none" x="400" y="360">UNREGISTERED</text><text fill="#eeeeee" stroke="none" font-family="Arial" font-size="24px" font-style="normal" font-weight="normal" text-decoration="none" x="400" y="390">UNREGISTERED</text><text fill="#eeeeee" stroke="none" font-family="Arial" font-size="24px" font-style="normal" font-weight="normal" text-decoration="none" x="400" y="420">UNREGISTERED</text><text fill="#eeeeee" stroke="none" font-family="Arial" font-size="24px" font-style="normal" font-weight="normal" text-decoration="none" x="400" y="450">UNREGISTERED</text><text fill="#eeeeee" stroke="none" font-family="Arial" font-size="24px" font-style="normal" font-weight="normal" text-decoration="none" x="400" y="480">UNREGISTERED</text><text fill="#eeeeee" stroke="none" font-family="Arial" font-size="24px" font-style="normal" font-weight="normal" text-decoration="none" x="400" y="510">UNREGISTERED</text><text fill="#eeeeee" stroke="none" font-family="Arial" font-size="24px" font-style="normal" font-weight="normal" text-decoration="none" x="400" y="540">UNREGISTERED</text><text fill="#eeeeee" stroke="none" font-family="Arial" font-size="24px" font-style="normal" font-weight="normal" text-decoration="none" x="600" y="0">UNREGISTERED</text><text fill="#eeeeee" stroke="none" font-family="Arial" font-size="24px" font-style="normal" font-weight="normal" text-decoration="none" x="600" y="30">UNREGISTERED</text><text fill="#eeeeee" stroke="none" font-family="Arial" font-size="24px" font-style="normal" font-weight="normal" text-decoration="none" x="600" y="60">UNREGISTERED</text><text fill="#eeeeee" stroke="none" font-family="Arial" font-size="24px" font-style="normal" font-weight="normal" text-decoration="none" x="600" y="90">UNREGISTERED</text><text fill="#eeeeee" stroke="none" font-family="Arial" font-size="24px" font-style="normal" font-weight="normal" text-decoration="none" x="600" y="120">UNREGISTERED</text><text fill="#eeeeee" stroke="none" font-family="Arial" font-size="24px" font-style="normal" font-weight="normal" text-decoration="none" x="600" y="150">UNREGISTERED</text><text fill="#eeeeee" stroke="none" font-family="Arial" font-size="24px" font-style="normal" font-weight="normal" text-decoration="none" x="600" y="180">UNREGISTERED</text><text fill="#eeeeee" stroke="none" font-family="Arial" font-size="24px" font-style="normal" font-weight="normal" text-decoration="none" x="600" y="210">UNREGISTERED</text><text fill="#eeeeee" stroke="none" font-family="Arial" font-size="24px" font-style="normal" font-weight="normal" text-decoration="none" x="600" y="240">UNREGISTERED</text><text fill="#eeeeee" stroke="none" font-family="Arial" font-size="24px" font-style="normal" font-weight="normal" text-decoration="none" x="600" y="270">UNREGISTERED</text><text fill="#eeeeee" stroke="none" font-family="Arial" font-size="24px" font-style="normal" font-weight="normal" text-decoration="none" x="600" y="300">UNREGISTERED</text><text fill="#eeeeee" stroke="none" font-family="Arial" font-size="24px" font-style="normal" font-weight="normal" text-decoration="none" x="600" y="330">UNREGISTERED</text><text fill="#eeeeee" stroke="none" font-family="Arial" font-size="24px" font-style="normal" font-weight="normal" text-decoration="none" x="600" y="360">UNREGISTERED</text><text fill="#eeeeee" stroke="none" font-family="Arial" font-size="24px" font-style="normal" font-weight="normal" text-decoration="none" x="600" y="390">UNREGISTERED</text><text fill="#eeeeee" stroke="none" font-family="Arial" font-size="24px" font-style="normal" font-weight="normal" text-decoration="none" x="600" y="420">UNREGISTERED</text><text fill="#eeeeee" stroke="none" font-family="Arial" font-size="24px" font-style="normal" font-weight="normal" text-decoration="none" x="600" y="450">UNREGISTERED</text><text fill="#eeeeee" stroke="none" font-family="Arial" font-size="24px" font-style="normal" font-weight="normal" text-decoration="none" x="600" y="480">UNREGISTERED</text><text fill="#eeeeee" stroke="none" font-family="Arial" font-size="24px" font-style="normal" font-weight="normal" text-decoration="none" x="600" y="510">UNREGISTERED</text><text fill="#eeeeee" stroke="none" font-family="Arial" font-size="24px" font-style="normal" font-weight="normal" text-decoration="none" x="600" y="540">UNREGISTERED</text><text fill="#eeeeee" stroke="none" font-family="Arial" font-size="24px" font-style="normal" font-weight="normal" text-decoration="none" x="800" y="0">UNREGISTERED</text><text fill="#eeeeee" stroke="none" font-family="Arial" font-size="24px" font-style="normal" font-weight="normal" text-decoration="none" x="800" y="30">UNREGISTERED</text><text fill="#eeeeee" stroke="none" font-family="Arial" font-size="24px" font-style="normal" font-weight="normal" text-decoration="none" x="800" y="60">UNREGISTERED</text><text fill="#eeeeee" stroke="none" font-family="Arial" font-size="24px" font-style="normal" font-weight="normal" text-decoration="none" x="800" y="90">UNREGISTERED</text><text fill="#eeeeee" stroke="none" font-family="Arial" font-size="24px" font-style="normal" font-weight="normal" text-decoration="none" x="800" y="120">UNREGISTERED</text><text fill="#eeeeee" stroke="none" font-family="Arial" font-size="24px" font-style="normal" font-weight="normal" text-decoration="none" x="800" y="150">UNREGISTERED</text><text fill="#eeeeee" stroke="none" font-family="Arial" font-size="24px" font-style="normal" font-weight="normal" text-decoration="none" x="800" y="180">UNREGISTERED</text><text fill="#eeeeee" stroke="none" font-family="Arial" font-size="24px" font-style="normal" font-weight="normal" text-decoration="none" x="800" y="210">UNREGISTERED</text><text fill="#eeeeee" stroke="none" font-family="Arial" font-size="24px" font-style="normal" font-weight="normal" text-decoration="none" x="800" y="240">UNREGISTERED</text><text fill="#eeeeee" stroke="none" font-family="Arial" font-size="24px" font-style="normal" font-weight="normal" text-decoration="none" x="800" y="270">UNREGISTERED</text><text fill="#eeeeee" stroke="none" font-family="Arial" font-size="24px" font-style="normal" font-weight="normal" text-decoration="none" x="800" y="300">UNREGISTERED</text><text fill="#eeeeee" stroke="none" font-family="Arial" font-size="24px" font-style="normal" font-weight="normal" text-decoration="none" x="800" y="330">UNREGISTERED</text><text fill="#eeeeee" stroke="none" font-family="Arial" font-size="24px" font-style="normal" font-weight="normal" text-decoration="none" x="800" y="360">UNREGISTERED</text><text fill="#eeeeee" stroke="none" font-family="Arial" font-size="24px" font-style="normal" font-weight="normal" text-decoration="none" x="800" y="390">UNREGISTERED</text><text fill="#eeeeee" stroke="none" font-family="Arial" font-size="24px" font-style="normal" font-weight="normal" text-decoration="none" x="800" y="420">UNREGISTERED</text><text fill="#eeeeee" stroke="none" font-family="Arial" font-size="24px" font-style="normal" font-weight="normal" text-decoration="none" x="800" y="450">UNREGISTERED</text><text fill="#eeeeee" stroke="none" font-family="Arial" font-size="24px" font-style="normal" font-weight="normal" text-decoration="none" x="800" y="480">UNREGISTERED</text><text fill="#eeeeee" stroke="none" font-family="Arial" font-size="24px" font-style="normal" font-weight="normal" text-decoration="none" x="800" y="510">UNREGISTERED</text><text fill="#eeeeee" stroke="none" font-family="Arial" font-size="24px" font-style="normal" font-weight="normal" text-decoration="none" x="800" y="540">UNREGISTERED</text><text fill="#eeeeee" stroke="none" font-family="Arial" font-size="24px" font-style="normal" font-weight="normal" text-decoration="none" x="1000" y="0">UNREGISTERED</text><text fill="#eeeeee" stroke="none" font-family="Arial" font-size="24px" font-style="normal" font-weight="normal" text-decoration="none" x="1000" y="30">UNREGISTERED</text><text fill="#eeeeee" stroke="none" font-family="Arial" font-size="24px" font-style="normal" font-weight="normal" text-decoration="none" x="1000" y="60">UNREGISTERED</text><text fill="#eeeeee" stroke="none" font-family="Arial" font-size="24px" font-style="normal" font-weight="normal" text-decoration="none" x="1000" y="90">UNREGISTERED</text><text fill="#eeeeee" stroke="none" font-family="Arial" font-size="24px" font-style="normal" font-weight="normal" text-decoration="none" x="1000" y="120">UNREGISTERED</text><text fill="#eeeeee" stroke="none" font-family="Arial" font-size="24px" font-style="normal" font-weight="normal" text-decoration="none" x="1000" y="150">UNREGISTERED</text><text fill="#eeeeee" stroke="none" font-family="Arial" font-size="24px" font-style="normal" font-weight="normal" text-decoration="none" x="1000" y="180">UNREGISTERED</text><text fill="#eeeeee" stroke="none" font-family="Arial" font-size="24px" font-style="normal" font-weight="normal" text-decoration="none" x="1000" y="210">UNREGISTERED</text><text fill="#eeeeee" stroke="none" font-family="Arial" font-size="24px" font-style="normal" font-weight="normal" text-decoration="none" x="1000" y="240">UNREGISTERED</text><text fill="#eeeeee" stroke="none" font-family="Arial" font-size="24px" font-style="normal" font-weight="normal" text-decoration="none" x="1000" y="270">UNREGISTERED</text><text fill="#eeeeee" stroke="none" font-family="Arial" font-size="24px" font-style="normal" font-weight="normal" text-decoration="none" x="1000" y="300">UNREGISTERED</text><text fill="#eeeeee" stroke="none" font-family="Arial" font-size="24px" font-style="normal" font-weight="normal" text-decoration="none" x="1000" y="330">UNREGISTERED</text><text fill="#eeeeee" stroke="none" font-family="Arial" font-size="24px" font-style="normal" font-weight="normal" text-decoration="none" x="1000" y="360">UNREGISTERED</text><text fill="#eeeeee" stroke="none" font-family="Arial" font-size="24px" font-style="normal" font-weight="normal" text-decoration="none" x="1000" y="390">UNREGISTERED</text><text fill="#eeeeee" stroke="none" font-family="Arial" font-size="24px" font-style="normal" font-weight="normal" text-decoration="none" x="1000" y="420">UNREGISTERED</text><text fill="#eeeeee" stroke="none" font-family="Arial" font-size="24px" font-style="normal" font-weight="normal" text-decoration="none" x="1000" y="450">UNREGISTERED</text><text fill="#eeeeee" stroke="none" font-family="Arial" font-size="24px" font-style="normal" font-weight="normal" text-decoration="none" x="1000" y="480">UNREGISTERED</text><text fill="#eeeeee" stroke="none" font-family="Arial" font-size="24px" font-style="normal" font-weight="normal" text-decoration="none" x="1000" y="510">UNREGISTERED</text><text fill="#eeeeee" stroke="none" font-family="Arial" font-size="24px" font-style="normal" font-weight="normal" text-decoration="none" x="1000" y="540">UNREGISTERED</text><g transform="translate(2,-38) scale(1,1)"><path fill="#C0C0C0" stroke="none" d="M 260 64.5 C 260 59.2532944 264.2532944 55 269.5 55 C 274.7467056 55 279 59.2532944 279 64.5 C 279 69.7467056 274.7467056 74 269.5 74 C 264.2532944 74 260 69.7467056 260 64.5 Z" opacity="0.2"/></g><g transform="translate(2,-38) scale(1,1)"><path fill="#000000" stroke="none" d="M 253 57.5 C 253 52.2532944 257.2532944 48 262.5 48 C 267.7467056 48 272 52.2532944 272 57.5 C 272 62.7467056 267.7467056 67 262.5 67 C 257.2532944 67 253 62.7467056 253 57.5 Z"/></g><g transform="translate(2,-38) scale(1,1)"><path fill="#C0C0C0" stroke="none" d="M 258 136.5 L 269.5 127 L 280 136.5 L 269.5 145 L 258 136.5" opacity="0.2"/></g><g transform="translate(2,-38) scale(1,1)"><path fill="#ffffff" stroke="none" d="M 251 129 L 262 120 L 273 129 L 262 138 L 251 129"/></g><g transform="translate(2,-38) scale(1,1)"><path fill="none" stroke="#000000" d="M 251 129 L 262 120 L 273 129 L 262 138 L 251 129 L 251 129" stroke-miterlimit="10"/></g><g transform="translate(2,-38) scale(1,1)"><path fill="none" stroke="#000000" d="M 262 68 L 262 119" stroke-miterlimit="10"/></g><g transform="translate(2,-38) scale(1,1)"><path fill="none" stroke="#000000" d="M 257.790482243984 108.83732514237585 L 262 119 L 266.209517756016 108.83732514237585" stroke-miterlimit="10"/></g><g transform="translate(2,-38) scale(1,1)"><path fill="#C0C0C0" stroke="none" d="M 137 190 L 224.2490234375 190 Q 234.2490234375 190 234.2490234375 200 L 234.2490234375 220 Q 234.2490234375 230 224.2490234375 230 L 137 230 Q 127 230 127 220 L 127 200 Q 127 190 137 190 Z" opacity="0.2"/></g><g transform="translate(2,-38) scale(1,1)"><path fill="#ffffff" stroke="none" d="M 130 183 L 217.2490234375 183 Q 227.2490234375 183 227.2490234375 193 L 227.2490234375 213 Q 227.2490234375 223 217.2490234375 223 L 130 223 Q 120 223 120 213 L 120 193 Q 120 183 130 183 Z"/></g><g transform="translate(2,-38) scale(1,1)"><path fill="none" stroke="#000000" d="M 130 183 L 217.2490234375 183 Q 227.2490234375 183 227.2490234375 193 L 227.2490234375 213 Q 227.2490234375 223 217.2490234375 223 L 130 223 Q 120 223 120 213 L 120 193 Q 120 183 130 183 Z" stroke-miterlimit="10"/></g><g transform="translate(2,-38) scale(1,1)"><g><path fill="none" stroke="none"/><text fill="#000000" stroke="none" font-family="Arial" font-size="13px" font-style="normal" font-weight="bold" text-decoration="none" x="128.46728515625" y="202.5">new permission</text></g></g><g transform="translate(2,-38) scale(1,1)"><path fill="#C0C0C0" stroke="none" d="M 345 190 L 426.46630859375 190 Q 436.46630859375 190 436.46630859375 200 L 436.46630859375 220 Q 436.46630859375 230 426.46630859375 230 L 345 230 Q 335 230 335 220 L 335 200 Q 335 190 345 190 Z" opacity="0.2"/></g><g transform="translate(2,-38) scale(1,1)"><path fill="#ffffff" stroke="none" d="M 338 183 L 419.46630859375 183 Q 429.46630859375 183 429.46630859375 193 L 429.46630859375 213 Q 429.46630859375 223 419.46630859375 223 L 338 223 Q 328 223 328 213 L 328 193 Q 328 183 338 183 Z"/></g><g transform="translate(2,-38) scale(1,1)"><path fill="none" stroke="#000000" d="M 338 183 L 419.46630859375 183 Q 429.46630859375 183 429.46630859375 193 L 429.46630859375 213 Q 429.46630859375 223 419.46630859375 223 L 338 223 Q 328 223 328 213 L 328 193 Q 328 183 338 183 Z" stroke-miterlimit="10"/></g><g transform="translate(2,-38) scale(1,1)"><g><path fill="none" stroke="none"/><text fill="#000000" stroke="none" font-family="Arial" font-size="13px" font-style="normal" font-weight="bold" text-decoration="none" x="336.464111328125" y="202.5">get permission</text></g></g><g transform="translate(2,-38) scale(1,1)"><path fill="none" stroke="#000000" d="M 251 128 L 176 128 M 176 128 A 8 8 0 0 0 168 136 L 168 183" stroke-miterlimit="10"/></g><g transform="translate(2,-38) scale(1,1)"><path fill="none" stroke="#000000" d="M 163.790482243984 172.83732514237585 L 168 183 L 172.209517756016 172.83732514237585" stroke-miterlimit="10"/></g><g transform="translate(2,-38) scale(1,1)"><path fill="none" stroke="#000000" d="M 273 128 L 368 128 M 368 128 A 8 8 0 0 1 376 136 L 376 183" stroke-miterlimit="10"/></g><g transform="translate(2,-38) scale(1,1)"><path fill="none" stroke="#000000" d="M 371.790482243984 172.83732514237585 L 376 183 L 380.209517756016 172.83732514237585" stroke-miterlimit="10"/></g><g transform="translate(2,-38) scale(1,1)"><path fill="#C0C0C0" stroke="none" d="M 169 288.5 L 180.5 279 L 191 288.5 L 180.5 297 L 169 288.5" opacity="0.2"/></g><g transform="translate(2,-38) scale(1,1)"><path fill="#ffffff" stroke="none" d="M 162 281 L 173 272 L 184 281 L 173 290 L 162 281"/></g><g transform="translate(2,-38) scale(1,1)"><path fill="none" stroke="#000000" d="M 162 281 L 173 272 L 184 281 L 173 290 L 162 281 L 162 281" stroke-miterlimit="10"/></g><g transform="translate(2,-38) scale(1,1)"><path fill="none" stroke="#000000" d="M 170 223 L 170 272" stroke-miterlimit="10"/></g><g transform="translate(2,-38) scale(1,1)"><path fill="none" stroke="#000000" d="M 165.790482243984 261.83732514237585 L 170 272 L 174.209517756016 261.83732514237585" stroke-miterlimit="10"/></g><g transform="translate(2,-38) scale(1,1)"><path fill="#C0C0C0" stroke="none" d="M 25 334 L 189.5888671875 334 Q 199.5888671875 334 199.5888671875 344 L 199.5888671875 364 Q 199.5888671875 374 189.5888671875 374 L 25 374 Q 15 374 15 364 L 15 344 Q 15 334 25 334 Z" opacity="0.2"/></g><g transform="translate(2,-38) scale(1,1)"><path fill="#ffffff" stroke="none" d="M 18 327 L 182.5888671875 327 Q 192.5888671875 327 192.5888671875 337 L 192.5888671875 357 Q 192.5888671875 367 182.5888671875 367 L 18 367 Q 8 367 8 357 L 8 337 Q 8 327 18 327 Z"/></g><g transform="translate(2,-38) scale(1,1)"><path fill="none" stroke="#000000" d="M 18 327 L 182.5888671875 327 Q 192.5888671875 327 192.5888671875 337 L 192.5888671875 357 Q 192.5888671875 367 182.5888671875 367 L 18 367 Q 8 367 8 357 L 8 337 Q 8 327 18 327 Z" stroke-miterlimit="10"/></g><g transform="translate(2,-38) scale(1,1)"><g><path fill="none" stroke="none"/><text fill="#000000" stroke="none" font-family="Arial" font-size="13px" font-style="normal" font-weight="bold" text-decoration="none" x="17.9208984375" y="346.5">Already name permissin 501</text></g></g><g transform="translate(2,-38) scale(1,1)"><path fill="none" stroke="#000000" d="M 162 280 L 96 280 M 96 280 A 8 8 0 0 0 88 288 L 88 327" stroke-miterlimit="10"/></g><g transform="translate(2,-38) scale(1,1)"><path fill="none" stroke="#000000" d="M 83.79048224398402 316.83732514237585 L 88 327 L 92.20951775601598 316.83732514237585" stroke-miterlimit="10"/></g><g transform="translate(2,-38) scale(1,1)"><g><path fill="none" stroke="none"/><text fill="#000000" stroke="none" font-family="Arial" font-size="13px" font-style="normal" font-weight="normal" text-decoration="none" x="95.5" y="276.5">false</text></g></g><g transform="translate(2,-38) scale(1,1)"><path fill="#C0C0C0" stroke="none" d="M 233 334 L 323.88623046875 334 Q 333.88623046875 334 333.88623046875 344 L 333.88623046875 364 Q 333.88623046875 374 323.88623046875 374 L 233 374 Q 223 374 223 364 L 223 344 Q 223 334 233 334 Z" opacity="0.2"/></g><g transform="translate(2,-38) scale(1,1)"><path fill="#ffffff" stroke="none" d="M 226 327 L 316.88623046875 327 Q 326.88623046875 327 326.88623046875 337 L 326.88623046875 357 Q 326.88623046875 367 316.88623046875 367 L 226 367 Q 216 367 216 357 L 216 337 Q 216 327 226 327 Z"/></g><g transform="translate(2,-38) scale(1,1)"><path fill="none" stroke="#000000" d="M 226 327 L 316.88623046875 327 Q 326.88623046875 327 326.88623046875 337 L 326.88623046875 357 Q 326.88623046875 367 316.88623046875 367 L 226 367 Q 216 367 216 357 L 216 337 Q 216 327 226 327 Z" stroke-miterlimit="10"/></g><g transform="translate(2,-38) scale(1,1)"><g><path fill="none" stroke="none"/><text fill="#000000" stroke="none" font-family="Arial" font-size="13px" font-style="normal" font-weight="bold" text-decoration="none" x="243.986328125" y="346.5">MSG 201</text></g></g><g transform="translate(2,-38) scale(1,1)"><path fill="none" stroke="#000000" d="M 184 280 L 272 280 M 272 280 A 8 8 0 0 1 280 288 L 280 327" stroke-miterlimit="10"/></g><g transform="translate(2,-38) scale(1,1)"><path fill="none" stroke="#000000" d="M 275.790482243984 316.83732514237585 L 280 327 L 284.209517756016 316.83732514237585" stroke-miterlimit="10"/></g><g transform="translate(2,-38) scale(1,1)"><g><path fill="none" stroke="none"/><text fill="#000000" stroke="none" font-family="Arial" font-size="13px" font-style="normal" font-weight="normal" text-decoration="none" x="282.5" y="285.5">true</text></g></g><g transform="translate(2,-38) scale(1,1)"><path fill="#C0C0C0" stroke="none" d="M 82 435.5 C 82 428.59644 87.59644 423 94.5 423 C 101.40356 423 107 428.59644 107 435.5 C 107 442.40356 101.40356 448 94.5 448 C 87.59644 448 82 442.40356 82 435.5 Z" opacity="0.2"/></g><g transform="translate(2,-38) scale(1,1)"><path fill="none" stroke="#000000" d="M 75 428.5 C 75 421.59644 80.59644 416 87.5 416 C 94.40356 416 100 421.59644 100 428.5 C 100 435.40356 94.40356 441 87.5 441 C 80.59644 441 75 435.40356 75 428.5 Z" stroke-miterlimit="10"/></g><g transform="translate(2,-38) scale(1,1)"><path fill="#000000" stroke="none" d="M 80 428.5 C 80 424.357864 83.357864 421 87.5 421 C 91.642136 421 95 424.357864 95 428.5 C 95 432.642136 91.642136 436 87.5 436 C 83.357864 436 80 432.642136 80 428.5 Z"/></g><g transform="translate(2,-38) scale(1,1)"><path fill="none" stroke="#000000" d="M 86 367 L 86 416" stroke-miterlimit="10"/></g><g transform="translate(2,-38) scale(1,1)"><path fill="none" stroke="#000000" d="M 81.79048224398402 405.83732514237585 L 86 416 L 90.20951775601598 405.83732514237585" stroke-miterlimit="10"/></g><g transform="translate(2,-38) scale(1,1)"><path fill="none" stroke="#000000" d="M 327 348 L 368 348 M 368 348 A 8 8 0 0 0 376 340 L 376 223" stroke-miterlimit="10"/></g><g transform="translate(2,-38) scale(1,1)"><path fill="none" stroke="#000000" d="M 380.209517756016 233.16267485762415 L 376 223 L 371.790482243984 233.16267485762415" stroke-miterlimit="10"/></g><g transform="translate(2,-38) scale(1,1)"><path fill="#C0C0C0" stroke="none" d="M 736 263 L 818 263 Q 821 263 821 266 L 821 265 Q 821 268 818 268 L 736 268 Q 733 268 733 265 L 733 266 Q 733 263 736 263 Z" opacity="0.2"/></g><g transform="translate(2,-38) scale(1,1)"><path fill="#000000" stroke="none" d="M 729 256 L 811 256 Q 814 256 814 259 L 814 259 Q 814 262 811 262 L 729 262 Q 726 262 726 259 L 726 259 Q 726 256 729 256 Z"/></g><g transform="translate(2,-38) scale(1,1)"><path fill="none" stroke="#000000" d="M 429 208 L 760 208 M 760 208 A 8 8 0 0 1 768 216 L 768 256" stroke-miterlimit="10"/></g><g transform="translate(2,-38) scale(1,1)"><path fill="none" stroke="#000000" d="M 763.790482243984 245.83732514237585 L 768 256 L 772.209517756016 245.83732514237585" stroke-miterlimit="10"/></g><g transform="translate(2,-38) scale(1,1)"><path fill="#C0C0C0" stroke="none" d="M 577 327 L 616 327 Q 626 327 626 337 L 626 357 Q 626 367 616 367 L 577 367 Q 567 367 567 357 L 567 337 Q 567 327 577 327 Z" opacity="0.2"/></g><g transform="translate(2,-38) scale(1,1)"><path fill="#ffffff" stroke="none" d="M 570 320 L 609 320 Q 619 320 619 330 L 619 350 Q 619 360 609 360 L 570 360 Q 560 360 560 350 L 560 330 Q 560 320 570 320 Z"/></g><g transform="translate(2,-38) scale(1,1)"><path fill="none" stroke="#000000" d="M 570 320 L 609 320 Q 619 320 619 330 L 619 350 Q 619 360 609 360 L 570 360 Q 560 360 560 350 L 560 330 Q 560 320 570 320 Z" stroke-miterlimit="10"/></g><g transform="translate(2,-38) scale(1,1)"><g><path fill="none" stroke="none"/><text fill="#000000" stroke="none" font-family="Arial" font-size="13px" font-style="normal" font-weight="bold" text-decoration="none" x="579.02001953125" y="339.5">edit</text></g></g><g transform="translate(2,-38) scale(1,1)"><path fill="#C0C0C0" stroke="none" d="M 585 416.5 L 596.5 407 L 607 416.5 L 596.5 425 L 585 416.5" opacity="0.2"/></g><g transform="translate(2,-38) scale(1,1)"><path fill="#ffffff" stroke="none" d="M 578 409 L 589 400 L 600 409 L 589 418 L 578 409"/></g><g transform="translate(2,-38) scale(1,1)"><path fill="none" stroke="#000000" d="M 578 409 L 589 400 L 600 409 L 589 418 L 578 409 L 578 409" stroke-miterlimit="10"/></g><g transform="translate(2,-38) scale(1,1)"><path fill="none" stroke="#000000" d="M 589 361 L 589 399" stroke-miterlimit="10"/></g><g transform="translate(2,-38) scale(1,1)"><path fill="none" stroke="#000000" d="M 584.790482243984 388.83732514237585 L 589 399 L 593.209517756016 388.83732514237585" stroke-miterlimit="10"/></g><g transform="translate(2,-38) scale(1,1)"><path fill="#C0C0C0" stroke="none" d="M 433 391 L 516.63720703125 391 Q 526.63720703125 391 526.63720703125 401 L 526.63720703125 421 Q 526.63720703125 431 516.63720703125 431 L 433 431 Q 423 431 423 421 L 423 401 Q 423 391 433 391 Z" opacity="0.2"/></g><g transform="translate(2,-38) scale(1,1)"><path fill="#ffffff" stroke="none" d="M 426 384 L 509.63720703125 384 Q 519.63720703125 384 519.63720703125 394 L 519.63720703125 414 Q 519.63720703125 424 509.63720703125 424 L 426 424 Q 416 424 416 414 L 416 394 Q 416 384 426 384 Z"/></g><g transform="translate(2,-38) scale(1,1)"><path fill="none" stroke="#000000" d="M 426 384 L 509.63720703125 384 Q 519.63720703125 384 519.63720703125 394 L 519.63720703125 414 Q 519.63720703125 424 509.63720703125 424 L 426 424 Q 416 424 416 414 L 416 394 Q 416 384 426 384 Z" stroke-miterlimit="10"/></g><g transform="translate(2,-38) scale(1,1)"><g><path fill="none" stroke="none"/><text fill="#000000" stroke="none" font-family="Arial" font-size="13px" font-style="normal" font-weight="bold" text-decoration="none" x="423.734130859375" y="403.5">duplicate name</text></g></g><g transform="translate(2,-38) scale(1,1)"><path fill="none" stroke="#000000" d="M 578 408 L 520 408" stroke-miterlimit="10"/></g><g transform="translate(2,-38) scale(1,1)"><path fill="none" stroke="#000000" d="M 530.1626748576241 403.790482243984 L 520 408 L 530.1626748576241 412.209517756016" stroke-miterlimit="10"/></g><g transform="translate(2,-38) scale(1,1)"><g><path fill="none" stroke="none"/><text fill="#000000" stroke="none" font-family="Arial" font-size="13px" font-style="normal" font-weight="normal" text-decoration="none" x="535.5" y="427.5">false</text></g></g><g transform="translate(2,-38) scale(1,1)"><path fill="#C0C0C0" stroke="none" d="M 577 471 L 620.91357421875 471 Q 630.91357421875 471 630.91357421875 481 L 630.91357421875 501 Q 630.91357421875 511 620.91357421875 511 L 577 511 Q 567 511 567 501 L 567 481 Q 567 471 577 471 Z" opacity="0.2"/></g><g transform="translate(2,-38) scale(1,1)"><path fill="#ffffff" stroke="none" d="M 570 464 L 613.91357421875 464 Q 623.91357421875 464 623.91357421875 474 L 623.91357421875 494 Q 623.91357421875 504 613.91357421875 504 L 570 504 Q 560 504 560 494 L 560 474 Q 560 464 570 464 Z"/></g><g transform="translate(2,-38) scale(1,1)"><path fill="none" stroke="#000000" d="M 570 464 L 613.91357421875 464 Q 623.91357421875 464 623.91357421875 474 L 623.91357421875 494 Q 623.91357421875 504 613.91357421875 504 L 570 504 Q 560 504 560 494 L 560 474 Q 560 464 570 464 Z" stroke-miterlimit="10"/></g><g transform="translate(2,-38) scale(1,1)"><g><path fill="none" stroke="none"/><text fill="#000000" stroke="none" font-family="Arial" font-size="13px" font-style="normal" font-weight="bold" text-decoration="none" x="564.5" y="483.5">MSG 201</text></g></g><g transform="translate(2,-38) scale(1,1)"><path fill="none" stroke="#000000" d="M 589 419 L 590 463" stroke-miterlimit="10"/></g><g transform="translate(2,-38) scale(1,1)"><path fill="none" stroke="#000000" d="M 585.5606587369277 452.93559494306874 L 590 463 L 593.9775207532447 452.7443026245161" stroke-miterlimit="10"/></g><g transform="translate(2,-38) scale(1,1)"><g><path fill="none" stroke="none"/><text fill="#000000" stroke="none" font-family="Arial" font-size="13px" font-style="normal" font-weight="normal" text-decoration="none" x="591.5" y="446.5">true</text></g></g><g transform="translate(2,-38) scale(1,1)"><path fill="#C0C0C0" stroke="none" d="M 758 335 L 797 335 Q 807 335 807 345 L 807 365 Q 807 375 797 375 L 758 375 Q 748 375 748 365 L 748 345 Q 748 335 758 335 Z" opacity="0.2"/></g><g transform="translate(2,-38) scale(1,1)"><path fill="#ffffff" stroke="none" d="M 751 328 L 790 328 Q 800 328 800 338 L 800 358 Q 800 368 790 368 L 751 368 Q 741 368 741 358 L 741 338 Q 741 328 751 328 Z"/></g><g transform="translate(2,-38) scale(1,1)"><path fill="none" stroke="#000000" d="M 751 328 L 790 328 Q 800 328 800 338 L 800 358 Q 800 368 790 368 L 751 368 Q 741 368 741 358 L 741 338 Q 741 328 751 328 Z" stroke-miterlimit="10"/></g><g transform="translate(2,-38) scale(1,1)"><g><path fill="none" stroke="none"/><text fill="#000000" stroke="none" font-family="Arial" font-size="13px" font-style="normal" font-weight="bold" text-decoration="none" x="752.7900390625" y="347.5">delete</text></g></g><g transform="translate(2,-38) scale(1,1)"><path fill="#C0C0C0" stroke="none" d="M 766 424.5 L 777.5 415 L 788 424.5 L 777.5 433 L 766 424.5" opacity="0.2"/></g><g transform="translate(2,-38) scale(1,1)"><path fill="#ffffff" stroke="none" d="M 759 417 L 770 408 L 781 417 L 770 426 L 759 417"/></g><g transform="translate(2,-38) scale(1,1)"><path fill="none" stroke="#000000" d="M 759 417 L 770 408 L 781 417 L 770 426 L 759 417 L 759 417" stroke-miterlimit="10"/></g><g transform="translate(2,-38) scale(1,1)"><path fill="none" stroke="#000000" d="M 770 369 L 770 407" stroke-miterlimit="10"/></g><g transform="translate(2,-38) scale(1,1)"><path fill="none" stroke="#000000" d="M 765.790482243984 396.83732514237585 L 770 407 L 774.209517756016 396.83732514237585" stroke-miterlimit="10"/></g><g transform="translate(2,-38) scale(1,1)"><path fill="#C0C0C0" stroke="none" d="M 641 399 L 730.3818359375 399 Q 740.3818359375 399 740.3818359375 409 L 740.3818359375 429 Q 740.3818359375 439 730.3818359375 439 L 641 439 Q 631 439 631 429 L 631 409 Q 631 399 641 399 Z" opacity="0.2"/></g><g transform="translate(2,-38) scale(1,1)"><path fill="#ffffff" stroke="none" d="M 634 392 L 723.3818359375 392 Q 733.3818359375 392 733.3818359375 402 L 733.3818359375 422 Q 733.3818359375 432 723.3818359375 432 L 634 432 Q 624 432 624 422 L 624 402 Q 624 392 634 392 Z"/></g><g transform="translate(2,-38) scale(1,1)"><path fill="none" stroke="#000000" d="M 634 392 L 723.3818359375 392 Q 733.3818359375 392 733.3818359375 402 L 733.3818359375 422 Q 733.3818359375 432 723.3818359375 432 L 634 432 Q 624 432 624 422 L 624 402 Q 624 392 634 392 Z" stroke-miterlimit="10"/></g><g transform="translate(2,-38) scale(1,1)"><g><path fill="none" stroke="none"/><text fill="#000000" stroke="none" font-family="Arial" font-size="13px" font-style="normal" font-weight="bold" text-decoration="none" x="631.70556640625" y="411.5">Id not found 404</text></g></g><g transform="translate(2,-38) scale(1,1)"><path fill="none" stroke="#000000" d="M 758 416 L 734 415" stroke-miterlimit="10"/></g><g transform="translate(2,-38) scale(1,1)"><path fill="none" stroke="#000000" d="M 744.329109078495 411.2172092782506 L 734 415 L 743.9786200441779 419.6289461018608" stroke-miterlimit="10"/></g><g transform="translate(2,-38) scale(1,1)"><path fill="#C0C0C0" stroke="none" d="M 756 473 L 799.91357421875 473 Q 809.91357421875 473 809.91357421875 483 L 809.91357421875 503 Q 809.91357421875 513 799.91357421875 513 L 756 513 Q 746 513 746 503 L 746 483 Q 746 473 756 473 Z" opacity="0.2"/></g><g transform="translate(2,-38) scale(1,1)"><path fill="#ffffff" stroke="none" d="M 749 466 L 792.91357421875 466 Q 802.91357421875 466 802.91357421875 476 L 802.91357421875 496 Q 802.91357421875 506 792.91357421875 506 L 749 506 Q 739 506 739 496 L 739 476 Q 739 466 749 466 Z"/></g><g transform="translate(2,-38) scale(1,1)"><path fill="none" stroke="#000000" d="M 749 466 L 792.91357421875 466 Q 802.91357421875 466 802.91357421875 476 L 802.91357421875 496 Q 802.91357421875 506 792.91357421875 506 L 749 506 Q 739 506 739 496 L 739 476 Q 739 466 749 466 Z" stroke-miterlimit="10"/></g><g transform="translate(2,-38) scale(1,1)"><g><path fill="none" stroke="none"/><text fill="#000000" stroke="none" font-family="Arial" font-size="13px" font-style="normal" font-weight="bold" text-decoration="none" x="743.5" y="485.5">MSG 201</text></g></g><g transform="translate(2,-38) scale(1,1)"><path fill="none" stroke="#000000" d="M 770 427 L 770 465" stroke-miterlimit="10"/></g><g transform="translate(2,-38) scale(1,1)"><path fill="none" stroke="#000000" d="M 765.790482243984 454.83732514237585 L 770 465 L 774.209517756016 454.83732514237585" stroke-miterlimit="10"/></g><g transform="translate(2,-38) scale(1,1)"><path fill="#C0C0C0" stroke="none" d="M 905 335 L 944 335 Q 954 335 954 345 L 954 365 Q 954 375 944 375 L 905 375 Q 895 375 895 365 L 895 345 Q 895 335 905 335 Z" opacity="0.2"/></g><g transform="translate(2,-38) scale(1,1)"><path fill="#ffffff" stroke="none" d="M 898 328 L 937 328 Q 947 328 947 338 L 947 358 Q 947 368 937 368 L 898 368 Q 888 368 888 358 L 888 338 Q 888 328 898 328 Z"/></g><g transform="translate(2,-38) scale(1,1)"><path fill="none" stroke="#000000" d="M 898 328 L 937 328 Q 947 328 947 338 L 947 358 Q 947 368 937 368 L 898 368 Q 888 368 888 358 L 888 338 Q 888 328 898 328 Z" stroke-miterlimit="10"/></g><g transform="translate(2,-38) scale(1,1)"><g><path fill="none" stroke="none"/><text fill="#000000" stroke="none" font-family="Arial" font-size="13px" font-style="normal" font-weight="bold" text-decoration="none" x="896.90185546875" y="347.5">disable</text></g></g><g transform="translate(2,-38) scale(1,1)"><path fill="#C0C0C0" stroke="none" d="M 913 418.5 L 924.5 409 L 935 418.5 L 924.5 427 L 913 418.5" opacity="0.2"/></g><g transform="translate(2,-38) scale(1,1)"><path fill="#ffffff" stroke="none" d="M 906 411 L 917 402 L 928 411 L 917 420 L 906 411"/></g><g transform="translate(2,-38) scale(1,1)"><path fill="none" stroke="#000000" d="M 906 411 L 917 402 L 928 411 L 917 420 L 906 411 L 906 411" stroke-miterlimit="10"/></g><g transform="translate(2,-38) scale(1,1)"><path fill="none" stroke="#000000" d="M 917 369 L 917 401" stroke-miterlimit="10"/></g><g transform="translate(2,-38) scale(1,1)"><path fill="none" stroke="#000000" d="M 912.790482243984 390.83732514237585 L 917 401 L 921.209517756016 390.83732514237585" stroke-miterlimit="10"/></g><g transform="translate(2,-38) scale(1,1)"><path fill="#C0C0C0" stroke="none" d="M 993 398 L 1082.3818359375 398 Q 1092.3818359375 398 1092.3818359375 408 L 1092.3818359375 428 Q 1092.3818359375 438 1082.3818359375 438 L 993 438 Q 983 438 983 428 L 983 408 Q 983 398 993 398 Z" opacity="0.2"/></g><g transform="translate(2,-38) scale(1,1)"><path fill="#ffffff" stroke="none" d="M 986 391 L 1075.3818359375 391 Q 1085.3818359375 391 1085.3818359375 401 L 1085.3818359375 421 Q 1085.3818359375 431 1075.3818359375 431 L 986 431 Q 976 431 976 421 L 976 401 Q 976 391 986 391 Z"/></g><g transform="translate(2,-38) scale(1,1)"><path fill="none" stroke="#000000" d="M 986 391 L 1075.3818359375 391 Q 1085.3818359375 391 1085.3818359375 401 L 1085.3818359375 421 Q 1085.3818359375 431 1075.3818359375 431 L 986 431 Q 976 431 976 421 L 976 401 Q 976 391 986 391 Z" stroke-miterlimit="10"/></g><g transform="translate(2,-38) scale(1,1)"><g><path fill="none" stroke="none"/><text fill="#000000" stroke="none" font-family="Arial" font-size="13px" font-style="normal" font-weight="bold" text-decoration="none" x="983.70556640625" y="410.5">Id not found 404</text></g></g><g transform="translate(2,-38) scale(1,1)"><path fill="none" stroke="#000000" d="M 929 411 L 975 411" stroke-miterlimit="10"/></g><g transform="translate(2,-38) scale(1,1)"><path fill="none" stroke="#000000" d="M 964.8373251423759 415.209517756016 L 975 411 L 964.8373251423758 406.790482243984" stroke-miterlimit="10"/></g><g transform="translate(2,-38) scale(1,1)"><path fill="#C0C0C0" stroke="none" d="M 888 471 L 960.103515625 471 Q 970.103515625 471 970.103515625 481 L 970.103515625 501 Q 970.103515625 511 960.103515625 511 L 888 511 Q 878 511 878 501 L 878 481 Q 878 471 888 471 Z" opacity="0.2"/></g><g transform="translate(2,-38) scale(1,1)"><path fill="#ffffff" stroke="none" d="M 881 464 L 953.103515625 464 Q 963.103515625 464 963.103515625 474 L 963.103515625 494 Q 963.103515625 504 953.103515625 504 L 881 504 Q 871 504 871 494 L 871 474 Q 871 464 881 464 Z"/></g><g transform="translate(2,-38) scale(1,1)"><path fill="none" stroke="#000000" d="M 881 464 L 953.103515625 464 Q 963.103515625 464 963.103515625 474 L 963.103515625 494 Q 963.103515625 504 953.103515625 504 L 881 504 Q 871 504 871 494 L 871 474 Q 871 464 881 464 Z" stroke-miterlimit="10"/></g><g transform="translate(2,-38) scale(1,1)"><g><path fill="none" stroke="none"/><text fill="#000000" stroke="none" font-family="Arial" font-size="13px" font-style="normal" font-weight="bold" text-decoration="none" x="889.594970703125" y="483.5">MSG 200</text></g></g><g transform="translate(2,-38) scale(1,1)"><path fill="none" stroke="#000000" d="M 917 421 L 917 463" stroke-miterlimit="10"/></g><g transform="translate(2,-38) scale(1,1)"><path fill="none" stroke="#000000" d="M 912.790482243984 452.83732514237585 L 917 463 L 921.209517756016 452.83732514237585" stroke-miterlimit="10"/></g><g transform="translate(2,-38) scale(1,1)"><path fill="none" stroke="#000000" d="M 761 262 L 620 326" stroke-miterlimit="10"/></g><g transform="translate(2,-38) scale(1,1)"><path fill="none" stroke="#000000" d="M 627.5141424540508 317.96646633291226 L 620 326 L 630.9938672169492 325.63273495117284" stroke-miterlimit="10"/></g><g transform="translate(2,-38) scale(1,1)"><path fill="none" stroke="#000000" d="M 770 262 L 770 327" stroke-miterlimit="10"/></g><g transform="translate(2,-38) scale(1,1)"><path fill="none" stroke="#000000" d="M 765.790482243984 316.83732514237585 L 770 327 L 774.209517756016 316.83732514237585" stroke-miterlimit="10"/></g><g transform="translate(2,-38) scale(1,1)"><path fill="none" stroke="#000000" d="M 777 262 L 887 330" stroke-miterlimit="10"/></g><g transform="translate(2,-38) scale(1,1)"><path fill="none" stroke="#000000" d="M 876.142226497953 328.23683393344675 L 887 330 L 880.5691414101327 321.0756480460971" stroke-miterlimit="10"/></g><g transform="translate(2,-38) scale(1,1)"><path fill="none" stroke="#000000" d="M 472 384 L 472 344 M 472 344 A 8 8 0 0 1 480 336 L 560 336" stroke-miterlimit="10"/></g><g transform="translate(2,-38) scale(1,1)"><path fill="none" stroke="#000000" d="M 549.8373251423759 340.209517756016 L 560 336 L 549.8373251423758 331.790482243984" stroke-miterlimit="10"/></g><g transform="translate(2,-38) scale(1,1)"><path fill="none" stroke="#000000" d="M 672 392 L 672 352 M 672 352 A 8 8 0 0 1 680 344 L 741 344" stroke-miterlimit="10"/></g><g transform="translate(2,-38) scale(1,1)"><path fill="none" stroke="#000000" d="M 730.8373251423759 348.209517756016 L 741 344 L 730.8373251423758 339.790482243984" stroke-miterlimit="10"/></g><g transform="translate(2,-38) scale(1,1)"><path fill="#C0C0C0" stroke="none" d="M 765 571.5 C 765 564.59644 770.59644 559 777.5 559 C 784.40356 559 790 564.59644 790 571.5 C 790 578.40356 784.40356 584 777.5 584 C 770.59644 584 765 578.40356 765 571.5 Z" opacity="0.2"/></g><g transform="translate(2,-38) scale(1,1)"><path fill="none" stroke="#000000" d="M 758 564.5 C 758 557.59644 763.59644 552 770.5 552 C 777.40356 552 783 557.59644 783 564.5 C 783 571.40356 777.40356 577 770.5 577 C 763.59644 577 758 571.40356 758 564.5 Z" stroke-miterlimit="10"/></g><g transform="translate(2,-38) scale(1,1)"><path fill="#000000" stroke="none" d="M 763 564.5 C 763 560.357864 766.357864 557 770.5 557 C 774.642136 557 778 560.357864 778 564.5 C 778 568.642136 774.642136 572 770.5 572 C 766.357864 572 763 568.642136 763 564.5 Z"/></g><g transform="translate(2,-38) scale(1,1)"><path fill="none" stroke="#000000" d="M 591 504 L 591 560 M 591 560 A 8 8 0 0 0 599 568 L 758 568" stroke-miterlimit="10"/></g><g transform="translate(2,-38) scale(1,1)"><path fill="none" stroke="#000000" d="M 747.8373251423759 572.209517756016 L 758 568 L 747.8373251423758 563.790482243984" stroke-miterlimit="10"/></g><g transform="translate(2,-38) scale(1,1)"><path fill="none" stroke="#000000" d="M 920 504 L 920 560 M 920 560 A 8 8 0 0 1 912 568 L 783 568" stroke-miterlimit="10"/></g><g transform="translate(2,-38) scale(1,1)"><path fill="none" stroke="#000000" d="M 793.1626748576241 563.790482243984 L 783 568 L 793.1626748576241 572.209517756016" stroke-miterlimit="10"/></g><g transform="translate(2,-38) scale(1,1)"><path fill="none" stroke="#000000" d="M 770 507 L 770 551" stroke-miterlimit="10"/></g><g transform="translate(2,-38) scale(1,1)"><path fill="none" stroke="#000000" d="M 765.790482243984 540.8373251423759 L 770 551 L 774.209517756016 540.8373251423759" stroke-miterlimit="10"/></g></g></svg>