<svg version="1.1" xmlns="http://www.w3.org/2000/svg" xmlns:xlink="http://www.w3.org/1999/xlink" width="909.841796875" height="556"><defs/><g><text fill="#eeeeee" stroke="none" font-family="Arial" font-size="24px" font-style="normal" font-weight="normal" text-decoration="none" x="0" y="0">UNREGISTERED</text><text fill="#eeeeee" stroke="none" font-family="Arial" font-size="24px" font-style="normal" font-weight="normal" text-decoration="none" x="0" y="30">UNREGISTERED</text><text fill="#eeeeee" stroke="none" font-family="Arial" font-size="24px" font-style="normal" font-weight="normal" text-decoration="none" x="0" y="60">UNREGISTERED</text><text fill="#eeeeee" stroke="none" font-family="Arial" font-size="24px" font-style="normal" font-weight="normal" text-decoration="none" x="0" y="90">UNREGISTERED</text><text fill="#eeeeee" stroke="none" font-family="Arial" font-size="24px" font-style="normal" font-weight="normal" text-decoration="none" x="0" y="120">UNREGISTERED</text><text fill="#eeeeee" stroke="none" font-family="Arial" font-size="24px" font-style="normal" font-weight="normal" text-decoration="none" x="0" y="150">UNREGISTERED</text><text fill="#eeeeee" stroke="none" font-family="Arial" font-size="24px" font-style="normal" font-weight="normal" text-decoration="none" x="0" y="180">UNREGISTERED</text><text fill="#eeeeee" stroke="none" font-family="Arial" font-size="24px" font-style="normal" font-weight="normal" text-decoration="none" x="0" y="210">UNREGISTERED</text><text fill="#eeeeee" stroke="none" font-family="Arial" font-size="24px" font-style="normal" font-weight="normal" text-decoration="none" x="0" y="240">UNREGISTERED</text><text fill="#eeeeee" stroke="none" font-family="Arial" font-size="24px" font-style="normal" font-weight="normal" text-decoration="none" x="0" y="270">UNREGISTERED</text><text fill="#eeeeee" stroke="none" font-family="Arial" font-size="24px" font-style="normal" font-weight="normal" text-decoration="none" x="0" y="300">UNREGISTERED</text><text fill="#eeeeee" stroke="none" font-family="Arial" font-size="24px" font-style="normal" font-weight="normal" text-decoration="none" x="0" y="330">UNREGISTERED</text><text fill="#eeeeee" stroke="none" font-family="Arial" font-size="24px" font-style="normal" font-weight="normal" text-decoration="none" x="0" y="360">UNREGISTERED</text><text fill="#eeeeee" stroke="none" font-family="Arial" font-size="24px" font-style="normal" font-weight="normal" text-decoration="none" x="0" y="390">UNREGISTERED</text><text fill="#eeeeee" stroke="none" font-family="Arial" font-size="24px" font-style="normal" font-weight="normal" text-decoration="none" x="0" y="420">UNREGISTERED</text><text fill="#eeeeee" stroke="none" font-family="Arial" font-size="24px" font-style="normal" font-weight="normal" text-decoration="none" x="0" y="450">UNREGISTERED</text><text fill="#eeeeee" stroke="none" font-family="Arial" font-size="24px" font-style="normal" font-weight="normal" text-decoration="none" x="0" y="480">UNREGISTERED</text><text fill="#eeeeee" stroke="none" font-family="Arial" font-size="24px" font-style="normal" font-weight="normal" text-decoration="none" x="0" y="510">UNREGISTERED</text><text fill="#eeeeee" stroke="none" font-family="Arial" font-size="24px" font-style="normal" font-weight="normal" text-decoration="none" x="0" y="540">UNREGISTERED</text><text fill="#eeeeee" stroke="none" font-family="Arial" font-size="24px" font-style="normal" font-weight="normal" text-decoration="none" x="200" y="0">UNREGISTERED</text><text fill="#eeeeee" stroke="none" font-family="Arial" font-size="24px" font-style="normal" font-weight="normal" text-decoration="none" x="200" y="30">UNREGISTERED</text><text fill="#eeeeee" stroke="none" font-family="Arial" font-size="24px" font-style="normal" font-weight="normal" text-decoration="none" x="200" y="60">UNREGISTERED</text><text fill="#eeeeee" stroke="none" font-family="Arial" font-size="24px" font-style="normal" font-weight="normal" text-decoration="none" x="200" y="90">UNREGISTERED</text><text fill="#eeeeee" stroke="none" font-family="Arial" font-size="24px" font-style="normal" font-weight="normal" text-decoration="none" x="200" y="120">UNREGISTERED</text><text fill="#eeeeee" stroke="none" font-family="Arial" font-size="24px" font-style="normal" font-weight="normal" text-decoration="none" x="200" y="150">UNREGISTERED</text><text fill="#eeeeee" stroke="none" font-family="Arial" font-size="24px" font-style="normal" font-weight="normal" text-decoration="none" x="200" y="180">UNREGISTERED</text><text fill="#eeeeee" stroke="none" font-family="Arial" font-size="24px" font-style="normal" font-weight="normal" text-decoration="none" x="200" y="210">UNREGISTERED</text><text fill="#eeeeee" stroke="none" font-family="Arial" font-size="24px" font-style="normal" font-weight="normal" text-decoration="none" x="200" y="240">UNREGISTERED</text><text fill="#eeeeee" stroke="none" font-family="Arial" font-size="24px" font-style="normal" font-weight="normal" text-decoration="none" x="200" y="270">UNREGISTERED</text><text fill="#eeeeee" stroke="none" font-family="Arial" font-size="24px" font-style="normal" font-weight="normal" text-decoration="none" x="200" y="300">UNREGISTERED</text><text fill="#eeeeee" stroke="none" font-family="Arial" font-size="24px" font-style="normal" font-weight="normal" text-decoration="none" x="200" y="330">UNREGISTERED</text><text fill="#eeeeee" stroke="none" font-family="Arial" font-size="24px" font-style="normal" font-weight="normal" text-decoration="none" x="200" y="360">UNREGISTERED</text><text fill="#eeeeee" stroke="none" font-family="Arial" font-size="24px" font-style="normal" font-weight="normal" text-decoration="none" x="200" y="390">UNREGISTERED</text><text fill="#eeeeee" stroke="none" font-family="Arial" font-size="24px" font-style="normal" font-weight="normal" text-decoration="none" x="200" y="420">UNREGISTERED</text><text fill="#eeeeee" stroke="none" font-family="Arial" font-size="24px" font-style="normal" font-weight="normal" text-decoration="none" x="200" y="450">UNREGISTERED</text><text fill="#eeeeee" stroke="none" font-family="Arial" font-size="24px" font-style="normal" font-weight="normal" text-decoration="none" x="200" y="480">UNREGISTERED</text><text fill="#eeeeee" stroke="none" font-family="Arial" font-size="24px" font-style="normal" font-weight="normal" text-decoration="none" x="200" y="510">UNREGISTERED</text><text fill="#eeeeee" stroke="none" font-family="Arial" font-size="24px" font-style="normal" font-weight="normal" text-decoration="none" x="200" y="540">UNREGISTERED</text><text fill="#eeeeee" stroke="none" font-family="Arial" font-size="24px" font-style="normal" font-weight="normal" text-decoration="none" x="400" y="0">UNREGISTERED</text><text fill="#eeeeee" stroke="none" font-family="Arial" font-size="24px" font-style="normal" font-weight="normal" text-decoration="none" x="400" y="30">UNREGISTERED</text><text fill="#eeeeee" stroke="none" font-family="Arial" font-size="24px" font-style="normal" font-weight="normal" text-decoration="none" x="400" y="60">UNREGISTERED</text><text fill="#eeeeee" stroke="none" font-family="Arial" font-size="24px" font-style="normal" font-weight="normal" text-decoration="none" x="400" y="90">UNREGISTERED</text><text fill="#eeeeee" stroke="none" font-family="Arial" font-size="24px" font-style="normal" font-weight="normal" text-decoration="none" x="400" y="120">UNREGISTERED</text><text fill="#eeeeee" stroke="none" font-family="Arial" font-size="24px" font-style="normal" font-weight="normal" text-decoration="none" x="400" y="150">UNREGISTERED</text><text fill="#eeeeee" stroke="none" font-family="Arial" font-size="24px" font-style="normal" font-weight="normal" text-decoration="none" x="400" y="180">UNREGISTERED</text><text fill="#eeeeee" stroke="none" font-family="Arial" font-size="24px" font-style="normal" font-weight="normal" text-decoration="none" x="400" y="210">UNREGISTERED</text><text fill="#eeeeee" stroke="none" font-family="Arial" font-size="24px" font-style="normal" font-weight="normal" text-decoration="none" x="400" y="240">UNREGISTERED</text><text fill="#eeeeee" stroke="none" font-family="Arial" font-size="24px" font-style="normal" font-weight="normal" text-decoration="none" x="400" y="270">UNREGISTERED</text><text fill="#eeeeee" stroke="none" font-family="Arial" font-size="24px" font-style="normal" font-weight="normal" text-decoration="none" x="400" y="300">UNREGISTERED</text><text fill="#eeeeee" stroke="none" font-family="Arial" font-size="24px" font-style="normal" font-weight="normal" text-decoration="none" x="400" y="330">UNREGISTERED</text><text fill="#eeeeee" stroke="none" font-family="Arial" font-size="24px" font-style="normal" font-weight="normal" text-decoration="none" x="400" y="360">UNREGISTERED</text><text fill="#eeeeee" stroke="none" font-family="Arial" font-size="24px" font-style="normal" font-weight="normal" text-decoration="none" x="400" y="390">UNREGISTERED</text><text fill="#eeeeee" stroke="none" font-family="Arial" font-size="24px" font-style="normal" font-weight="normal" text-decoration="none" x="400" y="420">UNREGISTERED</text><text fill="#eeeeee" stroke="none" font-family="Arial" font-size="24px" font-style="normal" font-weight="normal" text-decoration="none" x="400" y="450">UNREGISTERED</text><text fill="#eeeeee" stroke="none" font-family="Arial" font-size="24px" font-style="normal" font-weight="normal" text-decoration="none" x="400" y="480">UNREGISTERED</text><text fill="#eeeeee" stroke="none" font-family="Arial" font-size="24px" font-style="normal" font-weight="normal" text-decoration="none" x="400" y="510">UNREGISTERED</text><text fill="#eeeeee" stroke="none" font-family="Arial" font-size="24px" font-style="normal" font-weight="normal" text-decoration="none" x="400" y="540">UNREGISTERED</text><text fill="#eeeeee" stroke="none" font-family="Arial" font-size="24px" font-style="normal" font-weight="normal" text-decoration="none" x="600" y="0">UNREGISTERED</text><text fill="#eeeeee" stroke="none" font-family="Arial" font-size="24px" font-style="normal" font-weight="normal" text-decoration="none" x="600" y="30">UNREGISTERED</text><text fill="#eeeeee" stroke="none" font-family="Arial" font-size="24px" font-style="normal" font-weight="normal" text-decoration="none" x="600" y="60">UNREGISTERED</text><text fill="#eeeeee" stroke="none" font-family="Arial" font-size="24px" font-style="normal" font-weight="normal" text-decoration="none" x="600" y="90">UNREGISTERED</text><text fill="#eeeeee" stroke="none" font-family="Arial" font-size="24px" font-style="normal" font-weight="normal" text-decoration="none" x="600" y="120">UNREGISTERED</text><text fill="#eeeeee" stroke="none" font-family="Arial" font-size="24px" font-style="normal" font-weight="normal" text-decoration="none" x="600" y="150">UNREGISTERED</text><text fill="#eeeeee" stroke="none" font-family="Arial" font-size="24px" font-style="normal" font-weight="normal" text-decoration="none" x="600" y="180">UNREGISTERED</text><text fill="#eeeeee" stroke="none" font-family="Arial" font-size="24px" font-style="normal" font-weight="normal" text-decoration="none" x="600" y="210">UNREGISTERED</text><text fill="#eeeeee" stroke="none" font-family="Arial" font-size="24px" font-style="normal" font-weight="normal" text-decoration="none" x="600" y="240">UNREGISTERED</text><text fill="#eeeeee" stroke="none" font-family="Arial" font-size="24px" font-style="normal" font-weight="normal" text-decoration="none" x="600" y="270">UNREGISTERED</text><text fill="#eeeeee" stroke="none" font-family="Arial" font-size="24px" font-style="normal" font-weight="normal" text-decoration="none" x="600" y="300">UNREGISTERED</text><text fill="#eeeeee" stroke="none" font-family="Arial" font-size="24px" font-style="normal" font-weight="normal" text-decoration="none" x="600" y="330">UNREGISTERED</text><text fill="#eeeeee" stroke="none" font-family="Arial" font-size="24px" font-style="normal" font-weight="normal" text-decoration="none" x="600" y="360">UNREGISTERED</text><text fill="#eeeeee" stroke="none" font-family="Arial" font-size="24px" font-style="normal" font-weight="normal" text-decoration="none" x="600" y="390">UNREGISTERED</text><text fill="#eeeeee" stroke="none" font-family="Arial" font-size="24px" font-style="normal" font-weight="normal" text-decoration="none" x="600" y="420">UNREGISTERED</text><text fill="#eeeeee" stroke="none" font-family="Arial" font-size="24px" font-style="normal" font-weight="normal" text-decoration="none" x="600" y="450">UNREGISTERED</text><text fill="#eeeeee" stroke="none" font-family="Arial" font-size="24px" font-style="normal" font-weight="normal" text-decoration="none" x="600" y="480">UNREGISTERED</text><text fill="#eeeeee" stroke="none" font-family="Arial" font-size="24px" font-style="normal" font-weight="normal" text-decoration="none" x="600" y="510">UNREGISTERED</text><text fill="#eeeeee" stroke="none" font-family="Arial" font-size="24px" font-style="normal" font-weight="normal" text-decoration="none" x="600" y="540">UNREGISTERED</text><text fill="#eeeeee" stroke="none" font-family="Arial" font-size="24px" font-style="normal" font-weight="normal" text-decoration="none" x="800" y="0">UNREGISTERED</text><text fill="#eeeeee" stroke="none" font-family="Arial" font-size="24px" font-style="normal" font-weight="normal" text-decoration="none" x="800" y="30">UNREGISTERED</text><text fill="#eeeeee" stroke="none" font-family="Arial" font-size="24px" font-style="normal" font-weight="normal" text-decoration="none" x="800" y="60">UNREGISTERED</text><text fill="#eeeeee" stroke="none" font-family="Arial" font-size="24px" font-style="normal" font-weight="normal" text-decoration="none" x="800" y="90">UNREGISTERED</text><text fill="#eeeeee" stroke="none" font-family="Arial" font-size="24px" font-style="normal" font-weight="normal" text-decoration="none" x="800" y="120">UNREGISTERED</text><text fill="#eeeeee" stroke="none" font-family="Arial" font-size="24px" font-style="normal" font-weight="normal" text-decoration="none" x="800" y="150">UNREGISTERED</text><text fill="#eeeeee" stroke="none" font-family="Arial" font-size="24px" font-style="normal" font-weight="normal" text-decoration="none" x="800" y="180">UNREGISTERED</text><text fill="#eeeeee" stroke="none" font-family="Arial" font-size="24px" font-style="normal" font-weight="normal" text-decoration="none" x="800" y="210">UNREGISTERED</text><text fill="#eeeeee" stroke="none" font-family="Arial" font-size="24px" font-style="normal" font-weight="normal" text-decoration="none" x="800" y="240">UNREGISTERED</text><text fill="#eeeeee" stroke="none" font-family="Arial" font-size="24px" font-style="normal" font-weight="normal" text-decoration="none" x="800" y="270">UNREGISTERED</text><text fill="#eeeeee" stroke="none" font-family="Arial" font-size="24px" font-style="normal" font-weight="normal" text-decoration="none" x="800" y="300">UNREGISTERED</text><text fill="#eeeeee" stroke="none" font-family="Arial" font-size="24px" font-style="normal" font-weight="normal" text-decoration="none" x="800" y="330">UNREGISTERED</text><text fill="#eeeeee" stroke="none" font-family="Arial" font-size="24px" font-style="normal" font-weight="normal" text-decoration="none" x="800" y="360">UNREGISTERED</text><text fill="#eeeeee" stroke="none" font-family="Arial" font-size="24px" font-style="normal" font-weight="normal" text-decoration="none" x="800" y="390">UNREGISTERED</text><text fill="#eeeeee" stroke="none" font-family="Arial" font-size="24px" font-style="normal" font-weight="normal" text-decoration="none" x="800" y="420">UNREGISTERED</text><text fill="#eeeeee" stroke="none" font-family="Arial" font-size="24px" font-style="normal" font-weight="normal" text-decoration="none" x="800" y="450">UNREGISTERED</text><text fill="#eeeeee" stroke="none" font-family="Arial" font-size="24px" font-style="normal" font-weight="normal" text-decoration="none" x="800" y="480">UNREGISTERED</text><text fill="#eeeeee" stroke="none" font-family="Arial" font-size="24px" font-style="normal" font-weight="normal" text-decoration="none" x="800" y="510">UNREGISTERED</text><text fill="#eeeeee" stroke="none" font-family="Arial" font-size="24px" font-style="normal" font-weight="normal" text-decoration="none" x="800" y="540">UNREGISTERED</text><g transform="translate(-94,-30) scale(1,1)"><path fill="none" stroke="#000000" d="M 240 40 L 800 40 L 800 576 L 240 576 L 240 40" stroke-miterlimit="10"/></g><g transform="translate(-94,-30) scale(1,1)"><path fill="#ffffff" stroke="none" d="M 240 40 L 240 62 L 306.5908203125 62 L 317.5908203125 51 L 317.5908203125 40 L 240 40"/></g><g transform="translate(-94,-30) scale(1,1)"><path fill="none" stroke="#000000" d="M 240 40 L 240 62 L 306.5908203125 62 L 317.5908203125 51 L 317.5908203125 40 L 240 40 L 240 40" stroke-miterlimit="10"/></g><g transform="translate(-94,-30) scale(1,1)"><g><path fill="none" stroke="none"/><text fill="#000000" stroke="none" font-family="Arial" font-size="13px" font-style="normal" font-weight="normal" text-decoration="none" x="271.9599609375" y="57.5">Book</text></g></g><g transform="translate(-94,-30) scale(1,1)"><g><path fill="none" stroke="none"/><text fill="#000000" stroke="none" font-family="Arial" font-size="13px" font-style="normal" font-weight="bold" text-decoration="none" x="245" y="57.5">pkg</text></g></g><g transform="translate(-94,-30) scale(1,1)"><path fill="#ffffff" stroke="none" d="M 130.52751438210228 249.68 C 130.52751438210228 244.886167936 134.41335670704774 241 139.206787109375 241 C 144.00021751170226 241 147.88605983664772 244.886167936 147.88605983664772 249.68 C 147.88605983664772 254.47383206400002 144.00021751170226 258.36 139.206787109375 258.36 C 134.41335670704774 258.36 130.52751438210228 254.47383206400002 130.52751438210228 249.68 Z"/></g><g transform="translate(-94,-30) scale(1,1)"><path fill="none" stroke="#000000" d="M 130.52751438210228 249.68 C 130.52751438210228 244.886167936 134.41335670704774 241 139.206787109375 241 C 144.00021751170226 241 147.88605983664772 244.886167936 147.88605983664772 249.68 C 147.88605983664772 254.47383206400002 144.00021751170226 258.36 139.206787109375 258.36 C 134.41335670704774 258.36 130.52751438210228 254.47383206400002 130.52751438210228 249.68 Z" stroke-miterlimit="10"/></g><g transform="translate(-94,-30) scale(1,1)"><path fill="none" stroke="#000000" d="M 139.206787109375 258.36 L 139.206787109375 275.64" stroke-miterlimit="10"/></g><g transform="translate(-94,-30) scale(1,1)"><path fill="none" stroke="#000000" d="M 130.01696892755683 264.84 L 148.39660529119317 264.84" stroke-miterlimit="10"/></g><g transform="translate(-94,-30) scale(1,1)"><path fill="none" stroke="#000000" d="M 139.206787109375 275.64 L 126.44315074573865 293" stroke-miterlimit="10"/></g><g transform="translate(-94,-30) scale(1,1)"><path fill="none" stroke="#000000" d="M 139.206787109375 275.64 L 151.97042347301135 293" stroke-miterlimit="10"/></g><g transform="translate(-94,-30) scale(1,1)"><g><path fill="none" stroke="none"/><text fill="#000000" stroke="none" font-family="Arial" font-size="13px" font-style="normal" font-weight="bold" text-decoration="none" x="110.302734375" y="313.5">Employee</text></g></g><g transform="translate(-94,-30) scale(1,1)"><path fill="#C0C0C0" stroke="none" d="M 439 304 C 439 294.6111584 467.6537728 287 503 287 C 538.3462272 287 567 294.6111584 567 304 C 567 313.3888416 538.3462272 321 503 321 C 467.6537728 321 439 313.3888416 439 304 Z" opacity="0.2"/></g><g transform="translate(-94,-30) scale(1,1)"><path fill="#ffffff" stroke="none" d="M 432 297 C 432 287.6111584 460.6537728 280 496 280 C 531.3462272 280 560 287.6111584 560 297 C 560 306.3888416 531.3462272 314 496 314 C 460.6537728 314 432 306.3888416 432 297 Z"/></g><g transform="translate(-94,-30) scale(1,1)"><path fill="none" stroke="#000000" d="M 432 297 C 432 287.6111584 460.6537728 280 496 280 C 531.3462272 280 560 287.6111584 560 297 C 560 306.3888416 531.3462272 314 496 314 C 460.6537728 314 432 306.3888416 432 297 Z" stroke-miterlimit="10"/></g><g transform="translate(-94,-30) scale(1,1)"><g><path fill="none" stroke="none"/><text fill="#000000" stroke="none" font-family="Arial" font-size="13px" font-style="normal" font-weight="bold" text-decoration="none" x="458.41552734375" y="304">Bookkeeping</text></g></g><g transform="translate(-94,-30) scale(1,1)"><path fill="none" stroke="#000000" d="M 175 281 L 431 294" stroke-miterlimit="10"/></g><g transform="translate(-94,-30) scale(1,1)"><path fill="#C0C0C0" stroke="none" d="M 383 208 C 383 198.6111584 408.9674816 191 441 191 C 473.0325184 191 499 198.6111584 499 208 C 499 217.3888416 473.0325184 225 441 225 C 408.9674816 225 383 217.3888416 383 208 Z" opacity="0.2"/></g><g transform="translate(-94,-30) scale(1,1)"><path fill="#ffffff" stroke="none" d="M 376 201 C 376 191.6111584 401.9674816 184 434 184 C 466.0325184 184 492 191.6111584 492 201 C 492 210.3888416 466.0325184 218 434 218 C 401.9674816 218 376 210.3888416 376 201 Z"/></g><g transform="translate(-94,-30) scale(1,1)"><path fill="none" stroke="#000000" d="M 376 201 C 376 191.6111584 401.9674816 184 434 184 C 466.0325184 184 492 191.6111584 492 201 C 492 210.3888416 466.0325184 218 434 218 C 401.9674816 218 376 210.3888416 376 201 Z" stroke-miterlimit="10"/></g><g transform="translate(-94,-30) scale(1,1)"><g><path fill="none" stroke="none"/><text fill="#000000" stroke="none" font-family="Arial" font-size="13px" font-style="normal" font-weight="bold" text-decoration="none" x="402.56005859375" y="208">book detail</text></g></g><g transform="translate(-94,-30) scale(1,1)"><path fill="none" stroke="#000000" d="M 484 279 L 446 219" stroke-miterlimit="10" stroke-dasharray="3"/></g><g transform="translate(-94,-30) scale(1,1)"><path fill="none" stroke="#000000" d="M 454.99384123213815 225.33331034223744 L 446 219 L 447.8812794338051 229.83793281451506" stroke-miterlimit="10"/></g><g transform="translate(-94,-30) scale(1,1)"><g><path fill="none" stroke="none"/><text fill="#000000" stroke="none" font-family="Arial" font-size="13px" font-style="normal" font-weight="normal" text-decoration="none" x="411.5" y="271.5">«include»</text></g></g><g transform="translate(-94,-30) scale(1,1)"><path fill="#C0C0C0" stroke="none" d="M 479 136 C 479 126.6111584 504.0720512 119 535 119 C 565.9279488 119 591 126.6111584 591 136 C 591 145.3888416 565.9279488 153 535 153 C 504.0720512 153 479 145.3888416 479 136 Z" opacity="0.2"/></g><g transform="translate(-94,-30) scale(1,1)"><path fill="#ffffff" stroke="none" d="M 472 129 C 472 119.6111584 497.0720512 112 528 112 C 558.9279488 112 584 119.6111584 584 129 C 584 138.3888416 558.9279488 146 528 146 C 497.0720512 146 472 138.3888416 472 129 Z"/></g><g transform="translate(-94,-30) scale(1,1)"><path fill="none" stroke="#000000" d="M 472 129 C 472 119.6111584 497.0720512 112 528 112 C 558.9279488 112 584 119.6111584 584 129 C 584 138.3888416 558.9279488 146 528 146 C 497.0720512 146 472 138.3888416 472 129 Z" stroke-miterlimit="10"/></g><g transform="translate(-94,-30) scale(1,1)"><g><path fill="none" stroke="none"/><text fill="#000000" stroke="none" font-family="Arial" font-size="13px" font-style="normal" font-weight="bold" text-decoration="none" x="496.20458984375" y="136">transaction</text></g></g><g transform="translate(-94,-30) scale(1,1)"><path fill="none" stroke="#000000" d="M 458 183 L 505 147" stroke-miterlimit="10" stroke-dasharray="3"/></g><g transform="translate(-94,-30) scale(1,1)"><path fill="none" stroke="#000000" d="M 499.49178493968526 156.52153174911064 L 505 147 L 494.37236411153845 149.83784344569673" stroke-miterlimit="10"/></g><g transform="translate(-94,-30) scale(1,1)"><g><path fill="none" stroke="none"/><text fill="#000000" stroke="none" font-family="Arial" font-size="13px" font-style="normal" font-weight="normal" text-decoration="none" x="423.5" y="172.5">«include»</text></g></g><g transform="translate(-94,-30) scale(1,1)"><path fill="none" stroke="#000000" d="M 175 269 L 375 217" stroke-miterlimit="10"/></g><g transform="translate(-94,-30) scale(1,1)"><path fill="#C0C0C0" stroke="none" d="M 383 392 C 383 382.6111584 405.6096176 375 433.5 375 C 461.3903824 375 484 382.6111584 484 392 C 484 401.3888416 461.3903824 409 433.5 409 C 405.6096176 409 383 401.3888416 383 392 Z" opacity="0.2"/></g><g transform="translate(-94,-30) scale(1,1)"><path fill="#ffffff" stroke="none" d="M 376 385 C 376 375.6111584 398.6096176 368 426.5 368 C 454.3903824 368 477 375.6111584 477 385 C 477 394.3888416 454.3903824 402 426.5 402 C 398.6096176 402 376 394.3888416 376 385 Z"/></g><g transform="translate(-94,-30) scale(1,1)"><path fill="none" stroke="#000000" d="M 376 385 C 376 375.6111584 398.6096176 368 426.5 368 C 454.3903824 368 477 375.6111584 477 385 C 477 394.3888416 454.3903824 402 426.5 402 C 398.6096176 402 376 394.3888416 376 385 Z" stroke-miterlimit="10"/></g><g transform="translate(-94,-30) scale(1,1)"><g><path fill="none" stroke="none"/><text fill="#000000" stroke="none" font-family="Arial" font-size="13px" font-style="normal" font-weight="bold" text-decoration="none" x="402.2900390625" y="392">Approve</text></g></g><g transform="translate(-94,-30) scale(1,1)"><path fill="#C0C0C0" stroke="none" d="M 535 456 C 535 446.6111584 562.0867696 439 595.5 439 C 628.9132304 439 656 446.6111584 656 456 C 656 465.3888416 628.9132304 473 595.5 473 C 562.0867696 473 535 465.3888416 535 456 Z" opacity="0.2"/></g><g transform="translate(-94,-30) scale(1,1)"><path fill="#ffffff" stroke="none" d="M 528 449 C 528 439.6111584 555.0867696 432 588.5 432 C 621.9132304 432 649 439.6111584 649 449 C 649 458.3888416 621.9132304 466 588.5 466 C 555.0867696 466 528 458.3888416 528 449 Z"/></g><g transform="translate(-94,-30) scale(1,1)"><path fill="none" stroke="#000000" d="M 528 449 C 528 439.6111584 555.0867696 432 588.5 432 C 621.9132304 432 649 439.6111584 649 449 C 649 458.3888416 621.9132304 466 588.5 466 C 555.0867696 466 528 458.3888416 528 449 Z" stroke-miterlimit="10"/></g><g transform="translate(-94,-30) scale(1,1)"><g><path fill="none" stroke="none"/><text fill="#000000" stroke="none" font-family="Arial" font-size="13px" font-style="normal" font-weight="bold" text-decoration="none" x="553.08642578125" y="456">line approve</text></g></g><g transform="translate(-94,-30) scale(1,1)"><path fill="none" stroke="#000000" d="M 472 403 L 542 431" stroke-miterlimit="10" stroke-dasharray="3"/></g><g transform="translate(-94,-30) scale(1,1)"><path fill="none" stroke="#000000" d="M 531.0008176311189 431.13411642738856 L 542 431 L 534.1275689241817 423.31723819473166" stroke-miterlimit="10"/></g><g transform="translate(-94,-30) scale(1,1)"><g><path fill="none" stroke="none"/><text fill="#000000" stroke="none" font-family="Arial" font-size="13px" font-style="normal" font-weight="normal" text-decoration="none" x="500.5" y="409.5">«include»</text></g></g><g transform="translate(-94,-30) scale(1,1)"><path fill="none" stroke="#000000" d="M 440 367 L 482 315" stroke-miterlimit="10" stroke-dasharray="3"/></g><g transform="translate(-94,-30) scale(1,1)"><path fill="none" stroke="#000000" d="M 478.88917149089195 325.5509594818159 L 482 315 L 472.3396570684847 320.26096706371777" stroke-miterlimit="10"/></g><g transform="translate(-94,-30) scale(1,1)"><g><path fill="none" stroke="none"/><text fill="#000000" stroke="none" font-family="Arial" font-size="13px" font-style="normal" font-weight="normal" text-decoration="none" x="399.5" y="348.5">«include»</text></g></g><g transform="translate(-94,-30) scale(1,1)"><path fill="#C0C0C0" stroke="none" d="M 663 344 C 663 334.6111584 685.6096176 327 713.5 327 C 741.3903824 327 764 334.6111584 764 344 C 764 353.3888416 741.3903824 361 713.5 361 C 685.6096176 361 663 353.3888416 663 344 Z" opacity="0.2"/></g><g transform="translate(-94,-30) scale(1,1)"><path fill="#ffffff" stroke="none" d="M 656 337 C 656 327.6111584 678.6096176 320 706.5 320 C 734.3903824 320 757 327.6111584 757 337 C 757 346.3888416 734.3903824 354 706.5 354 C 678.6096176 354 656 346.3888416 656 337 Z"/></g><g transform="translate(-94,-30) scale(1,1)"><path fill="none" stroke="#000000" d="M 656 337 C 656 327.6111584 678.6096176 320 706.5 320 C 734.3903824 320 757 327.6111584 757 337 C 757 346.3888416 734.3903824 354 706.5 354 C 678.6096176 354 656 346.3888416 656 337 Z" stroke-miterlimit="10"/></g><g transform="translate(-94,-30) scale(1,1)"><g><path fill="none" stroke="none"/><text fill="#000000" stroke="none" font-family="Arial" font-size="13px" font-style="normal" font-weight="bold" text-decoration="none" x="686.62548828125" y="344">branch</text></g></g><g transform="translate(-94,-30) scale(1,1)"><path fill="none" stroke="#000000" d="M 607 431 L 687 355" stroke-miterlimit="10" stroke-dasharray="3"/></g><g transform="translate(-94,-30) scale(1,1)"><path fill="none" stroke="#000000" d="M 682.5313695737947 365.05143482861985 L 687 355 L 676.732763395042 358.9476388509854" stroke-miterlimit="10"/></g><g transform="translate(-94,-30) scale(1,1)"><g><path fill="none" stroke="none"/><text fill="#000000" stroke="none" font-family="Arial" font-size="13px" font-style="normal" font-weight="normal" text-decoration="none" x="594.5" y="398.5">«include»</text></g></g><g transform="translate(-94,-30) scale(1,1)"><path fill="#C0C0C0" stroke="none" d="M 615 528 C 615 518.6111584 637.6096176 511 665.5 511 C 693.3903824 511 716 518.6111584 716 528 C 716 537.3888416 693.3903824 545 665.5 545 C 637.6096176 545 615 537.3888416 615 528 Z" opacity="0.2"/></g><g transform="translate(-94,-30) scale(1,1)"><path fill="#ffffff" stroke="none" d="M 608 521 C 608 511.6111584 630.6096176 504 658.5 504 C 686.3903824 504 709 511.6111584 709 521 C 709 530.3888416 686.3903824 538 658.5 538 C 630.6096176 538 608 530.3888416 608 521 Z"/></g><g transform="translate(-94,-30) scale(1,1)"><path fill="none" stroke="#000000" d="M 608 521 C 608 511.6111584 630.6096176 504 658.5 504 C 686.3903824 504 709 511.6111584 709 521 C 709 530.3888416 686.3903824 538 658.5 538 C 630.6096176 538 608 530.3888416 608 521 Z" stroke-miterlimit="10"/></g><g transform="translate(-94,-30) scale(1,1)"><g><path fill="none" stroke="none"/><text fill="#000000" stroke="none" font-family="Arial" font-size="13px" font-style="normal" font-weight="bold" text-decoration="none" x="645.85546875" y="528">user</text></g></g><g transform="translate(-94,-30) scale(1,1)"><path fill="none" stroke="#000000" d="M 606 467 L 641 503" stroke-miterlimit="10" stroke-dasharray="3"/></g><g transform="translate(-94,-30) scale(1,1)"><path fill="none" stroke="#000000" d="M 630.8976160969777 498.64777763941726 L 641 503 L 636.9340217804229 492.77904989162334" stroke-miterlimit="10"/></g><g transform="translate(-94,-30) scale(1,1)"><g><path fill="none" stroke="none"/><text fill="#000000" stroke="none" font-family="Arial" font-size="13px" font-style="normal" font-weight="normal" text-decoration="none" x="616.5" y="484.5">«include»</text></g></g><g transform="translate(-94,-30) scale(1,1)"><path fill="none" stroke="#000000" d="M 175 292 L 377 367" stroke-miterlimit="10"/></g><g transform="translate(-94,-30) scale(1,1)"><path fill="none" stroke="#000000" d="M 175 304 L 374 440 L 527 446" stroke-miterlimit="10"/></g><g transform="translate(-94,-30) scale(1,1)"><path fill="none" stroke="#000000" d="M 175 308 L 360 456 L 607 510" stroke-miterlimit="10"/></g><g transform="translate(-94,-30) scale(1,1)"><path fill="none" stroke="#000000" d="M 175 255 L 368 128 L 471 129" stroke-miterlimit="10"/></g><g transform="translate(-94,-30) scale(1,1)"><path fill="none" stroke="#000000" d="M 561 309 L 655 327" stroke-miterlimit="10" stroke-dasharray="3"/></g><g transform="translate(-94,-30) scale(1,1)"><path fill="none" stroke="#000000" d="M 644.2269825617769 329.22308238168125 L 655 327 L 645.8103696883684 320.9542829428147" stroke-miterlimit="10"/></g><g transform="translate(-94,-30) scale(1,1)"><g><path fill="none" stroke="none"/><text fill="#000000" stroke="none" font-family="Arial" font-size="13px" font-style="normal" font-weight="normal" text-decoration="none" x="583.5" y="308.5">«include»</text></g></g><g transform="translate(-94,-30) scale(1,1)"><path fill="#ffffff" stroke="none" d="M 936.2416257102273 345.68 C 936.2416257102273 340.886167936 940.1274680351727 337 944.9208984375 337 C 949.7143288398273 337 953.6001711647727 340.886167936 953.6001711647727 345.68 C 953.6001711647727 350.473832064 949.7143288398273 354.36 944.9208984375 354.36 C 940.1274680351727 354.36 936.2416257102273 350.473832064 936.2416257102273 345.68 Z"/></g><g transform="translate(-94,-30) scale(1,1)"><path fill="none" stroke="#000000" d="M 936.2416257102273 345.68 C 936.2416257102273 340.886167936 940.1274680351727 337 944.9208984375 337 C 949.7143288398273 337 953.6001711647727 340.886167936 953.6001711647727 345.68 C 953.6001711647727 350.473832064 949.7143288398273 354.36 944.9208984375 354.36 C 940.1274680351727 354.36 936.2416257102273 350.473832064 936.2416257102273 345.68 Z" stroke-miterlimit="10"/></g><g transform="translate(-94,-30) scale(1,1)"><path fill="none" stroke="#000000" d="M 944.9208984375 354.36 L 944.9208984375 371.64" stroke-miterlimit="10"/></g><g transform="translate(-94,-30) scale(1,1)"><path fill="none" stroke="#000000" d="M 935.7310802556818 360.84 L 954.1107166193182 360.84" stroke-miterlimit="10"/></g><g transform="translate(-94,-30) scale(1,1)"><path fill="none" stroke="#000000" d="M 944.9208984375 371.64 L 932.1572620738636 389" stroke-miterlimit="10"/></g><g transform="translate(-94,-30) scale(1,1)"><path fill="none" stroke="#000000" d="M 944.9208984375 371.64 L 957.6845348011364 389" stroke-miterlimit="10"/></g><g transform="translate(-94,-30) scale(1,1)"><g><path fill="none" stroke="none"/><text fill="#000000" stroke="none" font-family="Arial" font-size="13px" font-style="normal" font-weight="bold" text-decoration="none" x="904.095947265625" y="409.5">Admin Branch</text></g></g><g transform="translate(-94,-30) scale(1,1)"><path fill="none" stroke="#000000" d="M 895 385 L 650 436" stroke-miterlimit="10"/></g><g transform="translate(-94,-30) scale(1,1)"><path fill="none" stroke="#000000" d="M 895 400 L 693 503" stroke-miterlimit="10"/></g><g transform="translate(-94,-30) scale(1,1)"><path fill="#C0C0C0" stroke="none" d="M 575 208 C 575 198.6111584 597.6096176 191 625.5 191 C 653.3903824 191 676 198.6111584 676 208 C 676 217.3888416 653.3903824 225 625.5 225 C 597.6096176 225 575 217.3888416 575 208 Z" opacity="0.2"/></g><g transform="translate(-94,-30) scale(1,1)"><path fill="#ffffff" stroke="none" d="M 568 201 C 568 191.6111584 590.6096176 184 618.5 184 C 646.3903824 184 669 191.6111584 669 201 C 669 210.3888416 646.3903824 218 618.5 218 C 590.6096176 218 568 210.3888416 568 201 Z"/></g><g transform="translate(-94,-30) scale(1,1)"><path fill="none" stroke="#000000" d="M 568 201 C 568 191.6111584 590.6096176 184 618.5 184 C 646.3903824 184 669 191.6111584 669 201 C 669 210.3888416 646.3903824 218 618.5 218 C 590.6096176 218 568 210.3888416 568 201 Z" stroke-miterlimit="10"/></g><g transform="translate(-94,-30) scale(1,1)"><g><path fill="none" stroke="none"/><text fill="#000000" stroke="none" font-family="Arial" font-size="13px" font-style="normal" font-weight="bold" text-decoration="none" x="591.049560546875" y="208">print PDF</text></g></g><g transform="translate(-94,-30) scale(1,1)"><path fill="none" stroke="#000000" d="M 595 219 L 519 279" stroke-miterlimit="10"/></g><g transform="translate(-94,-30) scale(1,1)"><path fill="#FFFFFF" stroke="none" d="M 529.7362094245635 259.79755725976736 L 519 279 L 540.1698239653127 273.01346901138294"/></g><g transform="translate(-94,-30) scale(1,1)"><path fill="none" stroke="#000000" d="M 529.7362094245635 259.79755725976736 L 519 279 L 540.1698239653127 273.01346901138294 L 529.7362094245635 259.79755725976736" stroke-miterlimit="10"/></g></g></svg>