<svg version="1.1" xmlns="http://www.w3.org/2000/svg" xmlns:xlink="http://www.w3.org/1999/xlink" width="782.0908203125" height="597"><defs/><g><text fill="#eeeeee" stroke="none" font-family="Arial" font-size="24px" font-style="normal" font-weight="normal" text-decoration="none" x="0" y="0">UNREGISTERED</text><text fill="#eeeeee" stroke="none" font-family="Arial" font-size="24px" font-style="normal" font-weight="normal" text-decoration="none" x="0" y="30">UNREGISTERED</text><text fill="#eeeeee" stroke="none" font-family="Arial" font-size="24px" font-style="normal" font-weight="normal" text-decoration="none" x="0" y="60">UNREGISTERED</text><text fill="#eeeeee" stroke="none" font-family="Arial" font-size="24px" font-style="normal" font-weight="normal" text-decoration="none" x="0" y="90">UNREGISTERED</text><text fill="#eeeeee" stroke="none" font-family="Arial" font-size="24px" font-style="normal" font-weight="normal" text-decoration="none" x="0" y="120">UNREGISTERED</text><text fill="#eeeeee" stroke="none" font-family="Arial" font-size="24px" font-style="normal" font-weight="normal" text-decoration="none" x="0" y="150">UNREGISTERED</text><text fill="#eeeeee" stroke="none" font-family="Arial" font-size="24px" font-style="normal" font-weight="normal" text-decoration="none" x="0" y="180">UNREGISTERED</text><text fill="#eeeeee" stroke="none" font-family="Arial" font-size="24px" font-style="normal" font-weight="normal" text-decoration="none" x="0" y="210">UNREGISTERED</text><text fill="#eeeeee" stroke="none" font-family="Arial" font-size="24px" font-style="normal" font-weight="normal" text-decoration="none" x="0" y="240">UNREGISTERED</text><text fill="#eeeeee" stroke="none" font-family="Arial" font-size="24px" font-style="normal" font-weight="normal" text-decoration="none" x="0" y="270">UNREGISTERED</text><text fill="#eeeeee" stroke="none" font-family="Arial" font-size="24px" font-style="normal" font-weight="normal" text-decoration="none" x="0" y="300">UNREGISTERED</text><text fill="#eeeeee" stroke="none" font-family="Arial" font-size="24px" font-style="normal" font-weight="normal" text-decoration="none" x="0" y="330">UNREGISTERED</text><text fill="#eeeeee" stroke="none" font-family="Arial" font-size="24px" font-style="normal" font-weight="normal" text-decoration="none" x="0" y="360">UNREGISTERED</text><text fill="#eeeeee" stroke="none" font-family="Arial" font-size="24px" font-style="normal" font-weight="normal" text-decoration="none" x="0" y="390">UNREGISTERED</text><text fill="#eeeeee" stroke="none" font-family="Arial" font-size="24px" font-style="normal" font-weight="normal" text-decoration="none" x="0" y="420">UNREGISTERED</text><text fill="#eeeeee" stroke="none" font-family="Arial" font-size="24px" font-style="normal" font-weight="normal" text-decoration="none" x="0" y="450">UNREGISTERED</text><text fill="#eeeeee" stroke="none" font-family="Arial" font-size="24px" font-style="normal" font-weight="normal" text-decoration="none" x="0" y="480">UNREGISTERED</text><text fill="#eeeeee" stroke="none" font-family="Arial" font-size="24px" font-style="normal" font-weight="normal" text-decoration="none" x="0" y="510">UNREGISTERED</text><text fill="#eeeeee" stroke="none" font-family="Arial" font-size="24px" font-style="normal" font-weight="normal" text-decoration="none" x="0" y="540">UNREGISTERED</text><text fill="#eeeeee" stroke="none" font-family="Arial" font-size="24px" font-style="normal" font-weight="normal" text-decoration="none" x="0" y="570">UNREGISTERED</text><text fill="#eeeeee" stroke="none" font-family="Arial" font-size="24px" font-style="normal" font-weight="normal" text-decoration="none" x="200" y="0">UNREGISTERED</text><text fill="#eeeeee" stroke="none" font-family="Arial" font-size="24px" font-style="normal" font-weight="normal" text-decoration="none" x="200" y="30">UNREGISTERED</text><text fill="#eeeeee" stroke="none" font-family="Arial" font-size="24px" font-style="normal" font-weight="normal" text-decoration="none" x="200" y="60">UNREGISTERED</text><text fill="#eeeeee" stroke="none" font-family="Arial" font-size="24px" font-style="normal" font-weight="normal" text-decoration="none" x="200" y="90">UNREGISTERED</text><text fill="#eeeeee" stroke="none" font-family="Arial" font-size="24px" font-style="normal" font-weight="normal" text-decoration="none" x="200" y="120">UNREGISTERED</text><text fill="#eeeeee" stroke="none" font-family="Arial" font-size="24px" font-style="normal" font-weight="normal" text-decoration="none" x="200" y="150">UNREGISTERED</text><text fill="#eeeeee" stroke="none" font-family="Arial" font-size="24px" font-style="normal" font-weight="normal" text-decoration="none" x="200" y="180">UNREGISTERED</text><text fill="#eeeeee" stroke="none" font-family="Arial" font-size="24px" font-style="normal" font-weight="normal" text-decoration="none" x="200" y="210">UNREGISTERED</text><text fill="#eeeeee" stroke="none" font-family="Arial" font-size="24px" font-style="normal" font-weight="normal" text-decoration="none" x="200" y="240">UNREGISTERED</text><text fill="#eeeeee" stroke="none" font-family="Arial" font-size="24px" font-style="normal" font-weight="normal" text-decoration="none" x="200" y="270">UNREGISTERED</text><text fill="#eeeeee" stroke="none" font-family="Arial" font-size="24px" font-style="normal" font-weight="normal" text-decoration="none" x="200" y="300">UNREGISTERED</text><text fill="#eeeeee" stroke="none" font-family="Arial" font-size="24px" font-style="normal" font-weight="normal" text-decoration="none" x="200" y="330">UNREGISTERED</text><text fill="#eeeeee" stroke="none" font-family="Arial" font-size="24px" font-style="normal" font-weight="normal" text-decoration="none" x="200" y="360">UNREGISTERED</text><text fill="#eeeeee" stroke="none" font-family="Arial" font-size="24px" font-style="normal" font-weight="normal" text-decoration="none" x="200" y="390">UNREGISTERED</text><text fill="#eeeeee" stroke="none" font-family="Arial" font-size="24px" font-style="normal" font-weight="normal" text-decoration="none" x="200" y="420">UNREGISTERED</text><text fill="#eeeeee" stroke="none" font-family="Arial" font-size="24px" font-style="normal" font-weight="normal" text-decoration="none" x="200" y="450">UNREGISTERED</text><text fill="#eeeeee" stroke="none" font-family="Arial" font-size="24px" font-style="normal" font-weight="normal" text-decoration="none" x="200" y="480">UNREGISTERED</text><text fill="#eeeeee" stroke="none" font-family="Arial" font-size="24px" font-style="normal" font-weight="normal" text-decoration="none" x="200" y="510">UNREGISTERED</text><text fill="#eeeeee" stroke="none" font-family="Arial" font-size="24px" font-style="normal" font-weight="normal" text-decoration="none" x="200" y="540">UNREGISTERED</text><text fill="#eeeeee" stroke="none" font-family="Arial" font-size="24px" font-style="normal" font-weight="normal" text-decoration="none" x="200" y="570">UNREGISTERED</text><text fill="#eeeeee" stroke="none" font-family="Arial" font-size="24px" font-style="normal" font-weight="normal" text-decoration="none" x="400" y="0">UNREGISTERED</text><text fill="#eeeeee" stroke="none" font-family="Arial" font-size="24px" font-style="normal" font-weight="normal" text-decoration="none" x="400" y="30">UNREGISTERED</text><text fill="#eeeeee" stroke="none" font-family="Arial" font-size="24px" font-style="normal" font-weight="normal" text-decoration="none" x="400" y="60">UNREGISTERED</text><text fill="#eeeeee" stroke="none" font-family="Arial" font-size="24px" font-style="normal" font-weight="normal" text-decoration="none" x="400" y="90">UNREGISTERED</text><text fill="#eeeeee" stroke="none" font-family="Arial" font-size="24px" font-style="normal" font-weight="normal" text-decoration="none" x="400" y="120">UNREGISTERED</text><text fill="#eeeeee" stroke="none" font-family="Arial" font-size="24px" font-style="normal" font-weight="normal" text-decoration="none" x="400" y="150">UNREGISTERED</text><text fill="#eeeeee" stroke="none" font-family="Arial" font-size="24px" font-style="normal" font-weight="normal" text-decoration="none" x="400" y="180">UNREGISTERED</text><text fill="#eeeeee" stroke="none" font-family="Arial" font-size="24px" font-style="normal" font-weight="normal" text-decoration="none" x="400" y="210">UNREGISTERED</text><text fill="#eeeeee" stroke="none" font-family="Arial" font-size="24px" font-style="normal" font-weight="normal" text-decoration="none" x="400" y="240">UNREGISTERED</text><text fill="#eeeeee" stroke="none" font-family="Arial" font-size="24px" font-style="normal" font-weight="normal" text-decoration="none" x="400" y="270">UNREGISTERED</text><text fill="#eeeeee" stroke="none" font-family="Arial" font-size="24px" font-style="normal" font-weight="normal" text-decoration="none" x="400" y="300">UNREGISTERED</text><text fill="#eeeeee" stroke="none" font-family="Arial" font-size="24px" font-style="normal" font-weight="normal" text-decoration="none" x="400" y="330">UNREGISTERED</text><text fill="#eeeeee" stroke="none" font-family="Arial" font-size="24px" font-style="normal" font-weight="normal" text-decoration="none" x="400" y="360">UNREGISTERED</text><text fill="#eeeeee" stroke="none" font-family="Arial" font-size="24px" font-style="normal" font-weight="normal" text-decoration="none" x="400" y="390">UNREGISTERED</text><text fill="#eeeeee" stroke="none" font-family="Arial" font-size="24px" font-style="normal" font-weight="normal" text-decoration="none" x="400" y="420">UNREGISTERED</text><text fill="#eeeeee" stroke="none" font-family="Arial" font-size="24px" font-style="normal" font-weight="normal" text-decoration="none" x="400" y="450">UNREGISTERED</text><text fill="#eeeeee" stroke="none" font-family="Arial" font-size="24px" font-style="normal" font-weight="normal" text-decoration="none" x="400" y="480">UNREGISTERED</text><text fill="#eeeeee" stroke="none" font-family="Arial" font-size="24px" font-style="normal" font-weight="normal" text-decoration="none" x="400" y="510">UNREGISTERED</text><text fill="#eeeeee" stroke="none" font-family="Arial" font-size="24px" font-style="normal" font-weight="normal" text-decoration="none" x="400" y="540">UNREGISTERED</text><text fill="#eeeeee" stroke="none" font-family="Arial" font-size="24px" font-style="normal" font-weight="normal" text-decoration="none" x="400" y="570">UNREGISTERED</text><text fill="#eeeeee" stroke="none" font-family="Arial" font-size="24px" font-style="normal" font-weight="normal" text-decoration="none" x="600" y="0">UNREGISTERED</text><text fill="#eeeeee" stroke="none" font-family="Arial" font-size="24px" font-style="normal" font-weight="normal" text-decoration="none" x="600" y="30">UNREGISTERED</text><text fill="#eeeeee" stroke="none" font-family="Arial" font-size="24px" font-style="normal" font-weight="normal" text-decoration="none" x="600" y="60">UNREGISTERED</text><text fill="#eeeeee" stroke="none" font-family="Arial" font-size="24px" font-style="normal" font-weight="normal" text-decoration="none" x="600" y="90">UNREGISTERED</text><text fill="#eeeeee" stroke="none" font-family="Arial" font-size="24px" font-style="normal" font-weight="normal" text-decoration="none" x="600" y="120">UNREGISTERED</text><text fill="#eeeeee" stroke="none" font-family="Arial" font-size="24px" font-style="normal" font-weight="normal" text-decoration="none" x="600" y="150">UNREGISTERED</text><text fill="#eeeeee" stroke="none" font-family="Arial" font-size="24px" font-style="normal" font-weight="normal" text-decoration="none" x="600" y="180">UNREGISTERED</text><text fill="#eeeeee" stroke="none" font-family="Arial" font-size="24px" font-style="normal" font-weight="normal" text-decoration="none" x="600" y="210">UNREGISTERED</text><text fill="#eeeeee" stroke="none" font-family="Arial" font-size="24px" font-style="normal" font-weight="normal" text-decoration="none" x="600" y="240">UNREGISTERED</text><text fill="#eeeeee" stroke="none" font-family="Arial" font-size="24px" font-style="normal" font-weight="normal" text-decoration="none" x="600" y="270">UNREGISTERED</text><text fill="#eeeeee" stroke="none" font-family="Arial" font-size="24px" font-style="normal" font-weight="normal" text-decoration="none" x="600" y="300">UNREGISTERED</text><text fill="#eeeeee" stroke="none" font-family="Arial" font-size="24px" font-style="normal" font-weight="normal" text-decoration="none" x="600" y="330">UNREGISTERED</text><text fill="#eeeeee" stroke="none" font-family="Arial" font-size="24px" font-style="normal" font-weight="normal" text-decoration="none" x="600" y="360">UNREGISTERED</text><text fill="#eeeeee" stroke="none" font-family="Arial" font-size="24px" font-style="normal" font-weight="normal" text-decoration="none" x="600" y="390">UNREGISTERED</text><text fill="#eeeeee" stroke="none" font-family="Arial" font-size="24px" font-style="normal" font-weight="normal" text-decoration="none" x="600" y="420">UNREGISTERED</text><text fill="#eeeeee" stroke="none" font-family="Arial" font-size="24px" font-style="normal" font-weight="normal" text-decoration="none" x="600" y="450">UNREGISTERED</text><text fill="#eeeeee" stroke="none" font-family="Arial" font-size="24px" font-style="normal" font-weight="normal" text-decoration="none" x="600" y="480">UNREGISTERED</text><text fill="#eeeeee" stroke="none" font-family="Arial" font-size="24px" font-style="normal" font-weight="normal" text-decoration="none" x="600" y="510">UNREGISTERED</text><text fill="#eeeeee" stroke="none" font-family="Arial" font-size="24px" font-style="normal" font-weight="normal" text-decoration="none" x="600" y="540">UNREGISTERED</text><text fill="#eeeeee" stroke="none" font-family="Arial" font-size="24px" font-style="normal" font-weight="normal" text-decoration="none" x="600" y="570">UNREGISTERED</text><g transform="translate(-54,-46) scale(1,1)"><path fill="#C0C0C0" stroke="none" d="M 279 72.5 C 279 67.2532944 283.2532944 63 288.5 63 C 293.7467056 63 298 67.2532944 298 72.5 C 298 77.7467056 293.7467056 82 288.5 82 C 283.2532944 82 279 77.7467056 279 72.5 Z" opacity="0.2"/></g><g transform="translate(-54,-46) scale(1,1)"><path fill="#000000" stroke="none" d="M 272 65.5 C 272 60.2532944 276.2532944 56 281.5 56 C 286.7467056 56 291 60.2532944 291 65.5 C 291 70.7467056 286.7467056 75 281.5 75 C 276.2532944 75 272 70.7467056 272 65.5 Z"/></g><g transform="translate(-54,-46) scale(1,1)"><path fill="#C0C0C0" stroke="none" d="M 185 159 L 265.05078125 159 Q 275.05078125 159 275.05078125 169 L 275.05078125 189 Q 275.05078125 199 265.05078125 199 L 185 199 Q 175 199 175 189 L 175 169 Q 175 159 185 159 Z" opacity="0.2"/></g><g transform="translate(-54,-46) scale(1,1)"><path fill="#ffffff" stroke="none" d="M 178 152 L 258.05078125 152 Q 268.05078125 152 268.05078125 162 L 268.05078125 182 Q 268.05078125 192 258.05078125 192 L 178 192 Q 168 192 168 182 L 168 162 Q 168 152 178 152 Z"/></g><g transform="translate(-54,-46) scale(1,1)"><path fill="none" stroke="#000000" d="M 178 152 L 258.05078125 152 Q 268.05078125 152 268.05078125 162 L 268.05078125 182 Q 268.05078125 192 258.05078125 192 L 178 192 Q 168 192 168 182 L 168 162 Q 168 152 178 152 Z" stroke-miterlimit="10"/></g><g transform="translate(-54,-46) scale(1,1)"><g><path fill="none" stroke="none"/><text fill="#000000" stroke="none" font-family="Arial" font-size="13px" font-style="normal" font-weight="bold" text-decoration="none" x="176.851318359375" y="171.5">register striker</text></g></g><g transform="translate(-54,-46) scale(1,1)"><path fill="#C0C0C0" stroke="none" d="M 242 111 L 331 111 Q 334 111 334 114 L 334 113 Q 334 116 331 116 L 242 116 Q 239 116 239 113 L 239 114 Q 239 111 242 111 Z" opacity="0.2"/></g><g transform="translate(-54,-46) scale(1,1)"><path fill="#000000" stroke="none" d="M 235 104 L 324 104 Q 327 104 327 107 L 327 107 Q 327 110 324 110 L 235 110 Q 232 110 232 107 L 232 107 Q 232 104 235 104 Z"/></g><g transform="translate(-54,-46) scale(1,1)"><path fill="none" stroke="#000000" d="M 280 76 L 279 103" stroke-miterlimit="10"/></g><g transform="translate(-54,-46) scale(1,1)"><path fill="none" stroke="#000000" d="M 275.1695039351113 92.68848702193164 L 279 103 L 283.58277100829406 93.00008950612359" stroke-miterlimit="10"/></g><g transform="translate(-54,-46) scale(1,1)"><path fill="#C0C0C0" stroke="none" d="M 329 159 L 413 159 Q 423 159 423 169 L 423 189 Q 423 199 413 199 L 329 199 Q 319 199 319 189 L 319 169 Q 319 159 329 159 Z" opacity="0.2"/></g><g transform="translate(-54,-46) scale(1,1)"><path fill="#ffffff" stroke="none" d="M 322 152 L 406 152 Q 416 152 416 162 L 416 182 Q 416 192 406 192 L 322 192 Q 312 192 312 182 L 312 162 Q 312 152 322 152 Z"/></g><g transform="translate(-54,-46) scale(1,1)"><path fill="none" stroke="#000000" d="M 322 152 L 406 152 Q 416 152 416 162 L 416 182 Q 416 192 406 192 L 322 192 Q 312 192 312 182 L 312 162 Q 312 152 322 152 Z" stroke-miterlimit="10"/></g><g transform="translate(-54,-46) scale(1,1)"><g><path fill="none" stroke="none"/><text fill="#000000" stroke="none" font-family="Arial" font-size="13px" font-style="normal" font-weight="bold" text-decoration="none" x="329.32275390625" y="171.5">Stock Stiker</text></g></g><g transform="translate(-54,-46) scale(1,1)"><path fill="none" stroke="#000000" d="M 275 110 L 237 151" stroke-miterlimit="10"/></g><g transform="translate(-54,-46) scale(1,1)"><path fill="none" stroke="#000000" d="M 240.8208394153005 140.6849049368178 L 237 151 L 246.99561512814387 146.40786779262382" stroke-miterlimit="10"/></g><g transform="translate(-54,-46) scale(1,1)"><path fill="none" stroke="#000000" d="M 284 110 L 337 151" stroke-miterlimit="10"/></g><g transform="translate(-54,-46) scale(1,1)"><path fill="none" stroke="#000000" d="M 326.3860777390088 148.11128848140987 L 337 151 L 331.53745109795307 141.4521960905795" stroke-miterlimit="10"/></g><g transform="translate(-54,-46) scale(1,1)"><rect fill="#C0C0C0" stroke="none" x="183" y="223" width="89.18359375" height="32" opacity="0.2"/></g><g transform="translate(-54,-46) scale(1,1)"><rect fill="#ffffff" stroke="none" x="176" y="216" width="89.18359375" height="32"/></g><g transform="translate(-54,-46) scale(1,1)"><path fill="none" stroke="#000000" d="M 176 216 L 265.18359375 216 L 265.18359375 248 L 176 248 L 176 216 Z Z" stroke-miterlimit="10"/></g><g transform="translate(-54,-46) scale(1,1)"><rect fill="#ffffff" stroke="none" x="176" y="216" width="89.18359375" height="32"/></g><g transform="translate(-54,-46) scale(1,1)"><path fill="none" stroke="#000000" d="M 176 216 L 265.18359375 216 L 265.18359375 248 L 176 248 L 176 216 Z Z" stroke-miterlimit="10"/></g><g transform="translate(-54,-46) scale(1,1)"><g><path fill="none" stroke="none"/><text fill="#000000" stroke="none" font-family="Arial" font-size="13px" font-style="normal" font-weight="bold" text-decoration="none" x="201.805908203125" y="235.5">Object</text></g></g><g transform="translate(-54,-46) scale(1,1)"><path fill="none" stroke="#000000" d="M 219 193 L 219 215" stroke-miterlimit="10"/></g><g transform="translate(-54,-46) scale(1,1)"><path fill="none" stroke="#000000" d="M 214.790482243984 204.83732514237585 L 219 215 L 223.209517756016 204.83732514237585" stroke-miterlimit="10"/></g><g transform="translate(-54,-46) scale(1,1)"><path fill="#C0C0C0" stroke="none" d="M 201 287 L 251.40087890625 287 Q 261.40087890625 287 261.40087890625 297 L 261.40087890625 317 Q 261.40087890625 327 251.40087890625 327 L 201 327 Q 191 327 191 317 L 191 297 Q 191 287 201 287 Z" opacity="0.2"/></g><g transform="translate(-54,-46) scale(1,1)"><path fill="#ffffff" stroke="none" d="M 194 280 L 244.40087890625 280 Q 254.40087890625 280 254.40087890625 290 L 254.40087890625 310 Q 254.40087890625 320 244.40087890625 320 L 194 320 Q 184 320 184 310 L 184 290 Q 184 280 194 280 Z"/></g><g transform="translate(-54,-46) scale(1,1)"><path fill="none" stroke="#000000" d="M 194 280 L 244.40087890625 280 Q 254.40087890625 280 254.40087890625 290 L 254.40087890625 310 Q 254.40087890625 320 244.40087890625 320 L 194 320 Q 184 320 184 310 L 184 290 Q 184 280 194 280 Z" stroke-miterlimit="10"/></g><g transform="translate(-54,-46) scale(1,1)"><g><path fill="none" stroke="none"/><text fill="#000000" stroke="none" font-family="Arial" font-size="13px" font-style="normal" font-weight="bold" text-decoration="none" x="191.13427734375" y="299.5">Validation</text></g></g><g transform="translate(-54,-46) scale(1,1)"><path fill="none" stroke="#000000" d="M 220 249 L 219 279" stroke-miterlimit="10"/></g><g transform="translate(-54,-46) scale(1,1)"><path fill="none" stroke="#000000" d="M 215.13138670550276 268.7027270028595 L 219 279 L 223.54574886967976 268.9832057416654" stroke-miterlimit="10"/></g><g transform="translate(-54,-46) scale(1,1)"><path fill="#C0C0C0" stroke="none" d="M 215 376.5 L 226.5 367 L 237 376.5 L 226.5 385 L 215 376.5" opacity="0.2"/></g><g transform="translate(-54,-46) scale(1,1)"><path fill="#ffffff" stroke="none" d="M 208 369 L 219 360 L 230 369 L 219 378 L 208 369"/></g><g transform="translate(-54,-46) scale(1,1)"><path fill="none" stroke="#000000" d="M 208 369 L 219 360 L 230 369 L 219 378 L 208 369 L 208 369" stroke-miterlimit="10"/></g><g transform="translate(-54,-46) scale(1,1)"><path fill="none" stroke="#000000" d="M 219 321 L 219 359" stroke-miterlimit="10"/></g><g transform="translate(-54,-46) scale(1,1)"><path fill="none" stroke="#000000" d="M 214.790482243984 348.83732514237585 L 219 359 L 223.209517756016 348.83732514237585" stroke-miterlimit="10"/></g><g transform="translate(-54,-46) scale(1,1)"><path fill="#C0C0C0" stroke="none" d="M 121 351 L 160 351 Q 170 351 170 361 L 170 381 Q 170 391 160 391 L 121 391 Q 111 391 111 381 L 111 361 Q 111 351 121 351 Z" opacity="0.2"/></g><g transform="translate(-54,-46) scale(1,1)"><path fill="#ffffff" stroke="none" d="M 114 344 L 153 344 Q 163 344 163 354 L 163 374 Q 163 384 153 384 L 114 384 Q 104 384 104 374 L 104 354 Q 104 344 114 344 Z"/></g><g transform="translate(-54,-46) scale(1,1)"><path fill="none" stroke="#000000" d="M 114 344 L 153 344 Q 163 344 163 354 L 163 374 Q 163 384 153 384 L 114 384 Q 104 384 104 374 L 104 354 Q 104 344 114 344 Z" stroke-miterlimit="10"/></g><g transform="translate(-54,-46) scale(1,1)"><g><path fill="none" stroke="none"/><text fill="#000000" stroke="none" font-family="Arial" font-size="13px" font-style="normal" font-weight="bold" text-decoration="none" x="119.055908203125" y="363.5">Error</text></g></g><g transform="translate(-54,-46) scale(1,1)"><path fill="none" stroke="#000000" d="M 208 368 L 163 368" stroke-miterlimit="10"/></g><g transform="translate(-54,-46) scale(1,1)"><path fill="none" stroke="#000000" d="M 173.16267485762415 363.790482243984 L 163 368 L 173.16267485762415 372.209517756016" stroke-miterlimit="10"/></g><g transform="translate(-54,-46) scale(1,1)"><path fill="#C0C0C0" stroke="none" d="M 209 423 L 248 423 Q 258 423 258 433 L 258 453 Q 258 463 248 463 L 209 463 Q 199 463 199 453 L 199 433 Q 199 423 209 423 Z" opacity="0.2"/></g><g transform="translate(-54,-46) scale(1,1)"><path fill="#ffffff" stroke="none" d="M 202 416 L 241 416 Q 251 416 251 426 L 251 446 Q 251 456 241 456 L 202 456 Q 192 456 192 446 L 192 426 Q 192 416 202 416 Z"/></g><g transform="translate(-54,-46) scale(1,1)"><path fill="none" stroke="#000000" d="M 202 416 L 241 416 Q 251 416 251 426 L 251 446 Q 251 456 241 456 L 202 456 Q 192 456 192 446 L 192 426 Q 192 416 202 416 Z" stroke-miterlimit="10"/></g><g transform="translate(-54,-46) scale(1,1)"><g><path fill="none" stroke="none"/><text fill="#000000" stroke="none" font-family="Arial" font-size="13px" font-style="normal" font-weight="bold" text-decoration="none" x="203.4345703125" y="435.5">create</text></g></g><g transform="translate(-54,-46) scale(1,1)"><path fill="none" stroke="#000000" d="M 219 378 L 219 416" stroke-miterlimit="10"/></g><g transform="translate(-54,-46) scale(1,1)"><path fill="none" stroke="#000000" d="M 214.790482243984 405.83732514237585 L 219 416 L 223.209517756016 405.83732514237585" stroke-miterlimit="10"/></g><g transform="translate(-54,-46) scale(1,1)"><path fill="none" stroke="#000000" d="M 128 344 L 128 184 M 128 184 A 8 8 0 0 1 136 176 L 168 176" stroke-miterlimit="10"/></g><g transform="translate(-54,-46) scale(1,1)"><path fill="none" stroke="#000000" d="M 157.83732514237585 180.209517756016 L 168 176 L 157.83732514237585 171.790482243984" stroke-miterlimit="10"/></g><g transform="translate(-54,-46) scale(1,1)"><g><path fill="none" stroke="none"/><text fill="#000000" stroke="none" font-family="Arial" font-size="13px" font-style="normal" font-weight="normal" text-decoration="none" x="95.5" y="276.5">MSG</text></g></g><g transform="translate(-54,-46) scale(1,1)"><path fill="none" stroke="#000000" d="M 248 572 L 345 572 M 345 572 A 8 8 0 0 0 353 564 L 353 192" stroke-miterlimit="10"/></g><g transform="translate(-54,-46) scale(1,1)"><path fill="none" stroke="#000000" d="M 357.209517756016 202.16267485762415 L 353 192 L 348.790482243984 202.16267485762415" stroke-miterlimit="10"/></g><g transform="translate(-54,-46) scale(1,1)"><path fill="#C0C0C0" stroke="none" d="M 586 215 L 649 215 Q 652 215 652 218 L 652 217 Q 652 220 649 220 L 586 220 Q 583 220 583 217 L 583 218 Q 583 215 586 215 Z" opacity="0.2"/></g><g transform="translate(-54,-46) scale(1,1)"><path fill="#000000" stroke="none" d="M 579 208 L 642 208 Q 645 208 645 211 L 645 211 Q 645 214 642 214 L 579 214 Q 576 214 576 211 L 576 211 Q 576 208 579 208 Z"/></g><g transform="translate(-54,-46) scale(1,1)"><path fill="none" stroke="#000000" d="M 416 176 L 600 176 M 600 176 A 8 8 0 0 1 608 184 L 608 208" stroke-miterlimit="10"/></g><g transform="translate(-54,-46) scale(1,1)"><path fill="none" stroke="#000000" d="M 603.790482243984 197.83732514237585 L 608 208 L 612.209517756016 197.83732514237585" stroke-miterlimit="10"/></g><g transform="translate(-54,-46) scale(1,1)"><path fill="#C0C0C0" stroke="none" d="M 489 279 L 549.4873046875 279 Q 559.4873046875 279 559.4873046875 289 L 559.4873046875 309 Q 559.4873046875 319 549.4873046875 319 L 489 319 Q 479 319 479 309 L 479 289 Q 479 279 489 279 Z" opacity="0.2"/></g><g transform="translate(-54,-46) scale(1,1)"><path fill="#ffffff" stroke="none" d="M 482 272 L 542.4873046875 272 Q 552.4873046875 272 552.4873046875 282 L 552.4873046875 302 Q 552.4873046875 312 542.4873046875 312 L 482 312 Q 472 312 472 302 L 472 282 Q 472 272 482 272 Z"/></g><g transform="translate(-54,-46) scale(1,1)"><path fill="none" stroke="#000000" d="M 482 272 L 542.4873046875 272 Q 552.4873046875 272 552.4873046875 282 L 552.4873046875 302 Q 552.4873046875 312 542.4873046875 312 L 482 312 Q 472 312 472 302 L 472 282 Q 472 272 482 272 Z" stroke-miterlimit="10"/></g><g transform="translate(-54,-46) scale(1,1)"><g><path fill="none" stroke="none"/><text fill="#000000" stroke="none" font-family="Arial" font-size="13px" font-style="normal" font-weight="bold" text-decoration="none" x="480.81005859375" y="291.5">distribution</text></g></g><g transform="translate(-54,-46) scale(1,1)"><path fill="none" stroke="#000000" d="M 605 214 L 537 271" stroke-miterlimit="10"/></g><g transform="translate(-54,-46) scale(1,1)"><path fill="none" stroke="#000000" d="M 542.0841851437788 261.2454594457874 L 537 271 L 547.4925635652169 267.697560018731" stroke-miterlimit="10"/></g><g transform="translate(-54,-46) scale(1,1)"><path fill="#C0C0C0" stroke="none" d="M 681 279 L 720 279 Q 730 279 730 289 L 730 309 Q 730 319 720 319 L 681 319 Q 671 319 671 309 L 671 289 Q 671 279 681 279 Z" opacity="0.2"/></g><g transform="translate(-54,-46) scale(1,1)"><path fill="#ffffff" stroke="none" d="M 674 272 L 713 272 Q 723 272 723 282 L 723 302 Q 723 312 713 312 L 674 312 Q 664 312 664 302 L 664 282 Q 664 272 674 272 Z"/></g><g transform="translate(-54,-46) scale(1,1)"><path fill="none" stroke="#000000" d="M 674 272 L 713 272 Q 723 272 723 282 L 723 302 Q 723 312 713 312 L 674 312 Q 664 312 664 302 L 664 282 Q 664 272 674 272 Z" stroke-miterlimit="10"/></g><g transform="translate(-54,-46) scale(1,1)"><g><path fill="none" stroke="none"/><text fill="#000000" stroke="none" font-family="Arial" font-size="13px" font-style="normal" font-weight="bold" text-decoration="none" x="674.714111328125" y="291.5">Export</text></g></g><g transform="translate(-54,-46) scale(1,1)"><path fill="none" stroke="#000000" d="M 614 214 L 672 271" stroke-miterlimit="10"/></g><g transform="translate(-54,-46) scale(1,1)"><path fill="none" stroke="#000000" d="M 661.8011062243079 266.87900912981485 L 672 271 L 667.7022736401226 260.8743124610911" stroke-miterlimit="10"/></g><g transform="translate(-54,-46) scale(1,1)"><path fill="#C0C0C0" stroke="none" d="M 409 215 L 448 215 Q 458 215 458 225 L 458 245 Q 458 255 448 255 L 409 255 Q 399 255 399 245 L 399 225 Q 399 215 409 215 Z" opacity="0.2"/></g><g transform="translate(-54,-46) scale(1,1)"><path fill="#ffffff" stroke="none" d="M 402 208 L 441 208 Q 451 208 451 218 L 451 238 Q 451 248 441 248 L 402 248 Q 392 248 392 238 L 392 218 Q 392 208 402 208 Z"/></g><g transform="translate(-54,-46) scale(1,1)"><path fill="none" stroke="#000000" d="M 402 208 L 441 208 Q 451 208 451 218 L 451 238 Q 451 248 441 248 L 402 248 Q 392 248 392 238 L 392 218 Q 392 208 402 208 Z" stroke-miterlimit="10"/></g><g transform="translate(-54,-46) scale(1,1)"><g><path fill="none" stroke="none"/><text fill="#000000" stroke="none" font-family="Arial" font-size="13px" font-style="normal" font-weight="bold" text-decoration="none" x="400.905029296875" y="227.5">Branch</text></g></g><g transform="translate(-54,-46) scale(1,1)"><path fill="none" stroke="#000000" d="M 451 249 L 482 271" stroke-miterlimit="10"/></g><g transform="translate(-54,-46) scale(1,1)"><path fill="none" stroke="#000000" d="M 471.27602024623627 268.5512741597177 L 482 271 L 476.14851184173676 261.6854905478761" stroke-miterlimit="10"/></g><g transform="translate(-54,-46) scale(1,1)"><rect fill="#C0C0C0" stroke="none" x="471" y="351" width="89.18359375" height="32" opacity="0.2"/></g><g transform="translate(-54,-46) scale(1,1)"><rect fill="#ffffff" stroke="none" x="464" y="344" width="89.18359375" height="32"/></g><g transform="translate(-54,-46) scale(1,1)"><path fill="none" stroke="#000000" d="M 464 344 L 553.18359375 344 L 553.18359375 376 L 464 376 L 464 344 Z Z" stroke-miterlimit="10"/></g><g transform="translate(-54,-46) scale(1,1)"><rect fill="#ffffff" stroke="none" x="464" y="344" width="89.18359375" height="32"/></g><g transform="translate(-54,-46) scale(1,1)"><path fill="none" stroke="#000000" d="M 464 344 L 553.18359375 344 L 553.18359375 376 L 464 376 L 464 344 Z Z" stroke-miterlimit="10"/></g><g transform="translate(-54,-46) scale(1,1)"><g><path fill="none" stroke="none"/><text fill="#000000" stroke="none" font-family="Arial" font-size="13px" font-style="normal" font-weight="bold" text-decoration="none" x="489.805908203125" y="363.5">Object</text></g></g><g transform="translate(-54,-46) scale(1,1)"><path fill="none" stroke="#000000" d="M 511 312 L 511 344" stroke-miterlimit="10"/></g><g transform="translate(-54,-46) scale(1,1)"><path fill="none" stroke="#000000" d="M 506.790482243984 333.83732514237585 L 511 344 L 515.209517756016 333.83732514237585" stroke-miterlimit="10"/></g><g transform="translate(-54,-46) scale(1,1)"><path fill="#C0C0C0" stroke="none" d="M 497 415 L 536 415 Q 546 415 546 425 L 546 445 Q 546 455 536 455 L 497 455 Q 487 455 487 445 L 487 425 Q 487 415 497 415 Z" opacity="0.2"/></g><g transform="translate(-54,-46) scale(1,1)"><path fill="#ffffff" stroke="none" d="M 490 408 L 529 408 Q 539 408 539 418 L 539 438 Q 539 448 529 448 L 490 448 Q 480 448 480 438 L 480 418 Q 480 408 490 408 Z"/></g><g transform="translate(-54,-46) scale(1,1)"><path fill="none" stroke="#000000" d="M 490 408 L 529 408 Q 539 408 539 418 L 539 438 Q 539 448 529 448 L 490 448 Q 480 448 480 438 L 480 418 Q 480 408 490 408 Z" stroke-miterlimit="10"/></g><g transform="translate(-54,-46) scale(1,1)"><g><path fill="none" stroke="none"/><text fill="#000000" stroke="none" font-family="Arial" font-size="13px" font-style="normal" font-weight="bold" text-decoration="none" x="491.4345703125" y="427.5">create</text></g></g><g transform="translate(-54,-46) scale(1,1)"><path fill="none" stroke="#000000" d="M 508 376 L 508 408" stroke-miterlimit="10"/></g><g transform="translate(-54,-46) scale(1,1)"><path fill="none" stroke="#000000" d="M 503.790482243984 397.83732514237585 L 508 408 L 512.209517756016 397.83732514237585" stroke-miterlimit="10"/></g><g transform="translate(-54,-46) scale(1,1)"><path fill="#C0C0C0" stroke="none" d="M 503 504.5 L 514.5 495 L 525 504.5 L 514.5 513 L 503 504.5" opacity="0.2"/></g><g transform="translate(-54,-46) scale(1,1)"><path fill="#ffffff" stroke="none" d="M 496 497 L 507 488 L 518 497 L 507 506 L 496 497"/></g><g transform="translate(-54,-46) scale(1,1)"><path fill="none" stroke="#000000" d="M 496 497 L 507 488 L 518 497 L 507 506 L 496 497 L 496 497" stroke-miterlimit="10"/></g><g transform="translate(-54,-46) scale(1,1)"><path fill="none" stroke="#000000" d="M 508 449 L 507 487" stroke-miterlimit="10"/></g><g transform="translate(-54,-46) scale(1,1)"><path fill="none" stroke="#000000" d="M 503.0592853332588 476.7301038021151 L 507 487 L 511.4754071800324 476.9515806928197" stroke-miterlimit="10"/></g><g transform="translate(-54,-46) scale(1,1)"><path fill="#C0C0C0" stroke="none" d="M 425 487 L 464 487 Q 474 487 474 497 L 474 517 Q 474 527 464 527 L 425 527 Q 415 527 415 517 L 415 497 Q 415 487 425 487 Z" opacity="0.2"/></g><g transform="translate(-54,-46) scale(1,1)"><path fill="#ffffff" stroke="none" d="M 418 480 L 457 480 Q 467 480 467 490 L 467 510 Q 467 520 457 520 L 418 520 Q 408 520 408 510 L 408 490 Q 408 480 418 480 Z"/></g><g transform="translate(-54,-46) scale(1,1)"><path fill="none" stroke="#000000" d="M 418 480 L 457 480 Q 467 480 467 490 L 467 510 Q 467 520 457 520 L 418 520 Q 408 520 408 510 L 408 490 Q 408 480 418 480 Z" stroke-miterlimit="10"/></g><g transform="translate(-54,-46) scale(1,1)"><g><path fill="none" stroke="none"/><text fill="#000000" stroke="none" font-family="Arial" font-size="13px" font-style="normal" font-weight="bold" text-decoration="none" x="423.055908203125" y="499.5">Error</text></g></g><g transform="translate(-54,-46) scale(1,1)"><path fill="none" stroke="#000000" d="M 496 499 L 467 499" stroke-miterlimit="10"/></g><g transform="translate(-54,-46) scale(1,1)"><path fill="none" stroke="#000000" d="M 477.16267485762415 494.790482243984 L 467 499 L 477.16267485762415 503.209517756016" stroke-miterlimit="10"/></g><g transform="translate(-54,-46) scale(1,1)"><path fill="#C0C0C0" stroke="none" d="M 497 553 L 543.07177734375 553 Q 553.07177734375 553 553.07177734375 563 L 553.07177734375 583 Q 553.07177734375 593 543.07177734375 593 L 497 593 Q 487 593 487 583 L 487 563 Q 487 553 497 553 Z" opacity="0.2"/></g><g transform="translate(-54,-46) scale(1,1)"><path fill="#ffffff" stroke="none" d="M 490 546 L 536.07177734375 546 Q 546.07177734375 546 546.07177734375 556 L 546.07177734375 576 Q 546.07177734375 586 536.07177734375 586 L 490 586 Q 480 586 480 576 L 480 556 Q 480 546 490 546 Z"/></g><g transform="translate(-54,-46) scale(1,1)"><path fill="none" stroke="#000000" d="M 490 546 L 536.07177734375 546 Q 546.07177734375 546 546.07177734375 556 L 546.07177734375 576 Q 546.07177734375 586 536.07177734375 586 L 490 586 Q 480 586 480 576 L 480 556 Q 480 546 490 546 Z" stroke-miterlimit="10"/></g><g transform="translate(-54,-46) scale(1,1)"><g><path fill="none" stroke="none"/><text fill="#000000" stroke="none" font-family="Arial" font-size="13px" font-style="normal" font-weight="bold" text-decoration="none" x="498.22998046875" y="565.5">MSG</text></g></g><g transform="translate(-54,-46) scale(1,1)"><path fill="none" stroke="#000000" d="M 507 506 L 507 546" stroke-miterlimit="10"/></g><g transform="translate(-54,-46) scale(1,1)"><path fill="none" stroke="#000000" d="M 502.790482243984 535.8373251423759 L 507 546 L 511.209517756016 535.8373251423759" stroke-miterlimit="10"/></g><g transform="translate(-54,-46) scale(1,1)"><path fill="none" stroke="#000000" d="M 424 480 L 424 304 M 424 304 A 8 8 0 0 1 432 296 L 472 296" stroke-miterlimit="10"/></g><g transform="translate(-54,-46) scale(1,1)"><path fill="none" stroke="#000000" d="M 461.83732514237585 300.209517756016 L 472 296 L 461.83732514237585 291.790482243984" stroke-miterlimit="10"/></g><g transform="translate(-54,-46) scale(1,1)"><g><path fill="none" stroke="none"/><text fill="#000000" stroke="none" font-family="Arial" font-size="13px" font-style="normal" font-weight="normal" text-decoration="none" x="409.5" y="287.5">MSG</text></g></g><g transform="translate(-54,-46) scale(1,1)"><path fill="#C0C0C0" stroke="none" d="M 511 627.5 C 511 620.59644 516.59644 615 523.5 615 C 530.40356 615 536 620.59644 536 627.5 C 536 634.40356 530.40356 640 523.5 640 C 516.59644 640 511 634.40356 511 627.5 Z" opacity="0.2"/></g><g transform="translate(-54,-46) scale(1,1)"><path fill="none" stroke="#000000" d="M 504 620.5 C 504 613.59644 509.59644 608 516.5 608 C 523.40356 608 529 613.59644 529 620.5 C 529 627.40356 523.40356 633 516.5 633 C 509.59644 633 504 627.40356 504 620.5 Z" stroke-miterlimit="10"/></g><g transform="translate(-54,-46) scale(1,1)"><path fill="#000000" stroke="none" d="M 509 620.5 C 509 616.357864 512.357864 613 516.5 613 C 520.642136 613 524 616.357864 524 620.5 C 524 624.642136 520.642136 628 516.5 628 C 512.357864 628 509 624.642136 509 620.5 Z"/></g><g transform="translate(-54,-46) scale(1,1)"><path fill="none" stroke="#000000" d="M 514 587 L 515 607" stroke-miterlimit="10"/></g><g transform="translate(-54,-46) scale(1,1)"><path fill="none" stroke="#000000" d="M 510.28823453146583 597.0602180019113 L 515 607 L 518.6967659402035 596.6397914314744" stroke-miterlimit="10"/></g><g transform="translate(-54,-46) scale(1,1)"><path fill="#C0C0C0" stroke="none" d="M 215 512.5 L 226.5 503 L 237 512.5 L 226.5 521 L 215 512.5" opacity="0.2"/></g><g transform="translate(-54,-46) scale(1,1)"><path fill="#ffffff" stroke="none" d="M 208 505 L 219 496 L 230 505 L 219 514 L 208 505"/></g><g transform="translate(-54,-46) scale(1,1)"><path fill="none" stroke="#000000" d="M 208 505 L 219 496 L 230 505 L 219 514 L 208 505 L 208 505" stroke-miterlimit="10"/></g><g transform="translate(-54,-46) scale(1,1)"><path fill="none" stroke="#000000" d="M 220 457 L 219 495" stroke-miterlimit="10"/></g><g transform="translate(-54,-46) scale(1,1)"><path fill="none" stroke="#000000" d="M 215.0592853332588 484.7301038021151 L 219 495 L 223.4754071800324 484.9515806928197" stroke-miterlimit="10"/></g><g transform="translate(-54,-46) scale(1,1)"><path fill="#C0C0C0" stroke="none" d="M 121 487 L 164.91357421875 487 Q 174.91357421875 487 174.91357421875 497 L 174.91357421875 517 Q 174.91357421875 527 164.91357421875 527 L 121 527 Q 111 527 111 517 L 111 497 Q 111 487 121 487 Z" opacity="0.2"/></g><g transform="translate(-54,-46) scale(1,1)"><path fill="#ffffff" stroke="none" d="M 114 480 L 157.91357421875 480 Q 167.91357421875 480 167.91357421875 490 L 167.91357421875 510 Q 167.91357421875 520 157.91357421875 520 L 114 520 Q 104 520 104 510 L 104 490 Q 104 480 114 480 Z"/></g><g transform="translate(-54,-46) scale(1,1)"><path fill="none" stroke="#000000" d="M 114 480 L 157.91357421875 480 Q 167.91357421875 480 167.91357421875 490 L 167.91357421875 510 Q 167.91357421875 520 157.91357421875 520 L 114 520 Q 104 520 104 510 L 104 490 Q 104 480 114 480 Z" stroke-miterlimit="10"/></g><g transform="translate(-54,-46) scale(1,1)"><g><path fill="none" stroke="none"/><text fill="#000000" stroke="none" font-family="Arial" font-size="13px" font-style="normal" font-weight="bold" text-decoration="none" x="108.5" y="499.5">MSG 500</text></g></g><g transform="translate(-54,-46) scale(1,1)"><path fill="none" stroke="#000000" d="M 207 504 L 169 502" stroke-miterlimit="10"/></g><g transform="translate(-54,-46) scale(1,1)"><path fill="none" stroke="#000000" d="M 179.36987564779847 498.33043884787344 L 169 502 L 178.92738096526696 506.7378378159721" stroke-miterlimit="10"/></g><g transform="translate(-54,-46) scale(1,1)"><path fill="#C0C0C0" stroke="none" d="M 201 559 L 244.91357421875 559 Q 254.91357421875 559 254.91357421875 569 L 254.91357421875 589 Q 254.91357421875 599 244.91357421875 599 L 201 599 Q 191 599 191 589 L 191 569 Q 191 559 201 559 Z" opacity="0.2"/></g><g transform="translate(-54,-46) scale(1,1)"><path fill="#ffffff" stroke="none" d="M 194 552 L 237.91357421875 552 Q 247.91357421875 552 247.91357421875 562 L 247.91357421875 582 Q 247.91357421875 592 237.91357421875 592 L 194 592 Q 184 592 184 582 L 184 562 Q 184 552 194 552 Z"/></g><g transform="translate(-54,-46) scale(1,1)"><path fill="none" stroke="#000000" d="M 194 552 L 237.91357421875 552 Q 247.91357421875 552 247.91357421875 562 L 247.91357421875 582 Q 247.91357421875 592 237.91357421875 592 L 194 592 Q 184 592 184 582 L 184 562 Q 184 552 194 552 Z" stroke-miterlimit="10"/></g><g transform="translate(-54,-46) scale(1,1)"><g><path fill="none" stroke="none"/><text fill="#000000" stroke="none" font-family="Arial" font-size="13px" font-style="normal" font-weight="bold" text-decoration="none" x="188.5" y="571.5">MSG 201</text></g></g><g transform="translate(-54,-46) scale(1,1)"><path fill="none" stroke="#000000" d="M 218 514 L 218 552" stroke-miterlimit="10"/></g><g transform="translate(-54,-46) scale(1,1)"><path fill="none" stroke="#000000" d="M 213.790482243984 541.8373251423759 L 218 552 L 222.209517756016 541.8373251423759" stroke-miterlimit="10"/></g><g transform="translate(-54,-46) scale(1,1)"><path fill="none" stroke="#000000" d="M 104 500 L 72 500 M 72 500 A 8 8 0 0 1 64 492 L 64 176 M 64 176 A 8 8 0 0 1 72 168 L 168 168" stroke-miterlimit="10"/></g><g transform="translate(-54,-46) scale(1,1)"><path fill="none" stroke="#000000" d="M 157.83732514237585 172.209517756016 L 168 168 L 157.83732514237585 163.790482243984" stroke-miterlimit="10"/></g><g transform="translate(-54,-46) scale(1,1)"><rect fill="#C0C0C0" stroke="none" x="663" y="343" width="89.18359375" height="34" opacity="0.2"/></g><g transform="translate(-54,-46) scale(1,1)"><rect fill="#ffffff" stroke="none" x="656" y="336" width="89.18359375" height="34"/></g><g transform="translate(-54,-46) scale(1,1)"><path fill="none" stroke="#000000" d="M 656 336 L 745.18359375 336 L 745.18359375 370 L 656 370 L 656 336 Z Z" stroke-miterlimit="10"/></g><g transform="translate(-54,-46) scale(1,1)"><rect fill="#ffffff" stroke="none" x="656" y="336" width="89.18359375" height="34"/></g><g transform="translate(-54,-46) scale(1,1)"><path fill="none" stroke="#000000" d="M 656 336 L 745.18359375 336 L 745.18359375 370 L 656 370 L 656 336 Z Z" stroke-miterlimit="10"/></g><g transform="translate(-54,-46) scale(1,1)"><g><path fill="none" stroke="none"/><text fill="#000000" stroke="none" font-family="Arial" font-size="13px" font-style="normal" font-weight="bold" text-decoration="none" x="681.805908203125" y="355.5">Object</text></g></g><g transform="translate(-54,-46) scale(1,1)"><path fill="none" stroke="#000000" d="M 695 312 L 695 336" stroke-miterlimit="10"/></g><g transform="translate(-54,-46) scale(1,1)"><path fill="none" stroke="#000000" d="M 690.790482243984 325.83732514237585 L 695 336 L 699.209517756016 325.83732514237585" stroke-miterlimit="10"/></g><g transform="translate(-54,-46) scale(1,1)"><path fill="#C0C0C0" stroke="none" d="M 689 407 L 728 407 Q 738 407 738 417 L 738 437 Q 738 447 728 447 L 689 447 Q 679 447 679 437 L 679 417 Q 679 407 689 407 Z" opacity="0.2"/></g><g transform="translate(-54,-46) scale(1,1)"><path fill="#ffffff" stroke="none" d="M 682 400 L 721 400 Q 731 400 731 410 L 731 430 Q 731 440 721 440 L 682 440 Q 672 440 672 430 L 672 410 Q 672 400 682 400 Z"/></g><g transform="translate(-54,-46) scale(1,1)"><path fill="none" stroke="#000000" d="M 682 400 L 721 400 Q 731 400 731 410 L 731 430 Q 731 440 721 440 L 682 440 Q 672 440 672 430 L 672 410 Q 672 400 682 400 Z" stroke-miterlimit="10"/></g><g transform="translate(-54,-46) scale(1,1)"><g><path fill="none" stroke="none"/><text fill="#000000" stroke="none" font-family="Arial" font-size="13px" font-style="normal" font-weight="bold" text-decoration="none" x="683.4345703125" y="419.5">create</text></g></g><g transform="translate(-54,-46) scale(1,1)"><path fill="none" stroke="#000000" d="M 700 371 L 701 399" stroke-miterlimit="10"/></g><g transform="translate(-54,-46) scale(1,1)"><path fill="none" stroke="#000000" d="M 696.4304429001526 388.99404437791003 L 701 399 L 704.8441142603102 388.6935561150473" stroke-miterlimit="10"/></g><g transform="translate(-54,-46) scale(1,1)"><path fill="#C0C0C0" stroke="none" d="M 695 496.5 L 706.5 487 L 717 496.5 L 706.5 505 L 695 496.5" opacity="0.2"/></g><g transform="translate(-54,-46) scale(1,1)"><path fill="#ffffff" stroke="none" d="M 688 489 L 699 480 L 710 489 L 699 498 L 688 489"/></g><g transform="translate(-54,-46) scale(1,1)"><path fill="none" stroke="#000000" d="M 688 489 L 699 480 L 710 489 L 699 498 L 688 489 L 688 489" stroke-miterlimit="10"/></g><g transform="translate(-54,-46) scale(1,1)"><path fill="none" stroke="#000000" d="M 700 441 L 699 479" stroke-miterlimit="10"/></g><g transform="translate(-54,-46) scale(1,1)"><path fill="none" stroke="#000000" d="M 695.0592853332588 468.7301038021151 L 699 479 L 703.4754071800323 468.9515806928197" stroke-miterlimit="10"/></g><g transform="translate(-54,-46) scale(1,1)"><path fill="#C0C0C0" stroke="none" d="M 689 545 L 732.91357421875 545 Q 742.91357421875 545 742.91357421875 555 L 742.91357421875 575 Q 742.91357421875 585 732.91357421875 585 L 689 585 Q 679 585 679 575 L 679 555 Q 679 545 689 545 Z" opacity="0.2"/></g><g transform="translate(-54,-46) scale(1,1)"><path fill="#ffffff" stroke="none" d="M 682 538 L 725.91357421875 538 Q 735.91357421875 538 735.91357421875 548 L 735.91357421875 568 Q 735.91357421875 578 725.91357421875 578 L 682 578 Q 672 578 672 568 L 672 548 Q 672 538 682 538 Z"/></g><g transform="translate(-54,-46) scale(1,1)"><path fill="none" stroke="#000000" d="M 682 538 L 725.91357421875 538 Q 735.91357421875 538 735.91357421875 548 L 735.91357421875 568 Q 735.91357421875 578 725.91357421875 578 L 682 578 Q 672 578 672 568 L 672 548 Q 672 538 682 538 Z" stroke-miterlimit="10"/></g><g transform="translate(-54,-46) scale(1,1)"><g><path fill="none" stroke="none"/><text fill="#000000" stroke="none" font-family="Arial" font-size="13px" font-style="normal" font-weight="bold" text-decoration="none" x="676.5" y="557.5">MSG 201</text></g></g><g transform="translate(-54,-46) scale(1,1)"><path fill="none" stroke="#000000" d="M 700 498 L 700 538" stroke-miterlimit="10"/></g><g transform="translate(-54,-46) scale(1,1)"><path fill="none" stroke="#000000" d="M 695.790482243984 527.8373251423759 L 700 538 L 704.209517756016 527.8373251423759" stroke-miterlimit="10"/></g><g transform="translate(-54,-46) scale(1,1)"><path fill="#C0C0C0" stroke="none" d="M 777 479 L 823.0908203125 479 Q 833.0908203125 479 833.0908203125 489 L 833.0908203125 509 Q 833.0908203125 519 823.0908203125 519 L 777 519 Q 767 519 767 509 L 767 489 Q 767 479 777 479 Z" opacity="0.2"/></g><g transform="translate(-54,-46) scale(1,1)"><path fill="#ffffff" stroke="none" d="M 770 472 L 816.0908203125 472 Q 826.0908203125 472 826.0908203125 482 L 826.0908203125 502 Q 826.0908203125 512 816.0908203125 512 L 770 512 Q 760 512 760 502 L 760 482 Q 760 472 770 472 Z"/></g><g transform="translate(-54,-46) scale(1,1)"><path fill="none" stroke="#000000" d="M 770 472 L 816.0908203125 472 Q 826.0908203125 472 826.0908203125 482 L 826.0908203125 502 Q 826.0908203125 512 816.0908203125 512 L 770 512 Q 760 512 760 502 L 760 482 Q 760 472 770 472 Z" stroke-miterlimit="10"/></g><g transform="translate(-54,-46) scale(1,1)"><g><path fill="none" stroke="none"/><text fill="#000000" stroke="none" font-family="Arial" font-size="13px" font-style="normal" font-weight="bold" text-decoration="none" x="765.950439453125" y="491.5">Error 500</text></g></g><g transform="translate(-54,-46) scale(1,1)"><path fill="none" stroke="#000000" d="M 710 491 L 760 491" stroke-miterlimit="10"/></g><g transform="translate(-54,-46) scale(1,1)"><path fill="none" stroke="#000000" d="M 749.8373251423759 495.209517756016 L 760 491 L 749.8373251423758 486.790482243984" stroke-miterlimit="10"/></g><g transform="translate(-54,-46) scale(1,1)"><path fill="none" stroke="#000000" d="M 800 472 L 800 304 M 800 304 A 8 8 0 0 0 792 296 L 723 296" stroke-miterlimit="10"/></g><g transform="translate(-54,-46) scale(1,1)"><path fill="none" stroke="#000000" d="M 733.1626748576241 291.790482243984 L 723 296 L 733.1626748576241 300.209517756016" stroke-miterlimit="10"/></g><g transform="translate(-54,-46) scale(1,1)"><g><path fill="none" stroke="none"/><text fill="#000000" stroke="none" font-family="Arial" font-size="13px" font-style="normal" font-weight="normal" text-decoration="none" x="767.5" y="356.5">MSG</text></g></g><g transform="translate(-54,-46) scale(1,1)"><path fill="#C0C0C0" stroke="none" d="M 695 627.5 C 695 620.59644 700.59644 615 707.5 615 C 714.40356 615 720 620.59644 720 627.5 C 720 634.40356 714.40356 640 707.5 640 C 700.59644 640 695 634.40356 695 627.5 Z" opacity="0.2"/></g><g transform="translate(-54,-46) scale(1,1)"><path fill="none" stroke="#000000" d="M 688 620.5 C 688 613.59644 693.59644 608 700.5 608 C 707.40356 608 713 613.59644 713 620.5 C 713 627.40356 707.40356 633 700.5 633 C 693.59644 633 688 627.40356 688 620.5 Z" stroke-miterlimit="10"/></g><g transform="translate(-54,-46) scale(1,1)"><path fill="#000000" stroke="none" d="M 693 620.5 C 693 616.357864 696.357864 613 700.5 613 C 704.642136 613 708 616.357864 708 620.5 C 708 624.642136 704.642136 628 700.5 628 C 696.357864 628 693 624.642136 693 620.5 Z"/></g><g transform="translate(-54,-46) scale(1,1)"><path fill="none" stroke="#000000" d="M 702 579 L 701 607" stroke-miterlimit="10"/></g><g transform="translate(-54,-46) scale(1,1)"><path fill="none" stroke="#000000" d="M 697.1558857396898 596.6935561150473 L 701 607 L 705.5695570998474 596.9940443779101" stroke-miterlimit="10"/></g></g></svg>