<svg version="1.1" xmlns="http://www.w3.org/2000/svg" xmlns:xlink="http://www.w3.org/1999/xlink" width="549.57080078125" height="360"><defs/><g><text fill="#eeeeee" stroke="none" font-family="Arial" font-size="24px" font-style="normal" font-weight="normal" text-decoration="none" x="0" y="0">UNREGISTERED</text><text fill="#eeeeee" stroke="none" font-family="Arial" font-size="24px" font-style="normal" font-weight="normal" text-decoration="none" x="0" y="30">UNREGISTERED</text><text fill="#eeeeee" stroke="none" font-family="Arial" font-size="24px" font-style="normal" font-weight="normal" text-decoration="none" x="0" y="60">UNREGISTERED</text><text fill="#eeeeee" stroke="none" font-family="Arial" font-size="24px" font-style="normal" font-weight="normal" text-decoration="none" x="0" y="90">UNREGISTERED</text><text fill="#eeeeee" stroke="none" font-family="Arial" font-size="24px" font-style="normal" font-weight="normal" text-decoration="none" x="0" y="120">UNREGISTERED</text><text fill="#eeeeee" stroke="none" font-family="Arial" font-size="24px" font-style="normal" font-weight="normal" text-decoration="none" x="0" y="150">UNREGISTERED</text><text fill="#eeeeee" stroke="none" font-family="Arial" font-size="24px" font-style="normal" font-weight="normal" text-decoration="none" x="0" y="180">UNREGISTERED</text><text fill="#eeeeee" stroke="none" font-family="Arial" font-size="24px" font-style="normal" font-weight="normal" text-decoration="none" x="0" y="210">UNREGISTERED</text><text fill="#eeeeee" stroke="none" font-family="Arial" font-size="24px" font-style="normal" font-weight="normal" text-decoration="none" x="0" y="240">UNREGISTERED</text><text fill="#eeeeee" stroke="none" font-family="Arial" font-size="24px" font-style="normal" font-weight="normal" text-decoration="none" x="0" y="270">UNREGISTERED</text><text fill="#eeeeee" stroke="none" font-family="Arial" font-size="24px" font-style="normal" font-weight="normal" text-decoration="none" x="0" y="300">UNREGISTERED</text><text fill="#eeeeee" stroke="none" font-family="Arial" font-size="24px" font-style="normal" font-weight="normal" text-decoration="none" x="0" y="330">UNREGISTERED</text><text fill="#eeeeee" stroke="none" font-family="Arial" font-size="24px" font-style="normal" font-weight="normal" text-decoration="none" x="200" y="0">UNREGISTERED</text><text fill="#eeeeee" stroke="none" font-family="Arial" font-size="24px" font-style="normal" font-weight="normal" text-decoration="none" x="200" y="30">UNREGISTERED</text><text fill="#eeeeee" stroke="none" font-family="Arial" font-size="24px" font-style="normal" font-weight="normal" text-decoration="none" x="200" y="60">UNREGISTERED</text><text fill="#eeeeee" stroke="none" font-family="Arial" font-size="24px" font-style="normal" font-weight="normal" text-decoration="none" x="200" y="90">UNREGISTERED</text><text fill="#eeeeee" stroke="none" font-family="Arial" font-size="24px" font-style="normal" font-weight="normal" text-decoration="none" x="200" y="120">UNREGISTERED</text><text fill="#eeeeee" stroke="none" font-family="Arial" font-size="24px" font-style="normal" font-weight="normal" text-decoration="none" x="200" y="150">UNREGISTERED</text><text fill="#eeeeee" stroke="none" font-family="Arial" font-size="24px" font-style="normal" font-weight="normal" text-decoration="none" x="200" y="180">UNREGISTERED</text><text fill="#eeeeee" stroke="none" font-family="Arial" font-size="24px" font-style="normal" font-weight="normal" text-decoration="none" x="200" y="210">UNREGISTERED</text><text fill="#eeeeee" stroke="none" font-family="Arial" font-size="24px" font-style="normal" font-weight="normal" text-decoration="none" x="200" y="240">UNREGISTERED</text><text fill="#eeeeee" stroke="none" font-family="Arial" font-size="24px" font-style="normal" font-weight="normal" text-decoration="none" x="200" y="270">UNREGISTERED</text><text fill="#eeeeee" stroke="none" font-family="Arial" font-size="24px" font-style="normal" font-weight="normal" text-decoration="none" x="200" y="300">UNREGISTERED</text><text fill="#eeeeee" stroke="none" font-family="Arial" font-size="24px" font-style="normal" font-weight="normal" text-decoration="none" x="200" y="330">UNREGISTERED</text><text fill="#eeeeee" stroke="none" font-family="Arial" font-size="24px" font-style="normal" font-weight="normal" text-decoration="none" x="400" y="0">UNREGISTERED</text><text fill="#eeeeee" stroke="none" font-family="Arial" font-size="24px" font-style="normal" font-weight="normal" text-decoration="none" x="400" y="30">UNREGISTERED</text><text fill="#eeeeee" stroke="none" font-family="Arial" font-size="24px" font-style="normal" font-weight="normal" text-decoration="none" x="400" y="60">UNREGISTERED</text><text fill="#eeeeee" stroke="none" font-family="Arial" font-size="24px" font-style="normal" font-weight="normal" text-decoration="none" x="400" y="90">UNREGISTERED</text><text fill="#eeeeee" stroke="none" font-family="Arial" font-size="24px" font-style="normal" font-weight="normal" text-decoration="none" x="400" y="120">UNREGISTERED</text><text fill="#eeeeee" stroke="none" font-family="Arial" font-size="24px" font-style="normal" font-weight="normal" text-decoration="none" x="400" y="150">UNREGISTERED</text><text fill="#eeeeee" stroke="none" font-family="Arial" font-size="24px" font-style="normal" font-weight="normal" text-decoration="none" x="400" y="180">UNREGISTERED</text><text fill="#eeeeee" stroke="none" font-family="Arial" font-size="24px" font-style="normal" font-weight="normal" text-decoration="none" x="400" y="210">UNREGISTERED</text><text fill="#eeeeee" stroke="none" font-family="Arial" font-size="24px" font-style="normal" font-weight="normal" text-decoration="none" x="400" y="240">UNREGISTERED</text><text fill="#eeeeee" stroke="none" font-family="Arial" font-size="24px" font-style="normal" font-weight="normal" text-decoration="none" x="400" y="270">UNREGISTERED</text><text fill="#eeeeee" stroke="none" font-family="Arial" font-size="24px" font-style="normal" font-weight="normal" text-decoration="none" x="400" y="300">UNREGISTERED</text><text fill="#eeeeee" stroke="none" font-family="Arial" font-size="24px" font-style="normal" font-weight="normal" text-decoration="none" x="400" y="330">UNREGISTERED</text><g transform="translate(-238,-118) scale(1,1)"><rect fill="#C0C0C0" stroke="none" x="255" y="135" width="89.57080078125" height="57" opacity="0.2"/></g><g transform="translate(-238,-118) scale(1,1)"><rect fill="#ffffff" stroke="none" x="248" y="128" width="89.57080078125" height="57"/></g><g transform="translate(-238,-118) scale(1,1)"><path fill="none" stroke="#000000" d="M 248 128 L 337.57080078125 128 L 337.57080078125 185 L 248 185 L 248 128 Z Z" stroke-miterlimit="10"/></g><g transform="translate(-238,-118) scale(1,1)"><path fill="none" stroke="#000000" d="M 248 153 L 337.57080078125 153" stroke-miterlimit="10"/></g><g transform="translate(-238,-118) scale(1,1)"><path fill="none" stroke="#000000" d="M 248 163 L 337.57080078125 163" stroke-miterlimit="10"/></g><g transform="translate(-238,-118) scale(1,1)"><g><path fill="none" stroke="none"/><text fill="#000000" stroke="none" font-family="Arial" font-size="13px" font-style="normal" font-weight="bold" text-decoration="none" x="274.716796875" y="147.5">ledger</text></g></g><g transform="translate(-238,-118) scale(1,1)"><g><path fill="none" stroke="none"/><text fill="#000000" stroke="none" font-family="Arial" font-size="13px" font-style="normal" font-weight="normal" text-decoration="none" x="253" y="180.5">+getOne()</text></g></g><g transform="translate(-238,-118) scale(1,1)"><rect fill="#C0C0C0" stroke="none" x="255" y="207" width="89.57080078125" height="57" opacity="0.2"/></g><g transform="translate(-238,-118) scale(1,1)"><rect fill="#ffffff" stroke="none" x="248" y="200" width="89.57080078125" height="57"/></g><g transform="translate(-238,-118) scale(1,1)"><path fill="none" stroke="#000000" d="M 248 200 L 337.57080078125 200 L 337.57080078125 257 L 248 257 L 248 200 Z Z" stroke-miterlimit="10"/></g><g transform="translate(-238,-118) scale(1,1)"><path fill="none" stroke="#000000" d="M 248 225 L 337.57080078125 225" stroke-miterlimit="10"/></g><g transform="translate(-238,-118) scale(1,1)"><path fill="none" stroke="#000000" d="M 248 235 L 337.57080078125 235" stroke-miterlimit="10"/></g><g transform="translate(-238,-118) scale(1,1)"><g><path fill="none" stroke="none"/><text fill="#000000" stroke="none" font-family="Arial" font-size="13px" font-style="normal" font-weight="bold" text-decoration="none" x="272.910888671875" y="219.5">branch</text></g></g><g transform="translate(-238,-118) scale(1,1)"><g><path fill="none" stroke="none"/><text fill="#000000" stroke="none" font-family="Arial" font-size="13px" font-style="normal" font-weight="normal" text-decoration="none" x="253" y="252.5">+getOne()</text></g></g><g transform="translate(-238,-118) scale(1,1)"><rect fill="#C0C0C0" stroke="none" x="255" y="279" width="89.57080078125" height="57" opacity="0.2"/></g><g transform="translate(-238,-118) scale(1,1)"><rect fill="#ffffff" stroke="none" x="248" y="272" width="89.57080078125" height="57"/></g><g transform="translate(-238,-118) scale(1,1)"><path fill="none" stroke="#000000" d="M 248 272 L 337.57080078125 272 L 337.57080078125 329 L 248 329 L 248 272 Z Z" stroke-miterlimit="10"/></g><g transform="translate(-238,-118) scale(1,1)"><path fill="none" stroke="#000000" d="M 248 297 L 337.57080078125 297" stroke-miterlimit="10"/></g><g transform="translate(-238,-118) scale(1,1)"><path fill="none" stroke="#000000" d="M 248 307 L 337.57080078125 307" stroke-miterlimit="10"/></g><g transform="translate(-238,-118) scale(1,1)"><g><path fill="none" stroke="none"/><text fill="#000000" stroke="none" font-family="Arial" font-size="13px" font-style="normal" font-weight="bold" text-decoration="none" x="264.601806640625" y="291.5">employee</text></g></g><g transform="translate(-238,-118) scale(1,1)"><g><path fill="none" stroke="none"/><text fill="#000000" stroke="none" font-family="Arial" font-size="13px" font-style="normal" font-weight="normal" text-decoration="none" x="253" y="324.5">+getOne()</text></g></g><g transform="translate(-238,-118) scale(1,1)"><rect fill="#C0C0C0" stroke="none" x="447" y="135" width="136" height="340" opacity="0.2"/></g><g transform="translate(-238,-118) scale(1,1)"><rect fill="#ffffff" stroke="none" x="440" y="128" width="136" height="340"/></g><g transform="translate(-238,-118) scale(1,1)"><path fill="none" stroke="#000000" d="M 440 128 L 576 128 L 576 468 L 440 468 L 440 128 Z Z" stroke-miterlimit="10"/></g><g transform="translate(-238,-118) scale(1,1)"><path fill="none" stroke="#000000" d="M 440 153 L 576 153" stroke-miterlimit="10"/></g><g transform="translate(-238,-118) scale(1,1)"><path fill="none" stroke="#000000" d="M 440 356 L 576 356" stroke-miterlimit="10"/></g><g transform="translate(-238,-118) scale(1,1)"><g><path fill="none" stroke="none"/><text fill="#000000" stroke="none" font-family="Arial" font-size="13px" font-style="normal" font-weight="bold" text-decoration="none" x="476.20458984375" y="147.5">transaction</text></g></g><g transform="translate(-238,-118) scale(1,1)"><g><path fill="none" stroke="none"/><text fill="#000000" stroke="none" font-family="Arial" font-size="13px" font-style="normal" font-weight="normal" text-decoration="none" x="445" y="170.5">+tranId</text></g></g><g transform="translate(-238,-118) scale(1,1)"><g><path fill="none" stroke="none"/><text fill="#000000" stroke="none" font-family="Arial" font-size="13px" font-style="normal" font-weight="normal" text-decoration="none" x="445" y="185.5">+branch</text></g></g><g transform="translate(-238,-118) scale(1,1)"><g><path fill="none" stroke="none"/><text fill="#000000" stroke="none" font-family="Arial" font-size="13px" font-style="normal" font-weight="normal" text-decoration="none" x="445" y="200.5">+ledger</text></g></g><g transform="translate(-238,-118) scale(1,1)"><g><path fill="none" stroke="none"/><text fill="#000000" stroke="none" font-family="Arial" font-size="13px" font-style="normal" font-weight="normal" text-decoration="none" x="445" y="215.5">+employee</text></g></g><g transform="translate(-238,-118) scale(1,1)"><g><path fill="none" stroke="none"/><text fill="#000000" stroke="none" font-family="Arial" font-size="13px" font-style="normal" font-weight="normal" text-decoration="none" x="445" y="230.5">+title</text></g></g><g transform="translate(-238,-118) scale(1,1)"><g><path fill="none" stroke="none"/><text fill="#000000" stroke="none" font-family="Arial" font-size="13px" font-style="normal" font-weight="normal" text-decoration="none" x="445" y="245.5">+QTY</text></g></g><g transform="translate(-238,-118) scale(1,1)"><g><path fill="none" stroke="none"/><text fill="#000000" stroke="none" font-family="Arial" font-size="13px" font-style="normal" font-weight="normal" text-decoration="none" x="445" y="260.5">+price</text></g></g><g transform="translate(-238,-118) scale(1,1)"><g><path fill="none" stroke="none"/><text fill="#000000" stroke="none" font-family="Arial" font-size="13px" font-style="normal" font-weight="normal" text-decoration="none" x="445" y="275.5">+discount</text></g></g><g transform="translate(-238,-118) scale(1,1)"><g><path fill="none" stroke="none"/><text fill="#000000" stroke="none" font-family="Arial" font-size="13px" font-style="normal" font-weight="normal" text-decoration="none" x="445" y="290.5">+total</text></g></g><g transform="translate(-238,-118) scale(1,1)"><g><path fill="none" stroke="none"/><text fill="#000000" stroke="none" font-family="Arial" font-size="13px" font-style="normal" font-weight="normal" text-decoration="none" x="445" y="305.5">+description</text></g></g><g transform="translate(-238,-118) scale(1,1)"><g><path fill="none" stroke="none"/><text fill="#000000" stroke="none" font-family="Arial" font-size="13px" font-style="normal" font-weight="normal" text-decoration="none" x="445" y="320.5">+status</text></g></g><g transform="translate(-238,-118) scale(1,1)"><g><path fill="none" stroke="none"/><text fill="#000000" stroke="none" font-family="Arial" font-size="13px" font-style="normal" font-weight="normal" text-decoration="none" x="445" y="335.5">+create date</text></g></g><g transform="translate(-238,-118) scale(1,1)"><g><path fill="none" stroke="none"/><text fill="#000000" stroke="none" font-family="Arial" font-size="13px" font-style="normal" font-weight="normal" text-decoration="none" x="445" y="350.5">+update date</text></g></g><g transform="translate(-238,-118) scale(1,1)"><g><path fill="none" stroke="none"/><text fill="#000000" stroke="none" font-family="Arial" font-size="13px" font-style="normal" font-weight="normal" text-decoration="none" x="445" y="373.5">+create()</text></g></g><g transform="translate(-238,-118) scale(1,1)"><g><path fill="none" stroke="none"/><text fill="#000000" stroke="none" font-family="Arial" font-size="13px" font-style="normal" font-weight="normal" text-decoration="none" x="445" y="388.5">+createIncome()</text></g></g><g transform="translate(-238,-118) scale(1,1)"><g><path fill="none" stroke="none"/><text fill="#000000" stroke="none" font-family="Arial" font-size="13px" font-style="normal" font-weight="normal" text-decoration="none" x="445" y="403.5">+createExpense()</text></g></g><g transform="translate(-238,-118) scale(1,1)"><g><path fill="none" stroke="none"/><text fill="#000000" stroke="none" font-family="Arial" font-size="13px" font-style="normal" font-weight="normal" text-decoration="none" x="445" y="418.5">+getAll()</text></g></g><g transform="translate(-238,-118) scale(1,1)"><g><path fill="none" stroke="none"/><text fill="#000000" stroke="none" font-family="Arial" font-size="13px" font-style="normal" font-weight="normal" text-decoration="none" x="445" y="433.5">+getOne()</text></g></g><g transform="translate(-238,-118) scale(1,1)"><g><path fill="none" stroke="none"/><text fill="#000000" stroke="none" font-family="Arial" font-size="13px" font-style="normal" font-weight="normal" text-decoration="none" x="445" y="448.5">+update()</text></g></g><g transform="translate(-238,-118) scale(1,1)"><g><path fill="none" stroke="none"/><text fill="#000000" stroke="none" font-family="Arial" font-size="13px" font-style="normal" font-weight="normal" text-decoration="none" x="445" y="463.5">+checkbookkeeping()</text></g></g><g transform="translate(-238,-118) scale(1,1)"><rect fill="#C0C0C0" stroke="none" x="687" y="135" width="92.0908203125" height="57" opacity="0.2"/></g><g transform="translate(-238,-118) scale(1,1)"><rect fill="#ffffff" stroke="none" x="680" y="128" width="92.0908203125" height="57"/></g><g transform="translate(-238,-118) scale(1,1)"><path fill="none" stroke="#000000" d="M 680 128 L 772.0908203125 128 L 772.0908203125 185 L 680 185 L 680 128 Z Z" stroke-miterlimit="10"/></g><g transform="translate(-238,-118) scale(1,1)"><path fill="none" stroke="#000000" d="M 680 153 L 772.0908203125 153" stroke-miterlimit="10"/></g><g transform="translate(-238,-118) scale(1,1)"><path fill="none" stroke="#000000" d="M 680 163 L 772.0908203125 163" stroke-miterlimit="10"/></g><g transform="translate(-238,-118) scale(1,1)"><g><path fill="none" stroke="none"/><text fill="#000000" stroke="none" font-family="Arial" font-size="13px" font-style="normal" font-weight="bold" text-decoration="none" x="688.47998046875" y="147.5">export striker</text></g></g><g transform="translate(-238,-118) scale(1,1)"><g><path fill="none" stroke="none"/><text fill="#000000" stroke="none" font-family="Arial" font-size="13px" font-style="normal" font-weight="normal" text-decoration="none" x="685" y="180.5">+getOne()</text></g></g><g transform="translate(-238,-118) scale(1,1)"><rect fill="#C0C0C0" stroke="none" x="695" y="207" width="89.57080078125" height="57" opacity="0.2"/></g><g transform="translate(-238,-118) scale(1,1)"><rect fill="#ffffff" stroke="none" x="688" y="200" width="89.57080078125" height="57"/></g><g transform="translate(-238,-118) scale(1,1)"><path fill="none" stroke="#000000" d="M 688 200 L 777.57080078125 200 L 777.57080078125 257 L 688 257 L 688 200 Z Z" stroke-miterlimit="10"/></g><g transform="translate(-238,-118) scale(1,1)"><path fill="none" stroke="#000000" d="M 688 225 L 777.57080078125 225" stroke-miterlimit="10"/></g><g transform="translate(-238,-118) scale(1,1)"><path fill="none" stroke="#000000" d="M 688 235 L 777.57080078125 235" stroke-miterlimit="10"/></g><g transform="translate(-238,-118) scale(1,1)"><g><path fill="none" stroke="none"/><text fill="#000000" stroke="none" font-family="Arial" font-size="13px" font-style="normal" font-weight="bold" text-decoration="none" x="707.85498046875" y="219.5">payment</text></g></g><g transform="translate(-238,-118) scale(1,1)"><g><path fill="none" stroke="none"/><text fill="#000000" stroke="none" font-family="Arial" font-size="13px" font-style="normal" font-weight="normal" text-decoration="none" x="693" y="252.5">+getOne()</text></g></g><g transform="translate(-238,-118) scale(1,1)"><path fill="none" stroke="#000000" d="M 576 152 L 680 152" stroke-miterlimit="10"/></g><g transform="translate(-238,-118) scale(1,1)"><path fill="#000000" stroke="none" d="M 669.8373251423759 156.209517756016 L 680 152 L 669.8373251423758 147.790482243984 L 658 152"/></g><g transform="translate(-238,-118) scale(1,1)"><path fill="none" stroke="#000000" d="M 669.8373251423759 156.209517756016 L 680 152 L 669.8373251423758 147.790482243984 L 658 152 L 669.8373251423759 156.209517756016" stroke-miterlimit="10"/></g><g transform="translate(-238,-118) scale(1,1)"><path fill="none" stroke="#000000" d="M 576 232 L 688 232" stroke-miterlimit="10"/></g><g transform="translate(-238,-118) scale(1,1)"><path fill="#000000" stroke="none" d="M 677.8373251423759 236.209517756016 L 688 232 L 677.8373251423758 227.790482243984 L 666 232"/></g><g transform="translate(-238,-118) scale(1,1)"><path fill="none" stroke="#000000" d="M 677.8373251423759 236.209517756016 L 688 232 L 677.8373251423758 227.790482243984 L 666 232 L 677.8373251423759 236.209517756016" stroke-miterlimit="10"/></g><g transform="translate(-238,-118) scale(1,1)"><path fill="none" stroke="#000000" d="M 439 253 L 338 186" stroke-miterlimit="10"/></g><g transform="translate(-238,-118) scale(1,1)"><path fill="#FFFFFF" stroke="none" d="M 359.59146715960685 190.22001728617548 L 338 186 L 350.2834700045455 204.25147568410378"/></g><g transform="translate(-238,-118) scale(1,1)"><path fill="none" stroke="#000000" d="M 359.59146715960685 190.22001728617548 L 338 186 L 350.2834700045455 204.25147568410378 L 359.59146715960685 190.22001728617548" stroke-miterlimit="10"/></g><g transform="translate(-238,-118) scale(1,1)"><path fill="none" stroke="#000000" d="M 439 276 L 339 243" stroke-miterlimit="10"/></g><g transform="translate(-238,-118) scale(1,1)"><path fill="#FFFFFF" stroke="none" d="M 360.9398703082447 241.37454902952965 L 339 243 L 355.663198477019 257.3644636696074"/></g><g transform="translate(-238,-118) scale(1,1)"><path fill="none" stroke="#000000" d="M 360.9398703082447 241.37454902952965 L 339 243 L 355.663198477019 257.3644636696074 L 360.9398703082447 241.37454902952965" stroke-miterlimit="10"/></g><g transform="translate(-238,-118) scale(1,1)"><path fill="none" stroke="#000000" d="M 439 299 L 339 300" stroke-miterlimit="10"/></g><g transform="translate(-238,-118) scale(1,1)"><path fill="#FFFFFF" stroke="none" d="M 359.240147378058 291.37814207293513 L 339 300 L 359.40851966989453 308.21537125658534"/></g><g transform="translate(-238,-118) scale(1,1)"><path fill="none" stroke="#000000" d="M 359.240147378058 291.37814207293513 L 339 300 L 359.40851966989453 308.21537125658534 L 359.240147378058 291.37814207293513" stroke-miterlimit="10"/></g></g></svg>