<svg version="1.1" xmlns="http://www.w3.org/2000/svg" xmlns:xlink="http://www.w3.org/1999/xlink" width="324" height="165"><defs/><g><text fill="#eeeeee" stroke="none" font-family="Arial" font-size="24px" font-style="normal" font-weight="normal" text-decoration="none" x="0" y="0">UNREGISTERED</text><text fill="#eeeeee" stroke="none" font-family="Arial" font-size="24px" font-style="normal" font-weight="normal" text-decoration="none" x="0" y="30">UNREGISTERED</text><text fill="#eeeeee" stroke="none" font-family="Arial" font-size="24px" font-style="normal" font-weight="normal" text-decoration="none" x="0" y="60">UNREGISTERED</text><text fill="#eeeeee" stroke="none" font-family="Arial" font-size="24px" font-style="normal" font-weight="normal" text-decoration="none" x="0" y="90">UNREGISTERED</text><text fill="#eeeeee" stroke="none" font-family="Arial" font-size="24px" font-style="normal" font-weight="normal" text-decoration="none" x="0" y="120">UNREGISTERED</text><text fill="#eeeeee" stroke="none" font-family="Arial" font-size="24px" font-style="normal" font-weight="normal" text-decoration="none" x="0" y="150">UNREGISTERED</text><text fill="#eeeeee" stroke="none" font-family="Arial" font-size="24px" font-style="normal" font-weight="normal" text-decoration="none" x="200" y="0">UNREGISTERED</text><text fill="#eeeeee" stroke="none" font-family="Arial" font-size="24px" font-style="normal" font-weight="normal" text-decoration="none" x="200" y="30">UNREGISTERED</text><text fill="#eeeeee" stroke="none" font-family="Arial" font-size="24px" font-style="normal" font-weight="normal" text-decoration="none" x="200" y="60">UNREGISTERED</text><text fill="#eeeeee" stroke="none" font-family="Arial" font-size="24px" font-style="normal" font-weight="normal" text-decoration="none" x="200" y="90">UNREGISTERED</text><text fill="#eeeeee" stroke="none" font-family="Arial" font-size="24px" font-style="normal" font-weight="normal" text-decoration="none" x="200" y="120">UNREGISTERED</text><text fill="#eeeeee" stroke="none" font-family="Arial" font-size="24px" font-style="normal" font-weight="normal" text-decoration="none" x="200" y="150">UNREGISTERED</text><g transform="translate(-134,-46) scale(1,1)"><rect fill="#C0C0C0" stroke="none" x="151" y="63" width="112" height="145" opacity="0.2"/></g><g transform="translate(-134,-46) scale(1,1)"><rect fill="#ffffff" stroke="none" x="144" y="56" width="112" height="145"/></g><g transform="translate(-134,-46) scale(1,1)"><path fill="none" stroke="#000000" d="M 144 56 L 256 56 L 256 201 L 144 201 L 144 56 Z Z" stroke-miterlimit="10"/></g><g transform="translate(-134,-46) scale(1,1)"><path fill="none" stroke="#000000" d="M 144 81 L 256 81" stroke-miterlimit="10"/></g><g transform="translate(-134,-46) scale(1,1)"><path fill="none" stroke="#000000" d="M 144 119 L 256 119" stroke-miterlimit="10"/></g><g transform="translate(-134,-46) scale(1,1)"><g><path fill="none" stroke="none"/><text fill="#000000" stroke="none" font-family="Arial" font-size="13px" font-style="normal" font-weight="bold" text-decoration="none" x="167.852294921875" y="75.5">Permission</text></g></g><g transform="translate(-134,-46) scale(1,1)"><g><path fill="none" stroke="none"/><text fill="#000000" stroke="none" font-family="Arial" font-size="13px" font-style="normal" font-weight="normal" text-decoration="none" x="149" y="98.5">+createDate</text></g></g><g transform="translate(-134,-46) scale(1,1)"><g><path fill="none" stroke="none"/><text fill="#000000" stroke="none" font-family="Arial" font-size="13px" font-style="normal" font-weight="normal" text-decoration="none" x="149" y="113.5">+updateDate</text></g></g><g transform="translate(-134,-46) scale(1,1)"><g><path fill="none" stroke="none"/><text fill="#000000" stroke="none" font-family="Arial" font-size="13px" font-style="normal" font-weight="normal" text-decoration="none" x="149" y="136.5">+get()</text></g></g><g transform="translate(-134,-46) scale(1,1)"><g><path fill="none" stroke="none"/><text fill="#000000" stroke="none" font-family="Arial" font-size="13px" font-style="normal" font-weight="normal" text-decoration="none" x="149" y="151.5">+create()</text></g></g><g transform="translate(-134,-46) scale(1,1)"><g><path fill="none" stroke="none"/><text fill="#000000" stroke="none" font-family="Arial" font-size="13px" font-style="normal" font-weight="normal" text-decoration="none" x="149" y="166.5">+edit()</text></g></g><g transform="translate(-134,-46) scale(1,1)"><g><path fill="none" stroke="none"/><text fill="#000000" stroke="none" font-family="Arial" font-size="13px" font-style="normal" font-weight="normal" text-decoration="none" x="149" y="181.5">+delete()</text></g></g><g transform="translate(-134,-46) scale(1,1)"><g><path fill="none" stroke="none"/><text fill="#000000" stroke="none" font-family="Arial" font-size="13px" font-style="normal" font-weight="normal" text-decoration="none" x="149" y="196.5">+disable()</text></g></g><g transform="translate(-134,-46) scale(1,1)"><rect fill="#C0C0C0" stroke="none" x="335" y="63" width="120" height="87" opacity="0.2"/></g><g transform="translate(-134,-46) scale(1,1)"><rect fill="#ffffff" stroke="none" x="328" y="56" width="120" height="87"/></g><g transform="translate(-134,-46) scale(1,1)"><path fill="none" stroke="#000000" d="M 328 56 L 448 56 L 448 143 L 328 143 L 328 56 Z Z" stroke-miterlimit="10"/></g><g transform="translate(-134,-46) scale(1,1)"><path fill="none" stroke="#000000" d="M 328 81 L 448 81" stroke-miterlimit="10"/></g><g transform="translate(-134,-46) scale(1,1)"><path fill="none" stroke="#000000" d="M 328 134 L 448 134" stroke-miterlimit="10"/></g><g transform="translate(-134,-46) scale(1,1)"><g><path fill="none" stroke="none"/><text fill="#000000" stroke="none" font-family="Arial" font-size="13px" font-style="normal" font-weight="bold" text-decoration="none" x="368.135009765625" y="75.5">Master</text></g></g><g transform="translate(-134,-46) scale(1,1)"><g><path fill="none" stroke="none"/><text fill="#000000" stroke="none" font-family="Arial" font-size="13px" font-style="normal" font-weight="normal" text-decoration="none" x="333" y="98.5">+id</text></g></g><g transform="translate(-134,-46) scale(1,1)"><g><path fill="none" stroke="none"/><text fill="#000000" stroke="none" font-family="Arial" font-size="13px" font-style="normal" font-weight="normal" text-decoration="none" x="333" y="113.5">+Name</text></g></g><g transform="translate(-134,-46) scale(1,1)"><g><path fill="none" stroke="none"/><text fill="#000000" stroke="none" font-family="Arial" font-size="13px" font-style="normal" font-weight="normal" text-decoration="none" x="333" y="128.5">+isActive</text></g></g><g transform="translate(-134,-46) scale(1,1)"><path fill="none" stroke="#000000" d="M 256 119 L 328 119" stroke-miterlimit="10"/></g><g transform="translate(-134,-46) scale(1,1)"><path fill="#000000" stroke="none" d="M 317.83732514237585 123.20951775601598 L 328 119 L 317.83732514237585 114.79048224398402 L 306 119"/></g><g transform="translate(-134,-46) scale(1,1)"><path fill="none" stroke="#000000" d="M 317.83732514237585 123.20951775601598 L 328 119 L 317.83732514237585 114.79048224398402 L 306 119 L 317.83732514237585 123.20951775601598" stroke-miterlimit="10"/></g></g></svg>