<svg version="1.1" xmlns="http://www.w3.org/2000/svg" xmlns:xlink="http://www.w3.org/1999/xlink" width="723.72802734375" height="516"><defs/><g><text fill="#eeeeee" stroke="none" font-family="Arial" font-size="24px" font-style="normal" font-weight="normal" text-decoration="none" x="0" y="0">UNREGISTERED</text><text fill="#eeeeee" stroke="none" font-family="Arial" font-size="24px" font-style="normal" font-weight="normal" text-decoration="none" x="0" y="30">UNREGISTERED</text><text fill="#eeeeee" stroke="none" font-family="Arial" font-size="24px" font-style="normal" font-weight="normal" text-decoration="none" x="0" y="60">UNREGISTERED</text><text fill="#eeeeee" stroke="none" font-family="Arial" font-size="24px" font-style="normal" font-weight="normal" text-decoration="none" x="0" y="90">UNREGISTERED</text><text fill="#eeeeee" stroke="none" font-family="Arial" font-size="24px" font-style="normal" font-weight="normal" text-decoration="none" x="0" y="120">UNREGISTERED</text><text fill="#eeeeee" stroke="none" font-family="Arial" font-size="24px" font-style="normal" font-weight="normal" text-decoration="none" x="0" y="150">UNREGISTERED</text><text fill="#eeeeee" stroke="none" font-family="Arial" font-size="24px" font-style="normal" font-weight="normal" text-decoration="none" x="0" y="180">UNREGISTERED</text><text fill="#eeeeee" stroke="none" font-family="Arial" font-size="24px" font-style="normal" font-weight="normal" text-decoration="none" x="0" y="210">UNREGISTERED</text><text fill="#eeeeee" stroke="none" font-family="Arial" font-size="24px" font-style="normal" font-weight="normal" text-decoration="none" x="0" y="240">UNREGISTERED</text><text fill="#eeeeee" stroke="none" font-family="Arial" font-size="24px" font-style="normal" font-weight="normal" text-decoration="none" x="0" y="270">UNREGISTERED</text><text fill="#eeeeee" stroke="none" font-family="Arial" font-size="24px" font-style="normal" font-weight="normal" text-decoration="none" x="0" y="300">UNREGISTERED</text><text fill="#eeeeee" stroke="none" font-family="Arial" font-size="24px" font-style="normal" font-weight="normal" text-decoration="none" x="0" y="330">UNREGISTERED</text><text fill="#eeeeee" stroke="none" font-family="Arial" font-size="24px" font-style="normal" font-weight="normal" text-decoration="none" x="0" y="360">UNREGISTERED</text><text fill="#eeeeee" stroke="none" font-family="Arial" font-size="24px" font-style="normal" font-weight="normal" text-decoration="none" x="0" y="390">UNREGISTERED</text><text fill="#eeeeee" stroke="none" font-family="Arial" font-size="24px" font-style="normal" font-weight="normal" text-decoration="none" x="0" y="420">UNREGISTERED</text><text fill="#eeeeee" stroke="none" font-family="Arial" font-size="24px" font-style="normal" font-weight="normal" text-decoration="none" x="0" y="450">UNREGISTERED</text><text fill="#eeeeee" stroke="none" font-family="Arial" font-size="24px" font-style="normal" font-weight="normal" text-decoration="none" x="0" y="480">UNREGISTERED</text><text fill="#eeeeee" stroke="none" font-family="Arial" font-size="24px" font-style="normal" font-weight="normal" text-decoration="none" x="0" y="510">UNREGISTERED</text><text fill="#eeeeee" stroke="none" font-family="Arial" font-size="24px" font-style="normal" font-weight="normal" text-decoration="none" x="200" y="0">UNREGISTERED</text><text fill="#eeeeee" stroke="none" font-family="Arial" font-size="24px" font-style="normal" font-weight="normal" text-decoration="none" x="200" y="30">UNREGISTERED</text><text fill="#eeeeee" stroke="none" font-family="Arial" font-size="24px" font-style="normal" font-weight="normal" text-decoration="none" x="200" y="60">UNREGISTERED</text><text fill="#eeeeee" stroke="none" font-family="Arial" font-size="24px" font-style="normal" font-weight="normal" text-decoration="none" x="200" y="90">UNREGISTERED</text><text fill="#eeeeee" stroke="none" font-family="Arial" font-size="24px" font-style="normal" font-weight="normal" text-decoration="none" x="200" y="120">UNREGISTERED</text><text fill="#eeeeee" stroke="none" font-family="Arial" font-size="24px" font-style="normal" font-weight="normal" text-decoration="none" x="200" y="150">UNREGISTERED</text><text fill="#eeeeee" stroke="none" font-family="Arial" font-size="24px" font-style="normal" font-weight="normal" text-decoration="none" x="200" y="180">UNREGISTERED</text><text fill="#eeeeee" stroke="none" font-family="Arial" font-size="24px" font-style="normal" font-weight="normal" text-decoration="none" x="200" y="210">UNREGISTERED</text><text fill="#eeeeee" stroke="none" font-family="Arial" font-size="24px" font-style="normal" font-weight="normal" text-decoration="none" x="200" y="240">UNREGISTERED</text><text fill="#eeeeee" stroke="none" font-family="Arial" font-size="24px" font-style="normal" font-weight="normal" text-decoration="none" x="200" y="270">UNREGISTERED</text><text fill="#eeeeee" stroke="none" font-family="Arial" font-size="24px" font-style="normal" font-weight="normal" text-decoration="none" x="200" y="300">UNREGISTERED</text><text fill="#eeeeee" stroke="none" font-family="Arial" font-size="24px" font-style="normal" font-weight="normal" text-decoration="none" x="200" y="330">UNREGISTERED</text><text fill="#eeeeee" stroke="none" font-family="Arial" font-size="24px" font-style="normal" font-weight="normal" text-decoration="none" x="200" y="360">UNREGISTERED</text><text fill="#eeeeee" stroke="none" font-family="Arial" font-size="24px" font-style="normal" font-weight="normal" text-decoration="none" x="200" y="390">UNREGISTERED</text><text fill="#eeeeee" stroke="none" font-family="Arial" font-size="24px" font-style="normal" font-weight="normal" text-decoration="none" x="200" y="420">UNREGISTERED</text><text fill="#eeeeee" stroke="none" font-family="Arial" font-size="24px" font-style="normal" font-weight="normal" text-decoration="none" x="200" y="450">UNREGISTERED</text><text fill="#eeeeee" stroke="none" font-family="Arial" font-size="24px" font-style="normal" font-weight="normal" text-decoration="none" x="200" y="480">UNREGISTERED</text><text fill="#eeeeee" stroke="none" font-family="Arial" font-size="24px" font-style="normal" font-weight="normal" text-decoration="none" x="200" y="510">UNREGISTERED</text><text fill="#eeeeee" stroke="none" font-family="Arial" font-size="24px" font-style="normal" font-weight="normal" text-decoration="none" x="400" y="0">UNREGISTERED</text><text fill="#eeeeee" stroke="none" font-family="Arial" font-size="24px" font-style="normal" font-weight="normal" text-decoration="none" x="400" y="30">UNREGISTERED</text><text fill="#eeeeee" stroke="none" font-family="Arial" font-size="24px" font-style="normal" font-weight="normal" text-decoration="none" x="400" y="60">UNREGISTERED</text><text fill="#eeeeee" stroke="none" font-family="Arial" font-size="24px" font-style="normal" font-weight="normal" text-decoration="none" x="400" y="90">UNREGISTERED</text><text fill="#eeeeee" stroke="none" font-family="Arial" font-size="24px" font-style="normal" font-weight="normal" text-decoration="none" x="400" y="120">UNREGISTERED</text><text fill="#eeeeee" stroke="none" font-family="Arial" font-size="24px" font-style="normal" font-weight="normal" text-decoration="none" x="400" y="150">UNREGISTERED</text><text fill="#eeeeee" stroke="none" font-family="Arial" font-size="24px" font-style="normal" font-weight="normal" text-decoration="none" x="400" y="180">UNREGISTERED</text><text fill="#eeeeee" stroke="none" font-family="Arial" font-size="24px" font-style="normal" font-weight="normal" text-decoration="none" x="400" y="210">UNREGISTERED</text><text fill="#eeeeee" stroke="none" font-family="Arial" font-size="24px" font-style="normal" font-weight="normal" text-decoration="none" x="400" y="240">UNREGISTERED</text><text fill="#eeeeee" stroke="none" font-family="Arial" font-size="24px" font-style="normal" font-weight="normal" text-decoration="none" x="400" y="270">UNREGISTERED</text><text fill="#eeeeee" stroke="none" font-family="Arial" font-size="24px" font-style="normal" font-weight="normal" text-decoration="none" x="400" y="300">UNREGISTERED</text><text fill="#eeeeee" stroke="none" font-family="Arial" font-size="24px" font-style="normal" font-weight="normal" text-decoration="none" x="400" y="330">UNREGISTERED</text><text fill="#eeeeee" stroke="none" font-family="Arial" font-size="24px" font-style="normal" font-weight="normal" text-decoration="none" x="400" y="360">UNREGISTERED</text><text fill="#eeeeee" stroke="none" font-family="Arial" font-size="24px" font-style="normal" font-weight="normal" text-decoration="none" x="400" y="390">UNREGISTERED</text><text fill="#eeeeee" stroke="none" font-family="Arial" font-size="24px" font-style="normal" font-weight="normal" text-decoration="none" x="400" y="420">UNREGISTERED</text><text fill="#eeeeee" stroke="none" font-family="Arial" font-size="24px" font-style="normal" font-weight="normal" text-decoration="none" x="400" y="450">UNREGISTERED</text><text fill="#eeeeee" stroke="none" font-family="Arial" font-size="24px" font-style="normal" font-weight="normal" text-decoration="none" x="400" y="480">UNREGISTERED</text><text fill="#eeeeee" stroke="none" font-family="Arial" font-size="24px" font-style="normal" font-weight="normal" text-decoration="none" x="400" y="510">UNREGISTERED</text><text fill="#eeeeee" stroke="none" font-family="Arial" font-size="24px" font-style="normal" font-weight="normal" text-decoration="none" x="600" y="0">UNREGISTERED</text><text fill="#eeeeee" stroke="none" font-family="Arial" font-size="24px" font-style="normal" font-weight="normal" text-decoration="none" x="600" y="30">UNREGISTERED</text><text fill="#eeeeee" stroke="none" font-family="Arial" font-size="24px" font-style="normal" font-weight="normal" text-decoration="none" x="600" y="60">UNREGISTERED</text><text fill="#eeeeee" stroke="none" font-family="Arial" font-size="24px" font-style="normal" font-weight="normal" text-decoration="none" x="600" y="90">UNREGISTERED</text><text fill="#eeeeee" stroke="none" font-family="Arial" font-size="24px" font-style="normal" font-weight="normal" text-decoration="none" x="600" y="120">UNREGISTERED</text><text fill="#eeeeee" stroke="none" font-family="Arial" font-size="24px" font-style="normal" font-weight="normal" text-decoration="none" x="600" y="150">UNREGISTERED</text><text fill="#eeeeee" stroke="none" font-family="Arial" font-size="24px" font-style="normal" font-weight="normal" text-decoration="none" x="600" y="180">UNREGISTERED</text><text fill="#eeeeee" stroke="none" font-family="Arial" font-size="24px" font-style="normal" font-weight="normal" text-decoration="none" x="600" y="210">UNREGISTERED</text><text fill="#eeeeee" stroke="none" font-family="Arial" font-size="24px" font-style="normal" font-weight="normal" text-decoration="none" x="600" y="240">UNREGISTERED</text><text fill="#eeeeee" stroke="none" font-family="Arial" font-size="24px" font-style="normal" font-weight="normal" text-decoration="none" x="600" y="270">UNREGISTERED</text><text fill="#eeeeee" stroke="none" font-family="Arial" font-size="24px" font-style="normal" font-weight="normal" text-decoration="none" x="600" y="300">UNREGISTERED</text><text fill="#eeeeee" stroke="none" font-family="Arial" font-size="24px" font-style="normal" font-weight="normal" text-decoration="none" x="600" y="330">UNREGISTERED</text><text fill="#eeeeee" stroke="none" font-family="Arial" font-size="24px" font-style="normal" font-weight="normal" text-decoration="none" x="600" y="360">UNREGISTERED</text><text fill="#eeeeee" stroke="none" font-family="Arial" font-size="24px" font-style="normal" font-weight="normal" text-decoration="none" x="600" y="390">UNREGISTERED</text><text fill="#eeeeee" stroke="none" font-family="Arial" font-size="24px" font-style="normal" font-weight="normal" text-decoration="none" x="600" y="420">UNREGISTERED</text><text fill="#eeeeee" stroke="none" font-family="Arial" font-size="24px" font-style="normal" font-weight="normal" text-decoration="none" x="600" y="450">UNREGISTERED</text><text fill="#eeeeee" stroke="none" font-family="Arial" font-size="24px" font-style="normal" font-weight="normal" text-decoration="none" x="600" y="480">UNREGISTERED</text><text fill="#eeeeee" stroke="none" font-family="Arial" font-size="24px" font-style="normal" font-weight="normal" text-decoration="none" x="600" y="510">UNREGISTERED</text><g transform="translate(-174,-62) scale(1,1)"><rect fill="#C0C0C0" stroke="none" x="303" y="79" width="112" height="57" opacity="0.2"/></g><g transform="translate(-174,-62) scale(1,1)"><rect fill="#ffffff" stroke="none" x="296" y="72" width="112" height="57"/></g><g transform="translate(-174,-62) scale(1,1)"><path fill="none" stroke="#000000" d="M 296 72 L 408 72 L 408 129 L 296 129 L 296 72 Z Z" stroke-miterlimit="10"/></g><g transform="translate(-174,-62) scale(1,1)"><path fill="none" stroke="#000000" d="M 296 97 L 408 97" stroke-miterlimit="10"/></g><g transform="translate(-174,-62) scale(1,1)"><path fill="none" stroke="#000000" d="M 296 107 L 408 107" stroke-miterlimit="10"/></g><g transform="translate(-174,-62) scale(1,1)"><g><path fill="none" stroke="none"/><text fill="#000000" stroke="none" font-family="Arial" font-size="13px" font-style="normal" font-weight="bold" text-decoration="none" x="327.431396484375" y="91.5">province</text></g></g><g transform="translate(-174,-62) scale(1,1)"><g><path fill="none" stroke="none"/><text fill="#000000" stroke="none" font-family="Arial" font-size="13px" font-style="normal" font-weight="normal" text-decoration="none" x="301" y="124.5">+get()</text></g></g><g transform="translate(-174,-62) scale(1,1)"><rect fill="#C0C0C0" stroke="none" x="487" y="79" width="112" height="57" opacity="0.2"/></g><g transform="translate(-174,-62) scale(1,1)"><rect fill="#ffffff" stroke="none" x="480" y="72" width="112" height="57"/></g><g transform="translate(-174,-62) scale(1,1)"><path fill="none" stroke="#000000" d="M 480 72 L 592 72 L 592 129 L 480 129 L 480 72 Z Z" stroke-miterlimit="10"/></g><g transform="translate(-174,-62) scale(1,1)"><path fill="none" stroke="#000000" d="M 480 97 L 592 97" stroke-miterlimit="10"/></g><g transform="translate(-174,-62) scale(1,1)"><path fill="none" stroke="#000000" d="M 480 107 L 592 107" stroke-miterlimit="10"/></g><g transform="translate(-174,-62) scale(1,1)"><g><path fill="none" stroke="none"/><text fill="#000000" stroke="none" font-family="Arial" font-size="13px" font-style="normal" font-weight="bold" text-decoration="none" x="517.220458984375" y="91.5">district</text></g></g><g transform="translate(-174,-62) scale(1,1)"><g><path fill="none" stroke="none"/><text fill="#000000" stroke="none" font-family="Arial" font-size="13px" font-style="normal" font-weight="normal" text-decoration="none" x="485" y="124.5">+get()</text></g></g><g transform="translate(-174,-62) scale(1,1)"><rect fill="#C0C0C0" stroke="none" x="191" y="183" width="112" height="62" opacity="0.2"/></g><g transform="translate(-174,-62) scale(1,1)"><rect fill="#ffffff" stroke="none" x="184" y="176" width="112" height="62"/></g><g transform="translate(-174,-62) scale(1,1)"><path fill="none" stroke="#000000" d="M 184 176 L 296 176 L 296 238 L 184 238 L 184 176 Z Z" stroke-miterlimit="10"/></g><g transform="translate(-174,-62) scale(1,1)"><path fill="none" stroke="#000000" d="M 184 201 L 296 201" stroke-miterlimit="10"/></g><g transform="translate(-174,-62) scale(1,1)"><path fill="none" stroke="#000000" d="M 184 211 L 296 211" stroke-miterlimit="10"/></g><g transform="translate(-174,-62) scale(1,1)"><g><path fill="none" stroke="none"/><text fill="#000000" stroke="none" font-family="Arial" font-size="13px" font-style="normal" font-weight="bold" text-decoration="none" x="226.2763671875" y="195.5">User</text></g></g><g transform="translate(-174,-62) scale(1,1)"><g><path fill="none" stroke="none"/><text fill="#000000" stroke="none" font-family="Arial" font-size="13px" font-style="normal" font-weight="normal" text-decoration="none" x="189" y="228.5">+get()</text></g></g><g transform="translate(-174,-62) scale(1,1)"><rect fill="#C0C0C0" stroke="none" x="631" y="167" width="104" height="57" opacity="0.2"/></g><g transform="translate(-174,-62) scale(1,1)"><rect fill="#ffffff" stroke="none" x="624" y="160" width="104" height="57"/></g><g transform="translate(-174,-62) scale(1,1)"><path fill="none" stroke="#000000" d="M 624 160 L 728 160 L 728 217 L 624 217 L 624 160 Z Z" stroke-miterlimit="10"/></g><g transform="translate(-174,-62) scale(1,1)"><path fill="none" stroke="#000000" d="M 624 185 L 728 185" stroke-miterlimit="10"/></g><g transform="translate(-174,-62) scale(1,1)"><path fill="none" stroke="#000000" d="M 624 195 L 728 195" stroke-miterlimit="10"/></g><g transform="translate(-174,-62) scale(1,1)"><g><path fill="none" stroke="none"/><text fill="#000000" stroke="none" font-family="Arial" font-size="13px" font-style="normal" font-weight="bold" text-decoration="none" x="638.786865234375" y="179.5">type contract</text></g></g><g transform="translate(-174,-62) scale(1,1)"><g><path fill="none" stroke="none"/><text fill="#000000" stroke="none" font-family="Arial" font-size="13px" font-style="normal" font-weight="normal" text-decoration="none" x="629" y="212.5">+get()</text></g></g><g transform="translate(-174,-62) scale(1,1)"><rect fill="#C0C0C0" stroke="none" x="623" y="303" width="120" height="235" opacity="0.2"/></g><g transform="translate(-174,-62) scale(1,1)"><rect fill="#ffffff" stroke="none" x="616" y="296" width="120" height="235"/></g><g transform="translate(-174,-62) scale(1,1)"><path fill="none" stroke="#000000" d="M 616 296 L 736 296 L 736 531 L 616 531 L 616 296 Z Z" stroke-miterlimit="10"/></g><g transform="translate(-174,-62) scale(1,1)"><path fill="none" stroke="#000000" d="M 616 321 L 736 321" stroke-miterlimit="10"/></g><g transform="translate(-174,-62) scale(1,1)"><path fill="none" stroke="#000000" d="M 616 479 L 736 479" stroke-miterlimit="10"/></g><g transform="translate(-174,-62) scale(1,1)"><g><path fill="none" stroke="none"/><text fill="#000000" stroke="none" font-family="Arial" font-size="13px" font-style="normal" font-weight="bold" text-decoration="none" x="652.878662109375" y="315.5">contract</text></g></g><g transform="translate(-174,-62) scale(1,1)"><g><path fill="none" stroke="none"/><text fill="#000000" stroke="none" font-family="Arial" font-size="13px" font-style="normal" font-weight="normal" text-decoration="none" x="621" y="338.5">+cId</text></g></g><g transform="translate(-174,-62) scale(1,1)"><g><path fill="none" stroke="none"/><text fill="#000000" stroke="none" font-family="Arial" font-size="13px" font-style="normal" font-weight="normal" text-decoration="none" x="621" y="353.5">+typecontract</text></g></g><g transform="translate(-174,-62) scale(1,1)"><g><path fill="none" stroke="none"/><text fill="#000000" stroke="none" font-family="Arial" font-size="13px" font-style="normal" font-weight="normal" text-decoration="none" x="621" y="368.5">+branch</text></g></g><g transform="translate(-174,-62) scale(1,1)"><g><path fill="none" stroke="none"/><text fill="#000000" stroke="none" font-family="Arial" font-size="13px" font-style="normal" font-weight="normal" text-decoration="none" x="621" y="383.5">+range</text></g></g><g transform="translate(-174,-62) scale(1,1)"><g><path fill="none" stroke="none"/><text fill="#000000" stroke="none" font-family="Arial" font-size="13px" font-style="normal" font-weight="normal" text-decoration="none" x="621" y="398.5">+start Date</text></g></g><g transform="translate(-174,-62) scale(1,1)"><g><path fill="none" stroke="none"/><text fill="#000000" stroke="none" font-family="Arial" font-size="13px" font-style="normal" font-weight="normal" text-decoration="none" x="621" y="413.5">+end Date</text></g></g><g transform="translate(-174,-62) scale(1,1)"><g><path fill="none" stroke="none"/><text fill="#000000" stroke="none" font-family="Arial" font-size="13px" font-style="normal" font-weight="normal" text-decoration="none" x="621" y="428.5">+status enum</text></g></g><g transform="translate(-174,-62) scale(1,1)"><g><path fill="none" stroke="none"/><text fill="#000000" stroke="none" font-family="Arial" font-size="13px" font-style="normal" font-weight="normal" text-decoration="none" x="621" y="443.5">+create date</text></g></g><g transform="translate(-174,-62) scale(1,1)"><g><path fill="none" stroke="none"/><text fill="#000000" stroke="none" font-family="Arial" font-size="13px" font-style="normal" font-weight="normal" text-decoration="none" x="621" y="458.5">+update date</text></g></g><g transform="translate(-174,-62) scale(1,1)"><g><path fill="none" stroke="none"/><text fill="#000000" stroke="none" font-family="Arial" font-size="13px" font-style="normal" font-weight="normal" text-decoration="none" x="621" y="473.5">+create</text></g></g><g transform="translate(-174,-62) scale(1,1)"><g><path fill="none" stroke="none"/><text fill="#000000" stroke="none" font-family="Arial" font-size="13px" font-style="normal" font-weight="normal" text-decoration="none" x="621" y="496.5">+get()</text></g></g><g transform="translate(-174,-62) scale(1,1)"><g><path fill="none" stroke="none"/><text fill="#000000" stroke="none" font-family="Arial" font-size="13px" font-style="normal" font-weight="normal" text-decoration="none" x="621" y="511.5">+create()</text></g></g><g transform="translate(-174,-62) scale(1,1)"><g><path fill="none" stroke="none"/><text fill="#000000" stroke="none" font-family="Arial" font-size="13px" font-style="normal" font-weight="normal" text-decoration="none" x="621" y="526.5">+renew()</text></g></g><g transform="translate(-174,-62) scale(1,1)"><rect fill="#C0C0C0" stroke="none" x="383" y="263" width="120" height="312" opacity="0.2"/></g><g transform="translate(-174,-62) scale(1,1)"><rect fill="#ffffff" stroke="none" x="376" y="256" width="120" height="312"/></g><g transform="translate(-174,-62) scale(1,1)"><path fill="none" stroke="#000000" d="M 376 256 L 496 256 L 496 568 L 376 568 L 376 256 Z Z" stroke-miterlimit="10"/></g><g transform="translate(-174,-62) scale(1,1)"><path fill="none" stroke="#000000" d="M 376 281 L 496 281" stroke-miterlimit="10"/></g><g transform="translate(-174,-62) scale(1,1)"><path fill="none" stroke="#000000" d="M 376 469 L 496 469" stroke-miterlimit="10"/></g><g transform="translate(-174,-62) scale(1,1)"><g><path fill="none" stroke="none"/><text fill="#000000" stroke="none" font-family="Arial" font-size="13px" font-style="normal" font-weight="bold" text-decoration="none" x="415.405029296875" y="275.5">Branch</text></g></g><g transform="translate(-174,-62) scale(1,1)"><g><path fill="none" stroke="none"/><text fill="#000000" stroke="none" font-family="Arial" font-size="13px" font-style="normal" font-weight="normal" text-decoration="none" x="381" y="298.5">+bId</text></g></g><g transform="translate(-174,-62) scale(1,1)"><g><path fill="none" stroke="none"/><text fill="#000000" stroke="none" font-family="Arial" font-size="13px" font-style="normal" font-weight="normal" text-decoration="none" x="381" y="313.5">+ownership</text></g></g><g transform="translate(-174,-62) scale(1,1)"><g><path fill="none" stroke="none"/><text fill="#000000" stroke="none" font-family="Arial" font-size="13px" font-style="normal" font-weight="normal" text-decoration="none" x="381" y="328.5">+province</text></g></g><g transform="translate(-174,-62) scale(1,1)"><g><path fill="none" stroke="none"/><text fill="#000000" stroke="none" font-family="Arial" font-size="13px" font-style="normal" font-weight="normal" text-decoration="none" x="381" y="343.5">+district</text></g></g><g transform="translate(-174,-62) scale(1,1)"><g><path fill="none" stroke="none"/><text fill="#000000" stroke="none" font-family="Arial" font-size="13px" font-style="normal" font-weight="normal" text-decoration="none" x="381" y="358.5">+lao_Name</text></g></g><g transform="translate(-174,-62) scale(1,1)"><g><path fill="none" stroke="none"/><text fill="#000000" stroke="none" font-family="Arial" font-size="13px" font-style="normal" font-weight="normal" text-decoration="none" x="381" y="373.5">+eng_Name</text></g></g><g transform="translate(-174,-62) scale(1,1)"><g><path fill="none" stroke="none"/><text fill="#000000" stroke="none" font-family="Arial" font-size="13px" font-style="normal" font-weight="normal" text-decoration="none" x="381" y="388.5">+logo</text></g></g><g transform="translate(-174,-62) scale(1,1)"><g><path fill="none" stroke="none"/><text fill="#000000" stroke="none" font-family="Arial" font-size="13px" font-style="normal" font-weight="normal" text-decoration="none" x="381" y="403.5">+address</text></g></g><g transform="translate(-174,-62) scale(1,1)"><g><path fill="none" stroke="none"/><text fill="#000000" stroke="none" font-family="Arial" font-size="13px" font-style="normal" font-weight="normal" text-decoration="none" x="381" y="418.5">+description</text></g></g><g transform="translate(-174,-62) scale(1,1)"><g><path fill="none" stroke="none"/><text fill="#000000" stroke="none" font-family="Arial" font-size="13px" font-style="normal" font-weight="normal" text-decoration="none" x="381" y="433.5">+isActive</text></g></g><g transform="translate(-174,-62) scale(1,1)"><g><path fill="none" stroke="none"/><text fill="#000000" stroke="none" font-family="Arial" font-size="13px" font-style="normal" font-weight="normal" text-decoration="none" x="381" y="448.5">+create date</text></g></g><g transform="translate(-174,-62) scale(1,1)"><g><path fill="none" stroke="none"/><text fill="#000000" stroke="none" font-family="Arial" font-size="13px" font-style="normal" font-weight="normal" text-decoration="none" x="381" y="463.5">+update date</text></g></g><g transform="translate(-174,-62) scale(1,1)"><g><path fill="none" stroke="none"/><text fill="#000000" stroke="none" font-family="Arial" font-size="13px" font-style="normal" font-weight="normal" text-decoration="none" x="381" y="486.5">+get()</text></g></g><g transform="translate(-174,-62) scale(1,1)"><g><path fill="none" stroke="none"/><text fill="#000000" stroke="none" font-family="Arial" font-size="13px" font-style="normal" font-weight="normal" text-decoration="none" x="381" y="501.5">+create()</text></g></g><g transform="translate(-174,-62) scale(1,1)"><g><path fill="none" stroke="none"/><text fill="#000000" stroke="none" font-family="Arial" font-size="13px" font-style="normal" font-weight="normal" text-decoration="none" x="381" y="516.5">+validation()</text></g></g><g transform="translate(-174,-62) scale(1,1)"><g><path fill="none" stroke="none"/><text fill="#000000" stroke="none" font-family="Arial" font-size="13px" font-style="normal" font-weight="normal" text-decoration="none" x="381" y="531.5">+edit()</text></g></g><g transform="translate(-174,-62) scale(1,1)"><g><path fill="none" stroke="none"/><text fill="#000000" stroke="none" font-family="Arial" font-size="13px" font-style="normal" font-weight="normal" text-decoration="none" x="381" y="546.5">+delete()</text></g></g><g transform="translate(-174,-62) scale(1,1)"><g><path fill="none" stroke="none"/><text fill="#000000" stroke="none" font-family="Arial" font-size="13px" font-style="normal" font-weight="normal" text-decoration="none" x="381" y="561.5">+disable()</text></g></g><g transform="translate(-174,-62) scale(1,1)"><path fill="none" stroke="#000000" d="M 615 413 L 497 412" stroke-miterlimit="10"/></g><g transform="translate(-174,-62) scale(1,1)"><path fill="#FFFFFF" stroke="none" d="M 517.3959650837468 403.75350933411164 L 497 412 L 517.2532746904026 420.59097574872015"/></g><g transform="translate(-174,-62) scale(1,1)"><path fill="none" stroke="#000000" d="M 517.3959650837468 403.75350933411164 L 497 412 L 517.2532746904026 420.59097574872015 L 517.3959650837468 403.75350933411164" stroke-miterlimit="10"/></g><g transform="translate(-174,-62) scale(1,1)"><path fill="none" stroke="#000000" d="M 486 255 L 526 130" stroke-miterlimit="10"/></g><g transform="translate(-174,-62) scale(1,1)"><path fill="#FFFFFF" stroke="none" d="M 527.8238194796844 151.9242715387655 L 526 130 L 511.7868340441086 146.79243619938129"/></g><g transform="translate(-174,-62) scale(1,1)"><path fill="none" stroke="#000000" d="M 527.8238194796844 151.9242715387655 L 526 130 L 511.7868340441086 146.79243619938129 L 527.8238194796844 151.9242715387655" stroke-miterlimit="10"/></g><g transform="translate(-174,-62) scale(1,1)"><path fill="none" stroke="#000000" d="M 394 255 L 360 130" stroke-miterlimit="10"/></g><g transform="translate(-174,-62) scale(1,1)"><path fill="#FFFFFF" stroke="none" d="M 373.458554523976 147.40308335109518 L 360 130 L 357.2107969177582 151.8224734199864"/></g><g transform="translate(-174,-62) scale(1,1)"><path fill="none" stroke="#000000" d="M 373.458554523976 147.40308335109518 L 360 130 L 357.2107969177582 151.8224734199864 L 373.458554523976 147.40308335109518" stroke-miterlimit="10"/></g><g transform="translate(-174,-62) scale(1,1)"><path fill="none" stroke="#000000" d="M 375 348 L 271 239" stroke-miterlimit="10"/></g><g transform="translate(-174,-62) scale(1,1)"><path fill="#FFFFFF" stroke="none" d="M 291.122176504775 247.893706353972 L 271 239 L 278.93972738598353 259.5173275315345"/></g><g transform="translate(-174,-62) scale(1,1)"><path fill="none" stroke="#000000" d="M 291.122176504775 247.893706353972 L 271 239 L 278.93972738598353 259.5173275315345 L 291.122176504775 247.893706353972" stroke-miterlimit="10"/></g><g transform="translate(-174,-62) scale(1,1)"><path fill="none" stroke="#000000" d="M 676 295 L 676 218" stroke-miterlimit="10"/></g><g transform="translate(-174,-62) scale(1,1)"><path fill="#FFFFFF" stroke="none" d="M 684.419035512032 238.3253497152483 L 676 218 L 667.580964487968 238.3253497152483"/></g><g transform="translate(-174,-62) scale(1,1)"><path fill="none" stroke="#000000" d="M 684.419035512032 238.3253497152483 L 676 218 L 667.580964487968 238.3253497152483 L 684.419035512032 238.3253497152483" stroke-miterlimit="10"/></g><g transform="translate(-174,-62) scale(1,1)"><rect fill="#C0C0C0" stroke="none" x="799" y="391" width="95.72802734375" height="47" opacity="0.2"/></g><g transform="translate(-174,-62) scale(1,1)"><rect fill="#ffffff" stroke="none" x="792" y="384" width="95.72802734375" height="47"/></g><g transform="translate(-174,-62) scale(1,1)"><path fill="none" stroke="#000000" d="M 792 384 L 887.72802734375 384 L 887.72802734375 431 L 792 431 L 792 384 Z Z" stroke-miterlimit="10"/></g><g transform="translate(-174,-62) scale(1,1)"><path fill="none" stroke="#000000" d="M 792 422 L 887.72802734375 422" stroke-miterlimit="10"/></g><g transform="translate(-174,-62) scale(1,1)"><g><path fill="none" stroke="none"/><text fill="#000000" stroke="none" font-family="Arial" font-size="13px" font-style="normal" font-weight="normal" text-decoration="none" x="796.5" y="401.5">«enumeration»</text></g></g><g transform="translate(-174,-62) scale(1,1)"><g><path fill="none" stroke="none"/><text fill="#000000" stroke="none" font-family="Arial" font-size="13px" font-style="normal" font-weight="bold" text-decoration="none" x="823.6044921875" y="416.5">enum</text></g></g><g transform="translate(-174,-62) scale(1,1)"><path fill="none" stroke="#000000" d="M 737 411 L 791 409" stroke-miterlimit="10"/></g><g transform="translate(-174,-62) scale(1,1)"><path fill="#000000" stroke="none" d="M 781.0000895061236 413.58277100829406 L 791 409 L 780.6884870219317 405.1695039351113 L 769.0150736571311 409.8142565312174"/></g><g transform="translate(-174,-62) scale(1,1)"><path fill="none" stroke="#000000" d="M 781.0000895061236 413.58277100829406 L 791 409 L 780.6884870219317 405.1695039351113 L 769.0150736571311 409.8142565312174 L 781.0000895061236 413.58277100829406" stroke-miterlimit="10"/></g></g></svg>