<svg version="1.1" xmlns="http://www.w3.org/2000/svg" xmlns:xlink="http://www.w3.org/1999/xlink" width="1085.080078125" height="444"><defs/><g><text fill="#eeeeee" stroke="none" font-family="Arial" font-size="24px" font-style="normal" font-weight="normal" text-decoration="none" x="0" y="0">UNREGISTERED</text><text fill="#eeeeee" stroke="none" font-family="Arial" font-size="24px" font-style="normal" font-weight="normal" text-decoration="none" x="0" y="30">UNREGISTERED</text><text fill="#eeeeee" stroke="none" font-family="Arial" font-size="24px" font-style="normal" font-weight="normal" text-decoration="none" x="0" y="60">UNREGISTERED</text><text fill="#eeeeee" stroke="none" font-family="Arial" font-size="24px" font-style="normal" font-weight="normal" text-decoration="none" x="0" y="90">UNREGISTERED</text><text fill="#eeeeee" stroke="none" font-family="Arial" font-size="24px" font-style="normal" font-weight="normal" text-decoration="none" x="0" y="120">UNREGISTERED</text><text fill="#eeeeee" stroke="none" font-family="Arial" font-size="24px" font-style="normal" font-weight="normal" text-decoration="none" x="0" y="150">UNREGISTERED</text><text fill="#eeeeee" stroke="none" font-family="Arial" font-size="24px" font-style="normal" font-weight="normal" text-decoration="none" x="0" y="180">UNREGISTERED</text><text fill="#eeeeee" stroke="none" font-family="Arial" font-size="24px" font-style="normal" font-weight="normal" text-decoration="none" x="0" y="210">UNREGISTERED</text><text fill="#eeeeee" stroke="none" font-family="Arial" font-size="24px" font-style="normal" font-weight="normal" text-decoration="none" x="0" y="240">UNREGISTERED</text><text fill="#eeeeee" stroke="none" font-family="Arial" font-size="24px" font-style="normal" font-weight="normal" text-decoration="none" x="0" y="270">UNREGISTERED</text><text fill="#eeeeee" stroke="none" font-family="Arial" font-size="24px" font-style="normal" font-weight="normal" text-decoration="none" x="0" y="300">UNREGISTERED</text><text fill="#eeeeee" stroke="none" font-family="Arial" font-size="24px" font-style="normal" font-weight="normal" text-decoration="none" x="0" y="330">UNREGISTERED</text><text fill="#eeeeee" stroke="none" font-family="Arial" font-size="24px" font-style="normal" font-weight="normal" text-decoration="none" x="0" y="360">UNREGISTERED</text><text fill="#eeeeee" stroke="none" font-family="Arial" font-size="24px" font-style="normal" font-weight="normal" text-decoration="none" x="0" y="390">UNREGISTERED</text><text fill="#eeeeee" stroke="none" font-family="Arial" font-size="24px" font-style="normal" font-weight="normal" text-decoration="none" x="0" y="420">UNREGISTERED</text><text fill="#eeeeee" stroke="none" font-family="Arial" font-size="24px" font-style="normal" font-weight="normal" text-decoration="none" x="200" y="0">UNREGISTERED</text><text fill="#eeeeee" stroke="none" font-family="Arial" font-size="24px" font-style="normal" font-weight="normal" text-decoration="none" x="200" y="30">UNREGISTERED</text><text fill="#eeeeee" stroke="none" font-family="Arial" font-size="24px" font-style="normal" font-weight="normal" text-decoration="none" x="200" y="60">UNREGISTERED</text><text fill="#eeeeee" stroke="none" font-family="Arial" font-size="24px" font-style="normal" font-weight="normal" text-decoration="none" x="200" y="90">UNREGISTERED</text><text fill="#eeeeee" stroke="none" font-family="Arial" font-size="24px" font-style="normal" font-weight="normal" text-decoration="none" x="200" y="120">UNREGISTERED</text><text fill="#eeeeee" stroke="none" font-family="Arial" font-size="24px" font-style="normal" font-weight="normal" text-decoration="none" x="200" y="150">UNREGISTERED</text><text fill="#eeeeee" stroke="none" font-family="Arial" font-size="24px" font-style="normal" font-weight="normal" text-decoration="none" x="200" y="180">UNREGISTERED</text><text fill="#eeeeee" stroke="none" font-family="Arial" font-size="24px" font-style="normal" font-weight="normal" text-decoration="none" x="200" y="210">UNREGISTERED</text><text fill="#eeeeee" stroke="none" font-family="Arial" font-size="24px" font-style="normal" font-weight="normal" text-decoration="none" x="200" y="240">UNREGISTERED</text><text fill="#eeeeee" stroke="none" font-family="Arial" font-size="24px" font-style="normal" font-weight="normal" text-decoration="none" x="200" y="270">UNREGISTERED</text><text fill="#eeeeee" stroke="none" font-family="Arial" font-size="24px" font-style="normal" font-weight="normal" text-decoration="none" x="200" y="300">UNREGISTERED</text><text fill="#eeeeee" stroke="none" font-family="Arial" font-size="24px" font-style="normal" font-weight="normal" text-decoration="none" x="200" y="330">UNREGISTERED</text><text fill="#eeeeee" stroke="none" font-family="Arial" font-size="24px" font-style="normal" font-weight="normal" text-decoration="none" x="200" y="360">UNREGISTERED</text><text fill="#eeeeee" stroke="none" font-family="Arial" font-size="24px" font-style="normal" font-weight="normal" text-decoration="none" x="200" y="390">UNREGISTERED</text><text fill="#eeeeee" stroke="none" font-family="Arial" font-size="24px" font-style="normal" font-weight="normal" text-decoration="none" x="200" y="420">UNREGISTERED</text><text fill="#eeeeee" stroke="none" font-family="Arial" font-size="24px" font-style="normal" font-weight="normal" text-decoration="none" x="400" y="0">UNREGISTERED</text><text fill="#eeeeee" stroke="none" font-family="Arial" font-size="24px" font-style="normal" font-weight="normal" text-decoration="none" x="400" y="30">UNREGISTERED</text><text fill="#eeeeee" stroke="none" font-family="Arial" font-size="24px" font-style="normal" font-weight="normal" text-decoration="none" x="400" y="60">UNREGISTERED</text><text fill="#eeeeee" stroke="none" font-family="Arial" font-size="24px" font-style="normal" font-weight="normal" text-decoration="none" x="400" y="90">UNREGISTERED</text><text fill="#eeeeee" stroke="none" font-family="Arial" font-size="24px" font-style="normal" font-weight="normal" text-decoration="none" x="400" y="120">UNREGISTERED</text><text fill="#eeeeee" stroke="none" font-family="Arial" font-size="24px" font-style="normal" font-weight="normal" text-decoration="none" x="400" y="150">UNREGISTERED</text><text fill="#eeeeee" stroke="none" font-family="Arial" font-size="24px" font-style="normal" font-weight="normal" text-decoration="none" x="400" y="180">UNREGISTERED</text><text fill="#eeeeee" stroke="none" font-family="Arial" font-size="24px" font-style="normal" font-weight="normal" text-decoration="none" x="400" y="210">UNREGISTERED</text><text fill="#eeeeee" stroke="none" font-family="Arial" font-size="24px" font-style="normal" font-weight="normal" text-decoration="none" x="400" y="240">UNREGISTERED</text><text fill="#eeeeee" stroke="none" font-family="Arial" font-size="24px" font-style="normal" font-weight="normal" text-decoration="none" x="400" y="270">UNREGISTERED</text><text fill="#eeeeee" stroke="none" font-family="Arial" font-size="24px" font-style="normal" font-weight="normal" text-decoration="none" x="400" y="300">UNREGISTERED</text><text fill="#eeeeee" stroke="none" font-family="Arial" font-size="24px" font-style="normal" font-weight="normal" text-decoration="none" x="400" y="330">UNREGISTERED</text><text fill="#eeeeee" stroke="none" font-family="Arial" font-size="24px" font-style="normal" font-weight="normal" text-decoration="none" x="400" y="360">UNREGISTERED</text><text fill="#eeeeee" stroke="none" font-family="Arial" font-size="24px" font-style="normal" font-weight="normal" text-decoration="none" x="400" y="390">UNREGISTERED</text><text fill="#eeeeee" stroke="none" font-family="Arial" font-size="24px" font-style="normal" font-weight="normal" text-decoration="none" x="400" y="420">UNREGISTERED</text><text fill="#eeeeee" stroke="none" font-family="Arial" font-size="24px" font-style="normal" font-weight="normal" text-decoration="none" x="600" y="0">UNREGISTERED</text><text fill="#eeeeee" stroke="none" font-family="Arial" font-size="24px" font-style="normal" font-weight="normal" text-decoration="none" x="600" y="30">UNREGISTERED</text><text fill="#eeeeee" stroke="none" font-family="Arial" font-size="24px" font-style="normal" font-weight="normal" text-decoration="none" x="600" y="60">UNREGISTERED</text><text fill="#eeeeee" stroke="none" font-family="Arial" font-size="24px" font-style="normal" font-weight="normal" text-decoration="none" x="600" y="90">UNREGISTERED</text><text fill="#eeeeee" stroke="none" font-family="Arial" font-size="24px" font-style="normal" font-weight="normal" text-decoration="none" x="600" y="120">UNREGISTERED</text><text fill="#eeeeee" stroke="none" font-family="Arial" font-size="24px" font-style="normal" font-weight="normal" text-decoration="none" x="600" y="150">UNREGISTERED</text><text fill="#eeeeee" stroke="none" font-family="Arial" font-size="24px" font-style="normal" font-weight="normal" text-decoration="none" x="600" y="180">UNREGISTERED</text><text fill="#eeeeee" stroke="none" font-family="Arial" font-size="24px" font-style="normal" font-weight="normal" text-decoration="none" x="600" y="210">UNREGISTERED</text><text fill="#eeeeee" stroke="none" font-family="Arial" font-size="24px" font-style="normal" font-weight="normal" text-decoration="none" x="600" y="240">UNREGISTERED</text><text fill="#eeeeee" stroke="none" font-family="Arial" font-size="24px" font-style="normal" font-weight="normal" text-decoration="none" x="600" y="270">UNREGISTERED</text><text fill="#eeeeee" stroke="none" font-family="Arial" font-size="24px" font-style="normal" font-weight="normal" text-decoration="none" x="600" y="300">UNREGISTERED</text><text fill="#eeeeee" stroke="none" font-family="Arial" font-size="24px" font-style="normal" font-weight="normal" text-decoration="none" x="600" y="330">UNREGISTERED</text><text fill="#eeeeee" stroke="none" font-family="Arial" font-size="24px" font-style="normal" font-weight="normal" text-decoration="none" x="600" y="360">UNREGISTERED</text><text fill="#eeeeee" stroke="none" font-family="Arial" font-size="24px" font-style="normal" font-weight="normal" text-decoration="none" x="600" y="390">UNREGISTERED</text><text fill="#eeeeee" stroke="none" font-family="Arial" font-size="24px" font-style="normal" font-weight="normal" text-decoration="none" x="600" y="420">UNREGISTERED</text><text fill="#eeeeee" stroke="none" font-family="Arial" font-size="24px" font-style="normal" font-weight="normal" text-decoration="none" x="800" y="0">UNREGISTERED</text><text fill="#eeeeee" stroke="none" font-family="Arial" font-size="24px" font-style="normal" font-weight="normal" text-decoration="none" x="800" y="30">UNREGISTERED</text><text fill="#eeeeee" stroke="none" font-family="Arial" font-size="24px" font-style="normal" font-weight="normal" text-decoration="none" x="800" y="60">UNREGISTERED</text><text fill="#eeeeee" stroke="none" font-family="Arial" font-size="24px" font-style="normal" font-weight="normal" text-decoration="none" x="800" y="90">UNREGISTERED</text><text fill="#eeeeee" stroke="none" font-family="Arial" font-size="24px" font-style="normal" font-weight="normal" text-decoration="none" x="800" y="120">UNREGISTERED</text><text fill="#eeeeee" stroke="none" font-family="Arial" font-size="24px" font-style="normal" font-weight="normal" text-decoration="none" x="800" y="150">UNREGISTERED</text><text fill="#eeeeee" stroke="none" font-family="Arial" font-size="24px" font-style="normal" font-weight="normal" text-decoration="none" x="800" y="180">UNREGISTERED</text><text fill="#eeeeee" stroke="none" font-family="Arial" font-size="24px" font-style="normal" font-weight="normal" text-decoration="none" x="800" y="210">UNREGISTERED</text><text fill="#eeeeee" stroke="none" font-family="Arial" font-size="24px" font-style="normal" font-weight="normal" text-decoration="none" x="800" y="240">UNREGISTERED</text><text fill="#eeeeee" stroke="none" font-family="Arial" font-size="24px" font-style="normal" font-weight="normal" text-decoration="none" x="800" y="270">UNREGISTERED</text><text fill="#eeeeee" stroke="none" font-family="Arial" font-size="24px" font-style="normal" font-weight="normal" text-decoration="none" x="800" y="300">UNREGISTERED</text><text fill="#eeeeee" stroke="none" font-family="Arial" font-size="24px" font-style="normal" font-weight="normal" text-decoration="none" x="800" y="330">UNREGISTERED</text><text fill="#eeeeee" stroke="none" font-family="Arial" font-size="24px" font-style="normal" font-weight="normal" text-decoration="none" x="800" y="360">UNREGISTERED</text><text fill="#eeeeee" stroke="none" font-family="Arial" font-size="24px" font-style="normal" font-weight="normal" text-decoration="none" x="800" y="390">UNREGISTERED</text><text fill="#eeeeee" stroke="none" font-family="Arial" font-size="24px" font-style="normal" font-weight="normal" text-decoration="none" x="800" y="420">UNREGISTERED</text><text fill="#eeeeee" stroke="none" font-family="Arial" font-size="24px" font-style="normal" font-weight="normal" text-decoration="none" x="1000" y="0">UNREGISTERED</text><text fill="#eeeeee" stroke="none" font-family="Arial" font-size="24px" font-style="normal" font-weight="normal" text-decoration="none" x="1000" y="30">UNREGISTERED</text><text fill="#eeeeee" stroke="none" font-family="Arial" font-size="24px" font-style="normal" font-weight="normal" text-decoration="none" x="1000" y="60">UNREGISTERED</text><text fill="#eeeeee" stroke="none" font-family="Arial" font-size="24px" font-style="normal" font-weight="normal" text-decoration="none" x="1000" y="90">UNREGISTERED</text><text fill="#eeeeee" stroke="none" font-family="Arial" font-size="24px" font-style="normal" font-weight="normal" text-decoration="none" x="1000" y="120">UNREGISTERED</text><text fill="#eeeeee" stroke="none" font-family="Arial" font-size="24px" font-style="normal" font-weight="normal" text-decoration="none" x="1000" y="150">UNREGISTERED</text><text fill="#eeeeee" stroke="none" font-family="Arial" font-size="24px" font-style="normal" font-weight="normal" text-decoration="none" x="1000" y="180">UNREGISTERED</text><text fill="#eeeeee" stroke="none" font-family="Arial" font-size="24px" font-style="normal" font-weight="normal" text-decoration="none" x="1000" y="210">UNREGISTERED</text><text fill="#eeeeee" stroke="none" font-family="Arial" font-size="24px" font-style="normal" font-weight="normal" text-decoration="none" x="1000" y="240">UNREGISTERED</text><text fill="#eeeeee" stroke="none" font-family="Arial" font-size="24px" font-style="normal" font-weight="normal" text-decoration="none" x="1000" y="270">UNREGISTERED</text><text fill="#eeeeee" stroke="none" font-family="Arial" font-size="24px" font-style="normal" font-weight="normal" text-decoration="none" x="1000" y="300">UNREGISTERED</text><text fill="#eeeeee" stroke="none" font-family="Arial" font-size="24px" font-style="normal" font-weight="normal" text-decoration="none" x="1000" y="330">UNREGISTERED</text><text fill="#eeeeee" stroke="none" font-family="Arial" font-size="24px" font-style="normal" font-weight="normal" text-decoration="none" x="1000" y="360">UNREGISTERED</text><text fill="#eeeeee" stroke="none" font-family="Arial" font-size="24px" font-style="normal" font-weight="normal" text-decoration="none" x="1000" y="390">UNREGISTERED</text><text fill="#eeeeee" stroke="none" font-family="Arial" font-size="24px" font-style="normal" font-weight="normal" text-decoration="none" x="1000" y="420">UNREGISTERED</text><g transform="translate(-1,-38) scale(1,1)"><path fill="#C0C0C0" stroke="none" d="M 252 64.5 C 252 59.2532944 256.2532944 55 261.5 55 C 266.7467056 55 271 59.2532944 271 64.5 C 271 69.7467056 266.7467056 74 261.5 74 C 256.2532944 74 252 69.7467056 252 64.5 Z" opacity="0.2"/></g><g transform="translate(-1,-38) scale(1,1)"><path fill="#000000" stroke="none" d="M 245 57.5 C 245 52.2532944 249.2532944 48 254.5 48 C 259.7467056 48 264 52.2532944 264 57.5 C 264 62.7467056 259.7467056 67 254.5 67 C 249.2532944 67 245 62.7467056 245 57.5 Z"/></g><g transform="translate(-1,-38) scale(1,1)"><path fill="#C0C0C0" stroke="none" d="M 250 136.5 L 261.5 127 L 272 136.5 L 261.5 145 L 250 136.5" opacity="0.2"/></g><g transform="translate(-1,-38) scale(1,1)"><path fill="#ffffff" stroke="none" d="M 243 129 L 254 120 L 265 129 L 254 138 L 243 129"/></g><g transform="translate(-1,-38) scale(1,1)"><path fill="none" stroke="#000000" d="M 243 129 L 254 120 L 265 129 L 254 138 L 243 129 L 243 129" stroke-miterlimit="10"/></g><g transform="translate(-1,-38) scale(1,1)"><path fill="none" stroke="#000000" d="M 254 68 L 254 119" stroke-miterlimit="10"/></g><g transform="translate(-1,-38) scale(1,1)"><path fill="none" stroke="#000000" d="M 249.790482243984 108.83732514237585 L 254 119 L 258.209517756016 108.83732514237585" stroke-miterlimit="10"/></g><g transform="translate(-1,-38) scale(1,1)"><path fill="#C0C0C0" stroke="none" d="M 137 191 L 224.2490234375 191 Q 234.2490234375 191 234.2490234375 201 L 234.2490234375 221 Q 234.2490234375 231 224.2490234375 231 L 137 231 Q 127 231 127 221 L 127 201 Q 127 191 137 191 Z" opacity="0.2"/></g><g transform="translate(-1,-38) scale(1,1)"><path fill="#ffffff" stroke="none" d="M 130 184 L 217.2490234375 184 Q 227.2490234375 184 227.2490234375 194 L 227.2490234375 214 Q 227.2490234375 224 217.2490234375 224 L 130 224 Q 120 224 120 214 L 120 194 Q 120 184 130 184 Z"/></g><g transform="translate(-1,-38) scale(1,1)"><path fill="none" stroke="#000000" d="M 130 184 L 217.2490234375 184 Q 227.2490234375 184 227.2490234375 194 L 227.2490234375 214 Q 227.2490234375 224 217.2490234375 224 L 130 224 Q 120 224 120 214 L 120 194 Q 120 184 130 184 Z" stroke-miterlimit="10"/></g><g transform="translate(-1,-38) scale(1,1)"><g><path fill="none" stroke="none"/><text fill="#000000" stroke="none" font-family="Arial" font-size="13px" font-style="normal" font-weight="bold" text-decoration="none" x="146.5263671875" y="203.5">new Role</text></g></g><g transform="translate(-1,-38) scale(1,1)"><path fill="#C0C0C0" stroke="none" d="M 345 191 L 426.46630859375 191 Q 436.46630859375 191 436.46630859375 201 L 436.46630859375 221 Q 436.46630859375 231 426.46630859375 231 L 345 231 Q 335 231 335 221 L 335 201 Q 335 191 345 191 Z" opacity="0.2"/></g><g transform="translate(-1,-38) scale(1,1)"><path fill="#ffffff" stroke="none" d="M 338 184 L 419.46630859375 184 Q 429.46630859375 184 429.46630859375 194 L 429.46630859375 214 Q 429.46630859375 224 419.46630859375 224 L 338 224 Q 328 224 328 214 L 328 194 Q 328 184 338 184 Z"/></g><g transform="translate(-1,-38) scale(1,1)"><path fill="none" stroke="#000000" d="M 338 184 L 419.46630859375 184 Q 429.46630859375 184 429.46630859375 194 L 429.46630859375 214 Q 429.46630859375 224 419.46630859375 224 L 338 224 Q 328 224 328 214 L 328 194 Q 328 184 338 184 Z" stroke-miterlimit="10"/></g><g transform="translate(-1,-38) scale(1,1)"><g><path fill="none" stroke="none"/><text fill="#000000" stroke="none" font-family="Arial" font-size="13px" font-style="normal" font-weight="bold" text-decoration="none" x="354.523193359375" y="203.5">get Role</text></g></g><g transform="translate(-1,-38) scale(1,1)"><path fill="none" stroke="#000000" d="M 243 128 L 184 128 M 184 128 A 8 8 0 0 0 176 136 L 176 184" stroke-miterlimit="10"/></g><g transform="translate(-1,-38) scale(1,1)"><path fill="none" stroke="#000000" d="M 171.790482243984 173.83732514237585 L 176 184 L 180.209517756016 173.83732514237585" stroke-miterlimit="10"/></g><g transform="translate(-1,-38) scale(1,1)"><path fill="none" stroke="#000000" d="M 265 128 L 368 128 M 368 128 A 8 8 0 0 1 376 136 L 376 184" stroke-miterlimit="10"/></g><g transform="translate(-1,-38) scale(1,1)"><path fill="none" stroke="#000000" d="M 371.790482243984 173.83732514237585 L 376 184 L 380.209517756016 173.83732514237585" stroke-miterlimit="10"/></g><g transform="translate(-1,-38) scale(1,1)"><path fill="#C0C0C0" stroke="none" d="M 169 288.5 L 180.5 279 L 191 288.5 L 180.5 297 L 169 288.5" opacity="0.2"/></g><g transform="translate(-1,-38) scale(1,1)"><path fill="#ffffff" stroke="none" d="M 162 281 L 173 272 L 184 281 L 173 290 L 162 281"/></g><g transform="translate(-1,-38) scale(1,1)"><path fill="none" stroke="#000000" d="M 162 281 L 173 272 L 184 281 L 173 290 L 162 281 L 162 281" stroke-miterlimit="10"/></g><g transform="translate(-1,-38) scale(1,1)"><path fill="none" stroke="#000000" d="M 170 224 L 170 272" stroke-miterlimit="10"/></g><g transform="translate(-1,-38) scale(1,1)"><path fill="none" stroke="#000000" d="M 165.790482243984 261.83732514237585 L 170 272 L 174.209517756016 261.83732514237585" stroke-miterlimit="10"/></g><g transform="translate(-1,-38) scale(1,1)"><path fill="#C0C0C0" stroke="none" d="M 73 327 L 173 327 Q 183 327 183 337 L 183 357 Q 183 367 173 367 L 73 367 Q 63 367 63 357 L 63 337 Q 63 327 73 327 Z" opacity="0.2"/></g><g transform="translate(-1,-38) scale(1,1)"><path fill="#ffffff" stroke="none" d="M 66 320 L 166 320 Q 176 320 176 330 L 176 350 Q 176 360 166 360 L 66 360 Q 56 360 56 350 L 56 330 Q 56 320 66 320 Z"/></g><g transform="translate(-1,-38) scale(1,1)"><path fill="none" stroke="#000000" d="M 66 320 L 166 320 Q 176 320 176 330 L 176 350 Q 176 360 166 360 L 66 360 Q 56 360 56 350 L 56 330 Q 56 320 66 320 Z" stroke-miterlimit="10"/></g><g transform="translate(-1,-38) scale(1,1)"><g><path fill="none" stroke="none"/><text fill="#000000" stroke="none" font-family="Arial" font-size="13px" font-style="normal" font-weight="bold" text-decoration="none" x="105.155029296875" y="339.5">500</text></g></g><g transform="translate(-1,-38) scale(1,1)"><path fill="none" stroke="#000000" d="M 162 280 L 120 280 M 120 280 A 8 8 0 0 0 112 288 L 112 320" stroke-miterlimit="10"/></g><g transform="translate(-1,-38) scale(1,1)"><path fill="none" stroke="#000000" d="M 107.79048224398402 309.83732514237585 L 112 320 L 116.20951775601598 309.83732514237585" stroke-miterlimit="10"/></g><g transform="translate(-1,-38) scale(1,1)"><path fill="#C0C0C0" stroke="none" d="M 233 335 L 323.88623046875 335 Q 333.88623046875 335 333.88623046875 345 L 333.88623046875 365 Q 333.88623046875 375 323.88623046875 375 L 233 375 Q 223 375 223 365 L 223 345 Q 223 335 233 335 Z" opacity="0.2"/></g><g transform="translate(-1,-38) scale(1,1)"><path fill="#ffffff" stroke="none" d="M 226 328 L 316.88623046875 328 Q 326.88623046875 328 326.88623046875 338 L 326.88623046875 358 Q 326.88623046875 368 316.88623046875 368 L 226 368 Q 216 368 216 358 L 216 338 Q 216 328 226 328 Z"/></g><g transform="translate(-1,-38) scale(1,1)"><path fill="none" stroke="#000000" d="M 226 328 L 316.88623046875 328 Q 326.88623046875 328 326.88623046875 338 L 326.88623046875 358 Q 326.88623046875 368 316.88623046875 368 L 226 368 Q 216 368 216 358 L 216 338 Q 216 328 226 328 Z" stroke-miterlimit="10"/></g><g transform="translate(-1,-38) scale(1,1)"><g><path fill="none" stroke="none"/><text fill="#000000" stroke="none" font-family="Arial" font-size="13px" font-style="normal" font-weight="bold" text-decoration="none" x="260.59814453125" y="347.5">201</text></g></g><g transform="translate(-1,-38) scale(1,1)"><path fill="none" stroke="#000000" d="M 184 280 L 256 280 M 256 280 A 8 8 0 0 1 264 288 L 264 328" stroke-miterlimit="10"/></g><g transform="translate(-1,-38) scale(1,1)"><path fill="none" stroke="#000000" d="M 259.790482243984 317.83732514237585 L 264 328 L 268.209517756016 317.83732514237585" stroke-miterlimit="10"/></g><g transform="translate(-1,-38) scale(1,1)"><path fill="none" stroke="#000000" d="M 327 348 L 368 348 M 368 348 A 8 8 0 0 0 376 340 L 376 224" stroke-miterlimit="10"/></g><g transform="translate(-1,-38) scale(1,1)"><path fill="none" stroke="#000000" d="M 380.209517756016 234.16267485762415 L 376 224 L 371.790482243984 234.16267485762415" stroke-miterlimit="10"/></g><g transform="translate(-1,-38) scale(1,1)"><path fill="#C0C0C0" stroke="none" d="M 729 255 L 811 255 Q 814 255 814 258 L 814 257 Q 814 260 811 260 L 729 260 Q 726 260 726 257 L 726 258 Q 726 255 729 255 Z" opacity="0.2"/></g><g transform="translate(-1,-38) scale(1,1)"><path fill="#000000" stroke="none" d="M 722 248 L 804 248 Q 807 248 807 251 L 807 251 Q 807 254 804 254 L 722 254 Q 719 254 719 251 L 719 251 Q 719 248 722 248 Z"/></g><g transform="translate(-1,-38) scale(1,1)"><path fill="none" stroke="#000000" d="M 429 208 L 756 208 M 756 208 A 8 8 0 0 1 764 216 L 764 248" stroke-miterlimit="10"/></g><g transform="translate(-1,-38) scale(1,1)"><path fill="none" stroke="#000000" d="M 759.790482243984 237.83732514237585 L 764 248 L 768.209517756016 237.83732514237585" stroke-miterlimit="10"/></g><g transform="translate(-1,-38) scale(1,1)"><path fill="#C0C0C0" stroke="none" d="M 561 295 L 600 295 Q 610 295 610 305 L 610 325 Q 610 335 600 335 L 561 335 Q 551 335 551 325 L 551 305 Q 551 295 561 295 Z" opacity="0.2"/></g><g transform="translate(-1,-38) scale(1,1)"><path fill="#ffffff" stroke="none" d="M 554 288 L 593 288 Q 603 288 603 298 L 603 318 Q 603 328 593 328 L 554 328 Q 544 328 544 318 L 544 298 Q 544 288 554 288 Z"/></g><g transform="translate(-1,-38) scale(1,1)"><path fill="none" stroke="#000000" d="M 554 288 L 593 288 Q 603 288 603 298 L 603 318 Q 603 328 593 328 L 554 328 Q 544 328 544 318 L 544 298 Q 544 288 554 288 Z" stroke-miterlimit="10"/></g><g transform="translate(-1,-38) scale(1,1)"><g><path fill="none" stroke="none"/><text fill="#000000" stroke="none" font-family="Arial" font-size="13px" font-style="normal" font-weight="bold" text-decoration="none" x="563.02001953125" y="307.5">edit</text></g></g><g transform="translate(-1,-38) scale(1,1)"><path fill="#C0C0C0" stroke="none" d="M 569 386.5 L 580.5 377 L 591 386.5 L 580.5 395 L 569 386.5" opacity="0.2"/></g><g transform="translate(-1,-38) scale(1,1)"><path fill="#ffffff" stroke="none" d="M 562 379 L 573 370 L 584 379 L 573 388 L 562 379"/></g><g transform="translate(-1,-38) scale(1,1)"><path fill="none" stroke="#000000" d="M 562 379 L 573 370 L 584 379 L 573 388 L 562 379 L 562 379" stroke-miterlimit="10"/></g><g transform="translate(-1,-38) scale(1,1)"><path fill="none" stroke="#000000" d="M 573 329 L 573 369" stroke-miterlimit="10"/></g><g transform="translate(-1,-38) scale(1,1)"><path fill="none" stroke="#000000" d="M 568.790482243984 358.83732514237585 L 573 369 L 577.209517756016 358.83732514237585" stroke-miterlimit="10"/></g><g transform="translate(-1,-38) scale(1,1)"><path fill="#C0C0C0" stroke="none" d="M 425 366 L 508.63720703125 366 Q 518.63720703125 366 518.63720703125 376 L 518.63720703125 396 Q 518.63720703125 406 508.63720703125 406 L 425 406 Q 415 406 415 396 L 415 376 Q 415 366 425 366 Z" opacity="0.2"/></g><g transform="translate(-1,-38) scale(1,1)"><path fill="#ffffff" stroke="none" d="M 418 359 L 501.63720703125 359 Q 511.63720703125 359 511.63720703125 369 L 511.63720703125 389 Q 511.63720703125 399 501.63720703125 399 L 418 399 Q 408 399 408 389 L 408 369 Q 408 359 418 359 Z"/></g><g transform="translate(-1,-38) scale(1,1)"><path fill="none" stroke="#000000" d="M 418 359 L 501.63720703125 359 Q 511.63720703125 359 511.63720703125 369 L 511.63720703125 389 Q 511.63720703125 399 501.63720703125 399 L 418 399 Q 408 399 408 389 L 408 369 Q 408 359 418 359 Z" stroke-miterlimit="10"/></g><g transform="translate(-1,-38) scale(1,1)"><g><path fill="none" stroke="none"/><text fill="#000000" stroke="none" font-family="Arial" font-size="13px" font-style="normal" font-weight="bold" text-decoration="none" x="448.9736328125" y="378.5">500</text></g></g><g transform="translate(-1,-38) scale(1,1)"><path fill="none" stroke="#000000" d="M 561 379 L 513 379" stroke-miterlimit="10"/></g><g transform="translate(-1,-38) scale(1,1)"><path fill="none" stroke="#000000" d="M 523.1626748576241 374.790482243984 L 513 379 L 523.1626748576241 383.209517756016" stroke-miterlimit="10"/></g><g transform="translate(-1,-38) scale(1,1)"><path fill="#C0C0C0" stroke="none" d="M 561 431 L 604.91357421875 431 Q 614.91357421875 431 614.91357421875 441 L 614.91357421875 461 Q 614.91357421875 471 604.91357421875 471 L 561 471 Q 551 471 551 461 L 551 441 Q 551 431 561 431 Z" opacity="0.2"/></g><g transform="translate(-1,-38) scale(1,1)"><path fill="#ffffff" stroke="none" d="M 554 424 L 597.91357421875 424 Q 607.91357421875 424 607.91357421875 434 L 607.91357421875 454 Q 607.91357421875 464 597.91357421875 464 L 554 464 Q 544 464 544 454 L 544 434 Q 544 424 554 424 Z"/></g><g transform="translate(-1,-38) scale(1,1)"><path fill="none" stroke="#000000" d="M 554 424 L 597.91357421875 424 Q 607.91357421875 424 607.91357421875 434 L 607.91357421875 454 Q 607.91357421875 464 597.91357421875 464 L 554 464 Q 544 464 544 454 L 544 434 Q 544 424 554 424 Z" stroke-miterlimit="10"/></g><g transform="translate(-1,-38) scale(1,1)"><g><path fill="none" stroke="none"/><text fill="#000000" stroke="none" font-family="Arial" font-size="13px" font-style="normal" font-weight="bold" text-decoration="none" x="565.11181640625" y="443.5">201</text></g></g><g transform="translate(-1,-38) scale(1,1)"><path fill="none" stroke="#000000" d="M 573 389 L 574 423" stroke-miterlimit="10"/></g><g transform="translate(-1,-38) scale(1,1)"><path fill="none" stroke="#000000" d="M 569.4935287866887 412.96547374294147 L 574 423 L 577.9089252082061 412.7179620834851" stroke-miterlimit="10"/></g><g transform="translate(-1,-38) scale(1,1)"><path fill="#C0C0C0" stroke="none" d="M 751 295 L 790 295 Q 800 295 800 305 L 800 325 Q 800 335 790 335 L 751 335 Q 741 335 741 325 L 741 305 Q 741 295 751 295 Z" opacity="0.2"/></g><g transform="translate(-1,-38) scale(1,1)"><path fill="#ffffff" stroke="none" d="M 744 288 L 783 288 Q 793 288 793 298 L 793 318 Q 793 328 783 328 L 744 328 Q 734 328 734 318 L 734 298 Q 734 288 744 288 Z"/></g><g transform="translate(-1,-38) scale(1,1)"><path fill="none" stroke="#000000" d="M 744 288 L 783 288 Q 793 288 793 298 L 793 318 Q 793 328 783 328 L 744 328 Q 734 328 734 318 L 734 298 Q 734 288 744 288 Z" stroke-miterlimit="10"/></g><g transform="translate(-1,-38) scale(1,1)"><g><path fill="none" stroke="none"/><text fill="#000000" stroke="none" font-family="Arial" font-size="13px" font-style="normal" font-weight="bold" text-decoration="none" x="745.7900390625" y="307.5">delete</text></g></g><g transform="translate(-1,-38) scale(1,1)"><path fill="#C0C0C0" stroke="none" d="M 759 386.5 L 770.5 377 L 781 386.5 L 770.5 395 L 759 386.5" opacity="0.2"/></g><g transform="translate(-1,-38) scale(1,1)"><path fill="#ffffff" stroke="none" d="M 752 379 L 763 370 L 774 379 L 763 388 L 752 379"/></g><g transform="translate(-1,-38) scale(1,1)"><path fill="none" stroke="#000000" d="M 752 379 L 763 370 L 774 379 L 763 388 L 752 379 L 752 379" stroke-miterlimit="10"/></g><g transform="translate(-1,-38) scale(1,1)"><path fill="none" stroke="#000000" d="M 763 329 L 763 369" stroke-miterlimit="10"/></g><g transform="translate(-1,-38) scale(1,1)"><path fill="none" stroke="#000000" d="M 758.790482243984 358.83732514237585 L 763 369 L 767.209517756016 358.83732514237585" stroke-miterlimit="10"/></g><g transform="translate(-1,-38) scale(1,1)"><path fill="#C0C0C0" stroke="none" d="M 641 366 L 705.080078125 366 Q 715.080078125 366 715.080078125 376 L 715.080078125 396 Q 715.080078125 406 705.080078125 406 L 641 406 Q 631 406 631 396 L 631 376 Q 631 366 641 366 Z" opacity="0.2"/></g><g transform="translate(-1,-38) scale(1,1)"><path fill="#ffffff" stroke="none" d="M 634 359 L 698.080078125 359 Q 708.080078125 359 708.080078125 369 L 708.080078125 389 Q 708.080078125 399 698.080078125 399 L 634 399 Q 624 399 624 389 L 624 369 Q 624 359 634 359 Z"/></g><g transform="translate(-1,-38) scale(1,1)"><path fill="none" stroke="#000000" d="M 634 359 L 698.080078125 359 Q 708.080078125 359 708.080078125 369 L 708.080078125 389 Q 708.080078125 399 698.080078125 399 L 634 399 Q 624 399 624 389 L 624 369 Q 624 359 634 359 Z" stroke-miterlimit="10"/></g><g transform="translate(-1,-38) scale(1,1)"><g><path fill="none" stroke="none"/><text fill="#000000" stroke="none" font-family="Arial" font-size="13px" font-style="normal" font-weight="bold" text-decoration="none" x="655.195068359375" y="378.5">404</text></g></g><g transform="translate(-1,-38) scale(1,1)"><path fill="none" stroke="#000000" d="M 751 379 L 709 379" stroke-miterlimit="10"/></g><g transform="translate(-1,-38) scale(1,1)"><path fill="none" stroke="#000000" d="M 719.1626748576241 374.790482243984 L 709 379 L 719.1626748576241 383.209517756016" stroke-miterlimit="10"/></g><g transform="translate(-1,-38) scale(1,1)"><path fill="#C0C0C0" stroke="none" d="M 751 433 L 790 433 Q 800 433 800 443 L 800 463 Q 800 473 790 473 L 751 473 Q 741 473 741 463 L 741 443 Q 741 433 751 433 Z" opacity="0.2"/></g><g transform="translate(-1,-38) scale(1,1)"><path fill="#ffffff" stroke="none" d="M 744 426 L 783 426 Q 793 426 793 436 L 793 456 Q 793 466 783 466 L 744 466 Q 734 466 734 456 L 734 436 Q 734 426 744 426 Z"/></g><g transform="translate(-1,-38) scale(1,1)"><path fill="none" stroke="#000000" d="M 744 426 L 783 426 Q 793 426 793 436 L 793 456 Q 793 466 783 466 L 744 466 Q 734 466 734 456 L 734 436 Q 734 426 744 426 Z" stroke-miterlimit="10"/></g><g transform="translate(-1,-38) scale(1,1)"><g><path fill="none" stroke="none"/><text fill="#000000" stroke="none" font-family="Arial" font-size="13px" font-style="normal" font-weight="bold" text-decoration="none" x="752.655029296875" y="445.5">200</text></g></g><g transform="translate(-1,-38) scale(1,1)"><path fill="none" stroke="#000000" d="M 763 389 L 763 425" stroke-miterlimit="10"/></g><g transform="translate(-1,-38) scale(1,1)"><path fill="none" stroke="#000000" d="M 758.790482243984 414.83732514237585 L 763 425 L 767.209517756016 414.83732514237585" stroke-miterlimit="10"/></g><g transform="translate(-1,-38) scale(1,1)"><path fill="#C0C0C0" stroke="none" d="M 913 295 L 952 295 Q 962 295 962 305 L 962 325 Q 962 335 952 335 L 913 335 Q 903 335 903 325 L 903 305 Q 903 295 913 295 Z" opacity="0.2"/></g><g transform="translate(-1,-38) scale(1,1)"><path fill="#ffffff" stroke="none" d="M 906 288 L 945 288 Q 955 288 955 298 L 955 318 Q 955 328 945 328 L 906 328 Q 896 328 896 318 L 896 298 Q 896 288 906 288 Z"/></g><g transform="translate(-1,-38) scale(1,1)"><path fill="none" stroke="#000000" d="M 906 288 L 945 288 Q 955 288 955 298 L 955 318 Q 955 328 945 328 L 906 328 Q 896 328 896 318 L 896 298 Q 896 288 906 288 Z" stroke-miterlimit="10"/></g><g transform="translate(-1,-38) scale(1,1)"><g><path fill="none" stroke="none"/><text fill="#000000" stroke="none" font-family="Arial" font-size="13px" font-style="normal" font-weight="bold" text-decoration="none" x="904.90185546875" y="307.5">disable</text></g></g><g transform="translate(-1,-38) scale(1,1)"><path fill="#C0C0C0" stroke="none" d="M 921 392.5 L 932.5 383 L 943 392.5 L 932.5 401 L 921 392.5" opacity="0.2"/></g><g transform="translate(-1,-38) scale(1,1)"><path fill="#ffffff" stroke="none" d="M 914 385 L 925 376 L 936 385 L 925 394 L 914 385"/></g><g transform="translate(-1,-38) scale(1,1)"><path fill="none" stroke="#000000" d="M 914 385 L 925 376 L 936 385 L 925 394 L 914 385 L 914 385" stroke-miterlimit="10"/></g><g transform="translate(-1,-38) scale(1,1)"><path fill="none" stroke="#000000" d="M 925 329 L 925 375" stroke-miterlimit="10"/></g><g transform="translate(-1,-38) scale(1,1)"><path fill="none" stroke="#000000" d="M 920.790482243984 364.83732514237585 L 925 375 L 929.209517756016 364.83732514237585" stroke-miterlimit="10"/></g><g transform="translate(-1,-38) scale(1,1)"><path fill="#C0C0C0" stroke="none" d="M 1009 375 L 1073.080078125 375 Q 1083.080078125 375 1083.080078125 385 L 1083.080078125 405 Q 1083.080078125 415 1073.080078125 415 L 1009 415 Q 999 415 999 405 L 999 385 Q 999 375 1009 375 Z" opacity="0.2"/></g><g transform="translate(-1,-38) scale(1,1)"><path fill="#ffffff" stroke="none" d="M 1002 368 L 1066.080078125 368 Q 1076.080078125 368 1076.080078125 378 L 1076.080078125 398 Q 1076.080078125 408 1066.080078125 408 L 1002 408 Q 992 408 992 398 L 992 378 Q 992 368 1002 368 Z"/></g><g transform="translate(-1,-38) scale(1,1)"><path fill="none" stroke="#000000" d="M 1002 368 L 1066.080078125 368 Q 1076.080078125 368 1076.080078125 378 L 1076.080078125 398 Q 1076.080078125 408 1066.080078125 408 L 1002 408 Q 992 408 992 398 L 992 378 Q 992 368 1002 368 Z" stroke-miterlimit="10"/></g><g transform="translate(-1,-38) scale(1,1)"><g><path fill="none" stroke="none"/><text fill="#000000" stroke="none" font-family="Arial" font-size="13px" font-style="normal" font-weight="bold" text-decoration="none" x="1023.195068359375" y="387.5">404</text></g></g><g transform="translate(-1,-38) scale(1,1)"><path fill="none" stroke="#000000" d="M 937 385 L 991 387" stroke-miterlimit="10"/></g><g transform="translate(-1,-38) scale(1,1)"><path fill="none" stroke="#000000" d="M 980.6884870219317 390.8304960648887 L 991 387 L 981.0000895061236 382.41722899170594" stroke-miterlimit="10"/></g><g transform="translate(-1,-38) scale(1,1)"><path fill="#C0C0C0" stroke="none" d="M 896 439 L 968.103515625 439 Q 978.103515625 439 978.103515625 449 L 978.103515625 469 Q 978.103515625 479 968.103515625 479 L 896 479 Q 886 479 886 469 L 886 449 Q 886 439 896 439 Z" opacity="0.2"/></g><g transform="translate(-1,-38) scale(1,1)"><path fill="#ffffff" stroke="none" d="M 889 432 L 961.103515625 432 Q 971.103515625 432 971.103515625 442 L 971.103515625 462 Q 971.103515625 472 961.103515625 472 L 889 472 Q 879 472 879 462 L 879 442 Q 879 432 889 432 Z"/></g><g transform="translate(-1,-38) scale(1,1)"><path fill="none" stroke="#000000" d="M 889 432 L 961.103515625 432 Q 971.103515625 432 971.103515625 442 L 971.103515625 462 Q 971.103515625 472 961.103515625 472 L 889 472 Q 879 472 879 462 L 879 442 Q 879 432 889 432 Z" stroke-miterlimit="10"/></g><g transform="translate(-1,-38) scale(1,1)"><g><path fill="none" stroke="none"/><text fill="#000000" stroke="none" font-family="Arial" font-size="13px" font-style="normal" font-weight="bold" text-decoration="none" x="914.206787109375" y="451.5">200</text></g></g><g transform="translate(-1,-38) scale(1,1)"><path fill="none" stroke="#000000" d="M 925 395 L 925 431" stroke-miterlimit="10"/></g><g transform="translate(-1,-38) scale(1,1)"><path fill="none" stroke="#000000" d="M 920.790482243984 420.83732514237585 L 925 431 L 929.209517756016 420.83732514237585" stroke-miterlimit="10"/></g><g transform="translate(-1,-38) scale(1,1)"><path fill="none" stroke="#000000" d="M 750 254 L 604 299" stroke-miterlimit="10"/></g><g transform="translate(-1,-38) scale(1,1)"><path fill="none" stroke="#000000" d="M 612.4719362869488 291.98385465159964 L 604 299 L 614.9517275519262 300.0293996446375" stroke-miterlimit="10"/></g><g transform="translate(-1,-38) scale(1,1)"><path fill="none" stroke="#000000" d="M 763 254 L 763 287" stroke-miterlimit="10"/></g><g transform="translate(-1,-38) scale(1,1)"><path fill="none" stroke="#000000" d="M 758.790482243984 276.83732514237585 L 763 287 L 767.209517756016 276.83732514237585" stroke-miterlimit="10"/></g><g transform="translate(-1,-38) scale(1,1)"><path fill="none" stroke="#000000" d="M 774 254 L 895 297" stroke-miterlimit="10"/></g><g transform="translate(-1,-38) scale(1,1)"><path fill="none" stroke="#000000" d="M 884.0144410406637 297.56346637073136 L 895 297 L 886.833605873014 289.63046765644333" stroke-miterlimit="10"/></g><g transform="translate(-1,-38) scale(1,1)"><path fill="#C0C0C0" stroke="none" d="M 33 127 L 115.20263671875 127 Q 125.20263671875 127 125.20263671875 137 L 125.20263671875 157 Q 125.20263671875 167 115.20263671875 167 L 33 167 Q 23 167 23 157 L 23 137 Q 23 127 33 127 Z" opacity="0.2"/></g><g transform="translate(-1,-38) scale(1,1)"><path fill="#ffffff" stroke="none" d="M 26 120 L 108.20263671875 120 Q 118.20263671875 120 118.20263671875 130 L 118.20263671875 150 Q 118.20263671875 160 108.20263671875 160 L 26 160 Q 16 160 16 150 L 16 130 Q 16 120 26 120 Z"/></g><g transform="translate(-1,-38) scale(1,1)"><path fill="none" stroke="#000000" d="M 26 120 L 108.20263671875 120 Q 118.20263671875 120 118.20263671875 130 L 118.20263671875 150 Q 118.20263671875 160 108.20263671875 160 L 26 160 Q 16 160 16 150 L 16 130 Q 16 120 26 120 Z" stroke-miterlimit="10"/></g><g transform="translate(-1,-38) scale(1,1)"><g><path fill="none" stroke="none"/><text fill="#000000" stroke="none" font-family="Arial" font-size="13px" font-style="normal" font-weight="bold" text-decoration="none" x="35.674072265625" y="139.5">permission</text></g></g><g transform="translate(-1,-38) scale(1,1)"><path fill="none" stroke="#000000" d="M 102 161 L 138 183" stroke-miterlimit="10"/></g><g transform="translate(-1,-38) scale(1,1)"><path fill="none" stroke="#000000" d="M 127.13332108900659 181.29257812905803 L 138 183 L 131.52342723634902 174.1087680697704" stroke-miterlimit="10"/></g><g transform="translate(-1,-38) scale(1,1)"><path fill="none" stroke="#000000" d="M 56 344 L 48 344 M 48 344 A 8 8 0 0 1 40 336 L 40 216 M 40 216 A 8 8 0 0 1 48 208 L 120 208" stroke-miterlimit="10"/></g><g transform="translate(-1,-38) scale(1,1)"><path fill="none" stroke="#000000" d="M 109.83732514237585 212.209517756016 L 120 208 L 109.83732514237585 203.790482243984" stroke-miterlimit="10"/></g><g transform="translate(-1,-38) scale(1,1)"><g><path fill="none" stroke="none"/><text fill="#000000" stroke="none" font-family="Arial" font-size="13px" font-style="normal" font-weight="normal" text-decoration="none" x="10.5" y="281.5">MSG</text></g></g><g transform="translate(-1,-38) scale(1,1)"><path fill="none" stroke="#000000" d="M 456 359 L 456 320 M 456 320 A 8 8 0 0 1 464 312 L 544 312" stroke-miterlimit="10"/></g><g transform="translate(-1,-38) scale(1,1)"><path fill="none" stroke="#000000" d="M 533.8373251423759 316.209517756016 L 544 312 L 533.8373251423758 307.790482243984" stroke-miterlimit="10"/></g><g transform="translate(-1,-38) scale(1,1)"><path fill="none" stroke="#000000" d="M 664 359 L 664 320 M 664 320 A 8 8 0 0 1 672 312 L 734 312" stroke-miterlimit="10"/></g><g transform="translate(-1,-38) scale(1,1)"><path fill="none" stroke="#000000" d="M 723.8373251423759 316.209517756016 L 734 312 L 723.8373251423758 307.790482243984" stroke-miterlimit="10"/></g><g transform="translate(-1,-38) scale(1,1)"><path fill="none" stroke="#000000" d="M 1040 368 L 1040 312 M 1040 312 A 8 8 0 0 0 1032 304 L 955 304" stroke-miterlimit="10"/></g><g transform="translate(-1,-38) scale(1,1)"><path fill="none" stroke="#000000" d="M 965.1626748576241 299.790482243984 L 955 304 L 965.1626748576241 308.209517756016" stroke-miterlimit="10"/></g><g transform="translate(-1,-38) scale(1,1)"><path fill="#C0C0C0" stroke="none" d="M 457 231 L 515.3544921875 231 Q 525.3544921875 231 525.3544921875 241 L 525.3544921875 261 Q 525.3544921875 271 515.3544921875 271 L 457 271 Q 447 271 447 261 L 447 241 Q 447 231 457 231 Z" opacity="0.2"/></g><g transform="translate(-1,-38) scale(1,1)"><path fill="#ffffff" stroke="none" d="M 450 224 L 508.3544921875 224 Q 518.3544921875 224 518.3544921875 234 L 518.3544921875 254 Q 518.3544921875 264 508.3544921875 264 L 450 264 Q 440 264 440 254 L 440 234 Q 440 224 450 224 Z"/></g><g transform="translate(-1,-38) scale(1,1)"><path fill="none" stroke="#000000" d="M 450 224 L 508.3544921875 224 Q 518.3544921875 224 518.3544921875 234 L 518.3544921875 254 Q 518.3544921875 264 508.3544921875 264 L 450 264 Q 440 264 440 254 L 440 234 Q 440 224 450 224 Z" stroke-miterlimit="10"/></g><g transform="translate(-1,-38) scale(1,1)"><g><path fill="none" stroke="none"/><text fill="#000000" stroke="none" font-family="Arial" font-size="13px" font-style="normal" font-weight="bold" text-decoration="none" x="447.75" y="243.5">permission</text></g></g><g transform="translate(-1,-38) scale(1,1)"><path fill="none" stroke="#000000" d="M 510 265 L 543 288" stroke-miterlimit="10"/></g><g transform="translate(-1,-38) scale(1,1)"><path fill="none" stroke="#000000" d="M 532.2555888151898 285.6425377433088 L 543 288 L 537.0695315394618 278.7355764432664" stroke-miterlimit="10"/></g></g></svg>