<svg version="1.1" xmlns="http://www.w3.org/2000/svg" xmlns:xlink="http://www.w3.org/1999/xlink" width="332" height="219"><defs/><g><text fill="#eeeeee" stroke="none" font-family="Arial" font-size="24px" font-style="normal" font-weight="normal" text-decoration="none" x="0" y="0">UNREGISTERED</text><text fill="#eeeeee" stroke="none" font-family="Arial" font-size="24px" font-style="normal" font-weight="normal" text-decoration="none" x="0" y="30">UNREGISTERED</text><text fill="#eeeeee" stroke="none" font-family="Arial" font-size="24px" font-style="normal" font-weight="normal" text-decoration="none" x="0" y="60">UNREGISTERED</text><text fill="#eeeeee" stroke="none" font-family="Arial" font-size="24px" font-style="normal" font-weight="normal" text-decoration="none" x="0" y="90">UNREGISTERED</text><text fill="#eeeeee" stroke="none" font-family="Arial" font-size="24px" font-style="normal" font-weight="normal" text-decoration="none" x="0" y="120">UNREGISTERED</text><text fill="#eeeeee" stroke="none" font-family="Arial" font-size="24px" font-style="normal" font-weight="normal" text-decoration="none" x="0" y="150">UNREGISTERED</text><text fill="#eeeeee" stroke="none" font-family="Arial" font-size="24px" font-style="normal" font-weight="normal" text-decoration="none" x="0" y="180">UNREGISTERED</text><text fill="#eeeeee" stroke="none" font-family="Arial" font-size="24px" font-style="normal" font-weight="normal" text-decoration="none" x="0" y="210">UNREGISTERED</text><text fill="#eeeeee" stroke="none" font-family="Arial" font-size="24px" font-style="normal" font-weight="normal" text-decoration="none" x="200" y="0">UNREGISTERED</text><text fill="#eeeeee" stroke="none" font-family="Arial" font-size="24px" font-style="normal" font-weight="normal" text-decoration="none" x="200" y="30">UNREGISTERED</text><text fill="#eeeeee" stroke="none" font-family="Arial" font-size="24px" font-style="normal" font-weight="normal" text-decoration="none" x="200" y="60">UNREGISTERED</text><text fill="#eeeeee" stroke="none" font-family="Arial" font-size="24px" font-style="normal" font-weight="normal" text-decoration="none" x="200" y="90">UNREGISTERED</text><text fill="#eeeeee" stroke="none" font-family="Arial" font-size="24px" font-style="normal" font-weight="normal" text-decoration="none" x="200" y="120">UNREGISTERED</text><text fill="#eeeeee" stroke="none" font-family="Arial" font-size="24px" font-style="normal" font-weight="normal" text-decoration="none" x="200" y="150">UNREGISTERED</text><text fill="#eeeeee" stroke="none" font-family="Arial" font-size="24px" font-style="normal" font-weight="normal" text-decoration="none" x="200" y="180">UNREGISTERED</text><text fill="#eeeeee" stroke="none" font-family="Arial" font-size="24px" font-style="normal" font-weight="normal" text-decoration="none" x="200" y="210">UNREGISTERED</text><g transform="translate(-134,-46) scale(1,1)"><rect fill="#C0C0C0" stroke="none" x="151" y="87" width="112" height="175" opacity="0.2"/></g><g transform="translate(-134,-46) scale(1,1)"><rect fill="#ffffff" stroke="none" x="144" y="80" width="112" height="175"/></g><g transform="translate(-134,-46) scale(1,1)"><path fill="none" stroke="#000000" d="M 144 80 L 256 80 L 256 255 L 144 255 L 144 80 Z Z" stroke-miterlimit="10"/></g><g transform="translate(-134,-46) scale(1,1)"><path fill="none" stroke="#000000" d="M 144 105 L 256 105" stroke-miterlimit="10"/></g><g transform="translate(-134,-46) scale(1,1)"><path fill="none" stroke="#000000" d="M 144 158 L 256 158" stroke-miterlimit="10"/></g><g transform="translate(-134,-46) scale(1,1)"><g><path fill="none" stroke="none"/><text fill="#000000" stroke="none" font-family="Arial" font-size="13px" font-style="normal" font-weight="bold" text-decoration="none" x="186.6318359375" y="99.5">Role</text></g></g><g transform="translate(-134,-46) scale(1,1)"><g><path fill="none" stroke="none"/><text fill="#000000" stroke="none" font-family="Arial" font-size="13px" font-style="normal" font-weight="normal" text-decoration="none" x="149" y="122.5">+createDate</text></g></g><g transform="translate(-134,-46) scale(1,1)"><g><path fill="none" stroke="none"/><text fill="#000000" stroke="none" font-family="Arial" font-size="13px" font-style="normal" font-weight="normal" text-decoration="none" x="149" y="137.5">+updateDate</text></g></g><g transform="translate(-134,-46) scale(1,1)"><g><path fill="none" stroke="none"/><text fill="#000000" stroke="none" font-family="Arial" font-size="13px" font-style="normal" font-weight="normal" text-decoration="none" x="149" y="152.5">+access control</text></g></g><g transform="translate(-134,-46) scale(1,1)"><g><path fill="none" stroke="none"/><text fill="#000000" stroke="none" font-family="Arial" font-size="13px" font-style="normal" font-weight="normal" text-decoration="none" x="149" y="175.5">+getOne()</text></g></g><g transform="translate(-134,-46) scale(1,1)"><g><path fill="none" stroke="none"/><text fill="#000000" stroke="none" font-family="Arial" font-size="13px" font-style="normal" font-weight="normal" text-decoration="none" x="149" y="190.5">+create()</text></g></g><g transform="translate(-134,-46) scale(1,1)"><g><path fill="none" stroke="none"/><text fill="#000000" stroke="none" font-family="Arial" font-size="13px" font-style="normal" font-weight="normal" text-decoration="none" x="149" y="205.5">+edit()</text></g></g><g transform="translate(-134,-46) scale(1,1)"><g><path fill="none" stroke="none"/><text fill="#000000" stroke="none" font-family="Arial" font-size="13px" font-style="normal" font-weight="normal" text-decoration="none" x="149" y="220.5">+delete()</text></g></g><g transform="translate(-134,-46) scale(1,1)"><g><path fill="none" stroke="none"/><text fill="#000000" stroke="none" font-family="Arial" font-size="13px" font-style="normal" font-weight="normal" text-decoration="none" x="149" y="235.5">+disable()</text></g></g><g transform="translate(-134,-46) scale(1,1)"><g><path fill="none" stroke="none"/><text fill="#000000" stroke="none" font-family="Arial" font-size="13px" font-style="normal" font-weight="normal" text-decoration="none" x="149" y="250.5">+getAll()</text></g></g><g transform="translate(-134,-46) scale(1,1)"><rect fill="#C0C0C0" stroke="none" x="335" y="63" width="120" height="87" opacity="0.2"/></g><g transform="translate(-134,-46) scale(1,1)"><rect fill="#ffffff" stroke="none" x="328" y="56" width="120" height="87"/></g><g transform="translate(-134,-46) scale(1,1)"><path fill="none" stroke="#000000" d="M 328 56 L 448 56 L 448 143 L 328 143 L 328 56 Z Z" stroke-miterlimit="10"/></g><g transform="translate(-134,-46) scale(1,1)"><path fill="none" stroke="#000000" d="M 328 81 L 448 81" stroke-miterlimit="10"/></g><g transform="translate(-134,-46) scale(1,1)"><path fill="none" stroke="#000000" d="M 328 134 L 448 134" stroke-miterlimit="10"/></g><g transform="translate(-134,-46) scale(1,1)"><g><path fill="none" stroke="none"/><text fill="#000000" stroke="none" font-family="Arial" font-size="13px" font-style="normal" font-weight="bold" text-decoration="none" x="368.135009765625" y="75.5">Master</text></g></g><g transform="translate(-134,-46) scale(1,1)"><g><path fill="none" stroke="none"/><text fill="#000000" stroke="none" font-family="Arial" font-size="13px" font-style="normal" font-weight="normal" text-decoration="none" x="333" y="98.5">+id</text></g></g><g transform="translate(-134,-46) scale(1,1)"><g><path fill="none" stroke="none"/><text fill="#000000" stroke="none" font-family="Arial" font-size="13px" font-style="normal" font-weight="normal" text-decoration="none" x="333" y="113.5">+Name</text></g></g><g transform="translate(-134,-46) scale(1,1)"><g><path fill="none" stroke="none"/><text fill="#000000" stroke="none" font-family="Arial" font-size="13px" font-style="normal" font-weight="normal" text-decoration="none" x="333" y="128.5">+isActive</text></g></g><g transform="translate(-134,-46) scale(1,1)"><path fill="none" stroke="#000000" d="M 257 146 L 327 121" stroke-miterlimit="10"/></g><g transform="translate(-134,-46) scale(1,1)"><path fill="#000000" stroke="none" d="M 318.8451971878224 128.38235674391996 L 327 121 L 316.01356911750605 120.45379814703415 L 306.28167794491355 128.39940073395945"/></g><g transform="translate(-134,-46) scale(1,1)"><path fill="none" stroke="#000000" d="M 318.8451971878224 128.38235674391996 L 327 121 L 316.01356911750605 120.45379814703415 L 306.28167794491355 128.39940073395945 L 318.8451971878224 128.38235674391996" stroke-miterlimit="10"/></g><g transform="translate(-134,-46) scale(1,1)"><rect fill="#C0C0C0" stroke="none" x="335" y="183" width="128" height="57" opacity="0.2"/></g><g transform="translate(-134,-46) scale(1,1)"><rect fill="#ffffff" stroke="none" x="328" y="176" width="128" height="57"/></g><g transform="translate(-134,-46) scale(1,1)"><path fill="none" stroke="#000000" d="M 328 176 L 456 176 L 456 233 L 328 233 L 328 176 Z Z" stroke-miterlimit="10"/></g><g transform="translate(-134,-46) scale(1,1)"><path fill="none" stroke="#000000" d="M 328 201 L 456 201" stroke-miterlimit="10"/></g><g transform="translate(-134,-46) scale(1,1)"><path fill="none" stroke="#000000" d="M 328 211 L 456 211" stroke-miterlimit="10"/></g><g transform="translate(-134,-46) scale(1,1)"><g><path fill="none" stroke="none"/><text fill="#000000" stroke="none" font-family="Arial" font-size="13px" font-style="normal" font-weight="bold" text-decoration="none" x="360.57275390625" y="195.5">permission</text></g></g><g transform="translate(-134,-46) scale(1,1)"><g><path fill="none" stroke="none"/><text fill="#000000" stroke="none" font-family="Arial" font-size="13px" font-style="normal" font-weight="normal" text-decoration="none" x="333" y="228.5">+getOne()</text></g></g><g transform="translate(-134,-46) scale(1,1)"><path fill="none" stroke="#000000" d="M 257 178 L 327 191" stroke-miterlimit="10"/></g><g transform="translate(-134,-46) scale(1,1)"><path fill="#FFFFFF" stroke="none" d="M 305.47909493897026 195.56625068892896 L 327 191 L 308.5535952673346 179.0112489208134"/></g><g transform="translate(-134,-46) scale(1,1)"><path fill="none" stroke="#000000" d="M 305.47909493897026 195.56625068892896 L 327 191 L 308.5535952673346 179.0112489208134 L 305.47909493897026 195.56625068892896" stroke-miterlimit="10"/></g></g></svg>