<svg version="1.1" xmlns="http://www.w3.org/2000/svg" xmlns:xlink="http://www.w3.org/1999/xlink" width="877.57080078125" height="495"><defs/><g><text fill="#eeeeee" stroke="none" font-family="Arial" font-size="24px" font-style="normal" font-weight="normal" text-decoration="none" x="0" y="0">UNREGISTERED</text><text fill="#eeeeee" stroke="none" font-family="Arial" font-size="24px" font-style="normal" font-weight="normal" text-decoration="none" x="0" y="30">UNREGISTERED</text><text fill="#eeeeee" stroke="none" font-family="Arial" font-size="24px" font-style="normal" font-weight="normal" text-decoration="none" x="0" y="60">UNREGISTERED</text><text fill="#eeeeee" stroke="none" font-family="Arial" font-size="24px" font-style="normal" font-weight="normal" text-decoration="none" x="0" y="90">UNREGISTERED</text><text fill="#eeeeee" stroke="none" font-family="Arial" font-size="24px" font-style="normal" font-weight="normal" text-decoration="none" x="0" y="120">UNREGISTERED</text><text fill="#eeeeee" stroke="none" font-family="Arial" font-size="24px" font-style="normal" font-weight="normal" text-decoration="none" x="0" y="150">UNREGISTERED</text><text fill="#eeeeee" stroke="none" font-family="Arial" font-size="24px" font-style="normal" font-weight="normal" text-decoration="none" x="0" y="180">UNREGISTERED</text><text fill="#eeeeee" stroke="none" font-family="Arial" font-size="24px" font-style="normal" font-weight="normal" text-decoration="none" x="0" y="210">UNREGISTERED</text><text fill="#eeeeee" stroke="none" font-family="Arial" font-size="24px" font-style="normal" font-weight="normal" text-decoration="none" x="0" y="240">UNREGISTERED</text><text fill="#eeeeee" stroke="none" font-family="Arial" font-size="24px" font-style="normal" font-weight="normal" text-decoration="none" x="0" y="270">UNREGISTERED</text><text fill="#eeeeee" stroke="none" font-family="Arial" font-size="24px" font-style="normal" font-weight="normal" text-decoration="none" x="0" y="300">UNREGISTERED</text><text fill="#eeeeee" stroke="none" font-family="Arial" font-size="24px" font-style="normal" font-weight="normal" text-decoration="none" x="0" y="330">UNREGISTERED</text><text fill="#eeeeee" stroke="none" font-family="Arial" font-size="24px" font-style="normal" font-weight="normal" text-decoration="none" x="0" y="360">UNREGISTERED</text><text fill="#eeeeee" stroke="none" font-family="Arial" font-size="24px" font-style="normal" font-weight="normal" text-decoration="none" x="0" y="390">UNREGISTERED</text><text fill="#eeeeee" stroke="none" font-family="Arial" font-size="24px" font-style="normal" font-weight="normal" text-decoration="none" x="0" y="420">UNREGISTERED</text><text fill="#eeeeee" stroke="none" font-family="Arial" font-size="24px" font-style="normal" font-weight="normal" text-decoration="none" x="0" y="450">UNREGISTERED</text><text fill="#eeeeee" stroke="none" font-family="Arial" font-size="24px" font-style="normal" font-weight="normal" text-decoration="none" x="0" y="480">UNREGISTERED</text><text fill="#eeeeee" stroke="none" font-family="Arial" font-size="24px" font-style="normal" font-weight="normal" text-decoration="none" x="200" y="0">UNREGISTERED</text><text fill="#eeeeee" stroke="none" font-family="Arial" font-size="24px" font-style="normal" font-weight="normal" text-decoration="none" x="200" y="30">UNREGISTERED</text><text fill="#eeeeee" stroke="none" font-family="Arial" font-size="24px" font-style="normal" font-weight="normal" text-decoration="none" x="200" y="60">UNREGISTERED</text><text fill="#eeeeee" stroke="none" font-family="Arial" font-size="24px" font-style="normal" font-weight="normal" text-decoration="none" x="200" y="90">UNREGISTERED</text><text fill="#eeeeee" stroke="none" font-family="Arial" font-size="24px" font-style="normal" font-weight="normal" text-decoration="none" x="200" y="120">UNREGISTERED</text><text fill="#eeeeee" stroke="none" font-family="Arial" font-size="24px" font-style="normal" font-weight="normal" text-decoration="none" x="200" y="150">UNREGISTERED</text><text fill="#eeeeee" stroke="none" font-family="Arial" font-size="24px" font-style="normal" font-weight="normal" text-decoration="none" x="200" y="180">UNREGISTERED</text><text fill="#eeeeee" stroke="none" font-family="Arial" font-size="24px" font-style="normal" font-weight="normal" text-decoration="none" x="200" y="210">UNREGISTERED</text><text fill="#eeeeee" stroke="none" font-family="Arial" font-size="24px" font-style="normal" font-weight="normal" text-decoration="none" x="200" y="240">UNREGISTERED</text><text fill="#eeeeee" stroke="none" font-family="Arial" font-size="24px" font-style="normal" font-weight="normal" text-decoration="none" x="200" y="270">UNREGISTERED</text><text fill="#eeeeee" stroke="none" font-family="Arial" font-size="24px" font-style="normal" font-weight="normal" text-decoration="none" x="200" y="300">UNREGISTERED</text><text fill="#eeeeee" stroke="none" font-family="Arial" font-size="24px" font-style="normal" font-weight="normal" text-decoration="none" x="200" y="330">UNREGISTERED</text><text fill="#eeeeee" stroke="none" font-family="Arial" font-size="24px" font-style="normal" font-weight="normal" text-decoration="none" x="200" y="360">UNREGISTERED</text><text fill="#eeeeee" stroke="none" font-family="Arial" font-size="24px" font-style="normal" font-weight="normal" text-decoration="none" x="200" y="390">UNREGISTERED</text><text fill="#eeeeee" stroke="none" font-family="Arial" font-size="24px" font-style="normal" font-weight="normal" text-decoration="none" x="200" y="420">UNREGISTERED</text><text fill="#eeeeee" stroke="none" font-family="Arial" font-size="24px" font-style="normal" font-weight="normal" text-decoration="none" x="200" y="450">UNREGISTERED</text><text fill="#eeeeee" stroke="none" font-family="Arial" font-size="24px" font-style="normal" font-weight="normal" text-decoration="none" x="200" y="480">UNREGISTERED</text><text fill="#eeeeee" stroke="none" font-family="Arial" font-size="24px" font-style="normal" font-weight="normal" text-decoration="none" x="400" y="0">UNREGISTERED</text><text fill="#eeeeee" stroke="none" font-family="Arial" font-size="24px" font-style="normal" font-weight="normal" text-decoration="none" x="400" y="30">UNREGISTERED</text><text fill="#eeeeee" stroke="none" font-family="Arial" font-size="24px" font-style="normal" font-weight="normal" text-decoration="none" x="400" y="60">UNREGISTERED</text><text fill="#eeeeee" stroke="none" font-family="Arial" font-size="24px" font-style="normal" font-weight="normal" text-decoration="none" x="400" y="90">UNREGISTERED</text><text fill="#eeeeee" stroke="none" font-family="Arial" font-size="24px" font-style="normal" font-weight="normal" text-decoration="none" x="400" y="120">UNREGISTERED</text><text fill="#eeeeee" stroke="none" font-family="Arial" font-size="24px" font-style="normal" font-weight="normal" text-decoration="none" x="400" y="150">UNREGISTERED</text><text fill="#eeeeee" stroke="none" font-family="Arial" font-size="24px" font-style="normal" font-weight="normal" text-decoration="none" x="400" y="180">UNREGISTERED</text><text fill="#eeeeee" stroke="none" font-family="Arial" font-size="24px" font-style="normal" font-weight="normal" text-decoration="none" x="400" y="210">UNREGISTERED</text><text fill="#eeeeee" stroke="none" font-family="Arial" font-size="24px" font-style="normal" font-weight="normal" text-decoration="none" x="400" y="240">UNREGISTERED</text><text fill="#eeeeee" stroke="none" font-family="Arial" font-size="24px" font-style="normal" font-weight="normal" text-decoration="none" x="400" y="270">UNREGISTERED</text><text fill="#eeeeee" stroke="none" font-family="Arial" font-size="24px" font-style="normal" font-weight="normal" text-decoration="none" x="400" y="300">UNREGISTERED</text><text fill="#eeeeee" stroke="none" font-family="Arial" font-size="24px" font-style="normal" font-weight="normal" text-decoration="none" x="400" y="330">UNREGISTERED</text><text fill="#eeeeee" stroke="none" font-family="Arial" font-size="24px" font-style="normal" font-weight="normal" text-decoration="none" x="400" y="360">UNREGISTERED</text><text fill="#eeeeee" stroke="none" font-family="Arial" font-size="24px" font-style="normal" font-weight="normal" text-decoration="none" x="400" y="390">UNREGISTERED</text><text fill="#eeeeee" stroke="none" font-family="Arial" font-size="24px" font-style="normal" font-weight="normal" text-decoration="none" x="400" y="420">UNREGISTERED</text><text fill="#eeeeee" stroke="none" font-family="Arial" font-size="24px" font-style="normal" font-weight="normal" text-decoration="none" x="400" y="450">UNREGISTERED</text><text fill="#eeeeee" stroke="none" font-family="Arial" font-size="24px" font-style="normal" font-weight="normal" text-decoration="none" x="400" y="480">UNREGISTERED</text><text fill="#eeeeee" stroke="none" font-family="Arial" font-size="24px" font-style="normal" font-weight="normal" text-decoration="none" x="600" y="0">UNREGISTERED</text><text fill="#eeeeee" stroke="none" font-family="Arial" font-size="24px" font-style="normal" font-weight="normal" text-decoration="none" x="600" y="30">UNREGISTERED</text><text fill="#eeeeee" stroke="none" font-family="Arial" font-size="24px" font-style="normal" font-weight="normal" text-decoration="none" x="600" y="60">UNREGISTERED</text><text fill="#eeeeee" stroke="none" font-family="Arial" font-size="24px" font-style="normal" font-weight="normal" text-decoration="none" x="600" y="90">UNREGISTERED</text><text fill="#eeeeee" stroke="none" font-family="Arial" font-size="24px" font-style="normal" font-weight="normal" text-decoration="none" x="600" y="120">UNREGISTERED</text><text fill="#eeeeee" stroke="none" font-family="Arial" font-size="24px" font-style="normal" font-weight="normal" text-decoration="none" x="600" y="150">UNREGISTERED</text><text fill="#eeeeee" stroke="none" font-family="Arial" font-size="24px" font-style="normal" font-weight="normal" text-decoration="none" x="600" y="180">UNREGISTERED</text><text fill="#eeeeee" stroke="none" font-family="Arial" font-size="24px" font-style="normal" font-weight="normal" text-decoration="none" x="600" y="210">UNREGISTERED</text><text fill="#eeeeee" stroke="none" font-family="Arial" font-size="24px" font-style="normal" font-weight="normal" text-decoration="none" x="600" y="240">UNREGISTERED</text><text fill="#eeeeee" stroke="none" font-family="Arial" font-size="24px" font-style="normal" font-weight="normal" text-decoration="none" x="600" y="270">UNREGISTERED</text><text fill="#eeeeee" stroke="none" font-family="Arial" font-size="24px" font-style="normal" font-weight="normal" text-decoration="none" x="600" y="300">UNREGISTERED</text><text fill="#eeeeee" stroke="none" font-family="Arial" font-size="24px" font-style="normal" font-weight="normal" text-decoration="none" x="600" y="330">UNREGISTERED</text><text fill="#eeeeee" stroke="none" font-family="Arial" font-size="24px" font-style="normal" font-weight="normal" text-decoration="none" x="600" y="360">UNREGISTERED</text><text fill="#eeeeee" stroke="none" font-family="Arial" font-size="24px" font-style="normal" font-weight="normal" text-decoration="none" x="600" y="390">UNREGISTERED</text><text fill="#eeeeee" stroke="none" font-family="Arial" font-size="24px" font-style="normal" font-weight="normal" text-decoration="none" x="600" y="420">UNREGISTERED</text><text fill="#eeeeee" stroke="none" font-family="Arial" font-size="24px" font-style="normal" font-weight="normal" text-decoration="none" x="600" y="450">UNREGISTERED</text><text fill="#eeeeee" stroke="none" font-family="Arial" font-size="24px" font-style="normal" font-weight="normal" text-decoration="none" x="600" y="480">UNREGISTERED</text><text fill="#eeeeee" stroke="none" font-family="Arial" font-size="24px" font-style="normal" font-weight="normal" text-decoration="none" x="800" y="0">UNREGISTERED</text><text fill="#eeeeee" stroke="none" font-family="Arial" font-size="24px" font-style="normal" font-weight="normal" text-decoration="none" x="800" y="30">UNREGISTERED</text><text fill="#eeeeee" stroke="none" font-family="Arial" font-size="24px" font-style="normal" font-weight="normal" text-decoration="none" x="800" y="60">UNREGISTERED</text><text fill="#eeeeee" stroke="none" font-family="Arial" font-size="24px" font-style="normal" font-weight="normal" text-decoration="none" x="800" y="90">UNREGISTERED</text><text fill="#eeeeee" stroke="none" font-family="Arial" font-size="24px" font-style="normal" font-weight="normal" text-decoration="none" x="800" y="120">UNREGISTERED</text><text fill="#eeeeee" stroke="none" font-family="Arial" font-size="24px" font-style="normal" font-weight="normal" text-decoration="none" x="800" y="150">UNREGISTERED</text><text fill="#eeeeee" stroke="none" font-family="Arial" font-size="24px" font-style="normal" font-weight="normal" text-decoration="none" x="800" y="180">UNREGISTERED</text><text fill="#eeeeee" stroke="none" font-family="Arial" font-size="24px" font-style="normal" font-weight="normal" text-decoration="none" x="800" y="210">UNREGISTERED</text><text fill="#eeeeee" stroke="none" font-family="Arial" font-size="24px" font-style="normal" font-weight="normal" text-decoration="none" x="800" y="240">UNREGISTERED</text><text fill="#eeeeee" stroke="none" font-family="Arial" font-size="24px" font-style="normal" font-weight="normal" text-decoration="none" x="800" y="270">UNREGISTERED</text><text fill="#eeeeee" stroke="none" font-family="Arial" font-size="24px" font-style="normal" font-weight="normal" text-decoration="none" x="800" y="300">UNREGISTERED</text><text fill="#eeeeee" stroke="none" font-family="Arial" font-size="24px" font-style="normal" font-weight="normal" text-decoration="none" x="800" y="330">UNREGISTERED</text><text fill="#eeeeee" stroke="none" font-family="Arial" font-size="24px" font-style="normal" font-weight="normal" text-decoration="none" x="800" y="360">UNREGISTERED</text><text fill="#eeeeee" stroke="none" font-family="Arial" font-size="24px" font-style="normal" font-weight="normal" text-decoration="none" x="800" y="390">UNREGISTERED</text><text fill="#eeeeee" stroke="none" font-family="Arial" font-size="24px" font-style="normal" font-weight="normal" text-decoration="none" x="800" y="420">UNREGISTERED</text><text fill="#eeeeee" stroke="none" font-family="Arial" font-size="24px" font-style="normal" font-weight="normal" text-decoration="none" x="800" y="450">UNREGISTERED</text><text fill="#eeeeee" stroke="none" font-family="Arial" font-size="24px" font-style="normal" font-weight="normal" text-decoration="none" x="800" y="480">UNREGISTERED</text><g transform="translate(-118,-30) scale(1,1)"><rect fill="#C0C0C0" stroke="none" x="511" y="167" width="136" height="355" opacity="0.2"/></g><g transform="translate(-118,-30) scale(1,1)"><rect fill="#ffffff" stroke="none" x="504" y="160" width="136" height="355"/></g><g transform="translate(-118,-30) scale(1,1)"><path fill="none" stroke="#000000" d="M 504 160 L 640 160 L 640 515 L 504 515 L 504 160 Z Z" stroke-miterlimit="10"/></g><g transform="translate(-118,-30) scale(1,1)"><path fill="none" stroke="#000000" d="M 504 185 L 640 185" stroke-miterlimit="10"/></g><g transform="translate(-118,-30) scale(1,1)"><path fill="none" stroke="#000000" d="M 504 403 L 640 403" stroke-miterlimit="10"/></g><g transform="translate(-118,-30) scale(1,1)"><g><path fill="none" stroke="none"/><text fill="#000000" stroke="none" font-family="Arial" font-size="13px" font-style="normal" font-weight="bold" text-decoration="none" x="543.825927734375" y="179.5">Customer</text></g></g><g transform="translate(-118,-30) scale(1,1)"><g><path fill="none" stroke="none"/><text fill="#000000" stroke="none" font-family="Arial" font-size="13px" font-style="normal" font-weight="normal" text-decoration="none" x="509" y="202.5">+cusId</text></g></g><g transform="translate(-118,-30) scale(1,1)"><g><path fill="none" stroke="none"/><text fill="#000000" stroke="none" font-family="Arial" font-size="13px" font-style="normal" font-weight="normal" text-decoration="none" x="509" y="217.5">+genderId</text></g></g><g transform="translate(-118,-30) scale(1,1)"><g><path fill="none" stroke="none"/><text fill="#000000" stroke="none" font-family="Arial" font-size="13px" font-style="normal" font-weight="normal" text-decoration="none" x="509" y="232.5">+branchId</text></g></g><g transform="translate(-118,-30) scale(1,1)"><g><path fill="none" stroke="none"/><text fill="#000000" stroke="none" font-family="Arial" font-size="13px" font-style="normal" font-weight="normal" text-decoration="none" x="509" y="247.5">+provinceId</text></g></g><g transform="translate(-118,-30) scale(1,1)"><g><path fill="none" stroke="none"/><text fill="#000000" stroke="none" font-family="Arial" font-size="13px" font-style="normal" font-weight="normal" text-decoration="none" x="509" y="262.5">+disstrictId</text></g></g><g transform="translate(-118,-30) scale(1,1)"><g><path fill="none" stroke="none"/><text fill="#000000" stroke="none" font-family="Arial" font-size="13px" font-style="normal" font-weight="normal" text-decoration="none" x="509" y="277.5">+firstname</text></g></g><g transform="translate(-118,-30) scale(1,1)"><g><path fill="none" stroke="none"/><text fill="#000000" stroke="none" font-family="Arial" font-size="13px" font-style="normal" font-weight="normal" text-decoration="none" x="509" y="292.5">+lastname</text></g></g><g transform="translate(-118,-30) scale(1,1)"><g><path fill="none" stroke="none"/><text fill="#000000" stroke="none" font-family="Arial" font-size="13px" font-style="normal" font-weight="normal" text-decoration="none" x="509" y="307.5">+phone</text></g></g><g transform="translate(-118,-30) scale(1,1)"><g><path fill="none" stroke="none"/><text fill="#000000" stroke="none" font-family="Arial" font-size="13px" font-style="normal" font-weight="normal" text-decoration="none" x="509" y="322.5">+village</text></g></g><g transform="translate(-118,-30) scale(1,1)"><g><path fill="none" stroke="none"/><text fill="#000000" stroke="none" font-family="Arial" font-size="13px" font-style="normal" font-weight="normal" text-decoration="none" x="509" y="337.5">+description</text></g></g><g transform="translate(-118,-30) scale(1,1)"><g><path fill="none" stroke="none"/><text fill="#000000" stroke="none" font-family="Arial" font-size="13px" font-style="normal" font-weight="normal" text-decoration="none" x="509" y="352.5">+isActive</text></g></g><g transform="translate(-118,-30) scale(1,1)"><g><path fill="none" stroke="none"/><text fill="#000000" stroke="none" font-family="Arial" font-size="13px" font-style="normal" font-weight="normal" text-decoration="none" x="509" y="367.5">+create date</text></g></g><g transform="translate(-118,-30) scale(1,1)"><g><path fill="none" stroke="none"/><text fill="#000000" stroke="none" font-family="Arial" font-size="13px" font-style="normal" font-weight="normal" text-decoration="none" x="509" y="382.5">+update dat</text></g></g><g transform="translate(-118,-30) scale(1,1)"><g><path fill="none" stroke="none"/><text fill="#000000" stroke="none" font-family="Arial" font-size="13px" font-style="normal" font-weight="normal" text-decoration="none" x="509" y="397.5">+createby</text></g></g><g transform="translate(-118,-30) scale(1,1)"><g><path fill="none" stroke="none"/><text fill="#000000" stroke="none" font-family="Arial" font-size="13px" font-style="normal" font-weight="normal" text-decoration="none" x="509" y="420.5">+Register()</text></g></g><g transform="translate(-118,-30) scale(1,1)"><g><path fill="none" stroke="none"/><text fill="#000000" stroke="none" font-family="Arial" font-size="13px" font-style="normal" font-weight="normal" text-decoration="none" x="509" y="435.5">+GetId()</text></g></g><g transform="translate(-118,-30) scale(1,1)"><g><path fill="none" stroke="none"/><text fill="#000000" stroke="none" font-family="Arial" font-size="13px" font-style="normal" font-weight="normal" text-decoration="none" x="509" y="450.5">+GetAll()</text></g></g><g transform="translate(-118,-30) scale(1,1)"><g><path fill="none" stroke="none"/><text fill="#000000" stroke="none" font-family="Arial" font-size="13px" font-style="normal" font-weight="normal" text-decoration="none" x="509" y="465.5">+Edit()</text></g></g><g transform="translate(-118,-30) scale(1,1)"><g><path fill="none" stroke="none"/><text fill="#000000" stroke="none" font-family="Arial" font-size="13px" font-style="normal" font-weight="normal" text-decoration="none" x="509" y="480.5">+Validation()</text></g></g><g transform="translate(-118,-30) scale(1,1)"><g><path fill="none" stroke="none"/><text fill="#000000" stroke="none" font-family="Arial" font-size="13px" font-style="normal" font-weight="normal" text-decoration="none" x="509" y="495.5">+Disable()</text></g></g><g transform="translate(-118,-30) scale(1,1)"><g><path fill="none" stroke="none"/><text fill="#000000" stroke="none" font-family="Arial" font-size="13px" font-style="normal" font-weight="normal" text-decoration="none" x="509" y="510.5">+CheckCustomer()</text></g></g><g transform="translate(-118,-30) scale(1,1)"><rect fill="#C0C0C0" stroke="none" x="135" y="47" width="89.57080078125" height="57" opacity="0.2"/></g><g transform="translate(-118,-30) scale(1,1)"><rect fill="#ffffff" stroke="none" x="128" y="40" width="89.57080078125" height="57"/></g><g transform="translate(-118,-30) scale(1,1)"><path fill="none" stroke="#000000" d="M 128 40 L 217.57080078125 40 L 217.57080078125 97 L 128 97 L 128 40 Z Z" stroke-miterlimit="10"/></g><g transform="translate(-118,-30) scale(1,1)"><path fill="none" stroke="#000000" d="M 128 65 L 217.57080078125 65" stroke-miterlimit="10"/></g><g transform="translate(-118,-30) scale(1,1)"><path fill="none" stroke="#000000" d="M 128 75 L 217.57080078125 75" stroke-miterlimit="10"/></g><g transform="translate(-118,-30) scale(1,1)"><g><path fill="none" stroke="none"/><text fill="#000000" stroke="none" font-family="Arial" font-size="13px" font-style="normal" font-weight="bold" text-decoration="none" x="152.5458984375" y="59.5">gender</text></g></g><g transform="translate(-118,-30) scale(1,1)"><g><path fill="none" stroke="none"/><text fill="#000000" stroke="none" font-family="Arial" font-size="13px" font-style="normal" font-weight="normal" text-decoration="none" x="133" y="92.5">+get()</text></g></g><g transform="translate(-118,-30) scale(1,1)"><rect fill="#C0C0C0" stroke="none" x="258" y="47" width="89.57080078125" height="57" opacity="0.2"/></g><g transform="translate(-118,-30) scale(1,1)"><rect fill="#ffffff" stroke="none" x="251" y="40" width="89.57080078125" height="57"/></g><g transform="translate(-118,-30) scale(1,1)"><path fill="none" stroke="#000000" d="M 251 40 L 340.57080078125 40 L 340.57080078125 97 L 251 97 L 251 40 Z Z" stroke-miterlimit="10"/></g><g transform="translate(-118,-30) scale(1,1)"><path fill="none" stroke="#000000" d="M 251 65 L 340.57080078125 65" stroke-miterlimit="10"/></g><g transform="translate(-118,-30) scale(1,1)"><path fill="none" stroke="#000000" d="M 251 75 L 340.57080078125 75" stroke-miterlimit="10"/></g><g transform="translate(-118,-30) scale(1,1)"><g><path fill="none" stroke="none"/><text fill="#000000" stroke="none" font-family="Arial" font-size="13px" font-style="normal" font-weight="bold" text-decoration="none" x="275.910888671875" y="59.5">branch</text></g></g><g transform="translate(-118,-30) scale(1,1)"><g><path fill="none" stroke="none"/><text fill="#000000" stroke="none" font-family="Arial" font-size="13px" font-style="normal" font-weight="normal" text-decoration="none" x="256" y="92.5">+get()</text></g></g><g transform="translate(-118,-30) scale(1,1)"><rect fill="#C0C0C0" stroke="none" x="381" y="47" width="89.57080078125" height="57" opacity="0.2"/></g><g transform="translate(-118,-30) scale(1,1)"><rect fill="#ffffff" stroke="none" x="374" y="40" width="89.57080078125" height="57"/></g><g transform="translate(-118,-30) scale(1,1)"><path fill="none" stroke="#000000" d="M 374 40 L 463.57080078125 40 L 463.57080078125 97 L 374 97 L 374 40 Z Z" stroke-miterlimit="10"/></g><g transform="translate(-118,-30) scale(1,1)"><path fill="none" stroke="#000000" d="M 374 65 L 463.57080078125 65" stroke-miterlimit="10"/></g><g transform="translate(-118,-30) scale(1,1)"><path fill="none" stroke="#000000" d="M 374 75 L 463.57080078125 75" stroke-miterlimit="10"/></g><g transform="translate(-118,-30) scale(1,1)"><g><path fill="none" stroke="none"/><text fill="#000000" stroke="none" font-family="Arial" font-size="13px" font-style="normal" font-weight="bold" text-decoration="none" x="394.216796875" y="59.5">province</text></g></g><g transform="translate(-118,-30) scale(1,1)"><g><path fill="none" stroke="none"/><text fill="#000000" stroke="none" font-family="Arial" font-size="13px" font-style="normal" font-weight="normal" text-decoration="none" x="379" y="92.5">+get()</text></g></g><g transform="translate(-118,-30) scale(1,1)"><rect fill="#C0C0C0" stroke="none" x="504" y="47" width="89.57080078125" height="57" opacity="0.2"/></g><g transform="translate(-118,-30) scale(1,1)"><rect fill="#ffffff" stroke="none" x="497" y="40" width="89.57080078125" height="57"/></g><g transform="translate(-118,-30) scale(1,1)"><path fill="none" stroke="#000000" d="M 497 40 L 586.57080078125 40 L 586.57080078125 97 L 497 97 L 497 40 Z Z" stroke-miterlimit="10"/></g><g transform="translate(-118,-30) scale(1,1)"><path fill="none" stroke="#000000" d="M 497 65 L 586.57080078125 65" stroke-miterlimit="10"/></g><g transform="translate(-118,-30) scale(1,1)"><path fill="none" stroke="#000000" d="M 497 75 L 586.57080078125 75" stroke-miterlimit="10"/></g><g transform="translate(-118,-30) scale(1,1)"><g><path fill="none" stroke="none"/><text fill="#000000" stroke="none" font-family="Arial" font-size="13px" font-style="normal" font-weight="bold" text-decoration="none" x="523.005859375" y="59.5">district</text></g></g><g transform="translate(-118,-30) scale(1,1)"><g><path fill="none" stroke="none"/><text fill="#000000" stroke="none" font-family="Arial" font-size="13px" font-style="normal" font-weight="normal" text-decoration="none" x="502" y="92.5">+get()</text></g></g><g transform="translate(-118,-30) scale(1,1)"><rect fill="#C0C0C0" stroke="none" x="627" y="47" width="112.68896484375" height="57" opacity="0.2"/></g><g transform="translate(-118,-30) scale(1,1)"><rect fill="#ffffff" stroke="none" x="620" y="40" width="112.68896484375" height="57"/></g><g transform="translate(-118,-30) scale(1,1)"><path fill="none" stroke="#000000" d="M 620 40 L 732.68896484375 40 L 732.68896484375 97 L 620 97 L 620 40 Z Z" stroke-miterlimit="10"/></g><g transform="translate(-118,-30) scale(1,1)"><path fill="none" stroke="#000000" d="M 620 65 L 732.68896484375 65" stroke-miterlimit="10"/></g><g transform="translate(-118,-30) scale(1,1)"><path fill="none" stroke="#000000" d="M 620 75 L 732.68896484375 75" stroke-miterlimit="10"/></g><g transform="translate(-118,-30) scale(1,1)"><g><path fill="none" stroke="none"/><text fill="#000000" stroke="none" font-family="Arial" font-size="13px" font-style="normal" font-weight="bold" text-decoration="none" x="652.861328125" y="59.5">vehicles</text></g></g><g transform="translate(-118,-30) scale(1,1)"><g><path fill="none" stroke="none"/><text fill="#000000" stroke="none" font-family="Arial" font-size="13px" font-style="normal" font-weight="normal" text-decoration="none" x="625" y="92.5">+getVehicleUser()</text></g></g><g transform="translate(-118,-30) scale(1,1)"><rect fill="#C0C0C0" stroke="none" x="773" y="47" width="97.51806640625" height="57" opacity="0.2"/></g><g transform="translate(-118,-30) scale(1,1)"><rect fill="#ffffff" stroke="none" x="766" y="40" width="97.51806640625" height="57"/></g><g transform="translate(-118,-30) scale(1,1)"><path fill="none" stroke="#000000" d="M 766 40 L 863.51806640625 40 L 863.51806640625 97 L 766 97 L 766 40 Z Z" stroke-miterlimit="10"/></g><g transform="translate(-118,-30) scale(1,1)"><path fill="none" stroke="#000000" d="M 766 65 L 863.51806640625 65" stroke-miterlimit="10"/></g><g transform="translate(-118,-30) scale(1,1)"><path fill="none" stroke="#000000" d="M 766 75 L 863.51806640625 75" stroke-miterlimit="10"/></g><g transform="translate(-118,-30) scale(1,1)"><g><path fill="none" stroke="none"/><text fill="#000000" stroke="none" font-family="Arial" font-size="13px" font-style="normal" font-weight="bold" text-decoration="none" x="785.489990234375" y="59.5">inspection</text></g></g><g transform="translate(-118,-30) scale(1,1)"><g><path fill="none" stroke="none"/><text fill="#000000" stroke="none" font-family="Arial" font-size="13px" font-style="normal" font-weight="normal" text-decoration="none" x="771" y="92.5">+orderVehicle()</text></g></g><g transform="translate(-118,-30) scale(1,1)"><rect fill="#C0C0C0" stroke="none" x="903" y="47" width="89.57080078125" height="57" opacity="0.2"/></g><g transform="translate(-118,-30) scale(1,1)"><rect fill="#ffffff" stroke="none" x="896" y="40" width="89.57080078125" height="57"/></g><g transform="translate(-118,-30) scale(1,1)"><path fill="none" stroke="#000000" d="M 896 40 L 985.57080078125 40 L 985.57080078125 97 L 896 97 L 896 40 Z Z" stroke-miterlimit="10"/></g><g transform="translate(-118,-30) scale(1,1)"><path fill="none" stroke="#000000" d="M 896 65 L 985.57080078125 65" stroke-miterlimit="10"/></g><g transform="translate(-118,-30) scale(1,1)"><path fill="none" stroke="#000000" d="M 896 75 L 985.57080078125 75" stroke-miterlimit="10"/></g><g transform="translate(-118,-30) scale(1,1)"><g><path fill="none" stroke="none"/><text fill="#000000" stroke="none" font-family="Arial" font-size="13px" font-style="normal" font-weight="bold" text-decoration="none" x="912.966796875" y="59.5">employye</text></g></g><g transform="translate(-118,-30) scale(1,1)"><g><path fill="none" stroke="none"/><text fill="#000000" stroke="none" font-family="Arial" font-size="13px" font-style="normal" font-weight="normal" text-decoration="none" x="901" y="92.5">+getId()</text></g></g><g transform="translate(-118,-30) scale(1,1)"><path fill="none" stroke="#000000" d="M 503 291 L 217 98" stroke-miterlimit="10"/></g><g transform="translate(-118,-30) scale(1,1)"><path fill="#FFFFFF" stroke="none" d="M 238.5573885414144 102.39078572404703 L 217 98 L 229.13862126209656 116.34812998251805"/></g><g transform="translate(-118,-30) scale(1,1)"><path fill="none" stroke="#000000" d="M 238.5573885414144 102.39078572404703 L 217 98 L 229.13862126209656 116.34812998251805 L 238.5573885414144 102.39078572404703" stroke-miterlimit="10"/></g><g transform="translate(-118,-30) scale(1,1)"><path fill="none" stroke="#000000" d="M 503 270 L 326 98" stroke-miterlimit="10"/></g><g transform="translate(-118,-30) scale(1,1)"><path fill="#FFFFFF" stroke="none" d="M 346.4438682965937 106.12700738719558 L 326 98 L 334.7093358719669 118.20265994044523"/></g><g transform="translate(-118,-30) scale(1,1)"><path fill="none" stroke="#000000" d="M 346.4438682965937 106.12700738719558 L 326 98 L 334.7093358719669 118.20265994044523 L 346.4438682965937 106.12700738719558" stroke-miterlimit="10"/></g><g transform="translate(-118,-30) scale(1,1)"><path fill="none" stroke="#000000" d="M 503 216 L 435 98" stroke-miterlimit="10"/></g><g transform="translate(-118,-30) scale(1,1)"><path fill="#FFFFFF" stroke="none" d="M 452.44292378643047 111.40687919617305 L 435 98 L 437.8539144989423 119.81410488726794"/></g><g transform="translate(-118,-30) scale(1,1)"><path fill="none" stroke="#000000" d="M 452.44292378643047 111.40687919617305 L 435 98 L 437.8539144989423 119.81410488726794 L 452.44292378643047 111.40687919617305" stroke-miterlimit="10"/></g><g transform="translate(-118,-30) scale(1,1)"><path fill="none" stroke="#000000" d="M 551 159 L 544 98" stroke-miterlimit="10"/></g><g transform="translate(-118,-30) scale(1,1)"><path fill="#FFFFFF" stroke="none" d="M 554.681353989927 117.2330100853161 L 544 98 L 537.9530659845751 119.15264969248763"/></g><g transform="translate(-118,-30) scale(1,1)"><path fill="none" stroke="#000000" d="M 554.681353989927 117.2330100853161 L 544 98 L 537.9530659845751 119.15264969248763 L 554.681353989927 117.2330100853161" stroke-miterlimit="10"/></g><g transform="translate(-118,-30) scale(1,1)"><path fill="none" stroke="#000000" d="M 641 159 L 664 98" stroke-miterlimit="10"/></g><g transform="translate(-118,-30) scale(1,1)"><path fill="#FFFFFF" stroke="none" d="M 664.7068061385311 119.98864309325464 L 664 98 L 648.9514687732085 114.04810605387071"/></g><g transform="translate(-118,-30) scale(1,1)"><path fill="none" stroke="#000000" d="M 664.7068061385311 119.98864309325464 L 664 98 L 648.9514687732085 114.04810605387071 L 664.7068061385311 119.98864309325464" stroke-miterlimit="10"/></g><g transform="translate(-118,-30) scale(1,1)"><path fill="none" stroke="#000000" d="M 641 260 L 787 98" stroke-miterlimit="10"/></g><g transform="translate(-118,-30) scale(1,1)"><path fill="#FFFFFF" stroke="none" d="M 779.6467418777013 118.7347436682214 L 787 98 L 767.1387834639434 107.46213917187166"/></g><g transform="translate(-118,-30) scale(1,1)"><path fill="none" stroke="#000000" d="M 779.6467418777013 118.7347436682214 L 787 98 L 767.1387834639434 107.46213917187166 L 779.6467418777013 118.7347436682214" stroke-miterlimit="10"/></g><g transform="translate(-118,-30) scale(1,1)"><path fill="none" stroke="#000000" d="M 641 287 L 899 98" stroke-miterlimit="10"/></g><g transform="translate(-118,-30) scale(1,1)"><path fill="#FFFFFF" stroke="none" d="M 887.5787645483651 116.80306838679046 L 899 98 L 877.6281897992069 103.21974412603471"/></g><g transform="translate(-118,-30) scale(1,1)"><path fill="none" stroke="#000000" d="M 887.5787645483651 116.80306838679046 L 899 98 L 877.6281897992069 103.21974412603471 L 887.5787645483651 116.80306838679046" stroke-miterlimit="10"/></g></g></svg>