<svg version="1.1" xmlns="http://www.w3.org/2000/svg" xmlns:xlink="http://www.w3.org/1999/xlink" width="516" height="385"><defs/><g><text fill="#eeeeee" stroke="none" font-family="Arial" font-size="24px" font-style="normal" font-weight="normal" text-decoration="none" x="0" y="0">UNREGISTERED</text><text fill="#eeeeee" stroke="none" font-family="Arial" font-size="24px" font-style="normal" font-weight="normal" text-decoration="none" x="0" y="30">UNREGISTERED</text><text fill="#eeeeee" stroke="none" font-family="Arial" font-size="24px" font-style="normal" font-weight="normal" text-decoration="none" x="0" y="60">UNREGISTERED</text><text fill="#eeeeee" stroke="none" font-family="Arial" font-size="24px" font-style="normal" font-weight="normal" text-decoration="none" x="0" y="90">UNREGISTERED</text><text fill="#eeeeee" stroke="none" font-family="Arial" font-size="24px" font-style="normal" font-weight="normal" text-decoration="none" x="0" y="120">UNREGISTERED</text><text fill="#eeeeee" stroke="none" font-family="Arial" font-size="24px" font-style="normal" font-weight="normal" text-decoration="none" x="0" y="150">UNREGISTERED</text><text fill="#eeeeee" stroke="none" font-family="Arial" font-size="24px" font-style="normal" font-weight="normal" text-decoration="none" x="0" y="180">UNREGISTERED</text><text fill="#eeeeee" stroke="none" font-family="Arial" font-size="24px" font-style="normal" font-weight="normal" text-decoration="none" x="0" y="210">UNREGISTERED</text><text fill="#eeeeee" stroke="none" font-family="Arial" font-size="24px" font-style="normal" font-weight="normal" text-decoration="none" x="0" y="240">UNREGISTERED</text><text fill="#eeeeee" stroke="none" font-family="Arial" font-size="24px" font-style="normal" font-weight="normal" text-decoration="none" x="0" y="270">UNREGISTERED</text><text fill="#eeeeee" stroke="none" font-family="Arial" font-size="24px" font-style="normal" font-weight="normal" text-decoration="none" x="0" y="300">UNREGISTERED</text><text fill="#eeeeee" stroke="none" font-family="Arial" font-size="24px" font-style="normal" font-weight="normal" text-decoration="none" x="0" y="330">UNREGISTERED</text><text fill="#eeeeee" stroke="none" font-family="Arial" font-size="24px" font-style="normal" font-weight="normal" text-decoration="none" x="0" y="360">UNREGISTERED</text><text fill="#eeeeee" stroke="none" font-family="Arial" font-size="24px" font-style="normal" font-weight="normal" text-decoration="none" x="200" y="0">UNREGISTERED</text><text fill="#eeeeee" stroke="none" font-family="Arial" font-size="24px" font-style="normal" font-weight="normal" text-decoration="none" x="200" y="30">UNREGISTERED</text><text fill="#eeeeee" stroke="none" font-family="Arial" font-size="24px" font-style="normal" font-weight="normal" text-decoration="none" x="200" y="60">UNREGISTERED</text><text fill="#eeeeee" stroke="none" font-family="Arial" font-size="24px" font-style="normal" font-weight="normal" text-decoration="none" x="200" y="90">UNREGISTERED</text><text fill="#eeeeee" stroke="none" font-family="Arial" font-size="24px" font-style="normal" font-weight="normal" text-decoration="none" x="200" y="120">UNREGISTERED</text><text fill="#eeeeee" stroke="none" font-family="Arial" font-size="24px" font-style="normal" font-weight="normal" text-decoration="none" x="200" y="150">UNREGISTERED</text><text fill="#eeeeee" stroke="none" font-family="Arial" font-size="24px" font-style="normal" font-weight="normal" text-decoration="none" x="200" y="180">UNREGISTERED</text><text fill="#eeeeee" stroke="none" font-family="Arial" font-size="24px" font-style="normal" font-weight="normal" text-decoration="none" x="200" y="210">UNREGISTERED</text><text fill="#eeeeee" stroke="none" font-family="Arial" font-size="24px" font-style="normal" font-weight="normal" text-decoration="none" x="200" y="240">UNREGISTERED</text><text fill="#eeeeee" stroke="none" font-family="Arial" font-size="24px" font-style="normal" font-weight="normal" text-decoration="none" x="200" y="270">UNREGISTERED</text><text fill="#eeeeee" stroke="none" font-family="Arial" font-size="24px" font-style="normal" font-weight="normal" text-decoration="none" x="200" y="300">UNREGISTERED</text><text fill="#eeeeee" stroke="none" font-family="Arial" font-size="24px" font-style="normal" font-weight="normal" text-decoration="none" x="200" y="330">UNREGISTERED</text><text fill="#eeeeee" stroke="none" font-family="Arial" font-size="24px" font-style="normal" font-weight="normal" text-decoration="none" x="200" y="360">UNREGISTERED</text><text fill="#eeeeee" stroke="none" font-family="Arial" font-size="24px" font-style="normal" font-weight="normal" text-decoration="none" x="400" y="0">UNREGISTERED</text><text fill="#eeeeee" stroke="none" font-family="Arial" font-size="24px" font-style="normal" font-weight="normal" text-decoration="none" x="400" y="30">UNREGISTERED</text><text fill="#eeeeee" stroke="none" font-family="Arial" font-size="24px" font-style="normal" font-weight="normal" text-decoration="none" x="400" y="60">UNREGISTERED</text><text fill="#eeeeee" stroke="none" font-family="Arial" font-size="24px" font-style="normal" font-weight="normal" text-decoration="none" x="400" y="90">UNREGISTERED</text><text fill="#eeeeee" stroke="none" font-family="Arial" font-size="24px" font-style="normal" font-weight="normal" text-decoration="none" x="400" y="120">UNREGISTERED</text><text fill="#eeeeee" stroke="none" font-family="Arial" font-size="24px" font-style="normal" font-weight="normal" text-decoration="none" x="400" y="150">UNREGISTERED</text><text fill="#eeeeee" stroke="none" font-family="Arial" font-size="24px" font-style="normal" font-weight="normal" text-decoration="none" x="400" y="180">UNREGISTERED</text><text fill="#eeeeee" stroke="none" font-family="Arial" font-size="24px" font-style="normal" font-weight="normal" text-decoration="none" x="400" y="210">UNREGISTERED</text><text fill="#eeeeee" stroke="none" font-family="Arial" font-size="24px" font-style="normal" font-weight="normal" text-decoration="none" x="400" y="240">UNREGISTERED</text><text fill="#eeeeee" stroke="none" font-family="Arial" font-size="24px" font-style="normal" font-weight="normal" text-decoration="none" x="400" y="270">UNREGISTERED</text><text fill="#eeeeee" stroke="none" font-family="Arial" font-size="24px" font-style="normal" font-weight="normal" text-decoration="none" x="400" y="300">UNREGISTERED</text><text fill="#eeeeee" stroke="none" font-family="Arial" font-size="24px" font-style="normal" font-weight="normal" text-decoration="none" x="400" y="330">UNREGISTERED</text><text fill="#eeeeee" stroke="none" font-family="Arial" font-size="24px" font-style="normal" font-weight="normal" text-decoration="none" x="400" y="360">UNREGISTERED</text><g transform="translate(-166,-102) scale(1,1)"><rect fill="#C0C0C0" stroke="none" x="391" y="119" width="120" height="220" opacity="0.2"/></g><g transform="translate(-166,-102) scale(1,1)"><rect fill="#ffffff" stroke="none" x="384" y="112" width="120" height="220"/></g><g transform="translate(-166,-102) scale(1,1)"><path fill="none" stroke="#000000" d="M 384 112 L 504 112 L 504 332 L 384 332 L 384 112 Z Z" stroke-miterlimit="10"/></g><g transform="translate(-166,-102) scale(1,1)"><path fill="none" stroke="#000000" d="M 384 137 L 504 137" stroke-miterlimit="10"/></g><g transform="translate(-166,-102) scale(1,1)"><path fill="none" stroke="#000000" d="M 384 265 L 504 265" stroke-miterlimit="10"/></g><g transform="translate(-166,-102) scale(1,1)"><g><path fill="none" stroke="none"/><text fill="#000000" stroke="none" font-family="Arial" font-size="13px" font-style="normal" font-weight="bold" text-decoration="none" x="408.24365234375" y="131.5">Stock striker</text></g></g><g transform="translate(-166,-102) scale(1,1)"><g><path fill="none" stroke="none"/><text fill="#000000" stroke="none" font-family="Arial" font-size="13px" font-style="normal" font-weight="normal" text-decoration="none" x="389" y="154.5">+ssId</text></g></g><g transform="translate(-166,-102) scale(1,1)"><g><path fill="none" stroke="none"/><text fill="#000000" stroke="none" font-family="Arial" font-size="13px" font-style="normal" font-weight="normal" text-decoration="none" x="389" y="169.5">+userId</text></g></g><g transform="translate(-166,-102) scale(1,1)"><g><path fill="none" stroke="none"/><text fill="#000000" stroke="none" font-family="Arial" font-size="13px" font-style="normal" font-weight="normal" text-decoration="none" x="389" y="184.5">+code</text></g></g><g transform="translate(-166,-102) scale(1,1)"><g><path fill="none" stroke="none"/><text fill="#000000" stroke="none" font-family="Arial" font-size="13px" font-style="normal" font-weight="normal" text-decoration="none" x="389" y="199.5">+qty</text></g></g><g transform="translate(-166,-102) scale(1,1)"><g><path fill="none" stroke="none"/><text fill="#000000" stroke="none" font-family="Arial" font-size="13px" font-style="normal" font-weight="normal" text-decoration="none" x="389" y="214.5">+price</text></g></g><g transform="translate(-166,-102) scale(1,1)"><g><path fill="none" stroke="none"/><text fill="#000000" stroke="none" font-family="Arial" font-size="13px" font-style="normal" font-weight="normal" text-decoration="none" x="389" y="229.5">+status</text></g></g><g transform="translate(-166,-102) scale(1,1)"><g><path fill="none" stroke="none"/><text fill="#000000" stroke="none" font-family="Arial" font-size="13px" font-style="normal" font-weight="normal" text-decoration="none" x="389" y="244.5">+create date</text></g></g><g transform="translate(-166,-102) scale(1,1)"><g><path fill="none" stroke="none"/><text fill="#000000" stroke="none" font-family="Arial" font-size="13px" font-style="normal" font-weight="normal" text-decoration="none" x="389" y="259.5">+update data</text></g></g><g transform="translate(-166,-102) scale(1,1)"><g><path fill="none" stroke="none"/><text fill="#000000" stroke="none" font-family="Arial" font-size="13px" font-style="normal" font-weight="normal" text-decoration="none" x="389" y="282.5">+register()</text></g></g><g transform="translate(-166,-102) scale(1,1)"><g><path fill="none" stroke="none"/><text fill="#000000" stroke="none" font-family="Arial" font-size="13px" font-style="normal" font-weight="normal" text-decoration="none" x="389" y="297.5">+counts()</text></g></g><g transform="translate(-166,-102) scale(1,1)"><g><path fill="none" stroke="none"/><text fill="#000000" stroke="none" font-family="Arial" font-size="13px" font-style="normal" font-weight="normal" text-decoration="none" x="389" y="312.5">+getAll()</text></g></g><g transform="translate(-166,-102) scale(1,1)"><g><path fill="none" stroke="none"/><text fill="#000000" stroke="none" font-family="Arial" font-size="13px" font-style="normal" font-weight="normal" text-decoration="none" x="389" y="327.5">+validation()</text></g></g><g transform="translate(-166,-102) scale(1,1)"><rect fill="#C0C0C0" stroke="none" x="183" y="119" width="112" height="57" opacity="0.2"/></g><g transform="translate(-166,-102) scale(1,1)"><rect fill="#ffffff" stroke="none" x="176" y="112" width="112" height="57"/></g><g transform="translate(-166,-102) scale(1,1)"><path fill="none" stroke="#000000" d="M 176 112 L 288 112 L 288 169 L 176 169 L 176 112 Z Z" stroke-miterlimit="10"/></g><g transform="translate(-166,-102) scale(1,1)"><path fill="none" stroke="#000000" d="M 176 137 L 288 137" stroke-miterlimit="10"/></g><g transform="translate(-166,-102) scale(1,1)"><path fill="none" stroke="#000000" d="M 176 147 L 288 147" stroke-miterlimit="10"/></g><g transform="translate(-166,-102) scale(1,1)"><g><path fill="none" stroke="none"/><text fill="#000000" stroke="none" font-family="Arial" font-size="13px" font-style="normal" font-weight="bold" text-decoration="none" x="219.35546875" y="131.5">user</text></g></g><g transform="translate(-166,-102) scale(1,1)"><g><path fill="none" stroke="none"/><text fill="#000000" stroke="none" font-family="Arial" font-size="13px" font-style="normal" font-weight="normal" text-decoration="none" x="181" y="164.5">+getId()</text></g></g><g transform="translate(-166,-102) scale(1,1)"><rect fill="#C0C0C0" stroke="none" x="183" y="215" width="112" height="57" opacity="0.2"/></g><g transform="translate(-166,-102) scale(1,1)"><rect fill="#ffffff" stroke="none" x="176" y="208" width="112" height="57"/></g><g transform="translate(-166,-102) scale(1,1)"><path fill="none" stroke="#000000" d="M 176 208 L 288 208 L 288 265 L 176 265 L 176 208 Z Z" stroke-miterlimit="10"/></g><g transform="translate(-166,-102) scale(1,1)"><path fill="none" stroke="#000000" d="M 176 233 L 288 233" stroke-miterlimit="10"/></g><g transform="translate(-166,-102) scale(1,1)"><path fill="none" stroke="#000000" d="M 176 243 L 288 243" stroke-miterlimit="10"/></g><g transform="translate(-166,-102) scale(1,1)"><g><path fill="none" stroke="none"/><text fill="#000000" stroke="none" font-family="Arial" font-size="13px" font-style="normal" font-weight="bold" text-decoration="none" x="212.12548828125" y="227.5">branch</text></g></g><g transform="translate(-166,-102) scale(1,1)"><g><path fill="none" stroke="none"/><text fill="#000000" stroke="none" font-family="Arial" font-size="13px" font-style="normal" font-weight="normal" text-decoration="none" x="181" y="260.5">+getId()</text></g></g><g transform="translate(-166,-102) scale(1,1)"><rect fill="#C0C0C0" stroke="none" x="575" y="119" width="104" height="130" opacity="0.2"/></g><g transform="translate(-166,-102) scale(1,1)"><rect fill="#ffffff" stroke="none" x="568" y="112" width="104" height="130"/></g><g transform="translate(-166,-102) scale(1,1)"><path fill="none" stroke="#000000" d="M 568 112 L 672 112 L 672 242 L 568 242 L 568 112 Z Z" stroke-miterlimit="10"/></g><g transform="translate(-166,-102) scale(1,1)"><path fill="none" stroke="#000000" d="M 568 137 L 672 137" stroke-miterlimit="10"/></g><g transform="translate(-166,-102) scale(1,1)"><path fill="none" stroke="#000000" d="M 568 205 L 672 205" stroke-miterlimit="10"/></g><g transform="translate(-166,-102) scale(1,1)"><g><path fill="none" stroke="none"/><text fill="#000000" stroke="none" font-family="Arial" font-size="13px" font-style="normal" font-weight="bold" text-decoration="none" x="601.9345703125" y="131.5">export</text></g></g><g transform="translate(-166,-102) scale(1,1)"><g><path fill="none" stroke="none"/><text fill="#000000" stroke="none" font-family="Arial" font-size="13px" font-style="normal" font-weight="normal" text-decoration="none" x="573" y="154.5">+exId</text></g></g><g transform="translate(-166,-102) scale(1,1)"><g><path fill="none" stroke="none"/><text fill="#000000" stroke="none" font-family="Arial" font-size="13px" font-style="normal" font-weight="normal" text-decoration="none" x="573" y="169.5">+stock striker</text></g></g><g transform="translate(-166,-102) scale(1,1)"><g><path fill="none" stroke="none"/><text fill="#000000" stroke="none" font-family="Arial" font-size="13px" font-style="normal" font-weight="normal" text-decoration="none" x="573" y="184.5">+userId</text></g></g><g transform="translate(-166,-102) scale(1,1)"><g><path fill="none" stroke="none"/><text fill="#000000" stroke="none" font-family="Arial" font-size="13px" font-style="normal" font-weight="normal" text-decoration="none" x="573" y="199.5">+transaction</text></g></g><g transform="translate(-166,-102) scale(1,1)"><g><path fill="none" stroke="none"/><text fill="#000000" stroke="none" font-family="Arial" font-size="13px" font-style="normal" font-weight="normal" text-decoration="none" x="573" y="222.5">+export()</text></g></g><g transform="translate(-166,-102) scale(1,1)"><g><path fill="none" stroke="none"/><text fill="#000000" stroke="none" font-family="Arial" font-size="13px" font-style="normal" font-weight="normal" text-decoration="none" x="573" y="237.5">+getAll()</text></g></g><g transform="translate(-166,-102) scale(1,1)"><rect fill="#C0C0C0" stroke="none" x="575" y="279" width="104" height="205" opacity="0.2"/></g><g transform="translate(-166,-102) scale(1,1)"><rect fill="#ffffff" stroke="none" x="568" y="272" width="104" height="205"/></g><g transform="translate(-166,-102) scale(1,1)"><path fill="none" stroke="#000000" d="M 568 272 L 672 272 L 672 477 L 568 477 L 568 272 Z Z" stroke-miterlimit="10"/></g><g transform="translate(-166,-102) scale(1,1)"><path fill="none" stroke="#000000" d="M 568 297 L 672 297" stroke-miterlimit="10"/></g><g transform="translate(-166,-102) scale(1,1)"><path fill="none" stroke="#000000" d="M 568 425 L 672 425" stroke-miterlimit="10"/></g><g transform="translate(-166,-102) scale(1,1)"><g><path fill="none" stroke="none"/><text fill="#000000" stroke="none" font-family="Arial" font-size="13px" font-style="normal" font-weight="bold" text-decoration="none" x="588.56640625" y="291.5">distribution</text></g></g><g transform="translate(-166,-102) scale(1,1)"><g><path fill="none" stroke="none"/><text fill="#000000" stroke="none" font-family="Arial" font-size="13px" font-style="normal" font-weight="normal" text-decoration="none" x="573" y="314.5">+dtId</text></g></g><g transform="translate(-166,-102) scale(1,1)"><g><path fill="none" stroke="none"/><text fill="#000000" stroke="none" font-family="Arial" font-size="13px" font-style="normal" font-weight="normal" text-decoration="none" x="573" y="329.5">+branchId</text></g></g><g transform="translate(-166,-102) scale(1,1)"><g><path fill="none" stroke="none"/><text fill="#000000" stroke="none" font-family="Arial" font-size="13px" font-style="normal" font-weight="normal" text-decoration="none" x="573" y="344.5">+stock striker</text></g></g><g transform="translate(-166,-102) scale(1,1)"><g><path fill="none" stroke="none"/><text fill="#000000" stroke="none" font-family="Arial" font-size="13px" font-style="normal" font-weight="normal" text-decoration="none" x="573" y="359.5">+userId</text></g></g><g transform="translate(-166,-102) scale(1,1)"><g><path fill="none" stroke="none"/><text fill="#000000" stroke="none" font-family="Arial" font-size="13px" font-style="normal" font-weight="normal" text-decoration="none" x="573" y="374.5">+price</text></g></g><g transform="translate(-166,-102) scale(1,1)"><g><path fill="none" stroke="none"/><text fill="#000000" stroke="none" font-family="Arial" font-size="13px" font-style="normal" font-weight="normal" text-decoration="none" x="573" y="389.5">+status</text></g></g><g transform="translate(-166,-102) scale(1,1)"><g><path fill="none" stroke="none"/><text fill="#000000" stroke="none" font-family="Arial" font-size="13px" font-style="normal" font-weight="normal" text-decoration="none" x="573" y="404.5">+create date</text></g></g><g transform="translate(-166,-102) scale(1,1)"><g><path fill="none" stroke="none"/><text fill="#000000" stroke="none" font-family="Arial" font-size="13px" font-style="normal" font-weight="normal" text-decoration="none" x="573" y="419.5">+update date</text></g></g><g transform="translate(-166,-102) scale(1,1)"><g><path fill="none" stroke="none"/><text fill="#000000" stroke="none" font-family="Arial" font-size="13px" font-style="normal" font-weight="normal" text-decoration="none" x="573" y="442.5">+distribution()</text></g></g><g transform="translate(-166,-102) scale(1,1)"><g><path fill="none" stroke="none"/><text fill="#000000" stroke="none" font-family="Arial" font-size="13px" font-style="normal" font-weight="normal" text-decoration="none" x="573" y="457.5">+useStroker()</text></g></g><g transform="translate(-166,-102) scale(1,1)"><g><path fill="none" stroke="none"/><text fill="#000000" stroke="none" font-family="Arial" font-size="13px" font-style="normal" font-weight="normal" text-decoration="none" x="573" y="472.5">+getAll()</text></g></g><g transform="translate(-166,-102) scale(1,1)"><path fill="none" stroke="#000000" d="M 383 198 L 289 162" stroke-miterlimit="10"/></g><g transform="translate(-166,-102) scale(1,1)"><path fill="#FFFFFF" stroke="none" d="M 310.9920101005162 161.40713261280993 L 289 162 L 304.9699200238245 177.1314789241716"/></g><g transform="translate(-166,-102) scale(1,1)"><path fill="none" stroke="#000000" d="M 310.9920101005162 161.40713261280993 L 289 162 L 304.9699200238245 177.1314789241716 L 310.9920101005162 161.40713261280993" stroke-miterlimit="10"/></g><g transform="translate(-166,-102) scale(1,1)"><path fill="none" stroke="#000000" d="M 383 226 L 289 232" stroke-miterlimit="10"/></g><g transform="translate(-166,-102) scale(1,1)"><path fill="#FFFFFF" stroke="none" d="M 308.7477767536638 222.3033349399159 L 289 232 L 309.8203644747539 239.1072092369936"/></g><g transform="translate(-166,-102) scale(1,1)"><path fill="none" stroke="#000000" d="M 308.7477767536638 222.3033349399159 L 289 232 L 309.8203644747539 239.1072092369936 L 308.7477767536638 222.3033349399159" stroke-miterlimit="10"/></g><g transform="translate(-166,-102) scale(1,1)"><path fill="none" stroke="#000000" d="M 567 191 L 505 206" stroke-miterlimit="10"/></g><g transform="translate(-166,-102) scale(1,1)"><path fill="#FFFFFF" stroke="none" d="M 522.7756547086166 193.03751182526912 L 505 206 L 526.735149273896 209.40342269509074"/></g><g transform="translate(-166,-102) scale(1,1)"><path fill="none" stroke="#000000" d="M 522.7756547086166 193.03751182526912 L 505 206 L 526.735149273896 209.40342269509074 L 522.7756547086166 193.03751182526912" stroke-miterlimit="10"/></g><g transform="translate(-166,-102) scale(1,1)"><path fill="none" stroke="#000000" d="M 567 328 L 505 275" stroke-miterlimit="10"/></g><g transform="translate(-166,-102) scale(1,1)"><path fill="#FFFFFF" stroke="none" d="M 525.9202627201721 281.8075405043951 L 505 275 L 514.979201579778 294.6065176874976"/></g><g transform="translate(-166,-102) scale(1,1)"><path fill="none" stroke="#000000" d="M 525.9202627201721 281.8075405043951 L 505 275 L 514.979201579778 294.6065176874976 L 525.9202627201721 281.8075405043951" stroke-miterlimit="10"/></g></g></svg>