<svg version="1.1" xmlns="http://www.w3.org/2000/svg" xmlns:xlink="http://www.w3.org/1999/xlink" width="556" height="524"><defs/><g><text fill="#eeeeee" stroke="none" font-family="Arial" font-size="24px" font-style="normal" font-weight="normal" text-decoration="none" x="0" y="0">UNREGISTERED</text><text fill="#eeeeee" stroke="none" font-family="Arial" font-size="24px" font-style="normal" font-weight="normal" text-decoration="none" x="0" y="30">UNREGISTERED</text><text fill="#eeeeee" stroke="none" font-family="Arial" font-size="24px" font-style="normal" font-weight="normal" text-decoration="none" x="0" y="60">UNREGISTERED</text><text fill="#eeeeee" stroke="none" font-family="Arial" font-size="24px" font-style="normal" font-weight="normal" text-decoration="none" x="0" y="90">UNREGISTERED</text><text fill="#eeeeee" stroke="none" font-family="Arial" font-size="24px" font-style="normal" font-weight="normal" text-decoration="none" x="0" y="120">UNREGISTERED</text><text fill="#eeeeee" stroke="none" font-family="Arial" font-size="24px" font-style="normal" font-weight="normal" text-decoration="none" x="0" y="150">UNREGISTERED</text><text fill="#eeeeee" stroke="none" font-family="Arial" font-size="24px" font-style="normal" font-weight="normal" text-decoration="none" x="0" y="180">UNREGISTERED</text><text fill="#eeeeee" stroke="none" font-family="Arial" font-size="24px" font-style="normal" font-weight="normal" text-decoration="none" x="0" y="210">UNREGISTERED</text><text fill="#eeeeee" stroke="none" font-family="Arial" font-size="24px" font-style="normal" font-weight="normal" text-decoration="none" x="0" y="240">UNREGISTERED</text><text fill="#eeeeee" stroke="none" font-family="Arial" font-size="24px" font-style="normal" font-weight="normal" text-decoration="none" x="0" y="270">UNREGISTERED</text><text fill="#eeeeee" stroke="none" font-family="Arial" font-size="24px" font-style="normal" font-weight="normal" text-decoration="none" x="0" y="300">UNREGISTERED</text><text fill="#eeeeee" stroke="none" font-family="Arial" font-size="24px" font-style="normal" font-weight="normal" text-decoration="none" x="0" y="330">UNREGISTERED</text><text fill="#eeeeee" stroke="none" font-family="Arial" font-size="24px" font-style="normal" font-weight="normal" text-decoration="none" x="0" y="360">UNREGISTERED</text><text fill="#eeeeee" stroke="none" font-family="Arial" font-size="24px" font-style="normal" font-weight="normal" text-decoration="none" x="0" y="390">UNREGISTERED</text><text fill="#eeeeee" stroke="none" font-family="Arial" font-size="24px" font-style="normal" font-weight="normal" text-decoration="none" x="0" y="420">UNREGISTERED</text><text fill="#eeeeee" stroke="none" font-family="Arial" font-size="24px" font-style="normal" font-weight="normal" text-decoration="none" x="0" y="450">UNREGISTERED</text><text fill="#eeeeee" stroke="none" font-family="Arial" font-size="24px" font-style="normal" font-weight="normal" text-decoration="none" x="0" y="480">UNREGISTERED</text><text fill="#eeeeee" stroke="none" font-family="Arial" font-size="24px" font-style="normal" font-weight="normal" text-decoration="none" x="0" y="510">UNREGISTERED</text><text fill="#eeeeee" stroke="none" font-family="Arial" font-size="24px" font-style="normal" font-weight="normal" text-decoration="none" x="200" y="0">UNREGISTERED</text><text fill="#eeeeee" stroke="none" font-family="Arial" font-size="24px" font-style="normal" font-weight="normal" text-decoration="none" x="200" y="30">UNREGISTERED</text><text fill="#eeeeee" stroke="none" font-family="Arial" font-size="24px" font-style="normal" font-weight="normal" text-decoration="none" x="200" y="60">UNREGISTERED</text><text fill="#eeeeee" stroke="none" font-family="Arial" font-size="24px" font-style="normal" font-weight="normal" text-decoration="none" x="200" y="90">UNREGISTERED</text><text fill="#eeeeee" stroke="none" font-family="Arial" font-size="24px" font-style="normal" font-weight="normal" text-decoration="none" x="200" y="120">UNREGISTERED</text><text fill="#eeeeee" stroke="none" font-family="Arial" font-size="24px" font-style="normal" font-weight="normal" text-decoration="none" x="200" y="150">UNREGISTERED</text><text fill="#eeeeee" stroke="none" font-family="Arial" font-size="24px" font-style="normal" font-weight="normal" text-decoration="none" x="200" y="180">UNREGISTERED</text><text fill="#eeeeee" stroke="none" font-family="Arial" font-size="24px" font-style="normal" font-weight="normal" text-decoration="none" x="200" y="210">UNREGISTERED</text><text fill="#eeeeee" stroke="none" font-family="Arial" font-size="24px" font-style="normal" font-weight="normal" text-decoration="none" x="200" y="240">UNREGISTERED</text><text fill="#eeeeee" stroke="none" font-family="Arial" font-size="24px" font-style="normal" font-weight="normal" text-decoration="none" x="200" y="270">UNREGISTERED</text><text fill="#eeeeee" stroke="none" font-family="Arial" font-size="24px" font-style="normal" font-weight="normal" text-decoration="none" x="200" y="300">UNREGISTERED</text><text fill="#eeeeee" stroke="none" font-family="Arial" font-size="24px" font-style="normal" font-weight="normal" text-decoration="none" x="200" y="330">UNREGISTERED</text><text fill="#eeeeee" stroke="none" font-family="Arial" font-size="24px" font-style="normal" font-weight="normal" text-decoration="none" x="200" y="360">UNREGISTERED</text><text fill="#eeeeee" stroke="none" font-family="Arial" font-size="24px" font-style="normal" font-weight="normal" text-decoration="none" x="200" y="390">UNREGISTERED</text><text fill="#eeeeee" stroke="none" font-family="Arial" font-size="24px" font-style="normal" font-weight="normal" text-decoration="none" x="200" y="420">UNREGISTERED</text><text fill="#eeeeee" stroke="none" font-family="Arial" font-size="24px" font-style="normal" font-weight="normal" text-decoration="none" x="200" y="450">UNREGISTERED</text><text fill="#eeeeee" stroke="none" font-family="Arial" font-size="24px" font-style="normal" font-weight="normal" text-decoration="none" x="200" y="480">UNREGISTERED</text><text fill="#eeeeee" stroke="none" font-family="Arial" font-size="24px" font-style="normal" font-weight="normal" text-decoration="none" x="200" y="510">UNREGISTERED</text><text fill="#eeeeee" stroke="none" font-family="Arial" font-size="24px" font-style="normal" font-weight="normal" text-decoration="none" x="400" y="0">UNREGISTERED</text><text fill="#eeeeee" stroke="none" font-family="Arial" font-size="24px" font-style="normal" font-weight="normal" text-decoration="none" x="400" y="30">UNREGISTERED</text><text fill="#eeeeee" stroke="none" font-family="Arial" font-size="24px" font-style="normal" font-weight="normal" text-decoration="none" x="400" y="60">UNREGISTERED</text><text fill="#eeeeee" stroke="none" font-family="Arial" font-size="24px" font-style="normal" font-weight="normal" text-decoration="none" x="400" y="90">UNREGISTERED</text><text fill="#eeeeee" stroke="none" font-family="Arial" font-size="24px" font-style="normal" font-weight="normal" text-decoration="none" x="400" y="120">UNREGISTERED</text><text fill="#eeeeee" stroke="none" font-family="Arial" font-size="24px" font-style="normal" font-weight="normal" text-decoration="none" x="400" y="150">UNREGISTERED</text><text fill="#eeeeee" stroke="none" font-family="Arial" font-size="24px" font-style="normal" font-weight="normal" text-decoration="none" x="400" y="180">UNREGISTERED</text><text fill="#eeeeee" stroke="none" font-family="Arial" font-size="24px" font-style="normal" font-weight="normal" text-decoration="none" x="400" y="210">UNREGISTERED</text><text fill="#eeeeee" stroke="none" font-family="Arial" font-size="24px" font-style="normal" font-weight="normal" text-decoration="none" x="400" y="240">UNREGISTERED</text><text fill="#eeeeee" stroke="none" font-family="Arial" font-size="24px" font-style="normal" font-weight="normal" text-decoration="none" x="400" y="270">UNREGISTERED</text><text fill="#eeeeee" stroke="none" font-family="Arial" font-size="24px" font-style="normal" font-weight="normal" text-decoration="none" x="400" y="300">UNREGISTERED</text><text fill="#eeeeee" stroke="none" font-family="Arial" font-size="24px" font-style="normal" font-weight="normal" text-decoration="none" x="400" y="330">UNREGISTERED</text><text fill="#eeeeee" stroke="none" font-family="Arial" font-size="24px" font-style="normal" font-weight="normal" text-decoration="none" x="400" y="360">UNREGISTERED</text><text fill="#eeeeee" stroke="none" font-family="Arial" font-size="24px" font-style="normal" font-weight="normal" text-decoration="none" x="400" y="390">UNREGISTERED</text><text fill="#eeeeee" stroke="none" font-family="Arial" font-size="24px" font-style="normal" font-weight="normal" text-decoration="none" x="400" y="420">UNREGISTERED</text><text fill="#eeeeee" stroke="none" font-family="Arial" font-size="24px" font-style="normal" font-weight="normal" text-decoration="none" x="400" y="450">UNREGISTERED</text><text fill="#eeeeee" stroke="none" font-family="Arial" font-size="24px" font-style="normal" font-weight="normal" text-decoration="none" x="400" y="480">UNREGISTERED</text><text fill="#eeeeee" stroke="none" font-family="Arial" font-size="24px" font-style="normal" font-weight="normal" text-decoration="none" x="400" y="510">UNREGISTERED</text><g transform="translate(-286,2) scale(1,1)"><path fill="none" stroke="#000000" d="M 296 8 L 832 8 L 832 512 L 296 512 L 296 8" stroke-miterlimit="10"/></g><g transform="translate(-286,2) scale(1,1)"><path fill="#ffffff" stroke="none" d="M 296 8 L 296 30 L 361.14990234375 30 L 372.14990234375 19 L 372.14990234375 8 L 296 8"/></g><g transform="translate(-286,2) scale(1,1)"><path fill="none" stroke="#000000" d="M 296 8 L 296 30 L 361.14990234375 30 L 372.14990234375 19 L 372.14990234375 8 L 296 8 L 296 8" stroke-miterlimit="10"/></g><g transform="translate(-286,2) scale(1,1)"><g><path fill="none" stroke="none"/><text fill="#000000" stroke="none" font-family="Arial" font-size="13px" font-style="normal" font-weight="normal" text-decoration="none" x="320.72998046875" y="25.5">logout</text></g></g><g transform="translate(-286,2) scale(1,1)"><g><path fill="none" stroke="none"/><text fill="#000000" stroke="none" font-family="Arial" font-size="13px" font-style="normal" font-weight="bold" text-decoration="none" x="301" y="25.5">sd</text></g></g><g transform="translate(-286,2) scale(1,1)"><rect fill="#C0C0C0" stroke="none" x="367" y="47" width="71.736328125" height="39" opacity="0.2"/></g><g transform="translate(-286,2) scale(1,1)"><rect fill="#ffffff" stroke="none" x="360" y="40" width="71.736328125" height="39"/></g><g transform="translate(-286,2) scale(1,1)"><path fill="none" stroke="#000000" d="M 360 40 L 431.736328125 40 L 431.736328125 79 L 360 79 L 360 40 Z Z" stroke-miterlimit="10"/></g><g transform="translate(-286,2) scale(1,1)"><g><path fill="none" stroke="none"/><text fill="#000000" stroke="none" font-family="Arial" font-size="13px" font-style="normal" font-weight="bold" text-decoration="none" x="383.944091796875" y="59.5">web</text></g></g><g transform="translate(-286,2) scale(1,1)"><path fill="none" stroke="#000000" d="M 396.5 80 L 396.5 464" stroke-miterlimit="10" stroke-dasharray="3"/></g><g transform="translate(-286,2) scale(1,1)"><rect fill="#C0C0C0" stroke="none" x="535" y="47" width="71.736328125" height="39" opacity="0.2"/></g><g transform="translate(-286,2) scale(1,1)"><rect fill="#ffffff" stroke="none" x="528" y="40" width="71.736328125" height="39"/></g><g transform="translate(-286,2) scale(1,1)"><path fill="none" stroke="#000000" d="M 528 40 L 599.736328125 40 L 599.736328125 79 L 528 79 L 528 40 Z Z" stroke-miterlimit="10"/></g><g transform="translate(-286,2) scale(1,1)"><g><path fill="none" stroke="none"/><text fill="#000000" stroke="none" font-family="Arial" font-size="13px" font-style="normal" font-weight="bold" text-decoration="none" x="547.964111328125" y="59.5">Login</text></g></g><g transform="translate(-286,2) scale(1,1)"><path fill="none" stroke="#000000" d="M 564.5 80 L 564.5 448" stroke-miterlimit="10" stroke-dasharray="3"/></g><g transform="translate(-286,2) scale(1,1)"><rect fill="#C0C0C0" stroke="none" x="703" y="47" width="71.736328125" height="39" opacity="0.2"/></g><g transform="translate(-286,2) scale(1,1)"><rect fill="#ffffff" stroke="none" x="696" y="40" width="71.736328125" height="39"/></g><g transform="translate(-286,2) scale(1,1)"><path fill="none" stroke="#000000" d="M 696 40 L 767.736328125 40 L 767.736328125 79 L 696 79 L 696 40 Z Z" stroke-miterlimit="10"/></g><g transform="translate(-286,2) scale(1,1)"><g><path fill="none" stroke="none"/><text fill="#000000" stroke="none" font-family="Arial" font-size="13px" font-style="normal" font-weight="bold" text-decoration="none" x="718.14453125" y="59.5">User</text></g></g><g transform="translate(-286,2) scale(1,1)"><path fill="none" stroke="#000000" d="M 732.5 80 L 732.5 456" stroke-miterlimit="10" stroke-dasharray="3"/></g><g transform="translate(-286,2) scale(1,1)"><path fill="none" stroke="#000000" d="M 396 120 L 426 120 L 426 140 L 402 140" stroke-miterlimit="10"/></g><g transform="translate(-286,2) scale(1,1)"><path fill="#000000" stroke="none" d="M 412.16267485762415 135.790482243984 L 402 140 L 412.16267485762415 144.209517756016"/></g><g transform="translate(-286,2) scale(1,1)"><path fill="none" stroke="#000000" d="M 412.16267485762415 135.790482243984 L 402 140 L 412.16267485762415 144.209517756016 L 412.16267485762415 135.790482243984" stroke-miterlimit="10"/></g><g transform="translate(-286,2) scale(1,1)"><g><path fill="none" stroke="none"/><text fill="#000000" stroke="none" font-family="Arial" font-size="13px" font-style="normal" font-weight="normal" text-decoration="none" x="432.608642578125" y="116.5">1 : Logout</text></g></g><g transform="translate(-286,2) scale(1,1)"><rect fill="#ffffff" stroke="none" x="389" y="140" width="13" height="175"/></g><g transform="translate(-286,2) scale(1,1)"><path fill="none" stroke="#000000" d="M 389 140 L 402 140 L 402 315 L 389 315 L 389 140 Z Z" stroke-miterlimit="10"/></g><g transform="translate(-286,2) scale(1,1)"><path fill="none" stroke="#000000" d="M 402 149 L 557 149" stroke-miterlimit="10"/></g><g transform="translate(-286,2) scale(1,1)"><path fill="none" stroke="#000000" d="M 546.8373251423759 153.209517756016 L 557 149 L 546.8373251423758 144.790482243984" stroke-miterlimit="10"/></g><g transform="translate(-286,2) scale(1,1)"><g><path fill="none" stroke="none"/><text fill="#000000" stroke="none" font-family="Arial" font-size="13px" font-style="normal" font-weight="normal" text-decoration="none" x="440.2763671875" y="144.5">2 : getState</text></g></g><g transform="translate(-286,2) scale(1,1)"><rect fill="#ffffff" stroke="none" x="557" y="149" width="13" height="115"/></g><g transform="translate(-286,2) scale(1,1)"><path fill="none" stroke="#000000" d="M 557 149 L 570 149 L 570 264 L 557 264 L 557 149 Z Z" stroke-miterlimit="10"/></g><g transform="translate(-286,2) scale(1,1)"><path fill="none" stroke="#000000" d="M 570 161 L 725 161" stroke-miterlimit="10"/></g><g transform="translate(-286,2) scale(1,1)"><path fill="none" stroke="#000000" d="M 714.8373251423759 165.209517756016 L 725 161 L 714.8373251423758 156.790482243984" stroke-miterlimit="10"/></g><g transform="translate(-286,2) scale(1,1)"><g><path fill="none" stroke="none"/><text fill="#000000" stroke="none" font-family="Arial" font-size="13px" font-style="normal" font-weight="normal" text-decoration="none" x="614.72998046875" y="157.5">3 : getUser</text></g></g><g transform="translate(-286,2) scale(1,1)"><rect fill="#ffffff" stroke="none" x="725" y="161" width="13" height="28"/></g><g transform="translate(-286,2) scale(1,1)"><path fill="none" stroke="#000000" d="M 725 161 L 738 161 L 738 189 L 725 189 L 725 161 Z Z" stroke-miterlimit="10"/></g><g transform="translate(-286,2) scale(1,1)"><path fill="none" stroke="#000000" d="M 725 184 L 570 184" stroke-miterlimit="10" stroke-dasharray="3"/></g><g transform="translate(-286,2) scale(1,1)"><path fill="none" stroke="#000000" d="M 580.1626748576241 179.790482243984 L 570 184 L 580.1626748576241 188.209517756016" stroke-miterlimit="10"/></g><g transform="translate(-286,2) scale(1,1)"><g><path fill="none" stroke="none"/><text fill="#000000" stroke="none" font-family="Arial" font-size="13px" font-style="normal" font-weight="normal" text-decoration="none" x="602.5" y="200.5">4 : return value</text></g></g><g transform="translate(-286,2) scale(1,1)"><path fill="none" stroke="#000000" d="M 570 208 L 600 208 L 600 228 L 577 228" stroke-miterlimit="10"/></g><g transform="translate(-286,2) scale(1,1)"><path fill="#000000" stroke="none" d="M 587.1626748576241 223.790482243984 L 577 228 L 587.1626748576241 232.209517756016"/></g><g transform="translate(-286,2) scale(1,1)"><path fill="none" stroke="#000000" d="M 587.1626748576241 223.790482243984 L 577 228 L 587.1626748576241 232.209517756016 L 587.1626748576241 223.790482243984" stroke-miterlimit="10"/></g><g transform="translate(-286,2) scale(1,1)"><g><path fill="none" stroke="none"/><text fill="#000000" stroke="none" font-family="Arial" font-size="13px" font-style="normal" font-weight="normal" text-decoration="none" x="590.5" y="244.5">5 : Delete Token</text></g></g><g transform="translate(-286,2) scale(1,1)"><rect fill="#ffffff" stroke="none" x="564" y="228" width="13" height="28"/></g><g transform="translate(-286,2) scale(1,1)"><path fill="none" stroke="#000000" d="M 564 228 L 577 228 L 577 256 L 564 256 L 564 228 Z Z" stroke-miterlimit="10"/></g><g transform="translate(-286,2) scale(1,1)"><path fill="none" stroke="#000000" d="M 557 256 L 402 256" stroke-miterlimit="10" stroke-dasharray="3"/></g><g transform="translate(-286,2) scale(1,1)"><path fill="none" stroke="#000000" d="M 412.16267485762415 251.790482243984 L 402 256 L 412.16267485762415 260.209517756016" stroke-miterlimit="10"/></g><g transform="translate(-286,2) scale(1,1)"><g><path fill="none" stroke="none"/><text fill="#000000" stroke="none" font-family="Arial" font-size="13px" font-style="normal" font-weight="normal" text-decoration="none" x="434.5" y="272.5">6 : return value</text></g></g><g transform="translate(-286,2) scale(1,1)"><path fill="none" stroke="#000000" d="M 402 264 L 432 264 L 432 284 L 409 284" stroke-miterlimit="10"/></g><g transform="translate(-286,2) scale(1,1)"><path fill="#000000" stroke="none" d="M 419.16267485762415 279.790482243984 L 409 284 L 419.16267485762415 288.209517756016"/></g><g transform="translate(-286,2) scale(1,1)"><path fill="none" stroke="#000000" d="M 419.16267485762415 279.790482243984 L 409 284 L 419.16267485762415 288.209517756016 L 419.16267485762415 279.790482243984" stroke-miterlimit="10"/></g><g transform="translate(-286,2) scale(1,1)"><g><path fill="none" stroke="none"/><text fill="#000000" stroke="none" font-family="Arial" font-size="13px" font-style="normal" font-weight="normal" text-decoration="none" x="414.5" y="300.5">7 : Clear Localstorage</text></g></g><g transform="translate(-286,2) scale(1,1)"><rect fill="#ffffff" stroke="none" x="396" y="284" width="13" height="28"/></g><g transform="translate(-286,2) scale(1,1)"><path fill="none" stroke="#000000" d="M 396 284 L 409 284 L 409 312 L 396 312 L 396 284 Z Z" stroke-miterlimit="10"/></g></g></svg>