<svg version="1.1" xmlns="http://www.w3.org/2000/svg" xmlns:xlink="http://www.w3.org/1999/xlink" width="630.91357421875" height="693"><defs/><g><text fill="#eeeeee" stroke="none" font-family="Arial" font-size="24px" font-style="normal" font-weight="normal" text-decoration="none" x="0" y="0">UNREGISTERED</text><text fill="#eeeeee" stroke="none" font-family="Arial" font-size="24px" font-style="normal" font-weight="normal" text-decoration="none" x="0" y="30">UNREGISTERED</text><text fill="#eeeeee" stroke="none" font-family="Arial" font-size="24px" font-style="normal" font-weight="normal" text-decoration="none" x="0" y="60">UNREGISTERED</text><text fill="#eeeeee" stroke="none" font-family="Arial" font-size="24px" font-style="normal" font-weight="normal" text-decoration="none" x="0" y="90">UNREGISTERED</text><text fill="#eeeeee" stroke="none" font-family="Arial" font-size="24px" font-style="normal" font-weight="normal" text-decoration="none" x="0" y="120">UNREGISTERED</text><text fill="#eeeeee" stroke="none" font-family="Arial" font-size="24px" font-style="normal" font-weight="normal" text-decoration="none" x="0" y="150">UNREGISTERED</text><text fill="#eeeeee" stroke="none" font-family="Arial" font-size="24px" font-style="normal" font-weight="normal" text-decoration="none" x="0" y="180">UNREGISTERED</text><text fill="#eeeeee" stroke="none" font-family="Arial" font-size="24px" font-style="normal" font-weight="normal" text-decoration="none" x="0" y="210">UNREGISTERED</text><text fill="#eeeeee" stroke="none" font-family="Arial" font-size="24px" font-style="normal" font-weight="normal" text-decoration="none" x="0" y="240">UNREGISTERED</text><text fill="#eeeeee" stroke="none" font-family="Arial" font-size="24px" font-style="normal" font-weight="normal" text-decoration="none" x="0" y="270">UNREGISTERED</text><text fill="#eeeeee" stroke="none" font-family="Arial" font-size="24px" font-style="normal" font-weight="normal" text-decoration="none" x="0" y="300">UNREGISTERED</text><text fill="#eeeeee" stroke="none" font-family="Arial" font-size="24px" font-style="normal" font-weight="normal" text-decoration="none" x="0" y="330">UNREGISTERED</text><text fill="#eeeeee" stroke="none" font-family="Arial" font-size="24px" font-style="normal" font-weight="normal" text-decoration="none" x="0" y="360">UNREGISTERED</text><text fill="#eeeeee" stroke="none" font-family="Arial" font-size="24px" font-style="normal" font-weight="normal" text-decoration="none" x="0" y="390">UNREGISTERED</text><text fill="#eeeeee" stroke="none" font-family="Arial" font-size="24px" font-style="normal" font-weight="normal" text-decoration="none" x="0" y="420">UNREGISTERED</text><text fill="#eeeeee" stroke="none" font-family="Arial" font-size="24px" font-style="normal" font-weight="normal" text-decoration="none" x="0" y="450">UNREGISTERED</text><text fill="#eeeeee" stroke="none" font-family="Arial" font-size="24px" font-style="normal" font-weight="normal" text-decoration="none" x="0" y="480">UNREGISTERED</text><text fill="#eeeeee" stroke="none" font-family="Arial" font-size="24px" font-style="normal" font-weight="normal" text-decoration="none" x="0" y="510">UNREGISTERED</text><text fill="#eeeeee" stroke="none" font-family="Arial" font-size="24px" font-style="normal" font-weight="normal" text-decoration="none" x="0" y="540">UNREGISTERED</text><text fill="#eeeeee" stroke="none" font-family="Arial" font-size="24px" font-style="normal" font-weight="normal" text-decoration="none" x="0" y="570">UNREGISTERED</text><text fill="#eeeeee" stroke="none" font-family="Arial" font-size="24px" font-style="normal" font-weight="normal" text-decoration="none" x="0" y="600">UNREGISTERED</text><text fill="#eeeeee" stroke="none" font-family="Arial" font-size="24px" font-style="normal" font-weight="normal" text-decoration="none" x="0" y="630">UNREGISTERED</text><text fill="#eeeeee" stroke="none" font-family="Arial" font-size="24px" font-style="normal" font-weight="normal" text-decoration="none" x="0" y="660">UNREGISTERED</text><text fill="#eeeeee" stroke="none" font-family="Arial" font-size="24px" font-style="normal" font-weight="normal" text-decoration="none" x="0" y="690">UNREGISTERED</text><text fill="#eeeeee" stroke="none" font-family="Arial" font-size="24px" font-style="normal" font-weight="normal" text-decoration="none" x="200" y="0">UNREGISTERED</text><text fill="#eeeeee" stroke="none" font-family="Arial" font-size="24px" font-style="normal" font-weight="normal" text-decoration="none" x="200" y="30">UNREGISTERED</text><text fill="#eeeeee" stroke="none" font-family="Arial" font-size="24px" font-style="normal" font-weight="normal" text-decoration="none" x="200" y="60">UNREGISTERED</text><text fill="#eeeeee" stroke="none" font-family="Arial" font-size="24px" font-style="normal" font-weight="normal" text-decoration="none" x="200" y="90">UNREGISTERED</text><text fill="#eeeeee" stroke="none" font-family="Arial" font-size="24px" font-style="normal" font-weight="normal" text-decoration="none" x="200" y="120">UNREGISTERED</text><text fill="#eeeeee" stroke="none" font-family="Arial" font-size="24px" font-style="normal" font-weight="normal" text-decoration="none" x="200" y="150">UNREGISTERED</text><text fill="#eeeeee" stroke="none" font-family="Arial" font-size="24px" font-style="normal" font-weight="normal" text-decoration="none" x="200" y="180">UNREGISTERED</text><text fill="#eeeeee" stroke="none" font-family="Arial" font-size="24px" font-style="normal" font-weight="normal" text-decoration="none" x="200" y="210">UNREGISTERED</text><text fill="#eeeeee" stroke="none" font-family="Arial" font-size="24px" font-style="normal" font-weight="normal" text-decoration="none" x="200" y="240">UNREGISTERED</text><text fill="#eeeeee" stroke="none" font-family="Arial" font-size="24px" font-style="normal" font-weight="normal" text-decoration="none" x="200" y="270">UNREGISTERED</text><text fill="#eeeeee" stroke="none" font-family="Arial" font-size="24px" font-style="normal" font-weight="normal" text-decoration="none" x="200" y="300">UNREGISTERED</text><text fill="#eeeeee" stroke="none" font-family="Arial" font-size="24px" font-style="normal" font-weight="normal" text-decoration="none" x="200" y="330">UNREGISTERED</text><text fill="#eeeeee" stroke="none" font-family="Arial" font-size="24px" font-style="normal" font-weight="normal" text-decoration="none" x="200" y="360">UNREGISTERED</text><text fill="#eeeeee" stroke="none" font-family="Arial" font-size="24px" font-style="normal" font-weight="normal" text-decoration="none" x="200" y="390">UNREGISTERED</text><text fill="#eeeeee" stroke="none" font-family="Arial" font-size="24px" font-style="normal" font-weight="normal" text-decoration="none" x="200" y="420">UNREGISTERED</text><text fill="#eeeeee" stroke="none" font-family="Arial" font-size="24px" font-style="normal" font-weight="normal" text-decoration="none" x="200" y="450">UNREGISTERED</text><text fill="#eeeeee" stroke="none" font-family="Arial" font-size="24px" font-style="normal" font-weight="normal" text-decoration="none" x="200" y="480">UNREGISTERED</text><text fill="#eeeeee" stroke="none" font-family="Arial" font-size="24px" font-style="normal" font-weight="normal" text-decoration="none" x="200" y="510">UNREGISTERED</text><text fill="#eeeeee" stroke="none" font-family="Arial" font-size="24px" font-style="normal" font-weight="normal" text-decoration="none" x="200" y="540">UNREGISTERED</text><text fill="#eeeeee" stroke="none" font-family="Arial" font-size="24px" font-style="normal" font-weight="normal" text-decoration="none" x="200" y="570">UNREGISTERED</text><text fill="#eeeeee" stroke="none" font-family="Arial" font-size="24px" font-style="normal" font-weight="normal" text-decoration="none" x="200" y="600">UNREGISTERED</text><text fill="#eeeeee" stroke="none" font-family="Arial" font-size="24px" font-style="normal" font-weight="normal" text-decoration="none" x="200" y="630">UNREGISTERED</text><text fill="#eeeeee" stroke="none" font-family="Arial" font-size="24px" font-style="normal" font-weight="normal" text-decoration="none" x="200" y="660">UNREGISTERED</text><text fill="#eeeeee" stroke="none" font-family="Arial" font-size="24px" font-style="normal" font-weight="normal" text-decoration="none" x="200" y="690">UNREGISTERED</text><text fill="#eeeeee" stroke="none" font-family="Arial" font-size="24px" font-style="normal" font-weight="normal" text-decoration="none" x="400" y="0">UNREGISTERED</text><text fill="#eeeeee" stroke="none" font-family="Arial" font-size="24px" font-style="normal" font-weight="normal" text-decoration="none" x="400" y="30">UNREGISTERED</text><text fill="#eeeeee" stroke="none" font-family="Arial" font-size="24px" font-style="normal" font-weight="normal" text-decoration="none" x="400" y="60">UNREGISTERED</text><text fill="#eeeeee" stroke="none" font-family="Arial" font-size="24px" font-style="normal" font-weight="normal" text-decoration="none" x="400" y="90">UNREGISTERED</text><text fill="#eeeeee" stroke="none" font-family="Arial" font-size="24px" font-style="normal" font-weight="normal" text-decoration="none" x="400" y="120">UNREGISTERED</text><text fill="#eeeeee" stroke="none" font-family="Arial" font-size="24px" font-style="normal" font-weight="normal" text-decoration="none" x="400" y="150">UNREGISTERED</text><text fill="#eeeeee" stroke="none" font-family="Arial" font-size="24px" font-style="normal" font-weight="normal" text-decoration="none" x="400" y="180">UNREGISTERED</text><text fill="#eeeeee" stroke="none" font-family="Arial" font-size="24px" font-style="normal" font-weight="normal" text-decoration="none" x="400" y="210">UNREGISTERED</text><text fill="#eeeeee" stroke="none" font-family="Arial" font-size="24px" font-style="normal" font-weight="normal" text-decoration="none" x="400" y="240">UNREGISTERED</text><text fill="#eeeeee" stroke="none" font-family="Arial" font-size="24px" font-style="normal" font-weight="normal" text-decoration="none" x="400" y="270">UNREGISTERED</text><text fill="#eeeeee" stroke="none" font-family="Arial" font-size="24px" font-style="normal" font-weight="normal" text-decoration="none" x="400" y="300">UNREGISTERED</text><text fill="#eeeeee" stroke="none" font-family="Arial" font-size="24px" font-style="normal" font-weight="normal" text-decoration="none" x="400" y="330">UNREGISTERED</text><text fill="#eeeeee" stroke="none" font-family="Arial" font-size="24px" font-style="normal" font-weight="normal" text-decoration="none" x="400" y="360">UNREGISTERED</text><text fill="#eeeeee" stroke="none" font-family="Arial" font-size="24px" font-style="normal" font-weight="normal" text-decoration="none" x="400" y="390">UNREGISTERED</text><text fill="#eeeeee" stroke="none" font-family="Arial" font-size="24px" font-style="normal" font-weight="normal" text-decoration="none" x="400" y="420">UNREGISTERED</text><text fill="#eeeeee" stroke="none" font-family="Arial" font-size="24px" font-style="normal" font-weight="normal" text-decoration="none" x="400" y="450">UNREGISTERED</text><text fill="#eeeeee" stroke="none" font-family="Arial" font-size="24px" font-style="normal" font-weight="normal" text-decoration="none" x="400" y="480">UNREGISTERED</text><text fill="#eeeeee" stroke="none" font-family="Arial" font-size="24px" font-style="normal" font-weight="normal" text-decoration="none" x="400" y="510">UNREGISTERED</text><text fill="#eeeeee" stroke="none" font-family="Arial" font-size="24px" font-style="normal" font-weight="normal" text-decoration="none" x="400" y="540">UNREGISTERED</text><text fill="#eeeeee" stroke="none" font-family="Arial" font-size="24px" font-style="normal" font-weight="normal" text-decoration="none" x="400" y="570">UNREGISTERED</text><text fill="#eeeeee" stroke="none" font-family="Arial" font-size="24px" font-style="normal" font-weight="normal" text-decoration="none" x="400" y="600">UNREGISTERED</text><text fill="#eeeeee" stroke="none" font-family="Arial" font-size="24px" font-style="normal" font-weight="normal" text-decoration="none" x="400" y="630">UNREGISTERED</text><text fill="#eeeeee" stroke="none" font-family="Arial" font-size="24px" font-style="normal" font-weight="normal" text-decoration="none" x="400" y="660">UNREGISTERED</text><text fill="#eeeeee" stroke="none" font-family="Arial" font-size="24px" font-style="normal" font-weight="normal" text-decoration="none" x="400" y="690">UNREGISTERED</text><text fill="#eeeeee" stroke="none" font-family="Arial" font-size="24px" font-style="normal" font-weight="normal" text-decoration="none" x="600" y="0">UNREGISTERED</text><text fill="#eeeeee" stroke="none" font-family="Arial" font-size="24px" font-style="normal" font-weight="normal" text-decoration="none" x="600" y="30">UNREGISTERED</text><text fill="#eeeeee" stroke="none" font-family="Arial" font-size="24px" font-style="normal" font-weight="normal" text-decoration="none" x="600" y="60">UNREGISTERED</text><text fill="#eeeeee" stroke="none" font-family="Arial" font-size="24px" font-style="normal" font-weight="normal" text-decoration="none" x="600" y="90">UNREGISTERED</text><text fill="#eeeeee" stroke="none" font-family="Arial" font-size="24px" font-style="normal" font-weight="normal" text-decoration="none" x="600" y="120">UNREGISTERED</text><text fill="#eeeeee" stroke="none" font-family="Arial" font-size="24px" font-style="normal" font-weight="normal" text-decoration="none" x="600" y="150">UNREGISTERED</text><text fill="#eeeeee" stroke="none" font-family="Arial" font-size="24px" font-style="normal" font-weight="normal" text-decoration="none" x="600" y="180">UNREGISTERED</text><text fill="#eeeeee" stroke="none" font-family="Arial" font-size="24px" font-style="normal" font-weight="normal" text-decoration="none" x="600" y="210">UNREGISTERED</text><text fill="#eeeeee" stroke="none" font-family="Arial" font-size="24px" font-style="normal" font-weight="normal" text-decoration="none" x="600" y="240">UNREGISTERED</text><text fill="#eeeeee" stroke="none" font-family="Arial" font-size="24px" font-style="normal" font-weight="normal" text-decoration="none" x="600" y="270">UNREGISTERED</text><text fill="#eeeeee" stroke="none" font-family="Arial" font-size="24px" font-style="normal" font-weight="normal" text-decoration="none" x="600" y="300">UNREGISTERED</text><text fill="#eeeeee" stroke="none" font-family="Arial" font-size="24px" font-style="normal" font-weight="normal" text-decoration="none" x="600" y="330">UNREGISTERED</text><text fill="#eeeeee" stroke="none" font-family="Arial" font-size="24px" font-style="normal" font-weight="normal" text-decoration="none" x="600" y="360">UNREGISTERED</text><text fill="#eeeeee" stroke="none" font-family="Arial" font-size="24px" font-style="normal" font-weight="normal" text-decoration="none" x="600" y="390">UNREGISTERED</text><text fill="#eeeeee" stroke="none" font-family="Arial" font-size="24px" font-style="normal" font-weight="normal" text-decoration="none" x="600" y="420">UNREGISTERED</text><text fill="#eeeeee" stroke="none" font-family="Arial" font-size="24px" font-style="normal" font-weight="normal" text-decoration="none" x="600" y="450">UNREGISTERED</text><text fill="#eeeeee" stroke="none" font-family="Arial" font-size="24px" font-style="normal" font-weight="normal" text-decoration="none" x="600" y="480">UNREGISTERED</text><text fill="#eeeeee" stroke="none" font-family="Arial" font-size="24px" font-style="normal" font-weight="normal" text-decoration="none" x="600" y="510">UNREGISTERED</text><text fill="#eeeeee" stroke="none" font-family="Arial" font-size="24px" font-style="normal" font-weight="normal" text-decoration="none" x="600" y="540">UNREGISTERED</text><text fill="#eeeeee" stroke="none" font-family="Arial" font-size="24px" font-style="normal" font-weight="normal" text-decoration="none" x="600" y="570">UNREGISTERED</text><text fill="#eeeeee" stroke="none" font-family="Arial" font-size="24px" font-style="normal" font-weight="normal" text-decoration="none" x="600" y="600">UNREGISTERED</text><text fill="#eeeeee" stroke="none" font-family="Arial" font-size="24px" font-style="normal" font-weight="normal" text-decoration="none" x="600" y="630">UNREGISTERED</text><text fill="#eeeeee" stroke="none" font-family="Arial" font-size="24px" font-style="normal" font-weight="normal" text-decoration="none" x="600" y="660">UNREGISTERED</text><text fill="#eeeeee" stroke="none" font-family="Arial" font-size="24px" font-style="normal" font-weight="normal" text-decoration="none" x="600" y="690">UNREGISTERED</text><g transform="translate(-414,-46) scale(1,1)"><path fill="#C0C0C0" stroke="none" d="M 650 119 L 713 119 Q 716 119 716 122 L 716 121 Q 716 124 713 124 L 650 124 Q 647 124 647 121 L 647 122 Q 647 119 650 119 Z" opacity="0.2"/></g><g transform="translate(-414,-46) scale(1,1)"><path fill="#000000" stroke="none" d="M 643 112 L 706 112 Q 709 112 709 115 L 709 115 Q 709 118 706 118 L 643 118 Q 640 118 640 115 L 640 115 Q 640 112 643 112 Z"/></g><g transform="translate(-414,-46) scale(1,1)"><path fill="#C0C0C0" stroke="none" d="M 671 72.5 C 671 67.2532944 675.2532944 63 680.5 63 C 685.7467056 63 690 67.2532944 690 72.5 C 690 77.7467056 685.7467056 82 680.5 82 C 675.2532944 82 671 77.7467056 671 72.5 Z" opacity="0.2"/></g><g transform="translate(-414,-46) scale(1,1)"><path fill="#000000" stroke="none" d="M 664 65.5 C 664 60.2532944 668.2532944 56 673.5 56 C 678.7467056 56 683 60.2532944 683 65.5 C 683 70.7467056 678.7467056 75 673.5 75 C 668.2532944 75 664 70.7467056 664 65.5 Z"/></g><g transform="translate(-414,-46) scale(1,1)"><path fill="none" stroke="#000000" d="M 673 76 L 674 111" stroke-miterlimit="10"/></g><g transform="translate(-414,-46) scale(1,1)"><path fill="none" stroke="#000000" d="M 669.5019556671291 100.96169351038095 L 674 111 L 677.9175569405878 100.7212477597107" stroke-miterlimit="10"/></g><g transform="translate(-414,-46) scale(1,1)"><path fill="#C0C0C0" stroke="none" d="M 497 183 L 592.18359375 183 Q 602.18359375 183 602.18359375 193 L 602.18359375 213 Q 602.18359375 223 592.18359375 223 L 497 223 Q 487 223 487 213 L 487 193 Q 487 183 497 183 Z" opacity="0.2"/></g><g transform="translate(-414,-46) scale(1,1)"><path fill="#ffffff" stroke="none" d="M 490 176 L 585.18359375 176 Q 595.18359375 176 595.18359375 186 L 595.18359375 206 Q 595.18359375 216 585.18359375 216 L 490 216 Q 480 216 480 206 L 480 186 Q 480 176 490 176 Z"/></g><g transform="translate(-414,-46) scale(1,1)"><path fill="none" stroke="#000000" d="M 490 176 L 585.18359375 176 Q 595.18359375 176 595.18359375 186 L 595.18359375 206 Q 595.18359375 216 585.18359375 216 L 490 216 Q 480 216 480 206 L 480 186 Q 480 176 490 176 Z" stroke-miterlimit="10"/></g><g transform="translate(-414,-46) scale(1,1)"><g><path fill="none" stroke="none"/><text fill="#000000" stroke="none" font-family="Arial" font-size="13px" font-style="normal" font-weight="bold" text-decoration="none" x="489.171875" y="195.5">get all inspection</text></g></g><g transform="translate(-414,-46) scale(1,1)"><path fill="#C0C0C0" stroke="none" d="M 761 183 L 854.01904296875 183 Q 864.01904296875 183 864.01904296875 193 L 864.01904296875 213 Q 864.01904296875 223 854.01904296875 223 L 761 223 Q 751 223 751 213 L 751 193 Q 751 183 761 183 Z" opacity="0.2"/></g><g transform="translate(-414,-46) scale(1,1)"><path fill="#ffffff" stroke="none" d="M 754 176 L 847.01904296875 176 Q 857.01904296875 176 857.01904296875 186 L 857.01904296875 206 Q 857.01904296875 216 847.01904296875 216 L 754 216 Q 744 216 744 206 L 744 186 Q 744 176 754 176 Z"/></g><g transform="translate(-414,-46) scale(1,1)"><path fill="none" stroke="#000000" d="M 754 176 L 847.01904296875 176 Q 857.01904296875 176 857.01904296875 186 L 857.01904296875 206 Q 857.01904296875 216 847.01904296875 216 L 754 216 Q 744 216 744 206 L 744 186 Q 744 176 754 176 Z" stroke-miterlimit="10"/></g><g transform="translate(-414,-46) scale(1,1)"><g><path fill="none" stroke="none"/><text fill="#000000" stroke="none" font-family="Arial" font-size="13px" font-style="normal" font-weight="bold" text-decoration="none" x="752.819580078125" y="195.5">Order inspection</text></g></g><g transform="translate(-414,-46) scale(1,1)"><path fill="none" stroke="#000000" d="M 680 118 L 768 175" stroke-miterlimit="10"/></g><g transform="translate(-414,-46) scale(1,1)"><path fill="none" stroke="#000000" d="M 757.1818325701256 173.00820345938538 L 768 175 L 761.7588132909368 165.94198760971187" stroke-miterlimit="10"/></g><g transform="translate(-414,-46) scale(1,1)"><path fill="none" stroke="#000000" d="M 667 118 L 572 175" stroke-miterlimit="10"/></g><g transform="translate(-414,-46) scale(1,1)"><path fill="none" stroke="#000000" d="M 578.5486427788625 166.16171522551727 L 572 175 L 582.8802008145965 173.38097861840737" stroke-miterlimit="10"/></g><g transform="translate(-414,-46) scale(1,1)"><path fill="#C0C0C0" stroke="none" d="M 753 279 L 859.76806640625 279 Q 869.76806640625 279 869.76806640625 289 L 869.76806640625 309 Q 869.76806640625 319 859.76806640625 319 L 753 319 Q 743 319 743 309 L 743 289 Q 743 279 753 279 Z" opacity="0.2"/></g><g transform="translate(-414,-46) scale(1,1)"><path fill="#ffffff" stroke="none" d="M 746 272 L 852.76806640625 272 Q 862.76806640625 272 862.76806640625 282 L 862.76806640625 302 Q 862.76806640625 312 852.76806640625 312 L 746 312 Q 736 312 736 302 L 736 282 Q 736 272 746 272 Z"/></g><g transform="translate(-414,-46) scale(1,1)"><path fill="none" stroke="#000000" d="M 746 272 L 852.76806640625 272 Q 862.76806640625 272 862.76806640625 282 L 862.76806640625 302 Q 862.76806640625 312 852.76806640625 312 L 746 312 Q 736 312 736 302 L 736 282 Q 736 272 746 272 Z" stroke-miterlimit="10"/></g><g transform="translate(-414,-46) scale(1,1)"><g><path fill="none" stroke="none"/><text fill="#000000" stroke="none" font-family="Arial" font-size="13px" font-style="normal" font-weight="bold" text-decoration="none" x="745.549560546875" y="291.5">recheck inspection</text></g></g><g transform="translate(-414,-46) scale(1,1)"><path fill="none" stroke="#000000" d="M 800 216 L 800 272" stroke-miterlimit="10"/></g><g transform="translate(-414,-46) scale(1,1)"><path fill="none" stroke="#000000" d="M 795.790482243984 261.83732514237585 L 800 272 L 804.209517756016 261.83732514237585" stroke-miterlimit="10"/></g><g transform="translate(-414,-46) scale(1,1)"><path fill="#C0C0C0" stroke="none" d="M 937 279 L 980.90087890625 279 Q 990.90087890625 279 990.90087890625 289 L 990.90087890625 309 Q 990.90087890625 319 980.90087890625 319 L 937 319 Q 927 319 927 309 L 927 289 Q 927 279 937 279 Z" opacity="0.2"/></g><g transform="translate(-414,-46) scale(1,1)"><path fill="#ffffff" stroke="none" d="M 930 272 L 973.90087890625 272 Q 983.90087890625 272 983.90087890625 282 L 983.90087890625 302 Q 983.90087890625 312 973.90087890625 312 L 930 312 Q 920 312 920 302 L 920 282 Q 920 272 930 272 Z"/></g><g transform="translate(-414,-46) scale(1,1)"><path fill="none" stroke="#000000" d="M 930 272 L 973.90087890625 272 Q 983.90087890625 272 983.90087890625 282 L 983.90087890625 302 Q 983.90087890625 312 973.90087890625 312 L 930 312 Q 920 312 920 302 L 920 282 Q 920 272 930 272 Z" stroke-miterlimit="10"/></g><g transform="translate(-414,-46) scale(1,1)"><g><path fill="none" stroke="none"/><text fill="#000000" stroke="none" font-family="Arial" font-size="13px" font-style="normal" font-weight="bold" text-decoration="none" x="926.655029296875" y="291.5">standard</text></g></g><g transform="translate(-414,-46) scale(1,1)"><path fill="none" stroke="#000000" d="M 919 292 L 864 292" stroke-miterlimit="10"/></g><g transform="translate(-414,-46) scale(1,1)"><path fill="none" stroke="#000000" d="M 874.1626748576241 287.790482243984 L 864 292 L 874.1626748576241 296.209517756016" stroke-miterlimit="10"/></g><g transform="translate(-414,-46) scale(1,1)"><path fill="#C0C0C0" stroke="none" d="M 769 359 L 851.17724609375 359 Q 861.17724609375 359 861.17724609375 369 L 861.17724609375 389 Q 861.17724609375 399 851.17724609375 399 L 769 399 Q 759 399 759 389 L 759 369 Q 759 359 769 359 Z" opacity="0.2"/></g><g transform="translate(-414,-46) scale(1,1)"><path fill="#ffffff" stroke="none" d="M 762 352 L 844.17724609375 352 Q 854.17724609375 352 854.17724609375 362 L 854.17724609375 382 Q 854.17724609375 392 844.17724609375 392 L 762 392 Q 752 392 752 382 L 752 362 Q 752 352 762 352 Z"/></g><g transform="translate(-414,-46) scale(1,1)"><path fill="none" stroke="#000000" d="M 762 352 L 844.17724609375 352 Q 854.17724609375 352 854.17724609375 362 L 854.17724609375 382 Q 854.17724609375 392 844.17724609375 392 L 762 392 Q 752 392 752 382 L 752 362 Q 752 352 762 352 Z" stroke-miterlimit="10"/></g><g transform="translate(-414,-46) scale(1,1)"><g><path fill="none" stroke="none"/><text fill="#000000" stroke="none" font-family="Arial" font-size="13px" font-style="normal" font-weight="bold" text-decoration="none" x="759.359619140625" y="371.5">Choose engine</text></g></g><g transform="translate(-414,-46) scale(1,1)"><path fill="none" stroke="#000000" d="M 798 312 L 798 352" stroke-miterlimit="10"/></g><g transform="translate(-414,-46) scale(1,1)"><path fill="none" stroke="#000000" d="M 793.790482243984 341.83732514237585 L 798 352 L 802.209517756016 341.83732514237585" stroke-miterlimit="10"/></g><g transform="translate(-414,-46) scale(1,1)"><path fill="#C0C0C0" stroke="none" d="M 799 440.5 L 810.5 431 L 821 440.5 L 810.5 449 L 799 440.5" opacity="0.2"/></g><g transform="translate(-414,-46) scale(1,1)"><path fill="#ffffff" stroke="none" d="M 792 433 L 803 424 L 814 433 L 803 442 L 792 433"/></g><g transform="translate(-414,-46) scale(1,1)"><path fill="none" stroke="#000000" d="M 792 433 L 803 424 L 814 433 L 803 442 L 792 433 L 792 433" stroke-miterlimit="10"/></g><g transform="translate(-414,-46) scale(1,1)"><path fill="none" stroke="#000000" d="M 803 393 L 803 423" stroke-miterlimit="10"/></g><g transform="translate(-414,-46) scale(1,1)"><path fill="none" stroke="#000000" d="M 798.790482243984 412.83732514237585 L 803 423 L 807.209517756016 412.83732514237585" stroke-miterlimit="10"/></g><g transform="translate(-414,-46) scale(1,1)"><path fill="#C0C0C0" stroke="none" d="M 897 423 L 1031.91357421875 423 Q 1041.91357421875 423 1041.91357421875 433 L 1041.91357421875 453 Q 1041.91357421875 463 1031.91357421875 463 L 897 463 Q 887 463 887 453 L 887 433 Q 887 423 897 423 Z" opacity="0.2"/></g><g transform="translate(-414,-46) scale(1,1)"><path fill="#ffffff" stroke="none" d="M 890 416 L 1024.91357421875 416 Q 1034.91357421875 416 1034.91357421875 426 L 1034.91357421875 446 Q 1034.91357421875 456 1024.91357421875 456 L 890 456 Q 880 456 880 446 L 880 426 Q 880 416 890 416 Z"/></g><g transform="translate(-414,-46) scale(1,1)"><path fill="none" stroke="#000000" d="M 890 416 L 1024.91357421875 416 Q 1034.91357421875 416 1034.91357421875 426 L 1034.91357421875 446 Q 1034.91357421875 456 1024.91357421875 456 L 890 456 Q 880 456 880 446 L 880 426 Q 880 416 890 416 Z" stroke-miterlimit="10"/></g><g transform="translate(-414,-46) scale(1,1)"><g><path fill="none" stroke="none"/><text fill="#000000" stroke="none" font-family="Arial" font-size="13px" font-style="normal" font-weight="bold" text-decoration="none" x="889.879638671875" y="435.5">pull data standard used</text></g></g><g transform="translate(-414,-46) scale(1,1)"><path fill="none" stroke="#000000" d="M 815 433 L 879 434" stroke-miterlimit="10"/></g><g transform="translate(-414,-46) scale(1,1)"><path fill="none" stroke="#000000" d="M 868.7727997887746 438.050231578504 L 879 434 L 868.9043311635539 429.63222359262613" stroke-miterlimit="10"/></g><g transform="translate(-414,-46) scale(1,1)"><path fill="#C0C0C0" stroke="none" d="M 649 423 L 736.2490234375 423 Q 746.2490234375 423 746.2490234375 433 L 746.2490234375 453 Q 746.2490234375 463 736.2490234375 463 L 649 463 Q 639 463 639 453 L 639 433 Q 639 423 649 423 Z" opacity="0.2"/></g><g transform="translate(-414,-46) scale(1,1)"><path fill="#ffffff" stroke="none" d="M 642 416 L 729.2490234375 416 Q 739.2490234375 416 739.2490234375 426 L 739.2490234375 446 Q 739.2490234375 456 729.2490234375 456 L 642 456 Q 632 456 632 446 L 632 426 Q 632 416 642 416 Z"/></g><g transform="translate(-414,-46) scale(1,1)"><path fill="none" stroke="#000000" d="M 642 416 L 729.2490234375 416 Q 739.2490234375 416 739.2490234375 426 L 739.2490234375 446 Q 739.2490234375 456 729.2490234375 456 L 642 456 Q 632 456 632 446 L 632 426 Q 632 416 642 416 Z" stroke-miterlimit="10"/></g><g transform="translate(-414,-46) scale(1,1)"><g><path fill="none" stroke="none"/><text fill="#000000" stroke="none" font-family="Arial" font-size="13px" font-style="normal" font-weight="bold" text-decoration="none" x="639.73095703125" y="435.5">engine machine</text></g></g><g transform="translate(-414,-46) scale(1,1)"><path fill="none" stroke="#000000" d="M 791 433 L 740 435" stroke-miterlimit="10"/></g><g transform="translate(-414,-46) scale(1,1)"><path fill="none" stroke="#000000" d="M 749.9899170838505 430.39548518758045 L 740 435 L 750.3198217614179 438.80805446554626" stroke-miterlimit="10"/></g><g transform="translate(-414,-46) scale(1,1)"><path fill="#C0C0C0" stroke="none" d="M 641 495 L 744.841796875 495 Q 754.841796875 495 754.841796875 505 L 754.841796875 525 Q 754.841796875 535 744.841796875 535 L 641 535 Q 631 535 631 525 L 631 505 Q 631 495 641 495 Z" opacity="0.2"/></g><g transform="translate(-414,-46) scale(1,1)"><path fill="#ffffff" stroke="none" d="M 634 488 L 737.841796875 488 Q 747.841796875 488 747.841796875 498 L 747.841796875 518 Q 747.841796875 528 737.841796875 528 L 634 528 Q 624 528 624 518 L 624 498 Q 624 488 634 488 Z"/></g><g transform="translate(-414,-46) scale(1,1)"><path fill="none" stroke="#000000" d="M 634 488 L 737.841796875 488 Q 747.841796875 488 747.841796875 498 L 747.841796875 518 Q 747.841796875 528 737.841796875 528 L 634 528 Q 624 528 624 518 L 624 498 Q 624 488 634 488 Z" stroke-miterlimit="10"/></g><g transform="translate(-414,-46) scale(1,1)"><g><path fill="none" stroke="none"/><text fill="#000000" stroke="none" font-family="Arial" font-size="13px" font-style="normal" font-weight="bold" text-decoration="none" x="633.156005859375" y="507.5">engine connection</text></g></g><g transform="translate(-414,-46) scale(1,1)"><path fill="none" stroke="#000000" d="M 685 457 L 685 487" stroke-miterlimit="10"/></g><g transform="translate(-414,-46) scale(1,1)"><path fill="none" stroke="#000000" d="M 680.790482243984 476.83732514237585 L 685 487 L 689.209517756016 476.83732514237585" stroke-miterlimit="10"/></g><g transform="translate(-414,-46) scale(1,1)"><path fill="#C0C0C0" stroke="none" d="M 679 584.5 L 690.5 575 L 701 584.5 L 690.5 593 L 679 584.5" opacity="0.2"/></g><g transform="translate(-414,-46) scale(1,1)"><path fill="#ffffff" stroke="none" d="M 672 577 L 683 568 L 694 577 L 683 586 L 672 577"/></g><g transform="translate(-414,-46) scale(1,1)"><path fill="none" stroke="#000000" d="M 672 577 L 683 568 L 694 577 L 683 586 L 672 577 L 672 577" stroke-miterlimit="10"/></g><g transform="translate(-414,-46) scale(1,1)"><path fill="none" stroke="#000000" d="M 684 529 L 683 567" stroke-miterlimit="10"/></g><g transform="translate(-414,-46) scale(1,1)"><path fill="none" stroke="#000000" d="M 679.0592853332588 556.7301038021151 L 683 567 L 687.4754071800323 556.9515806928197" stroke-miterlimit="10"/></g><g transform="translate(-414,-46) scale(1,1)"><path fill="#C0C0C0" stroke="none" d="M 537 559 L 619.158203125 559 Q 629.158203125 559 629.158203125 569 L 629.158203125 589 Q 629.158203125 599 619.158203125 599 L 537 599 Q 527 599 527 589 L 527 569 Q 527 559 537 559 Z" opacity="0.2"/></g><g transform="translate(-414,-46) scale(1,1)"><path fill="#ffffff" stroke="none" d="M 530 552 L 612.158203125 552 Q 622.158203125 552 622.158203125 562 L 622.158203125 582 Q 622.158203125 592 612.158203125 592 L 530 592 Q 520 592 520 582 L 520 562 Q 520 552 530 552 Z"/></g><g transform="translate(-414,-46) scale(1,1)"><path fill="none" stroke="#000000" d="M 530 552 L 612.158203125 552 Q 622.158203125 552 622.158203125 562 L 622.158203125 582 Q 622.158203125 592 612.158203125 592 L 530 592 Q 520 592 520 582 L 520 562 Q 520 552 530 552 Z" stroke-miterlimit="10"/></g><g transform="translate(-414,-46) scale(1,1)"><g><path fill="none" stroke="none"/><text fill="#000000" stroke="none" font-family="Arial" font-size="13px" font-style="normal" font-weight="bold" text-decoration="none" x="528.79736328125" y="571.5">not connection</text></g></g><g transform="translate(-414,-46) scale(1,1)"><path fill="none" stroke="#000000" d="M 672 576 L 622 576" stroke-miterlimit="10"/></g><g transform="translate(-414,-46) scale(1,1)"><path fill="none" stroke="#000000" d="M 632.1626748576241 571.790482243984 L 622 576 L 632.1626748576241 580.209517756016" stroke-miterlimit="10"/></g><g transform="translate(-414,-46) scale(1,1)"><g><path fill="none" stroke="none"/><text fill="#000000" stroke="none" font-family="Arial" font-size="13px" font-style="normal" font-weight="normal" text-decoration="none" x="632.5" y="597.5">false</text></g></g><g transform="translate(-414,-46) scale(1,1)"><path fill="#C0C0C0" stroke="none" d="M 633 639 L 772.9853515625 639 Q 782.9853515625 639 782.9853515625 649 L 782.9853515625 669 Q 782.9853515625 679 772.9853515625 679 L 633 679 Q 623 679 623 669 L 623 649 Q 623 639 633 639 Z" opacity="0.2"/></g><g transform="translate(-414,-46) scale(1,1)"><path fill="#ffffff" stroke="none" d="M 626 632 L 765.9853515625 632 Q 775.9853515625 632 775.9853515625 642 L 775.9853515625 662 Q 775.9853515625 672 765.9853515625 672 L 626 672 Q 616 672 616 662 L 616 642 Q 616 632 626 632 Z"/></g><g transform="translate(-414,-46) scale(1,1)"><path fill="none" stroke="#000000" d="M 626 632 L 765.9853515625 632 Q 775.9853515625 632 775.9853515625 642 L 775.9853515625 662 Q 775.9853515625 672 765.9853515625 672 L 626 672 Q 616 672 616 662 L 616 642 Q 616 632 626 632 Z" stroke-miterlimit="10"/></g><g transform="translate(-414,-46) scale(1,1)"><g><path fill="none" stroke="none"/><text fill="#000000" stroke="none" font-family="Arial" font-size="13px" font-style="normal" font-weight="bold" text-decoration="none" x="625.16552734375" y="651.5">pull data and take image</text></g></g><g transform="translate(-414,-46) scale(1,1)"><path fill="none" stroke="#000000" d="M 682 586 L 682 632" stroke-miterlimit="10"/></g><g transform="translate(-414,-46) scale(1,1)"><path fill="none" stroke="#000000" d="M 677.790482243984 621.8373251423759 L 682 632 L 686.209517756016 621.8373251423759" stroke-miterlimit="10"/></g><g transform="translate(-414,-46) scale(1,1)"><g><path fill="none" stroke="none"/><text fill="#000000" stroke="none" font-family="Arial" font-size="13px" font-style="normal" font-weight="normal" text-decoration="none" x="684.5" y="614.5">true</text></g></g><g transform="translate(-414,-46) scale(1,1)"><path fill="none" stroke="#000000" d="M 568 552 L 568 448 M 568 448 A 8 8 0 0 1 576 440 L 632 440" stroke-miterlimit="10"/></g><g transform="translate(-414,-46) scale(1,1)"><path fill="none" stroke="#000000" d="M 621.8373251423759 444.209517756016 L 632 440 L 621.8373251423758 435.790482243984" stroke-miterlimit="10"/></g><g transform="translate(-414,-46) scale(1,1)"><g><path fill="none" stroke="none"/><text fill="#000000" stroke="none" font-family="Arial" font-size="13px" font-style="normal" font-weight="normal" text-decoration="none" x="527.5" y="500.5">MSG</text></g></g><g transform="translate(-414,-46) scale(1,1)"><path fill="#C0C0C0" stroke="none" d="M 833 639 L 933.22998046875 639 Q 943.22998046875 639 943.22998046875 649 L 943.22998046875 669 Q 943.22998046875 679 933.22998046875 679 L 833 679 Q 823 679 823 669 L 823 649 Q 823 639 833 639 Z" opacity="0.2"/></g><g transform="translate(-414,-46) scale(1,1)"><path fill="#ffffff" stroke="none" d="M 826 632 L 926.22998046875 632 Q 936.22998046875 632 936.22998046875 642 L 936.22998046875 662 Q 936.22998046875 672 926.22998046875 672 L 826 672 Q 816 672 816 662 L 816 642 Q 816 632 826 632 Z"/></g><g transform="translate(-414,-46) scale(1,1)"><path fill="none" stroke="#000000" d="M 826 632 L 926.22998046875 632 Q 936.22998046875 632 936.22998046875 642 L 936.22998046875 662 Q 936.22998046875 672 926.22998046875 672 L 826 672 Q 816 672 816 662 L 816 642 Q 816 632 826 632 Z" stroke-miterlimit="10"/></g><g transform="translate(-414,-46) scale(1,1)"><g><path fill="none" stroke="none"/><text fill="#000000" stroke="none" font-family="Arial" font-size="13px" font-style="normal" font-weight="bold" text-decoration="none" x="825.1591796875" y="651.5">update inspection</text></g></g><g transform="translate(-414,-46) scale(1,1)"><path fill="none" stroke="#000000" d="M 777 652 L 815 652" stroke-miterlimit="10"/></g><g transform="translate(-414,-46) scale(1,1)"><path fill="none" stroke="#000000" d="M 804.8373251423759 656.209517756016 L 815 652 L 804.8373251423758 647.790482243984" stroke-miterlimit="10"/></g><g transform="translate(-414,-46) scale(1,1)"><path fill="none" stroke="#000000" d="M 960 456 L 960 644 M 960 644 A 8 8 0 0 1 952 652 L 936 652" stroke-miterlimit="10"/></g><g transform="translate(-414,-46) scale(1,1)"><path fill="none" stroke="#000000" d="M 946.1626748576241 647.790482243984 L 936 652 L 946.1626748576241 656.209517756016" stroke-miterlimit="10"/></g><g transform="translate(-414,-46) scale(1,1)"><path fill="#C0C0C0" stroke="none" d="M 871 723.5 C 871 716.59644 876.59644 711 883.5 711 C 890.40356 711 896 716.59644 896 723.5 C 896 730.40356 890.40356 736 883.5 736 C 876.59644 736 871 730.40356 871 723.5 Z" opacity="0.2"/></g><g transform="translate(-414,-46) scale(1,1)"><path fill="#ffffff" stroke="none" d="M 864 716.5 C 864 709.59644 869.59644 704 876.5 704 C 883.40356 704 889 709.59644 889 716.5 C 889 723.40356 883.40356 729 876.5 729 C 869.59644 729 864 723.40356 864 716.5 Z"/></g><g transform="translate(-414,-46) scale(1,1)"><path fill="none" stroke="#000000" d="M 864 716.5 C 864 709.59644 869.59644 704 876.5 704 C 883.40356 704 889 709.59644 889 716.5 C 889 723.40356 883.40356 729 876.5 729 C 869.59644 729 864 723.40356 864 716.5 Z" stroke-miterlimit="10"/></g><g transform="translate(-414,-46) scale(1,1)"><path fill="none" stroke="#000000" d="M 867 707 L 885 725" stroke-miterlimit="10"/></g><g transform="translate(-414,-46) scale(1,1)"><path fill="none" stroke="#000000" d="M 885 707 L 867 725" stroke-miterlimit="10"/></g><g transform="translate(-414,-46) scale(1,1)"><path fill="none" stroke="#000000" d="M 876 673 L 876 703" stroke-miterlimit="10"/></g><g transform="translate(-414,-46) scale(1,1)"><path fill="none" stroke="#000000" d="M 871.790482243984 692.8373251423759 L 876 703 L 880.209517756016 692.8373251423759" stroke-miterlimit="10"/></g><g transform="translate(-414,-46) scale(1,1)"><path fill="#C0C0C0" stroke="none" d="M 514 263 L 577 263 Q 580 263 580 266 L 580 265 Q 580 268 577 268 L 514 268 Q 511 268 511 265 L 511 266 Q 511 263 514 263 Z" opacity="0.2"/></g><g transform="translate(-414,-46) scale(1,1)"><path fill="#000000" stroke="none" d="M 507 256 L 570 256 Q 573 256 573 259 L 573 259 Q 573 262 570 262 L 507 262 Q 504 262 504 259 L 504 259 Q 504 256 507 256 Z"/></g><g transform="translate(-414,-46) scale(1,1)"><path fill="none" stroke="#000000" d="M 537 217 L 538 255" stroke-miterlimit="10"/></g><g transform="translate(-414,-46) scale(1,1)"><path fill="none" stroke="#000000" d="M 533.5245928199677 244.95158069281965 L 538 255 L 541.9407146667412 244.73010380211508" stroke-miterlimit="10"/></g><g transform="translate(-414,-46) scale(1,1)"><path fill="#C0C0C0" stroke="none" d="M 441 303 L 488.49365234375 303 Q 498.49365234375 303 498.49365234375 313 L 498.49365234375 333 Q 498.49365234375 343 488.49365234375 343 L 441 343 Q 431 343 431 333 L 431 313 Q 431 303 441 303 Z" opacity="0.2"/></g><g transform="translate(-414,-46) scale(1,1)"><path fill="#ffffff" stroke="none" d="M 434 296 L 481.49365234375 296 Q 491.49365234375 296 491.49365234375 306 L 491.49365234375 326 Q 491.49365234375 336 481.49365234375 336 L 434 336 Q 424 336 424 326 L 424 306 Q 424 296 434 296 Z"/></g><g transform="translate(-414,-46) scale(1,1)"><path fill="none" stroke="#000000" d="M 434 296 L 481.49365234375 296 Q 491.49365234375 296 491.49365234375 306 L 491.49365234375 326 Q 491.49365234375 336 481.49365234375 336 L 434 336 Q 424 336 424 326 L 424 306 Q 424 296 434 296 Z" stroke-miterlimit="10"/></g><g transform="translate(-414,-46) scale(1,1)"><g><path fill="none" stroke="none"/><text fill="#000000" stroke="none" font-family="Arial" font-size="13px" font-style="normal" font-weight="bold" text-decoration="none" x="430.29638671875" y="315.5">print PDF</text></g></g><g transform="translate(-414,-46) scale(1,1)"><path fill="none" stroke="#000000" d="M 532 262 L 486 295" stroke-miterlimit="10"/></g><g transform="translate(-414,-46) scale(1,1)"><path fill="none" stroke="#000000" d="M 491.8038009986966 285.65570259636775 L 486 295 L 496.7113231023678 292.49649098330343" stroke-miterlimit="10"/></g><g transform="translate(-414,-46) scale(1,1)"><path fill="#C0C0C0" stroke="none" d="M 566 308 L 647.46630859375 308 Q 657.46630859375 308 657.46630859375 318 L 657.46630859375 338 Q 657.46630859375 348 647.46630859375 348 L 566 348 Q 556 348 556 338 L 556 318 Q 556 308 566 308 Z" opacity="0.2"/></g><g transform="translate(-414,-46) scale(1,1)"><path fill="#ffffff" stroke="none" d="M 559 301 L 640.46630859375 301 Q 650.46630859375 301 650.46630859375 311 L 650.46630859375 331 Q 650.46630859375 341 640.46630859375 341 L 559 341 Q 549 341 549 331 L 549 311 Q 549 301 559 301 Z"/></g><g transform="translate(-414,-46) scale(1,1)"><path fill="none" stroke="#000000" d="M 559 301 L 640.46630859375 301 Q 650.46630859375 301 650.46630859375 311 L 650.46630859375 331 Q 650.46630859375 341 640.46630859375 341 L 559 341 Q 549 341 549 331 L 549 311 Q 549 301 559 301 Z" stroke-miterlimit="10"/></g><g transform="translate(-414,-46) scale(1,1)"><g><path fill="none" stroke="none"/><text fill="#000000" stroke="none" font-family="Arial" font-size="13px" font-style="normal" font-weight="bold" text-decoration="none" x="557.10546875" y="320.5">time remaining</text></g></g><g transform="translate(-414,-46) scale(1,1)"><path fill="none" stroke="#000000" d="M 542 262 L 579 300" stroke-miterlimit="10"/></g><g transform="translate(-414,-46) scale(1,1)"><path fill="none" stroke="#000000" d="M 568.894350285844 295.6553660850679 L 579 300 L 574.926346661846 289.7821064558028" stroke-miterlimit="10"/></g><g transform="translate(-414,-46) scale(1,1)"><path fill="#C0C0C0" stroke="none" d="M 447 387.5 C 447 380.59644 452.59644 375 459.5 375 C 466.40356 375 472 380.59644 472 387.5 C 472 394.40356 466.40356 400 459.5 400 C 452.59644 400 447 394.40356 447 387.5 Z" opacity="0.2"/></g><g transform="translate(-414,-46) scale(1,1)"><path fill="none" stroke="#000000" d="M 440 380.5 C 440 373.59644 445.59644 368 452.5 368 C 459.40356 368 465 373.59644 465 380.5 C 465 387.40356 459.40356 393 452.5 393 C 445.59644 393 440 387.40356 440 380.5 Z" stroke-miterlimit="10"/></g><g transform="translate(-414,-46) scale(1,1)"><path fill="#000000" stroke="none" d="M 445 380.5 C 445 376.357864 448.357864 373 452.5 373 C 456.642136 373 460 376.357864 460 380.5 C 460 384.642136 456.642136 388 452.5 388 C 448.357864 388 445 384.642136 445 380.5 Z"/></g><g transform="translate(-414,-46) scale(1,1)"><path fill="none" stroke="#000000" d="M 455 337 L 453 367" stroke-miterlimit="10"/></g><g transform="translate(-414,-46) scale(1,1)"><path fill="none" stroke="#000000" d="M 449.4758167371174 356.5798209070276 L 453 367 L 457.8762054144906 357.13984681885256" stroke-miterlimit="10"/></g></g></svg>