<svg version="1.1" xmlns="http://www.w3.org/2000/svg" xmlns:xlink="http://www.w3.org/1999/xlink" width="952.00146484375" height="524"><defs/><g><text fill="#eeeeee" stroke="none" font-family="Arial" font-size="24px" font-style="normal" font-weight="normal" text-decoration="none" x="0" y="0">UNREGISTERED</text><text fill="#eeeeee" stroke="none" font-family="Arial" font-size="24px" font-style="normal" font-weight="normal" text-decoration="none" x="0" y="30">UNREGISTERED</text><text fill="#eeeeee" stroke="none" font-family="Arial" font-size="24px" font-style="normal" font-weight="normal" text-decoration="none" x="0" y="60">UNREGISTERED</text><text fill="#eeeeee" stroke="none" font-family="Arial" font-size="24px" font-style="normal" font-weight="normal" text-decoration="none" x="0" y="90">UNREGISTERED</text><text fill="#eeeeee" stroke="none" font-family="Arial" font-size="24px" font-style="normal" font-weight="normal" text-decoration="none" x="0" y="120">UNREGISTERED</text><text fill="#eeeeee" stroke="none" font-family="Arial" font-size="24px" font-style="normal" font-weight="normal" text-decoration="none" x="0" y="150">UNREGISTERED</text><text fill="#eeeeee" stroke="none" font-family="Arial" font-size="24px" font-style="normal" font-weight="normal" text-decoration="none" x="0" y="180">UNREGISTERED</text><text fill="#eeeeee" stroke="none" font-family="Arial" font-size="24px" font-style="normal" font-weight="normal" text-decoration="none" x="0" y="210">UNREGISTERED</text><text fill="#eeeeee" stroke="none" font-family="Arial" font-size="24px" font-style="normal" font-weight="normal" text-decoration="none" x="0" y="240">UNREGISTERED</text><text fill="#eeeeee" stroke="none" font-family="Arial" font-size="24px" font-style="normal" font-weight="normal" text-decoration="none" x="0" y="270">UNREGISTERED</text><text fill="#eeeeee" stroke="none" font-family="Arial" font-size="24px" font-style="normal" font-weight="normal" text-decoration="none" x="0" y="300">UNREGISTERED</text><text fill="#eeeeee" stroke="none" font-family="Arial" font-size="24px" font-style="normal" font-weight="normal" text-decoration="none" x="0" y="330">UNREGISTERED</text><text fill="#eeeeee" stroke="none" font-family="Arial" font-size="24px" font-style="normal" font-weight="normal" text-decoration="none" x="0" y="360">UNREGISTERED</text><text fill="#eeeeee" stroke="none" font-family="Arial" font-size="24px" font-style="normal" font-weight="normal" text-decoration="none" x="0" y="390">UNREGISTERED</text><text fill="#eeeeee" stroke="none" font-family="Arial" font-size="24px" font-style="normal" font-weight="normal" text-decoration="none" x="0" y="420">UNREGISTERED</text><text fill="#eeeeee" stroke="none" font-family="Arial" font-size="24px" font-style="normal" font-weight="normal" text-decoration="none" x="0" y="450">UNREGISTERED</text><text fill="#eeeeee" stroke="none" font-family="Arial" font-size="24px" font-style="normal" font-weight="normal" text-decoration="none" x="0" y="480">UNREGISTERED</text><text fill="#eeeeee" stroke="none" font-family="Arial" font-size="24px" font-style="normal" font-weight="normal" text-decoration="none" x="0" y="510">UNREGISTERED</text><text fill="#eeeeee" stroke="none" font-family="Arial" font-size="24px" font-style="normal" font-weight="normal" text-decoration="none" x="200" y="0">UNREGISTERED</text><text fill="#eeeeee" stroke="none" font-family="Arial" font-size="24px" font-style="normal" font-weight="normal" text-decoration="none" x="200" y="30">UNREGISTERED</text><text fill="#eeeeee" stroke="none" font-family="Arial" font-size="24px" font-style="normal" font-weight="normal" text-decoration="none" x="200" y="60">UNREGISTERED</text><text fill="#eeeeee" stroke="none" font-family="Arial" font-size="24px" font-style="normal" font-weight="normal" text-decoration="none" x="200" y="90">UNREGISTERED</text><text fill="#eeeeee" stroke="none" font-family="Arial" font-size="24px" font-style="normal" font-weight="normal" text-decoration="none" x="200" y="120">UNREGISTERED</text><text fill="#eeeeee" stroke="none" font-family="Arial" font-size="24px" font-style="normal" font-weight="normal" text-decoration="none" x="200" y="150">UNREGISTERED</text><text fill="#eeeeee" stroke="none" font-family="Arial" font-size="24px" font-style="normal" font-weight="normal" text-decoration="none" x="200" y="180">UNREGISTERED</text><text fill="#eeeeee" stroke="none" font-family="Arial" font-size="24px" font-style="normal" font-weight="normal" text-decoration="none" x="200" y="210">UNREGISTERED</text><text fill="#eeeeee" stroke="none" font-family="Arial" font-size="24px" font-style="normal" font-weight="normal" text-decoration="none" x="200" y="240">UNREGISTERED</text><text fill="#eeeeee" stroke="none" font-family="Arial" font-size="24px" font-style="normal" font-weight="normal" text-decoration="none" x="200" y="270">UNREGISTERED</text><text fill="#eeeeee" stroke="none" font-family="Arial" font-size="24px" font-style="normal" font-weight="normal" text-decoration="none" x="200" y="300">UNREGISTERED</text><text fill="#eeeeee" stroke="none" font-family="Arial" font-size="24px" font-style="normal" font-weight="normal" text-decoration="none" x="200" y="330">UNREGISTERED</text><text fill="#eeeeee" stroke="none" font-family="Arial" font-size="24px" font-style="normal" font-weight="normal" text-decoration="none" x="200" y="360">UNREGISTERED</text><text fill="#eeeeee" stroke="none" font-family="Arial" font-size="24px" font-style="normal" font-weight="normal" text-decoration="none" x="200" y="390">UNREGISTERED</text><text fill="#eeeeee" stroke="none" font-family="Arial" font-size="24px" font-style="normal" font-weight="normal" text-decoration="none" x="200" y="420">UNREGISTERED</text><text fill="#eeeeee" stroke="none" font-family="Arial" font-size="24px" font-style="normal" font-weight="normal" text-decoration="none" x="200" y="450">UNREGISTERED</text><text fill="#eeeeee" stroke="none" font-family="Arial" font-size="24px" font-style="normal" font-weight="normal" text-decoration="none" x="200" y="480">UNREGISTERED</text><text fill="#eeeeee" stroke="none" font-family="Arial" font-size="24px" font-style="normal" font-weight="normal" text-decoration="none" x="200" y="510">UNREGISTERED</text><text fill="#eeeeee" stroke="none" font-family="Arial" font-size="24px" font-style="normal" font-weight="normal" text-decoration="none" x="400" y="0">UNREGISTERED</text><text fill="#eeeeee" stroke="none" font-family="Arial" font-size="24px" font-style="normal" font-weight="normal" text-decoration="none" x="400" y="30">UNREGISTERED</text><text fill="#eeeeee" stroke="none" font-family="Arial" font-size="24px" font-style="normal" font-weight="normal" text-decoration="none" x="400" y="60">UNREGISTERED</text><text fill="#eeeeee" stroke="none" font-family="Arial" font-size="24px" font-style="normal" font-weight="normal" text-decoration="none" x="400" y="90">UNREGISTERED</text><text fill="#eeeeee" stroke="none" font-family="Arial" font-size="24px" font-style="normal" font-weight="normal" text-decoration="none" x="400" y="120">UNREGISTERED</text><text fill="#eeeeee" stroke="none" font-family="Arial" font-size="24px" font-style="normal" font-weight="normal" text-decoration="none" x="400" y="150">UNREGISTERED</text><text fill="#eeeeee" stroke="none" font-family="Arial" font-size="24px" font-style="normal" font-weight="normal" text-decoration="none" x="400" y="180">UNREGISTERED</text><text fill="#eeeeee" stroke="none" font-family="Arial" font-size="24px" font-style="normal" font-weight="normal" text-decoration="none" x="400" y="210">UNREGISTERED</text><text fill="#eeeeee" stroke="none" font-family="Arial" font-size="24px" font-style="normal" font-weight="normal" text-decoration="none" x="400" y="240">UNREGISTERED</text><text fill="#eeeeee" stroke="none" font-family="Arial" font-size="24px" font-style="normal" font-weight="normal" text-decoration="none" x="400" y="270">UNREGISTERED</text><text fill="#eeeeee" stroke="none" font-family="Arial" font-size="24px" font-style="normal" font-weight="normal" text-decoration="none" x="400" y="300">UNREGISTERED</text><text fill="#eeeeee" stroke="none" font-family="Arial" font-size="24px" font-style="normal" font-weight="normal" text-decoration="none" x="400" y="330">UNREGISTERED</text><text fill="#eeeeee" stroke="none" font-family="Arial" font-size="24px" font-style="normal" font-weight="normal" text-decoration="none" x="400" y="360">UNREGISTERED</text><text fill="#eeeeee" stroke="none" font-family="Arial" font-size="24px" font-style="normal" font-weight="normal" text-decoration="none" x="400" y="390">UNREGISTERED</text><text fill="#eeeeee" stroke="none" font-family="Arial" font-size="24px" font-style="normal" font-weight="normal" text-decoration="none" x="400" y="420">UNREGISTERED</text><text fill="#eeeeee" stroke="none" font-family="Arial" font-size="24px" font-style="normal" font-weight="normal" text-decoration="none" x="400" y="450">UNREGISTERED</text><text fill="#eeeeee" stroke="none" font-family="Arial" font-size="24px" font-style="normal" font-weight="normal" text-decoration="none" x="400" y="480">UNREGISTERED</text><text fill="#eeeeee" stroke="none" font-family="Arial" font-size="24px" font-style="normal" font-weight="normal" text-decoration="none" x="400" y="510">UNREGISTERED</text><text fill="#eeeeee" stroke="none" font-family="Arial" font-size="24px" font-style="normal" font-weight="normal" text-decoration="none" x="600" y="0">UNREGISTERED</text><text fill="#eeeeee" stroke="none" font-family="Arial" font-size="24px" font-style="normal" font-weight="normal" text-decoration="none" x="600" y="30">UNREGISTERED</text><text fill="#eeeeee" stroke="none" font-family="Arial" font-size="24px" font-style="normal" font-weight="normal" text-decoration="none" x="600" y="60">UNREGISTERED</text><text fill="#eeeeee" stroke="none" font-family="Arial" font-size="24px" font-style="normal" font-weight="normal" text-decoration="none" x="600" y="90">UNREGISTERED</text><text fill="#eeeeee" stroke="none" font-family="Arial" font-size="24px" font-style="normal" font-weight="normal" text-decoration="none" x="600" y="120">UNREGISTERED</text><text fill="#eeeeee" stroke="none" font-family="Arial" font-size="24px" font-style="normal" font-weight="normal" text-decoration="none" x="600" y="150">UNREGISTERED</text><text fill="#eeeeee" stroke="none" font-family="Arial" font-size="24px" font-style="normal" font-weight="normal" text-decoration="none" x="600" y="180">UNREGISTERED</text><text fill="#eeeeee" stroke="none" font-family="Arial" font-size="24px" font-style="normal" font-weight="normal" text-decoration="none" x="600" y="210">UNREGISTERED</text><text fill="#eeeeee" stroke="none" font-family="Arial" font-size="24px" font-style="normal" font-weight="normal" text-decoration="none" x="600" y="240">UNREGISTERED</text><text fill="#eeeeee" stroke="none" font-family="Arial" font-size="24px" font-style="normal" font-weight="normal" text-decoration="none" x="600" y="270">UNREGISTERED</text><text fill="#eeeeee" stroke="none" font-family="Arial" font-size="24px" font-style="normal" font-weight="normal" text-decoration="none" x="600" y="300">UNREGISTERED</text><text fill="#eeeeee" stroke="none" font-family="Arial" font-size="24px" font-style="normal" font-weight="normal" text-decoration="none" x="600" y="330">UNREGISTERED</text><text fill="#eeeeee" stroke="none" font-family="Arial" font-size="24px" font-style="normal" font-weight="normal" text-decoration="none" x="600" y="360">UNREGISTERED</text><text fill="#eeeeee" stroke="none" font-family="Arial" font-size="24px" font-style="normal" font-weight="normal" text-decoration="none" x="600" y="390">UNREGISTERED</text><text fill="#eeeeee" stroke="none" font-family="Arial" font-size="24px" font-style="normal" font-weight="normal" text-decoration="none" x="600" y="420">UNREGISTERED</text><text fill="#eeeeee" stroke="none" font-family="Arial" font-size="24px" font-style="normal" font-weight="normal" text-decoration="none" x="600" y="450">UNREGISTERED</text><text fill="#eeeeee" stroke="none" font-family="Arial" font-size="24px" font-style="normal" font-weight="normal" text-decoration="none" x="600" y="480">UNREGISTERED</text><text fill="#eeeeee" stroke="none" font-family="Arial" font-size="24px" font-style="normal" font-weight="normal" text-decoration="none" x="600" y="510">UNREGISTERED</text><text fill="#eeeeee" stroke="none" font-family="Arial" font-size="24px" font-style="normal" font-weight="normal" text-decoration="none" x="800" y="0">UNREGISTERED</text><text fill="#eeeeee" stroke="none" font-family="Arial" font-size="24px" font-style="normal" font-weight="normal" text-decoration="none" x="800" y="30">UNREGISTERED</text><text fill="#eeeeee" stroke="none" font-family="Arial" font-size="24px" font-style="normal" font-weight="normal" text-decoration="none" x="800" y="60">UNREGISTERED</text><text fill="#eeeeee" stroke="none" font-family="Arial" font-size="24px" font-style="normal" font-weight="normal" text-decoration="none" x="800" y="90">UNREGISTERED</text><text fill="#eeeeee" stroke="none" font-family="Arial" font-size="24px" font-style="normal" font-weight="normal" text-decoration="none" x="800" y="120">UNREGISTERED</text><text fill="#eeeeee" stroke="none" font-family="Arial" font-size="24px" font-style="normal" font-weight="normal" text-decoration="none" x="800" y="150">UNREGISTERED</text><text fill="#eeeeee" stroke="none" font-family="Arial" font-size="24px" font-style="normal" font-weight="normal" text-decoration="none" x="800" y="180">UNREGISTERED</text><text fill="#eeeeee" stroke="none" font-family="Arial" font-size="24px" font-style="normal" font-weight="normal" text-decoration="none" x="800" y="210">UNREGISTERED</text><text fill="#eeeeee" stroke="none" font-family="Arial" font-size="24px" font-style="normal" font-weight="normal" text-decoration="none" x="800" y="240">UNREGISTERED</text><text fill="#eeeeee" stroke="none" font-family="Arial" font-size="24px" font-style="normal" font-weight="normal" text-decoration="none" x="800" y="270">UNREGISTERED</text><text fill="#eeeeee" stroke="none" font-family="Arial" font-size="24px" font-style="normal" font-weight="normal" text-decoration="none" x="800" y="300">UNREGISTERED</text><text fill="#eeeeee" stroke="none" font-family="Arial" font-size="24px" font-style="normal" font-weight="normal" text-decoration="none" x="800" y="330">UNREGISTERED</text><text fill="#eeeeee" stroke="none" font-family="Arial" font-size="24px" font-style="normal" font-weight="normal" text-decoration="none" x="800" y="360">UNREGISTERED</text><text fill="#eeeeee" stroke="none" font-family="Arial" font-size="24px" font-style="normal" font-weight="normal" text-decoration="none" x="800" y="390">UNREGISTERED</text><text fill="#eeeeee" stroke="none" font-family="Arial" font-size="24px" font-style="normal" font-weight="normal" text-decoration="none" x="800" y="420">UNREGISTERED</text><text fill="#eeeeee" stroke="none" font-family="Arial" font-size="24px" font-style="normal" font-weight="normal" text-decoration="none" x="800" y="450">UNREGISTERED</text><text fill="#eeeeee" stroke="none" font-family="Arial" font-size="24px" font-style="normal" font-weight="normal" text-decoration="none" x="800" y="480">UNREGISTERED</text><text fill="#eeeeee" stroke="none" font-family="Arial" font-size="24px" font-style="normal" font-weight="normal" text-decoration="none" x="800" y="510">UNREGISTERED</text><g transform="translate(-110,-118) scale(1,1)"><path fill="none" stroke="#000000" d="M 240 128 L 912 128 L 912 632 L 240 632 L 240 128" stroke-miterlimit="10"/></g><g transform="translate(-110,-118) scale(1,1)"><path fill="#ffffff" stroke="none" d="M 240 128 L 240 150 L 336.2216796875 150 L 347.2216796875 139 L 347.2216796875 128 L 240 128"/></g><g transform="translate(-110,-118) scale(1,1)"><path fill="none" stroke="#000000" d="M 240 128 L 240 150 L 336.2216796875 150 L 347.2216796875 139 L 347.2216796875 128 L 240 128 L 240 128" stroke-miterlimit="10"/></g><g transform="translate(-110,-118) scale(1,1)"><g><path fill="none" stroke="none"/><text fill="#000000" stroke="none" font-family="Arial" font-size="13px" font-style="normal" font-weight="normal" text-decoration="none" x="271.9599609375" y="145.5">Inspection</text></g></g><g transform="translate(-110,-118) scale(1,1)"><g><path fill="none" stroke="none"/><text fill="#000000" stroke="none" font-family="Arial" font-size="13px" font-style="normal" font-weight="bold" text-decoration="none" x="245" y="145.5">pkg</text></g></g><g transform="translate(-110,-118) scale(1,1)"><path fill="#ffffff" stroke="none" d="M 146.52751438210228 257.68 C 146.52751438210228 252.886167936 150.41335670704774 249 155.206787109375 249 C 160.00021751170226 249 163.88605983664772 252.886167936 163.88605983664772 257.68 C 163.88605983664772 262.473832064 160.00021751170226 266.36 155.206787109375 266.36 C 150.41335670704774 266.36 146.52751438210228 262.473832064 146.52751438210228 257.68 Z"/></g><g transform="translate(-110,-118) scale(1,1)"><path fill="none" stroke="#000000" d="M 146.52751438210228 257.68 C 146.52751438210228 252.886167936 150.41335670704774 249 155.206787109375 249 C 160.00021751170226 249 163.88605983664772 252.886167936 163.88605983664772 257.68 C 163.88605983664772 262.473832064 160.00021751170226 266.36 155.206787109375 266.36 C 150.41335670704774 266.36 146.52751438210228 262.473832064 146.52751438210228 257.68 Z" stroke-miterlimit="10"/></g><g transform="translate(-110,-118) scale(1,1)"><path fill="none" stroke="#000000" d="M 155.206787109375 266.36 L 155.206787109375 283.64" stroke-miterlimit="10"/></g><g transform="translate(-110,-118) scale(1,1)"><path fill="none" stroke="#000000" d="M 146.01696892755683 272.84 L 164.39660529119317 272.84" stroke-miterlimit="10"/></g><g transform="translate(-110,-118) scale(1,1)"><path fill="none" stroke="#000000" d="M 155.206787109375 283.64 L 142.44315074573865 301" stroke-miterlimit="10"/></g><g transform="translate(-110,-118) scale(1,1)"><path fill="none" stroke="#000000" d="M 155.206787109375 283.64 L 167.97042347301135 301" stroke-miterlimit="10"/></g><g transform="translate(-110,-118) scale(1,1)"><g><path fill="none" stroke="none"/><text fill="#000000" stroke="none" font-family="Arial" font-size="13px" font-style="normal" font-weight="bold" text-decoration="none" x="126.302734375" y="321.5">Employee</text></g></g><g transform="translate(-110,-118) scale(1,1)"><path fill="#C0C0C0" stroke="none" d="M 479 311 C 479 297.7451648 502.505048 287 531.5 287 C 560.494952 287 584 297.7451648 584 311 C 584 324.2548352 560.494952 335 531.5 335 C 502.505048 335 479 324.2548352 479 311 Z" opacity="0.2"/></g><g transform="translate(-110,-118) scale(1,1)"><path fill="#ffffff" stroke="none" d="M 472 304 C 472 290.7451648 495.505048 280 524.5 280 C 553.494952 280 577 290.7451648 577 304 C 577 317.2548352 553.494952 328 524.5 328 C 495.505048 328 472 317.2548352 472 304 Z"/></g><g transform="translate(-110,-118) scale(1,1)"><path fill="none" stroke="#000000" d="M 472 304 C 472 290.7451648 495.505048 280 524.5 280 C 553.494952 280 577 290.7451648 577 304 C 577 317.2548352 553.494952 328 524.5 328 C 495.505048 328 472 317.2548352 472 304 Z" stroke-miterlimit="10"/></g><g transform="translate(-110,-118) scale(1,1)"><g><path fill="none" stroke="none"/><text fill="#000000" stroke="none" font-family="Arial" font-size="13px" font-style="normal" font-weight="bold" text-decoration="none" x="494.869140625" y="311">Inspection</text></g></g><g transform="translate(-110,-118) scale(1,1)"><path fill="#C0C0C0" stroke="none" d="M 447 184 C 447 174.6111584 469.6096176 167 497.5 167 C 525.3903824 167 548 174.6111584 548 184 C 548 193.3888416 525.3903824 201 497.5 201 C 469.6096176 201 447 193.3888416 447 184 Z" opacity="0.2"/></g><g transform="translate(-110,-118) scale(1,1)"><path fill="#ffffff" stroke="none" d="M 440 177 C 440 167.6111584 462.6096176 160 490.5 160 C 518.3903824 160 541 167.6111584 541 177 C 541 186.3888416 518.3903824 194 490.5 194 C 462.6096176 194 440 186.3888416 440 177 Z"/></g><g transform="translate(-110,-118) scale(1,1)"><path fill="none" stroke="#000000" d="M 440 177 C 440 167.6111584 462.6096176 160 490.5 160 C 518.3903824 160 541 167.6111584 541 177 C 541 186.3888416 518.3903824 194 490.5 194 C 462.6096176 194 440 186.3888416 440 177 Z" stroke-miterlimit="10"/></g><g transform="translate(-110,-118) scale(1,1)"><g><path fill="none" stroke="none"/><text fill="#000000" stroke="none" font-family="Arial" font-size="13px" font-style="normal" font-weight="bold" text-decoration="none" x="469.5400390625" y="184">Vehicle</text></g></g><g transform="translate(-110,-118) scale(1,1)"><path fill="none" stroke="#000000" d="M 517 279 L 495 195" stroke-miterlimit="10" stroke-dasharray="3"/></g><g transform="translate(-110,-118) scale(1,1)"><path fill="none" stroke="#000000" d="M 501.6469796723676 203.76456851391626 L 495 195 L 493.50263857037595 205.89761023110452" stroke-miterlimit="10"/></g><g transform="translate(-110,-118) scale(1,1)"><g><path fill="none" stroke="none"/><text fill="#000000" stroke="none" font-family="Arial" font-size="13px" font-style="normal" font-weight="normal" text-decoration="none" x="451.5" y="257.5">«include»</text></g></g><g transform="translate(-110,-118) scale(1,1)"><path fill="none" stroke="#000000" d="M 191 289 L 471 302" stroke-miterlimit="10"/></g><g transform="translate(-110,-118) scale(1,1)"><path fill="none" stroke="#000000" d="M 191 275 L 439 194" stroke-miterlimit="10"/></g><g transform="translate(-110,-118) scale(1,1)"><path fill="#ffffff" stroke="none" d="M 1009.3214596946023 377.68 C 1009.3214596946023 372.886167936 1013.2073020195477 369 1018.000732421875 369 C 1022.7941628242023 369 1026.6800051491477 372.886167936 1026.6800051491477 377.68 C 1026.6800051491477 382.473832064 1022.7941628242023 386.36 1018.000732421875 386.36 C 1013.2073020195477 386.36 1009.3214596946023 382.473832064 1009.3214596946023 377.68 Z"/></g><g transform="translate(-110,-118) scale(1,1)"><path fill="none" stroke="#000000" d="M 1009.3214596946023 377.68 C 1009.3214596946023 372.886167936 1013.2073020195477 369 1018.000732421875 369 C 1022.7941628242023 369 1026.6800051491477 372.886167936 1026.6800051491477 377.68 C 1026.6800051491477 382.473832064 1022.7941628242023 386.36 1018.000732421875 386.36 C 1013.2073020195477 386.36 1009.3214596946023 382.473832064 1009.3214596946023 377.68 Z" stroke-miterlimit="10"/></g><g transform="translate(-110,-118) scale(1,1)"><path fill="none" stroke="#000000" d="M 1018.000732421875 386.36 L 1018.000732421875 403.64" stroke-miterlimit="10"/></g><g transform="translate(-110,-118) scale(1,1)"><path fill="none" stroke="#000000" d="M 1008.8109142400568 392.84 L 1027.1905506036933 392.84" stroke-miterlimit="10"/></g><g transform="translate(-110,-118) scale(1,1)"><path fill="none" stroke="#000000" d="M 1018.000732421875 403.64 L 1005.2370960582386 421" stroke-miterlimit="10"/></g><g transform="translate(-110,-118) scale(1,1)"><path fill="none" stroke="#000000" d="M 1018.000732421875 403.64 L 1030.7643687855114 421" stroke-miterlimit="10"/></g><g transform="translate(-110,-118) scale(1,1)"><g><path fill="none" stroke="none"/><text fill="#000000" stroke="none" font-family="Arial" font-size="13px" font-style="normal" font-weight="bold" text-decoration="none" x="990.902587890625" y="441.5">Technical</text></g></g><g transform="translate(-110,-118) scale(1,1)"><path fill="#C0C0C0" stroke="none" d="M 615 416 C 615 406.6111584 655.0705104 399 704.5 399 C 753.9294896 399 794 406.6111584 794 416 C 794 425.3888416 753.9294896 433 704.5 433 C 655.0705104 433 615 425.3888416 615 416 Z" opacity="0.2"/></g><g transform="translate(-110,-118) scale(1,1)"><path fill="#ffffff" stroke="none" d="M 608 409 C 608 399.6111584 648.0705104 392 697.5 392 C 746.9294896 392 787 399.6111584 787 409 C 787 418.3888416 746.9294896 426 697.5 426 C 648.0705104 426 608 418.3888416 608 409 Z"/></g><g transform="translate(-110,-118) scale(1,1)"><path fill="none" stroke="#000000" d="M 608 409 C 608 399.6111584 648.0705104 392 697.5 392 C 746.9294896 392 787 399.6111584 787 409 C 787 418.3888416 746.9294896 426 697.5 426 C 648.0705104 426 608 418.3888416 608 409 Z" stroke-miterlimit="10"/></g><g transform="translate(-110,-118) scale(1,1)"><g><path fill="none" stroke="none"/><text fill="#000000" stroke="none" font-family="Arial" font-size="13px" font-style="normal" font-weight="bold" text-decoration="none" x="643.66552734375" y="416">recheck inspection</text></g></g><g transform="translate(-110,-118) scale(1,1)"><path fill="none" stroke="#000000" d="M 983 407 L 788 408" stroke-miterlimit="10"/></g><g transform="translate(-110,-118) scale(1,1)"><path fill="#C0C0C0" stroke="none" d="M 711 528 C 711 518.6111584 742.340064 511 781 511 C 819.659936 511 851 518.6111584 851 528 C 851 537.3888416 819.659936 545 781 545 C 742.340064 545 711 537.3888416 711 528 Z" opacity="0.2"/></g><g transform="translate(-110,-118) scale(1,1)"><path fill="#ffffff" stroke="none" d="M 704 521 C 704 511.6111584 735.340064 504 774 504 C 812.659936 504 844 511.6111584 844 521 C 844 530.3888416 812.659936 538 774 538 C 735.340064 538 704 530.3888416 704 521 Z"/></g><g transform="translate(-110,-118) scale(1,1)"><path fill="none" stroke="#000000" d="M 704 521 C 704 511.6111584 735.340064 504 774 504 C 812.659936 504 844 511.6111584 844 521 C 844 530.3888416 812.659936 538 774 538 C 735.340064 538 704 530.3888416 704 521 Z" stroke-miterlimit="10"/></g><g transform="translate(-110,-118) scale(1,1)"><g><path fill="none" stroke="none"/><text fill="#000000" stroke="none" font-family="Arial" font-size="13px" font-style="normal" font-weight="bold" text-decoration="none" x="731.721435546875" y="528">engine macine</text></g></g><g transform="translate(-110,-118) scale(1,1)"><path fill="none" stroke="#000000" d="M 709 427 L 762 503" stroke-miterlimit="10" stroke-dasharray="3"/></g><g transform="translate(-110,-118) scale(1,1)"><path fill="none" stroke="#000000" d="M 752.7339855590786 497.0720175117805 L 762 503 L 759.6396549704272 492.25622173807693" stroke-miterlimit="10"/></g><g transform="translate(-110,-118) scale(1,1)"><g><path fill="none" stroke="none"/><text fill="#000000" stroke="none" font-family="Arial" font-size="13px" font-style="normal" font-weight="normal" text-decoration="none" x="731.5" y="453.5">«include»</text></g></g><g transform="translate(-110,-118) scale(1,1)"><path fill="#C0C0C0" stroke="none" d="M 775 336 C 775 326.6111584 797.6096176 319 825.5 319 C 853.3903824 319 876 326.6111584 876 336 C 876 345.3888416 853.3903824 353 825.5 353 C 797.6096176 353 775 345.3888416 775 336 Z" opacity="0.2"/></g><g transform="translate(-110,-118) scale(1,1)"><path fill="#ffffff" stroke="none" d="M 768 329 C 768 319.6111584 790.6096176 312 818.5 312 C 846.3903824 312 869 319.6111584 869 329 C 869 338.3888416 846.3903824 346 818.5 346 C 790.6096176 346 768 338.3888416 768 329 Z"/></g><g transform="translate(-110,-118) scale(1,1)"><path fill="none" stroke="#000000" d="M 768 329 C 768 319.6111584 790.6096176 312 818.5 312 C 846.3903824 312 869 319.6111584 869 329 C 869 338.3888416 846.3903824 346 818.5 346 C 790.6096176 346 768 338.3888416 768 329 Z" stroke-miterlimit="10"/></g><g transform="translate(-110,-118) scale(1,1)"><g><path fill="none" stroke="none"/><text fill="#000000" stroke="none" font-family="Arial" font-size="13px" font-style="normal" font-weight="bold" text-decoration="none" x="792.119140625" y="336">Standard</text></g></g><g transform="translate(-110,-118) scale(1,1)"><path fill="none" stroke="#000000" d="M 724 391 L 791 347" stroke-miterlimit="10" stroke-dasharray="3"/></g><g transform="translate(-110,-118) scale(1,1)"><path fill="none" stroke="#000000" d="M 784.8160608068381 356.0971916576093 L 791 347 L 780.1946087512207 349.0599805729192" stroke-miterlimit="10"/></g><g transform="translate(-110,-118) scale(1,1)"><g><path fill="none" stroke="none"/><text fill="#000000" stroke="none" font-family="Arial" font-size="13px" font-style="normal" font-weight="normal" text-decoration="none" x="712.5" y="349.5">«include»</text></g></g><g transform="translate(-110,-118) scale(1,1)"><path fill="none" stroke="#000000" d="M 667 391 L 565 329" stroke-miterlimit="10" stroke-dasharray="3"/></g><g transform="translate(-110,-118) scale(1,1)"><path fill="none" stroke="#000000" d="M 575.8707165685336 330.68152350165246 L 565 329 L 571.4977407312241 337.87577407271004" stroke-miterlimit="10"/></g><g transform="translate(-110,-118) scale(1,1)"><g><path fill="none" stroke="none"/><text fill="#000000" stroke="none" font-family="Arial" font-size="13px" font-style="normal" font-weight="normal" text-decoration="none" x="575.5" y="372.5">«include»</text></g></g><g transform="translate(-110,-118) scale(1,1)"><path fill="#C0C0C0" stroke="none" d="M 255 463 C 255 449.7451648 316.1131248 439 391.5 439 C 466.8868752 439 528 449.7451648 528 463 C 528 476.2548352 466.8868752 487 391.5 487 C 316.1131248 487 255 476.2548352 255 463 Z" opacity="0.2"/></g><g transform="translate(-110,-118) scale(1,1)"><path fill="#ffffff" stroke="none" d="M 248 456 C 248 442.7451648 309.1131248 432 384.5 432 C 459.8868752 432 521 442.7451648 521 456 C 521 469.2548352 459.8868752 480 384.5 480 C 309.1131248 480 248 469.2548352 248 456 Z"/></g><g transform="translate(-110,-118) scale(1,1)"><path fill="none" stroke="#000000" d="M 248 456 C 248 442.7451648 309.1131248 432 384.5 432 C 459.8868752 432 521 442.7451648 521 456 C 521 469.2548352 459.8868752 480 384.5 480 C 309.1131248 480 248 469.2548352 248 456 Z" stroke-miterlimit="10"/></g><g transform="translate(-110,-118) scale(1,1)"><g><path fill="none" stroke="none"/><text fill="#000000" stroke="none" font-family="Arial" font-size="13px" font-style="normal" font-weight="bold" text-decoration="none" x="298.501953125" y="463">get data from engine machine</text></g></g><g transform="translate(-110,-118) scale(1,1)"><path fill="#C0C0C0" stroke="none" d="M 575 247 C 575 233.7451648 625.8156752 223 688.5 223 C 751.1843248 223 802 233.7451648 802 247 C 802 260.2548352 751.1843248 271 688.5 271 C 625.8156752 271 575 260.2548352 575 247 Z" opacity="0.2"/></g><g transform="translate(-110,-118) scale(1,1)"><path fill="#ffffff" stroke="none" d="M 568 240 C 568 226.7451648 618.8156752 216 681.5 216 C 744.1843248 216 795 226.7451648 795 240 C 795 253.2548352 744.1843248 264 681.5 264 C 618.8156752 264 568 253.2548352 568 240 Z"/></g><g transform="translate(-110,-118) scale(1,1)"><path fill="none" stroke="#000000" d="M 568 240 C 568 226.7451648 618.8156752 216 681.5 216 C 744.1843248 216 795 226.7451648 795 240 C 795 253.2548352 744.1843248 264 681.5 264 C 618.8156752 264 568 253.2548352 568 240 Z" stroke-miterlimit="10"/></g><g transform="translate(-110,-118) scale(1,1)"><g><path fill="none" stroke="none"/><text fill="#000000" stroke="none" font-family="Arial" font-size="13px" font-style="normal" font-weight="bold" text-decoration="none" x="611.396484375" y="247">get data with input value</text></g></g><g transform="translate(-110,-118) scale(1,1)"><path fill="none" stroke="#000000" d="M 522 435 L 607 423" stroke-miterlimit="10"/></g><g transform="translate(-110,-118) scale(1,1)"><path fill="#FFFFFF" stroke="none" d="M 588.0511214814162 434.1776564130392 L 607 423 L 585.697322856196 417.5049161510626"/></g><g transform="translate(-110,-118) scale(1,1)"><path fill="none" stroke="#000000" d="M 588.0511214814162 434.1776564130392 L 607 423 L 585.697322856196 417.5049161510626 L 588.0511214814162 434.1776564130392" stroke-miterlimit="10"/></g><g transform="translate(-110,-118) scale(1,1)"><path fill="none" stroke="#000000" d="M 683 265 L 695 391" stroke-miterlimit="10"/></g><g transform="translate(-110,-118) scale(1,1)"><path fill="#FFFFFF" stroke="none" d="M 684.691860300315 371.5644074972802 L 695 391 L 701.4540837719861 369.9680052618829"/></g><g transform="translate(-110,-118) scale(1,1)"><path fill="none" stroke="#000000" d="M 684.691860300315 371.5644074972802 L 695 391 L 701.4540837719861 369.9680052618829 L 684.691860300315 371.5644074972802" stroke-miterlimit="10"/></g><g transform="translate(-110,-118) scale(1,1)"><path fill="#C0C0C0" stroke="none" d="M 479 520 C 479 510.6111584 529.8156752 503 592.5 503 C 655.1843248 503 706 510.6111584 706 520 C 706 529.3888416 655.1843248 537 592.5 537 C 529.8156752 537 479 529.3888416 479 520 Z" opacity="0.2"/></g><g transform="translate(-110,-118) scale(1,1)"><path fill="#ffffff" stroke="none" d="M 472 513 C 472 503.6111584 522.8156752 496 585.5 496 C 648.1843248 496 699 503.6111584 699 513 C 699 522.3888416 648.1843248 530 585.5 530 C 522.8156752 530 472 522.3888416 472 513 Z"/></g><g transform="translate(-110,-118) scale(1,1)"><path fill="none" stroke="#000000" d="M 472 513 C 472 503.6111584 522.8156752 496 585.5 496 C 648.1843248 496 699 503.6111584 699 513 C 699 522.3888416 648.1843248 530 585.5 530 C 522.8156752 530 472 522.3888416 472 513 Z" stroke-miterlimit="10"/></g><g transform="translate(-110,-118) scale(1,1)"><g><path fill="none" stroke="none"/><text fill="#000000" stroke="none" font-family="Arial" font-size="13px" font-style="normal" font-weight="bold" text-decoration="none" x="515.03466796875" y="520">connect engine machine</text></g></g><g transform="translate(-110,-118) scale(1,1)"><path fill="none" stroke="#000000" d="M 678 427 L 604 495" stroke-miterlimit="10" stroke-dasharray="3"/></g><g transform="translate(-110,-118) scale(1,1)"><path fill="none" stroke="#000000" d="M 608.6347910124996 485.0240934111003 L 604 495 L 614.3313233518155 491.2232609568264" stroke-miterlimit="10"/></g><g transform="translate(-110,-118) scale(1,1)"><g><path fill="none" stroke="none"/><text fill="#000000" stroke="none" font-family="Arial" font-size="13px" font-style="normal" font-weight="normal" text-decoration="none" x="627.5" y="466.5">«include»</text></g></g><g transform="translate(-110,-118) scale(1,1)"><path fill="#C0C0C0" stroke="none" d="M 527 592 C 527 582.6111584 553.1913392 575 585.5 575 C 617.8086608 575 644 582.6111584 644 592 C 644 601.3888416 617.8086608 609 585.5 609 C 553.1913392 609 527 601.3888416 527 592 Z" opacity="0.2"/></g><g transform="translate(-110,-118) scale(1,1)"><path fill="#ffffff" stroke="none" d="M 520 585 C 520 575.6111584 546.1913392 568 578.5 568 C 610.8086608 568 637 575.6111584 637 585 C 637 594.3888416 610.8086608 602 578.5 602 C 546.1913392 602 520 594.3888416 520 585 Z"/></g><g transform="translate(-110,-118) scale(1,1)"><path fill="none" stroke="#000000" d="M 520 585 C 520 575.6111584 546.1913392 568 578.5 568 C 610.8086608 568 637 575.6111584 637 585 C 637 594.3888416 610.8086608 602 578.5 602 C 546.1913392 602 520 594.3888416 520 585 Z" stroke-miterlimit="10"/></g><g transform="translate(-110,-118) scale(1,1)"><g><path fill="none" stroke="none"/><text fill="#000000" stroke="none" font-family="Arial" font-size="13px" font-style="normal" font-weight="bold" text-decoration="none" x="544.892333984375" y="592">not connect</text></g></g><g transform="translate(-110,-118) scale(1,1)"><path fill="none" stroke="#000000" d="M 580 567 L 583 531" stroke-miterlimit="10" stroke-dasharray="3"/></g><g transform="translate(-110,-118) scale(1,1)"><path fill="none" stroke="#000000" d="M 586.3510128538653 541.4771519437884 L 583 531 L 577.9610587258368 540.777989099786" stroke-miterlimit="10"/></g><g transform="translate(-110,-118) scale(1,1)"><g><path fill="none" stroke="none"/><text fill="#000000" stroke="none" font-family="Arial" font-size="13px" font-style="normal" font-weight="normal" text-decoration="none" x="524.5" y="551.5">«extend»</text></g></g><g transform="translate(-110,-118) scale(1,1)"><path fill="none" stroke="#000000" d="M 983 423 L 813 503" stroke-miterlimit="10"/></g><g transform="translate(-110,-118) scale(1,1)"><path fill="none" stroke="#000000" d="M 983 393 L 864 347" stroke-miterlimit="10"/></g><g transform="translate(-110,-118) scale(1,1)"><path fill="none" stroke="#000000" d="M 983 383 L 848 288 L 768 265" stroke-miterlimit="10"/></g><g transform="translate(-110,-118) scale(1,1)"><path fill="#C0C0C0" stroke="none" d="M 311 360 C 311 350.6111584 334.7289056 343 364 343 C 393.2710944 343 417 350.6111584 417 360 C 417 369.3888416 393.2710944 377 364 377 C 334.7289056 377 311 369.3888416 311 360 Z" opacity="0.2"/></g><g transform="translate(-110,-118) scale(1,1)"><path fill="#ffffff" stroke="none" d="M 304 353 C 304 343.6111584 327.7289056 336 357 336 C 386.2710944 336 410 343.6111584 410 353 C 410 362.3888416 386.2710944 370 357 370 C 327.7289056 370 304 362.3888416 304 353 Z"/></g><g transform="translate(-110,-118) scale(1,1)"><path fill="none" stroke="#000000" d="M 304 353 C 304 343.6111584 327.7289056 336 357 336 C 386.2710944 336 410 343.6111584 410 353 C 410 362.3888416 386.2710944 370 357 370 C 327.7289056 370 304 362.3888416 304 353 Z" stroke-miterlimit="10"/></g><g transform="translate(-110,-118) scale(1,1)"><g><path fill="none" stroke="none"/><text fill="#000000" stroke="none" font-family="Arial" font-size="13px" font-style="normal" font-weight="bold" text-decoration="none" x="325.9345703125" y="360">printe PDF</text></g></g><g transform="translate(-110,-118) scale(1,1)"><path fill="#C0C0C0" stroke="none" d="M 399 400 C 399 390.6111584 431.0116368 383 470.5 383 C 509.9883632 383 542 390.6111584 542 400 C 542 409.3888416 509.9883632 417 470.5 417 C 431.0116368 417 399 409.3888416 399 400 Z" opacity="0.2"/></g><g transform="translate(-110,-118) scale(1,1)"><path fill="#ffffff" stroke="none" d="M 392 393 C 392 383.6111584 424.0116368 376 463.5 376 C 502.9883632 376 535 383.6111584 535 393 C 535 402.3888416 502.9883632 410 463.5 410 C 424.0116368 410 392 402.3888416 392 393 Z"/></g><g transform="translate(-110,-118) scale(1,1)"><path fill="none" stroke="#000000" d="M 392 393 C 392 383.6111584 424.0116368 376 463.5 376 C 502.9883632 376 535 383.6111584 535 393 C 535 402.3888416 502.9883632 410 463.5 410 C 424.0116368 410 392 402.3888416 392 393 Z" stroke-miterlimit="10"/></g><g transform="translate(-110,-118) scale(1,1)"><g><path fill="none" stroke="none"/><text fill="#000000" stroke="none" font-family="Arial" font-size="13px" font-style="normal" font-weight="bold" text-decoration="none" x="420.872314453125" y="400">time remaining</text></g></g><g transform="translate(-110,-118) scale(1,1)"><path fill="none" stroke="#000000" d="M 475 375 L 507 329" stroke-miterlimit="10" stroke-dasharray="3"/></g><g transform="translate(-110,-118) scale(1,1)"><path fill="none" stroke="#000000" d="M 504.652072306624 339.74649875758047 L 507 329 L 497.7408422607802 334.9386865517761" stroke-miterlimit="10"/></g><g transform="translate(-110,-118) scale(1,1)"><g><path fill="none" stroke="none"/><text fill="#000000" stroke="none" font-family="Arial" font-size="13px" font-style="normal" font-weight="normal" text-decoration="none" x="437.5" y="356.5">«include»</text></g></g><g transform="translate(-110,-118) scale(1,1)"><path fill="none" stroke="#000000" d="M 411 337 L 471 320" stroke-miterlimit="10" stroke-dasharray="3"/></g><g transform="translate(-110,-118) scale(1,1)"><path fill="none" stroke="#000000" d="M 462.3697442777157 326.8204608471847 L 471 320 L 460.0746935395371 318.7202817712604" stroke-miterlimit="10"/></g><g transform="translate(-110,-118) scale(1,1)"><g><path fill="none" stroke="none"/><text fill="#000000" stroke="none" font-family="Arial" font-size="13px" font-style="normal" font-weight="normal" text-decoration="none" x="383.5" y="323.5">«include»</text></g></g></g></svg>